<?xml version="1.0" encoding="UTF-8"?>
<svg xmlns="http://www.w3.org/2000/svg" viewBox="0 0 926.99 926.99">
  <defs>
    <style>
      .cls-1 {
        mix-blend-mode: screen;
      }

      .cls-2 {
        isolation: isolate;
      }

      .cls-3 {
        fill: none;
        stroke: #f1f1ee;
        stroke-miterlimit: 10;
        stroke-width: 1px;
      }
    </style>
  </defs>
  <g class="cls-2">
    <g id="Layer_2" data-name="Layer 2">
      <g id="anime">
        <g>
          <g class="cls-1">
            <g>
              <circle class="cls-3" cx="463.5" cy="463.5" r="463.25"/>
              <ellipse class="cls-3" cx="463.5" cy="463.5" rx="463.25" ry="441.78"/>
              <ellipse class="cls-3" cx="463.5" cy="463.5" rx="463.25" ry="420.32"/>
              <ellipse class="cls-3" cx="463.5" cy="463.5" rx="463.25" ry="398.85"/>
              <ellipse class="cls-3" cx="463.5" cy="463.5" rx="463.25" ry="377.39"/>
              <ellipse class="cls-3" cx="463.5" cy="463.5" rx="463.25" ry="355.92"/>
              <ellipse class="cls-3" cx="463.5" cy="463.5" rx="463.25" ry="334.46"/>
              <ellipse class="cls-3" cx="463.5" cy="463.5" rx="463.25" ry="312.99"/>
              <ellipse class="cls-3" cx="463.5" cy="463.5" rx="463.25" ry="291.53"/>
              <ellipse class="cls-3" cx="463.5" cy="463.5" rx="463.25" ry="270.06"/>
              <ellipse class="cls-3" cx="463.5" cy="463.5" rx="463.25" ry="248.6"/>
              <ellipse class="cls-3" cx="463.5" cy="463.5" rx="463.25" ry="227.13"/>
              <ellipse class="cls-3" cx="463.5" cy="463.5" rx="463.25" ry="205.67"/>
              <ellipse class="cls-3" cx="463.5" cy="463.5" rx="463.25" ry="184.2"/>
              <ellipse class="cls-3" cx="463.5" cy="463.5" rx="463.25" ry="162.74"/>
              <ellipse class="cls-3" cx="463.5" cy="463.5" rx="463.25" ry="141.27"/>
              <ellipse class="cls-3" cx="463.5" cy="463.5" rx="463.25" ry="119.81"/>
              <ellipse class="cls-3" cx="463.5" cy="463.5" rx="463.25" ry="98.35"/>
              <ellipse class="cls-3" cx="463.5" cy="463.5" rx="463.25" ry="76.88"/>
              <ellipse class="cls-3" cx="463.5" cy="463.5" rx="463.25" ry="55.42"/>
              <ellipse class="cls-3" cx="463.5" cy="463.5" rx="463.25" ry="33.95"/>
              <ellipse class="cls-3" cx="463.5" cy="463.5" rx="463.25" ry="12.49"/>
            </g>
            <g>
              <circle class="cls-3" cx="463.5" cy="463.5" r="463.25"/>
              <ellipse class="cls-3" cx="463.5" cy="463.5" rx="441.78" ry="463.25"/>
              <ellipse class="cls-3" cx="463.5" cy="463.5" rx="420.32" ry="463.25"/>
              <ellipse class="cls-3" cx="463.5" cy="463.5" rx="398.85" ry="463.25"/>
              <ellipse class="cls-3" cx="463.5" cy="463.5" rx="377.39" ry="463.25"/>
              <ellipse class="cls-3" cx="463.5" cy="463.5" rx="355.92" ry="463.25"/>
              <ellipse class="cls-3" cx="463.5" cy="463.5" rx="334.46" ry="463.25"/>
              <ellipse class="cls-3" cx="463.5" cy="463.5" rx="312.99" ry="463.25"/>
              <ellipse class="cls-3" cx="463.5" cy="463.5" rx="291.53" ry="463.25"/>
              <ellipse class="cls-3" cx="463.5" cy="463.5" rx="270.06" ry="463.25"/>
              <ellipse class="cls-3" cx="463.5" cy="463.5" rx="248.6" ry="463.25"/>
              <ellipse class="cls-3" cx="463.5" cy="463.5" rx="227.13" ry="463.25"/>
              <ellipse class="cls-3" cx="463.5" cy="463.5" rx="205.67" ry="463.25"/>
              <ellipse class="cls-3" cx="463.5" cy="463.5" rx="184.2" ry="463.25"/>
              <ellipse class="cls-3" cx="463.5" cy="463.5" rx="162.74" ry="463.25"/>
              <ellipse class="cls-3" cx="463.5" cy="463.5" rx="141.27" ry="463.25"/>
              <ellipse class="cls-3" cx="463.5" cy="463.5" rx="119.81" ry="463.25"/>
              <ellipse class="cls-3" cx="463.5" cy="463.5" rx="98.35" ry="463.25"/>
              <ellipse class="cls-3" cx="463.5" cy="463.5" rx="76.88" ry="463.25"/>
              <ellipse class="cls-3" cx="463.5" cy="463.5" rx="55.42" ry="463.25"/>
              <ellipse class="cls-3" cx="463.5" cy="463.5" rx="33.95" ry="463.25"/>
              <ellipse class="cls-3" cx="463.5" cy="463.5" rx="12.49" ry="463.25"/>
            </g>
          </g>
          <g class="cls-1">
            <g>
              <circle class="cls-3" cx="463.5" cy="463.5" r="463.25"/>
              <ellipse class="cls-3" cx="463.5" cy="463.5" rx="441.78" ry="463.25" transform="translate(-191.99 463.5) rotate(-45)"/>
              <ellipse class="cls-3" cx="463.5" cy="463.5" rx="420.32" ry="463.25" transform="translate(-191.99 463.5) rotate(-45)"/>
              <ellipse class="cls-3" cx="463.5" cy="463.5" rx="398.85" ry="463.25" transform="translate(-191.99 463.5) rotate(-45)"/>
              <ellipse class="cls-3" cx="463.5" cy="463.5" rx="377.39" ry="463.25" transform="translate(-191.99 463.5) rotate(-45)"/>
              <ellipse class="cls-3" cx="463.5" cy="463.5" rx="355.92" ry="463.25" transform="translate(-191.99 463.5) rotate(-45)"/>
              <ellipse class="cls-3" cx="463.5" cy="463.5" rx="334.46" ry="463.25" transform="translate(-191.99 463.5) rotate(-45)"/>
              <ellipse class="cls-3" cx="463.5" cy="463.5" rx="312.99" ry="463.25" transform="translate(-191.99 463.5) rotate(-45)"/>
              <ellipse class="cls-3" cx="463.5" cy="463.5" rx="291.53" ry="463.25" transform="translate(-191.99 463.5) rotate(-45)"/>
              <ellipse class="cls-3" cx="463.5" cy="463.5" rx="270.06" ry="463.25" transform="translate(-191.99 463.5) rotate(-45)"/>
              <ellipse class="cls-3" cx="463.5" cy="463.5" rx="248.6" ry="463.25" transform="translate(-191.99 463.5) rotate(-45)"/>
              <ellipse class="cls-3" cx="463.5" cy="463.5" rx="227.13" ry="463.25" transform="translate(-191.99 463.5) rotate(-45)"/>
              <ellipse class="cls-3" cx="463.5" cy="463.5" rx="205.67" ry="463.25" transform="translate(-191.99 463.5) rotate(-45)"/>
              <ellipse class="cls-3" cx="463.5" cy="463.5" rx="184.2" ry="463.25" transform="translate(-191.99 463.5) rotate(-45)"/>
              <ellipse class="cls-3" cx="463.5" cy="463.5" rx="162.74" ry="463.25" transform="translate(-191.99 463.5) rotate(-45)"/>
              <ellipse class="cls-3" cx="463.5" cy="463.5" rx="141.27" ry="463.25" transform="translate(-191.99 463.5) rotate(-45)"/>
              <ellipse class="cls-3" cx="463.5" cy="463.5" rx="119.81" ry="463.25" transform="translate(-191.99 463.5) rotate(-45)"/>
              <ellipse class="cls-3" cx="463.5" cy="463.5" rx="98.35" ry="463.25" transform="translate(-191.99 463.49) rotate(-45)"/>
              <ellipse class="cls-3" cx="463.5" cy="463.5" rx="76.88" ry="463.25" transform="translate(-191.99 463.49) rotate(-45)"/>
              <ellipse class="cls-3" cx="463.5" cy="463.5" rx="55.42" ry="463.25" transform="translate(-191.99 463.49) rotate(-45)"/>
              <ellipse class="cls-3" cx="463.5" cy="463.5" rx="33.95" ry="463.25" transform="translate(-191.99 463.49) rotate(-45)"/>
              <ellipse class="cls-3" cx="463.5" cy="463.5" rx="12.49" ry="463.25" transform="translate(-191.99 463.49) rotate(-45)"/>
            </g>
            <g>
              <circle class="cls-3" cx="463.5" cy="463.5" r="463.25"/>
              <ellipse class="cls-3" cx="463.5" cy="463.5" rx="463.25" ry="441.78" transform="translate(-191.99 463.5) rotate(-45)"/>
              <ellipse class="cls-3" cx="463.5" cy="463.5" rx="463.25" ry="420.32" transform="translate(-191.99 463.5) rotate(-45)"/>
              <ellipse class="cls-3" cx="463.5" cy="463.5" rx="463.25" ry="398.85" transform="translate(-191.99 463.5) rotate(-45)"/>
              <ellipse class="cls-3" cx="463.5" cy="463.5" rx="463.25" ry="377.39" transform="translate(-191.99 463.5) rotate(-45)"/>
              <ellipse class="cls-3" cx="463.5" cy="463.5" rx="463.25" ry="355.92" transform="translate(-191.99 463.5) rotate(-45)"/>
              <ellipse class="cls-3" cx="463.5" cy="463.5" rx="463.25" ry="334.46" transform="translate(-191.99 463.5) rotate(-45)"/>
              <ellipse class="cls-3" cx="463.5" cy="463.5" rx="463.25" ry="312.99" transform="translate(-191.99 463.5) rotate(-45)"/>
              <ellipse class="cls-3" cx="463.5" cy="463.5" rx="463.25" ry="291.53" transform="translate(-191.99 463.5) rotate(-45)"/>
              <ellipse class="cls-3" cx="463.5" cy="463.5" rx="463.25" ry="270.06" transform="translate(-191.99 463.5) rotate(-45)"/>
              <ellipse class="cls-3" cx="463.5" cy="463.5" rx="463.25" ry="248.6" transform="translate(-191.99 463.5) rotate(-45)"/>
              <ellipse class="cls-3" cx="463.5" cy="463.5" rx="463.25" ry="227.13" transform="translate(-191.99 463.5) rotate(-45)"/>
              <ellipse class="cls-3" cx="463.5" cy="463.5" rx="463.25" ry="205.67" transform="translate(-191.99 463.5) rotate(-45)"/>
              <ellipse class="cls-3" cx="463.5" cy="463.5" rx="463.25" ry="184.2" transform="translate(-191.99 463.5) rotate(-45)"/>
              <ellipse class="cls-3" cx="463.5" cy="463.5" rx="463.25" ry="162.74" transform="translate(-191.99 463.5) rotate(-45)"/>
              <ellipse class="cls-3" cx="463.5" cy="463.5" rx="463.25" ry="141.27" transform="translate(-191.99 463.5) rotate(-45)"/>
              <ellipse class="cls-3" cx="463.5" cy="463.5" rx="463.25" ry="119.81" transform="translate(-191.99 463.5) rotate(-45)"/>
              <ellipse class="cls-3" cx="463.5" cy="463.5" rx="463.25" ry="98.35" transform="translate(-191.99 463.5) rotate(-45)"/>
              <ellipse class="cls-3" cx="463.5" cy="463.5" rx="463.25" ry="76.88" transform="translate(-191.99 463.5) rotate(-45)"/>
              <ellipse class="cls-3" cx="463.5" cy="463.5" rx="463.25" ry="55.42" transform="translate(-191.99 463.5) rotate(-45)"/>
              <ellipse class="cls-3" cx="463.5" cy="463.5" rx="463.25" ry="33.95" transform="translate(-191.99 463.5) rotate(-45)"/>
              <ellipse class="cls-3" cx="463.5" cy="463.5" rx="463.25" ry="12.49" transform="translate(-191.99 463.5) rotate(-45)"/>
            </g>
          </g>
        </g>
      </g>
    </g>
  </g>
</svg>