<?xml version="1.0" encoding="UTF-8"?>
<svg id="Layer_2" data-name="Layer 2" xmlns="http://www.w3.org/2000/svg" viewBox="0 0 129.58 26.57" width="129.58pt" height="26.57pt">
  <defs>
    <style>
      .cls-1 {
        fill: #fff;
      }

      .cls-2 {
        fill: #c30000;
      }
    </style>
  </defs>
  <g id="design">
    <g id="b">
      <g id="c">
        <g id="d">
          <g id="e">
            <path class="cls-1" d="M19.65,4.47h-7.45V26.57H7.43V4.47H0V0H19.65V4.47Z"/>
            <path class="cls-1" d="M47.08,9.07c.03,1.77-.47,3.51-1.42,5-.9,1.43-2.21,2.56-3.75,3.25l4.45,9.25h-5.29l-3.99-8.42h-5.16v8.42h-4.76V0h11.07c2.36-.04,4.63,.9,6.26,2.6,1.71,1.73,2.57,3.89,2.57,6.46h0Zm-6.1,3.27c.76-.91,1.17-2.07,1.14-3.26,.03-1.19-.38-2.35-1.14-3.26-.65-.85-1.66-1.35-2.74-1.35h-6.31V13.68h6.31c1.07,0,2.08-.5,2.74-1.34Z"/>
            <path class="cls-1" d="M60.23,22.1h13.7v4.46h-18.46V0h18.46V4.47h-13.7v6.55h11.4v4.46h-11.4v6.62h0Z"/>
            <path class="cls-1" d="M86.92,22.1h13.7v4.46h-18.45V0h18.47V4.47h-13.7v6.55h11.39v4.46h-11.41v6.62Z"/>
            <path class="cls-2" d="M121.37,13.29l8.22,13.28h-5.72l-5.33-9.09h-.13l-5.36,9.09h-5.7l8.2-13.28L107.34,0h5.7l5.37,9.13h.13L123.86,0h5.71l-8.21,13.28h0Z"/>
          </g>
        </g>
      </g>
    </g>
  </g>
</svg>