<?xml version="1.0" standalone="no"?>
<!DOCTYPE svg PUBLIC "-//W3C//DTD SVG 20010904//EN"
 "http://www.w3.org/TR/2001/REC-SVG-20010904/DTD/svg10.dtd">
<svg version="1.0" xmlns="http://www.w3.org/2000/svg"
 width="1667.000000pt" height="271.000000pt" viewBox="0 0 1667.000000 271.000000"
 preserveAspectRatio="xMidYMid meet">

<g transform="translate(0.000000,271.000000) scale(0.100000,-0.100000)"
fill="#fff" stroke="none">
<path d="M3110 1448 c-377 -666 -700 -1237 -718 -1270 l-33 -58 171 2 172 3
516 916 c368 653 519 912 524 900 4 -9 116 -398 248 -866 133 -467 248 -874
256 -903 l15 -52 166 0 c128 0 164 3 160 13 -6 15 -756 2451 -769 2495 -5 17
-12 32 -16 32 -4 -1 -315 -546 -692 -1212z"/>
<path d="M14470 2571 c0 -11 388 -772 399 -784 7 -7 267 273 278 299 2 7 -50
120 -116 253 l-121 241 -220 0 c-127 0 -220 -4 -220 -9z"/>
<path d="M15659 1990 c-299 -325 -545 -595 -547 -600 -2 -6 144 -293 325 -640
l328 -630 223 0 222 0 -26 53 c-37 72 -503 966 -575 1103 l-59 111 543 588
c298 323 544 592 545 596 2 5 -95 9 -216 9 l-219 0 -544 -590z"/>
<path d="M184 1348 l-160 -1223 145 -3 c79 -1 146 0 149 3 3 3 43 289 88 637
46 347 84 636 86 643 2 7 233 -279 514 -634 l510 -646 192 -3 c106 -1 192 0
192 3 0 3 -239 301 -530 661 -292 360 -531 658 -533 662 -1 5 111 112 248 238
138 126 411 376 608 557 l357 327 -197 -1 -198 0 -575 -544 c-316 -299 -575
-543 -577 -542 -1 1 29 241 68 532 38 291 69 535 69 542 0 10 -33 13 -148 13
l-148 0 -160 -1222z"/>
<path d="M5500 2564 c0 -11 -311 -2379 -316 -2411 l-6 -33 373 0 c399 0 543 9
679 41 320 75 518 333 523 679 3 257 -103 427 -328 524 l-75 33 62 23 c86 31
141 64 198 120 66 64 106 129 137 225 23 69 26 98 27 210 1 153 -19 233 -82
330 -100 154 -237 230 -457 255 -96 10 -735 14 -735 4z m774 -294 c231 -90
287 -418 105 -615 -99 -107 -194 -134 -505 -142 l-220 -6 53 389 c28 214 52
393 53 397 0 5 102 7 228 5 209 -4 232 -6 286 -28z m-111 -1034 c220 -61 331
-242 288 -471 -33 -176 -145 -299 -321 -349 -73 -21 -258 -36 -457 -36 -140 0
-163 2 -163 15 0 9 25 201 55 429 30 227 55 419 55 426 0 19 464 8 543 -14z"/>
<path d="M7716 2548 c-8 -36 -174 -1288 -192 -1443 -23 -204 -24 -462 -1 -545
55 -205 199 -366 397 -444 313 -123 741 -84 1011 93 192 127 299 287 373 562
44 166 64 290 161 1024 52 396 97 732 100 748 l5 27 -150 0 -149 0 -6 -32 c-3
-18 -48 -352 -100 -743 -107 -800 -105 -788 -146 -945 -59 -228 -155 -364
-317 -448 -104 -54 -175 -72 -317 -78 -410 -19 -617 208 -574 630 10 102 195
1523 205 1584 l6 32 -151 0 c-148 0 -151 0 -155 -22z"/>
<path d="M10450 2564 c0 -11 -311 -2379 -316 -2411 l-6 -33 150 0 150 0 10 73
c6 39 43 322 82 627 39 305 74 563 78 573 6 14 119 -123 517 -627 l510 -645
193 -1 c157 0 192 2 185 13 -4 7 -246 307 -537 666 l-529 653 34 33 c19 17
275 252 569 520 294 268 553 505 575 526 l40 39 -195 0 -195 0 -575 -544
c-316 -299 -576 -541 -578 -537 -2 6 117 940 134 1044 l6 37 -151 0 c-83 0
-151 -3 -151 -6z"/>
<path d="M12916 2528 c-3 -24 -73 -560 -156 -1193 -82 -632 -152 -1165 -155
-1182 l-6 -33 155 0 154 0 6 38 c9 58 316 2390 316 2402 0 6 -54 10 -154 10
l-154 0 -6 -42z"/>
<path d="M14350 589 c-184 -209 -352 -400 -373 -425 l-39 -44 224 0 223 0 230
261 c127 144 230 264 230 268 0 12 -149 321 -155 321 -3 -1 -156 -172 -340
-381z"/>
</g>
</svg>
