<?xml version="1.0" encoding="UTF-8"?>
<svg id="Layer_2" data-name="Layer 2" xmlns="http://www.w3.org/2000/svg" viewBox="0 0 170.84 24.78" width="170.84pt" height="24.78pt">
  <defs>
    <style>
      .cls-1 {
        fill: #fff;
      }
    </style>
  </defs>
  <g id="design">
    <g id="_レイヤー_2" data-name="レイヤー 2">
      <g id="_レイヤー_3" data-name="レイヤー 3">
        <path class="cls-1" d="M166.7,24.03V.75c0-.11,.09-.19,.19-.19h3.76c.11,0,.19,.09,.19,.19h0V24.03c0,.11-.09,.19-.19,.19h-3.76c-.11,0-.19-.09-.19-.19"/>
        <path class="cls-1" d="M154.68,24.03V14.69c0-.11-.09-.19-.19-.19h-10.34c-.11,0-.19,.09-.19,.19v9.34c0,.11-.09,.19-.19,.19h-3.76c-.11,0-.19-.09-.19-.19V.75c0-.11,.09-.19,.19-.19h3.76c.11,0,.19,.09,.19,.19V10.08c0,.11,.09,.19,.19,.19h10.39c.11,0,.19-.09,.19-.19V.75c-.01-.08,.03-.16,.1-.19h3.77c.11,0,.19,.09,.19,.19V24.03c0,.11-.09,.19-.19,.19h-3.77c-.1,0-.18-.08-.18-.18,0,0,0,0,0-.01"/>
        <path class="cls-1" d="M23.01,16.4c-.76,4.78-5.49,8.37-11.12,8.37C5.2,24.63-.12,19.09,0,12.39-.12,5.69,5.2,.15,11.9,0c3.11-.08,6.12,1.12,8.32,3.32,1.39,1.38,2.36,3.13,2.8,5.04,0,.17-.05,.25-.18,.25h-4.08c-.18,0-.16-.1-.19-.2-.31-.9-.81-1.73-1.47-2.41-1.38-1.38-3.27-2.12-5.22-2.03-2.09,0-4.07,.88-5.46,2.45-1.42,1.66-2.18,3.79-2.14,5.98-.05,2.18,.71,4.31,2.14,5.97,1.39,1.55,3.37,2.45,5.46,2.46h.1c1.52,.02,3.01-.42,4.27-1.27,1.14-.77,1.99-1.9,2.41-3.2,.01-.12,.11-.21,.23-.2h3.83c.14,0,.3,0,.29,.23"/>
        <path class="cls-1" d="M121.73,24.78c-6.7-.15-12.02-5.69-11.88-12.39C109.71,5.69,115.03,.15,121.73,0c3.11-.09,6.13,1.12,8.33,3.32,1.47,1.45,2.45,3.31,2.83,5.34h-4.43c-.28-.98-.8-1.88-1.51-2.62-1.37-1.41-3.26-2.16-5.22-2.08-2.09-.02-4.09,.88-5.47,2.45-1.42,1.66-2.18,3.79-2.14,5.98-.05,2.18,.71,4.31,2.14,5.97,1.39,1.56,3.37,2.45,5.46,2.46h.1c1.52,.02,3.01-.42,4.27-1.27,1.19-.8,2.07-1.99,2.48-3.37h4.27c-.64,4.9-5.43,8.61-11.16,8.61"/>
        <path class="cls-1" d="M41.27,24.78c-6.84,0-12.38-5.55-12.38-12.39,0-3.28,1.31-6.43,3.63-8.75,4.84-4.84,12.68-4.84,17.52,0,4.84,4.84,4.84,12.68,0,17.52h0c-2.32,2.33-5.48,3.64-8.77,3.63m0-20.8c-4.65,0-8.41,3.78-8.4,8.42,0,4.65,3.78,8.41,8.42,8.4,4.64,0,8.4-3.77,8.4-8.41,0-4.65-3.78-8.41-8.42-8.41"/>
        <path class="cls-1" d="M94.18,24.78c-2.63,.04-5.15-1.03-6.95-2.94-1.84-2.07-2.83-4.77-2.75-7.54V.74c0-.1,.08-.18,.18-.18,0,0,0,0,.01,0h3.77c.1,0,.19,.07,.19,.17,0,0,0,0,0,.01V14.19c-.08,1.73,.44,3.43,1.46,4.83,.76,.94,1.83,1.57,3.02,1.76,1.9,.25,3.8-.42,5.13-1.8,1.06-1.38,1.61-3.08,1.55-4.82V.74c0-.1,.08-.18,.18-.18h3.78c.1,0,.18,.08,.18,.18V14.34c0,5.85-4.27,10.43-9.72,10.43"/>
        <path class="cls-1" d="M63.74,20.29l9.78-11.75c.06-.08,.05-.2-.03-.27-.03-.03-.07-.04-.11-.04h-4.46c-.06,0-.11,.03-.14,.07l-10.47,12.42c-.05,.07-.08,.16-.09,.25v3.05c0,.11,.09,.19,.19,.19h19.01c.1,0,.18-.09,.18-.19v-3.2c0-.1-.08-.18-.18-.18h-13.53c-.1,0-.19-.07-.19-.17,0-.05,.02-.1,.05-.14"/>
        <rect class="cls-1" x="58.21" y=".56" width="19.39" height="3.58" rx=".19" ry=".19"/>
      </g>
    </g>
  </g>
</svg>