<?xml version="1.0" encoding="UTF-8"?>
<svg id="Layer_2" data-name="Layer 2" xmlns="http://www.w3.org/2000/svg" viewBox="0 0 142.21 24.82">
  <defs>
    <style>
      .cls-1 {
        fill: #fff;
      }
    </style>
  </defs>
  <g id="design">
    <g>
      <path class="cls-1" d="M0,24.14V.72c0-.1,.08-.18,.18-.18,0,0,0,0,0,0H5.02c.1,0,.18,.08,.18,.18V18.97c0,.1,.08,.18,.18,.18h10.73c.1,0,.18,.08,.18,.18v4.82c0,.1-.08,.18-.18,.18,0,0,0,0,0,0H.17c-.1,0-.17-.08-.17-.18,0,0,0,0,0,0Z"/>
      <path class="cls-1" d="M36.99,24.19l-1.22-3.8c-.02-.05-.07-.09-.12-.09h-7.88c-.06,0-.11,.04-.12,.09l-1.22,3.8c-.02,.07-.09,.12-.17,.12h-5.12c-.1,0-.18-.08-.18-.18,0-.01,0-.03,0-.04L27.75,.68c.02-.08,.09-.13,.17-.13h7.64c.08,0,.15,.05,.17,.13l6.71,23.41c.02,.1-.04,.19-.13,.21-.01,0-.03,0-.04,0h-5.11c-.08,0-.15-.05-.17-.12Zm-7.53-8.92h4.48c.07,0,.13-.06,.13-.13,0-.01,0-.03,0-.04l-2.24-6.97c-.02-.07-.09-.11-.16-.09-.04,.01-.08,.05-.09,.09l-2.24,6.97c-.02,.07,.02,.15,.09,.17,.01,0,.03,0,.04,0Z"/>
      <path class="cls-1" d="M47.11,24.14V.69c0-.1,.08-.18,.17-.18,0,0,0,0,0,0h16.72c.1,0,.18,.08,.18,.18,0,0,0,0,0,0V5.57c0,.1-.08,.18-.18,.18h-11.52c-.1,0-.18,.08-.18,.18v3.68c0,.1,.08,.18,.18,.18h8.32c.1,0,.18,.08,.18,.18,0,0,0,0,0,0v4.88c0,.1-.08,.18-.17,.18,0,0,0,0,0,0h-8.32c-.1,0-.18,.08-.18,.18,0,0,0,0,0,0v3.72c0,.1,.08,.18,.17,.18,0,0,0,0,0,0h11.52c.1,0,.18,.08,.18,.18,0,0,0,0,0,0v4.87c0,.1-.08,.18-.18,.18h-16.72c-.1,0-.18-.08-.18-.18h0Z"/>
      <path class="cls-1" d="M76,24.13V5.96c0-.1-.08-.18-.18-.18h-6.48c-.1,0-.18-.08-.18-.18V.72c0-.1,.08-.18,.18-.18h18.48c.1,0,.18,.08,.18,.18V5.6c0,.1-.08,.18-.18,.18h-6.45c-.1,0-.18,.08-.18,.18V24.13c0,.1-.08,.18-.18,.18h-4.84c-.1,0-.18-.08-.18-.18Z"/>
      <path class="cls-1" d="M101.49,24.82c-1.27,.01-2.52-.23-3.69-.7-1.16-.49-2.21-1.21-3.08-2.11-1.82-1.78-2.83-4.24-2.78-6.79v-5.63c-.01-1.27,.23-2.52,.7-3.7,.49-1.16,1.21-2.21,2.11-3.1,.88-.9,1.93-1.61,3.09-2.1C99,.23,100.24-.01,101.49,0c1.27-.01,2.52,.23,3.7,.7,1.16,.49,2.21,1.21,3.1,2.11,.9,.89,1.61,1.94,2.1,3.1,.47,1.17,.71,2.42,.7,3.68v5.64c.01,1.27-.23,2.52-.7,3.7-1.48,3.6-5,5.94-8.89,5.89Zm-.17-19.65c-1.14-.02-2.25,.43-3.05,1.25-.83,.79-1.29,1.89-1.27,3.04v5.71c-.02,1.15,.44,2.25,1.27,3.04,.81,.81,1.91,1.26,3.05,1.25,2.36,0,4.28-1.9,4.29-4.26,0,0,0-.02,0-.03v-5.71c0-2.36-1.9-4.28-4.26-4.29-.01,0-.02,0-.03,0Z"/>
      <path class="cls-1" d="M116.06,24.14V.72c0-.1,.08-.18,.18-.18,0,0,0,0,0,0h4.85c.1,0,.18,.08,.18,.18h0V18.97c0,.1,.08,.18,.18,.18h10.73c.1,0,.18,.08,.18,.18v4.82c0,.1-.08,.18-.18,.18,0,0,0,0,0,0h-15.94c-.1,0-.17-.08-.17-.18,0,0,0,0,0,0Z"/>
      <rect class="cls-1" x="137.01" y=".55" width="5.2" height="23.77" rx=".18" ry=".18"/>
    </g>
  </g>
</svg>