<?xml version="1.0" encoding="UTF-8"?><svg id="_レイヤー_2" xmlns="http://www.w3.org/2000/svg" xmlns:xlink="http://www.w3.org/1999/xlink" viewBox="0 0 898.86 359.06"><defs><style>.cls-1,.cls-2,.cls-3{fill:none;}.cls-4{clip-path:url(#clippath);}.cls-5{fill:#323230;}.cls-6{fill:#ababa4;}.cls-7{fill:#e5e5df;}.cls-7,.cls-2,.cls-3{stroke-miterlimit:10;}.cls-7,.cls-3{stroke:#cececa;}.cls-2{stroke:#323230;}</style><clipPath id="clippath"><rect class="cls-1" x="122.84" y="24.96" width="74.17" height="313.18"/></clipPath></defs><g id="design"><g><g><path d="M191.4,357.95l-.51-.72,.98-4.62c.08-.39,.09-.7,.04-.96-.06-.25-.16-.48-.31-.68-.18-.25-.4-.43-.65-.54-.26-.12-.52-.16-.8-.14s-.54,.12-.79,.3c-.26,.19-.44,.41-.55,.68-.11,.27-.15,.54-.12,.82,.03,.28,.13,.54,.3,.77l-.81,.59c-.29-.4-.46-.82-.5-1.27-.04-.45,.04-.88,.23-1.29,.2-.41,.5-.77,.91-1.06,.4-.29,.82-.46,1.27-.5,.45-.05,.88,.02,1.29,.21,.41,.18,.76,.47,1.04,.86,.21,.28,.35,.55,.42,.8s.11,.52,.09,.8c-.02,.28-.07,.6-.15,.95l-.82,3.84-.3-.19,3.44-2.5,.55,.76-4.26,3.09Z"/><path d="M199.7,352.13c-.41,.3-.85,.48-1.31,.52-.46,.05-.91-.02-1.33-.21s-.79-.49-1.09-.91l-1.71-2.35c-.3-.42-.48-.85-.53-1.31-.05-.46,.02-.9,.21-1.33,.19-.42,.49-.79,.91-1.09,.41-.3,.85-.48,1.32-.53,.46-.05,.91,.02,1.33,.21,.42,.19,.79,.49,1.09,.91l1.71,2.35c.3,.42,.48,.85,.53,1.31,.05,.46-.02,.9-.21,1.33-.19,.43-.49,.79-.91,1.09Zm-.55-.76c.25-.18,.44-.41,.55-.68,.12-.27,.16-.55,.13-.85s-.13-.57-.31-.82l-1.78-2.44c-.18-.25-.41-.43-.68-.55-.27-.12-.55-.16-.85-.14s-.56,.13-.82,.32c-.25,.18-.43,.41-.55,.68s-.16,.55-.13,.85c.03,.29,.13,.57,.31,.81l1.77,2.44c.18,.25,.41,.43,.68,.55s.55,.16,.85,.13c.29-.03,.57-.13,.81-.31Z"/><path d="M203.55,349.13l-.51-.71,.98-4.62c.08-.39,.09-.7,.04-.96-.06-.25-.16-.48-.31-.68-.18-.25-.39-.43-.65-.54-.26-.12-.52-.16-.8-.14-.28,.02-.54,.12-.79,.3-.25,.19-.44,.41-.55,.68-.11,.27-.15,.54-.12,.82,.03,.28,.13,.54,.3,.77l-.81,.59c-.29-.4-.46-.82-.5-1.27-.04-.45,.04-.88,.23-1.29,.19-.41,.5-.77,.91-1.06,.4-.29,.82-.46,1.27-.5,.45-.05,.88,.02,1.29,.2,.41,.18,.76,.47,1.04,.86,.21,.28,.35,.55,.42,.8s.11,.52,.09,.8c-.02,.28-.07,.6-.15,.95l-.82,3.84-.3-.19,3.44-2.5,.55,.76-4.26,3.09Z"/><path d="M210.7,343.93l-4.02-5.53-.68,1.61-.64-.89,.68-1.6,.8-.58,4.66,6.41-.81,.58Z"/><path d="M216.17,340.16c-.42,.3-.85,.48-1.32,.52-.46,.05-.9-.02-1.33-.21s-.79-.49-1.09-.9l-1.71-2.35c-.3-.42-.48-.85-.52-1.32s.02-.9,.21-1.33c.19-.42,.49-.79,.9-1.09,.42-.3,.86-.48,1.32-.53,.46-.05,.91,.02,1.33,.21,.42,.19,.79,.49,1.09,.91l1.71,2.35c.3,.42,.48,.85,.53,1.31s-.02,.9-.21,1.33c-.19,.43-.49,.79-.91,1.09Zm-.55-.76c.25-.18,.44-.41,.55-.68,.12-.27,.16-.55,.13-.85-.03-.29-.13-.57-.31-.82l-1.78-2.44c-.18-.25-.41-.43-.68-.55-.27-.12-.55-.16-.85-.14s-.56,.13-.82,.32c-.25,.18-.43,.41-.55,.68-.12,.27-.16,.55-.13,.85,.03,.29,.13,.57,.31,.81l1.78,2.44c.18,.25,.41,.43,.68,.55s.55,.16,.85,.13c.29-.03,.57-.13,.82-.31Z"/><path d="M222.48,335.58c-.41,.3-.85,.47-1.32,.51-.47,.04-.93-.03-1.37-.23-.44-.2-.82-.51-1.13-.94l-1.55-2.13c-.33-.45-.52-.91-.57-1.4-.05-.48,.02-.95,.21-1.39,.2-.44,.51-.82,.95-1.14,.35-.26,.73-.42,1.14-.5,.41-.08,.82-.06,1.22,.06l-.21,.96c-.26-.09-.54-.12-.82-.08-.29,.04-.54,.14-.78,.31-.28,.21-.48,.46-.6,.75-.12,.3-.16,.6-.12,.91,.04,.31,.14,.59,.33,.85l.93,1.29-.31-.07c0-.4,.07-.79,.25-1.16,.17-.37,.42-.67,.76-.92,.4-.29,.82-.46,1.27-.5,.45-.04,.88,.03,1.3,.22,.41,.19,.77,.48,1.05,.88s.45,.83,.49,1.3-.04,.92-.23,1.35-.49,.79-.88,1.08Zm-.56-.77c.26-.19,.44-.42,.56-.69,.12-.28,.17-.56,.14-.86-.03-.3-.13-.58-.32-.83-.19-.26-.42-.44-.69-.56-.28-.12-.56-.17-.86-.14s-.58,.13-.83,.32c-.26,.19-.44,.42-.56,.69-.12,.28-.16,.56-.14,.86,.03,.3,.13,.58,.32,.83,.18,.25,.41,.44,.69,.56s.56,.17,.86,.14c.3-.03,.58-.13,.83-.32Z"/></g><g><path d="M267.4,357.95l-.51-.72,.98-4.62c.08-.39,.09-.7,.04-.96-.06-.25-.16-.48-.31-.68-.18-.25-.4-.43-.65-.54-.26-.12-.52-.16-.8-.14s-.54,.12-.79,.3c-.26,.19-.44,.41-.55,.68-.11,.27-.15,.54-.12,.82,.03,.28,.13,.54,.3,.77l-.81,.59c-.29-.4-.46-.82-.5-1.27-.04-.45,.04-.88,.23-1.29,.2-.41,.5-.77,.91-1.06,.4-.29,.82-.46,1.27-.5,.45-.05,.88,.02,1.29,.21,.41,.18,.76,.47,1.04,.86,.21,.28,.35,.55,.42,.8s.11,.52,.09,.8c-.02,.28-.07,.6-.15,.95l-.82,3.84-.3-.19,3.44-2.5,.55,.76-4.26,3.09Z"/><path d="M275.7,352.13c-.41,.3-.85,.48-1.31,.52-.46,.05-.91-.02-1.33-.21s-.79-.49-1.09-.91l-1.71-2.35c-.3-.42-.48-.85-.53-1.31-.05-.46,.02-.9,.21-1.33,.19-.42,.49-.79,.91-1.09,.41-.3,.85-.48,1.32-.53,.46-.05,.91,.02,1.33,.21,.42,.19,.79,.49,1.09,.91l1.71,2.35c.3,.42,.48,.85,.53,1.31,.05,.46-.02,.9-.21,1.33-.19,.43-.49,.79-.91,1.09Zm-.55-.76c.25-.18,.44-.41,.55-.68,.12-.27,.16-.55,.13-.85s-.13-.57-.31-.82l-1.78-2.44c-.18-.25-.41-.43-.68-.55-.27-.12-.55-.16-.85-.14s-.56,.13-.82,.32c-.25,.18-.43,.41-.55,.68s-.16,.55-.13,.85c.03,.29,.13,.57,.31,.81l1.77,2.44c.18,.25,.41,.43,.68,.55s.55,.16,.85,.13c.29-.03,.57-.13,.81-.31Z"/><path d="M279.54,349.13l-.51-.71,.98-4.62c.08-.39,.09-.7,.04-.96-.06-.25-.16-.48-.31-.68-.18-.25-.39-.43-.65-.54-.26-.12-.52-.16-.8-.14-.28,.02-.54,.12-.79,.3-.25,.19-.44,.41-.55,.68-.11,.27-.15,.54-.12,.82,.03,.28,.13,.54,.3,.77l-.81,.59c-.29-.4-.46-.82-.5-1.27-.04-.45,.04-.88,.23-1.29,.19-.41,.5-.77,.91-1.06,.4-.29,.82-.46,1.27-.5,.45-.05,.88,.02,1.29,.2,.41,.18,.76,.47,1.04,.86,.21,.28,.35,.55,.42,.8s.11,.52,.09,.8c-.02,.28-.07,.6-.15,.95l-.82,3.84-.3-.19,3.44-2.5,.55,.76-4.26,3.09Z"/><path d="M286.7,343.93l-4.02-5.53-.68,1.61-.64-.89,.68-1.6,.8-.58,4.66,6.41-.81,.58Z"/><path d="M292.17,340.16c-.42,.3-.85,.48-1.32,.52-.46,.05-.9-.02-1.33-.21s-.79-.49-1.09-.9l-1.71-2.35c-.3-.42-.48-.85-.52-1.32s.02-.9,.21-1.33c.19-.42,.49-.79,.9-1.09,.42-.3,.86-.48,1.32-.53,.46-.05,.91,.02,1.33,.21,.42,.19,.79,.49,1.09,.91l1.71,2.35c.3,.42,.48,.85,.53,1.31s-.02,.9-.21,1.33c-.19,.43-.49,.79-.91,1.09Zm-.55-.76c.25-.18,.44-.41,.55-.68,.12-.27,.16-.55,.13-.85-.03-.29-.13-.57-.31-.82l-1.78-2.44c-.18-.25-.41-.43-.68-.55-.27-.12-.55-.16-.85-.14s-.56,.13-.82,.32c-.25,.18-.43,.41-.55,.68-.12,.27-.16,.55-.13,.85,.03,.29,.13,.57,.31,.81l1.78,2.44c.18,.25,.41,.43,.68,.55s.55,.16,.85,.13c.29-.03,.57-.13,.82-.31Z"/><path d="M293.54,328.98c.41-.3,.84-.47,1.32-.51,.47-.04,.93,.03,1.37,.23,.44,.2,.82,.51,1.13,.94l1.55,2.13c.32,.45,.52,.92,.57,1.4,.06,.48-.02,.95-.21,1.39-.2,.44-.52,.82-.95,1.14-.35,.26-.73,.42-1.14,.5-.41,.08-.81,.06-1.22-.06l.21-.95c.26,.09,.54,.11,.82,.08,.29-.04,.54-.14,.78-.31,.28-.2,.48-.45,.6-.75s.16-.6,.13-.91c-.04-.31-.15-.59-.33-.85l-.93-1.29,.32,.07c0,.4-.07,.79-.24,1.16-.17,.37-.43,.68-.76,.92-.4,.29-.82,.46-1.27,.5-.45,.04-.89-.03-1.3-.22-.41-.19-.77-.48-1.05-.88-.29-.4-.45-.83-.49-1.3s.04-.92,.23-1.35c.19-.43,.48-.79,.88-1.08Zm.55,.76c-.26,.19-.44,.42-.56,.69-.12,.28-.17,.56-.14,.86,.03,.3,.13,.58,.32,.83,.19,.25,.42,.44,.69,.56,.28,.12,.56,.17,.86,.14,.3-.03,.58-.13,.83-.32,.25-.19,.44-.42,.56-.69,.12-.28,.16-.56,.14-.86-.03-.3-.13-.58-.32-.83-.18-.25-.41-.44-.69-.56-.27-.12-.56-.17-.86-.14-.3,.03-.58,.13-.83,.32Z"/></g><g><path d="M74.19,358.22l-.51-.71,.99-4.62c.08-.39,.09-.71,.04-.96-.06-.25-.16-.48-.31-.68-.18-.25-.4-.43-.65-.54-.26-.12-.52-.16-.8-.14-.28,.02-.54,.12-.79,.3-.26,.19-.44,.41-.55,.68-.11,.27-.15,.54-.12,.82,.03,.28,.13,.54,.3,.77l-.81,.59c-.29-.4-.46-.82-.5-1.27-.04-.45,.04-.88,.23-1.29,.2-.41,.5-.77,.91-1.06,.4-.29,.82-.46,1.27-.5s.88,.02,1.29,.2c.41,.18,.76,.47,1.04,.86,.21,.28,.35,.55,.42,.8,.08,.25,.11,.52,.09,.8-.02,.28-.07,.6-.15,.95l-.82,3.84-.3-.19,3.44-2.5,.55,.76-4.26,3.09Z"/><path d="M82.49,352.4c-.42,.3-.85,.48-1.32,.52-.46,.05-.9-.02-1.33-.21-.42-.19-.79-.49-1.09-.91l-1.71-2.35c-.3-.42-.48-.85-.52-1.31-.05-.46,.02-.9,.21-1.33,.19-.42,.49-.79,.91-1.09s.85-.48,1.32-.53c.46-.05,.91,.02,1.33,.21,.42,.19,.78,.49,1.09,.91l1.71,2.35c.3,.42,.48,.85,.53,1.31,.05,.46-.02,.9-.21,1.33-.19,.43-.49,.79-.91,1.09Zm-.55-.76c.25-.18,.44-.41,.55-.68,.12-.27,.16-.55,.13-.85-.03-.29-.13-.57-.31-.82l-1.77-2.44c-.18-.25-.41-.43-.68-.55-.27-.12-.55-.16-.85-.14-.29,.03-.57,.13-.82,.32-.25,.18-.43,.41-.55,.68-.12,.27-.16,.56-.13,.85,.03,.29,.13,.57,.31,.82l1.77,2.44c.18,.25,.41,.43,.68,.55,.27,.12,.55,.16,.85,.13,.29-.03,.57-.13,.82-.31Z"/><path d="M87.63,348.46l-4.02-5.53-.67,1.61-.64-.89,.68-1.6,.81-.58,4.66,6.41-.81,.58Z"/><path d="M88.18,338.07c.41-.29,.85-.47,1.32-.51,.47-.04,.93,.03,1.37,.23,.44,.2,.82,.51,1.13,.94l1.55,2.13c.33,.45,.52,.92,.57,1.4,.06,.48-.01,.95-.21,1.39-.2,.44-.52,.82-.95,1.14-.35,.26-.73,.42-1.14,.5-.41,.08-.81,.06-1.22-.06l.21-.95c.26,.09,.54,.11,.82,.08,.29-.04,.54-.14,.78-.31,.28-.2,.48-.45,.6-.75,.12-.29,.16-.6,.12-.91-.04-.31-.14-.59-.33-.85l-.93-1.29,.32,.07c.01,.4-.07,.79-.24,1.16-.17,.37-.43,.68-.76,.92-.4,.29-.82,.45-1.27,.5-.45,.04-.88-.03-1.3-.22-.41-.19-.77-.48-1.05-.88s-.45-.83-.49-1.3c-.04-.47,.04-.92,.23-1.35,.19-.43,.49-.79,.88-1.08Zm.56,.77c-.25,.19-.44,.42-.56,.69-.12,.28-.17,.56-.14,.86s.13,.58,.32,.83c.19,.25,.42,.44,.69,.56,.27,.12,.56,.17,.86,.14,.3-.03,.58-.13,.83-.32,.26-.19,.44-.42,.56-.69,.12-.28,.16-.56,.14-.86-.03-.3-.13-.58-.32-.83-.18-.25-.41-.44-.69-.56-.28-.12-.56-.16-.86-.14-.3,.03-.58,.13-.83,.32Z"/><path d="M99.33,340.16c-.42,.3-.85,.48-1.32,.52-.46,.05-.9-.02-1.33-.21-.42-.19-.79-.49-1.09-.91l-1.71-2.35c-.3-.42-.48-.85-.52-1.32-.05-.46,.02-.9,.21-1.33,.19-.43,.49-.79,.9-1.09s.85-.48,1.32-.53c.46-.05,.91,.02,1.33,.21,.42,.19,.78,.49,1.09,.91l1.71,2.35c.3,.42,.48,.85,.53,1.31,.05,.46-.02,.9-.21,1.33-.19,.43-.49,.79-.91,1.09Zm-.55-.76c.25-.18,.44-.41,.55-.68,.12-.27,.16-.55,.13-.85-.03-.29-.13-.57-.31-.82l-1.78-2.44c-.18-.25-.41-.43-.68-.55s-.55-.16-.85-.14c-.29,.03-.57,.13-.82,.32-.25,.18-.43,.41-.55,.68s-.16,.56-.13,.85c.03,.29,.13,.57,.31,.82l1.77,2.44c.18,.25,.41,.43,.68,.55,.27,.12,.55,.16,.85,.13,.29-.03,.57-.13,.81-.31Z"/><path d="M100.7,328.98c.41-.3,.85-.47,1.32-.51,.47-.04,.93,.03,1.37,.23,.44,.2,.82,.51,1.13,.94l1.55,2.13c.33,.45,.52,.91,.57,1.4,.06,.48-.01,.95-.21,1.39-.2,.44-.52,.82-.95,1.14-.35,.26-.73,.42-1.14,.5-.41,.08-.81,.06-1.22-.06l.21-.95c.26,.09,.54,.11,.82,.08,.29-.04,.55-.14,.78-.31,.28-.21,.48-.46,.6-.75,.12-.3,.16-.6,.13-.91-.04-.31-.15-.59-.33-.85l-.93-1.29,.32,.07c0,.4-.07,.79-.24,1.16-.17,.37-.43,.68-.76,.92-.4,.29-.82,.46-1.27,.5-.45,.04-.88-.03-1.3-.22-.41-.19-.76-.48-1.05-.88s-.45-.83-.49-1.3c-.04-.47,.04-.92,.23-1.35s.49-.79,.88-1.08Zm.56,.76c-.25,.19-.44,.42-.56,.69-.12,.28-.17,.56-.14,.86,.03,.3,.13,.58,.32,.83,.19,.25,.42,.44,.69,.56,.28,.12,.56,.17,.86,.14,.3-.03,.58-.13,.83-.32,.26-.19,.44-.42,.56-.69,.12-.28,.16-.56,.14-.86-.03-.3-.13-.58-.32-.83-.18-.25-.41-.44-.69-.56-.28-.12-.56-.17-.86-.14s-.58,.13-.83,.32Z"/></g><g><path d="M418.37,358.69l-.51-.71,.98-4.62c.08-.39,.09-.7,.04-.96-.06-.25-.16-.48-.31-.68-.18-.25-.4-.43-.65-.54-.26-.12-.52-.16-.8-.14s-.54,.12-.79,.3c-.26,.19-.44,.41-.55,.68-.11,.27-.15,.54-.12,.82,.03,.28,.13,.54,.3,.77l-.81,.59c-.29-.4-.46-.82-.5-1.27s.04-.88,.23-1.29c.2-.41,.5-.77,.91-1.06,.4-.29,.82-.46,1.27-.5,.45-.05,.88,.02,1.29,.21,.41,.18,.76,.47,1.04,.86,.21,.28,.35,.55,.42,.8s.11,.52,.09,.8c-.02,.28-.07,.6-.15,.95l-.82,3.84-.3-.19,3.44-2.5,.55,.76-4.26,3.09Z"/><path d="M426.67,352.87c-.41,.3-.85,.48-1.31,.52-.46,.05-.91-.02-1.33-.21s-.79-.49-1.09-.9l-1.71-2.35c-.3-.42-.48-.85-.53-1.32-.05-.46,.02-.9,.21-1.33,.19-.42,.49-.79,.9-1.09,.42-.3,.86-.48,1.32-.52,.46-.05,.91,.02,1.33,.21,.42,.19,.79,.49,1.09,.91l1.71,2.35c.3,.42,.48,.85,.53,1.31,.05,.46-.02,.9-.21,1.33-.19,.43-.49,.79-.91,1.09Zm-.55-.76c.25-.18,.44-.41,.55-.68,.12-.27,.16-.55,.13-.85s-.13-.57-.31-.82l-1.78-2.44c-.18-.25-.41-.43-.68-.55-.27-.12-.55-.16-.85-.14-.29,.03-.56,.13-.82,.32-.25,.18-.43,.41-.55,.68-.12,.27-.16,.55-.13,.85,.03,.29,.13,.57,.31,.81l1.77,2.44c.18,.25,.41,.43,.68,.55s.55,.16,.85,.13c.29-.03,.57-.13,.81-.31Z"/><path d="M430.51,349.86l-.51-.71,.98-4.62c.08-.39,.09-.7,.04-.96-.06-.25-.16-.48-.31-.68-.18-.25-.4-.43-.65-.54-.26-.12-.52-.16-.8-.14s-.54,.12-.79,.3c-.26,.19-.44,.41-.55,.68-.11,.27-.15,.54-.12,.82,.03,.28,.13,.54,.3,.77l-.81,.59c-.29-.4-.46-.82-.5-1.27s.04-.88,.23-1.29c.2-.41,.5-.77,.91-1.06,.4-.29,.82-.46,1.27-.5,.45-.05,.88,.02,1.29,.21,.41,.18,.76,.47,1.04,.86,.21,.28,.35,.55,.42,.8s.11,.52,.09,.8c-.02,.28-.07,.6-.15,.95l-.82,3.84-.3-.19,3.44-2.5,.55,.76-4.26,3.09Z"/><path d="M436.37,345.61l-.51-.71,.98-4.62c.08-.38,.1-.7,.04-.95-.06-.25-.16-.48-.3-.68-.18-.25-.4-.43-.65-.54-.25-.12-.52-.16-.8-.14s-.54,.12-.79,.3c-.25,.19-.44,.41-.55,.68-.11,.27-.15,.54-.12,.82,.03,.28,.13,.54,.3,.77l-.81,.59c-.29-.4-.46-.82-.5-1.27-.04-.45,.04-.88,.23-1.29s.5-.77,.91-1.06c.4-.29,.82-.46,1.27-.5,.45-.05,.88,.02,1.29,.2,.41,.18,.76,.47,1.04,.86,.21,.28,.35,.55,.43,.8,.08,.25,.11,.52,.09,.8-.02,.28-.07,.6-.15,.95l-.82,3.84-.29-.19,3.44-2.5,.55,.76-4.26,3.09Z"/><path d="M444.67,339.79c-.42,.3-.85,.48-1.32,.52-.46,.05-.9-.02-1.33-.21-.42-.19-.79-.49-1.09-.9l-1.71-2.35c-.3-.42-.48-.85-.52-1.32-.05-.46,.02-.9,.21-1.33,.19-.42,.49-.79,.9-1.09,.42-.3,.85-.48,1.32-.52,.46-.05,.91,.02,1.33,.21s.79,.49,1.09,.91l1.71,2.35c.3,.42,.48,.85,.53,1.31s-.02,.9-.21,1.33c-.19,.43-.49,.79-.91,1.09Zm-.55-.76c.25-.18,.44-.41,.55-.68,.12-.27,.16-.55,.13-.85-.03-.29-.13-.57-.31-.82l-1.78-2.44c-.18-.25-.41-.43-.68-.55-.27-.12-.55-.16-.85-.14-.29,.03-.57,.13-.82,.32-.25,.18-.43,.41-.55,.68-.12,.27-.16,.55-.13,.85,.03,.29,.13,.57,.31,.82l1.78,2.44c.18,.25,.41,.43,.68,.55s.55,.16,.85,.13c.29-.03,.57-.13,.82-.31Z"/><path d="M450.55,335.51c-.32,.23-.65,.39-1.01,.47-.36,.08-.71,.09-1.07,.01-.35-.07-.69-.22-.99-.45l.6-.77c.31,.23,.64,.33,.98,.32,.34-.01,.65-.12,.93-.33,.26-.2,.44-.42,.55-.67,.11-.25,.14-.52,.1-.79-.04-.28-.15-.54-.34-.8-.29-.39-.64-.63-1.06-.71-.42-.08-.82,.03-1.21,.31-.11,.08-.21,.17-.3,.29-.1,.12-.17,.24-.24,.36l-.84-.35,.81-3.88,.3,.19-3.19,2.32-.55-.76,3.78-2.75,.55,.76-.62,3.41-.21-.27c.4-.33,.83-.53,1.27-.6,.44-.06,.86,0,1.27,.18,.41,.19,.76,.48,1.05,.89,.3,.41,.47,.84,.51,1.29,.04,.45-.03,.88-.21,1.28-.19,.41-.47,.76-.87,1.05Z"/></g><g><path d="M345.73,356.25l-.51-.71,.98-4.62c.08-.38,.09-.7,.04-.95-.06-.25-.16-.48-.31-.68-.18-.25-.4-.43-.65-.54-.26-.12-.52-.16-.8-.14s-.54,.12-.79,.3c-.25,.19-.44,.41-.55,.68-.11,.27-.15,.54-.12,.82,.03,.28,.13,.54,.3,.77l-.81,.59c-.29-.4-.46-.82-.5-1.27-.04-.45,.04-.88,.23-1.29s.5-.77,.91-1.06c.4-.29,.82-.46,1.27-.5,.45-.05,.88,.02,1.29,.2s.76,.47,1.04,.86c.21,.28,.35,.55,.42,.8,.08,.25,.11,.52,.09,.8-.02,.28-.07,.6-.15,.95l-.82,3.84-.3-.19,3.44-2.5,.55,.76-4.26,3.09Z"/><path d="M354.03,350.43c-.42,.3-.85,.48-1.32,.52-.46,.05-.9-.02-1.33-.21-.42-.19-.79-.49-1.09-.9l-1.71-2.35c-.3-.42-.48-.85-.52-1.32-.05-.46,.02-.9,.21-1.33,.19-.43,.49-.79,.91-1.09,.41-.3,.85-.48,1.32-.52,.46-.05,.91,.02,1.33,.21,.42,.19,.79,.49,1.09,.91l1.71,2.35c.3,.42,.48,.85,.53,1.31,.05,.46-.02,.9-.21,1.33-.19,.43-.49,.79-.91,1.09Zm-.55-.76c.25-.18,.44-.41,.55-.68,.12-.27,.16-.55,.13-.85-.03-.29-.13-.57-.31-.82l-1.77-2.44c-.18-.25-.41-.43-.68-.55-.27-.12-.55-.16-.85-.14s-.57,.13-.82,.32c-.25,.18-.43,.41-.55,.68-.12,.27-.16,.55-.13,.85,.03,.29,.13,.57,.31,.82l1.78,2.44c.18,.25,.41,.43,.68,.55,.27,.12,.55,.16,.85,.13s.57-.13,.82-.31Z"/><path d="M357.87,347.43l-.51-.71,.98-4.62c.08-.38,.09-.7,.04-.95-.06-.25-.16-.48-.31-.68-.18-.25-.4-.43-.65-.54-.26-.12-.52-.16-.8-.14s-.54,.12-.79,.3c-.25,.19-.44,.41-.55,.68-.11,.27-.15,.54-.12,.82,.03,.28,.13,.54,.3,.77l-.81,.59c-.29-.4-.46-.82-.5-1.27-.04-.45,.04-.88,.23-1.29,.2-.41,.5-.77,.91-1.06,.4-.29,.82-.46,1.27-.5,.45-.05,.88,.02,1.29,.2s.76,.47,1.04,.86c.21,.28,.35,.55,.42,.8,.08,.25,.11,.52,.09,.8-.02,.28-.07,.6-.15,.95l-.82,3.84-.3-.19,3.44-2.5,.55,.76-4.26,3.09Z"/><path d="M365.03,342.24l-4.02-5.53-.67,1.61-.64-.89,.68-1.6,.81-.58,4.66,6.41-.8,.58Z"/><path d="M369.35,339.09l-4.02-5.53-.67,1.61-.64-.88,.68-1.6,.81-.59,4.66,6.41-.81,.59Z"/><path d="M372.38,336.89l-.51-.71,.98-4.62c.08-.38,.09-.7,.04-.95-.06-.25-.16-.48-.31-.68-.18-.25-.4-.43-.65-.54-.26-.12-.52-.16-.8-.14s-.54,.12-.79,.3c-.25,.19-.44,.41-.55,.68-.11,.27-.15,.54-.12,.82,.03,.28,.13,.54,.3,.77l-.81,.59c-.29-.4-.46-.82-.5-1.27s.04-.88,.23-1.29c.2-.41,.5-.77,.91-1.06,.4-.29,.82-.46,1.27-.5,.45-.05,.88,.02,1.29,.2,.41,.18,.76,.47,1.04,.86,.21,.28,.35,.55,.42,.8,.08,.25,.11,.52,.09,.8-.02,.28-.07,.6-.15,.95l-.82,3.84-.3-.19,3.44-2.5,.55,.76-4.26,3.09Z"/></g><g><path d="M493.84,359.06l-.51-.71,.99-4.62c.08-.39,.09-.7,.04-.95-.06-.25-.16-.48-.31-.68-.18-.25-.4-.43-.65-.54-.26-.12-.52-.16-.8-.14-.28,.02-.54,.12-.79,.3-.26,.19-.44,.41-.55,.68-.11,.27-.15,.54-.12,.82,.03,.28,.13,.54,.3,.77l-.81,.59c-.29-.4-.46-.82-.5-1.27-.04-.45,.04-.88,.23-1.29,.2-.41,.5-.77,.91-1.06,.4-.29,.82-.46,1.27-.5,.45-.05,.88,.02,1.29,.2,.41,.18,.76,.47,1.04,.86,.21,.28,.35,.55,.42,.8,.08,.25,.11,.52,.09,.8-.02,.28-.07,.6-.15,.95l-.82,3.84-.3-.19,3.44-2.5,.55,.76-4.26,3.09Z"/><path d="M502.15,353.24c-.42,.3-.85,.48-1.32,.52-.46,.05-.9-.02-1.33-.21-.42-.19-.79-.49-1.09-.9l-1.71-2.35c-.3-.42-.48-.85-.52-1.31s.02-.9,.21-1.33c.19-.42,.49-.79,.9-1.09,.42-.3,.85-.48,1.32-.53,.46-.05,.91,.02,1.33,.21,.42,.19,.79,.49,1.09,.91l1.71,2.35c.3,.42,.48,.85,.53,1.31s-.02,.9-.21,1.33c-.19,.43-.49,.79-.91,1.09Zm-.55-.76c.25-.18,.44-.41,.55-.68,.12-.27,.16-.55,.13-.85-.03-.29-.13-.57-.31-.82l-1.78-2.44c-.18-.25-.41-.43-.68-.55-.27-.12-.55-.16-.85-.14s-.57,.13-.82,.31c-.25,.18-.43,.41-.55,.68-.12,.27-.16,.55-.13,.85,.03,.29,.13,.57,.31,.82l1.78,2.44c.18,.25,.41,.43,.68,.55,.27,.12,.55,.16,.85,.13,.29-.03,.57-.13,.82-.31Z"/><path d="M505.99,350.24l-.51-.71,.98-4.62c.08-.39,.09-.7,.04-.95-.06-.25-.16-.48-.3-.68-.18-.25-.4-.43-.65-.54-.26-.12-.52-.16-.8-.14-.28,.02-.54,.12-.79,.3-.26,.19-.44,.41-.55,.68-.11,.27-.15,.54-.12,.82,.03,.28,.13,.54,.3,.77l-.81,.59c-.29-.4-.46-.82-.5-1.27-.04-.45,.04-.88,.23-1.29s.5-.77,.91-1.06c.4-.29,.82-.46,1.27-.5,.45-.05,.88,.02,1.29,.2,.41,.18,.76,.47,1.04,.86,.21,.28,.35,.55,.42,.8,.08,.25,.11,.52,.09,.8-.02,.28-.07,.6-.15,.95l-.82,3.84-.3-.19,3.44-2.5,.55,.76-4.26,3.09Z"/><path d="M511.85,345.98l-.51-.71,.98-4.62c.08-.39,.09-.7,.04-.96-.06-.25-.16-.48-.31-.68-.18-.25-.4-.43-.65-.54-.26-.12-.52-.16-.8-.14-.28,.02-.54,.12-.79,.3-.25,.19-.44,.41-.55,.68-.11,.27-.15,.54-.12,.82,.03,.28,.13,.54,.3,.77l-.81,.59c-.29-.4-.46-.82-.5-1.27-.04-.45,.04-.88,.23-1.29,.2-.41,.5-.77,.91-1.06,.4-.29,.82-.46,1.27-.5s.88,.02,1.29,.2c.41,.18,.76,.47,1.04,.86,.21,.28,.35,.55,.42,.8,.08,.25,.11,.52,.09,.8-.02,.28-.07,.6-.15,.95l-.82,3.84-.3-.19,3.44-2.5,.55,.76-4.26,3.09Z"/><path d="M520.15,340.16c-.42,.3-.85,.48-1.32,.52-.46,.05-.91-.02-1.33-.21-.42-.19-.79-.49-1.09-.9l-1.71-2.35c-.3-.42-.48-.85-.52-1.31s.02-.9,.21-1.33c.19-.42,.49-.79,.91-1.09,.41-.3,.85-.48,1.32-.53,.46-.05,.91,.02,1.33,.21s.79,.49,1.09,.91l1.71,2.35c.3,.42,.48,.85,.53,1.31,.05,.46-.02,.9-.21,1.33-.19,.43-.49,.79-.91,1.09Zm-.55-.76c.25-.18,.44-.41,.55-.68,.12-.27,.16-.55,.13-.85-.03-.29-.13-.57-.31-.82l-1.78-2.44c-.18-.25-.41-.43-.68-.55-.27-.12-.55-.16-.85-.14s-.57,.13-.82,.31c-.25,.18-.43,.41-.55,.68-.12,.27-.16,.55-.13,.85,.03,.29,.13,.57,.31,.82l1.77,2.44c.18,.25,.41,.43,.68,.55,.27,.12,.55,.16,.85,.13,.29-.03,.57-.13,.82-.31Z"/><path d="M526.45,335.58c-.41,.29-.85,.46-1.32,.51-.47,.04-.93-.03-1.37-.23-.44-.2-.82-.51-1.13-.94l-1.55-2.13c-.33-.45-.52-.91-.57-1.4-.06-.48,.01-.95,.21-1.39,.2-.44,.52-.82,.95-1.14,.35-.26,.73-.42,1.14-.5,.41-.08,.81-.06,1.22,.06l-.21,.96c-.26-.09-.54-.12-.82-.08-.28,.04-.54,.14-.78,.31-.28,.2-.48,.46-.6,.75-.12,.29-.16,.6-.12,.91,.03,.31,.14,.59,.33,.85l.94,1.29-.32-.07c0-.4,.07-.79,.25-1.16,.17-.37,.42-.68,.76-.92,.4-.29,.82-.46,1.27-.5,.45-.04,.88,.03,1.3,.21,.41,.19,.76,.48,1.05,.88,.29,.4,.45,.83,.49,1.3,.04,.47-.04,.92-.23,1.35-.19,.43-.49,.79-.88,1.08Zm-.56-.77c.25-.19,.44-.42,.56-.69,.12-.28,.16-.56,.14-.86-.03-.3-.13-.58-.32-.83-.19-.26-.41-.44-.69-.56-.27-.12-.56-.17-.86-.14-.3,.03-.58,.13-.83,.32s-.44,.42-.56,.69c-.12,.28-.16,.56-.14,.86,.03,.3,.13,.58,.32,.83,.18,.25,.41,.44,.69,.56,.27,.12,.56,.17,.86,.14,.3-.03,.58-.13,.83-.32Z"/></g><g><path d="M569.84,359.06l-.51-.72,.98-4.62c.08-.39,.09-.7,.04-.96-.06-.25-.16-.48-.3-.68-.18-.25-.4-.43-.65-.54-.26-.12-.53-.16-.8-.14s-.54,.12-.79,.3c-.26,.19-.44,.41-.55,.68-.11,.27-.15,.54-.12,.82,.03,.28,.13,.54,.3,.77l-.81,.59c-.29-.4-.46-.82-.5-1.27-.04-.45,.04-.88,.23-1.29,.2-.41,.5-.77,.91-1.06,.4-.29,.82-.46,1.27-.5,.45-.05,.88,.02,1.29,.21,.41,.18,.76,.47,1.04,.86,.21,.28,.35,.55,.42,.8s.11,.52,.09,.8c-.02,.28-.07,.6-.15,.95l-.82,3.84-.29-.19,3.44-2.5,.55,.76-4.26,3.09Z"/><path d="M578.14,353.24c-.42,.3-.85,.48-1.32,.52-.46,.05-.9-.02-1.33-.21-.43-.19-.79-.49-1.09-.9l-1.71-2.35c-.3-.42-.48-.85-.52-1.32-.05-.46,.02-.9,.21-1.33,.19-.42,.49-.79,.9-1.09s.85-.48,1.32-.53c.46-.05,.91,.02,1.33,.21,.42,.19,.79,.49,1.09,.91l1.71,2.35c.3,.42,.48,.85,.53,1.31,.05,.46-.02,.9-.21,1.33-.19,.43-.49,.79-.91,1.09Zm-.55-.76c.25-.18,.44-.41,.55-.68,.12-.27,.16-.55,.13-.85-.03-.29-.13-.57-.31-.82l-1.78-2.44c-.18-.25-.41-.43-.68-.55-.27-.12-.55-.16-.85-.14s-.57,.13-.82,.32c-.25,.18-.43,.41-.55,.68-.12,.27-.16,.55-.13,.85,.03,.29,.13,.57,.31,.81l1.78,2.44c.18,.25,.41,.43,.68,.55,.27,.12,.55,.16,.85,.13,.29-.03,.57-.13,.82-.31Z"/><path d="M581.98,350.24l-.51-.71,.98-4.62c.08-.39,.09-.71,.04-.96s-.16-.48-.3-.68c-.18-.25-.4-.43-.65-.54-.26-.12-.53-.16-.8-.14-.28,.02-.54,.12-.79,.3-.25,.18-.44,.41-.55,.68-.11,.27-.15,.54-.12,.82,.03,.28,.13,.54,.3,.77l-.81,.59c-.29-.4-.46-.82-.5-1.27-.04-.45,.04-.88,.23-1.29s.5-.77,.91-1.06c.4-.29,.82-.46,1.27-.5,.45-.05,.88,.02,1.29,.2,.41,.18,.76,.47,1.04,.86,.21,.28,.35,.55,.43,.8,.08,.25,.11,.52,.09,.8-.02,.28-.07,.6-.15,.95l-.82,3.84-.29-.19,3.44-2.5,.55,.76-4.26,3.09Z"/><path d="M587.84,345.98l-.51-.71,.98-4.62c.08-.39,.09-.71,.04-.96-.06-.25-.16-.48-.31-.68-.18-.25-.4-.43-.65-.54-.26-.12-.52-.16-.8-.14-.28,.02-.54,.12-.79,.3-.26,.18-.44,.41-.55,.68-.11,.27-.15,.54-.12,.82,.03,.28,.13,.54,.3,.77l-.81,.59c-.29-.4-.46-.82-.5-1.27-.04-.45,.04-.88,.23-1.29,.2-.41,.5-.77,.91-1.06,.4-.29,.82-.46,1.27-.5,.45-.05,.88,.02,1.29,.2,.41,.18,.76,.47,1.04,.86,.21,.28,.35,.55,.42,.8,.08,.25,.11,.52,.09,.8-.02,.28-.07,.6-.15,.95l-.82,3.84-.3-.19,3.44-2.5,.55,.76-4.26,3.09Z"/><path d="M596.14,340.16c-.42,.3-.85,.48-1.31,.52-.46,.05-.91-.02-1.33-.21-.42-.19-.79-.49-1.09-.91l-1.71-2.35c-.3-.42-.48-.85-.53-1.31s.02-.9,.21-1.33c.19-.43,.49-.79,.9-1.09,.42-.3,.86-.48,1.32-.53,.46-.05,.91,.02,1.33,.21,.42,.19,.79,.49,1.09,.91l1.71,2.35c.3,.42,.48,.85,.53,1.31,.05,.46-.02,.9-.21,1.33-.19,.43-.49,.79-.91,1.09Zm-.55-.76c.25-.18,.44-.41,.55-.68,.12-.27,.16-.55,.13-.85-.03-.29-.13-.57-.31-.82l-1.78-2.44c-.18-.25-.41-.43-.68-.55s-.55-.16-.85-.14-.56,.13-.82,.31c-.25,.18-.43,.41-.55,.68-.12,.27-.16,.55-.13,.85,.03,.29,.13,.57,.31,.82l1.77,2.44c.18,.25,.41,.43,.68,.55,.27,.12,.55,.16,.85,.13,.29-.03,.56-.13,.81-.31Z"/><path d="M597.51,328.98c.41-.29,.85-.47,1.32-.51,.47-.04,.93,.03,1.37,.23,.44,.2,.82,.51,1.13,.94l1.55,2.13c.32,.45,.52,.91,.57,1.4,.06,.48-.01,.95-.21,1.39-.2,.44-.52,.82-.95,1.14-.35,.26-.73,.42-1.14,.5-.41,.08-.81,.06-1.22-.06l.21-.95c.26,.09,.54,.11,.82,.08,.29-.04,.54-.14,.78-.31,.28-.21,.48-.45,.6-.75s.16-.6,.13-.91c-.04-.31-.15-.59-.33-.85l-.93-1.29,.32,.07c0,.4-.07,.79-.24,1.16-.17,.37-.43,.68-.76,.92-.4,.29-.82,.45-1.27,.5-.45,.04-.89-.03-1.3-.22-.41-.19-.77-.48-1.05-.88-.29-.4-.45-.83-.49-1.3s.04-.92,.23-1.35c.19-.43,.48-.79,.88-1.08Zm.56,.77c-.26,.19-.44,.42-.56,.69-.12,.28-.17,.56-.14,.86,.03,.3,.13,.58,.32,.83,.18,.25,.42,.44,.69,.56,.27,.12,.56,.17,.86,.14,.3-.03,.58-.13,.83-.32,.25-.19,.44-.42,.56-.69,.12-.28,.16-.56,.14-.86-.03-.3-.13-.58-.32-.83-.18-.25-.41-.44-.69-.56-.28-.12-.56-.16-.86-.14-.3,.03-.58,.13-.83,.32Z"/></g><g><path d="M648.17,357.37l-.51-.72,.98-4.62c.08-.39,.09-.71,.04-.96s-.16-.48-.31-.68c-.18-.25-.4-.43-.65-.54s-.52-.16-.8-.14-.54,.12-.79,.3c-.25,.19-.44,.41-.55,.68-.11,.27-.15,.54-.12,.82,.03,.28,.13,.54,.3,.77l-.81,.59c-.29-.4-.46-.82-.5-1.27-.04-.45,.04-.88,.23-1.29,.19-.41,.5-.77,.91-1.06,.4-.29,.82-.46,1.27-.5,.45-.04,.88,.02,1.29,.21s.76,.47,1.04,.86c.21,.28,.35,.55,.42,.8s.11,.52,.09,.8c-.02,.28-.07,.6-.15,.95l-.82,3.84-.3-.19,3.44-2.5,.55,.76-4.26,3.09Z"/><path d="M656.47,351.55c-.41,.3-.85,.48-1.31,.52-.46,.05-.9-.02-1.33-.21-.42-.19-.79-.49-1.09-.91l-1.71-2.35c-.3-.42-.48-.85-.53-1.32-.05-.46,.02-.9,.21-1.33,.19-.43,.49-.79,.91-1.09,.41-.3,.85-.48,1.32-.53,.46-.05,.91,.02,1.33,.21,.42,.19,.79,.49,1.09,.91l1.71,2.35c.3,.42,.48,.85,.53,1.31,.05,.46-.02,.9-.21,1.33s-.49,.79-.91,1.09Zm-.55-.76c.25-.18,.44-.41,.55-.68,.12-.27,.16-.55,.13-.85-.03-.29-.13-.57-.31-.82l-1.77-2.44c-.18-.25-.41-.43-.68-.55s-.55-.16-.85-.14c-.29,.03-.57,.13-.82,.32-.25,.18-.43,.41-.55,.68s-.16,.56-.13,.85c.03,.29,.13,.57,.31,.81l1.78,2.44c.18,.25,.41,.43,.68,.55s.55,.16,.85,.13,.57-.13,.81-.31Z"/><path d="M660.31,348.54l-.51-.71,.98-4.62c.08-.39,.09-.71,.04-.96-.06-.25-.16-.48-.31-.68-.18-.25-.4-.43-.65-.54-.26-.12-.52-.16-.8-.14-.28,.02-.54,.12-.79,.3-.25,.18-.44,.41-.55,.68-.11,.27-.15,.54-.12,.82,.03,.28,.13,.54,.3,.77l-.81,.59c-.29-.4-.46-.82-.5-1.27-.04-.45,.04-.88,.23-1.29,.2-.41,.5-.77,.91-1.06,.4-.29,.82-.46,1.27-.5,.45-.05,.88,.02,1.29,.2,.41,.18,.76,.47,1.04,.86,.21,.28,.35,.55,.42,.8,.08,.25,.11,.52,.09,.8-.02,.28-.07,.6-.15,.95l-.82,3.84-.3-.19,3.44-2.5,.55,.76-4.26,3.09Z"/><path d="M666.17,344.29l-.51-.71,.98-4.62c.08-.39,.1-.71,.04-.96-.06-.25-.16-.48-.3-.68-.18-.25-.4-.43-.65-.54-.26-.12-.53-.16-.8-.14-.28,.02-.54,.12-.79,.3-.25,.19-.44,.41-.55,.68-.11,.27-.15,.54-.12,.82,.03,.28,.13,.54,.3,.77l-.81,.59c-.29-.4-.46-.82-.5-1.27-.04-.45,.04-.88,.23-1.29,.2-.41,.5-.77,.91-1.06,.4-.29,.82-.46,1.27-.5,.45-.05,.88,.02,1.29,.2,.41,.18,.76,.47,1.04,.86,.2,.28,.35,.55,.42,.8,.08,.25,.11,.52,.09,.8-.02,.28-.07,.6-.15,.95l-.82,3.84-.29-.19,3.44-2.5,.55,.76-4.26,3.09Z"/><path d="M673.33,339.09l-4.02-5.53-.68,1.61-.64-.89,.68-1.6,.81-.59,4.65,6.41-.8,.59Z"/><path d="M676.35,336.89l-.51-.71,.98-4.62c.08-.39,.09-.71,.04-.96-.06-.25-.16-.48-.31-.68-.18-.25-.4-.43-.65-.54-.26-.12-.52-.16-.8-.14-.28,.02-.54,.12-.79,.3-.25,.19-.44,.41-.55,.68-.11,.27-.15,.54-.12,.82,.03,.28,.13,.54,.3,.77l-.81,.59c-.29-.4-.46-.82-.5-1.27-.04-.45,.04-.88,.23-1.29s.5-.77,.91-1.06c.4-.29,.82-.46,1.27-.5,.45-.05,.88,.02,1.29,.2s.76,.47,1.04,.86c.21,.28,.35,.55,.42,.8s.11,.52,.09,.8c-.02,.28-.07,.6-.15,.95l-.82,3.84-.3-.19,3.44-2.5,.55,.76-4.26,3.09Z"/></g><g><path d="M722.49,358.58l-.51-.72,.98-4.62c.08-.39,.09-.7,.04-.96s-.16-.48-.31-.68c-.18-.25-.4-.43-.65-.54-.26-.12-.52-.16-.8-.14-.28,.02-.54,.12-.79,.3-.25,.19-.44,.41-.55,.68-.11,.27-.15,.54-.12,.82,.03,.28,.13,.54,.3,.77l-.81,.59c-.29-.4-.46-.82-.5-1.27-.04-.45,.04-.88,.23-1.29,.2-.41,.5-.77,.91-1.06,.4-.29,.82-.46,1.27-.5s.88,.02,1.29,.2c.41,.18,.76,.47,1.04,.86,.21,.28,.35,.55,.42,.8,.08,.25,.11,.52,.09,.8-.02,.28-.07,.6-.15,.95l-.82,3.84-.3-.19,3.44-2.5,.55,.76-4.26,3.09Z"/><path d="M730.79,352.76c-.42,.3-.85,.48-1.32,.52-.46,.05-.91-.02-1.33-.21-.42-.19-.79-.49-1.09-.91l-1.71-2.35c-.3-.42-.48-.85-.52-1.31-.05-.46,.02-.91,.21-1.33,.19-.42,.49-.79,.91-1.09,.42-.3,.85-.48,1.32-.53,.46-.05,.91,.02,1.33,.21s.79,.49,1.09,.91l1.71,2.35c.3,.42,.48,.85,.53,1.31s-.02,.9-.21,1.33c-.19,.43-.49,.79-.91,1.09Zm-.55-.76c.25-.18,.44-.41,.55-.68,.12-.27,.16-.55,.13-.85-.03-.29-.13-.57-.31-.82l-1.78-2.44c-.18-.25-.41-.43-.68-.55-.27-.12-.55-.16-.85-.14s-.57,.13-.82,.32c-.25,.18-.43,.41-.55,.68-.12,.27-.16,.55-.13,.85,.03,.29,.13,.57,.31,.82l1.77,2.44c.18,.25,.41,.43,.68,.55,.27,.12,.55,.16,.85,.13,.29-.03,.57-.13,.82-.31Z"/><path d="M734.63,349.76l-.51-.72,.98-4.62c.08-.39,.09-.7,.04-.96-.06-.25-.16-.48-.31-.68-.18-.25-.4-.43-.65-.54-.26-.12-.52-.16-.8-.14-.28,.02-.54,.12-.79,.3-.25,.19-.44,.41-.55,.68s-.15,.54-.12,.82c.03,.28,.13,.54,.3,.77l-.81,.59c-.29-.4-.46-.82-.5-1.27-.04-.45,.04-.88,.23-1.29,.2-.41,.5-.77,.91-1.06,.4-.29,.82-.46,1.27-.5,.45-.05,.88,.02,1.29,.21,.41,.18,.76,.47,1.04,.86,.21,.28,.35,.55,.42,.8,.08,.25,.11,.52,.09,.8-.02,.28-.07,.6-.15,.95l-.82,3.84-.3-.19,3.44-2.5,.55,.76-4.26,3.09Z"/><path d="M742.52,344.22c-.32,.23-.66,.39-1.01,.47-.36,.08-.71,.09-1.07,.01-.35-.07-.68-.22-.99-.45l.6-.77c.31,.23,.64,.33,.98,.32s.65-.12,.93-.33c.26-.19,.44-.42,.55-.67,.11-.25,.14-.52,.1-.79s-.15-.54-.34-.8c-.29-.39-.64-.63-1.06-.71-.42-.08-.82,.02-1.21,.31-.11,.08-.21,.17-.3,.29s-.17,.24-.24,.36l-.84-.35,.81-3.88,.3,.19-3.19,2.32-.55-.76,3.78-2.75,.55,.76-.62,3.41-.21-.27c.4-.33,.83-.53,1.27-.6,.44-.06,.86,0,1.27,.18,.41,.19,.76,.48,1.05,.89,.3,.41,.47,.84,.51,1.29,.04,.45-.03,.88-.21,1.28s-.47,.76-.87,1.05Z"/><path d="M748.65,339.79c-.42,.3-.85,.48-1.32,.52-.46,.05-.91-.02-1.33-.21-.42-.19-.79-.49-1.09-.9l-1.71-2.35c-.3-.42-.48-.85-.52-1.31-.05-.46,.02-.91,.21-1.33,.19-.42,.49-.79,.9-1.09,.42-.3,.85-.48,1.32-.53,.46-.05,.91,.02,1.33,.21,.42,.19,.79,.49,1.09,.91l1.71,2.35c.3,.42,.48,.85,.53,1.31,.05,.46-.02,.9-.21,1.33-.19,.43-.49,.79-.91,1.09Zm-.55-.76c.25-.18,.44-.41,.55-.68,.12-.27,.16-.55,.13-.85-.03-.29-.13-.57-.31-.82l-1.78-2.44c-.18-.25-.41-.43-.68-.55-.27-.12-.55-.16-.85-.14-.29,.03-.57,.13-.82,.32-.25,.18-.43,.41-.55,.68s-.16,.55-.13,.85c.03,.29,.13,.57,.31,.81l1.77,2.44c.18,.25,.41,.43,.68,.55,.27,.12,.55,.16,.85,.13,.29-.03,.57-.13,.82-.31Z"/><path d="M754.52,335.51c-.32,.23-.65,.39-1.01,.47-.36,.08-.71,.09-1.07,.01-.35-.07-.68-.22-.99-.45l.6-.77c.31,.23,.64,.33,.98,.32,.34-.01,.65-.12,.93-.33,.26-.19,.44-.42,.55-.67,.11-.25,.14-.52,.1-.79-.04-.28-.15-.54-.34-.81-.29-.39-.64-.63-1.06-.71-.42-.08-.82,.02-1.21,.31-.11,.08-.21,.17-.3,.29-.1,.12-.17,.24-.24,.36l-.84-.35,.82-3.88,.3,.19-3.19,2.32-.55-.76,3.78-2.75,.55,.76-.62,3.41-.21-.27c.4-.33,.83-.53,1.27-.6,.44-.06,.86,0,1.27,.18,.41,.19,.76,.48,1.05,.89,.3,.41,.47,.84,.51,1.29,.04,.45-.02,.88-.21,1.28-.18,.41-.47,.76-.87,1.05Z"/></g><g><path d="M1.49,96.7v-6.84l-1.49,.9v-1.09l1.49-.89h1v7.92h-1Z"/><path d="M8.13,96.86c-.51,0-.97-.12-1.37-.35-.4-.23-.72-.55-.95-.95-.23-.4-.35-.86-.35-1.37v-2.9c0-.51,.12-.97,.35-1.37,.23-.4,.55-.72,.95-.95,.4-.23,.86-.35,1.37-.35s.97,.12,1.38,.35,.72,.55,.95,.95,.35,.86,.35,1.37v2.9c0,.51-.12,.97-.35,1.37s-.55,.72-.95,.95c-.4,.23-.86,.35-1.38,.35Zm0-.94c.31,0,.59-.08,.85-.23s.45-.35,.6-.61,.23-.54,.23-.84v-3.02c0-.31-.08-.59-.23-.84s-.35-.46-.6-.61-.54-.23-.85-.23-.59,.08-.84,.23-.46,.35-.61,.61-.23,.54-.23,.84v3.02c0,.31,.08,.59,.23,.84s.35,.46,.61,.61,.54,.23,.84,.23Z"/><path d="M15.89,96.86c-.51,0-.97-.12-1.37-.35-.4-.23-.72-.55-.95-.95-.23-.4-.35-.86-.35-1.37v-2.9c0-.51,.12-.97,.35-1.37,.23-.4,.55-.72,.95-.95,.4-.23,.86-.35,1.37-.35s.97,.12,1.38,.35,.72,.55,.95,.95,.35,.86,.35,1.37v2.9c0,.51-.12,.97-.35,1.37s-.55,.72-.95,.95c-.4,.23-.86,.35-1.38,.35Zm0-.94c.31,0,.59-.08,.85-.23s.45-.35,.6-.61,.23-.54,.23-.84v-3.02c0-.31-.08-.59-.23-.84s-.35-.46-.6-.61-.54-.23-.85-.23-.59,.08-.84,.23-.46,.35-.61,.61-.23,.54-.23,.84v3.02c0,.31,.08,.59,.23,.84s.35,.46,.61,.61,.54,.23,.84,.23Z"/><path d="M20.88,97.93l.06-.46c.15,.01,.27-.02,.35-.09,.08-.07,.13-.17,.15-.29,.02-.12,.03-.25,.01-.4h-.57v-1.24h1.08v1.41c0,.38-.09,.67-.28,.87-.19,.19-.45,.26-.79,.2Z"/><path d="M27.6,96.86c-.51,0-.97-.12-1.37-.35-.4-.23-.72-.55-.95-.95-.23-.4-.35-.86-.35-1.37v-2.9c0-.51,.12-.97,.35-1.37,.23-.4,.55-.72,.95-.95,.4-.23,.86-.35,1.37-.35s.97,.12,1.38,.35,.72,.55,.95,.95,.35,.86,.35,1.37v2.9c0,.51-.12,.97-.35,1.37s-.55,.72-.95,.95c-.4,.23-.86,.35-1.38,.35Zm0-.94c.31,0,.59-.08,.85-.23s.45-.35,.6-.61,.23-.54,.23-.84v-3.02c0-.31-.08-.59-.23-.84s-.35-.46-.6-.61-.54-.23-.85-.23-.59,.08-.84,.23-.46,.35-.61,.61-.23,.54-.23,.84v3.02c0,.31,.08,.59,.23,.84s.35,.46,.61,.61,.54,.23,.84,.23Z"/><path d="M35.36,96.86c-.51,0-.97-.12-1.37-.35-.4-.23-.72-.55-.95-.95-.23-.4-.35-.86-.35-1.37v-2.9c0-.51,.12-.97,.35-1.37,.23-.4,.55-.72,.95-.95,.4-.23,.86-.35,1.37-.35s.97,.12,1.38,.35,.72,.55,.95,.95,.35,.86,.35,1.37v2.9c0,.51-.12,.97-.35,1.37s-.55,.72-.95,.95c-.4,.23-.86,.35-1.38,.35Zm0-.94c.31,0,.59-.08,.85-.23s.45-.35,.6-.61,.23-.54,.23-.84v-3.02c0-.31-.08-.59-.23-.84s-.35-.46-.6-.61-.54-.23-.85-.23-.59,.08-.84,.23-.46,.35-.61,.61-.23,.54-.23,.84v3.02c0,.31,.08,.59,.23,.84s.35,.46,.61,.61,.54,.23,.84,.23Z"/><path d="M43.13,96.86c-.51,0-.97-.12-1.37-.35-.4-.23-.72-.55-.95-.95-.23-.4-.35-.86-.35-1.37v-2.9c0-.51,.12-.97,.35-1.37,.23-.4,.55-.72,.95-.95,.4-.23,.86-.35,1.37-.35s.97,.12,1.38,.35,.72,.55,.95,.95,.35,.86,.35,1.37v2.9c0,.51-.12,.97-.35,1.37s-.55,.72-.95,.95c-.4,.23-.86,.35-1.38,.35Zm0-.94c.31,0,.59-.08,.85-.23s.45-.35,.6-.61,.23-.54,.23-.84v-3.02c0-.31-.08-.59-.23-.84s-.35-.46-.6-.61-.54-.23-.85-.23-.59,.08-.84,.23-.46,.35-.61,.61-.23,.54-.23,.84v3.02c0,.31,.08,.59,.23,.84s.35,.46,.61,.61,.54,.23,.84,.23Z"/></g><g><path d="M8.32,142.08c-.51,0-.95-.1-1.34-.31s-.69-.49-.91-.85c-.22-.36-.33-.79-.33-1.27s.11-.9,.34-1.28,.57-.67,1.02-.88l-.02,.36c-.37-.18-.66-.43-.86-.76-.2-.33-.29-.69-.29-1.09,0-.44,.1-.83,.31-1.15,.21-.32,.49-.57,.85-.75,.36-.18,.77-.26,1.24-.26s.88,.09,1.24,.26c.36,.18,.64,.43,.85,.75,.21,.32,.31,.71,.31,1.15,0,.4-.09,.77-.28,1.09-.19,.32-.48,.58-.86,.76l-.02-.35c.45,.2,.8,.49,1.03,.87,.23,.38,.34,.81,.34,1.28s-.11,.91-.33,1.27c-.22,.36-.53,.65-.92,.85s-.84,.31-1.34,.31Zm0-.94c.46,0,.84-.13,1.12-.38,.29-.25,.43-.62,.43-1.11s-.14-.86-.43-1.11-.66-.38-1.13-.38-.84,.13-1.12,.38-.43,.63-.43,1.11,.14,.85,.43,1.11,.66,.38,1.12,.38Zm0-3.93c.4,0,.73-.1,.98-.31,.25-.2,.37-.51,.37-.92s-.12-.71-.37-.92c-.25-.2-.58-.31-.98-.31s-.73,.1-.98,.31c-.25,.2-.38,.51-.38,.92s.13,.71,.38,.92c.25,.2,.58,.31,.98,.31Z"/><path d="M15.89,142.08c-.51,0-.97-.12-1.37-.35-.4-.23-.72-.55-.95-.95-.23-.4-.35-.86-.35-1.37v-2.9c0-.51,.12-.97,.35-1.37,.23-.4,.55-.72,.95-.95,.4-.23,.86-.35,1.37-.35s.97,.12,1.38,.35,.72,.55,.95,.95,.35,.86,.35,1.37v2.9c0,.51-.12,.97-.35,1.37s-.55,.72-.95,.95c-.4,.23-.86,.35-1.38,.35Zm0-.94c.31,0,.59-.08,.85-.23s.45-.35,.6-.61,.23-.54,.23-.84v-3.02c0-.31-.08-.59-.23-.84s-.35-.46-.6-.61-.54-.23-.85-.23-.59,.08-.84,.23-.46,.35-.61,.61-.23,.54-.23,.84v3.02c0,.31,.08,.59,.23,.84s.35,.46,.61,.61,.54,.23,.84,.23Z"/><path d="M20.88,143.14l.06-.46c.15,.01,.27-.02,.35-.09,.08-.07,.13-.17,.15-.29,.02-.12,.03-.25,.01-.4h-.57v-1.24h1.08v1.41c0,.38-.09,.67-.28,.87-.19,.19-.45,.26-.79,.2Z"/><path d="M27.6,142.08c-.51,0-.97-.12-1.37-.35-.4-.23-.72-.55-.95-.95-.23-.4-.35-.86-.35-1.37v-2.9c0-.51,.12-.97,.35-1.37,.23-.4,.55-.72,.95-.95,.4-.23,.86-.35,1.37-.35s.97,.12,1.38,.35,.72,.55,.95,.95,.35,.86,.35,1.37v2.9c0,.51-.12,.97-.35,1.37s-.55,.72-.95,.95c-.4,.23-.86,.35-1.38,.35Zm0-.94c.31,0,.59-.08,.85-.23s.45-.35,.6-.61,.23-.54,.23-.84v-3.02c0-.31-.08-.59-.23-.84s-.35-.46-.6-.61-.54-.23-.85-.23-.59,.08-.84,.23-.46,.35-.61,.61-.23,.54-.23,.84v3.02c0,.31,.08,.59,.23,.84s.35,.46,.61,.61,.54,.23,.84,.23Z"/><path d="M35.36,142.08c-.51,0-.97-.12-1.37-.35-.4-.23-.72-.55-.95-.95-.23-.4-.35-.86-.35-1.37v-2.9c0-.51,.12-.97,.35-1.37,.23-.4,.55-.72,.95-.95,.4-.23,.86-.35,1.37-.35s.97,.12,1.38,.35,.72,.55,.95,.95,.35,.86,.35,1.37v2.9c0,.51-.12,.97-.35,1.37s-.55,.72-.95,.95c-.4,.23-.86,.35-1.38,.35Zm0-.94c.31,0,.59-.08,.85-.23s.45-.35,.6-.61,.23-.54,.23-.84v-3.02c0-.31-.08-.59-.23-.84s-.35-.46-.6-.61-.54-.23-.85-.23-.59,.08-.84,.23-.46,.35-.61,.61-.23,.54-.23,.84v3.02c0,.31,.08,.59,.23,.84s.35,.46,.61,.61,.54,.23,.84,.23Z"/><path d="M43.13,142.08c-.51,0-.97-.12-1.37-.35-.4-.23-.72-.55-.95-.95-.23-.4-.35-.86-.35-1.37v-2.9c0-.51,.12-.97,.35-1.37,.23-.4,.55-.72,.95-.95,.4-.23,.86-.35,1.37-.35s.97,.12,1.38,.35,.72,.55,.95,.95,.35,.86,.35,1.37v2.9c0,.51-.12,.97-.35,1.37s-.55,.72-.95,.95c-.4,.23-.86,.35-1.38,.35Zm0-.94c.31,0,.59-.08,.85-.23s.45-.35,.6-.61,.23-.54,.23-.84v-3.02c0-.31-.08-.59-.23-.84s-.35-.46-.6-.61-.54-.23-.85-.23-.59,.08-.84,.23-.46,.35-.61,.61-.23,.54-.23,.84v3.02c0,.31,.08,.59,.23,.84s.35,.46,.61,.61,.54,.23,.84,.23Z"/></g><g><path d="M2.01,51.49v-6.84l-1.49,.9v-1.09l1.49-.89h1v7.92h-1Z"/><path d="M5.76,51.48v-.88s3.52-3.16,3.52-3.16c.29-.26,.49-.51,.59-.75,.1-.24,.15-.48,.15-.73,0-.3-.07-.58-.21-.82-.14-.24-.33-.44-.57-.58-.24-.15-.51-.22-.82-.22s-.6,.08-.84,.23-.44,.35-.58,.59c-.14,.25-.21,.51-.21,.8h-1c0-.49,.11-.93,.34-1.32,.23-.38,.54-.69,.94-.9,.4-.22,.85-.33,1.36-.33s.93,.11,1.32,.34c.39,.23,.7,.53,.92,.92,.23,.39,.34,.83,.34,1.31,0,.35-.04,.65-.13,.9-.09,.25-.22,.48-.4,.7s-.41,.44-.68,.68l-2.92,2.62-.13-.33h4.25v.94H5.76Z"/><path d="M15.89,51.65c-.51,0-.97-.12-1.37-.35-.4-.23-.72-.55-.95-.95-.23-.4-.35-.86-.35-1.37v-2.9c0-.51,.12-.97,.35-1.37,.23-.4,.55-.72,.95-.95,.4-.23,.86-.35,1.37-.35s.97,.12,1.38,.35,.72,.55,.95,.95,.35,.86,.35,1.37v2.9c0,.51-.12,.97-.35,1.37s-.55,.72-.95,.95c-.4,.23-.86,.35-1.38,.35Zm0-.94c.31,0,.59-.08,.85-.23s.45-.35,.6-.61,.23-.54,.23-.84v-3.02c0-.31-.08-.59-.23-.84s-.35-.46-.6-.61-.54-.23-.85-.23-.59,.08-.84,.23-.46,.35-.61,.61-.23,.54-.23,.84v3.02c0,.31,.08,.59,.23,.84s.35,.46,.61,.61,.54,.23,.84,.23Z"/><path d="M20.88,52.72l.06-.46c.15,.01,.27-.02,.35-.09,.08-.07,.13-.17,.15-.29,.02-.12,.03-.25,.01-.4h-.57v-1.24h1.08v1.41c0,.38-.09,.67-.28,.87-.19,.19-.45,.26-.79,.2Z"/><path d="M27.6,51.65c-.51,0-.97-.12-1.37-.35-.4-.23-.72-.55-.95-.95-.23-.4-.35-.86-.35-1.37v-2.9c0-.51,.12-.97,.35-1.37,.23-.4,.55-.72,.95-.95,.4-.23,.86-.35,1.37-.35s.97,.12,1.38,.35,.72,.55,.95,.95,.35,.86,.35,1.37v2.9c0,.51-.12,.97-.35,1.37s-.55,.72-.95,.95c-.4,.23-.86,.35-1.38,.35Zm0-.94c.31,0,.59-.08,.85-.23s.45-.35,.6-.61,.23-.54,.23-.84v-3.02c0-.31-.08-.59-.23-.84s-.35-.46-.6-.61-.54-.23-.85-.23-.59,.08-.84,.23-.46,.35-.61,.61-.23,.54-.23,.84v3.02c0,.31,.08,.59,.23,.84s.35,.46,.61,.61,.54,.23,.84,.23Z"/><path d="M35.36,51.65c-.51,0-.97-.12-1.37-.35-.4-.23-.72-.55-.95-.95-.23-.4-.35-.86-.35-1.37v-2.9c0-.51,.12-.97,.35-1.37,.23-.4,.55-.72,.95-.95,.4-.23,.86-.35,1.37-.35s.97,.12,1.38,.35,.72,.55,.95,.95,.35,.86,.35,1.37v2.9c0,.51-.12,.97-.35,1.37s-.55,.72-.95,.95c-.4,.23-.86,.35-1.38,.35Zm0-.94c.31,0,.59-.08,.85-.23s.45-.35,.6-.61,.23-.54,.23-.84v-3.02c0-.31-.08-.59-.23-.84s-.35-.46-.6-.61-.54-.23-.85-.23-.59,.08-.84,.23-.46,.35-.61,.61-.23,.54-.23,.84v3.02c0,.31,.08,.59,.23,.84s.35,.46,.61,.61,.54,.23,.84,.23Z"/><path d="M43.13,51.65c-.51,0-.97-.12-1.37-.35-.4-.23-.72-.55-.95-.95-.23-.4-.35-.86-.35-1.37v-2.9c0-.51,.12-.97,.35-1.37,.23-.4,.55-.72,.95-.95,.4-.23,.86-.35,1.37-.35s.97,.12,1.38,.35,.72,.55,.95,.95,.35,.86,.35,1.37v2.9c0,.51-.12,.97-.35,1.37s-.55,.72-.95,.95c-.4,.23-.86,.35-1.38,.35Zm0-.94c.31,0,.59-.08,.85-.23s.45-.35,.6-.61,.23-.54,.23-.84v-3.02c0-.31-.08-.59-.23-.84s-.35-.46-.6-.61-.54-.23-.85-.23-.59,.08-.84,.23-.46,.35-.61,.61-.23,.54-.23,.84v3.02c0,.31,.08,.59,.23,.84s.35,.46,.61,.61,.54,.23,.84,.23Z"/></g><g><path d="M8.21,187.29c-.5,0-.96-.12-1.37-.36-.41-.24-.73-.57-.97-.99-.24-.42-.36-.89-.36-1.42v-2.63c0-.55,.12-1.04,.36-1.47s.57-.76,.99-1c.42-.24,.9-.36,1.44-.36,.44,0,.84,.09,1.22,.27,.38,.18,.69,.43,.95,.77l-.73,.65c-.16-.23-.37-.41-.62-.55-.25-.14-.52-.21-.82-.21-.35,0-.66,.08-.93,.25s-.48,.39-.64,.66c-.15,.27-.23,.56-.23,.88v1.59l-.21-.24c.23-.33,.52-.59,.88-.79,.36-.2,.74-.3,1.16-.3,.49,0,.93,.12,1.32,.35,.39,.23,.7,.54,.92,.94,.23,.39,.34,.84,.34,1.33s-.12,.94-.37,1.34c-.25,.4-.57,.72-.98,.96-.41,.24-.86,.35-1.35,.35Zm0-.95c.32,0,.6-.08,.86-.23,.26-.15,.46-.36,.62-.62,.15-.26,.23-.54,.23-.86s-.08-.6-.23-.86c-.15-.26-.36-.46-.62-.62-.26-.15-.55-.23-.86-.23s-.6,.08-.86,.23c-.26,.15-.46,.36-.62,.62-.15,.26-.23,.55-.23,.86s.08,.6,.23,.85c.15,.26,.36,.46,.62,.62,.26,.15,.55,.23,.86,.23Z"/><path d="M15.9,187.29c-.51,0-.97-.12-1.37-.35-.4-.23-.72-.55-.95-.95-.23-.4-.35-.86-.35-1.37v-2.9c0-.51,.12-.97,.35-1.37,.23-.4,.55-.72,.95-.95,.4-.23,.86-.35,1.37-.35s.97,.12,1.38,.35,.72,.55,.95,.95,.35,.86,.35,1.37v2.9c0,.51-.12,.97-.35,1.37s-.55,.72-.95,.95c-.4,.23-.86,.35-1.38,.35Zm0-.94c.31,0,.59-.08,.85-.23s.45-.35,.6-.61,.23-.54,.23-.84v-3.02c0-.31-.08-.59-.23-.84s-.35-.46-.6-.61-.54-.23-.85-.23-.59,.08-.84,.23-.46,.35-.61,.61-.23,.54-.23,.84v3.02c0,.31,.08,.59,.23,.84s.35,.46,.61,.61,.54,.23,.84,.23Z"/><path d="M20.88,188.35l.06-.46c.15,.01,.27-.02,.35-.09,.08-.07,.13-.17,.15-.29,.02-.12,.03-.25,.01-.4h-.57v-1.24h1.08v1.41c0,.38-.09,.67-.28,.87-.19,.19-.45,.26-.79,.2Z"/><path d="M27.6,187.29c-.51,0-.97-.12-1.37-.35-.4-.23-.72-.55-.95-.95-.23-.4-.35-.86-.35-1.37v-2.9c0-.51,.12-.97,.35-1.37,.23-.4,.55-.72,.95-.95,.4-.23,.86-.35,1.37-.35s.97,.12,1.38,.35,.72,.55,.95,.95,.35,.86,.35,1.37v2.9c0,.51-.12,.97-.35,1.37s-.55,.72-.95,.95c-.4,.23-.86,.35-1.38,.35Zm0-.94c.31,0,.59-.08,.85-.23s.45-.35,.6-.61,.23-.54,.23-.84v-3.02c0-.31-.08-.59-.23-.84s-.35-.46-.6-.61-.54-.23-.85-.23-.59,.08-.84,.23-.46,.35-.61,.61-.23,.54-.23,.84v3.02c0,.31,.08,.59,.23,.84s.35,.46,.61,.61,.54,.23,.84,.23Z"/><path d="M35.37,187.29c-.51,0-.97-.12-1.37-.35-.4-.23-.72-.55-.95-.95-.23-.4-.35-.86-.35-1.37v-2.9c0-.51,.12-.97,.35-1.37,.23-.4,.55-.72,.95-.95,.4-.23,.86-.35,1.37-.35s.97,.12,1.38,.35,.72,.55,.95,.95,.35,.86,.35,1.37v2.9c0,.51-.12,.97-.35,1.37s-.55,.72-.95,.95c-.4,.23-.86,.35-1.38,.35Zm0-.94c.31,0,.59-.08,.85-.23s.45-.35,.6-.61,.23-.54,.23-.84v-3.02c0-.31-.08-.59-.23-.84s-.35-.46-.6-.61-.54-.23-.85-.23-.59,.08-.84,.23-.46,.35-.61,.61-.23,.54-.23,.84v3.02c0,.31,.08,.59,.23,.84s.35,.46,.61,.61,.54,.23,.84,.23Z"/><path d="M43.13,187.29c-.51,0-.97-.12-1.37-.35-.4-.23-.72-.55-.95-.95-.23-.4-.35-.86-.35-1.37v-2.9c0-.51,.12-.97,.35-1.37,.23-.4,.55-.72,.95-.95,.4-.23,.86-.35,1.37-.35s.97,.12,1.38,.35,.72,.55,.95,.95,.35,.86,.35,1.37v2.9c0,.51-.12,.97-.35,1.37s-.55,.72-.95,.95c-.4,.23-.86,.35-1.38,.35Zm0-.94c.31,0,.59-.08,.85-.23s.45-.35,.6-.61,.23-.54,.23-.84v-3.02c0-.31-.08-.59-.23-.84s-.35-.46-.6-.61-.54-.23-.85-.23-.59,.08-.84,.23-.46,.35-.61,.61-.23,.54-.23,.84v3.02c0,.31,.08,.59,.23,.84s.35,.46,.61,.61,.54,.23,.84,.23Z"/></g><g><path d="M9.21,232.34v-1.46h-3.64v-.93l2.61-5.53h1.11l-2.61,5.53h2.53v-2.23h.99v2.23h.83v.93h-.83v1.46h-.99Z"/><path d="M15.89,232.5c-.51,0-.97-.12-1.37-.35-.4-.23-.72-.55-.95-.95-.23-.4-.35-.86-.35-1.37v-2.9c0-.51,.12-.97,.35-1.37,.23-.4,.55-.72,.95-.95,.4-.23,.86-.35,1.37-.35s.97,.12,1.38,.35,.72,.55,.95,.95,.35,.86,.35,1.37v2.9c0,.51-.12,.97-.35,1.37s-.55,.72-.95,.95c-.4,.23-.86,.35-1.38,.35Zm0-.94c.31,0,.59-.08,.85-.23s.45-.35,.6-.61,.23-.54,.23-.84v-3.02c0-.31-.08-.59-.23-.84s-.35-.46-.6-.61-.54-.23-.85-.23-.59,.08-.84,.23-.46,.35-.61,.61-.23,.54-.23,.84v3.02c0,.31,.08,.59,.23,.84s.35,.46,.61,.61,.54,.23,.84,.23Z"/><path d="M20.88,233.57l.06-.46c.15,.01,.27-.02,.35-.09,.08-.07,.13-.17,.15-.29,.02-.12,.03-.25,.01-.4h-.57v-1.24h1.08v1.41c0,.38-.09,.67-.28,.87-.19,.19-.45,.26-.79,.2Z"/><path d="M27.6,232.5c-.51,0-.97-.12-1.37-.35-.4-.23-.72-.55-.95-.95-.23-.4-.35-.86-.35-1.37v-2.9c0-.51,.12-.97,.35-1.37,.23-.4,.55-.72,.95-.95,.4-.23,.86-.35,1.37-.35s.97,.12,1.38,.35,.72,.55,.95,.95,.35,.86,.35,1.37v2.9c0,.51-.12,.97-.35,1.37s-.55,.72-.95,.95c-.4,.23-.86,.35-1.38,.35Zm0-.94c.31,0,.59-.08,.85-.23s.45-.35,.6-.61,.23-.54,.23-.84v-3.02c0-.31-.08-.59-.23-.84s-.35-.46-.6-.61-.54-.23-.85-.23-.59,.08-.84,.23-.46,.35-.61,.61-.23,.54-.23,.84v3.02c0,.31,.08,.59,.23,.84s.35,.46,.61,.61,.54,.23,.84,.23Z"/><path d="M35.36,232.5c-.51,0-.97-.12-1.37-.35-.4-.23-.72-.55-.95-.95-.23-.4-.35-.86-.35-1.37v-2.9c0-.51,.12-.97,.35-1.37,.23-.4,.55-.72,.95-.95,.4-.23,.86-.35,1.37-.35s.97,.12,1.38,.35,.72,.55,.95,.95,.35,.86,.35,1.37v2.9c0,.51-.12,.97-.35,1.37s-.55,.72-.95,.95c-.4,.23-.86,.35-1.38,.35Zm0-.94c.31,0,.59-.08,.85-.23s.45-.35,.6-.61,.23-.54,.23-.84v-3.02c0-.31-.08-.59-.23-.84s-.35-.46-.6-.61-.54-.23-.85-.23-.59,.08-.84,.23-.46,.35-.61,.61-.23,.54-.23,.84v3.02c0,.31,.08,.59,.23,.84s.35,.46,.61,.61,.54,.23,.84,.23Z"/><path d="M43.13,232.5c-.51,0-.97-.12-1.37-.35-.4-.23-.72-.55-.95-.95-.23-.4-.35-.86-.35-1.37v-2.9c0-.51,.12-.97,.35-1.37,.23-.4,.55-.72,.95-.95,.4-.23,.86-.35,1.37-.35s.97,.12,1.38,.35,.72,.55,.95,.95,.35,.86,.35,1.37v2.9c0,.51-.12,.97-.35,1.37s-.55,.72-.95,.95c-.4,.23-.86,.35-1.38,.35Zm0-.94c.31,0,.59-.08,.85-.23s.45-.35,.6-.61,.23-.54,.23-.84v-3.02c0-.31-.08-.59-.23-.84s-.35-.46-.6-.61-.54-.23-.85-.23-.59,.08-.84,.23-.46,.35-.61,.61-.23,.54-.23,.84v3.02c0,.31,.08,.59,.23,.84s.35,.46,.61,.61,.54,.23,.84,.23Z"/></g><g><path d="M5.76,277.54v-.88s3.52-3.16,3.52-3.16c.29-.26,.49-.51,.59-.75,.1-.24,.15-.48,.15-.73,0-.3-.07-.58-.21-.82-.14-.24-.33-.44-.57-.58-.24-.15-.51-.22-.82-.22s-.6,.08-.84,.23-.44,.35-.58,.59c-.14,.25-.21,.51-.21,.8h-1c0-.49,.11-.93,.34-1.32,.23-.38,.54-.69,.94-.9,.4-.22,.85-.33,1.36-.33s.93,.11,1.32,.34c.39,.23,.7,.53,.92,.92,.23,.39,.34,.83,.34,1.31,0,.35-.04,.65-.13,.9-.09,.25-.22,.48-.4,.7s-.41,.44-.68,.68l-2.92,2.62-.13-.33h4.25v.94H5.76Z"/><path d="M15.89,277.71c-.51,0-.97-.12-1.37-.35-.4-.23-.72-.55-.95-.95-.23-.4-.35-.86-.35-1.37v-2.9c0-.51,.12-.97,.35-1.37,.23-.4,.55-.72,.95-.95,.4-.23,.86-.35,1.37-.35s.97,.12,1.38,.35,.72,.55,.95,.95,.35,.86,.35,1.37v2.9c0,.51-.12,.97-.35,1.37s-.55,.72-.95,.95c-.4,.23-.86,.35-1.38,.35Zm0-.94c.31,0,.59-.08,.85-.23s.45-.35,.6-.61,.23-.54,.23-.84v-3.02c0-.31-.08-.59-.23-.84s-.35-.46-.6-.61-.54-.23-.85-.23-.59,.08-.84,.23-.46,.35-.61,.61-.23,.54-.23,.84v3.02c0,.31,.08,.59,.23,.84s.35,.46,.61,.61,.54,.23,.84,.23Z"/><path d="M20.88,278.78l.06-.46c.15,.01,.27-.02,.35-.09,.08-.07,.13-.17,.15-.29,.02-.12,.03-.25,.01-.4h-.57v-1.24h1.08v1.41c0,.38-.09,.67-.28,.87-.19,.19-.45,.26-.79,.2Z"/><path d="M27.6,277.71c-.51,0-.97-.12-1.37-.35-.4-.23-.72-.55-.95-.95-.23-.4-.35-.86-.35-1.37v-2.9c0-.51,.12-.97,.35-1.37,.23-.4,.55-.72,.95-.95,.4-.23,.86-.35,1.37-.35s.97,.12,1.38,.35,.72,.55,.95,.95,.35,.86,.35,1.37v2.9c0,.51-.12,.97-.35,1.37s-.55,.72-.95,.95c-.4,.23-.86,.35-1.38,.35Zm0-.94c.31,0,.59-.08,.85-.23s.45-.35,.6-.61,.23-.54,.23-.84v-3.02c0-.31-.08-.59-.23-.84s-.35-.46-.6-.61-.54-.23-.85-.23-.59,.08-.84,.23-.46,.35-.61,.61-.23,.54-.23,.84v3.02c0,.31,.08,.59,.23,.84s.35,.46,.61,.61,.54,.23,.84,.23Z"/><path d="M35.36,277.71c-.51,0-.97-.12-1.37-.35-.4-.23-.72-.55-.95-.95-.23-.4-.35-.86-.35-1.37v-2.9c0-.51,.12-.97,.35-1.37,.23-.4,.55-.72,.95-.95,.4-.23,.86-.35,1.37-.35s.97,.12,1.38,.35,.72,.55,.95,.95,.35,.86,.35,1.37v2.9c0,.51-.12,.97-.35,1.37s-.55,.72-.95,.95c-.4,.23-.86,.35-1.38,.35Zm0-.94c.31,0,.59-.08,.85-.23s.45-.35,.6-.61,.23-.54,.23-.84v-3.02c0-.31-.08-.59-.23-.84s-.35-.46-.6-.61-.54-.23-.85-.23-.59,.08-.84,.23-.46,.35-.61,.61-.23,.54-.23,.84v3.02c0,.31,.08,.59,.23,.84s.35,.46,.61,.61,.54,.23,.84,.23Z"/><path d="M43.13,277.71c-.51,0-.97-.12-1.37-.35-.4-.23-.72-.55-.95-.95-.23-.4-.35-.86-.35-1.37v-2.9c0-.51,.12-.97,.35-1.37,.23-.4,.55-.72,.95-.95,.4-.23,.86-.35,1.37-.35s.97,.12,1.38,.35,.72,.55,.95,.95,.35,.86,.35,1.37v2.9c0,.51-.12,.97-.35,1.37s-.55,.72-.95,.95c-.4,.23-.86,.35-1.38,.35Zm0-.94c.31,0,.59-.08,.85-.23s.45-.35,.6-.61,.23-.54,.23-.84v-3.02c0-.31-.08-.59-.23-.84s-.35-.46-.6-.61-.54-.23-.85-.23-.59,.08-.84,.23-.46,.35-.61,.61-.23,.54-.23,.84v3.02c0,.31,.08,.59,.23,.84s.35,.46,.61,.61,.54,.23,.84,.23Z"/></g><path d="M43.13,322.92c-.51,0-.97-.12-1.37-.35-.4-.23-.72-.55-.95-.95-.23-.4-.35-.86-.35-1.37v-2.9c0-.51,.12-.97,.35-1.37,.23-.4,.55-.72,.95-.95,.4-.23,.86-.35,1.37-.35s.97,.12,1.38,.35,.72,.55,.95,.95,.35,.86,.35,1.37v2.9c0,.51-.12,.97-.35,1.37s-.55,.72-.95,.95c-.4,.23-.86,.35-1.38,.35Zm0-.94c.31,0,.59-.08,.85-.23s.45-.35,.6-.61,.23-.54,.23-.84v-3.02c0-.31-.08-.59-.23-.84s-.35-.46-.6-.61-.54-.23-.85-.23-.59,.08-.84,.23-.46,.35-.61,.61-.23,.54-.23,.84v3.02c0,.31,.08,.59,.23,.84s.35,.46,.61,.61,.54,.23,.84,.23Z"/><g><g><path d="M601.49,9.36c-.7,.65-1.78,1.31-2.67,1.72-.18-.18-.54-.53-.77-.67,.91-.35,1.92-.87,2.51-1.41l.94,.36Zm5.59-.18c-.15-.17-.36-.34-.61-.54-1,.03-2.02,.07-3.01,.09v2.41h-1.01v-2.39c-1.58,.04-3.04,.07-4.16,.09l-.03-.85c.62,0,1.35,0,2.16-.01,.22-.11,.45-.23,.69-.35-.56-.43-1.38-.92-2.06-1.27l.73-.55c.23,.11,.47,.24,.73,.37,.36-.26,.75-.57,1.08-.87h-2.63V1.4h8.1v3.92h-4.16l.04,.02c-.54,.45-1.17,.91-1.72,1.27,.29,.18,.56,.35,.78,.52,.95-.55,1.88-1.17,2.54-1.68l.88,.5c-.98,.68-2.23,1.43-3.38,2.02,1.09-.01,2.27-.03,3.43-.06-.34-.23-.69-.44-1.02-.63l.75-.48c.92,.5,2.09,1.28,2.67,1.85l-.79,.54Zm-7.16-6.21h2.53v-.77h-2.53v.77Zm0,1.55h2.53v-.8h-2.53v.8Zm6.13-2.32h-2.61v.77h2.61v-.77Zm0,1.52h-2.61v.8h2.61v-.8Zm-.96,5.21c.87,.42,2.04,1.07,2.65,1.53l-.78,.59c-.56-.46-1.71-1.14-2.62-1.6l.75-.53Z"/><path d="M614.1,3.68h-4.39v-.81h4.39v.81Zm-.45,6.87h-2.54v.46h-.9v-3.7h3.44v3.23Zm-3.42-6.18h3.46v.79h-3.46v-.79Zm0,1.46h3.46v.8h-3.46v-.8Zm3.47-3.61h-3.4v-.8h3.4v.8Zm-2.59,5.92v1.58h1.63v-1.58h-1.63Zm8.82-2.38h-2.38v5.38h-1.03V5.76h-2.45v-1.01h2.45V1.09h1.03v3.66h2.38v1.01Z"/><path d="M623.35,5.19c0,1.72-.17,4.27-1.12,5.95-.19-.17-.64-.47-.87-.58,.89-1.56,.97-3.8,.97-5.37V2.39h3.96V1.05h1.07v1.34h4.08v.99h-8.09v1.8Zm-.09,4.55c.52-.85,.78-2.15,.89-3.32l.94,.21c-.13,1.2-.38,2.65-.91,3.52l-.91-.41Zm5.07,.27c.4,0,.45-.27,.51-1.83,.21,.17,.64,.34,.9,.42-.1,1.83-.36,2.33-1.33,2.33h-1.43c-1.03,0-1.3-.33-1.3-1.38V5.53h1v4.04c0,.39,.08,.45,.45,.45h1.2Zm.01-4.06c-.53-.5-1.65-1.23-2.54-1.69l.69-.67c.87,.42,2,1.1,2.58,1.61l-.74,.76Zm1.77,.2c.7,1.12,1.38,2.59,1.55,3.58l-1,.42c-.15-.97-.77-2.48-1.45-3.63l.9-.36Z"/><path d="M641.31,7.54c.66,.5,1.58,.9,2.46,1.13-.22,.18-.51,.56-.66,.8-.5-.15-1-.38-1.46-.67-.11,1.22-.24,1.76-.47,2-.21,.19-.42,.25-.74,.27-.25,.02-.76,.02-1.3,0-.02-.25-.12-.59-.25-.83,.47,.04,.95,.06,1.13,.06,.18,0,.26-.02,.35-.09,.11-.11,.2-.41,.26-1.04h-2.19c-.47,.98-1.39,1.63-3.31,2.02-.09-.24-.33-.61-.51-.79,1.49-.25,2.27-.65,2.71-1.23h-1.99v-.39c-.38,.21-.82,.4-1.3,.57-.11-.23-.4-.57-.58-.73,.92-.3,1.68-.67,2.25-1.1h-1.98v-.8h2.85c.14-.18,.25-.34,.35-.53h-1.96V3.18h7.28v3.04h-4.24c-.1,.19-.19,.35-.31,.53h5.73v.8h-2.15Zm-5.05-5.01h-2.38v-.81h2.38v-.67h.99v.67h2.64v-.67h1.01v.67h2.4v.81h-2.4v.48h-1.01v-.48h-2.64v.48h-.99v-.48Zm-.3,1.86h5.28v-.58h-5.28v.58Zm0,1.19h5.28v-.59h-5.28v.59Zm5.12,2.84c-.37-.26-.69-.57-.97-.88h-3.06c-.31,.31-.66,.62-1.07,.88h1.71c.07-.22,.12-.45,.15-.69h.99c-.03,.24-.08,.47-.13,.69h2.38Z"/><path d="M650.63,9.93h4.16v.89h-9.27v-.89h4.04v-2.5h-3.51v-.88h3.51v-1.31h-2.16v-.57c-.55,.4-1.12,.76-1.72,1.08-.12-.23-.42-.62-.64-.83,1.87-.92,3.66-2.54,4.49-3.89h1.04c1.17,1.61,3,3.03,4.71,3.76-.24,.26-.48,.62-.66,.91-.58-.3-1.18-.67-1.76-1.09v.63h-2.23v1.31h3.59v.88h-3.59v2.5Zm-2.95-2.33c.43,.58,.87,1.36,1.02,1.89l-.89,.4c-.13-.53-.55-1.35-.97-1.96l.84-.33Zm4.81-3.26c-.96-.73-1.81-1.54-2.39-2.31-.53,.75-1.33,1.56-2.28,2.31h4.66Zm-1.13,5.2c.37-.52,.85-1.35,1.11-1.96l.98,.36c-.43,.69-.92,1.44-1.33,1.94l-.76-.34Z"/><path d="M661.3,10.41c.76-.29,1.59-.8,2-1.24l.85,.52c-.57,.56-1.5,1.13-2.29,1.44-.17-.19-.46-.48-.67-.67h-2.39v.5h-.87v-2.94c-.13,.05-.26,.12-.4,.18-.11-.22-.35-.55-.53-.74,.78-.29,1.55-.75,2.19-1.33-.31-.23-.62-.45-.9-.65-.2,.19-.4,.36-.6,.52-.13-.17-.47-.46-.66-.6,.85-.55,1.59-1.42,2-2.38l.85,.22c-.09,.2-.19,.4-.3,.58h1.24l.15-.04,.58,.26c-.25,.74-.63,1.4-1.08,1.96,.62,.45,1.19,.89,1.56,1.23l-.59,.7-.15-.14v2.63Zm-3.14-6.75h-.84V2h1.82v-.92h.96v.92h1.83v1.66h-.87v-.84h-2.89v.84Zm2.86,3.88c-.32-.28-.71-.58-1.13-.9-.34,.34-.73,.64-1.13,.9h2.27Zm-.62,.79h-1.61v1.33h1.61v-1.33Zm-1.29-3.81c-.09,.12-.18,.23-.26,.34,.3,.2,.62,.41,.93,.63,.24-.3,.46-.63,.63-.97h-1.3Zm4.69-1.21c.07-.29,.13-.62,.19-.91h-1.98v-.88h5.08v.88h-2.01c-.1,.31-.21,.63-.31,.91h2.06v5.71h-4.44V3.32h1.42Zm2.06,.78h-2.55v.89h2.55v-.89Zm0,1.62h-2.55v.9h2.55v-.9Zm0,1.63h-2.55v.91h2.55v-.91Zm-.25,1.88c.62,.4,1.42,.99,1.83,1.4l-.79,.54c-.38-.4-1.17-1.03-1.78-1.46l.75-.47Z"/><path d="M676.08,6.1c0-2.23,.92-3.99,2.18-5.26l.84,.4c-1.2,1.25-2.02,2.84-2.02,4.86s.83,3.61,2.02,4.86l-.84,.4c-1.25-1.27-2.18-3.03-2.18-5.26Z"/><path d="M686.49,2.63c-.14,.5-.26,1.02-.4,1.46h3.62v7.07h-1.09v-.69h-5.2v.69h-1.03V4.09h2.65c.1-.44,.2-.98,.25-1.46h-4.08V1.62h9.54v1h-4.26Zm2.13,2.42h-5.2v1.75h5.2v-1.75Zm0,4.48v-1.79h-5.2v1.79h5.2Z"/><path d="M696.87,2.85c-.02,.67-.04,1.35-.11,2.04h4.88s0,.33-.01,.47c-.19,3.45-.37,4.77-.8,5.25-.28,.32-.57,.41-1.03,.45-.42,.04-1.17,.03-1.91-.01-.02-.3-.17-.72-.35-1,.78,.07,1.56,.07,1.86,.07,.25,.01,.38-.01,.52-.13,.32-.27,.48-1.43,.63-4.1h-3.91c-.32,2.11-1.11,4.08-3.22,5.29-.14-.27-.47-.62-.74-.82,2.94-1.58,3.06-4.75,3.15-7.49h-2.78V1.85h9.56v1h-5.72Z"/><path d="M714.1,9.88c0,.59-.13,.9-.54,1.08-.4,.17-1.03,.19-2.01,.19-.04-.29-.21-.75-.37-1.02,.7,.03,1.41,.02,1.62,.01,.21,0,.27-.07,.27-.26v-3.06h-7.03v4.35h-1.02V1.78h9.09V9.88Zm-8.06-4.08h2.95V2.79h-2.95v3Zm7.03,0V2.79h-3.07v3h3.07Z"/><path d="M719.41,6.1c0,2.23-.92,3.99-2.18,5.26l-.84-.4c1.2-1.25,2.02-2.84,2.02-4.86s-.83-3.61-2.02-4.86l.84-.4c1.25,1.27,2.18,3.03,2.18,5.26Z"/></g><rect class="cls-6" x="577.57" width="11" height="11"/><g><path d="M777.82,9.36c-.7,.65-1.78,1.31-2.67,1.72-.18-.18-.54-.53-.77-.67,.91-.35,1.92-.87,2.51-1.41l.94,.36Zm5.59-.18c-.15-.17-.36-.34-.61-.54-1,.03-2.02,.07-3.01,.09v2.41h-1.01v-2.39c-1.58,.04-3.04,.07-4.16,.09l-.03-.85c.62,0,1.35,0,2.16-.01,.22-.11,.45-.23,.69-.35-.56-.43-1.38-.92-2.06-1.27l.73-.55c.23,.11,.47,.24,.73,.37,.36-.26,.75-.57,1.08-.87h-2.63V1.4h8.1v3.92h-4.16l.04,.02c-.54,.45-1.17,.91-1.72,1.27,.29,.18,.56,.35,.78,.52,.95-.55,1.88-1.17,2.54-1.68l.88,.5c-.98,.68-2.23,1.43-3.38,2.02,1.09-.01,2.27-.03,3.43-.06-.34-.23-.69-.44-1.02-.63l.75-.48c.92,.5,2.09,1.28,2.67,1.85l-.79,.54Zm-7.16-6.21h2.53v-.77h-2.53v.77Zm0,1.55h2.53v-.8h-2.53v.8Zm6.13-2.32h-2.61v.77h2.61v-.77Zm0,1.52h-2.61v.8h2.61v-.8Zm-.96,5.21c.87,.42,2.04,1.07,2.65,1.53l-.78,.59c-.56-.46-1.71-1.14-2.62-1.6l.75-.53Z"/><path d="M790.43,3.68h-4.39v-.81h4.39v.81Zm-.45,6.87h-2.54v.46h-.9v-3.7h3.44v3.23Zm-3.42-6.18h3.46v.79h-3.46v-.79Zm0,1.46h3.46v.8h-3.46v-.8Zm3.47-3.61h-3.4v-.8h3.4v.8Zm-2.59,5.92v1.58h1.63v-1.58h-1.63Zm8.82-2.38h-2.38v5.38h-1.03V5.76h-2.45v-1.01h2.45V1.09h1.03v3.66h2.38v1.01Z"/><path d="M801.55,3.68h-3.56v-.81h3.56v.81Zm6.23,6.25c0,.54-.11,.86-.44,1.02-.32,.17-.87,.19-1.67,.19-.03-.26-.17-.74-.29-1.01,.54,.03,1.08,.02,1.23,.01,.17,0,.22-.04,.22-.21V2.36h-3.86v3.1c0,1.71-.12,4.16-1,5.74-.17-.17-.58-.45-.8-.56l.07-.12h-2v.48h-.81v-3.7h2.84v3.17c.73-1.46,.79-3.48,.79-5.02V1.48h5.73V9.93Zm-6.51-4.77h-2.83v-.79h2.83v.79Zm-2.83,.67h2.83v.8h-2.83v-.8Zm2.8-3.61h-2.74v-.8h2.74v.8Zm-.81,5.92h-1.2v1.58h1.2v-1.58Zm4.03-3.08v-.91h-1v-.77h1v-.85h.81v.85h1.05v.77h-1.05v.91h1.17v.77h-3.07v-.77h1.09Zm-.21,4.33v.41h-.75v-3.26h2.76v2.85h-2.01Zm0-2.1v1.34h1.25v-1.34h-1.25Z"/><path d="M812.35,8.84c.47,.76,1.34,1.1,2.56,1.16,1.24,.06,3.8,.02,5.19-.08-.12,.23-.28,.7-.33,1-1.27,.05-3.6,.08-4.87,.03-1.36-.05-2.31-.42-2.98-1.27-.46,.45-.95,.89-1.49,1.36l-.51-1.01c.44-.3,.98-.71,1.44-1.12v-2.65h-1.32v-.95h2.3v3.52Zm-.53-5.1c-.31-.55-1.05-1.31-1.69-1.84l.78-.57c.64,.49,1.41,1.22,1.74,1.76l-.82,.65Zm2.72,.26h-1.74v-.76h3.03v-.7h-2.3v-.74h2.3v-.75h1v.75h2.38v.74h-2.38v.7h3.1v.76h-1.78l.41,.1c-.2,.36-.38,.7-.55,.97h1.78v.75h-2.96v.63h2.54v.74h-2.54v.67h3v.77h-3v.9h-1v-.9h-2.89v-.77h2.89v-.67h-2.39v-.74h2.39v-.63h-2.82v-.75h1.55c-.08-.29-.24-.67-.42-.98l.4-.09Zm2.55,.98c.14-.29,.31-.68,.42-.98h-2.42c.2,.31,.37,.69,.43,.98l-.39,.09h2.28l-.32-.09Z"/><path d="M827.5,9.93h4.16v.89h-9.27v-.89h4.04v-2.5h-3.51v-.88h3.51v-1.31h-2.16v-.57c-.55,.4-1.12,.76-1.72,1.08-.12-.23-.42-.62-.64-.83,1.87-.92,3.66-2.54,4.49-3.89h1.04c1.17,1.61,3,3.03,4.71,3.76-.24,.26-.48,.62-.66,.91-.58-.3-1.18-.67-1.76-1.09v.63h-2.23v1.31h3.59v.88h-3.59v2.5Zm-2.95-2.33c.43,.58,.87,1.36,1.02,1.89l-.89,.4c-.13-.53-.55-1.35-.97-1.96l.84-.33Zm4.81-3.26c-.96-.73-1.81-1.54-2.39-2.31-.53,.75-1.33,1.56-2.28,2.31h4.66Zm-1.13,5.2c.37-.52,.85-1.35,1.11-1.96l.98,.36c-.43,.69-.92,1.44-1.33,1.94l-.76-.34Z"/><path d="M838.17,10.41c.76-.29,1.59-.8,2-1.24l.85,.52c-.57,.56-1.5,1.13-2.29,1.44-.17-.19-.46-.48-.67-.67h-2.39v.5h-.87v-2.94c-.13,.05-.26,.12-.4,.18-.11-.22-.35-.55-.53-.74,.78-.29,1.55-.75,2.19-1.33-.31-.23-.62-.45-.9-.65-.2,.19-.4,.36-.6,.52-.13-.17-.47-.46-.66-.6,.85-.55,1.59-1.42,2-2.38l.85,.22c-.09,.2-.19,.4-.3,.58h1.24l.15-.04,.58,.26c-.25,.74-.63,1.4-1.08,1.96,.62,.45,1.19,.89,1.56,1.23l-.59,.7-.15-.14v2.63Zm-3.14-6.75h-.84V2h1.82v-.92h.96v.92h1.83v1.66h-.87v-.84h-2.89v.84Zm2.86,3.88c-.32-.28-.71-.58-1.13-.9-.34,.34-.73,.64-1.13,.9h2.27Zm-.62,.79h-1.61v1.33h1.61v-1.33Zm-1.29-3.81c-.09,.12-.18,.23-.26,.34,.3,.2,.62,.41,.93,.63,.24-.3,.46-.63,.63-.97h-1.3Zm4.69-1.21c.07-.29,.13-.62,.19-.91h-1.98v-.88h5.08v.88h-2.01c-.1,.31-.21,.63-.31,.91h2.06v5.71h-4.44V3.32h1.42Zm2.06,.78h-2.55v.89h2.55v-.89Zm0,1.62h-2.55v.9h2.55v-.9Zm0,1.63h-2.55v.91h2.55v-.91Zm-.25,1.88c.62,.4,1.42,.99,1.83,1.4l-.79,.54c-.38-.4-1.17-1.03-1.78-1.46l.75-.47Z"/><path d="M852.95,6.1c0-2.23,.92-3.99,2.18-5.26l.84,.4c-1.2,1.25-2.02,2.84-2.02,4.86s.83,3.61,2.02,4.86l-.84,.4c-1.25-1.27-2.18-3.03-2.18-5.26Z"/><path d="M863.36,2.63c-.14,.5-.26,1.02-.4,1.46h3.62v7.07h-1.09v-.69h-5.2v.69h-1.03V4.09h2.65c.1-.44,.2-.98,.25-1.46h-4.08V1.62h9.54v1h-4.26Zm2.13,2.42h-5.2v1.75h5.2v-1.75Zm0,4.48v-1.79h-5.2v1.79h5.2Z"/><path d="M873.75,2.85c-.02,.67-.04,1.35-.11,2.04h4.88s0,.33-.01,.47c-.19,3.45-.37,4.77-.8,5.25-.28,.32-.57,.41-1.03,.45-.42,.04-1.17,.03-1.91-.01-.02-.3-.17-.72-.35-1,.78,.07,1.56,.07,1.86,.07,.25,.01,.38-.01,.52-.13,.32-.27,.48-1.43,.63-4.1h-3.91c-.32,2.11-1.11,4.08-3.22,5.29-.14-.27-.47-.62-.74-.82,2.94-1.58,3.06-4.75,3.15-7.49h-2.78V1.85h9.56v1h-5.72Z"/><path d="M890.97,9.88c0,.59-.13,.9-.54,1.08-.4,.17-1.03,.19-2.01,.19-.04-.29-.21-.75-.37-1.02,.7,.03,1.41,.02,1.62,.01,.21,0,.27-.07,.27-.26v-3.06h-7.03v4.35h-1.02V1.78h9.09V9.88Zm-8.06-4.08h2.95V2.79h-2.95v3Zm7.03,0V2.79h-3.07v3h3.07Z"/><path d="M896.28,6.1c0,2.23-.92,3.99-2.18,5.26l-.84-.4c1.2-1.25,2.02-2.84,2.02-4.86s-.83-3.61-2.02-4.86l.84-.4c1.25,1.27,2.18,3.03,2.18,5.26Z"/></g><rect class="cls-5" x="753.91" width="11" height="11"/></g><line class="cls-3" x1="53.67" y1="272.64" x2="898.86" y2="272.64"/><line class="cls-3" x1="53.67" y1="227.37" x2="898.86" y2="227.37"/><line class="cls-3" x1="53.67" y1="182.09" x2="898.86" y2="182.09"/><line class="cls-3" x1="53.67" y1="136.82" x2="898.86" y2="136.82"/><line class="cls-3" x1="53.67" y1="91.24" x2="898.86" y2="91.24"/><line class="cls-3" x1="53.67" y1="45.97" x2="898.86" y2="45.97"/><g><rect class="cls-6" x="191.58" y="313.51" width="16.82" height="3.85"/><rect class="cls-5" x="208.4" y="315.68" width="16.82" height="1.68"/></g><g><rect class="cls-6" x="267.54" y="303.04" width="16.82" height="14.32"/><rect class="cls-5" x="284.36" y="311.85" width="16.82" height="5.51"/></g><g><rect class="cls-6" x="343.49" y="291.53" width="16.82" height="25.83"/><rect class="cls-5" x="360.31" y="305.45" width="16.82" height="11.91"/></g><g><rect class="cls-6" x="419.45" y="276.34" width="16.82" height="41.44"/><rect class="cls-5" x="436.27" y="300.62" width="16.82" height="17.16"/></g><g><rect class="cls-6" x="495.41" y="251.89" width="16.82" height="65.89"/><rect class="cls-5" x="512.23" y="287.11" width="16.82" height="30.66"/></g><g><rect class="cls-6" x="571.36" y="200.9" width="16.82" height="116.87"/><rect class="cls-5" x="588.18" y="270.91" width="16.82" height="46.87"/></g><g><rect class="cls-6" x="647.32" y="151.61" width="16.82" height="166.16"/><rect class="cls-5" x="664.14" y="265.17" width="16.82" height="52.61"/></g><g><rect class="cls-6" x="723.28" y="85.77" width="16.82" height="232"/><rect class="cls-5" x="740.1" y="237.48" width="16.82" height="80.29"/></g><g><rect class="cls-6" x="796.55" y="55.77" width="16.82" height="262"/><rect class="cls-5" x="813.37" y="227.48" width="16.82" height="90.29"/></g><line class="cls-2" x1="53.67" y1="317.92" x2="898.86" y2="317.92"/><g class="cls-4"><path class="cls-7" d="M142.52,352.46h-6c0-12.9,5.69-19.61,10.71-25.53,4.78-5.63,9.29-10.96,9.29-21.65s-4.51-16.02-9.29-21.65c-5.02-5.92-10.71-12.64-10.71-25.53s5.69-19.61,10.71-25.53c4.78-5.63,9.29-10.96,9.29-21.65s-4.51-16.02-9.29-21.65c-5.02-5.92-10.71-12.64-10.71-25.53s5.69-19.61,10.71-25.53c4.78-5.63,9.29-10.96,9.29-21.65s-4.51-16.02-9.29-21.66c-5.02-5.92-10.71-12.64-10.71-25.54s5.69-19.61,10.71-25.54c4.78-5.64,9.29-10.96,9.29-21.66h6c0,12.9-5.69,19.61-10.71,25.54-4.78,5.64-9.29,10.96-9.29,21.66s4.51,16.02,9.29,21.66c5.02,5.92,10.71,12.64,10.71,25.54s-5.69,19.61-10.71,25.53c-4.78,5.63-9.29,10.96-9.29,21.65s4.51,16.02,9.29,21.65c5.02,5.92,10.71,12.64,10.71,25.53s-5.69,19.61-10.71,25.53c-4.78,5.63-9.29,10.96-9.29,21.65s4.51,16.02,9.29,21.65c5.02,5.92,10.71,12.64,10.71,25.53s-5.69,19.61-10.71,25.53c-4.78,5.63-9.29,10.96-9.29,21.65Z"/></g><g><path d="M796.87,358.96l-.51-.72,.98-4.62c.08-.39,.1-.7,.04-.96-.06-.25-.16-.48-.31-.68-.18-.25-.4-.43-.65-.54s-.52-.16-.8-.14-.54,.12-.79,.3c-.25,.19-.44,.41-.55,.68-.11,.27-.15,.54-.12,.82,.03,.28,.13,.54,.3,.77l-.81,.59c-.29-.4-.46-.82-.5-1.27-.04-.45,.04-.88,.23-1.29,.2-.41,.5-.77,.91-1.06,.4-.29,.82-.46,1.27-.5,.45-.05,.88,.02,1.29,.21,.41,.18,.76,.47,1.04,.86,.21,.28,.35,.55,.42,.8,.08,.25,.11,.52,.09,.8-.02,.28-.07,.6-.15,.95l-.82,3.84-.3-.19,3.44-2.5,.55,.76-4.26,3.09Z"/><path d="M805.17,353.14c-.42,.3-.85,.48-1.32,.52-.46,.05-.9-.02-1.33-.21-.43-.19-.79-.49-1.09-.9l-1.71-2.35c-.3-.42-.48-.85-.52-1.32-.05-.46,.02-.91,.21-1.33,.19-.42,.49-.79,.9-1.09,.42-.3,.85-.48,1.32-.53,.46-.05,.91,.02,1.33,.21s.79,.49,1.09,.91l1.71,2.35c.3,.42,.48,.85,.53,1.31s-.02,.9-.21,1.33c-.19,.43-.49,.79-.91,1.09Zm-.55-.76c.25-.18,.44-.41,.55-.68,.12-.27,.16-.55,.13-.85s-.13-.57-.31-.82l-1.78-2.44c-.18-.25-.41-.43-.68-.55-.27-.12-.55-.16-.85-.14s-.57,.13-.82,.32c-.25,.18-.43,.41-.55,.68-.12,.27-.16,.55-.13,.85,.03,.29,.13,.57,.31,.82l1.78,2.44c.18,.25,.41,.43,.68,.55,.27,.12,.55,.16,.85,.13s.57-.13,.82-.31Z"/><path d="M809.01,350.14l-.51-.72,.98-4.62c.08-.39,.09-.7,.04-.96-.06-.25-.16-.48-.31-.68-.18-.25-.4-.43-.65-.54-.26-.12-.52-.16-.8-.14s-.54,.12-.79,.3c-.25,.19-.44,.41-.55,.68-.11,.27-.15,.54-.12,.82,.03,.28,.13,.54,.3,.77l-.81,.59c-.29-.4-.46-.82-.5-1.27-.04-.45,.04-.88,.23-1.29,.19-.41,.5-.77,.91-1.06,.4-.29,.82-.46,1.27-.5,.45-.04,.88,.02,1.29,.21s.76,.47,1.04,.86c.21,.28,.35,.55,.42,.8,.08,.25,.11,.52,.09,.8-.02,.28-.07,.6-.15,.95l-.82,3.84-.3-.19,3.44-2.5,.55,.76-4.26,3.09Z"/><path d="M816.9,344.6c-.32,.23-.66,.39-1.01,.47s-.71,.09-1.07,.01c-.35-.07-.68-.22-.99-.45l.6-.77c.31,.22,.64,.33,.98,.32,.34-.01,.65-.12,.93-.33,.26-.2,.44-.42,.55-.67,.11-.25,.14-.52,.1-.79s-.15-.54-.34-.8c-.29-.39-.64-.63-1.06-.71-.42-.08-.82,.03-1.21,.31-.11,.08-.21,.17-.3,.29-.1,.12-.17,.24-.24,.36l-.84-.35,.81-3.88,.3,.19-3.19,2.32-.55-.76,3.78-2.74,.55,.76-.62,3.41-.21-.27c.41-.33,.83-.53,1.27-.6,.44-.06,.86,0,1.27,.18,.41,.19,.76,.48,1.05,.89,.3,.41,.47,.84,.51,1.29,.04,.45-.03,.88-.21,1.28s-.47,.76-.87,1.05Z"/><path d="M823.03,340.16c-.42,.3-.85,.48-1.32,.52-.46,.05-.91-.02-1.33-.21-.42-.19-.79-.49-1.09-.9l-1.71-2.35c-.3-.42-.48-.85-.52-1.32-.05-.46,.02-.9,.21-1.33,.19-.42,.49-.79,.91-1.09s.85-.48,1.32-.53c.46-.05,.91,.02,1.33,.21s.79,.49,1.09,.91l1.71,2.35c.3,.42,.48,.85,.53,1.31,.05,.46-.02,.9-.21,1.33-.19,.43-.49,.79-.91,1.09Zm-.55-.76c.25-.18,.44-.41,.55-.68,.12-.27,.16-.55,.13-.85-.03-.29-.13-.57-.31-.82l-1.77-2.44c-.18-.25-.41-.43-.68-.55-.27-.12-.55-.16-.85-.14s-.57,.13-.82,.32c-.25,.18-.43,.41-.55,.68-.12,.27-.16,.55-.13,.85,.03,.29,.13,.57,.31,.81l1.77,2.44c.18,.25,.41,.43,.68,.55s.55,.16,.85,.13c.29-.03,.57-.13,.82-.31Z"/><path d="M829.34,335.58c-.41,.3-.85,.47-1.32,.51s-.93-.03-1.37-.23c-.44-.2-.82-.51-1.13-.94l-1.55-2.13c-.33-.45-.52-.92-.57-1.4-.05-.48,.02-.95,.21-1.39,.2-.44,.51-.82,.95-1.14,.35-.26,.73-.42,1.14-.5,.41-.08,.81-.06,1.22,.06l-.21,.96c-.26-.09-.54-.12-.82-.08-.28,.04-.55,.14-.78,.31-.28,.21-.48,.46-.6,.75-.12,.3-.16,.6-.13,.91s.15,.59,.33,.85l.93,1.29-.32-.07c0-.4,.07-.79,.25-1.16,.17-.37,.42-.67,.76-.92,.4-.29,.82-.45,1.27-.5,.45-.04,.89,.03,1.3,.22,.41,.19,.77,.48,1.05,.88,.29,.4,.45,.83,.49,1.3,.04,.47-.04,.92-.23,1.35-.19,.43-.49,.79-.88,1.08Zm-.56-.77c.25-.19,.44-.42,.56-.69,.12-.28,.17-.56,.14-.86-.03-.3-.13-.58-.32-.83-.19-.26-.42-.44-.69-.56-.27-.12-.56-.17-.86-.14-.3,.03-.58,.13-.83,.32-.25,.19-.44,.42-.56,.69-.12,.28-.16,.56-.14,.86s.13,.58,.32,.83c.18,.25,.41,.44,.69,.56,.28,.12,.56,.17,.86,.14,.3-.03,.58-.13,.83-.32Z"/></g></g></g></svg>