<?xml version="1.0" encoding="UTF-8"?>
<svg id="Layer_2" data-name="Layer 2" xmlns="http://www.w3.org/2000/svg" viewBox="0 0 25.27 34.23">
  <g id="design">
    <g>
      <g>
        <polygon points="16.56 8.71 24.62 8.71 16.56 .65 16.56 8.71"/>
        <path d="M24.62,9.36h-8.06c-.36,0-.65-.29-.65-.65V.65c0-.26,.16-.5,.4-.6,.25-.1,.52-.04,.71,.14l8.06,8.06c.19,.19,.24,.47,.14,.71-.1,.24-.34,.4-.6,.4Zm-7.41-1.3h5.84l-5.84-5.85v5.85Z"/>
      </g>
      <g>
        <path d="M24.62,34.23H.65c-.36,0-.65-.29-.65-.65V.65C0,.29,.29,0,.65,0h15.91c.36,0,.65,.29,.65,.65v7.41h7.41c.36,0,.65,.29,.65,.65v24.87c0,.36-.29,.65-.65,.65Zm-23.32-1.3H23.97V9.36h-7.41c-.36,0-.65-.29-.65-.65V1.3H1.3v31.63Z"/>
        <g>
          <path d="M5.43,20.71v-5.84h2.36c.06,0,.13,0,.21,0s.16,.01,.24,.03c.33,.05,.6,.16,.81,.33,.22,.17,.38,.39,.49,.65s.16,.55,.16,.86-.05,.6-.16,.86-.27,.48-.49,.65c-.22,.17-.49,.28-.81,.33-.08,.01-.16,.02-.24,.02-.08,0-.16,0-.21,0h-1.51v2.1h-.85Zm.85-2.9h1.48c.05,0,.11,0,.18,0,.07,0,.13-.01,.19-.03,.17-.04,.31-.12,.42-.23s.18-.24,.23-.38c.05-.14,.07-.29,.07-.43s-.02-.29-.07-.43c-.05-.14-.12-.27-.23-.38s-.25-.18-.42-.23c-.06-.02-.12-.03-.19-.03-.07,0-.13,0-.18,0h-1.48v2.14Z"/>
          <path d="M10.76,20.71v-5.84h1.83c.05,0,.16,0,.3,0s.29,.01,.42,.03c.46,.06,.84,.22,1.16,.49s.55,.61,.71,1.03c.16,.42,.24,.87,.24,1.37s-.08,.95-.24,1.37c-.16,.42-.4,.76-.71,1.03s-.7,.43-1.16,.49c-.13,.02-.28,.03-.42,.03s-.25,0-.3,0h-1.83Zm.87-.81h.96c.09,0,.2,0,.33,0,.13,0,.24-.02,.34-.03,.3-.06,.54-.19,.72-.39,.19-.2,.32-.45,.41-.74,.09-.29,.13-.61,.13-.94s-.04-.66-.13-.96c-.09-.29-.23-.54-.41-.74-.19-.2-.42-.33-.72-.38-.1-.02-.21-.03-.34-.04-.13,0-.24,0-.33,0h-.96v4.23Z"/>
          <path d="M16.61,20.71v-5.84h3.46v.85h-2.61v1.65h2.13v.85h-2.13v2.5h-.85Z"/>
        </g>
      </g>
    </g>
  </g>
</svg>