<?xml version="1.0" encoding="UTF-8"?><svg id="_レイヤー_2" xmlns="http://www.w3.org/2000/svg" viewBox="0 0 900 188"><defs><style>.cls-1,.cls-2,.cls-3,.cls-4,.cls-5{fill:none;}.cls-2,.cls-3{stroke-linejoin:round;}.cls-2,.cls-3,.cls-4{stroke:#323230;}.cls-6{fill:#fff;}.cls-7{fill:#f1f1ee;}.cls-8{fill:#323230;}.cls-9{fill:#cececa;}.cls-3{stroke-width:2px;}.cls-4,.cls-5{stroke-miterlimit:10;stroke-width:.5px;}.cls-5{stroke:#fff;}</style></defs><g id="_レイヤー_1-2"><g><g><path d="M283.01,14.46h-12.34v.74h-1.44V1.15h13.35v1.34h-11.91V13.12h12.34v1.34Zm-7.28-6.83c-.18,.32-.38,.62-.59,.91h5.68v3.71h-6.88v-2.34c-.5,.48-1.04,.91-1.62,1.26-.19-.24-.72-.75-1.01-.98,1.14-.62,2.11-1.5,2.87-2.58h-2.71v-1.17h3.39c.08-.18,.16-.37,.24-.56h-1.01v-.93h-2.38v-1.14h2.38v-.86h1.33v.86h2.67v-.86h1.33v.86h2.4v1.14h-2.4v.93h-1.33v-.93h-2.67v.4l1.22,.26c-.1,.29-.21,.56-.32,.83h5.97v1.17h-6.56Zm-.42,3.54h4.05v-1.54h-4.05v1.54Z"/><path d="M299.21,15.2h-1.54v-.66h-6.05v.62h-1.49v-4.8c-1.2,.69-2.46,1.26-3.75,1.68-.18-.4-.56-1.01-.85-1.33,2-.59,4.02-1.6,5.75-2.93-.66-.75-1.75-1.7-2.69-2.42-.61,.46-1.26,.93-1.97,1.34-.22-.37-.7-.91-1.06-1.15,2.62-1.42,4.42-3.41,5.35-5.14l1.68,.32c-.26,.45-.54,.88-.85,1.31h4.08l.27-.08,1.01,.54c-.88,2.27-2.32,4.19-4.05,5.73h6.15v6.95Zm-8.53-11.81c-.3,.34-.62,.69-.98,1.01,.96,.7,2.08,1.62,2.79,2.37,1.06-.99,1.95-2.13,2.59-3.38h-4.4Zm6.99,9.81v-3.59h-6.05v3.59h6.05Z"/><path d="M305.15,9.87c-.21,1.5-.58,3.06-1.07,4.08-.24-.18-.83-.45-1.14-.56,.48-.96,.78-2.37,.94-3.75l1.26,.22Zm1.89-1.26v6.59h-1.33v-6.51c-.91,.05-1.76,.1-2.5,.14l-.13-1.31,1.12-.03c.3-.38,.61-.8,.93-1.25-.5-.7-1.31-1.57-2.02-2.24l.72-.99c.14,.13,.29,.26,.43,.38,.5-.88,1.02-2.03,1.31-2.9l1.34,.48c-.58,1.09-1.25,2.35-1.83,3.22,.3,.32,.58,.64,.78,.93,.62-.96,1.2-1.95,1.62-2.79l1.26,.54c-.91,1.46-2.11,3.22-3.19,4.55l2.13-.08c-.21-.45-.43-.88-.67-1.28l1.07-.46c.66,1.04,1.31,2.4,1.54,3.28l-1.14,.54c-.06-.26-.16-.56-.29-.9l-1.18,.08Zm1.47,.96c.43,.96,.87,2.21,1.04,3.02l-1.18,.42c-.14-.83-.58-2.1-.98-3.07l1.12-.37Zm9.43,3.83v1.34h-9.3v-1.34h1.58V1.34h6.56V13.39h1.15Zm-6.26-10.71v2.62h3.6V2.68h-3.6Zm3.6,3.97h-3.6v2.64h3.6v-2.64Zm-3.6,6.74h3.6v-2.75h-3.6v2.75Z"/><path d="M328.64,.52c1.71,2.38,4.42,4.5,6.93,5.59-.37,.37-.72,.88-.98,1.33-.85-.45-1.74-.99-2.59-1.62v1.14h-7.97v-1.09c-.82,.61-1.7,1.15-2.58,1.63-.18-.35-.61-.88-.91-1.18,2.74-1.39,5.36-3.79,6.58-5.79h1.52Zm-5.52,8.24h9.86v6.43h-1.52v-.62h-6.88v.62h-1.46v-6.43Zm8.61-3.14c-1.5-1.12-2.88-2.42-3.78-3.65-.82,1.18-2.1,2.5-3.6,3.65h7.38Zm-7.15,4.48v3.14h6.88v-3.14h-6.88Z"/></g><g><g><path d="M837.58,164.31c-.43,.14-.86,.28-1.29,.41v3.94h-.95v-3.64l-1.73,.53-.26-.98c.55-.14,1.24-.33,1.99-.54v-2.31h-.88c-.13,.58-.29,1.11-.45,1.53-.17-.13-.54-.35-.75-.46,.39-.89,.58-2.28,.69-3.59l.87,.14c-.05,.47-.11,.95-.19,1.41h.7v-2.18h.95v2.18h1.02v.97h-1.02v2.02l1.16-.33,.13,.9Zm5.83-3.97s0,.35-.01,.48c-.24,4.94-.45,6.68-.88,7.22-.23,.33-.45,.43-.8,.48-.3,.05-.76,.04-1.24,.02-.01-.3-.12-.71-.29-1,.46,.04,.87,.04,1.08,.04,.18,0,.29-.04,.4-.2,.32-.36,.55-1.93,.75-6.11h-.31c-.56,2.84-1.74,5.73-3.52,7.16-.2-.19-.56-.45-.85-.61,1.77-1.26,2.93-3.89,3.48-6.56h-.74c-.48,1.85-1.44,3.86-2.61,4.9-.19-.19-.52-.44-.79-.58,1.13-.88,2.04-2.62,2.54-4.31h-.78c-.34,.79-.74,1.49-1.19,2.02-.17-.14-.57-.45-.79-.58,.89-.97,1.52-2.53,1.88-4.16l.92,.18c-.12,.55-.29,1.09-.45,1.59h4.2Z"/><path d="M848.82,158.9c-.29,.8-.66,1.61-1.08,2.38v7.37h-.97v-5.83c-.28,.38-.57,.76-.86,1.07-.1-.24-.38-.79-.56-1.03,1-1.03,1.94-2.63,2.51-4.24l.96,.29Zm6.68,6.03h-2.92v3.73h-1.02v-3.73h-3.05v-1h3.05v-2.18h-1.56c-.22,.59-.46,1.13-.74,1.55-.2-.14-.64-.38-.88-.49,.62-.88,1.07-2.29,1.31-3.66l.99,.2c-.1,.47-.22,.95-.35,1.41h1.23v-2.05h1.02v2.05h2.42v1h-2.42v2.18h2.92v1Z"/></g><g><polygon class="cls-6" points="884.21 40.82 828.93 40.82 807.85 47.88 863.13 47.88 884.21 40.82"/><rect class="cls-7" x="807.85" y="47.88" width="55.28" height="96.74"/><polygon class="cls-9" points="884.21 40.82 884.21 137.56 863.13 144.61 863.13 47.88 884.21 40.82"/><g><rect class="cls-9" x="813.57" y="57.41" width="49.56" height="2.09"/><rect class="cls-9" x="813.57" y="65.8" width="49.56" height="2.09"/><rect class="cls-9" x="813.57" y="74.2" width="49.56" height="2.09"/><rect class="cls-9" x="813.57" y="82.6" width="49.56" height="2.09"/><rect class="cls-9" x="813.57" y="91" width="49.56" height="2.09"/><rect class="cls-9" x="813.57" y="99.4" width="49.56" height="2.09"/><rect class="cls-9" x="813.57" y="107.79" width="49.56" height="2.09"/><rect class="cls-9" x="813.57" y="116.19" width="49.56" height="2.09"/><rect class="cls-9" x="813.57" y="124.59" width="49.56" height="2.09"/><rect class="cls-9" x="813.57" y="132.99" width="49.56" height="2.09"/></g></g></g><g><path d="M680.61,71.38c-.27,.9-.75,1.8-1.24,2.39-.18-.15-.56-.41-.77-.53,.5-.52,.9-1.29,1.11-2.08l.9,.22Zm1.76-.39h-3.2v-6.93h3.2v6.93Zm-.92-6.09h-1.39v1.22h1.39v-1.22Zm0,2h-1.39v1.24h1.39v-1.24Zm0,2.01h-1.39v1.25h1.39v-1.25Zm.36,2.23c.35,.54,.74,1.25,.91,1.73l-.8,.38c-.14-.47-.54-1.23-.88-1.78l.77-.33Zm6.98,.83h-.58v.79c0,.45-.1,.69-.42,.84-.33,.14-.84,.14-1.6,.14-.03-.23-.15-.59-.28-.83,.51,.02,1.01,.02,1.16,.01,.15,0,.19-.04,.19-.18v-.78h-3.18v1.79h-.91v-1.79h-.65v-.75h.65v-2.78h2.02v-.53h-2.63v-.76h1.49v-.58h-.99v-.73h.99v-.54h-1.26v-.76h1.26v-.89h.9v.89h1.41v-.89h.91v.89h1.27v.76h-1.27v.54h1.09v.73h-1.09v.58h1.5v.76h-2.67v.53h2.11v2.78h.58v.75Zm-4.71-2.77v.65h1.11v-.65h-1.11Zm0,2.02h1.11v-.7h-1.11v.7Zm.87-5.38h1.41v-.54h-1.41v.54Zm0,1.31h1.41v-.58h-1.41v.58Zm1.14,2.05v.65h1.17v-.65h-1.17Zm1.17,2.02v-.7h-1.17v.7h1.17Z"/><path d="M696.26,64.29c0,1.99,.25,6.07,4.44,8.55-.23,.18-.65,.62-.83,.87-2.5-1.51-3.67-3.75-4.21-5.78-.81,2.65-2.19,4.58-4.22,5.8-.2-.21-.67-.64-.95-.83,2.37-1.22,3.7-3.39,4.33-6.37l.56,.1c-.08-.46-.12-.91-.14-1.31h-2.62v-1.03h3.63Z"/><path d="M712.37,63.55l.34,.34-9.96,9.96-.34-.34,9.96-9.96Z"/><path d="M716.13,71.44c.47,.76,1.34,1.1,2.56,1.15,1.24,.06,3.8,.02,5.19-.08-.12,.23-.28,.7-.33,1-1.27,.05-3.6,.08-4.87,.03-1.36-.06-2.31-.42-2.98-1.27-.46,.45-.95,.89-1.49,1.36l-.51-1.01c.44-.3,.98-.72,1.44-1.12v-2.65h-1.32v-.95h2.3v3.52Zm-.53-5.1c-.31-.55-1.04-1.31-1.69-1.84l.78-.57c.64,.5,1.41,1.22,1.74,1.76l-.83,.65Zm4,5.08h-3v-.77h3v-.54h-2.3v-3.15h2.3v-.55h-2.6v-.74h2.6v-.68h1v.68h2.64v.74h-2.64v.55h2.38v3.15h-2.38v.54h3.1v.77h-3.1v.9h-1v-.9Zm-1.95-5.95h-.9v-1.45h6.79v1.45h-.95v-.69h-4.94v.69Zm.53,2.75h1.42v-.59h-1.42v.59Zm1.42,1.23v-.62h-1.42v.62h1.42Zm1-1.83v.59h1.46v-.59h-1.46Zm1.46,1.21h-1.46v.62h1.46v-.62Z"/><path d="M735.16,72.47c0,.59-.14,.9-.54,1.06-.41,.17-1.04,.19-2.06,.18-.04-.28-.21-.73-.34-.99,.7,.03,1.43,.02,1.64,.02,.2,0,.27-.07,.27-.27v-1.97h-2.66v3.15h-1.02v-3.15h-2.53c-.18,1.21-.57,2.44-1.38,3.33-.15-.2-.57-.55-.8-.67,1.2-1.33,1.31-3.28,1.31-4.83v-3.92h8.11v8.06Zm-4.71-2.95v-1.63h-2.39v.44c0,.37-.01,.78-.04,1.19h2.43Zm-2.39-4.14v1.55h2.39v-1.55h-2.39Zm6.07,0h-2.66v1.55h2.66v-1.55Zm0,4.14v-1.63h-2.66v1.63h2.66Z"/></g><g><path d="M686.74,136.68c.47,.76,1.34,1.1,2.56,1.16,1.24,.05,3.8,.02,5.19-.08-.12,.23-.28,.7-.33,1-1.27,.05-3.6,.08-4.87,.03-1.36-.05-2.31-.42-2.98-1.27-.46,.45-.95,.89-1.49,1.36l-.51-1.01c.44-.3,.98-.72,1.44-1.12v-2.65h-1.32v-.95h2.3v3.52Zm-.53-5.1c-.31-.55-1.05-1.31-1.69-1.84l.78-.57c.64,.5,1.41,1.22,1.74,1.76l-.82,.65Zm4,5.08h-3v-.77h3v-.54h-2.3v-3.15h2.3v-.55h-2.6v-.74h2.6v-.68h1v.68h2.64v.74h-2.64v.55h2.38v3.15h-2.38v.54h3.1v.77h-3.1v.9h-1v-.9Zm-1.95-5.95h-.9v-1.45h6.79v1.45h-.95v-.69h-4.94v.69Zm.53,2.75h1.42v-.59h-1.42v.59Zm1.42,1.23v-.62h-1.42v.62h1.42Zm1-1.83v.59h1.46v-.59h-1.46Zm1.46,1.21h-1.46v.62h1.46v-.62Z"/><path d="M705.77,137.71c0,.59-.14,.9-.54,1.06-.41,.17-1.04,.19-2.06,.18-.04-.28-.21-.73-.34-.99,.7,.03,1.43,.02,1.64,.02,.2,0,.27-.07,.27-.28v-1.97h-2.66v3.15h-1.02v-3.15h-2.53c-.18,1.21-.57,2.44-1.38,3.33-.15-.2-.57-.55-.8-.67,1.2-1.33,1.31-3.28,1.31-4.83v-3.92h8.11v8.06Zm-4.71-2.95v-1.63h-2.39v.44c0,.38-.01,.78-.04,1.19h2.43Zm-2.39-4.14v1.55h2.39v-1.55h-2.39Zm6.07,0h-2.66v1.55h2.66v-1.55Zm0,4.14v-1.63h-2.66v1.63h2.66Z"/><path d="M711.55,132.15h1.99v.95h-1.99v.73c.54,.4,1.69,1.39,1.99,1.65l-.58,.87c-.31-.35-.89-.96-1.41-1.45v4.08h-1v-4.37c-.54,1.13-1.22,2.24-1.9,2.94-.11-.3-.37-.73-.54-.99,.84-.79,1.72-2.19,2.23-3.46h-1.99v-.95h2.2v-1.64c-.67,.13-1.35,.24-1.99,.32-.04-.23-.19-.58-.31-.79,1.6-.24,3.43-.63,4.48-1.09l.74,.78c-.55,.22-1.21,.41-1.91,.57v1.85Zm3.63,4.1h-.99v-6.05h.99v6.05Zm2.66-7.15v8.59c0,.64-.15,.94-.54,1.11-.41,.15-1.07,.19-2.07,.19-.05-.29-.21-.76-.36-1.06,.75,.03,1.44,.03,1.66,.02,.21,0,.29-.07,.29-.26v-8.59h1.02Z"/><path d="M727.21,132.07c.77,1.18,1.96,2.27,3.17,2.84-.22,.19-.55,.57-.7,.81-.32-.16-.63-.37-.93-.59v2.62h1.45v.9h-9.93v-.9h1.49v-2.56c-.3,.24-.61,.47-.91,.67-.17-.21-.55-.61-.79-.78,1.22-.69,2.33-1.76,3.06-3h-2.61v-.9h2.68c-.26-.55-.71-1.28-1.13-1.83l.87-.38c.5,.61,1.01,1.4,1.25,1.94l-.54,.27h3.22l-.62-.22c.43-.56,.97-1.43,1.27-2.07l1.08,.32c-.43,.69-.95,1.44-1.38,1.97h2.76v.9h-2.75Zm1.03,2.65c-.85-.74-1.6-1.66-2.13-2.65h-1.83c-.53,1-1.23,1.9-2.02,2.65h5.99Zm-4.51,.88h-1.07v2.15h1.07v-2.15Zm2.02,0h-1.09v2.15h1.09v-2.15Zm2.02,2.15v-2.15h-1.09v2.15h1.09Z"/></g><g><path d="M290.78,118.4v4.54h-1.06v-.65h-6.5v.67h-1.03v-4.57h1.03v2.89h2.65v-3.55h-3.27v-3.84h1.02v2.85h2.24v-3.81h1.04v3.81h2.35v-2.86h1.08v3.85h-3.43v3.55h2.81v-2.89h1.06Z"/><path d="M296.35,115.9c-.96,.32-1.98,.62-2.79,.87l-.41-.9c.8-.17,1.97-.47,3.1-.77l.1,.8Zm1.01,5.73c-.89,.54-2.27,1.07-3.37,1.36-.18-.2-.54-.58-.77-.76,1.13-.22,2.44-.61,3.2-1.03l.93,.43Zm-1.4-6.96c-.52-.28-1.53-.67-2.3-.9l.45-.69c.75,.19,1.77,.55,2.3,.81l-.45,.78Zm2.08-.3c-.26,.33-.57,.64-.94,.91-.19-.18-.53-.4-.77-.5,.81-.55,1.35-1.29,1.63-1.92l.92,.14c-.1,.21-.21,.42-.34,.63h3.53l.15-.03,.68,.18c-.29,.57-.69,1.21-1.07,1.6l-.8-.25c.19-.2,.37-.47,.55-.75h-1.52c.24,.79,.86,1.5,3.09,1.79-.19,.2-.43,.58-.52,.84-.31-.05-.59-.12-.85-.19v4.37h-7.17v-4.42h2.21c-.1-.22-.3-.52-.45-.67,1.77-.29,2.4-.81,2.65-1.72h-1Zm2.74,3.04h-5.16v.62h5.16v-.62Zm0,1.23h-5.16v.63h5.16v-.63Zm0,1.25h-5.16v.64h5.16v-.64Zm.85-3.13c-1.1-.34-1.67-.86-2.01-1.44-.42,.67-1.14,1.13-2.45,1.44h4.47Zm-1.86,4.47c1.18,.4,2.5,.9,3.29,1.28l-1.18,.48c-.65-.35-1.8-.85-2.95-1.24l.84-.52Z"/></g><g><path d="M274.42,147.41c-.02,.23-.04,.51-.04,.81v3.69c0,.29,.02,.67,.04,.89h-1.29c.01-.19,.05-.57,.05-.89v-3.69c0-.2-.02-.58-.04-.81h1.28Zm5.08-.09c-.02,.29-.04,.62-.04,1.01v1.96c0,2.52-.4,3.46-1.21,4.38-.71,.84-1.83,1.33-2.63,1.61l-.91-.96c1.04-.26,1.99-.68,2.66-1.44,.77-.87,.91-1.73,.91-3.65v-1.89c0-.4-.03-.73-.07-1.01h1.29Z"/><path d="M291.51,148.7c-.1,.19-.23,.46-.31,.68-.27,.91-.81,2.08-1.56,3.16,.41,.26,.78,.51,1.06,.7l-.77,1.01c-.26-.22-.63-.48-1.05-.77-.98,1.11-2.32,2.13-4.19,2.85l-1-.88c1.94-.58,3.28-1.58,4.24-2.61-.81-.53-1.66-1.04-2.25-1.38l.73-.83c.62,.32,1.46,.8,2.27,1.29,.61-.87,1.1-1.9,1.3-2.67h-3.5c-.73,1-1.72,2.06-2.89,2.86l-.95-.72c1.91-1.18,3-2.77,3.52-3.75,.14-.22,.34-.67,.42-.99l1.25,.4c-.21,.33-.45,.75-.56,.97l-.13,.24h2.67c.31,0,.62-.04,.83-.12l.89,.55Z"/><path d="M293.9,150.84c.35,.03,1.03,.07,1.63,.07h5.97c.54,0,.97-.04,1.23-.07v1.35c-.24-.01-.74-.04-1.22-.04h-5.99c-.62,0-1.26,.02-1.63,.04v-1.35Z"/><path d="M308.52,153.37c1.77-1.09,3.15-2.74,3.82-4.15l.67,1.2c-.79,1.42-2.15,2.93-3.86,3.98-1.11,.68-2.51,1.33-4.21,1.64l-.74-1.13c1.84-.28,3.27-.89,4.32-1.54Zm-.37-3.52l-.87,.89c-.57-.58-1.94-1.77-2.75-2.33l.8-.86c.78,.52,2.2,1.66,2.82,2.3Z"/></g><polyline class="cls-3" points="217.43 71 370.29 71 360.25 62.26"/><polyline class="cls-2" points="217.43 127.67 370.29 127.67 363.65 122.33"/><polyline class="cls-2" points="370.29 138.87 217.43 138.87 224.06 144.21"/><polyline class="cls-2" points="632.44 81.66 785.3 81.66 778.66 76.32"/><polyline class="cls-2" points="785.3 118.25 632.44 118.25 639.07 123.59"/><polyline class="cls-3" points="370.29 82.2 217.43 82.2 227.47 90.94"/><g><path d="M290.78,61.73v4.54h-1.06v-.65h-6.5v.67h-1.03v-4.57h1.03v2.89h2.65v-3.55h-3.27v-3.84h1.02v2.85h2.24v-3.81h1.04v3.81h2.35v-2.86h1.08v3.85h-3.43v3.55h2.81v-2.89h1.06Z"/><path d="M296.35,59.23c-.96,.32-1.98,.62-2.79,.87l-.41-.9c.8-.17,1.97-.47,3.1-.77l.1,.8Zm1.01,5.73c-.89,.54-2.27,1.07-3.37,1.36-.18-.2-.54-.58-.77-.76,1.13-.22,2.44-.61,3.2-1.03l.93,.43Zm-1.4-6.96c-.52-.28-1.53-.67-2.3-.9l.45-.69c.75,.19,1.77,.55,2.3,.81l-.45,.78Zm2.08-.3c-.26,.33-.57,.64-.94,.91-.19-.18-.53-.4-.77-.5,.81-.55,1.35-1.29,1.63-1.93l.92,.14c-.1,.21-.21,.42-.34,.63h3.53l.15-.03,.68,.18c-.29,.57-.69,1.21-1.07,1.6l-.8-.25c.19-.2,.37-.47,.55-.75h-1.52c.24,.79,.86,1.5,3.09,1.79-.19,.2-.43,.58-.52,.84-.31-.05-.59-.12-.85-.19v4.37h-7.17v-4.42h2.21c-.1-.22-.3-.52-.45-.67,1.77-.29,2.4-.81,2.65-1.72h-1Zm2.74,3.04h-5.16v.62h5.16v-.62Zm0,1.23h-5.16v.63h5.16v-.63Zm0,1.25h-5.16v.64h5.16v-.64Zm.85-3.14c-1.1-.34-1.67-.86-2.01-1.44-.42,.67-1.14,1.13-2.45,1.44h4.47Zm-1.86,4.47c1.18,.4,2.5,.9,3.29,1.28l-1.18,.48c-.65-.35-1.8-.85-2.95-1.24l.84-.52Z"/></g><g><path d="M274.42,90.73c-.02,.23-.04,.51-.04,.81v3.69c0,.29,.02,.67,.04,.89h-1.29c.01-.19,.05-.57,.05-.89v-3.69c0-.2-.02-.58-.04-.81h1.28Zm5.08-.09c-.02,.29-.04,.62-.04,1.01v1.96c0,2.52-.4,3.45-1.21,4.38-.71,.84-1.83,1.33-2.63,1.61l-.91-.96c1.04-.26,1.99-.68,2.66-1.44,.77-.87,.91-1.73,.91-3.65v-1.89c0-.4-.03-.73-.07-1.01h1.29Z"/><path d="M291.51,92.03c-.1,.19-.23,.46-.31,.68-.27,.91-.81,2.08-1.56,3.16,.41,.26,.78,.51,1.06,.7l-.77,1.01c-.26-.22-.63-.48-1.05-.77-.98,1.11-2.32,2.13-4.19,2.85l-1-.88c1.94-.58,3.28-1.58,4.24-2.61-.81-.53-1.66-1.05-2.25-1.38l.73-.82c.62,.32,1.46,.8,2.27,1.29,.61-.87,1.1-1.9,1.3-2.67h-3.5c-.73,1-1.72,2.06-2.89,2.86l-.95-.71c1.91-1.18,3-2.77,3.52-3.75,.14-.22,.34-.67,.42-.99l1.25,.4c-.21,.33-.45,.75-.56,.97l-.13,.24h2.67c.31,0,.62-.04,.83-.12l.89,.55Z"/><path d="M293.9,94.17c.35,.03,1.03,.07,1.63,.07h5.97c.54,0,.97-.04,1.23-.07v1.35c-.24-.01-.74-.04-1.22-.04h-5.99c-.62,0-1.26,.02-1.63,.04v-1.35Z"/><path d="M308.52,96.7c1.77-1.09,3.15-2.74,3.82-4.15l.67,1.2c-.79,1.42-2.15,2.93-3.86,3.98-1.11,.68-2.51,1.33-4.21,1.64l-.74-1.13c1.84-.27,3.27-.89,4.32-1.54Zm-.37-3.52l-.87,.89c-.57-.58-1.94-1.77-2.75-2.33l.8-.86c.78,.52,2.2,1.66,2.82,2.3Z"/></g><g><g><rect class="cls-8" x="403.84" y="44.35" width="187.05" height="69.47"/><rect class="cls-9" x="403.84" y="113.82" width="187.05" height="34.71"/></g><g><path class="cls-6" d="M474.65,95.78v1.62h-12.76v-1.62h3.01v-2.69h-2.52v-1.61h2.52v-2.59h1.74v2.59h3.22v-2.59h1.74v2.59h2.62v1.61h-2.62v2.69h3.05Zm-7.37,2.84c-1.05,1.2-2.59,2.47-3.94,3.26-.36-.36-.98-.9-1.37-1.16,1.32-.7,2.8-1.85,3.54-2.79l1.76,.69Zm-.64-2.84h3.22v-2.69h-3.22v2.69Zm4.1,2.12c1.19,.85,2.93,2.16,3.81,3.01l-1.65,.98c-.77-.85-2.44-2.21-3.68-3.17l1.53-.83Z"/><path class="cls-6" d="M492.38,99.96c0,.87-.18,1.33-.71,1.61s-1.32,.32-2.48,.32c-.07-.46-.32-1.22-.57-1.65,.74,.04,1.55,.04,1.79,.03,.24-.01,.34-.1,.34-.32v-8.91h-8.61v10.84h-1.62v-12.42h11.88v10.51Zm-2.46-6.54h-6.99v-1.4h6.99v1.4Zm-4.79,5.76v.92h-1.54v-5.6h5.7v4.68h-4.16Zm0-3.31v1.93h2.62v-1.93h-2.62Z"/><path class="cls-6" d="M501.63,96.71v3.36c0,.83-.15,1.23-.6,1.49-.48,.25-1.15,.29-2.13,.29-.06-.42-.27-1.09-.46-1.53,.53,.03,1.12,.03,1.3,.03,.18-.01,.25-.07,.25-.27v-2.86c-.53,.17-1.05,.32-1.53,.46l-.45-1.74c.55-.1,1.22-.25,1.97-.43v-2.59h-1.76v-1.54h1.76v-2.58h1.64v2.58h1.39v1.54h-1.39v2.18l1.16-.28,.17,1.44-1.33,.43Zm8.81-1.57c-.48,1.7-1.25,3.03-2.28,4.05,.92,.53,2.02,.92,3.25,1.16-.38,.36-.84,1.06-1.09,1.51-1.37-.32-2.55-.85-3.53-1.55-1.09,.71-2.35,1.23-3.75,1.58-.17-.45-.55-1.15-.85-1.53,1.22-.24,2.34-.63,3.29-1.21-.67-.71-1.22-1.57-1.68-2.54l1.18-.36h-1.53v-1.5h.28c-.2-.34-.78-.97-1.09-1.21,1.39-.8,1.55-1.89,1.55-2.81v-1.43h4.96v3.04c0,.38,.04,.42,.21,.42h.39c.21,0,.25-.2,.28-1.42,.31,.24,.94,.49,1.36,.59-.14,1.72-.49,2.2-1.46,2.2h-.88c-1.15,0-1.5-.41-1.5-1.78v-1.51h-1.79c-.01,1.32-.41,2.9-1.99,3.91h5.28l.31-.06,1.09,.43Zm-5.11,1.12c.36,.73,.85,1.37,1.46,1.93,.6-.55,1.09-1.19,1.46-1.93h-2.91Z"/><path class="cls-6" d="M525.42,99.52c1.43,.5,3.04,1.18,3.99,1.64l-1.93,.74c-.8-.46-2.23-1.12-3.64-1.65l1.26-.73h-4.09l1.27,.56c-1.16,.76-2.96,1.44-4.37,1.83-.29-.32-.88-.92-1.23-1.22,1.36-.25,2.89-.7,3.85-1.18h-2.06v-5.69h2.93c-.17-.34-.43-.74-.66-.97v.06c-1.19,.35-2.49,.73-3.54,1.02l-.62-1.46c1.04-.2,2.54-.55,4.02-.9l.14,1.26c2.23-.36,2.97-.97,3.28-1.96h-1.01c-.32,.39-.69,.77-1.12,1.12-.29-.29-.87-.63-1.25-.78,1.01-.7,1.7-1.62,2.06-2.44l1.47,.24c-.11,.24-.22,.46-.36,.69h4.13l.25-.04,1.11,.28c-.36,.76-.87,1.6-1.33,2.12l-1.29-.41c.17-.21,.36-.48,.55-.77h-1.56c.29,.9,1.09,1.67,3.92,2-.31,.31-.67,.95-.83,1.36-.34-.06-.64-.11-.92-.18v5.45h-2.42Zm-5.29-8.25c-.64-.35-1.96-.85-2.93-1.13l.73-1.13c.92,.22,2.26,.67,2.96,1.01l-.76,1.26Zm-.04,4.16h6.07v-.6h-6.07v.6Zm0,1.54h6.07v-.6h-6.07v.6Zm0,1.55h6.07v-.62h-6.07v.62Zm6.98-4.69c-1.08-.39-1.72-.91-2.14-1.51-.49,.66-1.27,1.15-2.56,1.51h4.71Z"/></g></g><g><rect class="cls-8" x="38.06" y="44.35" width="145.81" height="63.78"/><rect class="cls-9" x="38.06" y="119.51" width="145.81" height="29.02"/><g><circle class="cls-4" cx="110.97" cy="134.02" r="8.65"/><polygon class="cls-8" points="114.3 129.84 113.1 129.84 110.97 133.53 108.84 129.84 107.64 129.84 110.23 134.33 108.71 134.33 108.71 135.18 110.45 135.18 110.45 136.08 108.71 136.08 108.71 136.94 110.45 136.94 110.45 138.19 111.49 138.19 111.49 136.94 113.23 136.94 113.23 136.08 111.49 136.08 111.49 135.18 113.23 135.18 113.23 134.33 111.72 134.33 114.3 129.84"/></g><g><g><circle class="cls-5" cx="82.86" cy="64.24" r="8.65"/><polygon class="cls-6" points="86.19 60.07 84.99 60.07 82.86 63.76 80.73 60.07 79.53 60.07 82.12 64.55 80.6 64.55 80.6 65.4 82.34 65.4 82.34 66.31 80.6 66.31 80.6 67.16 82.34 67.16 82.34 68.41 83.38 68.41 83.38 67.16 85.12 67.16 85.12 66.31 83.38 66.31 83.38 65.4 85.12 65.4 85.12 64.55 83.61 64.55 86.19 60.07"/></g><g><circle class="cls-5" cx="110.97" cy="64.24" r="8.65"/><polygon class="cls-6" points="114.3 60.07 113.1 60.07 110.97 63.76 108.84 60.07 107.64 60.07 110.23 64.55 108.71 64.55 108.71 65.4 110.45 65.4 110.45 66.31 108.71 66.31 108.71 67.16 110.45 67.16 110.45 68.41 111.49 68.41 111.49 67.16 113.23 67.16 113.23 66.31 111.49 66.31 111.49 65.4 113.23 65.4 113.23 64.55 111.72 64.55 114.3 60.07"/></g><g><circle class="cls-5" cx="139.08" cy="64.24" r="8.65"/><polygon class="cls-6" points="142.41 60.07 141.21 60.07 139.09 63.76 136.95 60.07 135.75 60.07 138.34 64.55 136.83 64.55 136.83 65.4 138.56 65.4 138.56 66.31 136.83 66.31 136.83 67.16 138.56 67.16 138.56 68.41 139.61 68.41 139.61 67.16 141.35 67.16 141.35 66.31 139.61 66.31 139.61 65.4 141.35 65.4 141.35 64.55 139.83 64.55 142.41 60.07"/></g><g><circle class="cls-5" cx="82.86" cy="88.24" r="8.65"/><polygon class="cls-6" points="86.19 84.07 84.99 84.07 82.86 87.76 80.73 84.07 79.53 84.07 82.12 88.55 80.6 88.55 80.6 89.4 82.34 89.4 82.34 90.31 80.6 90.31 80.6 91.16 82.34 91.16 82.34 92.41 83.38 92.41 83.38 91.16 85.12 91.16 85.12 90.31 83.38 90.31 83.38 89.4 85.12 89.4 85.12 88.55 83.61 88.55 86.19 84.07"/></g><g><circle class="cls-5" cx="110.97" cy="88.24" r="8.65"/><polygon class="cls-6" points="114.3 84.07 113.1 84.07 110.97 87.76 108.84 84.07 107.64 84.07 110.23 88.55 108.71 88.55 108.71 89.4 110.45 89.4 110.45 90.31 108.71 90.31 108.71 91.16 110.45 91.16 110.45 92.41 111.49 92.41 111.49 91.16 113.23 91.16 113.23 90.31 111.49 90.31 111.49 89.4 113.23 89.4 113.23 88.55 111.72 88.55 114.3 84.07"/></g><g><circle class="cls-5" cx="139.08" cy="88.24" r="8.65"/><polygon class="cls-6" points="142.41 84.07 141.21 84.07 139.09 87.76 136.95 84.07 135.75 84.07 138.34 88.55 136.83 88.55 136.83 89.4 138.56 89.4 138.56 90.31 136.83 90.31 136.83 91.16 138.56 91.16 138.56 92.41 139.61 92.41 139.61 91.16 141.35 91.16 141.35 90.31 139.61 90.31 139.61 89.4 141.35 89.4 141.35 88.55 139.83 88.55 142.41 84.07"/></g></g><g><path d="M86.77,160.36c-.23,.37-.46,.76-.73,1.13v7.16h-1.11v-5.78c-1.06,1.18-2.33,2.22-3.75,2.97-.17-.28-.48-.69-.7-.91,2.09-1.02,3.89-2.78,4.95-4.58h-4.64v-1.05h9.42v1.05h-3.43Zm.09,1.67c1.23,.83,2.9,2.07,3.71,2.92l-.86,.79c-.74-.85-2.37-2.16-3.62-3.05l.77-.66Z"/><path d="M102.27,161.08s-.01,.35-.01,.47c-.12,4.54-.22,6.11-.57,6.58-.21,.33-.44,.42-.78,.47-.33,.04-.84,.04-1.35,.01-.02-.28-.13-.69-.29-.97,.51,.04,.96,.04,1.16,.04,.19,0,.29-.03,.4-.18,.24-.31,.35-1.71,.44-5.49h-1.3c-.14,2.93-.64,5.26-2.53,6.71-.15-.23-.5-.59-.74-.76,.07-.04,.13-.1,.2-.15-1.58,.19-3.17,.35-4.35,.46l-.13-.87c.64-.04,1.43-.11,2.3-.19v-.84h-2v-.75h2v-.56h-1.97v-3.31h1.97v-.57h-2.27v-.76h2.27v-.62c-.67,.05-1.34,.09-1.96,.11-.03-.21-.14-.54-.24-.74,1.63-.09,3.58-.29,4.72-.54l.48,.77c-.58,.12-1.31,.23-2.07,.31v.71h2.22v.64h1.16c.01-.75,.01-1.53,.01-2.35h.98c0,.81-.01,1.61-.02,2.35h2.28Zm-8.69,2.04h1.13v-.67h-1.13v.67Zm1.13,1.3v-.67h-1.13v.67h1.13Zm.94,2.73c.68-.07,1.39-.13,2.08-.21,.9-1.24,1.18-2.9,1.27-4.91h-1.17v-.83h-2.18v.57h2.05v3.31h-2.05v.56h2.07v.75h-2.07v.75Zm1.18-4.03v-.67h-1.18v.67h1.18Zm-1.18,.63v.67h1.18v-.67h-1.18Z"/><path d="M114.21,161.73v.89h-8.08v.85c0,1.47-.19,3.71-1.18,5.18-.17-.18-.58-.54-.78-.65,.88-1.35,.98-3.23,.98-4.53v-1.74h2.06c-.09-.38-.29-.88-.5-1.28l.4-.1h-2.09v-.89h3.78v-.9h1.02v.9h3.83v.89h-1.56l.14,.03c-.28,.47-.55,.97-.78,1.34h2.75Zm-3.5,5.85h3.44v.87h-7.75v-.87h3.3v-1.21h-2.4v-.79h2.4v-1.01h-1.88c-.23,.37-.49,.7-.75,.97-.19-.14-.58-.39-.81-.5,.6-.54,1.11-1.38,1.4-2.21l.91,.21c-.09,.24-.19,.48-.3,.71h1.43v-.9h1v.9h2.82v.81h-2.82v1.01h2.52v.79h-2.52v1.21Zm-2.99-7.23c.23,.41,.44,.91,.51,1.26l-.4,.11h2.96l-.28-.09c.17-.36,.37-.87,.51-1.29h-3.3Z"/><path d="M118.78,162.06c-.6,.43-1.25,.82-1.91,1.14-.11-.23-.38-.62-.61-.84,1.88-.86,3.67-2.44,4.5-3.78h1.06c1.17,1.62,2.99,2.96,4.71,3.63-.24,.25-.47,.62-.65,.92-.64-.31-1.31-.69-1.95-1.14v.86h-5.15v-.79Zm-1.89,1.94h9.03v.96h-5.04c-.36,.74-.77,1.56-1.17,2.27,1.22-.04,2.58-.1,3.93-.15-.41-.46-.85-.92-1.28-1.31l.88-.47c1,.85,2.05,2.01,2.55,2.83l-.94,.58c-.12-.21-.29-.45-.48-.72-2.62,.13-5.41,.25-7.28,.33l-.13-1,1.63-.05c.36-.68,.76-1.56,1.02-2.3h-2.73v-.96Zm6.92-2.09c-.99-.7-1.89-1.53-2.48-2.33-.53,.77-1.36,1.59-2.34,2.33h4.82Z"/><path d="M132.34,165.59c-.25-.32-.75-.85-1.2-1.3v4.38h-1.01v-4.06c-.5,.48-1.02,.9-1.54,1.23-.1-.26-.35-.75-.51-.95,1.25-.71,2.52-1.99,3.27-3.37h-2.88v-.94h1.66v-2.02h1.01v2.02h.76l.18-.03,.57,.38c-.33,.84-.81,1.64-1.36,2.37,.52,.42,1.43,1.21,1.68,1.44l-.63,.84Zm6.14,1.76v1.01h-6.16v-1.01h2.66v-4.31h-2.22v-.99h2.22v-3.39h1.04v3.39h2.22v.99h-2.22v4.31h2.45Z"/></g><g><path d="M21.12,65.76c-.24,.73-.53,1.46-.86,2.17v7.61h-.97v-5.83c-.29,.45-.57,.86-.88,1.21-.09-.25-.35-.83-.51-1.08,.91-1.07,1.76-2.7,2.27-4.35l.95,.26Zm6.18,7.15c-.37,.55-.92,1.02-1.64,1.42,.8,.21,1.72,.35,2.68,.42-.19,.2-.44,.58-.56,.84-1.21-.12-2.32-.37-3.27-.75-.92,.33-2.01,.57-3.27,.74-.1-.22-.33-.55-.51-.74,1.04-.12,1.97-.29,2.75-.51-.35-.22-.68-.46-.97-.74-.35,.19-.75,.37-1.18,.54-.12-.21-.38-.5-.58-.63,1.16-.37,2.04-.88,2.59-1.4-.28-.11-.36-.32-.36-.73v-.64h.84v.64c0,.22,.07,.24,.4,.24h1.18c.24,0,.3-.06,.33-.44,.15,.09,.46,.19,.67,.22-.07,.64-.27,.79-.88,.79h-1.11c-.13,.14-.29,.29-.44,.42h2.53l.18-.04,.63,.34Zm-5.48-1.54c.2-.2,.37-.41,.51-.6l.66,.36c-.29,.43-.69,.92-1.18,1.23l-.63-.51c.22-.11,.43-.27,.62-.46h-.87v-1.5h1.05v-2.74h1.87c.03-.15,.08-.32,.1-.48h-2.67v-.76h6.73v.76h-2.98c-.07,.17-.13,.33-.2,.48h2.41v2.74h.99v1.5h-.74c.2,.21,.37,.42,.48,.59l-.67,.37c-.22-.37-.73-.91-1.18-1.29l.63-.35c.18,.14,.37,.32,.55,.48v-.7h-2.39c.23,.18,.44,.36,.57,.53l-.62,.4c-.22-.29-.66-.66-1.06-.9l.03-.02h-2.02v.87Zm1.08-3.66v.41h3.38v-.41h-3.38Zm3.38,.87h-3.38v.42h3.38v-.42Zm-3.38,1.32h3.38v-.42h-3.38v.42Zm.41,3.32c.34,.3,.77,.54,1.28,.75,.53-.22,.97-.47,1.3-.75h-2.57Z"/><path d="M26.73,86.3c.36,0,.43-.22,.47-1.58,.22,.18,.66,.34,.92,.42-.1,1.68-.37,2.13-1.31,2.13h-1.43c-1.09,0-1.35-.33-1.35-1.36v-2.97h-1.85c-.24,2.04-.84,3.65-3.33,4.57-.12-.28-.41-.68-.64-.9,2.25-.69,2.71-2.02,2.89-3.66h-2.73v-.99h4.29v-2.02h-2.1c-.26,.59-.56,1.16-.9,1.61-.24-.17-.65-.39-.9-.48,.74-.9,1.28-2.38,1.52-3.49l1.04,.2c-.11,.37-.23,.78-.37,1.19h1.72v-1.61h1.03v1.61h3.49v.98h-3.49v2.02h4.3v.99h-2.94v2.97c0,.34,.07,.4,.44,.4h1.22Z"/></g><g><path d="M27.58,129.14s-.01,.29-.03,.43c-.18,2.06-.36,2.95-.71,3.29-.24,.26-.51,.33-.9,.36-.34,.02-.99,.02-1.66-.01-.01-.3-.15-.7-.33-.99,.64,.07,1.29,.08,1.55,.08,.22,0,.34-.02,.46-.12,.21-.18,.35-.79,.48-2.12h-2.71c-.5,1.65-1.66,2.73-4.64,3.3-.09-.25-.33-.67-.52-.88,2.56-.44,3.63-1.21,4.1-2.42h-2.93v-.91h3.18c.06-.34,.1-.69,.13-1.09-1.29,.56-2.76,.94-4.28,1.2-.1-.25-.37-.71-.56-.94,3.03-.4,5.76-1.28,7.02-3.03l1.01,.38c-.69,.93-1.65,1.65-2.78,2.2h.62c-.03,.45-.08,.88-.14,1.28h3.64Zm-6.01-5.03c-.56,1.05-1.47,2.04-2.33,2.64-.2-.17-.64-.47-.89-.62,.88-.54,1.74-1.41,2.2-2.31l1.02,.29Zm2.09,1.78c0,.48-.1,.74-.47,.87-.36,.14-.91,.14-1.72,.14-.04-.25-.19-.64-.32-.88,.55,.02,1.14,.02,1.29,.01,.17,0,.22-.04,.22-.18v-2.63h1v2.66Zm3.63,.81c-.44-.7-1.45-1.74-2.32-2.46l.83-.51c.87,.68,1.91,1.66,2.4,2.38l-.9,.59Z"/><path d="M21.43,137.71c-.25,.46-.56,.92-.89,1.38v6.15h-.96v-5c-.35,.38-.72,.74-1.08,1.02-.1-.21-.4-.71-.56-.93,.97-.71,1.97-1.82,2.59-2.93l.9,.32Zm-.22-2.24c-.66,.95-1.67,1.98-2.61,2.63-.12-.2-.38-.56-.55-.74,.83-.57,1.77-1.49,2.23-2.24l.92,.35Zm6.05,5.55c-.4,.97-1.01,1.74-1.78,2.37,.84,.45,1.83,.78,2.89,.97-.21,.21-.48,.62-.62,.88-1.17-.25-2.21-.68-3.1-1.26-.97,.59-2.09,1.01-3.27,1.28-.1-.25-.31-.67-.5-.87,1.06-.19,2.08-.53,2.96-1.01-.42-.35-.78-.76-1.1-1.2-.37,.33-.77,.61-1.17,.85-.13-.2-.46-.59-.68-.76,1-.52,1.97-1.31,2.61-2.22-.88,.02-1.69,.04-2.38,.07l-.09-.92c.48,0,1.06-.01,1.69-.02,.2-.17,.42-.35,.63-.54-.51-.53-1.32-1.18-2.02-1.64l.62-.66c.2,.13,.42,.26,.64,.42,.46-.5,.97-1.14,1.29-1.64l.89,.46c-.48,.57-1.03,1.2-1.52,1.67,.32,.24,.61,.48,.84,.71,.7-.68,1.38-1.4,1.87-2.02l.91,.51c-.84,.88-1.88,1.89-2.86,2.71,.8-.01,1.65-.02,2.51-.04-.23-.31-.47-.59-.7-.86l.8-.43c.66,.71,1.43,1.71,1.74,2.38l-.85,.5c-.1-.22-.25-.48-.43-.77-.81,.03-1.65,.07-2.44,.09-.17,.26-.34,.53-.54,.78h2.35l.18-.03,.63,.29Zm-3.86,.56c.32,.47,.75,.9,1.24,1.28,.52-.37,.95-.81,1.26-1.31h-2.49l-.02,.03Z"/></g><g><path d="M90.28,31.53v1.12h-10.01v-1.12h10.01Z"/><path d="M96.58,32.47v3.8c0,.43-.09,.68-.36,.83-.27,.13-.67,.15-1.29,.15-.03-.22-.15-.6-.27-.81,.41,.01,.79,.01,.9,0,.13,0,.18-.04,.18-.17v-3.7l-1.79,.2c-.01,1.41-.13,3.28-.9,4.47-.14-.14-.5-.36-.7-.46,.68-1.1,.78-2.64,.79-3.92l-.68,.08-.1-.84,.78-.08v-3.38h.97c.14-.47,.3-1.07,.36-1.51l1.1,.21c-.18,.44-.36,.91-.52,1.3h1.54v3.03l.48-.04v.79s-.48,.06-.48,.06Zm-.85-.71v-2.3h-1.79v2.49l1.79-.19Zm-.89-1.95c.28,.43,.52,1.02,.59,1.41l-.67,.29c-.07-.4-.29-1-.55-1.44l.63-.25Zm.25,5.69h-.62v-2.53h.62v2.53Zm6.93-3.47c-.32,1.35-.9,2.43-1.66,3.28,.63,.5,1.4,.87,2.29,1.09-.2,.19-.48,.58-.62,.84-.92-.28-1.71-.7-2.37-1.28-.69,.57-1.49,.99-2.35,1.3-.12-.25-.36-.66-.56-.86,.81-.24,1.57-.63,2.22-1.14-.54-.66-.97-1.44-1.29-2.33l.73-.17h-1.1v-.91h3.91l.18-.04,.63,.23Zm-3.29-3.03c0,.88-.18,1.97-1.07,2.68-.15-.17-.53-.48-.74-.59,.79-.61,.89-1.43,.89-2.11v-1.42h3.29v2.48c0,.19,0,.31,.04,.34,.03,.03,.09,.04,.15,.04h.24c.08,0,.15-.01,.19-.03,.04-.03,.09-.1,.11-.24,.02-.14,.03-.47,.04-.89,.17,.15,.5,.32,.74,.4-.02,.42-.07,.89-.12,1.07-.07,.19-.19,.32-.35,.4-.13,.07-.35,.1-.53,.1h-.56c-.22,0-.49-.06-.65-.22-.17-.15-.23-.35-.23-.98v-1.56h-1.45v.55Zm-.21,3.75c.25,.7,.64,1.33,1.12,1.88,.48-.53,.87-1.17,1.14-1.88h-2.27Z"/><path d="M108.25,32.78c-.37,.13-.76,.26-1.13,.39v2.93c0,.53-.11,.8-.44,.97-.31,.14-.78,.18-1.54,.17-.03-.25-.15-.67-.29-.94,.46,.02,.91,.02,1.06,.01,.14,0,.2-.04,.2-.21v-2.58c-.47,.15-.94,.31-1.34,.43l-.3-1.06c.44-.1,1.01-.25,1.64-.43v-2.27h-1.5v-.95h1.5v-2.09h1.01v2.09h1.16v.95h-1.16v1.99l1.02-.29,.11,.89Zm5.75-.72c-.4,1.33-1.06,2.37-1.92,3.18,.76,.5,1.66,.86,2.71,1.07-.22,.23-.53,.65-.67,.92-1.12-.28-2.08-.71-2.88-1.31-.88,.61-1.9,1.05-3.01,1.33-.11-.27-.35-.7-.54-.94,1.01-.21,1.96-.57,2.77-1.09-.61-.63-1.1-1.38-1.47-2.24l.72-.22h-1.03v-.94h4.48l.19-.04,.67,.27Zm-3.75-3.38c0,1-.29,2.23-1.52,3.03-.12-.21-.5-.59-.68-.74,1.08-.67,1.24-1.56,1.24-2.31v-1.1h3.72v2.52c0,.26,.02,.3,.19,.3h.47c.19,0,.23-.15,.25-1.21,.2,.17,.58,.31,.85,.37-.08,1.33-.32,1.68-.99,1.68h-.75c-.79,0-1.01-.24-1.01-1.13v-1.58h-1.77v.18Zm-.31,4.08c.32,.7,.77,1.32,1.33,1.85,.58-.51,1.06-1.12,1.39-1.85h-2.72Z"/><path d="M119.93,30.18c-.96,.32-1.98,.62-2.79,.87l-.41-.9c.8-.17,1.97-.47,3.1-.77l.1,.8Zm1.01,5.73c-.89,.54-2.27,1.07-3.37,1.36-.18-.2-.54-.58-.77-.76,1.13-.22,2.44-.61,3.2-1.03l.94,.43Zm-1.4-6.96c-.52-.28-1.53-.67-2.3-.9l.45-.69c.75,.19,1.77,.55,2.3,.81l-.45,.78Zm2.08-.3c-.26,.33-.57,.64-.93,.91-.19-.18-.53-.4-.77-.5,.81-.55,1.35-1.29,1.63-1.93l.92,.14c-.1,.21-.21,.42-.34,.63h3.53l.15-.03,.68,.18c-.29,.57-.69,1.21-1.07,1.6l-.8-.25c.19-.2,.37-.47,.55-.75h-1.52c.24,.79,.86,1.5,3.09,1.79-.19,.2-.43,.58-.52,.84-.31-.05-.59-.12-.85-.19v4.37h-7.17v-4.42h2.21c-.1-.22-.3-.52-.45-.67,1.77-.29,2.4-.81,2.65-1.72h-1Zm2.74,3.04h-5.16v.62h5.16v-.62Zm0,1.23h-5.16v.63h5.16v-.63Zm0,1.25h-5.16v.64h5.16v-.64Zm.85-3.14c-1.1-.34-1.67-.86-2.01-1.44-.42,.67-1.14,1.13-2.45,1.44h4.47Zm-1.86,4.47c1.18,.4,2.5,.9,3.29,1.28l-1.18,.48c-.65-.35-1.8-.85-2.95-1.24l.84-.52Z"/><path d="M138.1,31.74c-.64,.51-1.45,1.05-2.15,1.43,.65,1.07,1.53,1.9,2.65,2.37-.24,.21-.56,.6-.71,.89-2.02-.98-3.21-3.04-3.87-5.61h-.02c-.3,.25-.65,.5-1.01,.7,2.08,1.82,2.04,4.58,.97,5.35-.39,.31-.7,.41-1.23,.41-.28,0-.61-.01-.95-.03-.02-.28-.11-.68-.29-.98,.4,.04,.76,.06,1.02,.06,.29,0,.52-.02,.73-.22,.33-.24,.5-.9,.36-1.68-1.2,.93-2.93,1.85-4.38,2.33-.13-.24-.34-.63-.54-.85,1.62-.42,3.55-1.39,4.64-2.37-.09-.19-.19-.37-.3-.56-.93,.65-2.34,1.35-3.44,1.75-.11-.24-.33-.58-.52-.79,1.13-.3,2.65-.96,3.49-1.57-.12-.13-.25-.26-.41-.38-.85,.41-1.78,.74-2.65,.98-.1-.19-.37-.62-.54-.79,1.25-.29,2.61-.75,3.61-1.34h-2.02v-.88h6.02v.88h-1.62c.15,.55,.35,1.09,.58,1.58,.63-.41,1.32-.92,1.77-1.34l.8,.68Zm-8.05-1.38h-1.01v-2.29h4v-.92h1.06v.92h4.07v2.29h-1.03v-1.35h-7.08v1.35Z"/></g></g></g><polygon class="cls-8" points="366.94 9 366.94 10 608.21 10 608.21 187 1 187 1 10 236.89 10 236.89 9 0 9 0 188 609.21 188 609.21 9 366.94 9"/><rect id="_スライス_" class="cls-1" width="900" height="188"/></g></svg>