<?xml version="1.0" encoding="UTF-8"?><svg id="_レイヤー_2" xmlns="http://www.w3.org/2000/svg" xmlns:xlink="http://www.w3.org/1999/xlink" viewBox="0 0 300 220"><defs><style>.cls-1{fill:none;}.cls-2{clip-path:url(#clippath);}.cls-3{fill:#fff;}.cls-4{fill:#323230;}.cls-5{fill:#cececa;}.cls-6{fill:#aaaaa3;}.cls-7{fill:#ababa4;}</style><clipPath id="clippath"><rect class="cls-1" x="56.74" y="35.94" width="35.2" height="141.65"/></clipPath></defs><g id="design"><rect class="cls-5" x="51.13" y="149.7" width="248.68" height=".75"/><rect class="cls-5" x="51.13" y="128.55" width="248.68" height=".75"/><rect class="cls-5" x="51.13" y="107.41" width="248.68" height=".75"/><rect class="cls-5" x="51.13" y="86.26" width="248.68" height=".75"/><rect class="cls-5" x="51.13" y="43.96" width="247.78" height=".75"/><rect class="cls-5" x="51.13" y="65.11" width="248.68" height=".75"/><g><g><path d="M38.16,9.19c-.64,.59-1.62,1.19-2.43,1.56-.16-.16-.49-.48-.7-.61,.83-.32,1.75-.79,2.28-1.28l.85,.33Zm5.08-.16c-.14-.15-.33-.31-.55-.49-.91,.03-1.84,.06-2.74,.08v2.19h-.92v-2.17c-1.44,.04-2.76,.06-3.78,.08l-.03-.77c.56,0,1.23,0,1.96,0,.2-.1,.41-.21,.63-.32-.51-.39-1.25-.84-1.87-1.15l.66-.5c.21,.1,.43,.22,.66,.34,.33-.24,.68-.52,.98-.79h-2.39V1.96h7.36v3.56h-3.78l.04,.02c-.49,.41-1.06,.83-1.56,1.15,.26,.16,.51,.32,.71,.47,.86-.5,1.71-1.06,2.31-1.53l.8,.45c-.89,.62-2.03,1.3-3.07,1.84,.99,0,2.06-.03,3.12-.05-.31-.21-.63-.4-.93-.57l.68-.44c.84,.45,1.9,1.16,2.43,1.68l-.72,.49Zm-6.51-5.64h2.3v-.7h-2.3v.7Zm0,1.41h2.3v-.73h-2.3v.73Zm5.57-2.11h-2.37v.7h2.37v-.7Zm0,1.38h-2.37v.73h2.37v-.73Zm-.87,4.74c.79,.38,1.85,.97,2.41,1.39l-.71,.54c-.51-.42-1.55-1.04-2.38-1.45l.68-.48Z"/><path d="M49.67,4.03h-3.99v-.74h3.99v.74Zm-.41,6.24h-2.31v.42h-.82v-3.36h3.13v2.94Zm-3.11-5.62h3.14v.72h-3.14v-.72Zm0,1.33h3.14v.73h-3.14v-.73Zm3.15-3.28h-3.09v-.73h3.09v.73Zm-2.35,5.38v1.44h1.48v-1.44h-1.48Zm8.02-2.16h-2.16v4.89h-.94V5.92h-2.23v-.92h2.23V1.67h.94v3.33h2.16v.92Z"/><path d="M58.14,5.4c0,1.56-.15,3.88-1.02,5.41-.17-.15-.58-.43-.79-.53,.81-1.42,.88-3.45,.88-4.88V2.86h3.6V1.64h.97v1.22h3.71v.9h-7.35v1.64Zm-.08,4.14c.47-.77,.71-1.95,.81-3.02l.85,.19c-.12,1.09-.35,2.41-.83,3.2l-.83-.37Zm4.61,.25c.36,0,.41-.25,.46-1.66,.19,.15,.58,.31,.82,.38-.09,1.66-.33,2.12-1.21,2.12h-1.3c-.94,0-1.18-.3-1.18-1.25v-3.67h.91v3.67c0,.35,.07,.41,.41,.41h1.09Zm.01-3.69c-.48-.45-1.5-1.12-2.31-1.54l.63-.61c.79,.38,1.82,1,2.35,1.46l-.67,.69Zm1.61,.18c.64,1.02,1.25,2.35,1.41,3.25l-.91,.38c-.14-.88-.7-2.25-1.32-3.3l.82-.33Z"/><path d="M74.5,7.54c.6,.45,1.44,.82,2.24,1.03-.2,.16-.46,.51-.6,.73-.45-.14-.91-.35-1.33-.61-.1,1.11-.22,1.6-.43,1.82-.19,.17-.38,.23-.67,.25-.23,.02-.69,.02-1.18,0-.02-.23-.11-.54-.23-.75,.43,.04,.86,.05,1.03,.05,.16,0,.24-.02,.32-.08,.1-.1,.18-.37,.24-.95h-1.99c-.43,.89-1.26,1.48-3.01,1.84-.08-.22-.3-.55-.46-.72,1.35-.23,2.06-.59,2.46-1.12h-1.81v-.35c-.35,.19-.75,.36-1.18,.52-.1-.21-.36-.52-.53-.66,.84-.27,1.53-.61,2.05-1h-1.8v-.73h2.59c.13-.16,.23-.31,.32-.48h-1.78V3.57h6.62v2.76h-3.85c-.09,.17-.17,.32-.28,.48h5.21v.73h-1.95Zm-4.59-4.55h-2.16v-.74h2.16v-.61h.9v.61h2.4v-.61h.92v.61h2.18v.74h-2.18v.44h-.92v-.44h-2.4v.44h-.9v-.44Zm-.27,1.69h4.8v-.53h-4.8v.53Zm0,1.08h4.8v-.54h-4.8v.54Zm4.65,2.58c-.34-.24-.63-.52-.88-.8h-2.78c-.28,.28-.6,.56-.97,.8h1.55c.06-.2,.11-.41,.14-.63h.9c-.03,.22-.07,.43-.12,.63h2.16Z"/><path d="M83.03,9.71h3.78v.81h-8.42v-.81h3.67v-2.27h-3.19v-.8h3.19v-1.19h-1.96v-.52c-.5,.36-1.02,.69-1.56,.98-.11-.21-.38-.56-.58-.75,1.7-.84,3.33-2.31,4.08-3.54h.95c1.06,1.46,2.73,2.75,4.28,3.42-.22,.24-.44,.56-.6,.83-.53-.27-1.07-.61-1.6-.99v.57h-2.03v1.19h3.26v.8h-3.26v2.27Zm-2.68-2.12c.39,.53,.79,1.24,.93,1.72l-.81,.36c-.12-.48-.5-1.23-.88-1.78l.76-.3Zm4.37-2.96c-.87-.66-1.65-1.4-2.17-2.1-.48,.68-1.21,1.42-2.07,2.1h4.24Zm-1.03,4.73c.34-.47,.77-1.23,1.01-1.78l.89,.33c-.39,.63-.84,1.31-1.21,1.76l-.69-.31Z"/><path d="M92.77,10.15c.69-.26,1.45-.73,1.82-1.13l.77,.47c-.52,.51-1.36,1.03-2.08,1.31-.15-.17-.42-.44-.61-.61h-2.17v.45h-.79v-2.67c-.12,.05-.24,.11-.36,.16-.1-.2-.32-.5-.48-.67,.71-.26,1.41-.68,1.99-1.21-.28-.21-.56-.41-.82-.59-.18,.17-.36,.33-.55,.47-.12-.15-.43-.42-.6-.55,.77-.5,1.45-1.29,1.82-2.16l.77,.2c-.08,.18-.17,.36-.27,.53h1.13l.14-.04,.53,.24c-.23,.67-.57,1.27-.98,1.78,.56,.41,1.08,.81,1.42,1.12l-.54,.64-.14-.13v2.39Zm-2.85-6.14h-.76v-1.51h1.65v-.84h.87v.84h1.66v1.51h-.79v-.76h-2.63v.76Zm2.6,3.53c-.29-.25-.65-.53-1.03-.82-.31,.31-.66,.58-1.03,.82h2.06Zm-.56,.72h-1.46v1.21h1.46v-1.21Zm-1.17-3.46c-.08,.11-.16,.21-.24,.31,.27,.18,.56,.37,.85,.57,.22-.27,.42-.57,.57-.88h-1.18Zm4.26-1.1c.06-.26,.12-.56,.17-.83h-1.8v-.8h4.62v.8h-1.83c-.09,.28-.19,.57-.28,.83h1.87v5.19h-4.04V3.7h1.29Zm1.87,.71h-2.32v.81h2.32v-.81Zm0,1.47h-2.32v.82h2.32v-.82Zm0,1.48h-2.32v.83h2.32v-.83Zm-.23,1.71c.56,.36,1.29,.9,1.66,1.27l-.72,.49c-.35-.36-1.06-.94-1.62-1.33l.68-.43Z"/><path d="M106.21,6.23c0-2.03,.84-3.63,1.98-4.78l.76,.36c-1.09,1.14-1.84,2.58-1.84,4.42s.75,3.28,1.84,4.42l-.76,.36c-1.14-1.15-1.98-2.75-1.98-4.78Z"/><path d="M115.67,3.07c-.13,.45-.24,.93-.36,1.33h3.29v6.43h-.99v-.63h-4.73v.63h-.94V4.4h2.41c.09-.4,.18-.89,.23-1.33h-3.71v-.91h8.67v.91h-3.87Zm1.94,2.2h-4.73v1.59h4.73v-1.59Zm0,4.07v-1.63h-4.73v1.63h4.73Z"/><path d="M125.16,3.27c-.02,.61-.04,1.23-.1,1.85h4.44s0,.3,0,.43c-.17,3.14-.34,4.34-.73,4.77-.25,.29-.52,.37-.94,.41-.38,.04-1.06,.03-1.74,0-.02-.27-.15-.65-.32-.91,.71,.06,1.42,.06,1.69,.06,.23,0,.35,0,.47-.12,.29-.25,.44-1.3,.57-3.73h-3.55c-.29,1.92-1.01,3.71-2.93,4.81-.13-.25-.43-.56-.67-.75,2.67-1.44,2.78-4.32,2.86-6.81h-2.53v-.91h8.69v.91h-5.2Z"/><path d="M140.87,9.66c0,.54-.12,.82-.49,.98-.36,.15-.94,.17-1.83,.17-.04-.26-.19-.68-.34-.93,.64,.03,1.28,.02,1.47,0,.19,0,.25-.06,.25-.24v-2.78h-6.39v3.95h-.93V2.3h8.26v7.36Zm-7.33-3.71h2.68V3.22h-2.68v2.73Zm6.39,0V3.22h-2.79v2.73h2.79Z"/><path d="M145.7,6.23c0,2.03-.84,3.63-1.98,4.78l-.76-.36c1.09-1.14,1.84-2.58,1.84-4.42s-.75-3.28-1.84-4.42l.76-.36c1.14,1.15,1.98,2.75,1.98,4.78Z"/></g><rect class="cls-6" x="15.72" y=".24" width="11" height="11"/><g><g><path d="M180.83,9.19c-.64,.59-1.62,1.19-2.43,1.56-.16-.16-.49-.48-.7-.61,.83-.32,1.75-.79,2.28-1.28l.85,.33Zm5.08-.16c-.14-.15-.33-.31-.55-.49-.91,.03-1.84,.06-2.74,.08v2.19h-.92v-2.17c-1.44,.04-2.76,.06-3.78,.08l-.03-.77c.56,0,1.23,0,1.96,0,.2-.1,.41-.21,.63-.32-.51-.39-1.25-.84-1.87-1.15l.66-.5c.21,.1,.43,.22,.66,.34,.33-.24,.68-.52,.98-.79h-2.39V1.96h7.36v3.56h-3.78l.04,.02c-.49,.41-1.06,.83-1.56,1.15,.26,.16,.51,.32,.71,.47,.86-.5,1.71-1.06,2.31-1.53l.8,.45c-.89,.62-2.03,1.3-3.07,1.84,.99,0,2.06-.03,3.12-.05-.31-.21-.63-.4-.93-.57l.68-.44c.84,.45,1.9,1.16,2.43,1.68l-.72,.49Zm-6.51-5.64h2.3v-.7h-2.3v.7Zm0,1.41h2.3v-.73h-2.3v.73Zm5.57-2.11h-2.37v.7h2.37v-.7Zm0,1.38h-2.37v.73h2.37v-.73Zm-.87,4.74c.79,.38,1.85,.97,2.41,1.39l-.71,.54c-.51-.42-1.55-1.04-2.38-1.45l.68-.48Z"/><path d="M192.34,4.03h-3.99v-.74h3.99v.74Zm-.41,6.24h-2.31v.42h-.82v-3.36h3.13v2.94Zm-3.11-5.62h3.14v.72h-3.14v-.72Zm0,1.33h3.14v.73h-3.14v-.73Zm3.15-3.28h-3.09v-.73h3.09v.73Zm-2.35,5.38v1.44h1.48v-1.44h-1.48Zm8.02-2.16h-2.16v4.89h-.94V5.92h-2.23v-.92h2.23V1.67h.94v3.33h2.16v.92Z"/><path d="M202.5,4.03h-3.24v-.74h3.24v.74Zm5.66,5.68c0,.49-.1,.78-.4,.93-.29,.15-.79,.17-1.52,.17-.03-.24-.15-.67-.26-.92,.49,.03,.98,.02,1.12,.01,.15,0,.2-.04,.2-.19V2.83h-3.51v2.82c0,1.55-.11,3.78-.91,5.22-.15-.15-.53-.41-.73-.51l.06-.11h-1.82v.44h-.74v-3.36h2.58v2.88c.66-1.33,.72-3.16,.72-4.56V2.03h5.21v7.68Zm-5.92-4.34h-2.57v-.72h2.57v.72Zm-2.57,.61h2.57v.73h-2.57v-.73Zm2.55-3.28h-2.49v-.73h2.49v.73Zm-.74,5.38h-1.09v1.44h1.09v-1.44Zm3.66-2.8v-.83h-.91v-.7h.91v-.77h.74v.77h.95v.7h-.95v.83h1.06v.7h-2.79v-.7h.99Zm-.19,3.94v.37h-.68v-2.96h2.51v2.59h-1.83Zm0-1.91v1.22h1.14v-1.22h-1.14Z"/><path d="M212.36,8.72c.43,.69,1.22,1,2.33,1.05,1.13,.05,3.45,.02,4.72-.07-.11,.21-.25,.64-.3,.91-1.15,.05-3.27,.07-4.43,.03-1.24-.05-2.1-.38-2.71-1.15-.42,.41-.86,.81-1.35,1.24l-.46-.92c.4-.27,.89-.65,1.31-1.02v-2.41h-1.2v-.86h2.09v3.2Zm-.48-4.64c-.28-.5-.95-1.19-1.54-1.67l.71-.52c.58,.45,1.28,1.11,1.58,1.6l-.75,.59Zm2.47,.24h-1.58v-.69h2.75v-.64h-2.09v-.67h2.09v-.68h.91v.68h2.16v.67h-2.16v.64h2.82v.69h-1.62l.37,.09c-.18,.33-.35,.64-.5,.88h1.62v.68h-2.69v.57h2.31v.67h-2.31v.61h2.73v.7h-2.73v.82h-.91v-.82h-2.63v-.7h2.63v-.61h-2.17v-.67h2.17v-.57h-2.56v-.68h1.41c-.07-.26-.22-.61-.38-.89l.36-.08Zm2.32,.89c.13-.26,.28-.62,.38-.89h-2.2c.18,.28,.34,.63,.39,.89l-.35,.08h2.07l-.29-.08Z"/><path d="M226.18,9.71h3.78v.81h-8.42v-.81h3.67v-2.27h-3.19v-.8h3.19v-1.19h-1.96v-.52c-.5,.36-1.02,.69-1.56,.98-.11-.21-.38-.56-.58-.75,1.7-.84,3.33-2.31,4.08-3.54h.95c1.06,1.46,2.73,2.75,4.28,3.42-.22,.24-.44,.56-.6,.83-.53-.27-1.07-.61-1.6-.99v.57h-2.03v1.19h3.26v.8h-3.26v2.27Zm-2.68-2.12c.39,.53,.79,1.24,.93,1.72l-.81,.36c-.12-.48-.5-1.23-.88-1.78l.76-.3Zm4.37-2.96c-.87-.66-1.65-1.4-2.17-2.1-.48,.68-1.21,1.42-2.07,2.1h4.24Zm-1.03,4.73c.34-.47,.77-1.23,1.01-1.78l.89,.33c-.39,.63-.84,1.31-1.21,1.76l-.69-.31Z"/><path d="M235.92,10.15c.69-.26,1.45-.73,1.82-1.13l.77,.47c-.52,.51-1.36,1.03-2.08,1.31-.15-.17-.42-.44-.61-.61h-2.17v.45h-.79v-2.67c-.12,.05-.24,.11-.36,.16-.1-.2-.32-.5-.48-.67,.71-.26,1.41-.68,1.99-1.21-.28-.21-.56-.41-.82-.59-.18,.17-.36,.33-.55,.47-.12-.15-.43-.42-.6-.55,.77-.5,1.45-1.29,1.82-2.16l.77,.2c-.08,.18-.17,.36-.27,.53h1.13l.14-.04,.53,.24c-.23,.67-.57,1.27-.98,1.78,.56,.41,1.08,.81,1.42,1.12l-.54,.64-.14-.13v2.39Zm-2.85-6.14h-.76v-1.51h1.65v-.84h.87v.84h1.66v1.51h-.79v-.76h-2.63v.76Zm2.6,3.53c-.29-.25-.65-.53-1.03-.82-.31,.31-.66,.58-1.03,.82h2.06Zm-.56,.72h-1.46v1.21h1.46v-1.21Zm-1.17-3.46c-.08,.11-.16,.21-.24,.31,.27,.18,.56,.37,.85,.57,.22-.27,.42-.57,.57-.88h-1.18Zm4.26-1.1c.06-.26,.12-.56,.17-.83h-1.8v-.8h4.62v.8h-1.83c-.09,.28-.19,.57-.28,.83h1.87v5.19h-4.04V3.7h1.29Zm1.87,.71h-2.32v.81h2.32v-.81Zm0,1.47h-2.32v.82h2.32v-.82Zm0,1.48h-2.32v.83h2.32v-.83Zm-.23,1.71c.56,.36,1.29,.9,1.66,1.27l-.72,.49c-.35-.36-1.06-.94-1.62-1.33l.68-.43Z"/><path d="M249.36,6.23c0-2.03,.84-3.63,1.98-4.78l.76,.36c-1.09,1.14-1.84,2.58-1.84,4.42s.75,3.28,1.84,4.42l-.76,.36c-1.14-1.15-1.98-2.75-1.98-4.78Z"/><path d="M258.82,3.07c-.13,.45-.24,.93-.36,1.33h3.29v6.43h-.99v-.63h-4.73v.63h-.94V4.4h2.41c.09-.4,.18-.89,.23-1.33h-3.71v-.91h8.66v.91h-3.87Zm1.94,2.2h-4.73v1.59h4.73v-1.59Zm0,4.07v-1.63h-4.73v1.63h4.73Z"/><path d="M268.31,3.27c-.02,.61-.04,1.23-.1,1.85h4.44s0,.3,0,.43c-.17,3.14-.34,4.34-.73,4.77-.25,.29-.52,.37-.94,.41-.38,.04-1.06,.03-1.74,0-.02-.27-.15-.65-.32-.91,.71,.06,1.42,.06,1.69,.06,.23,0,.35,0,.47-.12,.29-.25,.44-1.3,.57-3.73h-3.55c-.29,1.92-1.01,3.71-2.93,4.81-.13-.25-.43-.56-.67-.75,2.67-1.44,2.78-4.32,2.86-6.81h-2.53v-.91h8.69v.91h-5.2Z"/><path d="M284.02,9.66c0,.54-.12,.82-.49,.98-.36,.15-.94,.17-1.83,.17-.04-.26-.19-.68-.34-.93,.64,.03,1.28,.02,1.47,0,.19,0,.25-.06,.25-.24v-2.78h-6.39v3.95h-.93V2.3h8.26v7.36Zm-7.33-3.71h2.68V3.22h-2.68v2.73Zm6.39,0V3.22h-2.79v2.73h2.79Z"/><path d="M288.85,6.23c0,2.03-.84,3.63-1.98,4.78l-.76-.36c1.09-1.14,1.84-2.58,1.84-4.42s-.75-3.28-1.84-4.42l.76-.36c1.14,1.15,1.98,2.75,1.98,4.78Z"/></g><rect class="cls-4" x="158.38" y=".24" width="11" height="11"/></g></g><g><path d="M112.47,180.36h.8s2.88,3.2,2.88,3.2c.24,.27,.47,.45,.68,.54,.21,.09,.44,.14,.66,.14,.28,0,.53-.06,.75-.19,.22-.13,.4-.3,.53-.52,.13-.22,.2-.47,.2-.74s-.07-.54-.21-.77-.32-.4-.54-.53c-.22-.13-.46-.19-.72-.19v-.91c.45,0,.85,.1,1.2,.31,.35,.21,.62,.49,.82,.86s.3,.78,.3,1.24-.1,.85-.31,1.2c-.21,.35-.48,.63-.84,.84s-.75,.31-1.19,.31c-.32,0-.59-.04-.82-.12-.23-.08-.44-.2-.64-.36-.2-.16-.4-.37-.62-.61l-2.39-2.66,.3-.12v3.87h-.85v-4.79Z"/><path d="M112.32,189.58c0-.47,.11-.88,.32-1.25,.21-.37,.5-.65,.86-.87,.37-.21,.78-.32,1.25-.32h2.64c.47,0,.88,.11,1.25,.32,.36,.21,.65,.5,.86,.87s.32,.78,.32,1.25-.11,.88-.32,1.25c-.21,.37-.5,.66-.86,.87-.37,.21-.78,.32-1.25,.32h-2.64c-.47,0-.88-.11-1.25-.32-.36-.21-.65-.5-.86-.87-.21-.37-.32-.78-.32-1.25Zm.86,0c0,.28,.07,.54,.21,.77,.14,.23,.32,.41,.55,.55,.23,.14,.49,.21,.77,.21h2.74c.28,0,.54-.07,.77-.21,.23-.14,.42-.32,.55-.55,.14-.23,.21-.49,.21-.77s-.07-.54-.21-.77-.32-.42-.55-.55c-.23-.14-.49-.21-.77-.21h-2.74c-.28,0-.54,.07-.77,.21-.23,.14-.42,.32-.55,.55s-.21,.49-.21,.77Z"/><path d="M112.47,194.01h.8s2.88,3.2,2.88,3.2c.24,.27,.47,.45,.68,.54s.44,.14,.66,.14c.28,0,.53-.06,.75-.19,.22-.13,.4-.3,.53-.52,.13-.22,.2-.47,.2-.74s-.07-.54-.21-.77-.32-.4-.54-.53-.46-.19-.72-.19v-.91c.45,0,.85,.1,1.2,.31,.35,.21,.62,.49,.82,.86,.2,.36,.3,.77,.3,1.23s-.1,.85-.31,1.2c-.21,.35-.48,.63-.84,.84s-.75,.31-1.19,.31c-.32,0-.59-.04-.82-.12s-.44-.2-.64-.36c-.2-.16-.4-.37-.62-.62l-2.39-2.65,.3-.11v3.87h-.85v-4.79Z"/><path d="M112.47,202.05h6.21l-.82-1.36h1l.81,1.36v.9h-7.2v-.9Z"/><path d="M112.32,208.08c0-.47,.11-.88,.32-1.25,.21-.37,.5-.65,.86-.87,.37-.21,.78-.32,1.25-.32h2.64c.47,0,.88,.11,1.25,.32,.36,.21,.65,.5,.86,.87s.32,.78,.32,1.25-.11,.88-.32,1.25c-.21,.37-.5,.66-.86,.87-.37,.21-.78,.32-1.25,.32h-2.64c-.47,0-.88-.11-1.25-.32-.36-.21-.65-.5-.86-.87-.21-.37-.32-.78-.32-1.25Zm.86,0c0,.28,.07,.54,.21,.77,.14,.23,.32,.41,.55,.55,.23,.14,.49,.21,.77,.21h2.74c.28,0,.54-.07,.77-.21,.23-.14,.42-.32,.55-.55,.14-.23,.21-.49,.21-.77s-.07-.54-.21-.77-.32-.42-.55-.55c-.23-.14-.49-.21-.77-.21h-2.74c-.28,0-.54,.07-.77,.21-.23,.14-.42,.32-.55,.55s-.21,.49-.21,.77Z"/><path d="M112.32,215.17c0-.46,.11-.87,.33-1.24,.22-.37,.52-.67,.9-.88,.38-.22,.81-.33,1.29-.33h2.39c.5,0,.95,.11,1.34,.33,.39,.22,.69,.52,.91,.9,.22,.38,.33,.82,.33,1.31,0,.4-.08,.77-.24,1.11-.16,.34-.39,.63-.7,.86l-.59-.67c.21-.15,.37-.33,.5-.56,.12-.23,.19-.48,.19-.74,0-.32-.08-.6-.23-.84-.15-.25-.35-.44-.6-.58-.25-.14-.51-.21-.8-.21h-1.45l.22-.19c.3,.21,.54,.48,.72,.8,.18,.32,.27,.67,.27,1.05,0,.45-.1,.85-.31,1.2-.21,.36-.49,.64-.85,.84s-.76,.31-1.21,.31-.85-.11-1.22-.34c-.37-.22-.66-.52-.87-.89-.22-.37-.32-.78-.32-1.23Zm.86,0c0,.29,.07,.55,.21,.78,.14,.23,.32,.42,.56,.56,.24,.14,.5,.21,.78,.21s.55-.07,.78-.21c.23-.14,.42-.32,.56-.56,.14-.24,.21-.5,.21-.78s-.07-.55-.21-.78c-.14-.23-.33-.42-.56-.56-.24-.14-.5-.21-.78-.21s-.54,.07-.78,.21c-.24,.14-.42,.32-.56,.56-.14,.24-.21,.5-.21,.78Z"/></g><g><path d="M88.31,180.36h.8s2.88,3.2,2.88,3.2c.24,.27,.47,.45,.68,.54s.44,.14,.66,.14c.28,0,.53-.06,.75-.19s.4-.3,.53-.52,.2-.47,.2-.74-.07-.54-.21-.76c-.14-.22-.32-.4-.54-.53-.22-.13-.46-.19-.72-.19v-.91c.45,0,.85,.1,1.2,.31,.35,.21,.62,.49,.82,.86s.3,.77,.3,1.23-.1,.85-.31,1.2c-.21,.35-.48,.63-.84,.84s-.75,.31-1.19,.31c-.32,0-.59-.04-.82-.12s-.44-.2-.64-.36c-.2-.16-.4-.37-.62-.61l-2.39-2.65,.3-.12v3.87h-.85v-4.79Z"/><path d="M88.16,189.58c0-.47,.11-.88,.32-1.25,.21-.37,.5-.65,.86-.87,.37-.21,.78-.32,1.25-.32h2.64c.47,0,.88,.11,1.25,.32,.36,.21,.65,.5,.86,.87,.21,.36,.32,.78,.32,1.25s-.11,.88-.32,1.25-.5,.66-.86,.87c-.37,.21-.78,.31-1.25,.31h-2.64c-.47,0-.88-.1-1.25-.31-.36-.21-.65-.5-.86-.87-.21-.37-.32-.78-.32-1.25Zm.86,0c0,.28,.07,.54,.21,.77s.32,.41,.55,.55c.23,.14,.49,.21,.77,.21h2.74c.28,0,.54-.07,.77-.21,.23-.14,.42-.32,.55-.55s.21-.49,.21-.77-.07-.54-.21-.77c-.14-.23-.32-.42-.55-.55-.23-.14-.49-.21-.77-.21h-2.74c-.28,0-.54,.07-.77,.21-.23,.14-.42,.32-.55,.55-.14,.23-.21,.49-.21,.77Z"/><path d="M88.31,194.01h.8s2.88,3.2,2.88,3.2c.24,.27,.47,.45,.68,.54,.21,.09,.44,.14,.66,.14,.28,0,.53-.06,.75-.19,.22-.13,.4-.3,.53-.52s.2-.47,.2-.74-.07-.54-.21-.77c-.14-.22-.32-.4-.54-.53-.22-.13-.46-.19-.72-.19v-.91c.45,0,.85,.1,1.2,.31,.35,.21,.62,.49,.82,.86,.2,.36,.3,.77,.3,1.23s-.1,.85-.31,1.2c-.21,.35-.48,.63-.84,.84-.35,.21-.75,.31-1.19,.31-.32,0-.59-.04-.82-.12-.23-.08-.44-.2-.64-.36-.2-.16-.4-.37-.62-.62l-2.39-2.66,.3-.11v3.87h-.85v-4.79Z"/><path d="M88.31,202.05h6.21l-.82-1.35h1l.81,1.35v.9h-7.2v-.9Z"/><path d="M88.16,208.08c0-.47,.11-.88,.32-1.25,.21-.37,.5-.65,.86-.87,.37-.21,.78-.32,1.25-.32h2.64c.47,0,.88,.11,1.25,.32,.36,.21,.65,.5,.86,.87,.21,.36,.32,.78,.32,1.25s-.11,.88-.32,1.25-.5,.66-.86,.87c-.37,.21-.78,.31-1.25,.31h-2.64c-.47,0-.88-.1-1.25-.31-.36-.21-.65-.5-.86-.87-.21-.37-.32-.78-.32-1.25Zm.86,0c0,.28,.07,.54,.21,.77s.32,.41,.55,.55c.23,.14,.49,.21,.77,.21h2.74c.28,0,.54-.07,.77-.21,.23-.14,.42-.32,.55-.55s.21-.49,.21-.77-.07-.54-.21-.77c-.14-.23-.32-.42-.55-.55-.23-.14-.49-.21-.77-.21h-2.74c-.28,0-.54,.07-.77,.21-.23,.14-.42,.32-.55,.55-.14,.23-.21,.49-.21,.77Z"/><path d="M88.17,214.69c0-.36,.07-.69,.2-1s.32-.57,.56-.79c.24-.22,.53-.38,.86-.49l.24,.85c-.33,.11-.59,.29-.76,.55-.17,.26-.26,.54-.25,.86,0,.29,.07,.55,.2,.76,.13,.21,.3,.38,.53,.5,.22,.12,.48,.18,.77,.18,.44,0,.8-.13,1.08-.4s.42-.62,.42-1.05c0-.12-.02-.25-.05-.38-.04-.13-.08-.25-.14-.37l.71-.43,2.42,2.67-.3,.12v-3.58h.85v4.25h-.86l-2.18-2.28h.32c.03,.47-.05,.88-.24,1.24s-.46,.63-.81,.83c-.35,.2-.76,.3-1.21,.3s-.87-.1-1.22-.31c-.35-.21-.63-.49-.83-.84-.2-.35-.3-.75-.3-1.2Z"/></g><g><path d="M136.63,180.36h.8s2.88,3.2,2.88,3.2c.24,.27,.47,.45,.68,.54,.21,.09,.44,.14,.66,.14,.28,0,.53-.06,.75-.19,.22-.13,.4-.3,.53-.52,.13-.22,.2-.47,.2-.74s-.07-.54-.21-.77-.32-.4-.54-.53c-.22-.13-.46-.19-.72-.19v-.91c.45,0,.85,.1,1.2,.31,.35,.21,.62,.49,.82,.86s.3,.78,.3,1.24-.1,.85-.31,1.2c-.21,.35-.48,.63-.84,.84s-.75,.31-1.19,.31c-.32,0-.59-.04-.82-.12-.23-.08-.44-.2-.64-.36-.2-.16-.4-.37-.62-.61l-2.39-2.66,.3-.12v3.87h-.85v-4.79Z"/><path d="M136.48,189.58c0-.47,.11-.88,.32-1.25,.21-.37,.5-.65,.86-.87,.37-.21,.78-.32,1.25-.32h2.64c.47,0,.88,.11,1.25,.32,.36,.21,.65,.5,.86,.87s.32,.78,.32,1.25-.11,.88-.32,1.25c-.21,.37-.5,.66-.86,.87-.37,.21-.78,.32-1.25,.32h-2.64c-.47,0-.88-.11-1.25-.32-.36-.21-.65-.5-.86-.87-.21-.37-.32-.78-.32-1.25Zm.86,0c0,.28,.07,.54,.21,.77,.14,.23,.32,.41,.55,.55,.23,.14,.49,.21,.77,.21h2.74c.28,0,.54-.07,.77-.21,.23-.14,.42-.32,.55-.55,.14-.23,.21-.49,.21-.77s-.07-.54-.21-.77-.32-.42-.55-.55c-.23-.14-.49-.21-.77-.21h-2.74c-.28,0-.54,.07-.77,.21-.23,.14-.42,.32-.55,.55s-.21,.49-.21,.77Z"/><path d="M136.63,194.01h.8s2.88,3.2,2.88,3.2c.24,.27,.47,.45,.68,.54s.44,.14,.66,.14c.28,0,.53-.06,.75-.19,.22-.13,.4-.3,.53-.52,.13-.22,.2-.47,.2-.74s-.07-.54-.21-.77-.32-.4-.54-.53-.46-.19-.72-.19v-.91c.45,0,.85,.1,1.2,.31,.35,.21,.62,.49,.82,.86,.2,.36,.3,.77,.3,1.23s-.1,.85-.31,1.2c-.21,.35-.48,.63-.84,.84s-.75,.31-1.19,.31c-.32,0-.59-.04-.82-.12s-.44-.2-.64-.36c-.2-.16-.4-.37-.62-.62l-2.39-2.65,.3-.11v3.87h-.85v-4.79Z"/><path d="M136.63,202.05h6.21l-.82-1.36h1l.81,1.36v.9h-7.2v-.9Z"/><path d="M136.48,208.08c0-.47,.11-.88,.32-1.25,.21-.37,.5-.65,.86-.87,.37-.21,.78-.32,1.25-.32h2.64c.47,0,.88,.11,1.25,.32,.36,.21,.65,.5,.86,.87s.32,.78,.32,1.25-.11,.88-.32,1.25c-.21,.37-.5,.66-.86,.87-.37,.21-.78,.32-1.25,.32h-2.64c-.47,0-.88-.11-1.25-.32-.36-.21-.65-.5-.86-.87-.21-.37-.32-.78-.32-1.25Zm.86,0c0,.28,.07,.54,.21,.77,.14,.23,.32,.41,.55,.55,.23,.14,.49,.21,.77,.21h2.74c.28,0,.54-.07,.77-.21,.23-.14,.42-.32,.55-.55,.14-.23,.21-.49,.21-.77s-.07-.54-.21-.77-.32-.42-.55-.55c-.23-.14-.49-.21-.77-.21h-2.74c-.28,0-.54,.07-.77,.21-.23,.14-.42,.32-.55,.55s-.21,.49-.21,.77Z"/><path d="M143.97,215.07c0,.46-.11,.87-.33,1.24-.22,.37-.52,.67-.9,.89-.38,.22-.81,.33-1.29,.33h-2.4c-.5,0-.95-.11-1.33-.33s-.69-.52-.91-.9c-.22-.38-.33-.82-.33-1.31,0-.4,.08-.76,.24-1.1,.16-.34,.39-.63,.7-.87l.59,.67c-.21,.15-.37,.33-.5,.56s-.19,.48-.19,.74c0,.32,.08,.6,.23,.84s.35,.44,.6,.58c.25,.14,.51,.21,.8,.21h1.44l-.22,.2c-.3-.21-.54-.47-.72-.8-.18-.32-.27-.68-.27-1.05,0-.45,.11-.85,.32-1.2,.21-.35,.49-.63,.85-.84s.76-.31,1.21-.31,.85,.11,1.22,.33c.36,.22,.65,.52,.87,.89,.22,.37,.33,.78,.33,1.23Zm-.86,0c0-.29-.07-.55-.21-.78-.14-.24-.33-.42-.56-.56-.24-.14-.5-.21-.78-.21s-.55,.07-.78,.21c-.23,.14-.42,.33-.56,.56-.14,.23-.21,.5-.21,.78s.07,.55,.21,.78c.14,.24,.33,.42,.56,.56,.24,.14,.5,.21,.78,.21s.54-.07,.78-.21c.23-.14,.42-.33,.56-.56,.14-.23,.21-.5,.21-.78Z"/></g><g><path d="M56.23,180.38h.8s2.88,3.2,2.88,3.2c.24,.27,.47,.45,.68,.54s.44,.14,.66,.14c.28,0,.53-.06,.75-.19,.22-.13,.4-.3,.53-.52,.13-.22,.2-.47,.2-.74s-.07-.54-.21-.77-.32-.4-.54-.53-.46-.19-.72-.19v-.91c.45,0,.85,.1,1.2,.31,.35,.21,.62,.49,.82,.86,.2,.36,.3,.77,.3,1.23s-.1,.85-.31,1.2c-.21,.35-.48,.63-.84,.84s-.75,.31-1.19,.31c-.32,0-.59-.04-.82-.12-.23-.08-.44-.2-.64-.36-.2-.16-.4-.37-.62-.62l-2.39-2.65,.3-.11v3.86h-.85v-4.79Z"/><path d="M56.07,189.59c0-.47,.11-.88,.32-1.25,.21-.36,.5-.65,.86-.86,.37-.21,.78-.32,1.25-.32h2.64c.47,0,.88,.11,1.25,.32,.36,.21,.65,.5,.86,.86s.32,.78,.32,1.25-.11,.88-.32,1.25c-.21,.37-.5,.65-.86,.87-.37,.21-.78,.31-1.25,.31h-2.64c-.47,0-.88-.1-1.25-.31-.36-.21-.65-.5-.86-.87-.21-.37-.32-.78-.32-1.25Zm.86,0c0,.28,.07,.54,.21,.77,.14,.23,.32,.41,.55,.55,.23,.14,.49,.21,.77,.21h2.74c.28,0,.54-.07,.77-.21,.23-.14,.42-.32,.55-.55,.14-.23,.21-.49,.21-.77s-.07-.54-.21-.77-.32-.42-.55-.55c-.23-.14-.49-.21-.77-.21h-2.74c-.28,0-.54,.07-.77,.21-.23,.14-.42,.32-.55,.55s-.21,.49-.21,.77Z"/><path d="M56.22,195.48h6.21l-.82-1.35h1l.81,1.35v.91h-7.2v-.91Z"/><path d="M63.57,201.44c0,.46-.11,.87-.33,1.24-.22,.37-.52,.67-.9,.89s-.81,.33-1.29,.33h-2.4c-.5,0-.95-.11-1.33-.33s-.69-.52-.91-.9c-.22-.38-.33-.82-.33-1.31,0-.4,.08-.77,.24-1.1,.16-.34,.39-.63,.7-.87l.59,.67c-.21,.15-.37,.33-.5,.56-.12,.23-.19,.48-.19,.74,0,.32,.08,.6,.23,.84,.15,.25,.35,.44,.6,.58,.25,.14,.51,.21,.8,.21h1.44l-.22,.2c-.3-.21-.54-.47-.72-.8s-.27-.68-.27-1.05c0-.45,.11-.85,.32-1.2s.49-.63,.85-.84,.76-.31,1.21-.31,.85,.11,1.22,.33c.36,.22,.65,.52,.87,.89,.22,.37,.33,.78,.33,1.23Zm-.86,0c0-.29-.07-.55-.21-.78s-.33-.42-.56-.56c-.24-.14-.5-.21-.78-.21s-.55,.07-.78,.21c-.23,.14-.42,.33-.56,.56-.14,.23-.21,.5-.21,.78s.07,.55,.21,.78c.14,.23,.33,.42,.56,.56,.24,.14,.5,.21,.78,.21s.54-.07,.78-.21c.23-.14,.42-.32,.56-.56,.14-.23,.21-.5,.21-.78Z"/><path d="M56.07,208.52c0-.47,.11-.88,.32-1.25,.21-.37,.5-.65,.86-.87,.37-.21,.78-.32,1.25-.32h2.64c.47,0,.88,.11,1.25,.32,.36,.21,.65,.5,.86,.87,.21,.36,.32,.78,.32,1.25s-.11,.88-.32,1.25-.5,.66-.86,.87c-.37,.21-.78,.31-1.25,.31h-2.64c-.47,0-.88-.1-1.25-.31-.36-.21-.65-.5-.86-.87-.21-.37-.32-.78-.32-1.25Zm.86,0c0,.28,.07,.54,.21,.77s.32,.41,.55,.55c.23,.14,.49,.21,.77,.21h2.74c.28,0,.54-.07,.77-.21,.23-.14,.42-.32,.55-.55s.21-.49,.21-.77-.07-.54-.21-.77c-.14-.23-.32-.42-.55-.55-.23-.14-.49-.21-.77-.21h-2.74c-.28,0-.54,.07-.77,.21-.23,.14-.42,.32-.55,.55-.14,.23-.21,.49-.21,.77Z"/><path d="M63.57,215.51c0,.46-.11,.87-.33,1.24-.22,.37-.52,.67-.9,.89s-.81,.33-1.29,.33h-2.4c-.5,0-.95-.11-1.33-.33s-.69-.52-.91-.9c-.22-.38-.33-.82-.33-1.31,0-.4,.08-.77,.24-1.1,.16-.34,.39-.63,.7-.87l.59,.67c-.21,.15-.37,.33-.5,.56-.12,.23-.19,.48-.19,.74,0,.32,.08,.6,.23,.84,.15,.25,.35,.44,.6,.58,.25,.14,.51,.21,.8,.21h1.44l-.22,.2c-.3-.21-.54-.47-.72-.8s-.27-.68-.27-1.05c0-.45,.11-.85,.32-1.2s.49-.63,.85-.84,.76-.31,1.21-.31,.85,.11,1.22,.33c.36,.22,.65,.52,.87,.89,.22,.37,.33,.78,.33,1.23Zm-.86,0c0-.29-.07-.55-.21-.78s-.33-.42-.56-.56c-.24-.14-.5-.21-.78-.21s-.55,.07-.78,.21c-.23,.14-.42,.33-.56,.56-.14,.23-.21,.5-.21,.78s.07,.55,.21,.78c.14,.23,.33,.42,.56,.56,.24,.14,.5,.21,.78,.21s.54-.07,.78-.21c.23-.14,.42-.32,.56-.56,.14-.23,.21-.5,.21-.78Z"/></g><g><path d="M184.95,180.36h.8s2.88,3.2,2.88,3.2c.24,.27,.47,.45,.68,.54s.44,.14,.66,.14c.28,0,.53-.06,.75-.19,.22-.13,.4-.3,.53-.52s.2-.47,.2-.74-.07-.54-.21-.77c-.14-.22-.32-.4-.54-.53s-.46-.19-.72-.19v-.91c.45,0,.85,.1,1.2,.31,.35,.21,.62,.49,.82,.86,.2,.36,.3,.77,.3,1.23s-.1,.85-.31,1.2c-.21,.35-.48,.63-.84,.84s-.75,.31-1.19,.31c-.32,0-.59-.04-.82-.12-.23-.08-.44-.2-.64-.36-.2-.16-.4-.37-.62-.61l-2.39-2.66,.3-.11v3.86h-.85v-4.78Z"/><path d="M184.79,189.58c0-.47,.11-.88,.32-1.25,.21-.36,.5-.65,.86-.86,.37-.21,.78-.32,1.25-.32h2.64c.47,0,.88,.11,1.25,.32,.36,.21,.65,.5,.86,.86,.21,.37,.32,.78,.32,1.25s-.11,.88-.32,1.25-.5,.66-.86,.87c-.37,.21-.78,.31-1.25,.31h-2.64c-.47,0-.88-.1-1.25-.31-.36-.21-.65-.5-.86-.87-.21-.37-.32-.78-.32-1.25Zm.86,0c0,.28,.07,.54,.21,.77s.32,.41,.55,.55c.23,.14,.49,.21,.77,.21h2.74c.28,0,.54-.07,.77-.21,.23-.14,.42-.32,.55-.55s.21-.49,.21-.77-.07-.54-.21-.77c-.14-.23-.32-.42-.55-.55-.23-.14-.49-.21-.77-.21h-2.74c-.28,0-.54,.07-.77,.21-.23,.14-.42,.32-.55,.55-.14,.23-.21,.49-.21,.77Z"/><path d="M184.95,194.01h.8s2.88,3.2,2.88,3.2c.24,.27,.47,.45,.68,.54,.21,.09,.44,.14,.66,.14,.28,0,.53-.06,.75-.19s.4-.3,.53-.52,.2-.47,.2-.74-.07-.54-.21-.77c-.14-.22-.32-.4-.54-.53-.22-.13-.46-.19-.72-.19v-.91c.45,0,.85,.1,1.2,.31,.35,.21,.62,.49,.82,.86s.3,.77,.3,1.23-.1,.85-.31,1.2c-.21,.35-.48,.63-.84,.84s-.75,.31-1.19,.31c-.32,0-.59-.04-.82-.12-.23-.08-.44-.2-.64-.36-.2-.16-.4-.37-.62-.62l-2.39-2.65,.3-.12v3.87h-.85v-4.79Z"/><path d="M184.95,200.59h.8s2.88,3.2,2.88,3.2c.24,.27,.47,.45,.68,.54,.21,.09,.44,.14,.66,.14,.28,0,.53-.06,.75-.19,.22-.13,.4-.3,.53-.52s.2-.47,.2-.74-.07-.54-.21-.77c-.14-.22-.32-.4-.54-.53s-.46-.19-.72-.19v-.91c.45,0,.85,.1,1.2,.31,.35,.21,.62,.49,.82,.86,.2,.36,.3,.77,.3,1.23s-.1,.85-.31,1.2c-.21,.35-.48,.63-.84,.84s-.75,.31-1.19,.31c-.32,0-.59-.04-.82-.12s-.44-.2-.64-.36c-.2-.16-.4-.37-.62-.62l-2.39-2.66,.3-.11v3.87h-.85v-4.79Z"/><path d="M184.79,209.81c0-.47,.11-.88,.32-1.25,.21-.36,.5-.65,.86-.86,.37-.21,.78-.32,1.25-.32h2.64c.47,0,.88,.11,1.25,.32,.36,.21,.65,.5,.86,.86,.21,.37,.32,.78,.32,1.25s-.11,.88-.32,1.25-.5,.66-.86,.87c-.37,.21-.78,.31-1.25,.31h-2.64c-.47,0-.88-.1-1.25-.31-.36-.21-.65-.5-.86-.87-.21-.37-.32-.78-.32-1.25Zm.86,0c0,.28,.07,.54,.21,.77s.32,.41,.55,.55c.23,.14,.49,.2,.77,.2h2.74c.28,0,.54-.07,.77-.2,.23-.14,.42-.32,.55-.55s.21-.49,.21-.77-.07-.54-.21-.77c-.14-.23-.32-.42-.55-.55-.23-.14-.49-.21-.77-.21h-2.74c-.28,0-.54,.07-.77,.21-.23,.14-.42,.32-.55,.55-.14,.23-.21,.49-.21,.77Z"/><path d="M184.8,216.41c0-.36,.07-.69,.2-.99,.13-.31,.32-.57,.56-.79,.24-.22,.53-.38,.86-.49l.24,.85c-.33,.11-.59,.29-.76,.55-.17,.26-.26,.54-.25,.86,0,.29,.07,.55,.2,.76,.13,.21,.3,.38,.53,.5,.22,.12,.48,.18,.77,.18,.44,0,.8-.13,1.08-.4s.42-.62,.42-1.05c0-.12-.02-.25-.05-.38-.04-.13-.08-.25-.14-.37l.71-.43,2.42,2.67-.3,.12v-3.58h.85v4.25h-.86l-2.18-2.28h.32c.03,.47-.05,.88-.24,1.24-.19,.36-.46,.63-.81,.83s-.76,.3-1.21,.3-.87-.1-1.22-.31c-.35-.21-.63-.49-.83-.84-.2-.35-.3-.75-.3-1.2Z"/></g><g><path d="M160.79,180.36h.8s2.88,3.2,2.88,3.2c.24,.27,.47,.45,.68,.54s.44,.14,.66,.14c.28,0,.53-.06,.75-.19,.22-.13,.4-.3,.53-.52s.2-.47,.2-.74-.07-.54-.21-.77c-.14-.22-.32-.4-.54-.53s-.46-.19-.72-.19v-.91c.45,0,.85,.1,1.2,.31,.35,.21,.62,.49,.82,.86,.2,.36,.3,.77,.3,1.23s-.1,.85-.31,1.2c-.21,.35-.48,.63-.84,.84s-.75,.31-1.19,.31c-.32,0-.59-.04-.82-.12-.23-.08-.44-.2-.64-.36-.2-.16-.4-.37-.62-.61l-2.39-2.66,.3-.11v3.86h-.85v-4.78Z"/><path d="M160.63,189.58c0-.47,.11-.88,.32-1.25,.21-.36,.5-.65,.86-.86,.37-.21,.78-.32,1.25-.32h2.64c.47,0,.88,.11,1.25,.32,.36,.21,.65,.5,.86,.86,.21,.37,.32,.78,.32,1.25s-.11,.88-.32,1.25-.5,.66-.86,.87c-.37,.21-.78,.31-1.25,.31h-2.64c-.47,0-.88-.1-1.25-.31-.36-.21-.65-.5-.86-.87-.21-.37-.32-.78-.32-1.25Zm.86,0c0,.28,.07,.54,.21,.77s.32,.41,.55,.55c.23,.14,.49,.21,.77,.21h2.74c.28,0,.54-.07,.77-.21,.23-.14,.42-.32,.55-.55s.21-.49,.21-.77-.07-.54-.21-.77c-.14-.23-.32-.42-.55-.55-.23-.14-.49-.21-.77-.21h-2.74c-.28,0-.54,.07-.77,.21-.23,.14-.42,.32-.55,.55-.14,.23-.21,.49-.21,.77Z"/><path d="M160.79,194.01h.8s2.88,3.2,2.88,3.2c.24,.27,.47,.45,.68,.54,.21,.09,.44,.14,.66,.14,.28,0,.53-.06,.75-.19s.4-.3,.53-.52,.2-.47,.2-.74-.07-.54-.21-.77c-.14-.22-.32-.4-.54-.53-.22-.13-.46-.19-.72-.19v-.91c.45,0,.85,.1,1.2,.31,.35,.21,.62,.49,.82,.86s.3,.77,.3,1.23-.1,.85-.31,1.2c-.21,.35-.48,.63-.84,.84s-.75,.31-1.19,.31c-.32,0-.59-.04-.82-.12-.23-.08-.44-.2-.64-.36-.2-.16-.4-.37-.62-.62l-2.39-2.65,.3-.12v3.87h-.85v-4.79Z"/><path d="M160.79,202.05h6.21l-.82-1.35h1l.81,1.35v.91h-7.2v-.91Z"/><path d="M160.79,206.91h6.21l-.82-1.35h1l.81,1.35v.9h-7.2v-.9Z"/><path d="M160.79,210.31h.8s2.88,3.2,2.88,3.2c.24,.27,.47,.45,.68,.54,.21,.09,.44,.14,.66,.14,.28,0,.53-.06,.75-.19,.22-.13,.4-.3,.53-.52s.2-.47,.2-.74-.07-.54-.21-.76c-.14-.22-.32-.4-.54-.53s-.46-.19-.72-.19v-.91c.45,0,.85,.1,1.2,.31,.35,.21,.62,.49,.82,.86s.3,.77,.3,1.23-.1,.85-.31,1.2c-.21,.35-.48,.63-.84,.84s-.75,.31-1.19,.31c-.32,0-.59-.04-.82-.12s-.44-.2-.64-.36c-.2-.16-.4-.37-.62-.62l-2.39-2.65,.3-.12v3.87h-.85v-4.79Z"/></g><g><path d="M209.11,180.36h.8s2.88,3.2,2.88,3.2c.24,.27,.47,.45,.68,.54,.21,.09,.44,.14,.66,.14,.28,0,.53-.06,.75-.19,.22-.13,.4-.3,.53-.52,.13-.22,.2-.47,.2-.74s-.07-.54-.21-.76-.32-.4-.54-.53c-.22-.13-.46-.19-.72-.19v-.91c.45,0,.85,.1,1.2,.31,.35,.21,.62,.49,.82,.86s.3,.78,.3,1.24-.1,.85-.31,1.2c-.21,.35-.48,.63-.84,.84s-.75,.31-1.19,.31c-.32,0-.59-.04-.82-.12s-.44-.2-.64-.36c-.2-.16-.4-.37-.62-.62l-2.39-2.66,.3-.12v3.87h-.85v-4.79Z"/><path d="M208.95,189.58c0-.47,.11-.88,.32-1.25,.21-.37,.5-.65,.86-.87,.37-.21,.78-.32,1.25-.32h2.64c.47,0,.88,.11,1.25,.32,.36,.21,.65,.5,.86,.87s.32,.78,.32,1.25-.11,.88-.32,1.25c-.21,.37-.5,.66-.86,.87-.37,.21-.78,.32-1.25,.32h-2.64c-.47,0-.88-.11-1.25-.32-.36-.21-.65-.5-.86-.87-.21-.37-.32-.78-.32-1.25Zm.86,0c0,.28,.07,.54,.21,.77,.14,.23,.32,.41,.55,.55,.23,.14,.49,.21,.77,.21h2.74c.28,0,.54-.07,.77-.21,.23-.14,.42-.32,.55-.55,.14-.23,.21-.49,.21-.77s-.07-.54-.21-.77c-.14-.23-.32-.42-.55-.55-.23-.14-.49-.21-.77-.21h-2.74c-.28,0-.54,.07-.77,.21-.23,.14-.42,.32-.55,.55-.14,.23-.21,.49-.21,.77Z"/><path d="M209.11,194.01h.8s2.88,3.2,2.88,3.2c.24,.27,.47,.45,.68,.54s.44,.14,.66,.14c.28,0,.53-.06,.75-.19s.4-.3,.53-.52c.13-.22,.2-.47,.2-.74s-.07-.54-.21-.76c-.14-.22-.32-.4-.54-.53-.22-.13-.46-.19-.72-.19v-.91c.45,0,.85,.1,1.2,.31,.35,.21,.62,.49,.82,.86s.3,.77,.3,1.23-.1,.85-.31,1.2c-.21,.35-.48,.63-.84,.84s-.75,.31-1.19,.31c-.32,0-.59-.04-.82-.12s-.44-.2-.64-.36c-.2-.16-.4-.37-.62-.62l-2.39-2.65,.3-.12v3.87h-.85v-4.79Z"/><path d="M209.11,200.59h.8s2.88,3.2,2.88,3.2c.24,.27,.47,.45,.68,.54,.21,.09,.44,.14,.66,.14,.28,0,.53-.06,.75-.19,.22-.13,.4-.3,.53-.52,.13-.22,.2-.47,.2-.74s-.07-.54-.21-.76-.32-.4-.54-.53c-.22-.13-.46-.19-.72-.19v-.91c.45,0,.85,.1,1.2,.31,.35,.21,.62,.49,.82,.86s.3,.78,.3,1.24-.1,.85-.31,1.2c-.21,.35-.48,.63-.84,.84s-.75,.31-1.19,.31c-.32,0-.59-.04-.82-.12s-.44-.2-.64-.36c-.2-.16-.4-.37-.62-.62l-2.39-2.66,.3-.12v3.87h-.85v-4.79Z"/><path d="M208.95,209.81c0-.47,.11-.88,.32-1.25,.21-.36,.5-.65,.86-.86,.37-.21,.78-.32,1.25-.32h2.64c.47,0,.88,.11,1.25,.32,.36,.21,.65,.5,.86,.86,.21,.37,.32,.78,.32,1.25s-.11,.88-.32,1.25c-.21,.37-.5,.66-.86,.87-.37,.21-.78,.31-1.25,.31h-2.64c-.47,0-.88-.1-1.25-.31-.36-.21-.65-.5-.86-.87-.21-.37-.32-.78-.32-1.25Zm.86,0c0,.28,.07,.54,.21,.77,.14,.23,.32,.41,.55,.55,.23,.14,.49,.2,.77,.2h2.74c.28,0,.54-.07,.77-.2,.23-.14,.42-.32,.55-.55,.14-.23,.21-.49,.21-.77s-.07-.54-.21-.77-.32-.42-.55-.55c-.23-.14-.49-.21-.77-.21h-2.74c-.28,0-.54,.07-.77,.21-.23,.14-.42,.32-.55,.55s-.21,.49-.21,.77Z"/><path d="M208.95,216.89c0-.46,.11-.87,.33-1.24,.22-.37,.52-.67,.9-.88,.38-.22,.81-.33,1.29-.33h2.39c.5,0,.95,.11,1.34,.33,.39,.22,.69,.52,.91,.9,.22,.38,.33,.82,.33,1.31,0,.4-.08,.77-.24,1.11-.16,.34-.39,.63-.7,.86l-.59-.67c.21-.15,.37-.33,.5-.56,.12-.23,.19-.48,.19-.74,0-.32-.08-.6-.23-.84s-.35-.44-.6-.58c-.25-.14-.51-.21-.8-.21h-1.45l.22-.19c.3,.21,.54,.48,.72,.8,.18,.32,.27,.67,.27,1.05,0,.45-.1,.85-.31,1.2-.21,.36-.49,.64-.85,.84-.36,.2-.76,.31-1.21,.31s-.85-.11-1.22-.33c-.37-.22-.66-.52-.87-.89-.22-.37-.32-.78-.32-1.23Zm.86,0c0,.29,.07,.55,.21,.78,.14,.23,.32,.42,.56,.56,.24,.14,.5,.21,.78,.21s.55-.07,.78-.21c.23-.14,.42-.32,.56-.56,.14-.24,.21-.5,.21-.78s-.07-.55-.21-.78c-.14-.23-.33-.42-.56-.56-.24-.14-.5-.21-.78-.21s-.54,.07-.78,.21c-.24,.14-.42,.33-.56,.56-.14,.24-.21,.5-.21,.78Z"/></g><g><path d="M233.27,180.36h.8s2.88,3.2,2.88,3.2c.24,.27,.47,.45,.68,.54,.21,.09,.44,.14,.66,.14,.28,0,.53-.06,.75-.19,.22-.13,.4-.3,.53-.52s.2-.47,.2-.74-.07-.54-.21-.76c-.14-.22-.32-.4-.54-.53s-.46-.19-.72-.19v-.91c.45,0,.85,.1,1.2,.31,.35,.21,.62,.49,.82,.86s.3,.77,.3,1.23-.1,.85-.31,1.2c-.21,.35-.48,.63-.84,.84s-.75,.31-1.19,.31c-.32,0-.59-.04-.82-.12s-.44-.2-.64-.36c-.2-.16-.4-.37-.62-.62l-2.39-2.65,.3-.12v3.87h-.85v-4.79Z"/><path d="M233.11,189.58c0-.47,.11-.88,.32-1.25,.21-.36,.5-.65,.86-.86,.37-.21,.78-.32,1.25-.32h2.64c.47,0,.88,.11,1.25,.32,.36,.21,.65,.5,.86,.86,.21,.37,.32,.78,.32,1.25s-.11,.88-.32,1.25-.5,.66-.86,.87c-.37,.21-.78,.31-1.25,.31h-2.64c-.47,0-.88-.1-1.25-.31-.36-.21-.65-.5-.86-.87-.21-.37-.32-.78-.32-1.25Zm.86,0c0,.28,.07,.54,.21,.77s.32,.41,.55,.55c.23,.14,.49,.2,.77,.2h2.74c.28,0,.54-.07,.77-.2,.23-.14,.42-.32,.55-.55s.21-.49,.21-.77-.07-.54-.21-.77c-.14-.23-.32-.42-.55-.55-.23-.14-.49-.21-.77-.21h-2.74c-.28,0-.54,.07-.77,.21-.23,.14-.42,.32-.55,.55-.14,.23-.21,.49-.21,.77Z"/><path d="M233.27,194.01h.8s2.88,3.2,2.88,3.2c.24,.27,.47,.45,.68,.54,.21,.09,.44,.14,.66,.14,.28,0,.53-.06,.75-.19,.22-.13,.4-.3,.53-.52s.2-.47,.2-.74-.07-.54-.21-.76c-.14-.22-.32-.4-.54-.53s-.46-.19-.72-.19v-.91c.45,0,.85,.1,1.2,.31,.35,.21,.62,.49,.82,.86s.3,.77,.3,1.23-.1,.85-.31,1.2c-.21,.35-.48,.63-.84,.84s-.75,.31-1.19,.31c-.32,0-.59-.04-.82-.12s-.44-.2-.64-.36c-.2-.16-.4-.37-.62-.62l-2.39-2.65,.3-.12v3.87h-.85v-4.79Z"/><path d="M233.27,200.59h.8s2.88,3.2,2.88,3.2c.24,.27,.47,.45,.68,.54,.21,.09,.44,.14,.66,.14,.28,0,.53-.06,.75-.19,.22-.13,.4-.3,.53-.52s.2-.47,.2-.74-.07-.54-.21-.76c-.14-.22-.32-.4-.54-.53s-.46-.19-.72-.19v-.91c.45,0,.85,.1,1.2,.31,.35,.21,.62,.49,.82,.86s.3,.77,.3,1.23-.1,.85-.31,1.2c-.21,.35-.48,.63-.84,.84s-.75,.31-1.19,.31c-.32,0-.59-.04-.82-.12s-.44-.2-.64-.36c-.2-.16-.4-.37-.62-.62l-2.39-2.65,.3-.12v3.87h-.85v-4.79Z"/><path d="M233.11,209.81c0-.47,.11-.88,.32-1.25,.21-.36,.5-.65,.86-.86,.37-.21,.78-.32,1.25-.32h2.64c.47,0,.88,.11,1.25,.32,.36,.21,.65,.5,.86,.86,.21,.37,.32,.78,.32,1.25s-.11,.88-.32,1.25-.5,.66-.86,.87c-.37,.21-.78,.31-1.25,.31h-2.64c-.47,0-.88-.1-1.25-.31-.36-.21-.65-.5-.86-.87-.21-.37-.32-.78-.32-1.25Zm.86,0c0,.28,.07,.54,.21,.77s.32,.41,.55,.55c.23,.14,.49,.2,.77,.2h2.74c.28,0,.54-.07,.77-.2,.23-.14,.42-.32,.55-.55s.21-.49,.21-.77-.07-.54-.21-.77c-.14-.23-.32-.42-.55-.55-.23-.14-.49-.21-.77-.21h-2.74c-.28,0-.54,.07-.77,.21-.23,.14-.42,.32-.55,.55-.14,.23-.21,.49-.21,.77Z"/><path d="M240.61,216.79c0,.46-.11,.87-.33,1.24-.22,.37-.52,.67-.9,.89s-.81,.33-1.29,.33h-2.4c-.5,0-.95-.11-1.33-.32s-.69-.52-.91-.9c-.22-.38-.33-.82-.33-1.31,0-.4,.08-.77,.24-1.1,.16-.34,.39-.63,.7-.87l.59,.67c-.21,.15-.37,.33-.5,.56s-.19,.48-.19,.74c0,.32,.08,.6,.23,.84s.35,.44,.6,.58c.25,.14,.51,.21,.8,.21h1.44l-.22,.19c-.3-.21-.54-.47-.72-.8-.18-.32-.27-.68-.27-1.05,0-.45,.11-.85,.32-1.2s.49-.64,.85-.84c.36-.21,.76-.31,1.21-.31s.85,.11,1.22,.33c.36,.22,.65,.52,.87,.89,.22,.37,.33,.78,.33,1.23Zm-.86,0c0-.29-.07-.55-.21-.78s-.33-.42-.56-.56c-.24-.14-.5-.21-.78-.21s-.55,.07-.78,.21c-.23,.14-.42,.33-.56,.56-.14,.23-.21,.5-.21,.78s.07,.55,.21,.78c.14,.23,.33,.42,.56,.56,.24,.14,.5,.21,.78,.21s.54-.07,.78-.21c.23-.14,.42-.33,.56-.56,.14-.23,.21-.5,.21-.78Z"/></g><g><path d="M257.43,180.36h.8s2.88,3.2,2.88,3.2c.24,.27,.47,.45,.68,.54,.21,.09,.44,.14,.66,.14,.28,0,.53-.06,.75-.19,.22-.13,.4-.3,.53-.52s.2-.47,.2-.74-.07-.54-.21-.76c-.14-.22-.32-.4-.54-.53s-.46-.19-.72-.19v-.91c.45,0,.85,.1,1.2,.31,.35,.21,.62,.49,.82,.86s.3,.77,.3,1.23-.1,.85-.31,1.2c-.21,.35-.48,.63-.84,.84s-.75,.31-1.19,.31c-.32,0-.59-.04-.82-.12s-.44-.2-.64-.36c-.2-.16-.4-.37-.62-.62l-2.39-2.66,.3-.12v3.87h-.85v-4.79Z"/><path d="M257.27,189.58c0-.47,.11-.88,.32-1.25,.21-.36,.5-.65,.86-.86,.37-.21,.78-.32,1.25-.32h2.64c.47,0,.88,.11,1.25,.32,.36,.21,.65,.5,.86,.86,.21,.37,.32,.78,.32,1.25s-.11,.88-.32,1.25-.5,.66-.86,.87c-.37,.21-.78,.31-1.25,.31h-2.64c-.47,0-.88-.1-1.25-.31-.36-.21-.65-.5-.86-.87-.21-.37-.32-.78-.32-1.25Zm.86,0c0,.28,.07,.54,.21,.77s.32,.41,.55,.55c.23,.14,.49,.2,.77,.2h2.74c.28,0,.54-.07,.77-.2,.23-.14,.42-.32,.55-.55s.21-.49,.21-.77-.07-.54-.21-.77c-.14-.23-.32-.42-.55-.55-.23-.14-.49-.21-.77-.21h-2.74c-.28,0-.54,.07-.77,.21-.23,.14-.42,.32-.55,.55-.14,.23-.21,.49-.21,.77Z"/><path d="M257.43,194.01h.8s2.88,3.2,2.88,3.2c.24,.27,.47,.45,.68,.54,.21,.09,.44,.14,.66,.14,.28,0,.53-.06,.75-.19,.22-.13,.4-.3,.53-.52s.2-.47,.2-.74-.07-.54-.21-.76c-.14-.22-.32-.4-.54-.53s-.46-.19-.72-.19v-.91c.45,0,.85,.1,1.2,.31,.35,.21,.62,.49,.82,.86s.3,.77,.3,1.23-.1,.85-.31,1.2c-.21,.35-.48,.63-.84,.84s-.75,.31-1.19,.31c-.32,0-.59-.04-.82-.12s-.44-.2-.64-.36c-.2-.16-.4-.37-.62-.62l-2.39-2.65,.3-.12v3.87h-.85v-4.79Z"/><path d="M257.43,200.59h.8s2.88,3.2,2.88,3.2c.24,.27,.47,.45,.68,.54,.21,.09,.44,.14,.66,.14,.28,0,.53-.06,.75-.19,.22-.13,.4-.3,.53-.52s.2-.47,.2-.74-.07-.54-.21-.76c-.14-.22-.32-.4-.54-.53s-.46-.19-.72-.19v-.91c.45,0,.85,.1,1.2,.31,.35,.21,.62,.49,.82,.86s.3,.77,.3,1.23-.1,.85-.31,1.2c-.21,.35-.48,.63-.84,.84s-.75,.31-1.19,.31c-.32,0-.59-.04-.82-.12s-.44-.2-.64-.36c-.2-.16-.4-.37-.62-.62l-2.39-2.65,.3-.12v3.87h-.85v-4.79Z"/><path d="M257.42,208.63h6.21l-.82-1.35h1l.81,1.35v.9h-7.2v-.9Z"/><path d="M257.43,212.04h.8s2.88,3.2,2.88,3.2c.24,.27,.47,.45,.68,.54,.21,.09,.44,.14,.66,.14,.28,0,.53-.06,.75-.19,.22-.13,.4-.3,.53-.52s.2-.47,.2-.74-.07-.54-.21-.76c-.14-.22-.32-.4-.54-.53s-.46-.19-.72-.19v-.91c.45,0,.85,.1,1.2,.31,.35,.21,.62,.49,.82,.86s.3,.77,.3,1.23-.1,.85-.31,1.2c-.21,.35-.48,.63-.84,.84s-.75,.31-1.19,.31c-.32,0-.59-.04-.82-.12s-.44-.2-.64-.36c-.2-.16-.4-.37-.62-.62l-2.39-2.65,.3-.12v3.87h-.85v-4.79Z"/></g><g><path d="M281.58,180.36h.8s2.88,3.2,2.88,3.2c.24,.27,.47,.45,.68,.54,.21,.09,.44,.14,.66,.14,.28,0,.53-.06,.75-.19,.22-.13,.4-.3,.53-.52s.2-.47,.2-.74-.07-.54-.21-.76c-.14-.22-.32-.4-.54-.53s-.46-.19-.72-.19v-.91c.45,0,.85,.1,1.2,.31,.35,.21,.62,.49,.82,.86s.3,.77,.3,1.23-.1,.85-.31,1.2c-.21,.35-.48,.63-.84,.84s-.75,.31-1.19,.31c-.32,0-.59-.04-.82-.12s-.44-.2-.64-.36c-.2-.16-.4-.37-.62-.62l-2.39-2.65,.3-.12v3.87h-.85v-4.79Z"/><path d="M281.43,189.58c0-.47,.11-.88,.32-1.25,.21-.36,.5-.65,.86-.86,.37-.21,.78-.32,1.25-.32h2.64c.47,0,.88,.11,1.25,.32,.36,.21,.65,.5,.86,.86,.21,.37,.32,.78,.32,1.25s-.11,.88-.32,1.25-.5,.66-.86,.87c-.37,.21-.78,.31-1.25,.31h-2.64c-.47,0-.88-.1-1.25-.31-.36-.21-.65-.5-.86-.87-.21-.37-.32-.78-.32-1.25Zm.86,0c0,.28,.07,.54,.21,.77s.32,.41,.55,.55c.23,.14,.49,.2,.77,.2h2.74c.28,0,.54-.07,.77-.2,.23-.14,.42-.32,.55-.55s.21-.49,.21-.77-.07-.54-.21-.77c-.14-.23-.32-.42-.55-.55-.23-.14-.49-.21-.77-.21h-2.74c-.28,0-.54,.07-.77,.21-.23,.14-.42,.32-.55,.55-.14,.23-.21,.49-.21,.77Z"/><path d="M281.58,194.01h.8s2.88,3.2,2.88,3.2c.24,.27,.47,.45,.68,.54,.21,.09,.44,.14,.66,.14,.28,0,.53-.06,.75-.19,.22-.13,.4-.3,.53-.52s.2-.47,.2-.74-.07-.54-.21-.76c-.14-.22-.32-.4-.54-.53s-.46-.19-.72-.19v-.91c.45,0,.85,.1,1.2,.31,.35,.21,.62,.49,.82,.86s.3,.77,.3,1.23-.1,.85-.31,1.2c-.21,.35-.48,.63-.84,.84s-.75,.31-1.19,.31c-.32,0-.59-.04-.82-.12s-.44-.2-.64-.36c-.2-.16-.4-.37-.62-.62l-2.39-2.65,.3-.12v3.87h-.85v-4.79Z"/><path d="M281.44,202.77c0-.36,.07-.69,.2-.99,.13-.31,.32-.57,.56-.79,.24-.22,.53-.38,.86-.49l.24,.85c-.33,.11-.59,.29-.76,.55-.17,.26-.26,.54-.25,.86,0,.29,.07,.55,.2,.76,.13,.21,.3,.38,.53,.5,.22,.12,.48,.18,.77,.18,.44,0,.8-.13,1.08-.4s.42-.62,.42-1.05c0-.12-.02-.25-.05-.38-.04-.13-.08-.25-.14-.37l.71-.43,2.42,2.67-.3,.12v-3.58h.85v4.25h-.86l-2.18-2.28h.32c.03,.47-.05,.88-.24,1.24-.19,.36-.46,.63-.81,.83s-.76,.3-1.21,.3-.87-.1-1.22-.31c-.35-.21-.63-.49-.83-.84-.2-.35-.3-.75-.3-1.2Z"/><path d="M281.43,209.65c0-.47,.11-.88,.32-1.25,.21-.36,.5-.65,.86-.86,.37-.21,.78-.32,1.25-.32h2.64c.47,0,.88,.11,1.25,.32,.36,.21,.65,.5,.86,.86,.21,.37,.32,.78,.32,1.25s-.11,.88-.32,1.25-.5,.66-.86,.87c-.37,.21-.78,.31-1.25,.31h-2.64c-.47,0-.88-.1-1.25-.31-.36-.21-.65-.5-.86-.87-.21-.37-.32-.78-.32-1.25Zm.86,0c0,.28,.07,.54,.21,.77s.32,.41,.55,.55c.23,.14,.49,.2,.77,.2h2.74c.28,0,.54-.07,.77-.2,.23-.14,.42-.32,.55-.55s.21-.49,.21-.77-.07-.54-.21-.77c-.14-.23-.32-.42-.55-.55-.23-.14-.49-.21-.77-.21h-2.74c-.28,0-.54,.07-.77,.21-.23,.14-.42,.32-.55,.55-.14,.23-.21,.49-.21,.77Z"/><path d="M281.44,216.25c0-.36,.07-.69,.2-.99,.13-.31,.32-.57,.56-.79,.24-.22,.53-.38,.86-.49l.24,.85c-.33,.11-.59,.29-.76,.55-.17,.26-.26,.54-.25,.86,0,.29,.07,.55,.2,.76,.13,.21,.3,.38,.53,.5,.22,.12,.48,.18,.77,.18,.44,0,.8-.13,1.08-.4s.42-.62,.42-1.05c0-.12-.02-.25-.05-.38-.04-.13-.08-.25-.14-.37l.71-.43,2.42,2.67-.3,.12v-3.58h.85v4.25h-.86l-2.18-2.28h.32c.03,.47-.05,.88-.24,1.24-.19,.36-.46,.63-.81,.83s-.76,.3-1.21,.3-.87-.1-1.22-.31c-.35-.21-.63-.49-.83-.84-.2-.35-.3-.75-.3-1.2Z"/></g><g><g><path d="M3.48,68.3v-6.21l-1.36,.82v-1l1.36-.81h.91v7.2h-.91Z"/><path d="M9.51,68.45c-.47,0-.88-.11-1.25-.32-.37-.21-.65-.5-.87-.87-.21-.36-.32-.78-.32-1.25v-2.64c0-.47,.11-.88,.32-1.25,.21-.37,.5-.65,.87-.87,.36-.21,.78-.32,1.25-.32s.88,.11,1.25,.32c.37,.21,.66,.5,.87,.87,.21,.36,.31,.78,.31,1.25v2.64c0,.47-.1,.88-.31,1.25-.21,.37-.5,.65-.87,.87-.37,.21-.78,.32-1.25,.32Zm0-.85c.28,0,.54-.07,.77-.21,.23-.14,.41-.32,.55-.55,.14-.23,.21-.49,.21-.77v-2.75c0-.28-.07-.54-.21-.77-.14-.23-.32-.42-.55-.55-.23-.14-.49-.21-.77-.21s-.54,.07-.77,.21-.42,.32-.55,.55c-.14,.23-.2,.49-.2,.77v2.75c0,.28,.07,.54,.2,.77,.14,.23,.32,.42,.55,.55s.49,.21,.77,.21Z"/><path d="M16.57,68.45c-.47,0-.88-.11-1.25-.32-.37-.21-.65-.5-.87-.87-.21-.36-.32-.78-.32-1.25v-2.64c0-.47,.11-.88,.32-1.25,.21-.37,.5-.65,.87-.87,.36-.21,.78-.32,1.25-.32s.88,.11,1.25,.32c.37,.21,.66,.5,.87,.87,.21,.36,.31,.78,.31,1.25v2.64c0,.47-.1,.88-.31,1.25-.21,.37-.5,.65-.87,.87-.37,.21-.78,.32-1.25,.32Zm0-.85c.28,0,.54-.07,.77-.21,.23-.14,.41-.32,.55-.55,.14-.23,.21-.49,.21-.77v-2.75c0-.28-.07-.54-.21-.77-.14-.23-.32-.42-.55-.55-.23-.14-.49-.21-.77-.21s-.54,.07-.77,.21-.42,.32-.55,.55c-.14,.23-.2,.49-.2,.77v2.75c0,.28,.07,.54,.2,.77,.14,.23,.32,.42,.55,.55s.49,.21,.77,.21Z"/><path d="M21.1,69.42l.06-.42c.14,0,.25-.02,.31-.08,.07-.06,.12-.15,.14-.26,.02-.11,.02-.23,0-.37h-.52v-1.13h.98v1.28c0,.35-.09,.61-.26,.79s-.41,.24-.72,.18Z"/><path d="M27.21,68.45c-.47,0-.88-.11-1.25-.32-.37-.21-.65-.5-.87-.87-.21-.36-.32-.78-.32-1.25v-2.64c0-.47,.11-.88,.32-1.25,.21-.37,.5-.65,.87-.87,.36-.21,.78-.32,1.25-.32s.88,.11,1.25,.32c.37,.21,.66,.5,.87,.87,.21,.36,.31,.78,.31,1.25v2.64c0,.47-.1,.88-.31,1.25-.21,.37-.5,.65-.87,.87-.37,.21-.78,.32-1.25,.32Zm0-.85c.28,0,.54-.07,.77-.21,.23-.14,.41-.32,.55-.55,.14-.23,.21-.49,.21-.77v-2.75c0-.28-.07-.54-.21-.77-.14-.23-.32-.42-.55-.55-.23-.14-.49-.21-.77-.21s-.54,.07-.77,.21-.42,.32-.55,.55c-.14,.23-.2,.49-.2,.77v2.75c0,.28,.07,.54,.2,.77,.14,.23,.32,.42,.55,.55s.49,.21,.77,.21Z"/><path d="M34.27,68.45c-.47,0-.88-.11-1.25-.32-.37-.21-.65-.5-.87-.87-.21-.36-.32-.78-.32-1.25v-2.64c0-.47,.11-.88,.32-1.25,.21-.37,.5-.65,.87-.87,.36-.21,.78-.32,1.25-.32s.88,.11,1.25,.32c.37,.21,.66,.5,.87,.87,.21,.36,.31,.78,.31,1.25v2.64c0,.47-.1,.88-.31,1.25-.21,.37-.5,.65-.87,.87-.37,.21-.78,.32-1.25,.32Zm0-.85c.28,0,.54-.07,.77-.21,.23-.14,.41-.32,.55-.55,.14-.23,.21-.49,.21-.77v-2.75c0-.28-.07-.54-.21-.77-.14-.23-.32-.42-.55-.55-.23-.14-.49-.21-.77-.21s-.54,.07-.77,.21-.42,.32-.55,.55c-.14,.23-.2,.49-.2,.77v2.75c0,.28,.07,.54,.2,.77,.14,.23,.32,.42,.55,.55s.49,.21,.77,.21Z"/><path d="M41.33,68.45c-.47,0-.88-.11-1.25-.32-.37-.21-.65-.5-.87-.87-.21-.36-.32-.78-.32-1.25v-2.64c0-.47,.11-.88,.32-1.25,.21-.37,.5-.65,.87-.87,.36-.21,.78-.32,1.25-.32s.88,.11,1.25,.32c.37,.21,.66,.5,.87,.87,.21,.36,.31,.78,.31,1.25v2.64c0,.47-.1,.88-.31,1.25-.21,.37-.5,.65-.87,.87-.37,.21-.78,.32-1.25,.32Zm0-.85c.28,0,.54-.07,.77-.21,.23-.14,.41-.32,.55-.55,.14-.23,.21-.49,.21-.77v-2.75c0-.28-.07-.54-.21-.77-.14-.23-.32-.42-.55-.55-.23-.14-.49-.21-.77-.21s-.54,.07-.77,.21-.42,.32-.55,.55c-.14,.23-.2,.49-.2,.77v2.75c0,.28,.07,.54,.2,.77,.14,.23,.32,.42,.55,.55s.49,.21,.77,.21Z"/></g><g><path d="M9.68,89.66c-.46,0-.87-.09-1.22-.28-.35-.19-.63-.44-.83-.77-.2-.33-.3-.72-.3-1.16s.1-.82,.31-1.17c.21-.35,.51-.61,.93-.8v.33c-.35-.16-.61-.39-.79-.69-.18-.3-.27-.63-.27-1,0-.4,.09-.75,.28-1.05,.19-.29,.44-.52,.77-.68,.33-.16,.7-.24,1.12-.24s.8,.08,1.12,.24c.33,.16,.58,.39,.77,.68,.19,.3,.28,.64,.28,1.05,0,.37-.08,.7-.25,.99-.17,.29-.43,.52-.79,.7l-.02-.32c.41,.18,.72,.44,.93,.79,.21,.35,.31,.74,.31,1.17s-.1,.83-.3,1.16c-.2,.33-.48,.59-.83,.77-.36,.19-.76,.28-1.22,.28Zm0-.85c.42,0,.76-.12,1.02-.35,.26-.23,.39-.57,.39-1.01s-.13-.78-.39-1.01c-.26-.23-.6-.35-1.03-.35s-.76,.12-1.02,.35c-.26,.23-.39,.57-.39,1.01s.13,.78,.39,1.01c.26,.23,.6,.35,1.02,.35Zm0-3.57c.37,0,.66-.09,.89-.28s.34-.46,.34-.83-.11-.65-.34-.83-.52-.28-.89-.28-.66,.09-.89,.28-.34,.46-.34,.83,.11,.65,.34,.83,.52,.28,.89,.28Z"/><path d="M16.57,89.66c-.47,0-.88-.11-1.25-.32-.37-.21-.65-.5-.87-.87-.21-.36-.32-.78-.32-1.25v-2.64c0-.47,.11-.88,.32-1.25,.21-.37,.5-.65,.87-.87,.36-.21,.78-.32,1.25-.32s.88,.11,1.25,.32c.37,.21,.66,.5,.87,.87,.21,.36,.31,.78,.31,1.25v2.64c0,.47-.1,.88-.31,1.25-.21,.37-.5,.65-.87,.87-.37,.21-.78,.32-1.25,.32Zm0-.85c.28,0,.54-.07,.77-.21,.23-.14,.41-.32,.55-.55,.14-.23,.21-.49,.21-.77v-2.75c0-.28-.07-.54-.21-.77-.14-.23-.32-.42-.55-.55-.23-.14-.49-.21-.77-.21s-.54,.07-.77,.21-.42,.32-.55,.55c-.14,.23-.2,.49-.2,.77v2.75c0,.28,.07,.54,.2,.77,.14,.23,.32,.42,.55,.55s.49,.21,.77,.21Z"/><path d="M21.1,90.63l.06-.42c.14,0,.25-.02,.31-.08,.07-.06,.12-.15,.14-.26,.02-.11,.02-.23,0-.37h-.52v-1.13h.98v1.28c0,.35-.09,.61-.26,.79s-.41,.24-.72,.18Z"/><path d="M27.21,89.66c-.47,0-.88-.11-1.25-.32-.37-.21-.65-.5-.87-.87-.21-.36-.32-.78-.32-1.25v-2.64c0-.47,.11-.88,.32-1.25,.21-.37,.5-.65,.87-.87,.36-.21,.78-.32,1.25-.32s.88,.11,1.25,.32c.37,.21,.66,.5,.87,.87,.21,.36,.31,.78,.31,1.25v2.64c0,.47-.1,.88-.31,1.25-.21,.37-.5,.65-.87,.87-.37,.21-.78,.32-1.25,.32Zm0-.85c.28,0,.54-.07,.77-.21,.23-.14,.41-.32,.55-.55,.14-.23,.21-.49,.21-.77v-2.75c0-.28-.07-.54-.21-.77-.14-.23-.32-.42-.55-.55-.23-.14-.49-.21-.77-.21s-.54,.07-.77,.21-.42,.32-.55,.55c-.14,.23-.2,.49-.2,.77v2.75c0,.28,.07,.54,.2,.77,.14,.23,.32,.42,.55,.55s.49,.21,.77,.21Z"/><path d="M34.27,89.66c-.47,0-.88-.11-1.25-.32-.37-.21-.65-.5-.87-.87-.21-.36-.32-.78-.32-1.25v-2.64c0-.47,.11-.88,.32-1.25,.21-.37,.5-.65,.87-.87,.36-.21,.78-.32,1.25-.32s.88,.11,1.25,.32c.37,.21,.66,.5,.87,.87,.21,.36,.31,.78,.31,1.25v2.64c0,.47-.1,.88-.31,1.25-.21,.37-.5,.65-.87,.87-.37,.21-.78,.32-1.25,.32Zm0-.85c.28,0,.54-.07,.77-.21,.23-.14,.41-.32,.55-.55,.14-.23,.21-.49,.21-.77v-2.75c0-.28-.07-.54-.21-.77-.14-.23-.32-.42-.55-.55-.23-.14-.49-.21-.77-.21s-.54,.07-.77,.21-.42,.32-.55,.55c-.14,.23-.2,.49-.2,.77v2.75c0,.28,.07,.54,.2,.77,.14,.23,.32,.42,.55,.55s.49,.21,.77,.21Z"/><path d="M41.33,89.66c-.47,0-.88-.11-1.25-.32-.37-.21-.65-.5-.87-.87-.21-.36-.32-.78-.32-1.25v-2.64c0-.47,.11-.88,.32-1.25,.21-.37,.5-.65,.87-.87,.36-.21,.78-.32,1.25-.32s.88,.11,1.25,.32c.37,.21,.66,.5,.87,.87,.21,.36,.31,.78,.31,1.25v2.64c0,.47-.1,.88-.31,1.25-.21,.37-.5,.65-.87,.87-.37,.21-.78,.32-1.25,.32Zm0-.85c.28,0,.54-.07,.77-.21,.23-.14,.41-.32,.55-.55,.14-.23,.21-.49,.21-.77v-2.75c0-.28-.07-.54-.21-.77-.14-.23-.32-.42-.55-.55-.23-.14-.49-.21-.77-.21s-.54,.07-.77,.21-.42,.32-.55,.55c-.14,.23-.2,.49-.2,.77v2.75c0,.28,.07,.54,.2,.77,.14,.23,.32,.42,.55,.55s.49,.21,.77,.21Z"/></g><g><path d="M3.95,47.08v-6.21l-1.36,.82v-1l1.36-.81h.91v7.2h-.91Z"/><path d="M7.36,47.08v-.8s3.2-2.88,3.2-2.88c.27-.24,.45-.47,.54-.68,.09-.22,.14-.44,.14-.66,0-.28-.06-.53-.19-.75-.13-.22-.3-.4-.52-.53-.22-.13-.47-.2-.74-.2s-.54,.07-.76,.21c-.22,.14-.4,.32-.53,.54-.13,.22-.19,.46-.19,.73h-.91c0-.45,.1-.85,.31-1.2,.21-.35,.49-.62,.86-.82,.36-.2,.78-.3,1.24-.3s.85,.1,1.2,.31c.35,.21,.63,.48,.84,.84,.21,.35,.31,.75,.31,1.19,0,.32-.04,.59-.12,.82-.08,.23-.2,.44-.36,.64-.16,.2-.37,.4-.61,.62l-2.66,2.38-.12-.3h3.87v.85H7.36Z"/><path d="M16.57,47.23c-.47,0-.88-.11-1.25-.32-.37-.21-.65-.5-.87-.87-.21-.36-.32-.78-.32-1.25v-2.64c0-.47,.11-.88,.32-1.25,.21-.37,.5-.65,.87-.87,.36-.21,.78-.32,1.25-.32s.88,.11,1.25,.32c.37,.21,.66,.5,.87,.87,.21,.36,.31,.78,.31,1.25v2.64c0,.47-.1,.88-.31,1.25-.21,.37-.5,.65-.87,.87-.37,.21-.78,.32-1.25,.32Zm0-.85c.28,0,.54-.07,.77-.21,.23-.14,.41-.32,.55-.55,.14-.23,.21-.49,.21-.77v-2.75c0-.28-.07-.54-.21-.77-.14-.23-.32-.42-.55-.55-.23-.14-.49-.21-.77-.21s-.54,.07-.77,.21-.42,.32-.55,.55c-.14,.23-.2,.49-.2,.77v2.75c0,.28,.07,.54,.2,.77,.14,.23,.32,.42,.55,.55s.49,.21,.77,.21Z"/><path d="M21.1,48.2l.06-.42c.14,0,.25-.02,.31-.08,.07-.06,.12-.15,.14-.26,.02-.11,.02-.23,0-.37h-.52v-1.13h.98v1.28c0,.35-.09,.61-.26,.79s-.41,.24-.72,.18Z"/><path d="M27.21,47.23c-.47,0-.88-.11-1.25-.32-.37-.21-.65-.5-.87-.87-.21-.36-.32-.78-.32-1.25v-2.64c0-.47,.11-.88,.32-1.25,.21-.37,.5-.65,.87-.87,.36-.21,.78-.32,1.25-.32s.88,.11,1.25,.32c.37,.21,.66,.5,.87,.87,.21,.36,.31,.78,.31,1.25v2.64c0,.47-.1,.88-.31,1.25-.21,.37-.5,.65-.87,.87-.37,.21-.78,.32-1.25,.32Zm0-.85c.28,0,.54-.07,.77-.21,.23-.14,.41-.32,.55-.55,.14-.23,.21-.49,.21-.77v-2.75c0-.28-.07-.54-.21-.77-.14-.23-.32-.42-.55-.55-.23-.14-.49-.21-.77-.21s-.54,.07-.77,.21-.42,.32-.55,.55c-.14,.23-.2,.49-.2,.77v2.75c0,.28,.07,.54,.2,.77,.14,.23,.32,.42,.55,.55s.49,.21,.77,.21Z"/><path d="M34.27,47.23c-.47,0-.88-.11-1.25-.32-.37-.21-.65-.5-.87-.87-.21-.36-.32-.78-.32-1.25v-2.64c0-.47,.11-.88,.32-1.25,.21-.37,.5-.65,.87-.87,.36-.21,.78-.32,1.25-.32s.88,.11,1.25,.32c.37,.21,.66,.5,.87,.87,.21,.36,.31,.78,.31,1.25v2.64c0,.47-.1,.88-.31,1.25-.21,.37-.5,.65-.87,.87-.37,.21-.78,.32-1.25,.32Zm0-.85c.28,0,.54-.07,.77-.21,.23-.14,.41-.32,.55-.55,.14-.23,.21-.49,.21-.77v-2.75c0-.28-.07-.54-.21-.77-.14-.23-.32-.42-.55-.55-.23-.14-.49-.21-.77-.21s-.54,.07-.77,.21-.42,.32-.55,.55c-.14,.23-.2,.49-.2,.77v2.75c0,.28,.07,.54,.2,.77,.14,.23,.32,.42,.55,.55s.49,.21,.77,.21Z"/><path d="M41.33,47.23c-.47,0-.88-.11-1.25-.32-.37-.21-.65-.5-.87-.87-.21-.36-.32-.78-.32-1.25v-2.64c0-.47,.11-.88,.32-1.25,.21-.37,.5-.65,.87-.87,.36-.21,.78-.32,1.25-.32s.88,.11,1.25,.32c.37,.21,.66,.5,.87,.87,.21,.36,.31,.78,.31,1.25v2.64c0,.47-.1,.88-.31,1.25-.21,.37-.5,.65-.87,.87-.37,.21-.78,.32-1.25,.32Zm0-.85c.28,0,.54-.07,.77-.21,.23-.14,.41-.32,.55-.55,.14-.23,.21-.49,.21-.77v-2.75c0-.28-.07-.54-.21-.77-.14-.23-.32-.42-.55-.55-.23-.14-.49-.21-.77-.21s-.54,.07-.77,.21-.42,.32-.55,.55c-.14,.23-.2,.49-.2,.77v2.75c0,.28,.07,.54,.2,.77,.14,.23,.32,.42,.55,.55s.49,.21,.77,.21Z"/></g><g><path d="M9.59,110.87c-.46,0-.87-.11-1.24-.33-.37-.22-.67-.52-.88-.9-.22-.38-.33-.81-.33-1.29v-2.4c0-.5,.11-.95,.33-1.33,.22-.39,.52-.69,.9-.91,.38-.22,.82-.33,1.31-.33,.4,0,.77,.08,1.11,.24s.63,.39,.86,.7l-.67,.59c-.15-.21-.33-.37-.56-.5s-.48-.19-.74-.19c-.32,0-.6,.08-.84,.23s-.44,.35-.58,.6c-.14,.25-.21,.51-.21,.8v1.45l-.2-.22c.21-.3,.48-.54,.8-.72,.32-.18,.67-.27,1.05-.27,.45,0,.85,.1,1.2,.31,.35,.21,.63,.49,.84,.85,.21,.36,.31,.76,.31,1.21s-.11,.85-.33,1.22c-.22,.36-.52,.65-.89,.87-.37,.21-.78,.32-1.23,.32Zm0-.86c.29,0,.55-.07,.78-.21s.42-.33,.56-.56,.21-.5,.21-.78-.07-.55-.21-.78c-.14-.23-.33-.42-.56-.56s-.5-.21-.78-.21-.55,.07-.78,.21c-.24,.14-.42,.33-.56,.56-.14,.23-.21,.5-.21,.78s.07,.54,.21,.78,.33,.42,.56,.56c.24,.14,.5,.21,.78,.21Z"/><path d="M16.57,110.87c-.47,0-.88-.11-1.25-.32-.37-.21-.65-.5-.87-.87-.21-.36-.32-.78-.32-1.25v-2.64c0-.47,.11-.88,.32-1.25,.21-.37,.5-.65,.87-.87,.36-.21,.78-.32,1.25-.32s.88,.11,1.25,.32c.37,.21,.66,.5,.87,.87,.21,.36,.31,.78,.31,1.25v2.64c0,.47-.1,.88-.31,1.25-.21,.37-.5,.65-.87,.87-.37,.21-.78,.32-1.25,.32Zm0-.85c.28,0,.54-.07,.77-.21,.23-.14,.41-.32,.55-.55,.14-.23,.21-.49,.21-.77v-2.75c0-.28-.07-.54-.21-.77-.14-.23-.32-.42-.55-.55-.23-.14-.49-.21-.77-.21s-.54,.07-.77,.21-.42,.32-.55,.55c-.14,.23-.2,.49-.2,.77v2.75c0,.28,.07,.54,.2,.77,.14,.23,.32,.42,.55,.55s.49,.21,.77,.21Z"/><path d="M21.1,111.84l.06-.42c.14,0,.25-.02,.31-.08,.07-.06,.12-.15,.14-.26,.02-.11,.02-.23,0-.37h-.52v-1.13h.98v1.28c0,.35-.09,.61-.26,.79s-.41,.24-.72,.18Z"/><path d="M27.21,110.87c-.47,0-.88-.11-1.25-.32-.37-.21-.65-.5-.87-.87-.21-.36-.32-.78-.32-1.25v-2.64c0-.47,.11-.88,.32-1.25,.21-.37,.5-.65,.87-.87,.36-.21,.78-.32,1.25-.32s.88,.11,1.25,.32c.37,.21,.66,.5,.87,.87,.21,.36,.31,.78,.31,1.25v2.64c0,.47-.1,.88-.31,1.25-.21,.37-.5,.65-.87,.87-.37,.21-.78,.32-1.25,.32Zm0-.85c.28,0,.54-.07,.77-.21,.23-.14,.41-.32,.55-.55,.14-.23,.21-.49,.21-.77v-2.75c0-.28-.07-.54-.21-.77-.14-.23-.32-.42-.55-.55-.23-.14-.49-.21-.77-.21s-.54,.07-.77,.21-.42,.32-.55,.55c-.14,.23-.2,.49-.2,.77v2.75c0,.28,.07,.54,.2,.77,.14,.23,.32,.42,.55,.55s.49,.21,.77,.21Z"/><path d="M34.27,110.87c-.47,0-.88-.11-1.25-.32-.37-.21-.65-.5-.87-.87-.21-.36-.32-.78-.32-1.25v-2.64c0-.47,.11-.88,.32-1.25,.21-.37,.5-.65,.87-.87,.36-.21,.78-.32,1.25-.32s.88,.11,1.25,.32c.37,.21,.66,.5,.87,.87,.21,.36,.31,.78,.31,1.25v2.64c0,.47-.1,.88-.31,1.25-.21,.37-.5,.65-.87,.87-.37,.21-.78,.32-1.25,.32Zm0-.85c.28,0,.54-.07,.77-.21,.23-.14,.41-.32,.55-.55,.14-.23,.21-.49,.21-.77v-2.75c0-.28-.07-.54-.21-.77-.14-.23-.32-.42-.55-.55-.23-.14-.49-.21-.77-.21s-.54,.07-.77,.21-.42,.32-.55,.55c-.14,.23-.2,.49-.2,.77v2.75c0,.28,.07,.54,.2,.77,.14,.23,.32,.42,.55,.55s.49,.21,.77,.21Z"/><path d="M41.33,110.87c-.47,0-.88-.11-1.25-.32-.37-.21-.65-.5-.87-.87-.21-.36-.32-.78-.32-1.25v-2.64c0-.47,.11-.88,.32-1.25,.21-.37,.5-.65,.87-.87,.36-.21,.78-.32,1.25-.32s.88,.11,1.25,.32c.37,.21,.66,.5,.87,.87,.21,.36,.31,.78,.31,1.25v2.64c0,.47-.1,.88-.31,1.25-.21,.37-.5,.65-.87,.87-.37,.21-.78,.32-1.25,.32Zm0-.85c.28,0,.54-.07,.77-.21,.23-.14,.41-.32,.55-.55,.14-.23,.21-.49,.21-.77v-2.75c0-.28-.07-.54-.21-.77-.14-.23-.32-.42-.55-.55-.23-.14-.49-.21-.77-.21s-.54,.07-.77,.21-.42,.32-.55,.55c-.14,.23-.2,.49-.2,.77v2.75c0,.28,.07,.54,.2,.77,.14,.23,.32,.42,.55,.55s.49,.21,.77,.21Z"/></g><g><path d="M10.49,131.93v-1.33h-3.31v-.84l2.38-5.03h1.01l-2.38,5.03h2.3v-2.02h.9v2.02h.75v.84h-.75v1.33h-.9Z"/><path d="M16.57,132.08c-.47,0-.88-.11-1.25-.32-.37-.21-.65-.5-.87-.87-.21-.36-.32-.78-.32-1.25v-2.64c0-.47,.11-.88,.32-1.25,.21-.37,.5-.65,.87-.87,.36-.21,.78-.32,1.25-.32s.88,.11,1.25,.32c.37,.21,.66,.5,.87,.87,.21,.36,.31,.78,.31,1.25v2.64c0,.47-.1,.88-.31,1.25-.21,.37-.5,.65-.87,.87-.37,.21-.78,.32-1.25,.32Zm0-.85c.28,0,.54-.07,.77-.21,.23-.14,.41-.32,.55-.55,.14-.23,.21-.49,.21-.77v-2.75c0-.28-.07-.54-.21-.77-.14-.23-.32-.42-.55-.55-.23-.14-.49-.21-.77-.21s-.54,.07-.77,.21-.42,.32-.55,.55c-.14,.23-.2,.49-.2,.77v2.75c0,.28,.07,.54,.2,.77,.14,.23,.32,.42,.55,.55s.49,.21,.77,.21Z"/><path d="M21.1,133.05l.06-.42c.14,0,.25-.02,.31-.08,.07-.06,.12-.15,.14-.26,.02-.11,.02-.23,0-.37h-.52v-1.13h.98v1.28c0,.35-.09,.61-.26,.79s-.41,.24-.72,.18Z"/><path d="M27.21,132.08c-.47,0-.88-.11-1.25-.32-.37-.21-.65-.5-.87-.87-.21-.36-.32-.78-.32-1.25v-2.64c0-.47,.11-.88,.32-1.25,.21-.37,.5-.65,.87-.87,.36-.21,.78-.32,1.25-.32s.88,.11,1.25,.32c.37,.21,.66,.5,.87,.87,.21,.36,.31,.78,.31,1.25v2.64c0,.47-.1,.88-.31,1.25-.21,.37-.5,.65-.87,.87-.37,.21-.78,.32-1.25,.32Zm0-.85c.28,0,.54-.07,.77-.21,.23-.14,.41-.32,.55-.55,.14-.23,.21-.49,.21-.77v-2.75c0-.28-.07-.54-.21-.77-.14-.23-.32-.42-.55-.55-.23-.14-.49-.21-.77-.21s-.54,.07-.77,.21-.42,.32-.55,.55c-.14,.23-.2,.49-.2,.77v2.75c0,.28,.07,.54,.2,.77,.14,.23,.32,.42,.55,.55s.49,.21,.77,.21Z"/><path d="M34.27,132.08c-.47,0-.88-.11-1.25-.32-.37-.21-.65-.5-.87-.87-.21-.36-.32-.78-.32-1.25v-2.64c0-.47,.11-.88,.32-1.25,.21-.37,.5-.65,.87-.87,.36-.21,.78-.32,1.25-.32s.88,.11,1.25,.32c.37,.21,.66,.5,.87,.87,.21,.36,.31,.78,.31,1.25v2.64c0,.47-.1,.88-.31,1.25-.21,.37-.5,.65-.87,.87-.37,.21-.78,.32-1.25,.32Zm0-.85c.28,0,.54-.07,.77-.21,.23-.14,.41-.32,.55-.55,.14-.23,.21-.49,.21-.77v-2.75c0-.28-.07-.54-.21-.77-.14-.23-.32-.42-.55-.55-.23-.14-.49-.21-.77-.21s-.54,.07-.77,.21-.42,.32-.55,.55c-.14,.23-.2,.49-.2,.77v2.75c0,.28,.07,.54,.2,.77,.14,.23,.32,.42,.55,.55s.49,.21,.77,.21Z"/><path d="M41.33,132.08c-.47,0-.88-.11-1.25-.32-.37-.21-.65-.5-.87-.87-.21-.36-.32-.78-.32-1.25v-2.64c0-.47,.11-.88,.32-1.25,.21-.37,.5-.65,.87-.87,.36-.21,.78-.32,1.25-.32s.88,.11,1.25,.32c.37,.21,.66,.5,.87,.87,.21,.36,.31,.78,.31,1.25v2.64c0,.47-.1,.88-.31,1.25-.21,.37-.5,.65-.87,.87-.37,.21-.78,.32-1.25,.32Zm0-.85c.28,0,.54-.07,.77-.21,.23-.14,.41-.32,.55-.55,.14-.23,.21-.49,.21-.77v-2.75c0-.28-.07-.54-.21-.77-.14-.23-.32-.42-.55-.55-.23-.14-.49-.21-.77-.21s-.54,.07-.77,.21-.42,.32-.55,.55c-.14,.23-.2,.49-.2,.77v2.75c0,.28,.07,.54,.2,.77,.14,.23,.32,.42,.55,.55s.49,.21,.77,.21Z"/></g><g><path d="M7.36,153.14v-.8s3.2-2.88,3.2-2.88c.27-.24,.45-.47,.54-.68,.09-.22,.14-.44,.14-.66,0-.28-.06-.53-.19-.75-.13-.22-.3-.4-.52-.53-.22-.13-.47-.2-.74-.2s-.54,.07-.76,.21c-.22,.14-.4,.32-.53,.54-.13,.22-.19,.46-.19,.73h-.91c0-.45,.1-.85,.31-1.2,.21-.35,.49-.62,.86-.82,.36-.2,.78-.3,1.24-.3s.85,.1,1.2,.31c.35,.21,.63,.48,.84,.84,.21,.35,.31,.75,.31,1.19,0,.32-.04,.59-.12,.82-.08,.23-.2,.44-.36,.64-.16,.2-.37,.4-.61,.62l-2.66,2.38-.12-.3h3.87v.85H7.36Z"/><path d="M16.57,153.3c-.47,0-.88-.11-1.25-.32-.37-.21-.65-.5-.87-.87-.21-.36-.32-.78-.32-1.25v-2.64c0-.47,.11-.88,.32-1.25,.21-.37,.5-.65,.87-.87,.36-.21,.78-.32,1.25-.32s.88,.11,1.25,.32c.37,.21,.66,.5,.87,.87,.21,.36,.31,.78,.31,1.25v2.64c0,.47-.1,.88-.31,1.25-.21,.37-.5,.65-.87,.87-.37,.21-.78,.32-1.25,.32Zm0-.85c.28,0,.54-.07,.77-.21,.23-.14,.41-.32,.55-.55,.14-.23,.21-.49,.21-.77v-2.75c0-.28-.07-.54-.21-.77-.14-.23-.32-.42-.55-.55-.23-.14-.49-.21-.77-.21s-.54,.07-.77,.21-.42,.32-.55,.55c-.14,.23-.2,.49-.2,.77v2.75c0,.28,.07,.54,.2,.77,.14,.23,.32,.42,.55,.55s.49,.21,.77,.21Z"/><path d="M21.1,154.27l.06-.42c.14,0,.25-.02,.31-.08,.07-.06,.12-.15,.14-.26,.02-.11,.02-.23,0-.37h-.52v-1.13h.98v1.28c0,.35-.09,.61-.26,.79s-.41,.24-.72,.18Z"/><path d="M27.21,153.3c-.47,0-.88-.11-1.25-.32-.37-.21-.65-.5-.87-.87-.21-.36-.32-.78-.32-1.25v-2.64c0-.47,.11-.88,.32-1.25,.21-.37,.5-.65,.87-.87,.36-.21,.78-.32,1.25-.32s.88,.11,1.25,.32c.37,.21,.66,.5,.87,.87,.21,.36,.31,.78,.31,1.25v2.64c0,.47-.1,.88-.31,1.25-.21,.37-.5,.65-.87,.87-.37,.21-.78,.32-1.25,.32Zm0-.85c.28,0,.54-.07,.77-.21,.23-.14,.41-.32,.55-.55,.14-.23,.21-.49,.21-.77v-2.75c0-.28-.07-.54-.21-.77-.14-.23-.32-.42-.55-.55-.23-.14-.49-.21-.77-.21s-.54,.07-.77,.21-.42,.32-.55,.55c-.14,.23-.2,.49-.2,.77v2.75c0,.28,.07,.54,.2,.77,.14,.23,.32,.42,.55,.55s.49,.21,.77,.21Z"/><path d="M34.27,153.3c-.47,0-.88-.11-1.25-.32-.37-.21-.65-.5-.87-.87-.21-.36-.32-.78-.32-1.25v-2.64c0-.47,.11-.88,.32-1.25,.21-.37,.5-.65,.87-.87,.36-.21,.78-.32,1.25-.32s.88,.11,1.25,.32c.37,.21,.66,.5,.87,.87,.21,.36,.31,.78,.31,1.25v2.64c0,.47-.1,.88-.31,1.25-.21,.37-.5,.65-.87,.87-.37,.21-.78,.32-1.25,.32Zm0-.85c.28,0,.54-.07,.77-.21,.23-.14,.41-.32,.55-.55,.14-.23,.21-.49,.21-.77v-2.75c0-.28-.07-.54-.21-.77-.14-.23-.32-.42-.55-.55-.23-.14-.49-.21-.77-.21s-.54,.07-.77,.21-.42,.32-.55,.55c-.14,.23-.2,.49-.2,.77v2.75c0,.28,.07,.54,.2,.77,.14,.23,.32,.42,.55,.55s.49,.21,.77,.21Z"/><path d="M41.33,153.3c-.47,0-.88-.11-1.25-.32-.37-.21-.65-.5-.87-.87-.21-.36-.32-.78-.32-1.25v-2.64c0-.47,.11-.88,.32-1.25,.21-.37,.5-.65,.87-.87,.36-.21,.78-.32,1.25-.32s.88,.11,1.25,.32c.37,.21,.66,.5,.87,.87,.21,.36,.31,.78,.31,1.25v2.64c0,.47-.1,.88-.31,1.25-.21,.37-.5,.65-.87,.87-.37,.21-.78,.32-1.25,.32Zm0-.85c.28,0,.54-.07,.77-.21,.23-.14,.41-.32,.55-.55,.14-.23,.21-.49,.21-.77v-2.75c0-.28-.07-.54-.21-.77-.14-.23-.32-.42-.55-.55-.23-.14-.49-.21-.77-.21s-.54,.07-.77,.21-.42,.32-.55,.55c-.14,.23-.2,.49-.2,.77v2.75c0,.28,.07,.54,.2,.77,.14,.23,.32,.42,.55,.55s.49,.21,.77,.21Z"/></g><path d="M41.33,174.51c-.47,0-.88-.11-1.25-.32-.37-.21-.65-.5-.87-.87-.21-.36-.32-.78-.32-1.25v-2.64c0-.47,.11-.88,.32-1.25,.21-.37,.5-.65,.87-.87,.36-.21,.78-.32,1.25-.32s.88,.11,1.25,.32c.37,.21,.66,.5,.87,.87,.21,.36,.31,.78,.31,1.25v2.64c0,.47-.1,.88-.31,1.25-.21,.37-.5,.65-.87,.87-.37,.21-.78,.32-1.25,.32Zm0-.85c.28,0,.54-.07,.77-.21,.23-.14,.41-.32,.55-.55,.14-.23,.21-.49,.21-.77v-2.75c0-.28-.07-.54-.21-.77-.14-.23-.32-.42-.55-.55-.23-.14-.49-.21-.77-.21s-.54,.07-.77,.21-.42,.32-.55,.55c-.14,.23-.2,.49-.2,.77v2.75c0,.28,.07,.54,.2,.77,.14,.23,.32,.42,.55,.55s.49,.21,.77,.21Z"/></g><g><rect class="cls-7" x="85.07" y="170.12" width="6.53" height=".74"/><rect class="cls-4" x="91.61" y="170.57" width="6.53" height=".3"/></g><g><rect class="cls-7" x="109.1" y="169.06" width="6.53" height="1.8"/><rect class="cls-4" x="115.63" y="170.07" width="6.53" height=".79"/></g><g><rect class="cls-7" x="133.13" y="164.17" width="6.53" height="6.69"/><rect class="cls-4" x="139.66" y="168.28" width="6.53" height="2.58"/></g><g><rect class="cls-7" x="157.16" y="158.78" width="6.53" height="12.08"/><rect class="cls-4" x="163.69" y="165.29" width="6.53" height="5.57"/></g><g><rect class="cls-7" x="181.18" y="151.68" width="6.53" height="19.37"/><rect class="cls-4" x="187.72" y="163.03" width="6.53" height="8.02"/></g><g><rect class="cls-7" x="205.21" y="140.25" width="6.53" height="30.8"/><rect class="cls-4" x="211.75" y="156.72" width="6.53" height="14.33"/></g><g><rect class="cls-7" x="229.24" y="116.42" width="6.53" height="54.64"/><rect class="cls-4" x="235.77" y="149.14" width="6.53" height="21.91"/></g><g><rect class="cls-7" x="253.27" y="93.37" width="6.53" height="77.68"/><rect class="cls-4" x="259.8" y="146.46" width="6.53" height="24.59"/></g><g><rect class="cls-7" x="277.3" y="62.59" width="6.53" height="108.46"/><rect class="cls-4" x="283.83" y="133.52" width="6.53" height="37.54"/></g><rect class="cls-4" x="51.13" y="170.85" width="248.68" height=".75"/><g class="cls-2"><g><path class="cls-3" d="M66.07,187.86h-2.85c0-6.12,2.7-9.31,5.08-12.12,2.27-2.67,4.41-5.2,4.41-10.28s-2.14-7.6-4.41-10.27c-2.38-2.81-5.08-6-5.08-12.12s2.7-9.31,5.08-12.12c2.27-2.67,4.41-5.2,4.41-10.28s-2.14-7.6-4.41-10.28c-2.38-2.81-5.08-6-5.08-12.12s2.7-9.31,5.08-12.12c2.27-2.67,4.41-5.2,4.41-10.28s-2.14-7.6-4.41-10.28c-2.38-2.81-5.08-6-5.08-12.12s2.7-9.31,5.08-12.12c2.27-2.67,4.41-5.2,4.41-10.28h2.85c0,6.12-2.7,9.31-5.08,12.12-2.27,2.67-4.41,5.2-4.41,10.28s2.14,7.6,4.41,10.28c2.38,2.81,5.08,6,5.08,12.12s-2.7,9.31-5.08,12.12c-2.27,2.67-4.41,5.2-4.41,10.28s2.14,7.6,4.41,10.28c2.38,2.81,5.08,6,5.08,12.12s-2.7,9.31-5.08,12.12c-2.27,2.67-4.41,5.2-4.41,10.27s2.14,7.6,4.41,10.27c2.38,2.81,5.08,6,5.08,12.12s-2.7,9.31-5.08,12.12c-2.27,2.67-4.41,5.2-4.41,10.28Z"/><path class="cls-5" d="M66.45,188.24h-3.6v-.38c0-6.26,2.75-9.5,5.17-12.36,2.22-2.62,4.32-5.09,4.32-10.03s-2.1-7.41-4.32-10.03c-2.42-2.86-5.17-6.1-5.17-12.36s2.75-9.5,5.17-12.36c2.22-2.62,4.32-5.09,4.32-10.03s-2.1-7.41-4.32-10.03c-2.42-2.86-5.17-6.1-5.17-12.36s2.75-9.5,5.17-12.36c2.22-2.62,4.32-5.09,4.32-10.03s-2.1-7.41-4.32-10.03c-2.42-2.86-5.17-6.1-5.17-12.36s2.75-9.5,5.17-12.36c2.22-2.62,4.32-5.09,4.32-10.03v-.38h3.6v.38c0,6.26-2.75,9.5-5.17,12.36-2.22,2.62-4.32,5.09-4.32,10.03s2.1,7.41,4.32,10.03c2.42,2.86,5.17,6.1,5.17,12.36s-2.75,9.5-5.17,12.36c-2.22,2.62-4.32,5.09-4.32,10.03s2.1,7.41,4.32,10.03c2.42,2.86,5.17,6.1,5.17,12.36s-2.75,9.5-5.17,12.36c-2.22,2.62-4.32,5.09-4.32,10.03s2.1,7.41,4.32,10.03c2.42,2.86,5.17,6.1,5.17,12.36s-2.75,9.5-5.17,12.36c-2.22,2.62-4.32,5.09-4.32,10.03v.38Zm-2.84-.75h2.1c.1-4.96,2.24-7.48,4.49-10.14,2.34-2.76,4.99-5.89,4.99-11.87s-2.65-9.11-4.99-11.87c-2.31-2.73-4.5-5.3-4.5-10.52s2.18-7.79,4.5-10.52c2.34-2.76,4.99-5.89,4.99-11.87s-2.65-9.11-4.99-11.87c-2.31-2.73-4.5-5.3-4.5-10.52s2.18-7.79,4.5-10.52c2.34-2.76,4.99-5.89,4.99-11.87s-2.65-9.11-4.99-11.88c-2.31-2.73-4.5-5.3-4.5-10.52s2.18-7.79,4.5-10.52c2.29-2.7,4.88-5.76,4.99-11.5h-2.1c-.1,4.97-2.24,7.48-4.49,10.15-2.34,2.76-4.99,5.89-4.99,11.87s2.65,9.11,4.99,11.88c2.31,2.73,4.5,5.31,4.5,10.52s-2.18,7.79-4.5,10.52c-2.34,2.76-4.99,5.89-4.99,11.87s2.65,9.11,4.99,11.87c2.31,2.73,4.5,5.3,4.5,10.52s-2.18,7.79-4.5,10.52c-2.34,2.76-4.99,5.89-4.99,11.87s2.65,9.11,4.99,11.87c2.31,2.73,4.5,5.3,4.5,10.52s-2.18,7.79-4.5,10.52c-2.29,2.7-4.88,5.76-4.99,11.5Z"/></g></g><rect id="_スライス_" class="cls-1" width="300" height="220"/></g></svg>