<?xml version="1.0" encoding="UTF-8"?><svg id="_レイヤー_2" xmlns="http://www.w3.org/2000/svg" viewBox="0 0 296 492"><defs><style>.cls-1,.cls-2,.cls-3,.cls-4,.cls-5{fill:none;}.cls-2,.cls-3,.cls-5{stroke:#323230;}.cls-2,.cls-5{stroke-linejoin:round;}.cls-6{fill:#fff;}.cls-7{fill:#f1f1ee;}.cls-8{fill:#e5e5df;}.cls-9{fill:#323230;}.cls-10{fill:#cececa;}.cls-3,.cls-4{stroke-miterlimit:10;stroke-width:.42px;}.cls-4{stroke:#fff;}.cls-5{stroke-width:2px;}</style></defs><g id="_レイヤー_1-2"><rect class="cls-6" width="296" height="492"/><polygon class="cls-9" points="187.51 30 187.51 31 278 31 278 288 17 288 17 31 105.26 31 105.26 30 16 30 16 289 279 289 279 30 187.51 30"/><g><g><path d="M89.19,420.18c-.39,.13-.78,.25-1.17,.37v3.58h-.86v-3.31l-1.57,.48-.24-.89c.5-.13,1.13-.3,1.81-.49v-2.1h-.8c-.12,.53-.26,1.01-.41,1.39-.15-.12-.49-.32-.68-.42,.35-.81,.53-2.07,.63-3.26l.79,.13c-.05,.43-.1,.86-.17,1.28h.64v-1.98h.86v1.98h.93v.88h-.93v1.84l1.05-.3,.12,.82Zm5.3-3.61s0,.32,0,.44c-.22,4.49-.41,6.07-.8,6.56-.21,.3-.41,.39-.73,.44-.27,.05-.69,.04-1.13,.02,0-.27-.11-.65-.26-.91,.42,.04,.79,.04,.98,.04,.16,0,.26-.04,.36-.18,.29-.33,.5-1.75,.68-5.55h-.28c-.51,2.58-1.58,5.21-3.2,6.51-.18-.17-.51-.41-.77-.55,1.61-1.15,2.66-3.54,3.16-5.96h-.67c-.44,1.68-1.31,3.51-2.37,4.45-.17-.17-.47-.4-.72-.53,1.03-.8,1.85-2.38,2.31-3.92h-.71c-.31,.72-.67,1.35-1.08,1.84-.15-.13-.52-.41-.72-.53,.81-.88,1.38-2.3,1.71-3.78l.84,.16c-.11,.5-.26,.99-.41,1.45h3.82Z"/><path d="M99.46,415.26c-.26,.73-.6,1.46-.98,2.16v6.7h-.88v-5.3c-.25,.35-.52,.69-.78,.97-.09-.22-.35-.72-.51-.94,.91-.94,1.76-2.39,2.28-3.85l.87,.26Zm6.07,5.48h-2.65v3.39h-.93v-3.39h-2.77v-.91h2.77v-1.98h-1.42c-.2,.54-.42,1.03-.67,1.41-.18-.13-.58-.35-.8-.45,.56-.8,.97-2.08,1.19-3.33l.9,.18c-.09,.43-.2,.86-.32,1.28h1.12v-1.86h.93v1.86h2.2v.91h-2.2v1.98h2.65v.91Z"/></g><g><polygon class="cls-7" points="180.94 373.58 133.97 373.58 116.06 379.57 163.03 379.57 180.94 373.58"/><rect class="cls-8" x="116.06" y="379.57" width="46.97" height="82.2"/><polygon class="cls-10" points="180.94 373.58 180.94 455.78 163.03 461.77 163.03 379.57 180.94 373.58"/><g><rect class="cls-10" x="120.92" y="387.67" width="42.11" height="1.78"/><rect class="cls-10" x="120.92" y="394.8" width="42.11" height="1.78"/><rect class="cls-10" x="120.92" y="401.94" width="42.11" height="1.78"/><rect class="cls-10" x="120.92" y="409.07" width="42.11" height="1.78"/><rect class="cls-10" x="120.92" y="416.21" width="42.11" height="1.78"/><rect class="cls-10" x="120.92" y="423.35" width="42.11" height="1.78"/><rect class="cls-10" x="120.92" y="430.48" width="42.11" height="1.78"/><rect class="cls-10" x="120.92" y="437.62" width="42.11" height="1.78"/><rect class="cls-10" x="120.92" y="444.76" width="42.11" height="1.78"/><rect class="cls-10" x="120.92" y="451.89" width="42.11" height="1.78"/></g></g></g><g><g><rect class="cls-9" x="53.76" y="196.72" width="129.98" height="73.15"/><rect class="cls-10" x="183.74" y="196.72" width="59.51" height="73.15"/></g><g><path d="M89.89,158.61v4.13h-.96v-.59h-5.91v.61h-.94v-4.15h.94v2.63h2.41v-3.23h-2.97v-3.49h.93v2.59h2.04v-3.46h.95v3.46h2.14v-2.6h.98v3.5h-3.12v3.23h2.55v-2.63h.96Z"/><path d="M95.01,156.34c-.87,.29-1.8,.56-2.54,.79l-.37-.82c.73-.15,1.79-.43,2.82-.7l.09,.73Zm.92,5.21c-.81,.49-2.06,.97-3.06,1.24-.16-.18-.49-.53-.7-.69,1.03-.2,2.22-.55,2.91-.94l.85,.39Zm-1.27-6.33c-.47-.25-1.39-.61-2.09-.82l.41-.63c.68,.17,1.61,.5,2.09,.74l-.41,.71Zm1.89-.27c-.24,.3-.52,.58-.85,.83-.17-.16-.48-.36-.7-.45,.74-.5,1.23-1.17,1.48-1.75l.84,.13c-.09,.19-.19,.38-.31,.57h3.21l.14-.03,.62,.16c-.26,.52-.63,1.1-.97,1.45l-.73-.23c.17-.18,.34-.43,.5-.68h-1.38c.22,.72,.78,1.36,2.81,1.63-.17,.18-.39,.53-.47,.76-.28-.05-.54-.11-.77-.17v3.97h-6.52v-4.02h2.01c-.09-.2-.27-.47-.41-.61,1.61-.26,2.18-.74,2.41-1.56h-.91Zm2.49,2.76h-4.69v.56h4.69v-.56Zm0,1.12h-4.69v.57h4.69v-.57Zm0,1.14h-4.69v.58h4.69v-.58Zm.77-2.85c-1-.31-1.52-.78-1.83-1.31-.38,.61-1.04,1.03-2.23,1.31h4.06Zm-1.69,4.06c1.07,.36,2.27,.82,2.99,1.16l-1.07,.44c-.59-.32-1.64-.77-2.68-1.13l.76-.47Z"/></g><g><path d="M132.16,154.39c-.02,.21-.04,.46-.04,.74v3.35c0,.26,.02,.61,.04,.81h-1.17c0-.17,.05-.52,.05-.81v-3.35c0-.18-.02-.53-.04-.74h1.16Zm4.62-.08c-.02,.26-.04,.56-.04,.92v1.78c0,2.29-.36,3.14-1.1,3.98-.65,.76-1.66,1.21-2.39,1.46l-.83-.87c.95-.24,1.81-.62,2.42-1.31,.7-.79,.83-1.57,.83-3.32v-1.72c0-.36-.03-.66-.06-.92h1.17Z"/><path d="M147.76,155.57c-.09,.17-.21,.42-.28,.62-.25,.83-.74,1.89-1.42,2.87,.37,.24,.71,.46,.96,.64l-.7,.92c-.24-.2-.57-.44-.95-.7-.89,1.01-2.11,1.94-3.81,2.59l-.91-.8c1.76-.53,2.98-1.44,3.85-2.37-.74-.48-1.51-.95-2.05-1.25l.66-.75c.56,.29,1.33,.73,2.06,1.17,.55-.79,1-1.73,1.18-2.43h-3.18c-.66,.91-1.56,1.87-2.63,2.6l-.86-.65c1.74-1.07,2.73-2.52,3.2-3.41,.13-.2,.31-.61,.38-.9l1.14,.36c-.19,.3-.41,.68-.51,.88l-.12,.22h2.43c.28,0,.56-.04,.75-.11l.81,.5Z"/><path d="M150,157.51c.32,.03,.94,.06,1.48,.06h5.43c.49,0,.88-.04,1.12-.06v1.23c-.22,0-.67-.04-1.11-.04h-5.44c-.56,0-1.15,.02-1.48,.04v-1.23Z"/><path d="M163.36,159.81c1.61-.99,2.86-2.49,3.47-3.77l.61,1.09c-.72,1.29-1.95,2.66-3.51,3.62-1.01,.62-2.28,1.21-3.83,1.49l-.67-1.03c1.67-.25,2.97-.81,3.93-1.4Zm-.34-3.2l-.79,.81c-.52-.53-1.76-1.61-2.5-2.12l.73-.78c.71,.47,2,1.51,2.56,2.09Z"/></g><g><path d="M190.38,158.61v4.13h-.96v-.59h-5.91v.61h-.94v-4.15h.94v2.63h2.41v-3.23h-2.97v-3.49h.93v2.59h2.04v-3.46h.95v3.46h2.14v-2.6h.98v3.5h-3.12v3.23h2.55v-2.63h.96Z"/><path d="M195.5,156.34c-.87,.29-1.8,.56-2.54,.79l-.37-.82c.73-.15,1.79-.43,2.82-.7l.09,.73Zm.92,5.21c-.81,.49-2.06,.97-3.06,1.24-.16-.18-.49-.53-.7-.69,1.03-.2,2.22-.55,2.91-.94l.85,.39Zm-1.27-6.33c-.47-.25-1.39-.61-2.09-.82l.41-.63c.68,.17,1.61,.5,2.09,.74l-.41,.71Zm1.89-.27c-.24,.3-.52,.58-.85,.83-.17-.16-.48-.36-.7-.45,.74-.5,1.23-1.17,1.48-1.75l.84,.13c-.09,.19-.19,.38-.31,.57h3.21l.14-.03,.62,.16c-.26,.52-.63,1.1-.97,1.45l-.73-.23c.17-.18,.34-.43,.5-.68h-1.38c.22,.72,.78,1.36,2.81,1.63-.17,.18-.39,.53-.47,.76-.28-.05-.54-.11-.77-.17v3.97h-6.52v-4.02h2.01c-.09-.2-.27-.47-.41-.61,1.61-.26,2.18-.74,2.41-1.56h-.91Zm2.49,2.76h-4.69v.56h4.69v-.56Zm0,1.12h-4.69v.57h4.69v-.57Zm0,1.14h-4.69v.58h4.69v-.58Zm.77-2.85c-1-.31-1.52-.78-1.83-1.31-.38,.61-1.04,1.03-2.23,1.31h4.06Zm-1.69,4.06c1.07,.36,2.27,.82,2.99,1.16l-1.07,.44c-.59-.32-1.64-.77-2.68-1.13l.76-.47Z"/></g><g><path d="M232.65,154.39c-.02,.21-.04,.46-.04,.74v3.35c0,.26,.02,.61,.04,.81h-1.17c0-.17,.05-.52,.05-.81v-3.35c0-.18-.02-.53-.04-.74h1.16Zm4.62-.08c-.02,.26-.04,.56-.04,.92v1.78c0,2.29-.36,3.14-1.1,3.98-.65,.76-1.66,1.21-2.39,1.46l-.83-.87c.95-.24,1.81-.62,2.42-1.31,.7-.79,.83-1.57,.83-3.32v-1.72c0-.36-.03-.66-.06-.92h1.17Z"/><path d="M248.25,155.57c-.09,.17-.21,.42-.28,.62-.25,.83-.74,1.89-1.42,2.87,.37,.24,.71,.46,.96,.64l-.7,.92c-.24-.2-.57-.44-.95-.7-.89,1.01-2.11,1.94-3.81,2.59l-.91-.8c1.76-.53,2.98-1.44,3.85-2.37-.74-.48-1.51-.95-2.05-1.25l.66-.75c.56,.29,1.33,.73,2.06,1.17,.55-.79,1-1.73,1.18-2.43h-3.18c-.66,.91-1.56,1.87-2.63,2.6l-.86-.65c1.74-1.07,2.73-2.52,3.2-3.41,.13-.2,.31-.61,.38-.9l1.14,.36c-.19,.3-.41,.68-.51,.88l-.12,.22h2.43c.28,0,.56-.04,.75-.11l.81,.5Z"/><path d="M250.49,157.51c.32,.03,.94,.06,1.48,.06h5.43c.49,0,.88-.04,1.12-.06v1.23c-.22,0-.67-.04-1.11-.04h-5.44c-.56,0-1.15,.02-1.48,.04v-1.23Z"/><path d="M263.85,159.81c1.61-.99,2.86-2.49,3.47-3.77l.61,1.09c-.72,1.29-1.95,2.66-3.51,3.62-1.01,.62-2.28,1.21-3.83,1.49l-.67-1.03c1.67-.25,2.97-.81,3.93-1.4Zm-.34-3.2l-.79,.81c-.52-.53-1.76-1.61-2.5-2.12l.73-.78c.71,.47,2,1.51,2.56,2.09Z"/></g><rect class="cls-9" x="53.76" y="65.37" width="123.9" height="54.19"/><rect class="cls-10" x="189.74" y="65.37" width="53.51" height="54.19"/><g><path class="cls-6" d="M127.1,233.11v1.51h-11.84v-1.51h2.79v-2.5h-2.34v-1.5h2.34v-2.4h1.61v2.4h2.99v-2.4h1.61v2.4h2.43v1.5h-2.43v2.5h2.83Zm-6.84,2.64c-.97,1.12-2.41,2.29-3.65,3.03-.34-.34-.91-.83-1.27-1.08,1.22-.65,2.6-1.72,3.29-2.59l1.64,.64Zm-.6-2.64h2.99v-2.5h-2.99v2.5Zm3.81,1.96c1.11,.79,2.72,2,3.54,2.79l-1.53,.91c-.71-.79-2.26-2.05-3.42-2.94l1.42-.77Z"/><path class="cls-6" d="M143.57,236.99c0,.81-.17,1.23-.66,1.49-.49,.26-1.22,.3-2.3,.3-.06-.43-.3-1.13-.53-1.53,.69,.04,1.44,.04,1.66,.03,.22-.01,.31-.09,.31-.3v-8.27h-8v10.06h-1.51v-11.53h11.02v9.75Zm-2.29-6.07h-6.49v-1.3h6.49v1.3Zm-4.45,5.34v.86h-1.43v-5.2h5.29v4.34h-3.86Zm0-3.07v1.79h2.43v-1.79h-2.43Z"/><path class="cls-6" d="M152.17,233.97v3.12c0,.77-.14,1.14-.56,1.38-.44,.23-1.07,.27-1.98,.27-.05-.39-.25-1.01-.43-1.42,.49,.03,1.04,.03,1.21,.03,.17-.01,.23-.06,.23-.25v-2.65c-.49,.16-.98,.3-1.42,.43l-.42-1.61c.51-.09,1.13-.23,1.83-.4v-2.4h-1.64v-1.43h1.64v-2.39h1.52v2.39h1.29v1.43h-1.29v2.03l1.08-.26,.16,1.34-1.24,.4Zm8.18-1.46c-.44,1.57-1.16,2.81-2.12,3.76,.86,.49,1.87,.86,3.02,1.08-.35,.34-.78,.99-1.01,1.4-1.27-.3-2.37-.79-3.28-1.44-1.01,.66-2.18,1.14-3.48,1.47-.16-.42-.51-1.07-.79-1.42,1.13-.22,2.17-.58,3.06-1.12-.62-.66-1.13-1.46-1.56-2.35l1.09-.34h-1.42v-1.39h.26c-.18-.31-.73-.9-1.01-1.12,1.29-.74,1.44-1.75,1.44-2.61v-1.33h4.6v2.82c0,.35,.04,.39,.19,.39h.36c.2,0,.23-.18,.26-1.31,.29,.22,.87,.46,1.26,.55-.13,1.6-.46,2.04-1.35,2.04h-.82c-1.07,0-1.39-.38-1.39-1.65v-1.4h-1.66c-.01,1.22-.38,2.69-1.85,3.63h4.9l.29-.05,1.01,.4Zm-4.75,1.04c.34,.68,.79,1.27,1.35,1.79,.56-.51,1.01-1.1,1.35-1.79h-2.7Z"/><path class="cls-6" d="M174.27,236.58c1.33,.47,2.82,1.09,3.71,1.52l-1.79,.69c-.74-.43-2.07-1.04-3.38-1.53l1.17-.68h-3.8l1.18,.52c-1.08,.7-2.74,1.34-4.06,1.7-.27-.3-.82-.86-1.14-1.13,1.26-.23,2.68-.65,3.58-1.09h-1.91v-5.28h2.72c-.16-.31-.4-.69-.61-.9v.05c-1.1,.32-2.31,.68-3.29,.95l-.57-1.35c.96-.18,2.35-.51,3.73-.83l.13,1.17c2.07-.34,2.76-.9,3.04-1.82h-.94c-.3,.36-.64,.72-1.04,1.04-.27-.27-.81-.58-1.16-.73,.94-.65,1.57-1.51,1.91-2.26l1.37,.22c-.1,.22-.21,.43-.34,.64h3.83l.23-.04,1.03,.26c-.34,.7-.81,1.48-1.23,1.96l-1.2-.38c.16-.19,.34-.44,.51-.72h-1.44c.27,.83,1.01,1.55,3.64,1.86-.29,.29-.62,.88-.77,1.26-.31-.05-.6-.1-.86-.17v5.06h-2.25Zm-4.91-7.66c-.6-.32-1.82-.79-2.72-1.05l.68-1.05c.86,.21,2.09,.62,2.74,.94l-.7,1.17Zm-.04,3.86h5.63v-.56h-5.63v.56Zm0,1.43h5.63v-.56h-5.63v.56Zm0,1.44h5.63v-.57h-5.63v.57Zm6.47-4.35c-1-.36-1.6-.85-1.99-1.4-.46,.61-1.18,1.07-2.38,1.4h4.37Z"/></g><g><circle class="cls-3" cx="216.49" cy="92.47" r="7.35"/><polygon class="cls-9" points="219.32 88.92 218.3 88.92 216.49 92.06 214.68 88.92 213.66 88.92 215.86 92.73 214.57 92.73 214.57 93.46 216.05 93.46 216.05 94.23 214.57 94.23 214.57 94.95 216.05 94.95 216.05 96.01 216.94 96.01 216.94 94.95 218.41 94.95 218.41 94.23 216.94 94.23 216.94 93.46 218.41 93.46 218.41 92.73 217.13 92.73 219.32 88.92"/></g><g><g><circle class="cls-4" cx="91.82" cy="82.27" r="7.35"/><polygon class="cls-6" points="94.65 78.73 93.63 78.73 91.82 81.86 90.01 78.73 88.99 78.73 91.19 82.54 89.9 82.54 89.9 83.26 91.38 83.26 91.38 84.03 89.9 84.03 89.9 84.75 91.38 84.75 91.38 85.82 92.27 85.82 92.27 84.75 93.74 84.75 93.74 84.03 92.27 84.03 92.27 83.26 93.74 83.26 93.74 82.54 92.46 82.54 94.65 78.73"/></g><g><circle class="cls-4" cx="115.71" cy="82.27" r="7.35"/><polygon class="cls-6" points="118.54 78.73 117.52 78.73 115.71 81.86 113.9 78.73 112.88 78.73 115.08 82.54 113.79 82.54 113.79 83.26 115.27 83.26 115.27 84.03 113.79 84.03 113.79 84.75 115.27 84.75 115.27 85.82 116.15 85.82 116.15 84.75 117.63 84.75 117.63 84.03 116.15 84.03 116.15 83.26 117.63 83.26 117.63 82.54 116.34 82.54 118.54 78.73"/></g><g><circle class="cls-4" cx="139.6" cy="82.27" r="7.35"/><polygon class="cls-6" points="142.42 78.73 141.41 78.73 139.6 81.86 137.79 78.73 136.77 78.73 138.97 82.54 137.68 82.54 137.68 83.26 139.16 83.26 139.16 84.03 137.68 84.03 137.68 84.75 139.16 84.75 139.16 85.82 140.04 85.82 140.04 84.75 141.52 84.75 141.52 84.03 140.04 84.03 140.04 83.26 141.52 83.26 141.52 82.54 140.23 82.54 142.42 78.73"/></g><g><circle class="cls-4" cx="91.82" cy="102.66" r="7.35"/><polygon class="cls-6" points="94.65 99.12 93.63 99.12 91.82 102.26 90.01 99.12 88.99 99.12 91.19 102.93 89.9 102.93 89.9 103.65 91.38 103.65 91.38 104.42 89.9 104.42 89.9 105.15 91.38 105.15 91.38 106.21 92.27 106.21 92.27 105.15 93.74 105.15 93.74 104.42 92.27 104.42 92.27 103.65 93.74 103.65 93.74 102.93 92.46 102.93 94.65 99.12"/></g><g><circle class="cls-4" cx="115.71" cy="102.66" r="7.35"/><polygon class="cls-6" points="118.54 99.12 117.52 99.12 115.71 102.26 113.9 99.12 112.88 99.12 115.08 102.93 113.79 102.93 113.79 103.65 115.27 103.65 115.27 104.42 113.79 104.42 113.79 105.15 115.27 105.15 115.27 106.21 116.15 106.21 116.15 105.15 117.63 105.15 117.63 104.42 116.15 104.42 116.15 103.65 117.63 103.65 117.63 102.93 116.34 102.93 118.54 99.12"/></g><g><circle class="cls-4" cx="139.6" cy="102.66" r="7.35"/><polygon class="cls-6" points="142.42 99.12 141.41 99.12 139.6 102.26 137.79 99.12 136.77 99.12 138.97 102.93 137.68 102.93 137.68 103.65 139.16 103.65 139.16 104.42 137.68 104.42 137.68 105.15 139.16 105.15 139.16 106.21 140.04 106.21 140.04 105.15 141.52 105.15 141.52 104.42 140.04 104.42 140.04 103.65 141.52 103.65 141.52 102.93 140.23 102.93 142.42 99.12"/></g></g><g><path d="M195.41,50.84c-.21,.34-.42,.69-.66,1.03v6.51h-1.01v-5.25c-.96,1.07-2.12,2.02-3.41,2.7-.15-.25-.44-.63-.64-.83,1.9-.93,3.54-2.53,4.5-4.16h-4.22v-.95h8.56v.95h-3.12Zm.08,1.52c1.12,.75,2.64,1.88,3.37,2.65l-.78,.72c-.67-.77-2.15-1.96-3.29-2.77l.7-.6Z"/><path d="M209.54,51.49s0,.32,0,.43c-.11,4.13-.2,5.55-.52,5.98-.19,.3-.4,.38-.71,.43-.3,.04-.76,.04-1.23,.01-.02-.25-.12-.63-.26-.88,.46,.04,.87,.04,1.05,.04,.17,0,.26-.03,.36-.16,.22-.28,.32-1.55,.4-4.99h-1.18c-.13,2.66-.58,4.78-2.3,6.1-.14-.21-.45-.54-.67-.69,.06-.04,.12-.09,.18-.14-1.44,.17-2.88,.32-3.95,.42l-.12-.79c.58-.04,1.3-.1,2.09-.17v-.76h-1.82v-.68h1.82v-.51h-1.79v-3.01h1.79v-.52h-2.06v-.69h2.06v-.56c-.61,.05-1.22,.08-1.78,.1-.03-.19-.13-.49-.22-.67,1.48-.08,3.25-.26,4.29-.49l.44,.7c-.53,.11-1.19,.21-1.88,.28v.64h2.02v.58h1.05c.01-.68,.01-1.39,.01-2.14h.89c0,.74,0,1.46-.02,2.14h2.07Zm-7.9,1.85h1.03v-.61h-1.03v.61Zm1.03,1.18v-.61h-1.03v.61h1.03Zm.85,2.48c.62-.06,1.26-.12,1.89-.19,.82-1.13,1.07-2.64,1.15-4.46h-1.06v-.75h-1.98v.52h1.86v3.01h-1.86v.51h1.88v.68h-1.88v.68Zm1.07-3.66v-.61h-1.07v.61h1.07Zm-1.07,.57v.61h1.07v-.61h-1.07Z"/><path d="M220.45,52.08v.81h-7.34v.77c0,1.34-.17,3.37-1.07,4.71-.15-.16-.53-.49-.71-.59,.8-1.23,.89-2.94,.89-4.12v-1.58h1.87c-.08-.34-.26-.8-.45-1.16l.36-.09h-1.9v-.81h3.44v-.82h.93v.82h3.48v.81h-1.42l.13,.03c-.25,.43-.5,.88-.71,1.22h2.5Zm-3.18,5.32h3.13v.79h-7.04v-.79h3v-1.1h-2.18v-.72h2.18v-.92h-1.71c-.21,.34-.45,.64-.68,.88-.17-.13-.53-.35-.74-.45,.55-.49,1.01-1.25,1.27-2.01l.83,.19c-.08,.22-.17,.44-.27,.65h1.3v-.82h.91v.82h2.56v.74h-2.56v.92h2.29v.72h-2.29v1.1Zm-2.72-6.57c.21,.37,.4,.83,.46,1.15l-.36,.1h2.69l-.25-.08c.15-.33,.34-.79,.46-1.17h-3Z"/><path d="M224.65,52.38c-.55,.39-1.14,.75-1.74,1.04-.1-.21-.35-.56-.55-.76,1.71-.78,3.34-2.22,4.09-3.44h.96c1.06,1.47,2.72,2.69,4.28,3.3-.22,.23-.43,.56-.59,.84-.58-.28-1.19-.63-1.77-1.04v.78h-4.68v-.72Zm-1.72,1.76h8.21v.87h-4.58c-.33,.67-.7,1.42-1.06,2.06,1.11-.04,2.35-.09,3.57-.14-.37-.42-.77-.84-1.16-1.19l.8-.43c.91,.77,1.86,1.83,2.32,2.57l-.85,.53c-.11-.19-.26-.41-.44-.65-2.38,.12-4.92,.23-6.62,.3l-.12-.91,1.48-.05c.33-.62,.69-1.42,.93-2.09h-2.48v-.87Zm6.29-1.9c-.9-.64-1.72-1.39-2.25-2.12-.48,.7-1.24,1.45-2.13,2.12h4.38Z"/><path d="M237.03,55.59c-.23-.29-.68-.77-1.09-1.18v3.98h-.92v-3.69c-.45,.44-.93,.82-1.4,1.12-.09-.24-.32-.68-.46-.86,1.14-.65,2.29-1.81,2.97-3.06h-2.62v-.85h1.51v-1.84h.92v1.84h.69l.16-.03,.52,.35c-.3,.76-.74,1.49-1.24,2.15,.47,.38,1.3,1.1,1.53,1.31l-.57,.76Zm5.58,1.6v.92h-5.6v-.92h2.42v-3.92h-2.02v-.9h2.02v-3.08h.95v3.08h2.02v.9h-2.02v3.92h2.23Z"/></g><g><path d="M39.24,82.36c-.22,.66-.48,1.33-.78,1.97v6.92h-.88v-5.3c-.26,.41-.52,.78-.8,1.1-.08-.23-.32-.75-.46-.98,.83-.97,1.6-2.45,2.06-3.95l.86,.24Zm5.62,6.5c-.34,.5-.84,.93-1.49,1.29,.73,.19,1.56,.32,2.44,.38-.17,.18-.4,.53-.51,.76-1.1-.11-2.11-.34-2.97-.68-.84,.3-1.83,.52-2.97,.67-.09-.2-.3-.5-.46-.67,.95-.11,1.79-.26,2.5-.46-.32-.2-.62-.42-.88-.67-.32,.17-.68,.34-1.07,.49-.11-.19-.35-.45-.53-.57,1.05-.34,1.85-.8,2.35-1.27-.25-.1-.33-.29-.33-.66v-.58h.76v.58c0,.2,.06,.22,.36,.22h1.07c.22,0,.27-.05,.3-.4,.14,.08,.42,.17,.61,.2-.06,.58-.25,.72-.8,.72h-1.01c-.12,.13-.26,.26-.4,.38h2.3l.16-.04,.57,.31Zm-4.98-1.4c.18-.18,.34-.37,.46-.55l.6,.33c-.26,.39-.63,.84-1.07,1.12l-.57-.46c.2-.1,.39-.25,.56-.42h-.79v-1.36h.95v-2.49h1.7c.03-.14,.07-.29,.09-.44h-2.43v-.69h6.12v.69h-2.71c-.06,.15-.12,.3-.18,.44h2.19v2.49h.9v1.36h-.67c.18,.19,.34,.38,.44,.54l-.61,.34c-.2-.34-.66-.83-1.07-1.17l.57-.32c.16,.13,.34,.29,.5,.44v-.64h-2.17c.21,.16,.4,.33,.52,.48l-.56,.36c-.2-.26-.6-.6-.96-.82l.03-.02h-1.84v.79Zm.98-3.33v.37h3.07v-.37h-3.07Zm3.07,.79h-3.07v.38h3.07v-.38Zm-3.07,1.2h3.07v-.38h-3.07v.38Zm.37,3.02c.31,.27,.7,.49,1.16,.68,.48-.2,.88-.43,1.18-.68h-2.34Z"/><path d="M44.33,101.03c.33,0,.39-.2,.43-1.44,.2,.16,.6,.31,.84,.38-.09,1.53-.34,1.94-1.19,1.94h-1.3c-.99,0-1.23-.3-1.23-1.24v-2.7h-1.68c-.22,1.85-.76,3.32-3.03,4.15-.11-.25-.37-.62-.58-.82,2.05-.63,2.46-1.84,2.63-3.33h-2.48v-.9h3.9v-1.84h-1.91c-.24,.54-.51,1.05-.82,1.46-.22-.15-.59-.35-.82-.44,.67-.82,1.16-2.16,1.38-3.17l.95,.18c-.1,.34-.21,.71-.34,1.08h1.56v-1.46h.94v1.46h3.17v.89h-3.17v1.84h3.91v.9h-2.67v2.7c0,.31,.06,.36,.4,.36h1.11Z"/></g><g><path d="M258.4,87.45s-.01,.26-.03,.39c-.16,1.87-.33,2.68-.65,2.99-.22,.24-.46,.3-.82,.33-.31,.02-.9,.02-1.51-.01-.01-.27-.14-.64-.3-.9,.58,.06,1.17,.07,1.41,.07,.2,0,.31-.02,.42-.11,.19-.16,.32-.72,.44-1.93h-2.46c-.45,1.5-1.51,2.48-4.22,3-.08-.23-.3-.61-.47-.8,2.33-.4,3.3-1.1,3.73-2.2h-2.66v-.83h2.89c.05-.31,.09-.63,.12-.99-1.17,.51-2.51,.85-3.89,1.09-.09-.23-.34-.65-.51-.85,2.75-.36,5.24-1.16,6.38-2.75l.92,.34c-.63,.85-1.5,1.5-2.53,2h.56c-.03,.41-.07,.8-.13,1.16h3.31Zm-5.46-4.57c-.51,.95-1.34,1.85-2.12,2.4-.18-.15-.58-.43-.81-.56,.8-.49,1.58-1.28,2-2.1l.93,.26Zm1.9,1.62c0,.44-.09,.67-.43,.79-.33,.13-.83,.13-1.56,.13-.04-.23-.17-.58-.29-.8,.5,.02,1.04,.02,1.17,0,.15,0,.2-.04,.2-.16v-2.39h.91v2.42Zm3.3,.74c-.4-.64-1.32-1.58-2.11-2.24l.75-.46c.79,.62,1.74,1.51,2.18,2.16l-.82,.54Z"/><path d="M252.81,95.24c-.23,.42-.51,.84-.81,1.25v5.59h-.87v-4.55c-.32,.35-.65,.67-.98,.93-.09-.19-.36-.65-.51-.85,.88-.64,1.79-1.65,2.35-2.66l.82,.29Zm-.2-2.04c-.6,.86-1.52,1.8-2.37,2.39-.11-.18-.35-.51-.5-.67,.75-.52,1.61-1.35,2.03-2.04l.84,.32Zm5.5,5.05c-.36,.88-.92,1.58-1.62,2.15,.76,.41,1.66,.71,2.63,.88-.19,.19-.44,.56-.56,.8-1.06-.23-2.01-.62-2.82-1.15-.88,.54-1.9,.92-2.97,1.16-.09-.23-.28-.61-.45-.79,.96-.17,1.89-.48,2.69-.92-.38-.32-.71-.69-1-1.09-.34,.3-.7,.55-1.06,.77-.12-.18-.42-.54-.62-.69,.91-.47,1.79-1.19,2.37-2.02-.8,.02-1.54,.04-2.16,.06l-.08-.84c.44,0,.96-.01,1.54-.02,.18-.15,.38-.32,.57-.49-.46-.48-1.2-1.07-1.84-1.49l.56-.6c.18,.12,.38,.24,.58,.38,.42-.45,.88-1.04,1.17-1.49l.81,.42c-.44,.52-.94,1.09-1.38,1.52,.29,.22,.55,.44,.76,.65,.64-.62,1.25-1.27,1.7-1.84l.83,.46c-.76,.8-1.71,1.72-2.6,2.46,.73-.01,1.5-.02,2.28-.04-.21-.28-.43-.54-.64-.78l.73-.39c.6,.65,1.3,1.55,1.58,2.16l-.77,.45c-.09-.2-.23-.44-.39-.7-.74,.03-1.5,.06-2.22,.08-.15,.24-.31,.48-.49,.71h2.14l.16-.03,.57,.26Zm-3.51,.51c.29,.43,.68,.82,1.13,1.16,.47-.34,.86-.74,1.15-1.19h-2.26l-.02,.03Z"/></g><g><path d="M96.89,53.19v1.02h-9.1v-1.02h9.1Z"/><path d="M102.67,54.05v3.45c0,.39-.08,.62-.33,.75-.25,.12-.61,.14-1.17,.14-.03-.2-.14-.55-.25-.74,.37,0,.72,0,.82,0,.12,0,.16-.04,.16-.15v-3.36l-1.63,.18c-.01,1.28-.12,2.98-.82,4.06-.13-.13-.45-.33-.64-.42,.62-1,.71-2.4,.72-3.56l-.62,.07-.09-.76,.71-.07v-3.07h.88c.13-.43,.27-.97,.33-1.37l1,.19c-.16,.4-.33,.83-.47,1.18h1.4v2.75l.44-.04v.72s-.44,.05-.44,.05Zm-.77-.65v-2.09h-1.63v2.26l1.63-.17Zm-.81-1.77c.25,.39,.47,.93,.54,1.28l-.61,.26c-.06-.36-.26-.91-.5-1.31l.57-.23Zm.23,5.17h-.56v-2.3h.56v2.3Zm6.3-3.15c-.29,1.23-.82,2.21-1.51,2.98,.57,.45,1.27,.79,2.08,.99-.18,.17-.44,.53-.56,.76-.84-.25-1.55-.64-2.15-1.16-.63,.52-1.35,.9-2.14,1.18-.11-.23-.33-.6-.51-.78,.74-.22,1.43-.57,2.02-1.04-.49-.6-.88-1.31-1.17-2.12l.66-.15h-1v-.83h3.55l.16-.04,.57,.21Zm-2.99-2.75c0,.8-.16,1.79-.97,2.44-.14-.15-.48-.44-.67-.54,.72-.55,.81-1.3,.81-1.92v-1.29h2.99v2.25c0,.17,0,.28,.04,.31,.03,.03,.08,.04,.14,.04h.22c.07,0,.14-.01,.17-.03,.04-.03,.08-.09,.1-.22,.02-.13,.03-.43,.04-.81,.15,.14,.45,.29,.67,.36-.02,.38-.06,.81-.11,.97-.06,.17-.17,.29-.32,.36-.12,.06-.32,.09-.48,.09h-.51c-.2,0-.45-.05-.59-.2-.15-.14-.21-.32-.21-.89v-1.42h-1.32v.5Zm-.19,3.41c.23,.64,.58,1.21,1.02,1.71,.44-.48,.79-1.06,1.04-1.71h-2.06Z"/><path d="M113.32,54.33c-.34,.12-.69,.24-1.03,.35v2.66c0,.48-.1,.73-.4,.88-.28,.13-.71,.16-1.4,.15-.03-.23-.14-.61-.26-.85,.42,.02,.83,.02,.96,.01,.13,0,.18-.04,.18-.19v-2.35c-.43,.14-.85,.28-1.22,.39l-.27-.96c.4-.09,.92-.23,1.49-.39v-2.06h-1.36v-.86h1.36v-1.9h.92v1.9h1.05v.86h-1.05v1.81l.93-.26,.1,.81Zm5.23-.65c-.36,1.21-.96,2.15-1.74,2.89,.69,.45,1.51,.78,2.46,.97-.2,.21-.48,.59-.61,.84-1.02-.25-1.89-.65-2.62-1.19-.8,.55-1.73,.95-2.74,1.21-.1-.25-.32-.64-.49-.85,.92-.19,1.78-.52,2.52-.99-.55-.57-1-1.25-1.34-2.04l.65-.2h-.94v-.85h4.07l.17-.04,.61,.25Zm-3.41-3.07c0,.91-.26,2.03-1.38,2.75-.11-.19-.45-.54-.62-.67,.98-.61,1.13-1.42,1.13-2.1v-1h3.38v2.29c0,.24,.02,.27,.17,.27h.43c.17,0,.21-.14,.23-1.1,.18,.15,.53,.28,.77,.34-.07,1.21-.29,1.53-.9,1.53h-.68c-.72,0-.92-.22-.92-1.03v-1.44h-1.61v.16Zm-.28,3.71c.29,.64,.7,1.2,1.21,1.68,.53-.46,.96-1.02,1.26-1.68h-2.47Z"/><path d="M123.99,51.97c-.87,.29-1.8,.56-2.54,.79l-.37-.82c.73-.15,1.79-.43,2.82-.7l.09,.73Zm.92,5.21c-.81,.49-2.06,.97-3.06,1.24-.16-.18-.49-.53-.7-.69,1.03-.2,2.22-.55,2.91-.94l.85,.39Zm-1.27-6.33c-.47-.25-1.39-.61-2.09-.82l.41-.63c.68,.17,1.61,.5,2.09,.74l-.41,.71Zm1.89-.27c-.24,.3-.52,.58-.85,.83-.17-.16-.48-.36-.7-.45,.74-.5,1.23-1.17,1.48-1.75l.84,.13c-.09,.19-.19,.38-.31,.57h3.21l.14-.03,.62,.16c-.26,.52-.63,1.1-.97,1.45l-.73-.23c.17-.18,.34-.43,.5-.68h-1.38c.22,.72,.78,1.36,2.81,1.63-.17,.18-.39,.53-.47,.76-.28-.05-.54-.11-.77-.17v3.97h-6.52v-4.02h2.01c-.09-.2-.27-.47-.41-.61,1.61-.26,2.18-.74,2.41-1.56h-.91Zm2.49,2.76h-4.69v.56h4.69v-.56Zm0,1.12h-4.69v.57h4.69v-.57Zm0,1.14h-4.69v.58h4.69v-.58Zm.77-2.85c-1-.31-1.52-.78-1.83-1.31-.38,.61-1.04,1.03-2.23,1.31h4.06Zm-1.69,4.06c1.07,.36,2.27,.82,2.99,1.16l-1.07,.44c-.59-.32-1.64-.77-2.68-1.13l.76-.47Z"/><path d="M140.55,53.38c-.58,.46-1.32,.95-1.95,1.3,.59,.97,1.39,1.73,2.41,2.15-.22,.19-.51,.55-.65,.81-1.84-.89-2.92-2.76-3.52-5.1h-.02c-.27,.23-.59,.45-.92,.64,1.89,1.65,1.85,4.16,.88,4.86-.35,.28-.64,.37-1.12,.37-.25,0-.55-.01-.86-.03-.02-.25-.1-.62-.26-.89,.36,.04,.69,.05,.93,.05,.26,0,.47-.02,.66-.2,.3-.22,.45-.82,.33-1.53-1.09,.85-2.66,1.68-3.98,2.12-.12-.22-.31-.57-.49-.77,1.47-.38,3.23-1.26,4.22-2.15-.08-.17-.17-.34-.27-.51-.85,.59-2.13,1.23-3.13,1.59-.1-.22-.3-.53-.47-.72,1.03-.27,2.41-.87,3.17-1.43-.11-.12-.23-.24-.37-.35-.77,.37-1.62,.67-2.41,.89-.09-.17-.34-.56-.49-.72,1.14-.26,2.37-.68,3.28-1.22h-1.84v-.8h5.47v.8h-1.47c.14,.5,.32,.99,.53,1.44,.57-.37,1.2-.84,1.61-1.22l.73,.62Zm-7.32-1.25h-.92v-2.08h3.64v-.84h.96v.84h3.7v2.08h-.94v-1.23h-6.44v1.23Z"/></g><polyline class="cls-5" points="122.17 181.4 122.17 133.95 130.91 143.99"/><polyline class="cls-5" points="109.24 133.95 109.24 181.4 100.5 171.36"/><g><polyline class="cls-2" points="222.71 181.4 222.71 133.95 228.05 140.59"/><polyline class="cls-2" points="210.03 133.95 210.03 181.4 204.69 174.77"/></g></g><g><g><path d="M91.53,337.29c.43,.69,1.22,1,2.33,1.05,1.13,.05,3.45,.02,4.72-.07-.11,.21-.25,.64-.3,.91-1.15,.05-3.27,.07-4.43,.03-1.24-.05-2.1-.38-2.71-1.15-.42,.41-.86,.81-1.35,1.24l-.46-.92c.4-.27,.89-.65,1.31-1.02v-2.41h-1.2v-.86h2.09v3.2Zm-.48-4.64c-.28-.5-.95-1.19-1.54-1.67l.71-.52c.58,.45,1.28,1.11,1.58,1.6l-.75,.59Zm3.64,4.62h-2.73v-.7h2.73v-.49h-2.09v-2.86h2.09v-.5h-2.36v-.67h2.36v-.62h.91v.62h2.4v.67h-2.4v.5h2.16v2.86h-2.16v.49h2.82v.7h-2.82v.82h-.91v-.82Zm-1.77-5.41h-.82v-1.32h6.17v1.32h-.86v-.63h-4.49v.63Zm.48,2.5h1.29v-.54h-1.29v.54Zm1.29,1.12v-.56h-1.29v.56h1.29Zm.91-1.66v.54h1.33v-.54h-1.33Zm1.33,1.1h-1.33v.56h1.33v-.56Z"/><path d="M108.87,338.22c0,.54-.13,.82-.49,.96-.37,.15-.95,.17-1.87,.16-.04-.25-.19-.66-.31-.9,.64,.03,1.3,.02,1.49,.02s.25-.06,.25-.25v-1.79h-2.42v2.86h-.93v-2.86h-2.3c-.16,1.1-.52,2.22-1.25,3.03-.14-.18-.52-.5-.73-.61,1.09-1.21,1.19-2.98,1.19-4.39v-3.56h7.37v7.33Zm-4.28-2.68v-1.48h-2.17v.4c0,.34,0,.71-.04,1.08h2.21Zm-2.17-3.76v1.41h2.17v-1.41h-2.17Zm5.52,0h-2.42v1.41h2.42v-1.41Zm0,3.76v-1.48h-2.42v1.48h2.42Z"/><path d="M114.18,333.18h1.81v.86h-1.81v.66c.49,.36,1.54,1.26,1.81,1.5l-.53,.79c-.28-.32-.81-.87-1.28-1.32v3.71h-.91v-3.97c-.49,1.03-1.11,2.04-1.73,2.67-.1-.27-.34-.66-.49-.9,.76-.72,1.56-1.99,2.03-3.14h-1.81v-.86h2v-1.49c-.61,.12-1.23,.22-1.81,.29-.04-.21-.17-.53-.28-.72,1.45-.22,3.12-.57,4.07-.99l.67,.71c-.5,.2-1.1,.37-1.74,.52v1.68Zm3.3,3.73h-.9v-5.5h.9v5.5Zm2.42-6.5v7.81c0,.58-.14,.85-.49,1.01-.37,.14-.97,.17-1.88,.17-.05-.26-.19-.69-.33-.96,.68,.03,1.31,.03,1.51,.02,.19,0,.26-.06,.26-.24v-7.81h.93Z"/><path d="M128.45,333.11c.7,1.07,1.78,2.06,2.88,2.58-.2,.17-.5,.52-.64,.74-.29-.15-.57-.34-.85-.54v2.38h1.32v.82h-9.03v-.82h1.35v-2.33c-.27,.22-.55,.43-.83,.61-.15-.19-.5-.55-.72-.71,1.11-.63,2.12-1.6,2.78-2.73h-2.37v-.82h2.44c-.24-.5-.65-1.16-1.03-1.66l.79-.35c.45,.55,.92,1.27,1.14,1.76l-.49,.25h2.93l-.56-.2c.39-.51,.88-1.3,1.15-1.88l.98,.29c-.39,.63-.86,1.31-1.25,1.79h2.51v.82h-2.5Zm.94,2.41c-.77-.67-1.45-1.51-1.94-2.41h-1.66c-.48,.91-1.12,1.73-1.84,2.41h5.44Zm-4.1,.8h-.97v1.95h.97v-1.95Zm1.84,0h-.99v1.95h.99v-1.95Zm1.84,1.95v-1.95h-.99v1.95h.99Z"/></g><g><path d="M166.06,337.23c-.25,.82-.68,1.64-1.13,2.17-.16-.14-.51-.37-.7-.48,.45-.47,.82-1.17,1.01-1.89l.82,.2Zm1.6-.35h-2.91v-6.3h2.91v6.3Zm-.84-5.54h-1.26v1.11h1.26v-1.11Zm0,1.82h-1.26v1.13h1.26v-1.13Zm0,1.83h-1.26v1.14h1.26v-1.14Zm.33,2.03c.32,.49,.67,1.14,.83,1.57l-.73,.35c-.13-.43-.49-1.12-.8-1.62l.7-.3Zm6.34,.75h-.53v.72c0,.41-.09,.63-.38,.76-.3,.13-.76,.13-1.45,.13-.03-.21-.14-.54-.25-.75,.46,.02,.92,.02,1.05,.01,.14,0,.17-.04,.17-.16v-.71h-2.89v1.63h-.83v-1.63h-.59v-.68h.59v-2.53h1.84v-.48h-2.39v-.69h1.35v-.53h-.9v-.66h.9v-.49h-1.15v-.69h1.15v-.81h.82v.81h1.28v-.81h.83v.81h1.15v.69h-1.15v.49h.99v.66h-.99v.53h1.36v.69h-2.43v.48h1.92v2.53h.53v.68Zm-4.28-2.52v.59h1.01v-.59h-1.01Zm0,1.84h1.01v-.64h-1.01v.64Zm.79-4.89h1.28v-.49h-1.28v.49Zm0,1.19h1.28v-.53h-1.28v.53Zm1.04,1.86v.59h1.06v-.59h-1.06Zm1.06,1.84v-.64h-1.06v.64h1.06Z"/><path d="M180.33,330.8c0,1.81,.23,5.52,4.04,7.77-.21,.16-.59,.56-.75,.79-2.27-1.37-3.34-3.41-3.83-5.25-.74,2.41-1.99,4.16-3.84,5.27-.18-.19-.61-.58-.86-.75,2.15-1.11,3.36-3.08,3.94-5.79l.51,.09c-.07-.42-.11-.83-.13-1.19h-2.38v-.94h3.3Z"/><path d="M195.02,330.13l.31,.31-9.04,9.04-.31-.31,9.04-9.04Z"/><path d="M198.5,337.29c.43,.69,1.22,1,2.33,1.05,1.13,.05,3.45,.02,4.72-.07-.11,.21-.25,.64-.3,.91-1.15,.05-3.27,.07-4.43,.03-1.24-.05-2.1-.38-2.71-1.15-.42,.41-.86,.81-1.35,1.24l-.46-.92c.4-.27,.89-.65,1.31-1.02v-2.41h-1.2v-.86h2.09v3.2Zm-.48-4.64c-.28-.5-.95-1.19-1.54-1.67l.71-.52c.58,.45,1.28,1.11,1.58,1.6l-.75,.59Zm3.64,4.62h-2.73v-.7h2.73v-.49h-2.09v-2.86h2.09v-.5h-2.36v-.67h2.36v-.62h.91v.62h2.4v.67h-2.4v.5h2.16v2.86h-2.16v.49h2.82v.7h-2.82v.82h-.91v-.82Zm-1.77-5.41h-.82v-1.32h6.17v1.32h-.86v-.63h-4.49v.63Zm.48,2.5h1.29v-.54h-1.29v.54Zm1.29,1.12v-.56h-1.29v.56h1.29Zm.91-1.66v.54h1.33v-.54h-1.33Zm1.33,1.1h-1.33v.56h1.33v-.56Z"/><path d="M215.84,338.22c0,.54-.13,.82-.49,.96-.37,.15-.95,.17-1.87,.16-.04-.25-.19-.66-.31-.9,.64,.03,1.3,.02,1.49,.02s.25-.06,.25-.25v-1.79h-2.42v2.86h-.93v-2.86h-2.3c-.16,1.1-.52,2.22-1.25,3.03-.14-.18-.52-.5-.73-.61,1.09-1.21,1.19-2.98,1.19-4.39v-3.56h7.37v7.33Zm-4.28-2.68v-1.48h-2.17v.4c0,.34,0,.71-.04,1.08h2.21Zm-2.17-3.76v1.41h2.17v-1.41h-2.17Zm5.52,0h-2.42v1.41h2.42v-1.41Zm0,3.76v-1.48h-2.42v1.48h2.42Z"/></g><g><polyline class="cls-2" points="142.28 358.04 142.28 310.59 136.94 317.22"/><polyline class="cls-2" points="154.96 310.59 154.96 358.04 160.3 351.4"/></g></g><g><path d="M132.45,36.08h-10.02v.6h-1.17v-11.41h10.84v1.09h-9.67v8.63h10.02v1.09Zm-5.91-5.55c-.14,.26-.31,.51-.48,.74h4.62v3.02h-5.59v-1.9c-.4,.39-.84,.74-1.31,1.03-.16-.19-.59-.61-.82-.79,.92-.51,1.71-1.22,2.33-2.09h-2.2v-.95h2.76c.07-.14,.13-.3,.2-.46h-.82v-.75h-1.94v-.92h1.94v-.7h1.08v.7h2.17v-.7h1.08v.7h1.95v.92h-1.95v.75h-1.08v-.75h-2.17v.32l.99,.21c-.08,.23-.17,.46-.26,.68h4.85v.95h-5.33Zm-.34,2.87h3.29v-1.25h-3.29v1.25Z"/><path d="M145.63,36.68h-1.25v-.53h-4.92v.51h-1.21v-3.9c-.97,.56-2,1.03-3.04,1.37-.14-.33-.46-.82-.69-1.08,1.62-.48,3.26-1.3,4.67-2.38-.53-.61-1.42-1.38-2.19-1.96-.49,.38-1.03,.75-1.6,1.09-.18-.3-.57-.74-.86-.94,2.13-1.16,3.59-2.77,4.34-4.17l1.36,.26c-.21,.36-.44,.71-.69,1.07h3.31l.22-.06,.82,.44c-.72,1.85-1.89,3.41-3.29,4.65h4.99v5.64Zm-6.93-9.59c-.25,.27-.51,.56-.79,.82,.78,.57,1.69,1.31,2.26,1.92,.86-.81,1.59-1.73,2.11-2.74h-3.57Zm5.68,7.97v-2.91h-4.92v2.91h4.92Z"/><path d="M150.47,32.35c-.17,1.22-.47,2.48-.87,3.31-.2-.14-.68-.36-.92-.46,.39-.78,.64-1.92,.77-3.04l1.03,.18Zm1.53-1.03v5.36h-1.08v-5.29c-.74,.04-1.43,.08-2.03,.12l-.1-1.07,.91-.03c.25-.31,.49-.65,.75-1.01-.4-.57-1.07-1.27-1.64-1.82l.59-.81c.12,.1,.23,.21,.35,.31,.4-.72,.83-1.65,1.07-2.35l1.09,.39c-.47,.88-1.01,1.91-1.48,2.61,.25,.26,.47,.52,.64,.75,.51-.78,.97-1.59,1.31-2.26l1.03,.44c-.74,1.18-1.72,2.61-2.59,3.69l1.73-.06c-.17-.36-.35-.71-.55-1.04l.87-.38c.53,.85,1.07,1.95,1.25,2.67l-.92,.44c-.05-.21-.13-.46-.23-.73l-.96,.06Zm1.2,.78c.35,.78,.7,1.79,.85,2.46l-.96,.34c-.12-.68-.47-1.7-.79-2.5l.91-.3Zm7.66,3.11v1.09h-7.55v-1.09h1.29v-9.79h5.33v9.79h.94Zm-5.08-8.7v2.13h2.93v-2.13h-2.93Zm2.93,3.22h-2.93v2.15h2.93v-2.15Zm-2.93,5.47h2.93v-2.24h-2.93v2.24Z"/><path d="M169.57,24.76c1.39,1.94,3.59,3.65,5.63,4.54-.3,.3-.58,.71-.79,1.08-.69-.36-1.42-.81-2.11-1.31v.92h-6.47v-.88c-.66,.49-1.38,.94-2.09,1.33-.14-.29-.49-.71-.74-.96,2.22-1.13,4.36-3.08,5.34-4.71h1.23Zm-4.48,6.7h8.01v5.23h-1.23v-.51h-5.59v.51h-1.18v-5.23Zm6.99-2.55c-1.22-.91-2.34-1.96-3.07-2.96-.66,.96-1.7,2.03-2.93,2.96h5.99Zm-5.81,3.64v2.55h5.59v-2.55h-5.59Z"/></g><rect id="_スライス_" class="cls-1" width="296" height="492"/></g></svg>