<svg xmlns="http://www.w3.org/2000/svg" xmlns:xlink="http://www.w3.org/1999/xlink" viewBox="0 0 898.77 359.67"><defs><style>.cls-1,.cls-2{fill:none;stroke-miterlimit:10;}.cls-1{stroke:#323230;}.cls-2{stroke:#cececa;}.cls-3{fill:#acaca5;}.cls-4{fill:#323230;}</style><symbol id="New_Symbol" data-name="New Symbol" viewBox="0 0 898.77 359.67"><line class="cls-1" x1="53.1" y1="316.63" x2="898.77" y2="316.63"/><line class="cls-2" x1="53.1" y1="262.09" x2="898.77" y2="262.09"/><line class="cls-2" x1="53.1" y1="207.54" x2="898.77" y2="207.54"/><line class="cls-2" x1="53.1" y1="152.99" x2="898.77" y2="152.99"/><line class="cls-2" x1="53.1" y1="98.45" x2="898.77" y2="98.45"/><line class="cls-2" x1="53.1" y1="43.9" x2="898.77" y2="43.9"/><rect class="cls-3" x="838.19" y="46.74" width="14" height="269.4"/><rect class="cls-3" x="793.93" y="62.64" width="14" height="253.5"/><rect class="cls-3" x="749.66" y="115.26" width="14" height="200.88"/><rect class="cls-3" x="705.4" y="156.27" width="14" height="159.87"/><rect class="cls-3" x="661.13" y="165.76" width="14" height="150.38"/><rect class="cls-3" x="616.87" y="207.24" width="14" height="108.9"/><rect class="cls-3" x="572.6" y="217.71" width="14" height="98.43"/><rect class="cls-3" x="528.34" y="241.2" width="14" height="74.94"/><rect class="cls-3" x="484.07" y="246.87" width="14" height="69.27"/><rect class="cls-3" x="439.81" y="250.95" width="14" height="65.19"/><rect class="cls-3" x="395.54" y="263.08" width="14" height="53.06"/><rect class="cls-3" x="351.27" y="275.08" width="14" height="41.06"/><rect class="cls-3" x="307.01" y="280.28" width="14" height="35.86"/><rect class="cls-3" x="262.74" y="302.92" width="14" height="13.22"/><rect class="cls-3" x="218.54" y="302.92" width="14" height="13.22"/><rect class="cls-3" x="174.21" y="309.85" width="14" height="6.29"/><rect class="cls-4" x="852.19" y="202.95" width="14" height="113.19"/><rect class="cls-4" x="807.93" y="217.71" width="14" height="98.43"/><rect class="cls-4" x="763.66" y="241.2" width="14" height="74.94"/><rect class="cls-4" x="719.4" y="243.17" width="14" height="72.97"/><rect class="cls-4" x="675.13" y="250.95" width="14" height="65.19"/><rect class="cls-4" x="630.87" y="275.08" width="14" height="41.06"/><rect class="cls-4" x="586.6" y="278.92" width="14" height="37.22"/><rect class="cls-4" x="542.34" y="284.66" width="14" height="31.48"/><rect class="cls-4" x="498.07" y="288.47" width="14" height="27.68"/><rect class="cls-4" x="453.81" y="290.55" width="14" height="25.59"/><rect class="cls-4" x="409.54" y="297.77" width="14" height="18.37"/><rect class="cls-4" x="365.27" y="302.73" width="14" height="13.41"/><rect class="cls-4" x="321.01" y="304.83" width="14" height="11.32"/><rect class="cls-4" x="276.74" y="311.29" width="14" height="4.85"/><rect class="cls-4" x="232.54" y="310.73" width="14" height="5.41"/><rect class="cls-4" x="188.21" y="313.24" width="14" height="2.9"/><rect class="cls-3" x="129.95" y="313.31" width="14" height="2.83"/><rect class="cls-4" x="143.95" y="313.92" width="14" height="2.22"/><rect class="cls-3" x="85.68" y="313.31" width="14" height="2.83"/><path d="M2.73,48.6a2.56,2.56,0,0,1-1.13-.25,2.67,2.67,0,0,1-.9-.7,2.62,2.62,0,0,1-.53-1l.94-.25a1.6,1.6,0,0,0,.35.67,1.79,1.79,0,0,0,.59.44,1.63,1.63,0,0,0,.71.16,1.71,1.71,0,0,0,.87-.23,1.75,1.75,0,0,0,.61-.63,1.57,1.57,0,0,0,.23-.85,1.68,1.68,0,0,0-.23-.86,1.75,1.75,0,0,0-.63-.61,1.67,1.67,0,0,0-.85-.23,1.68,1.68,0,0,0-.89.22,1.79,1.79,0,0,0-.59.53l-.87-.33.25-4.14H4.91v.92H1.13l.43-.4-.2,3.31-.22-.28a2.41,2.41,0,0,1,1.73-.73,2.55,2.55,0,0,1,1.32.34,2.62,2.62,0,0,1,.93.94,2.65,2.65,0,0,1,.34,1.32,2.49,2.49,0,0,1-.38,1.34,2.84,2.84,0,0,1-1,1A2.63,2.63,0,0,1,2.73,48.6Z"/><path d="M10.33,48.6A2.71,2.71,0,0,1,9,48.25a2.55,2.55,0,0,1-1-1,2.61,2.61,0,0,1-.35-1.37V43A2.61,2.61,0,0,1,8,41.65a2.55,2.55,0,0,1,1-.95,2.71,2.71,0,0,1,1.37-.35,2.77,2.77,0,0,1,1.38.35,2.62,2.62,0,0,1,.95.95A2.7,2.7,0,0,1,13,43v2.91a2.7,2.7,0,0,1-.34,1.37,2.62,2.62,0,0,1-.95,1A2.77,2.77,0,0,1,10.33,48.6Zm0-.94a1.67,1.67,0,0,0,.85-.23,1.72,1.72,0,0,0,.6-.6A1.67,1.67,0,0,0,12,46V43a1.6,1.6,0,0,0-.23-.84,1.62,1.62,0,0,0-1.45-.83,1.6,1.6,0,0,0-.84.22,1.62,1.62,0,0,0-.61.61,1.6,1.6,0,0,0-.23.84v3a1.66,1.66,0,0,0,.84,1.45A1.6,1.6,0,0,0,10.33,47.66Z"/><path d="M15.31,49.67l.06-.46a.46.46,0,0,0,.35-.09.45.45,0,0,0,.15-.28,1.75,1.75,0,0,0,0-.4h-.57V47.19h1.08V48.6a1.2,1.2,0,0,1-.28.87A.86.86,0,0,1,15.31,49.67Z"/><path d="M22,48.6a2.71,2.71,0,0,1-1.37-.35,2.55,2.55,0,0,1-.95-1,2.71,2.71,0,0,1-.35-1.37V43a2.71,2.71,0,0,1,.35-1.37,2.55,2.55,0,0,1,.95-.95A2.71,2.71,0,0,1,22,40.35a2.75,2.75,0,0,1,1.38.35,2.55,2.55,0,0,1,.95.95A2.71,2.71,0,0,1,24.71,43v2.91a2.71,2.71,0,0,1-.35,1.37,2.55,2.55,0,0,1-.95,1A2.75,2.75,0,0,1,22,48.6Zm0-.94a1.64,1.64,0,0,0,.85-.23,1.72,1.72,0,0,0,.6-.6,1.67,1.67,0,0,0,.23-.85V43a1.6,1.6,0,0,0-.23-.84,1.67,1.67,0,0,0-.6-.61,1.63,1.63,0,0,0-.85-.22,1.6,1.6,0,0,0-.84.22,1.62,1.62,0,0,0-.61.61,1.6,1.6,0,0,0-.22.84v3a1.62,1.62,0,0,0,.83,1.45A1.6,1.6,0,0,0,22,47.66Z"/><path d="M29.8,48.6a2.71,2.71,0,0,1-1.37-.35,2.57,2.57,0,0,1-1-1,2.71,2.71,0,0,1-.35-1.37V43a2.71,2.71,0,0,1,.35-1.37,2.57,2.57,0,0,1,1-.95,2.86,2.86,0,0,1,2.74,0,2.48,2.48,0,0,1,.95.95A2.61,2.61,0,0,1,32.47,43v2.91a2.61,2.61,0,0,1-.35,1.37,2.48,2.48,0,0,1-.95,1A2.71,2.71,0,0,1,29.8,48.6Zm0-.94a1.67,1.67,0,0,0,.85-.23,1.72,1.72,0,0,0,.6-.6,1.67,1.67,0,0,0,.23-.85V43a1.6,1.6,0,0,0-.23-.84,1.67,1.67,0,0,0-2.9,0,1.6,1.6,0,0,0-.23.84v3a1.67,1.67,0,0,0,.23.85,1.72,1.72,0,0,0,.6.6A1.67,1.67,0,0,0,29.8,47.66Z"/><path d="M37.57,48.6a2.72,2.72,0,0,1-1.38-.35,2.55,2.55,0,0,1-.95-1,2.71,2.71,0,0,1-.35-1.37V43a2.71,2.71,0,0,1,.35-1.37,2.55,2.55,0,0,1,.95-.95,2.88,2.88,0,0,1,2.75,0,2.55,2.55,0,0,1,1,.95A2.71,2.71,0,0,1,40.24,43v2.91a2.71,2.71,0,0,1-.35,1.37,2.55,2.55,0,0,1-1,1A2.71,2.71,0,0,1,37.57,48.6Zm0-.94a1.6,1.6,0,0,0,.84-.23A1.62,1.62,0,0,0,39.24,46V43a1.6,1.6,0,0,0-.22-.84,1.62,1.62,0,0,0-.61-.61,1.6,1.6,0,0,0-.84-.22,1.66,1.66,0,0,0-.85.22,1.7,1.7,0,0,0-.61.61,1.6,1.6,0,0,0-.22.84v3a1.66,1.66,0,0,0,.22.85,1.75,1.75,0,0,0,.61.6A1.67,1.67,0,0,0,37.57,47.66Z"/><path d="M72.38,358.28l-.52-.71,1-4.62a2.27,2.27,0,0,0,0-1,1.82,1.82,0,0,0-.3-.68,1.67,1.67,0,0,0-.65-.54,1.55,1.55,0,0,0-1.6.17,1.61,1.61,0,0,0-.66,1.5,1.53,1.53,0,0,0,.3.76l-.81.59a2.46,2.46,0,0,1-.27-2.56,2.86,2.86,0,0,1,.91-1.06,2.52,2.52,0,0,1,1.26-.5,2.48,2.48,0,0,1,1.29.2,2.53,2.53,0,0,1,1,.86,2.67,2.67,0,0,1,.43.81,2.12,2.12,0,0,1,.09.8,6.57,6.57,0,0,1-.15,1l-.82,3.84-.3-.2,3.44-2.5.55.76Z"/><path d="M80.68,352.46a2.68,2.68,0,0,1-1.32.53,2.55,2.55,0,0,1-1.33-.21,2.76,2.76,0,0,1-1.09-.91l-1.7-2.35a2.61,2.61,0,0,1-.53-1.31,2.53,2.53,0,0,1,.21-1.33,2.91,2.91,0,0,1,2.23-1.62,2.65,2.65,0,0,1,2.41,1.12l1.71,2.35a2.63,2.63,0,0,1,.52,1.31,2.53,2.53,0,0,1-.21,1.33A2.68,2.68,0,0,1,80.68,352.46Zm-.56-.76a1.6,1.6,0,0,0,.56-.68,1.73,1.73,0,0,0,.13-.84,1.58,1.58,0,0,0-.32-.82l-1.77-2.44a1.7,1.7,0,0,0-1.53-.69,1.58,1.58,0,0,0-.81.32,1.52,1.52,0,0,0-.55.68,1.63,1.63,0,0,0-.14.84,1.65,1.65,0,0,0,.31.82l1.78,2.44a1.57,1.57,0,0,0,.68.55,1.63,1.63,0,0,0,1.66-.18Z"/><path d="M84.52,349.46l-.51-.71,1-4.63a2.42,2.42,0,0,0,0-.95,1.83,1.83,0,0,0-.31-.68,1.53,1.53,0,0,0-.65-.54,1.6,1.6,0,0,0-.8-.14,1.65,1.65,0,0,0-1.34,1,1.66,1.66,0,0,0-.12.82,1.56,1.56,0,0,0,.3.77l-.81.59a2.56,2.56,0,0,1-.5-1.27,2.5,2.5,0,0,1,.23-1.29,2.86,2.86,0,0,1,.91-1.06,2.52,2.52,0,0,1,1.27-.5,2.46,2.46,0,0,1,1.28.2,2.55,2.55,0,0,1,1.05.86,3,3,0,0,1,.42.8,2.17,2.17,0,0,1,.09.81,6.25,6.25,0,0,1-.15.94l-.82,3.84-.29-.19,3.44-2.5.55.76Z"/><path d="M91.68,344.27l-4-5.53-.68,1.6-.64-.88.68-1.6.81-.58,4.65,6.4Z"/><path d="M97.14,340.5a2.59,2.59,0,0,1-1.31.52,2.53,2.53,0,0,1-1.33-.21,2.67,2.67,0,0,1-1.09-.9l-1.71-2.35a2.72,2.72,0,0,1-.52-1.32,2.49,2.49,0,0,1,.21-1.32,2.87,2.87,0,0,1,2.22-1.62,2.51,2.51,0,0,1,1.33.21,2.63,2.63,0,0,1,1.09.91l1.71,2.35a2.69,2.69,0,0,1,.52,1.31,2.55,2.55,0,0,1-.21,1.33A2.63,2.63,0,0,1,97.14,340.5Zm-.55-.76a1.57,1.57,0,0,0,.55-.68,1.76,1.76,0,0,0,.14-.85,1.67,1.67,0,0,0-.32-.81L95.19,335a1.66,1.66,0,0,0-1.53-.68,1.63,1.63,0,0,0-.82.31,1.73,1.73,0,0,0-.55.68,1.77,1.77,0,0,0-.13.85,1.62,1.62,0,0,0,.31.81l1.78,2.45a1.68,1.68,0,0,0,2.34.37Z"/><path d="M101,337.5l-.52-.72,1-4.62a2.47,2.47,0,0,0,0-1,2,2,0,0,0-.31-.67,1.7,1.7,0,0,0-.65-.55,1.61,1.61,0,0,0-.81-.13,1.45,1.45,0,0,0-.78.3,1.56,1.56,0,0,0-.55.68,1.65,1.65,0,0,0-.12.82,1.49,1.49,0,0,0,.3.76l-.81.59a2.52,2.52,0,0,1-.5-1.27,2.48,2.48,0,0,1,.23-1.28,2.89,2.89,0,0,1,.91-1.07,2.61,2.61,0,0,1,1.27-.5,2.46,2.46,0,0,1,1.28.21A2.54,2.54,0,0,1,102,330a3,3,0,0,1,.42.8,2.12,2.12,0,0,1,.09.8,6.36,6.36,0,0,1-.15.95l-.82,3.84-.29-.19,3.44-2.5.54.75Z"/><path d="M116.4,358.18l-.52-.72,1-4.62a2.42,2.42,0,0,0,0-.95,1.83,1.83,0,0,0-.31-.68,1.59,1.59,0,0,0-.65-.54,1.58,1.58,0,0,0-1.6.16,1.61,1.61,0,0,0-.54.68,1.66,1.66,0,0,0-.12.82,1.56,1.56,0,0,0,.3.77l-.81.59a2.56,2.56,0,0,1-.5-1.27,2.5,2.5,0,0,1,.23-1.29,2.78,2.78,0,0,1,.91-1.06,2.64,2.64,0,0,1,1.26-.51,2.59,2.59,0,0,1,1.29.21,2.62,2.62,0,0,1,1,.86,3,3,0,0,1,.42.8,2.15,2.15,0,0,1,.09.8,6.36,6.36,0,0,1-.15.95L117,357l-.29-.19,3.44-2.5.54.76Z"/><path d="M124.7,352.36a2.66,2.66,0,0,1-1.32.52,2.55,2.55,0,0,1-1.33-.21,2.67,2.67,0,0,1-1.09-.9l-1.7-2.35a2.64,2.64,0,0,1-.53-1.32,2.49,2.49,0,0,1,.21-1.32,2.63,2.63,0,0,1,.91-1.09,2.61,2.61,0,0,1,1.32-.53,2.49,2.49,0,0,1,1.32.21,2.63,2.63,0,0,1,1.09.91l1.71,2.35a2.59,2.59,0,0,1,.52,1.31,2.55,2.55,0,0,1-.21,1.33A2.68,2.68,0,0,1,124.7,352.36Zm-.56-.76a1.6,1.6,0,0,0,.56-.68,1.75,1.75,0,0,0,.13-.85,1.65,1.65,0,0,0-.31-.81l-1.78-2.45a1.65,1.65,0,0,0-.68-.55,1.75,1.75,0,0,0-.85-.13,1.68,1.68,0,0,0-1.36,1,1.66,1.66,0,0,0-.14.85,1.61,1.61,0,0,0,.32.82l1.77,2.44a1.68,1.68,0,0,0,2.34.37Z"/><path d="M128.54,349.36l-.51-.72,1-4.62a2.47,2.47,0,0,0,0-1,1.91,1.91,0,0,0-.31-.68,1.69,1.69,0,0,0-.65-.54,1.58,1.58,0,0,0-.8-.13,1.48,1.48,0,0,0-.79.3,1.56,1.56,0,0,0-.55.68,1.65,1.65,0,0,0-.12.82,1.56,1.56,0,0,0,.3.77l-.81.58a2.52,2.52,0,0,1-.5-1.27,2.48,2.48,0,0,1,.23-1.28,2.89,2.89,0,0,1,.91-1.07,2.72,2.72,0,0,1,1.27-.5,2.54,2.54,0,0,1,2.33,1.07,3,3,0,0,1,.42.8,2.12,2.12,0,0,1,.09.8,6.36,6.36,0,0,1-.15.95l-.82,3.84-.29-.19,3.44-2.5.55.75Z"/><path d="M135.7,344.16l-4-5.53-.68,1.61-.64-.89.68-1.59.81-.59,4.65,6.41Z"/><path d="M141.17,340.4a2.76,2.76,0,0,1-1.32.52,2.53,2.53,0,0,1-1.33-.21,2.7,2.7,0,0,1-1.09-.91l-1.71-2.35a2.69,2.69,0,0,1-.52-1.31,2.53,2.53,0,0,1,.21-1.33,2.7,2.7,0,0,1,.91-1.09,2.59,2.59,0,0,1,1.31-.52,2.51,2.51,0,0,1,1.33.21,2.61,2.61,0,0,1,1.09.9l1.71,2.35a2.76,2.76,0,0,1,.52,1.32,2.49,2.49,0,0,1-.21,1.32A2.78,2.78,0,0,1,141.17,340.4Zm-.56-.77a1.67,1.67,0,0,0,.56-.68,1.73,1.73,0,0,0,.13-.84,1.58,1.58,0,0,0-.32-.82l-1.77-2.44a1.7,1.7,0,0,0-1.53-.69,1.58,1.58,0,0,0-.81.32,1.61,1.61,0,0,0-.56.68,1.75,1.75,0,0,0-.13.85,1.65,1.65,0,0,0,.31.81l1.78,2.44a1.57,1.57,0,0,0,.68.55,1.65,1.65,0,0,0,.85.14A1.58,1.58,0,0,0,140.61,339.63Z"/><path d="M147,336.12a2.75,2.75,0,0,1-1,.46,2.37,2.37,0,0,1-1.06,0,2.44,2.44,0,0,1-1-.45l.61-.77a1.6,1.6,0,0,0,1,.32,1.68,1.68,0,0,0,.93-.34,1.65,1.65,0,0,0,.55-.67,1.43,1.43,0,0,0,.1-.79,1.79,1.79,0,0,0-.34-.81,1.65,1.65,0,0,0-1.06-.7,1.49,1.49,0,0,0-1.2.3,1.64,1.64,0,0,0-.3.29,1.88,1.88,0,0,0-.24.36l-.84-.35.81-3.87.3.19-3.19,2.32-.55-.76,3.78-2.74.55.76-.61,3.41L144,332a2.58,2.58,0,0,1,1.27-.59,2.18,2.18,0,0,1,1.26.18,2.82,2.82,0,0,1,1.57,2.18,2.55,2.55,0,0,1-.21,1.28A2.73,2.73,0,0,1,147,336.12Z"/><path d="M160.3,358.4l-.51-.72,1-4.62a2.27,2.27,0,0,0,0-1,2.08,2.08,0,0,0-.3-.68,1.72,1.72,0,0,0-.66-.54,1.56,1.56,0,0,0-.8-.13,1.51,1.51,0,0,0-.79.3,1.61,1.61,0,0,0-.67,1.5,1.42,1.42,0,0,0,.31.76l-.81.59a2.43,2.43,0,0,1-.5-1.27,2.38,2.38,0,0,1,.23-1.28,2.8,2.8,0,0,1,.91-1.07,2.64,2.64,0,0,1,1.26-.5,2.48,2.48,0,0,1,1.29.21,2.45,2.45,0,0,1,1,.86,2.75,2.75,0,0,1,.43.8,2.62,2.62,0,0,1,.09.8,6.36,6.36,0,0,1-.15.95l-.82,3.84-.3-.19,3.44-2.5.55.75Z"/><path d="M168.6,352.58a2.69,2.69,0,0,1-1.31.52,2.53,2.53,0,0,1-1.33-.21,2.75,2.75,0,0,1-1.09-.9l-1.71-2.35a2.76,2.76,0,0,1-.52-1.32,2.55,2.55,0,0,1,.21-1.33,2.82,2.82,0,0,1,.9-1.09,2.76,2.76,0,0,1,1.32-.52,2.51,2.51,0,0,1,1.33.21,2.75,2.75,0,0,1,1.09.9l1.71,2.35a2.76,2.76,0,0,1,.52,1.32,2.55,2.55,0,0,1-.21,1.33A2.7,2.7,0,0,1,168.6,352.58Zm-.55-.76a1.63,1.63,0,0,0,.55-.68,1.78,1.78,0,0,0,.14-.85,1.7,1.7,0,0,0-.32-.82L166.65,347a1.65,1.65,0,0,0-.68-.55,1.65,1.65,0,0,0-1.67.18,1.73,1.73,0,0,0-.55.68,1.75,1.75,0,0,0-.13.85,1.65,1.65,0,0,0,.31.81l1.78,2.45a1.65,1.65,0,0,0,.68.55,1.75,1.75,0,0,0,.85.13A1.65,1.65,0,0,0,168.05,351.82Z"/><path d="M172.45,349.58l-.52-.72,1-4.62a2.47,2.47,0,0,0,0-1,2,2,0,0,0-.31-.68,1.76,1.76,0,0,0-.65-.54,1.62,1.62,0,0,0-.81-.14,1.55,1.55,0,0,0-.78.31,1.53,1.53,0,0,0-.55.67,1.68,1.68,0,0,0-.12.83,1.53,1.53,0,0,0,.3.76l-.81.59a2.46,2.46,0,0,1-.27-2.56,2.86,2.86,0,0,1,.91-1.06,2.52,2.52,0,0,1,1.26-.5,2.48,2.48,0,0,1,1.29.2,2.61,2.61,0,0,1,1,.86,2.79,2.79,0,0,1,.43.81,2.12,2.12,0,0,1,.09.8,6.36,6.36,0,0,1-.15.95l-.82,3.84-.29-.2,3.44-2.49.54.75Z"/><path d="M179.6,344.38l-4-5.53-.68,1.61-.64-.89L175,338l.8-.58,4.66,6.41Z"/><path d="M185.07,340.61a2.61,2.61,0,0,1-1.31.53,2.73,2.73,0,0,1-1.33-.21,2.63,2.63,0,0,1-1.09-.91l-1.71-2.35a2.69,2.69,0,0,1-.52-1.31,2.53,2.53,0,0,1,.21-1.33,2.68,2.68,0,0,1,.9-1.09,2.78,2.78,0,0,1,1.32-.53,2.53,2.53,0,0,1,1.33.21,2.76,2.76,0,0,1,1.09.91l1.7,2.35a2.65,2.65,0,0,1,.53,1.31,2.53,2.53,0,0,1-.21,1.33A2.63,2.63,0,0,1,185.07,340.61Zm-.55-.76a1.57,1.57,0,0,0,.55-.68,1.76,1.76,0,0,0,.14-.85,1.67,1.67,0,0,0-.32-.81l-1.77-2.44a1.63,1.63,0,0,0-.68-.55,1.66,1.66,0,0,0-.85-.14,1.69,1.69,0,0,0-.82.31,1.71,1.71,0,0,0-.55.68,1.67,1.67,0,0,0-.13.85,1.65,1.65,0,0,0,.31.82l1.78,2.44a1.59,1.59,0,0,0,.68.55,1.74,1.74,0,0,0,.84.14A1.67,1.67,0,0,0,184.52,339.85Z"/><path d="M191.86,335.48,191,334.3l-2.95,2.14-.55-.76-1.13-6,.89-.65,1.14,6,2.05-1.49-1.31-1.8.8-.58,1.31,1.8.67-.48.54.75-.66.48.85,1.18Z"/><path d="M204.44,357.86l-.51-.72,1-4.62a2.29,2.29,0,0,0,0-1,1.79,1.79,0,0,0-.31-.67,1.63,1.63,0,0,0-.65-.55,1.58,1.58,0,0,0-.8-.13,1.48,1.48,0,0,0-.79.3,1.56,1.56,0,0,0-.55.68,1.65,1.65,0,0,0-.12.82,1.56,1.56,0,0,0,.3.77l-.81.58a2.52,2.52,0,0,1-.5-1.27,2.39,2.39,0,0,1,.24-1.28,2.77,2.77,0,0,1,.9-1.07,2.72,2.72,0,0,1,1.27-.5,2.54,2.54,0,0,1,2.33,1.07,3,3,0,0,1,.42.8,2.12,2.12,0,0,1,.09.8,6.24,6.24,0,0,1-.14.95L205,356.7l-.29-.19,3.44-2.5.55.75Z"/><path d="M212.74,352a2.68,2.68,0,0,1-1.32.52,2.49,2.49,0,0,1-1.32-.21,2.68,2.68,0,0,1-1.09-.9l-1.71-2.35a2.66,2.66,0,0,1-.52-1.32,2.55,2.55,0,0,1,.21-1.33,2.83,2.83,0,0,1,2.22-1.61,2.53,2.53,0,0,1,1.33.21,2.67,2.67,0,0,1,1.08.91l1.71,2.34a2.78,2.78,0,0,1,.53,1.32,2.55,2.55,0,0,1-.21,1.33A2.7,2.7,0,0,1,212.74,352Zm-.55-.76a1.71,1.71,0,0,0,.55-.68,1.66,1.66,0,0,0,.13-.85,1.69,1.69,0,0,0-.31-.82l-1.78-2.44a1.62,1.62,0,0,0-.67-.55,1.8,1.8,0,0,0-.85-.14,1.67,1.67,0,0,0-.82.32,1.66,1.66,0,0,0-.68,1.53,1.56,1.56,0,0,0,.31.81l1.77,2.45a1.71,1.71,0,0,0,.68.55,1.77,1.77,0,0,0,.85.13A1.65,1.65,0,0,0,212.19,351.28Z"/><path d="M216.58,349l-.51-.72,1-4.62a2.14,2.14,0,0,0,0-1,2,2,0,0,0-.3-.68,1.72,1.72,0,0,0-.66-.54,1.56,1.56,0,0,0-.8-.14,1.62,1.62,0,0,0-.79.31,1.6,1.6,0,0,0-.55.67,1.68,1.68,0,0,0-.12.83,1.53,1.53,0,0,0,.3.76l-.81.59a2.5,2.5,0,0,1-.49-1.27,2.41,2.41,0,0,1,.23-1.29,2.83,2.83,0,0,1,.9-1.06,2.61,2.61,0,0,1,1.27-.5,2.48,2.48,0,0,1,1.29.2,2.61,2.61,0,0,1,1,.86,2.79,2.79,0,0,1,.43.81,2.62,2.62,0,0,1,.09.8,6.36,6.36,0,0,1-.15,1l-.82,3.84-.3-.2,3.44-2.49.55.75Z"/><path d="M223.74,343.84l-4-5.53-.67,1.61-.65-.89.68-1.6.81-.58,4.66,6.41Z"/><path d="M229.21,340.07a2.68,2.68,0,0,1-1.32.53,2.6,2.6,0,0,1-2.42-1.12l-1.7-2.35a2.7,2.7,0,0,1-.53-1.31,2.75,2.75,0,0,1,.21-1.33,2.63,2.63,0,0,1,.91-1.09,2.7,2.7,0,0,1,1.32-.53,2.55,2.55,0,0,1,1.33.21,2.67,2.67,0,0,1,1.08.91l1.71,2.35a2.7,2.7,0,0,1,.53,1.31,2.63,2.63,0,0,1-.21,1.33A2.71,2.71,0,0,1,229.21,340.07Zm-.55-.76a1.65,1.65,0,0,0,.55-.68,1.73,1.73,0,0,0,.13-.84A1.65,1.65,0,0,0,229,337l-1.78-2.44a1.57,1.57,0,0,0-.68-.55,1.63,1.63,0,0,0-.84-.14,1.65,1.65,0,0,0-.82.31,1.71,1.71,0,0,0-.55.68,1.8,1.8,0,0,0-.14.85,1.67,1.67,0,0,0,.32.82l1.77,2.44a1.65,1.65,0,0,0,.68.55,1.76,1.76,0,0,0,.85.14A1.7,1.7,0,0,0,228.66,339.31Z"/><path d="M233.57,336.7l-1.8-7.32-2.91,2.11-.55-.76,3.76-2.73.55.76,1.8,7.32Z"/><path d="M247.9,358.36l-.52-.71,1-4.62a2.47,2.47,0,0,0,0-1,1.83,1.83,0,0,0-.31-.68,1.76,1.76,0,0,0-.65-.54,1.55,1.55,0,0,0-1.6.17,1.58,1.58,0,0,0-.54.67,1.68,1.68,0,0,0-.12.83,1.53,1.53,0,0,0,.3.76l-.81.59a2.46,2.46,0,0,1-.27-2.56,2.86,2.86,0,0,1,.91-1.06,2.52,2.52,0,0,1,1.26-.5,2.48,2.48,0,0,1,1.29.2,2.62,2.62,0,0,1,1,.86,2.86,2.86,0,0,1,.42.81,2.12,2.12,0,0,1,.09.8,6.57,6.57,0,0,1-.15.95l-.82,3.84-.29-.2,3.44-2.5.54.76Z"/><path d="M256.2,352.55a2.76,2.76,0,0,1-1.32.52,2.55,2.55,0,0,1-1.33-.21,2.76,2.76,0,0,1-1.09-.91l-1.7-2.35a2.7,2.7,0,0,1-.53-1.31,2.53,2.53,0,0,1,.21-1.33,2.7,2.7,0,0,1,.91-1.09,2.59,2.59,0,0,1,1.32-.52,2.55,2.55,0,0,1,1.33.21,2.64,2.64,0,0,1,1.08.9l1.71,2.35a2.74,2.74,0,0,1,.53,1.32,2.6,2.6,0,0,1-.22,1.32A2.7,2.7,0,0,1,256.2,352.55Zm-.56-.77a1.6,1.6,0,0,0,.56-.68,1.73,1.73,0,0,0,.13-.84,1.65,1.65,0,0,0-.31-.82L254.24,347a1.7,1.7,0,0,0-1.53-.69,1.58,1.58,0,0,0-.81.32,1.52,1.52,0,0,0-.55.68,1.63,1.63,0,0,0-.14.84,1.67,1.67,0,0,0,.32.82l1.77,2.44a1.57,1.57,0,0,0,.68.55,1.63,1.63,0,0,0,1.66-.18Z"/><path d="M260,349.54l-.51-.71,1-4.63a2.24,2.24,0,0,0,0-.95,1.83,1.83,0,0,0-.31-.68,1.53,1.53,0,0,0-.65-.54,1.56,1.56,0,0,0-1.59.16,1.62,1.62,0,0,0-.55.68,1.66,1.66,0,0,0-.12.82,1.56,1.56,0,0,0,.3.77l-.81.59a2.56,2.56,0,0,1-.5-1.27,2.5,2.5,0,0,1,.23-1.29,2.86,2.86,0,0,1,.91-1.06,2.52,2.52,0,0,1,1.27-.5,2.49,2.49,0,0,1,1.29.2,2.59,2.59,0,0,1,1,.86,3,3,0,0,1,.42.8,2.2,2.2,0,0,1,.09.81,7.67,7.67,0,0,1-.14.94l-.83,3.84-.29-.19,3.44-2.5.55.76Z"/><path d="M267.2,344.35l-4-5.53-.68,1.6-.64-.88.68-1.6.81-.58,4.65,6.4Z"/><path d="M272.67,340.58a2.66,2.66,0,0,1-1.32.52,2.53,2.53,0,0,1-1.33-.21,2.67,2.67,0,0,1-1.09-.9l-1.71-2.35a2.72,2.72,0,0,1-.52-1.32,2.49,2.49,0,0,1,.21-1.32,2.92,2.92,0,0,1,2.22-1.62,2.51,2.51,0,0,1,1.33.21,2.63,2.63,0,0,1,1.09.91l1.71,2.35a2.69,2.69,0,0,1,.52,1.31,2.55,2.55,0,0,1-.21,1.33A2.68,2.68,0,0,1,272.67,340.58Zm-.56-.76a1.67,1.67,0,0,0,.56-.68,1.75,1.75,0,0,0,.13-.85,1.58,1.58,0,0,0-.32-.81L270.71,335a1.65,1.65,0,0,0-.68-.55,1.75,1.75,0,0,0-.85-.13,1.56,1.56,0,0,0-.81.31,1.67,1.67,0,0,0-.56.68,1.77,1.77,0,0,0-.13.85,1.69,1.69,0,0,0,.31.82l1.78,2.44a1.66,1.66,0,0,0,1.53.68A1.56,1.56,0,0,0,272.11,339.82Z"/><path d="M278.79,336.13a2.77,2.77,0,0,1-1.27.54,2.2,2.2,0,0,1-1.24-.15,2.4,2.4,0,0,1-1-.83,2.45,2.45,0,0,1-.48-1.24,2.17,2.17,0,0,1,.31-1.31l.2.3a1.91,1.91,0,0,1-1.14-.11,2.24,2.24,0,0,1-1.31-1.83,2,2,0,0,1,.24-1.1,2.69,2.69,0,0,1,.85-.94,2.75,2.75,0,0,1,1.15-.52,2,2,0,0,1,2.06.86,2.25,2.25,0,0,1,.41,1.05,1.89,1.89,0,0,1-.25,1.13l-.22-.28a2.17,2.17,0,0,1,1.34.11,2.43,2.43,0,0,1,1,.83,2.34,2.34,0,0,1,.48,1.23,2.37,2.37,0,0,1-.24,1.22A2.8,2.8,0,0,1,278.79,336.13Zm-2.86-3.93a1.48,1.48,0,0,0,.61-.82,1.1,1.1,0,0,0-.23-1,1.13,1.13,0,0,0-.84-.53,1.75,1.75,0,0,0-1.59,1.15,1.13,1.13,0,0,0,.24,1,1.12,1.12,0,0,0,.84.52A1.58,1.58,0,0,0,275.93,332.2Zm2.31,3.18a1.66,1.66,0,0,0,.68-1,1.37,1.37,0,0,0-.3-1.15,1.44,1.44,0,0,0-1-.65,1.66,1.66,0,0,0-1.14.36,1.64,1.64,0,0,0-.68,1,1.67,1.67,0,0,0,1.31,1.8A1.68,1.68,0,0,0,278.24,335.38Z"/><path d="M292.08,358.56l-.52-.72,1-4.62a2.47,2.47,0,0,0,0-1,1.79,1.79,0,0,0-.31-.67,1.7,1.7,0,0,0-.65-.55,1.61,1.61,0,0,0-.81-.13,1.45,1.45,0,0,0-.78.3,1.56,1.56,0,0,0-.55.68,1.65,1.65,0,0,0-.12.82,1.56,1.56,0,0,0,.3.77l-.81.58a2.52,2.52,0,0,1-.5-1.27,2.48,2.48,0,0,1,.23-1.28,2.89,2.89,0,0,1,.91-1.07,2.72,2.72,0,0,1,1.27-.5,2.46,2.46,0,0,1,1.28.21,2.54,2.54,0,0,1,1.05.86,3,3,0,0,1,.42.8,2.12,2.12,0,0,1,.09.8,6.36,6.36,0,0,1-.15.95l-.82,3.84-.29-.19,3.44-2.5.54.75Z"/><path d="M300.38,352.74a2.76,2.76,0,0,1-1.32.52,2.55,2.55,0,0,1-1.33-.21,2.82,2.82,0,0,1-1.09-.9l-1.7-2.35a2.68,2.68,0,0,1-.53-1.32,2.6,2.6,0,0,1,1.12-2.42,2.68,2.68,0,0,1,1.32-.52,2.49,2.49,0,0,1,1.32.21,2.63,2.63,0,0,1,1.09.91L301,349a2.78,2.78,0,0,1,.53,1.32,2.66,2.66,0,0,1-.22,1.33A2.75,2.75,0,0,1,300.38,352.74Zm-.55-.76a1.65,1.65,0,0,0,.55-.68,1.75,1.75,0,0,0,.13-.85,1.69,1.69,0,0,0-.31-.82l-1.78-2.44a1.65,1.65,0,0,0-.68-.55,1.74,1.74,0,0,0-.84-.14,1.67,1.67,0,0,0-.82.32,1.7,1.7,0,0,0-.69,1.53,1.67,1.67,0,0,0,.32.81l1.77,2.45a1.66,1.66,0,0,0,1.53.68A1.69,1.69,0,0,0,299.83,352Z"/><path d="M304.22,349.74l-.51-.72,1-4.62a2.29,2.29,0,0,0,0-1,1.91,1.91,0,0,0-.31-.68,1.61,1.61,0,0,0-1.45-.68,1.58,1.58,0,0,0-.79.31,1.5,1.5,0,0,0-.55.68,1.65,1.65,0,0,0-.12.82,1.53,1.53,0,0,0,.3.76l-.81.59a2.52,2.52,0,0,1-.5-1.27,2.39,2.39,0,0,1,.24-1.28,2.7,2.7,0,0,1,.9-1.07,2.61,2.61,0,0,1,1.27-.5,2.51,2.51,0,0,1,1.29.2,2.67,2.67,0,0,1,1,.86,3,3,0,0,1,.42.81,2.12,2.12,0,0,1,.09.8,7.81,7.81,0,0,1-.14.95l-.82,3.84-.3-.19,3.44-2.5.55.75Z"/><path d="M311.38,344.54l-4-5.53-.68,1.61-.64-.89.68-1.6.81-.58,4.65,6.41Z"/><path d="M316.84,340.77a2.61,2.61,0,0,1-1.31.53,2.53,2.53,0,0,1-1.33-.21,2.7,2.7,0,0,1-1.09-.91l-1.7-2.35a2.61,2.61,0,0,1-.53-1.31,2.53,2.53,0,0,1,.21-1.33,2.63,2.63,0,0,1,.91-1.09,2.59,2.59,0,0,1,3.73.59l1.71,2.35a2.72,2.72,0,0,1,.52,1.31,2.51,2.51,0,0,1-.21,1.33A2.63,2.63,0,0,1,316.84,340.77Zm-.55-.76a1.67,1.67,0,0,0,.56-.68,1.73,1.73,0,0,0,.13-.84,1.67,1.67,0,0,0-.32-.82l-1.77-2.44a1.67,1.67,0,0,0-2.35-.37,1.59,1.59,0,0,0-.54.67,1.68,1.68,0,0,0-.14.85,1.65,1.65,0,0,0,.31.82l1.78,2.44a1.7,1.7,0,0,0,1.53.69A1.67,1.67,0,0,0,316.29,340Z"/><path d="M318.21,329.59a2.58,2.58,0,0,1,1.32-.51,2.64,2.64,0,0,1,1.38.23,2.79,2.79,0,0,1,1.12.94l1.55,2.13a2.94,2.94,0,0,1,.58,1.4,2.65,2.65,0,0,1-.22,1.39,2.86,2.86,0,0,1-.95,1.14,2.77,2.77,0,0,1-1.14.5,2.8,2.8,0,0,1-1.22-.06l.21-1a1.75,1.75,0,0,0,.82.08,1.67,1.67,0,0,0,.78-.31,1.65,1.65,0,0,0,.6-.75,1.79,1.79,0,0,0,.13-.91,1.69,1.69,0,0,0-.33-.85l-.93-1.28.31.07A2.56,2.56,0,0,1,322,333a2.37,2.37,0,0,1-.77.92,2.49,2.49,0,0,1-1.27.5,2.53,2.53,0,0,1-2.35-1.09,2.54,2.54,0,0,1-.49-1.3,2.71,2.71,0,0,1,1.11-2.43Zm.56.76a1.77,1.77,0,0,0-.56.69,1.74,1.74,0,0,0-.14.87,1.64,1.64,0,0,0,.32.83,1.71,1.71,0,0,0,1.55.7,1.73,1.73,0,0,0,1.39-1,1.74,1.74,0,0,0,.14-.87,1.64,1.64,0,0,0-.32-.83,1.67,1.67,0,0,0-.68-.56,1.86,1.86,0,0,0-.87-.14A1.74,1.74,0,0,0,318.77,330.35Z"/><path d="M336.35,357.17l-.52-.72,1-4.62a2.47,2.47,0,0,0,0-1,1.79,1.79,0,0,0-.31-.67,1.63,1.63,0,0,0-.65-.55,1.58,1.58,0,0,0-.8-.13,1.48,1.48,0,0,0-.79.3,1.56,1.56,0,0,0-.55.68,1.65,1.65,0,0,0-.12.82,1.56,1.56,0,0,0,.3.77l-.81.58a2.52,2.52,0,0,1-.5-1.27,2.48,2.48,0,0,1,.23-1.28,2.89,2.89,0,0,1,.91-1.07,2.72,2.72,0,0,1,1.27-.5,2.56,2.56,0,0,1,2.33,1.07,3,3,0,0,1,.42.8,2.12,2.12,0,0,1,.09.8,6.36,6.36,0,0,1-.15.95l-.82,3.84-.29-.19,3.44-2.5.55.75Z"/><path d="M344.65,351.35a2.66,2.66,0,0,1-1.32.52,2.55,2.55,0,0,1-1.33-.21,2.72,2.72,0,0,1-1.08-.9l-1.71-2.35a2.78,2.78,0,0,1-.53-1.32,2.77,2.77,0,0,1,2.44-2.94,2.55,2.55,0,0,1,1.33.21,2.67,2.67,0,0,1,1.08.91l1.71,2.34a2.78,2.78,0,0,1,.53,1.32,2.55,2.55,0,0,1-.21,1.33A2.78,2.78,0,0,1,344.65,351.35Zm-.55-.76a1.71,1.71,0,0,0,.55-.68,1.64,1.64,0,0,0,.13-.85,1.69,1.69,0,0,0-.31-.82l-1.78-2.44a1.59,1.59,0,0,0-.68-.55,1.74,1.74,0,0,0-.84-.14,1.67,1.67,0,0,0-.82.32,1.66,1.66,0,0,0-.68,1.53,1.56,1.56,0,0,0,.31.81l1.77,2.45a1.69,1.69,0,0,0,2.35.37Z"/><path d="M348.49,348.35l-.51-.72,1-4.62a2.29,2.29,0,0,0,0-1,1.91,1.91,0,0,0-.31-.68,1.61,1.61,0,0,0-1.45-.68,1.62,1.62,0,0,0-.79.31,1.5,1.5,0,0,0-.55.68,1.63,1.63,0,0,0-.12.82,1.53,1.53,0,0,0,.3.76l-.81.59a2.5,2.5,0,0,1-.49-1.27,2.29,2.29,0,0,1,.23-1.28,2.7,2.7,0,0,1,.9-1.07,2.61,2.61,0,0,1,1.27-.5,2.48,2.48,0,0,1,1.29.2,2.61,2.61,0,0,1,1,.86,2.74,2.74,0,0,1,.42.81,2.12,2.12,0,0,1,.09.8,6.24,6.24,0,0,1-.14,1l-.82,3.84-.3-.19,3.44-2.5.55.75Z"/><path d="M355.65,343.15l-4-5.53-.67,1.61-.65-.89.68-1.59.81-.59,4.65,6.41Z"/><path d="M360,340l-4-5.53-.68,1.61-.64-.89.68-1.6.8-.58,4.66,6.4Z"/><path d="M365.44,336.24a2.7,2.7,0,0,1-1.31.53,2.75,2.75,0,0,1-1.33-.21,2.63,2.63,0,0,1-1.09-.91L360,333.3a2.59,2.59,0,0,1-.52-1.31,2.51,2.51,0,0,1,.21-1.33,2.68,2.68,0,0,1,.9-1.09,2.78,2.78,0,0,1,1.32-.53,2.53,2.53,0,0,1,1.33.21,2.76,2.76,0,0,1,1.09.91l1.7,2.35a2.7,2.7,0,0,1,.53,1.31,2.53,2.53,0,0,1-.21,1.33A2.63,2.63,0,0,1,365.44,336.24Zm-.55-.76a1.57,1.57,0,0,0,.55-.68,1.64,1.64,0,0,0,.13-.85,1.56,1.56,0,0,0-.31-.81l-1.77-2.45A1.66,1.66,0,0,0,362,330a1.69,1.69,0,0,0-.82.31,1.69,1.69,0,0,0-.37,2.35l1.78,2.44a1.62,1.62,0,0,0,.67.55,1.8,1.8,0,0,0,.85.14A1.67,1.67,0,0,0,364.89,335.48Z"/><path d="M378.53,355.75,378,355l1-4.62a2.29,2.29,0,0,0,0-1,1.91,1.91,0,0,0-.31-.68,1.61,1.61,0,0,0-1.45-.68,1.62,1.62,0,0,0-.79.31,1.53,1.53,0,0,0-.55.67,1.7,1.7,0,0,0-.12.83,1.53,1.53,0,0,0,.3.76l-.81.59a2.61,2.61,0,0,1-.5-1.27,2.39,2.39,0,0,1,.24-1.28,2.7,2.7,0,0,1,.9-1.07,2.61,2.61,0,0,1,1.27-.5,2.48,2.48,0,0,1,1.29.2,2.67,2.67,0,0,1,1,.86,2.74,2.74,0,0,1,.42.81,2.12,2.12,0,0,1,.09.8,6.24,6.24,0,0,1-.14.95l-.82,3.84-.3-.19,3.44-2.5.55.75Z"/><path d="M386.83,349.93a2.69,2.69,0,0,1-1.31.52,2.51,2.51,0,0,1-1.33-.21,2.63,2.63,0,0,1-1.09-.91L381.39,347a2.59,2.59,0,0,1-.52-1.31,2.55,2.55,0,0,1,.21-1.33,2.83,2.83,0,0,1,2.22-1.61,2.53,2.53,0,0,1,1.33.21,2.82,2.82,0,0,1,1.09.9l1.7,2.35a2.78,2.78,0,0,1,.53,1.32,2.55,2.55,0,0,1-.21,1.33A2.76,2.76,0,0,1,386.83,349.93Zm-.55-.76a1.67,1.67,0,0,0,.55-.69,1.62,1.62,0,0,0,.13-.84,1.56,1.56,0,0,0-.31-.82l-1.77-2.44a1.71,1.71,0,0,0-.68-.55,1.8,1.8,0,0,0-.85-.14,1.61,1.61,0,0,0-.82.32,1.68,1.68,0,0,0-.37,2.34l1.78,2.44a1.55,1.55,0,0,0,.67.55,1.68,1.68,0,0,0,.85.14A1.65,1.65,0,0,0,386.28,349.17Z"/><path d="M390.67,346.92l-.51-.71,1-4.62a2.14,2.14,0,0,0,0-1,2,2,0,0,0-.3-.68,1.64,1.64,0,0,0-1.46-.68,1.62,1.62,0,0,0-.79.31,1.6,1.6,0,0,0-.55.67,1.66,1.66,0,0,0-.12.82,1.52,1.52,0,0,0,.3.77l-.8.59a2.43,2.43,0,0,1-.5-1.27,2.4,2.4,0,0,1,.23-1.29,2.77,2.77,0,0,1,.91-1.06,2.53,2.53,0,0,1,2.55-.3,2.53,2.53,0,0,1,1,.86,2.67,2.67,0,0,1,.43.81,2.62,2.62,0,0,1,.09.8,6.57,6.57,0,0,1-.15.95l-.82,3.84-.3-.2,3.44-2.5.55.76Z"/><path d="M397.83,341.73l-4-5.53-.67,1.61-.65-.89.69-1.6.8-.58,4.66,6.4Z"/><path d="M402.16,338.59l-4-5.53-.68,1.6-.64-.88.68-1.6.81-.58L403,338Z"/><path d="M406.48,335.45l-4-5.54-.67,1.61-.65-.88.69-1.6.8-.59,4.66,6.41Z"/><path d="M418.9,356.86l-.52-.71,1-4.63a2.22,2.22,0,0,0,0-.95,1.67,1.67,0,0,0-.3-.68,1.59,1.59,0,0,0-.65-.54,1.58,1.58,0,0,0-1.6.16,1.61,1.61,0,0,0-.54.68,1.66,1.66,0,0,0-.12.82,1.56,1.56,0,0,0,.3.77l-.81.59a2.56,2.56,0,0,1-.5-1.27,2.5,2.5,0,0,1,.23-1.29,2.86,2.86,0,0,1,.91-1.06,2.47,2.47,0,0,1,2.55-.3,2.53,2.53,0,0,1,1,.86,2.75,2.75,0,0,1,.43.8,2.15,2.15,0,0,1,.09.8,6.36,6.36,0,0,1-.15.95l-.82,3.84-.29-.19,3.43-2.5.55.76Z"/><path d="M427.2,351a2.66,2.66,0,0,1-1.32.52,2.55,2.55,0,0,1-1.33-.21,2.59,2.59,0,0,1-1.09-.9l-1.71-2.35a2.72,2.72,0,0,1-.52-1.31,2.51,2.51,0,0,1,.21-1.33,2.63,2.63,0,0,1,.91-1.09,2.7,2.7,0,0,1,1.31-.53,2.51,2.51,0,0,1,1.33.21,2.63,2.63,0,0,1,1.09.91l1.71,2.35a2.69,2.69,0,0,1,.52,1.31,2.53,2.53,0,0,1-.21,1.33A2.68,2.68,0,0,1,427.2,351Zm-.56-.76a1.67,1.67,0,0,0,.56-.68,1.75,1.75,0,0,0,.13-.85,1.58,1.58,0,0,0-.32-.81l-1.77-2.45a1.73,1.73,0,0,0-.68-.55,1.75,1.75,0,0,0-.85-.13,1.68,1.68,0,0,0-1.36,1,1.66,1.66,0,0,0-.14.85,1.58,1.58,0,0,0,.32.82l1.77,2.44a1.66,1.66,0,0,0,1.53.68A1.56,1.56,0,0,0,426.64,350.28Z"/><path d="M431,348l-.51-.72,1-4.62a2.47,2.47,0,0,0,0-1,1.79,1.79,0,0,0-.31-.67,1.7,1.7,0,0,0-.65-.55,1.61,1.61,0,0,0-.81-.13,1.45,1.45,0,0,0-.78.3,1.56,1.56,0,0,0-.55.68,1.65,1.65,0,0,0-.12.82,1.56,1.56,0,0,0,.3.77l-.81.58a2.52,2.52,0,0,1-.5-1.26,2.5,2.5,0,0,1,.23-1.29,2.78,2.78,0,0,1,.91-1.06,2.63,2.63,0,0,1,1.27-.51,2.57,2.57,0,0,1,1.28.21,2.54,2.54,0,0,1,1.05.86,3,3,0,0,1,.42.8,2.12,2.12,0,0,1,.09.8,6.36,6.36,0,0,1-.15,1l-.82,3.84-.29-.19,3.44-2.5.55.76Z"/><path d="M438.2,342.84l-4-5.53-.68,1.61-.64-.89.68-1.59.81-.59,4.65,6.41Z"/><path d="M442.52,339.7l-4-5.53-.67,1.61-.65-.89.69-1.59.8-.59,4.66,6.41Z"/><path d="M445.55,337.5l-.51-.72,1-4.62a2.47,2.47,0,0,0,0-1,1.91,1.91,0,0,0-.31-.68,1.76,1.76,0,0,0-.65-.54,1.74,1.74,0,0,0-.81-.14,1.55,1.55,0,0,0-.78.31,1.5,1.5,0,0,0-.55.68,1.65,1.65,0,0,0-.12.82,1.53,1.53,0,0,0,.3.76l-.81.59a2.52,2.52,0,0,1-.5-1.27,2.48,2.48,0,0,1,.23-1.28,2.89,2.89,0,0,1,.91-1.07,2.61,2.61,0,0,1,1.27-.5,2.37,2.37,0,0,1,1.28.21,2.59,2.59,0,0,1,1.05.85,3,3,0,0,1,.42.81,2.12,2.12,0,0,1,.09.8,6.36,6.36,0,0,1-.15.95l-.82,3.84-.29-.19,3.44-2.5.55.75Z"/><path d="M461,358.28l-.51-.71,1-4.63a2.09,2.09,0,0,0,0-.95,1.83,1.83,0,0,0-.31-.68,1.47,1.47,0,0,0-.65-.54,1.56,1.56,0,0,0-.8-.14,1.62,1.62,0,0,0-.79.31,1.53,1.53,0,0,0-.55.67,1.66,1.66,0,0,0-.12.82,1.52,1.52,0,0,0,.3.77l-.81.59a2.5,2.5,0,0,1-.49-1.27,2.31,2.31,0,0,1,.23-1.29,2.83,2.83,0,0,1,.9-1.06,2.52,2.52,0,0,1,1.27-.5,2.48,2.48,0,0,1,1.29.2,2.53,2.53,0,0,1,1,.86,2.75,2.75,0,0,1,.43.8,2.43,2.43,0,0,1,.08.81,5.32,5.32,0,0,1-.14,1l-.82,3.84-.3-.2,3.44-2.5.55.76Z"/><path d="M469.27,352.46a2.59,2.59,0,0,1-3.73-.59l-1.71-2.35a2.59,2.59,0,0,1-.52-1.31,2.53,2.53,0,0,1,.21-1.33,2.68,2.68,0,0,1,.9-1.09,2.78,2.78,0,0,1,1.32-.53,2.63,2.63,0,0,1,1.33.21,2.76,2.76,0,0,1,1.09.91l1.7,2.35a2.65,2.65,0,0,1,.53,1.31,2.53,2.53,0,0,1-.21,1.33A2.63,2.63,0,0,1,469.27,352.46Zm-.55-.76a1.57,1.57,0,0,0,.55-.68,1.76,1.76,0,0,0,.14-.85,1.67,1.67,0,0,0-.32-.81l-1.77-2.44a1.63,1.63,0,0,0-.68-.55,1.66,1.66,0,0,0-.85-.14,1.73,1.73,0,0,0-1.37,1,1.67,1.67,0,0,0-.13.85,1.65,1.65,0,0,0,.31.82l1.78,2.44a1.59,1.59,0,0,0,.68.55,1.74,1.74,0,0,0,.84.14A1.67,1.67,0,0,0,468.72,351.7Z"/><path d="M473.11,349.46l-.51-.71,1-4.63a2.22,2.22,0,0,0,0-.95,1.82,1.82,0,0,0-.3-.68,1.59,1.59,0,0,0-.65-.54,1.62,1.62,0,0,0-.81-.14,1.51,1.51,0,0,0-.79.3,1.63,1.63,0,0,0-.55.68,1.55,1.55,0,0,0-.11.82,1.39,1.39,0,0,0,.3.77l-.81.59a2.56,2.56,0,0,1-.5-1.27,2.4,2.4,0,0,1,.23-1.29,2.78,2.78,0,0,1,.91-1.06,2.47,2.47,0,0,1,2.55-.3,2.53,2.53,0,0,1,1,.86,2.75,2.75,0,0,1,.43.8,2.15,2.15,0,0,1,.09.8,6.17,6.17,0,0,1-.15.95l-.82,3.84-.3-.19,3.44-2.5.55.76Z"/><path d="M479,345.2l-.51-.71,1-4.63a2.22,2.22,0,0,0,0-.95,1.82,1.82,0,0,0-.3-.68,1.64,1.64,0,0,0-1.46-.68,1.62,1.62,0,0,0-.79.31,1.68,1.68,0,0,0-.55.67,1.66,1.66,0,0,0-.12.82,1.54,1.54,0,0,0,.31.77l-.81.59a2.52,2.52,0,0,1-.5-1.27,2.4,2.4,0,0,1,.23-1.29,2.86,2.86,0,0,1,.91-1.06,2.53,2.53,0,0,1,2.55-.3,2.53,2.53,0,0,1,1,.86,2.67,2.67,0,0,1,.43.81,2.12,2.12,0,0,1,.09.8,6.57,6.57,0,0,1-.15.95l-.82,3.84-.3-.2,3.44-2.5.55.76Z"/><path d="M487.27,339.38a2.58,2.58,0,0,1-2.64.32,2.7,2.7,0,0,1-1.09-.91l-1.71-2.35a2.69,2.69,0,0,1-.52-1.31,2.53,2.53,0,0,1,.21-1.33,2.63,2.63,0,0,1,.91-1.09,2.7,2.7,0,0,1,1.31-.53,2.6,2.6,0,0,1,2.42,1.12l1.71,2.35a2.72,2.72,0,0,1,.52,1.31,2.53,2.53,0,0,1-.21,1.33A2.63,2.63,0,0,1,487.27,339.38Zm-.55-.76a1.67,1.67,0,0,0,.56-.68,1.73,1.73,0,0,0,.13-.84,1.67,1.67,0,0,0-.32-.82l-1.77-2.44a1.57,1.57,0,0,0-.68-.55,1.65,1.65,0,0,0-1.67.18,1.7,1.7,0,0,0-.55.67,1.79,1.79,0,0,0-.13.85,1.65,1.65,0,0,0,.31.82l1.78,2.44a1.65,1.65,0,0,0,.68.55,1.76,1.76,0,0,0,.85.14A1.67,1.67,0,0,0,486.72,338.62Z"/><path d="M492.42,335.45l-4-5.54-.68,1.61-.64-.89.68-1.59.81-.59,4.65,6.41Z"/><path d="M505.15,359.4l-.52-.72,1-4.62a2.27,2.27,0,0,0,0-1,1.63,1.63,0,0,0-.3-.67,1.7,1.7,0,0,0-.65-.55,1.61,1.61,0,0,0-.81-.13,1.51,1.51,0,0,0-.79.3,1.61,1.61,0,0,0-.54.68,1.65,1.65,0,0,0-.12.82,1.56,1.56,0,0,0,.3.77l-.81.58a2.52,2.52,0,0,1-.5-1.27,2.48,2.48,0,0,1,.23-1.28,2.89,2.89,0,0,1,.91-1.07,2.68,2.68,0,0,1,1.26-.5,2.59,2.59,0,0,1,1.29.21,2.54,2.54,0,0,1,1.05.86,3,3,0,0,1,.42.8,2.12,2.12,0,0,1,.09.8,6.36,6.36,0,0,1-.15.95l-.82,3.84-.29-.19,3.43-2.5.55.75Z"/><path d="M513.45,353.58a2.66,2.66,0,0,1-1.32.52,2.55,2.55,0,0,1-1.33-.21,2.75,2.75,0,0,1-1.09-.9l-1.7-2.35a2.68,2.68,0,0,1-.53-1.32,2.55,2.55,0,0,1,.21-1.33,2.76,2.76,0,0,1,.91-1.09,2.68,2.68,0,0,1,1.32-.52,2.49,2.49,0,0,1,1.32.21,2.63,2.63,0,0,1,1.09.91l1.71,2.35a2.69,2.69,0,0,1,.52,1.31,2.55,2.55,0,0,1-.21,1.33A2.75,2.75,0,0,1,513.45,353.58Zm-.56-.76a1.6,1.6,0,0,0,.56-.68,1.75,1.75,0,0,0,.13-.85,1.61,1.61,0,0,0-.32-.82L511.49,348a1.66,1.66,0,0,0-1.53-.68,1.68,1.68,0,0,0-1.36,1,1.65,1.65,0,0,0-.14.85,1.54,1.54,0,0,0,.32.81l1.77,2.45a1.68,1.68,0,0,0,2.34.37Z"/><path d="M517.29,350.58l-.51-.72,1-4.62a2.47,2.47,0,0,0,0-1,1.91,1.91,0,0,0-.31-.68,1.76,1.76,0,0,0-.65-.54,1.59,1.59,0,0,0-.8-.13,1.48,1.48,0,0,0-.79.3,1.5,1.5,0,0,0-.55.68,1.65,1.65,0,0,0-.12.82,1.53,1.53,0,0,0,.3.76l-.81.59a2.52,2.52,0,0,1-.5-1.27,2.48,2.48,0,0,1,.23-1.28,2.81,2.81,0,0,1,.91-1.07A2.61,2.61,0,0,1,516,342a2.46,2.46,0,0,1,1.28.2,2.64,2.64,0,0,1,1,.87,2.81,2.81,0,0,1,.42.8,2.12,2.12,0,0,1,.09.8,6.36,6.36,0,0,1-.15.95l-.82,3.84-.29-.19,3.44-2.5.55.75Z"/><path d="M523.15,346.32l-.51-.72,1-4.62a2.42,2.42,0,0,0,0-1,1.76,1.76,0,0,0-.31-.68,1.63,1.63,0,0,0-.65-.55,1.59,1.59,0,0,0-.8-.13,1.48,1.48,0,0,0-.79.3,1.56,1.56,0,0,0-.55.68,1.65,1.65,0,0,0-.12.82,1.56,1.56,0,0,0,.3.77l-.81.58a2.52,2.52,0,0,1-.5-1.26,2.5,2.5,0,0,1,.23-1.29,2.78,2.78,0,0,1,.91-1.06,2.63,2.63,0,0,1,1.27-.51,2.57,2.57,0,0,1,1.28.21,2.48,2.48,0,0,1,1,.86,3,3,0,0,1,.42.8,2.12,2.12,0,0,1,.09.8,6.36,6.36,0,0,1-.15.95l-.82,3.84-.29-.19,3.44-2.5.55.76Z"/><path d="M531.45,340.5a2.63,2.63,0,0,1-1.32.52,2.55,2.55,0,0,1-1.33-.21,2.72,2.72,0,0,1-1.08-.9L526,337.56a2.78,2.78,0,0,1-.53-1.32,2.65,2.65,0,0,1,1.12-2.42,2.72,2.72,0,0,1,1.32-.52,2.55,2.55,0,0,1,1.33.21,2.67,2.67,0,0,1,1.08.91l1.71,2.35a2.7,2.7,0,0,1,.53,1.31,2.55,2.55,0,0,1-.21,1.33A2.78,2.78,0,0,1,531.45,340.5Zm-.55-.76a1.68,1.68,0,0,0,.37-2.34L529.49,335a1.59,1.59,0,0,0-.68-.55,1.62,1.62,0,0,0-.84-.13,1.56,1.56,0,0,0-.82.31,1.65,1.65,0,0,0-.55.68,1.76,1.76,0,0,0-.14.85,1.63,1.63,0,0,0,.32.81l1.77,2.45a1.69,1.69,0,0,0,2.35.37Z"/><path d="M535.29,337.5l-.51-.72,1-4.62a2.29,2.29,0,0,0,0-1,1.91,1.91,0,0,0-.31-.68,1.69,1.69,0,0,0-.65-.54,1.58,1.58,0,0,0-.8-.13,1.65,1.65,0,0,0-1.34,1,1.65,1.65,0,0,0-.12.82,1.53,1.53,0,0,0,.3.76l-.81.59a2.5,2.5,0,0,1-.49-1.27,2.29,2.29,0,0,1,.23-1.28,2.77,2.77,0,0,1,.9-1.07,2.61,2.61,0,0,1,1.27-.5,2.48,2.48,0,0,1,1.29.2,2.61,2.61,0,0,1,1,.86,2.74,2.74,0,0,1,.42.81,2.12,2.12,0,0,1,.09.8,5.2,5.2,0,0,1-.14.95l-.82,3.84-.3-.19,3.44-2.5.55.75Z"/><path d="M550.84,359.3l-.51-.72,1-4.62a2.14,2.14,0,0,0,0-1,1.83,1.83,0,0,0-.31-.68,1.61,1.61,0,0,0-1.45-.68,1.62,1.62,0,0,0-.79.31,1.53,1.53,0,0,0-.55.67,1.68,1.68,0,0,0-.12.83,1.53,1.53,0,0,0,.3.76l-.81.59a2.5,2.5,0,0,1-.49-1.27,2.34,2.34,0,0,1,.23-1.29,2.74,2.74,0,0,1,.9-1.06,2.52,2.52,0,0,1,1.27-.5,2.48,2.48,0,0,1,1.29.2,2.61,2.61,0,0,1,1,.86,2.52,2.52,0,0,1,.42.81,2.12,2.12,0,0,1,.09.8,5.2,5.2,0,0,1-.14.95l-.82,3.84-.3-.2,3.44-2.49.55.75Z"/><path d="M559.14,353.48a2.69,2.69,0,0,1-1.31.52,2.51,2.51,0,0,1-1.33-.21,2.63,2.63,0,0,1-1.09-.91l-1.71-2.35a2.59,2.59,0,0,1-.52-1.31,2.53,2.53,0,0,1,.21-1.33,2.75,2.75,0,0,1,.9-1.09,2.66,2.66,0,0,1,1.32-.52,2.53,2.53,0,0,1,1.33.21,2.74,2.74,0,0,1,1.09.9l1.7,2.35a2.68,2.68,0,0,1,.53,1.32,2.49,2.49,0,0,1-.21,1.32A2.72,2.72,0,0,1,559.14,353.48Zm-.55-.77a1.65,1.65,0,0,0,.55-.68,1.62,1.62,0,0,0,.13-.84,1.56,1.56,0,0,0-.31-.82l-1.78-2.44a1.62,1.62,0,0,0-.67-.55,1.66,1.66,0,0,0-.85-.14,1.61,1.61,0,0,0-.82.32,1.59,1.59,0,0,0-.55.68,1.64,1.64,0,0,0-.13.85,1.56,1.56,0,0,0,.31.81l1.78,2.44a1.55,1.55,0,0,0,.67.55,1.68,1.68,0,0,0,.85.14A1.58,1.58,0,0,0,558.59,352.71Z"/><path d="M563,350.47l-.51-.71,1-4.63a2.22,2.22,0,0,0,0-.95,2,2,0,0,0-.3-.68,1.64,1.64,0,0,0-1.46-.68,1.62,1.62,0,0,0-.79.31,1.6,1.6,0,0,0-.55.67,1.66,1.66,0,0,0-.12.82,1.45,1.45,0,0,0,.31.77l-.82.59a2.5,2.5,0,0,1-.49-1.27,2.4,2.4,0,0,1,.23-1.29,2.77,2.77,0,0,1,.91-1.06,2.53,2.53,0,0,1,2.55-.3,2.53,2.53,0,0,1,1,.86,2.27,2.27,0,0,1,.52,1.61,6.57,6.57,0,0,1-.15,1l-.82,3.83-.3-.19,3.44-2.5.55.76Z"/><path d="M568.84,346.22l-.51-.72,1-4.62a2.27,2.27,0,0,0,0-1,1.82,1.82,0,0,0-.3-.68,1.72,1.72,0,0,0-.66-.54,1.68,1.68,0,0,0-.8-.14,1.62,1.62,0,0,0-.79.31,1.6,1.6,0,0,0-.55.67,1.7,1.7,0,0,0-.12.83,1.53,1.53,0,0,0,.3.76l-.8.59a2.43,2.43,0,0,1-.5-1.27,2.36,2.36,0,0,1,.23-1.28,2.72,2.72,0,0,1,.91-1.07,2.54,2.54,0,0,1,1.26-.5,2.48,2.48,0,0,1,1.29.2,2.61,2.61,0,0,1,1,.86,2.79,2.79,0,0,1,.43.81,2.34,2.34,0,0,1,.09.8,6.36,6.36,0,0,1-.15,1l-.82,3.84-.3-.2,3.44-2.49.55.75Z"/><path d="M577.14,340.4a2.69,2.69,0,0,1-1.31.52,2.53,2.53,0,0,1-1.33-.21,2.7,2.7,0,0,1-1.09-.91l-1.71-2.35a2.69,2.69,0,0,1-.52-1.31,2.53,2.53,0,0,1,.21-1.33,2.7,2.7,0,0,1,.91-1.09,2.59,2.59,0,0,1,1.31-.52,2.51,2.51,0,0,1,1.33.21,2.75,2.75,0,0,1,1.09.9l1.71,2.35a2.76,2.76,0,0,1,.52,1.32,2.49,2.49,0,0,1-.21,1.32A2.72,2.72,0,0,1,577.14,340.4Zm-.55-.77a1.57,1.57,0,0,0,.55-.68,1.63,1.63,0,0,0,.14-.84,1.67,1.67,0,0,0-.32-.82l-1.77-2.44a1.65,1.65,0,0,0-.68-.55,1.66,1.66,0,0,0-.85-.14,1.64,1.64,0,0,0-.82.32,1.59,1.59,0,0,0-.55.68,1.75,1.75,0,0,0-.13.85,1.65,1.65,0,0,0,.31.81l1.78,2.44a1.57,1.57,0,0,0,.68.55,1.65,1.65,0,0,0,.85.14A1.58,1.58,0,0,0,576.59,339.63Z"/><path d="M583,336.12a2.64,2.64,0,0,1-1,.46,2.42,2.42,0,0,1-1.07,0,2.46,2.46,0,0,1-1-.45l.61-.77a1.6,1.6,0,0,0,1,.32,1.68,1.68,0,0,0,.93-.34,1.65,1.65,0,0,0,.55-.67,1.43,1.43,0,0,0,.1-.79,1.79,1.79,0,0,0-.34-.81,1.65,1.65,0,0,0-1.06-.7,1.49,1.49,0,0,0-1.2.3,2.09,2.09,0,0,0-.31.29,2.41,2.41,0,0,0-.23.36l-.84-.35.81-3.87.3.19-3.19,2.32-.55-.76,3.78-2.74.55.76-.62,3.41L580,332a2.58,2.58,0,0,1,1.27-.59,2.18,2.18,0,0,1,1.26.18,2.7,2.7,0,0,1,1.05.89,2.66,2.66,0,0,1,.52,1.29,2.55,2.55,0,0,1-.21,1.28A2.67,2.67,0,0,1,583,336.12Z"/><path d="M596.42,359.51l-.51-.71,1-4.63a2.24,2.24,0,0,0,0-.95,1.83,1.83,0,0,0-.31-.68A1.47,1.47,0,0,0,596,352a1.58,1.58,0,0,0-.8-.14,1.65,1.65,0,0,0-1.34,1,1.66,1.66,0,0,0-.12.82,1.56,1.56,0,0,0,.3.77l-.81.59a2.54,2.54,0,0,1-.49-1.27,2.31,2.31,0,0,1,.23-1.29,2.74,2.74,0,0,1,.9-1.06,2.52,2.52,0,0,1,1.27-.5,2.48,2.48,0,0,1,1.29.2,2.53,2.53,0,0,1,1,.86,2.7,2.7,0,0,1,.42.8,2.2,2.2,0,0,1,.09.81,5.1,5.1,0,0,1-.14.94l-.82,3.84-.3-.19,3.44-2.5.55.76Z"/><path d="M604.72,353.69a2.7,2.7,0,0,1-1.31.53,2.75,2.75,0,0,1-1.33-.21,2.63,2.63,0,0,1-1.09-.91l-1.71-2.35a2.59,2.59,0,0,1-.52-1.31,2.51,2.51,0,0,1,.21-1.33,2.68,2.68,0,0,1,.9-1.09,2.78,2.78,0,0,1,1.32-.53,2.53,2.53,0,0,1,1.33.21,2.76,2.76,0,0,1,1.09.91l1.7,2.35a2.61,2.61,0,0,1,.53,1.31,2.53,2.53,0,0,1-.21,1.33A2.63,2.63,0,0,1,604.72,353.69Zm-.55-.76a1.57,1.57,0,0,0,.55-.68,1.64,1.64,0,0,0,.13-.85,1.56,1.56,0,0,0-.31-.81l-1.77-2.44a1.63,1.63,0,0,0-.68-.55,1.66,1.66,0,0,0-.85-.14,1.69,1.69,0,0,0-.82.31,1.71,1.71,0,0,0-.55.68,1.71,1.71,0,0,0,.18,1.67l1.78,2.44a1.62,1.62,0,0,0,.67.55,1.8,1.8,0,0,0,.85.14A1.67,1.67,0,0,0,604.17,352.93Z"/><path d="M608.56,350.69l-.51-.72,1-4.62a2.22,2.22,0,0,0,0-1,1.82,1.82,0,0,0-.3-.68,1.66,1.66,0,0,0-.66-.55,1.56,1.56,0,0,0-.8-.13,1.51,1.51,0,0,0-.79.3,1.63,1.63,0,0,0-.55.68,1.66,1.66,0,0,0-.12.82,1.48,1.48,0,0,0,.31.77l-.81.59a2.47,2.47,0,0,1-.5-1.27,2.4,2.4,0,0,1,.23-1.29,2.7,2.7,0,0,1,.91-1.06,2.47,2.47,0,0,1,2.55-.3,2.53,2.53,0,0,1,1,.86,2.75,2.75,0,0,1,.43.8,2.37,2.37,0,0,1,.09.8,6.36,6.36,0,0,1-.15.95l-.82,3.84-.3-.19,3.44-2.5.55.76Z"/><path d="M614.42,346.43l-.51-.71,1-4.63a2.22,2.22,0,0,0,0-.95,1.82,1.82,0,0,0-.3-.68,1.64,1.64,0,0,0-1.46-.68,1.61,1.61,0,0,0-.79.3,1.7,1.7,0,0,0-.55.68,1.66,1.66,0,0,0-.12.82,1.48,1.48,0,0,0,.31.77l-.81.59a2.56,2.56,0,0,1-.5-1.27,2.4,2.4,0,0,1,.23-1.29,2.77,2.77,0,0,1,.91-1.06,2.53,2.53,0,0,1,2.55-.3,2.53,2.53,0,0,1,1,.86,2.27,2.27,0,0,1,.52,1.61,6.25,6.25,0,0,1-.15.94l-.82,3.84-.3-.19,3.44-2.5.55.76Z"/><path d="M622.72,340.61a2.7,2.7,0,0,1-1.31.53,2.75,2.75,0,0,1-1.33-.21A2.7,2.7,0,0,1,619,340l-1.71-2.35a2.69,2.69,0,0,1-.52-1.31A2.51,2.51,0,0,1,617,335a2.63,2.63,0,0,1,.91-1.09,2.7,2.7,0,0,1,1.31-.53,2.51,2.51,0,0,1,1.33.21,2.63,2.63,0,0,1,1.09.91l1.71,2.35a2.69,2.69,0,0,1,.52,1.31,2.53,2.53,0,0,1-.21,1.33A2.63,2.63,0,0,1,622.72,340.61Zm-.55-.76a1.57,1.57,0,0,0,.55-.68,1.76,1.76,0,0,0,.14-.85,1.67,1.67,0,0,0-.32-.81l-1.77-2.44a1.57,1.57,0,0,0-.68-.55,1.65,1.65,0,0,0-.85-.14,1.72,1.72,0,0,0-.82.31,1.8,1.8,0,0,0-.55.68,1.77,1.77,0,0,0-.13.85,1.65,1.65,0,0,0,.31.82l1.78,2.44a1.65,1.65,0,0,0,.68.55,1.76,1.76,0,0,0,.85.14A1.67,1.67,0,0,0,622.17,339.85Z"/><path d="M629.52,335.47l-.86-1.17-2.95,2.14-.54-.76-1.14-6,.9-.65,1.14,6,2-1.49-1.31-1.8.8-.58,1.31,1.8.67-.48.55.75-.67.48.86,1.18Z"/><path d="M642.29,359.41l-.52-.71,1-4.63a2.42,2.42,0,0,0,0-.95,1.83,1.83,0,0,0-.31-.68,1.59,1.59,0,0,0-.65-.54,1.62,1.62,0,0,0-.81-.14,1.45,1.45,0,0,0-.78.3,1.56,1.56,0,0,0-.55.68,1.66,1.66,0,0,0-.12.82,1.56,1.56,0,0,0,.3.77l-.81.59a2.56,2.56,0,0,1-.5-1.27,2.5,2.5,0,0,1,.23-1.29,2.86,2.86,0,0,1,.91-1.06,2.52,2.52,0,0,1,1.27-.5,2.46,2.46,0,0,1,1.28.2,2.62,2.62,0,0,1,1,.86,3,3,0,0,1,.42.8,2.15,2.15,0,0,1,.09.8,6.17,6.17,0,0,1-.15,1l-.82,3.84-.29-.19,3.44-2.5.54.76Z"/><path d="M650.59,353.59a2.6,2.6,0,0,1-3.74-.59l-1.7-2.35a2.65,2.65,0,0,1-.53-1.31,2.73,2.73,0,0,1,.21-1.33,2.63,2.63,0,0,1,.91-1.09,2.7,2.7,0,0,1,1.32-.53,2.49,2.49,0,0,1,1.32.21,2.63,2.63,0,0,1,1.09.91l1.71,2.35a2.7,2.7,0,0,1,.53,1.31,2.64,2.64,0,0,1-.22,1.33A2.61,2.61,0,0,1,650.59,353.59Zm-.55-.76a1.65,1.65,0,0,0,.55-.68,1.75,1.75,0,0,0,.13-.85,1.65,1.65,0,0,0-.31-.81L648.63,348a1.66,1.66,0,0,0-1.52-.68,1.67,1.67,0,0,0-1.19,2.66l1.77,2.44a1.65,1.65,0,0,0,.68.55,1.76,1.76,0,0,0,.85.14A1.7,1.7,0,0,0,650,352.83Z"/><path d="M654.43,350.59l-.51-.72,1-4.62a2.25,2.25,0,0,0,0-.95,1.76,1.76,0,0,0-.31-.68,1.63,1.63,0,0,0-.65-.55,1.58,1.58,0,0,0-.8-.13,1.48,1.48,0,0,0-.79.3,1.56,1.56,0,0,0-.55.68,1.65,1.65,0,0,0-.12.82,1.56,1.56,0,0,0,.3.77l-.81.59a2.59,2.59,0,0,1-.5-1.27,2.4,2.4,0,0,1,.24-1.29,2.67,2.67,0,0,1,.9-1.06,2.49,2.49,0,0,1,2.56-.3,2.59,2.59,0,0,1,1,.86,3,3,0,0,1,.42.8,2.12,2.12,0,0,1,.09.8,7.81,7.81,0,0,1-.14.95l-.82,3.84-.3-.19,3.44-2.5.55.76Z"/><path d="M660.29,346.33l-.51-.71,1-4.63a2.24,2.24,0,0,0,0-.95,1.83,1.83,0,0,0-.31-.68,1.53,1.53,0,0,0-.65-.54,1.58,1.58,0,0,0-.8-.14,1.48,1.48,0,0,0-.79.3,1.62,1.62,0,0,0-.55.68,1.66,1.66,0,0,0-.12.82,1.56,1.56,0,0,0,.3.77l-.81.59a2.65,2.65,0,0,1-.5-1.27,2.4,2.4,0,0,1,.24-1.29,2.74,2.74,0,0,1,.9-1.06,2.52,2.52,0,0,1,1.27-.5,2.49,2.49,0,0,1,1.29.2,2.59,2.59,0,0,1,1,.86,2.7,2.7,0,0,1,.42.8,2.17,2.17,0,0,1,.09.8,7.54,7.54,0,0,1-.14.95l-.82,3.84-.3-.19,3.44-2.5.55.76Z"/><path d="M668.59,340.51a2.58,2.58,0,0,1-2.64.32,2.63,2.63,0,0,1-1.09-.91l-1.71-2.35a2.7,2.7,0,0,1-.53-1.31,2.65,2.65,0,0,1,1.12-2.42,2.78,2.78,0,0,1,1.32-.53,2.55,2.55,0,0,1,1.33.21,2.67,2.67,0,0,1,1.08.91l1.71,2.35a2.7,2.7,0,0,1,.53,1.31,2.53,2.53,0,0,1-.21,1.33A2.63,2.63,0,0,1,668.59,340.51Zm-.55-.76a1.68,1.68,0,0,0,.37-2.34L666.63,335a1.7,1.7,0,0,0-.67-.55,1.79,1.79,0,0,0-.85-.13,1.69,1.69,0,0,0-.82.31,1.71,1.71,0,0,0-.55.68,1.66,1.66,0,0,0-.13.85,1.56,1.56,0,0,0,.31.82l1.77,2.44a1.71,1.71,0,0,0,.68.55,1.78,1.78,0,0,0,.85.14A1.67,1.67,0,0,0,668,339.75Z"/><path d="M674.61,336.14a2.62,2.62,0,0,1-1.07.47,2.54,2.54,0,0,1-1.13,0,2.69,2.69,0,0,1-1-.51l.61-.76a1.62,1.62,0,0,0,.68.34,1.79,1.79,0,0,0,.73,0,1.6,1.6,0,0,0,.67-.28,1.65,1.65,0,0,0,.56-.7,1.86,1.86,0,0,0,.14-.87,1.71,1.71,0,0,0-1-1.38,1.83,1.83,0,0,0-.86-.13,1.82,1.82,0,0,0-1.42,1,1.81,1.81,0,0,0-.16.77l-.9.25-2.24-3.5,3.44-2.5.55.76-3.06,2.22.11-.59,1.79,2.8-.34-.1a2.26,2.26,0,0,1,.32-.9,2.57,2.57,0,0,1,.64-.71,2.5,2.5,0,0,1,1.27-.49,2.63,2.63,0,0,1,1.3.21,2.53,2.53,0,0,1,1.06.87,2.61,2.61,0,0,1,.48,1.3,2.89,2.89,0,0,1-.24,1.36A2.67,2.67,0,0,1,674.61,336.14Z"/><path d="M688.05,359.67l-.52-.71,1-4.63a2.42,2.42,0,0,0,0-.95,1.83,1.83,0,0,0-.31-.68,1.59,1.59,0,0,0-.65-.54,1.55,1.55,0,0,0-1.6.17,1.58,1.58,0,0,0-.54.67,1.66,1.66,0,0,0-.12.82,1.52,1.52,0,0,0,.3.77l-.81.59a2.46,2.46,0,0,1-.27-2.56,2.86,2.86,0,0,1,.91-1.06,2.52,2.52,0,0,1,1.27-.5,2.46,2.46,0,0,1,1.28.2,2.62,2.62,0,0,1,1.05.86,2.86,2.86,0,0,1,.42.81,2.12,2.12,0,0,1,.09.8,6.57,6.57,0,0,1-.15.95l-.82,3.84-.29-.2,3.43-2.5.56.76Z"/><path d="M696.35,353.85a2.68,2.68,0,0,1-1.32.53,2.55,2.55,0,0,1-1.33-.21,2.76,2.76,0,0,1-1.09-.91l-1.7-2.35a2.59,2.59,0,0,1,.59-3.73,2.74,2.74,0,0,1,1.32-.53,2.57,2.57,0,0,1,2.41,1.12l1.71,2.35a2.74,2.74,0,0,1,.53,1.31,2.64,2.64,0,0,1-.22,1.33A2.61,2.61,0,0,1,696.35,353.85Zm-.55-.76a1.65,1.65,0,0,0,.55-.68,1.73,1.73,0,0,0,.13-.84,1.65,1.65,0,0,0-.31-.82l-1.78-2.44a1.57,1.57,0,0,0-.68-.55,1.63,1.63,0,0,0-.84-.14,1.58,1.58,0,0,0-.82.32,1.55,1.55,0,0,0-.55.67,1.65,1.65,0,0,0,.18,1.67l1.77,2.44a1.7,1.7,0,0,0,1.53.69A1.7,1.7,0,0,0,695.8,353.09Z"/><path d="M700.19,350.85l-.51-.71,1-4.63a2.42,2.42,0,0,0,0-.95,1.83,1.83,0,0,0-.31-.68,1.53,1.53,0,0,0-.65-.54,1.58,1.58,0,0,0-.8-.14,1.48,1.48,0,0,0-.79.3,1.56,1.56,0,0,0-.55.68,1.66,1.66,0,0,0-.12.82,1.56,1.56,0,0,0,.3.77l-.81.59a2.56,2.56,0,0,1-.5-1.27,2.5,2.5,0,0,1,.23-1.29,2.78,2.78,0,0,1,.91-1.06,2.49,2.49,0,0,1,2.56-.3,2.59,2.59,0,0,1,1,.86,2.7,2.7,0,0,1,.42.8,2.15,2.15,0,0,1,.09.8,6.07,6.07,0,0,1-.14,1l-.83,3.84-.29-.19,3.44-2.5.55.76Z"/><path d="M706.05,346.59l-.51-.71,1-4.63a2.24,2.24,0,0,0,0-.95,1.83,1.83,0,0,0-.31-.68,1.53,1.53,0,0,0-.65-.54,1.54,1.54,0,0,0-1.59.17,1.53,1.53,0,0,0-.55.67,1.68,1.68,0,0,0-.12.83,1.53,1.53,0,0,0,.3.76l-.81.59a2.61,2.61,0,0,1-.5-1.27,2.4,2.4,0,0,1,.24-1.29,2.74,2.74,0,0,1,.9-1.06,2.52,2.52,0,0,1,1.27-.5,2.49,2.49,0,0,1,1.29.2,2.59,2.59,0,0,1,1,.86,2.62,2.62,0,0,1,.42.81,2.12,2.12,0,0,1,.09.8,6.42,6.42,0,0,1-.14,1l-.82,3.84-.3-.2,3.44-2.5.55.76Z"/><path d="M714.35,340.77a2.64,2.64,0,0,1-1.32.53,2.49,2.49,0,0,1-1.32-.21,2.63,2.63,0,0,1-1.09-.91l-1.71-2.35a2.59,2.59,0,0,1-.52-1.31,2.53,2.53,0,0,1,.21-1.33,2.61,2.61,0,0,1,.9-1.09,2.78,2.78,0,0,1,1.32-.53,2.75,2.75,0,0,1,1.33.21,2.85,2.85,0,0,1,1.09.91l1.7,2.35a2.74,2.74,0,0,1,.53,1.31,2.53,2.53,0,0,1-.21,1.33A2.63,2.63,0,0,1,714.35,340.77Zm-.55-.76a1.65,1.65,0,0,0,.55-.68,1.62,1.62,0,0,0,.13-.84,1.65,1.65,0,0,0-.31-.82l-1.78-2.44a1.62,1.62,0,0,0-.67-.55,1.68,1.68,0,0,0-.85-.14,1.73,1.73,0,0,0-1.37,1,1.67,1.67,0,0,0-.13.85,1.56,1.56,0,0,0,.31.82l1.77,2.44a1.71,1.71,0,0,0,.68.55,1.65,1.65,0,0,0,1.67-.18Z"/><path d="M720.66,336.19a2.65,2.65,0,0,1-2.69.28,2.75,2.75,0,0,1-1.13-.94l-1.55-2.13a2.82,2.82,0,0,1-.57-1.4,2.55,2.55,0,0,1,.21-1.39,2.86,2.86,0,0,1,1-1.14A2.91,2.91,0,0,1,717,329a2.65,2.65,0,0,1,1.22.06l-.21,1a1.75,1.75,0,0,0-.82-.08,1.67,1.67,0,0,0-.78.31,1.72,1.72,0,0,0-.6.75,1.91,1.91,0,0,0-.13.91,1.78,1.78,0,0,0,.33.85L717,334l-.31-.07a2.44,2.44,0,0,1,.25-1.15,2.26,2.26,0,0,1,.76-.92,2.49,2.49,0,0,1,1.27-.5,2.65,2.65,0,0,1,2.84,2.39,2.71,2.71,0,0,1-1.11,2.43Zm-.56-.76a1.77,1.77,0,0,0,.56-.69,1.72,1.72,0,0,0,.14-.86,1.67,1.67,0,0,0-.32-.84,1.64,1.64,0,0,0-.69-.56,1.82,1.82,0,0,0-.86-.14,1.76,1.76,0,0,0-1.4,1,1.85,1.85,0,0,0-.13.87,1.61,1.61,0,0,0,.32.83,1.64,1.64,0,0,0,.69.56,1.8,1.8,0,0,0,.86.14A1.74,1.74,0,0,0,720.1,335.43Z"/><path d="M734.08,359l-.51-.71,1-4.63a2.42,2.42,0,0,0,0-.95,1.83,1.83,0,0,0-.31-.68,1.53,1.53,0,0,0-.65-.54,1.56,1.56,0,0,0-1.59.16,1.62,1.62,0,0,0-.55.68,1.66,1.66,0,0,0-.12.82,1.56,1.56,0,0,0,.3.77l-.81.59a2.56,2.56,0,0,1-.5-1.27,2.5,2.5,0,0,1,.23-1.29,2.86,2.86,0,0,1,.91-1.06,2.52,2.52,0,0,1,1.27-.5,2.46,2.46,0,0,1,1.28.2,2.55,2.55,0,0,1,1.05.86,3,3,0,0,1,.42.8,2.17,2.17,0,0,1,.09.81,6.25,6.25,0,0,1-.15.94l-.82,3.84-.29-.19,3.44-2.5.55.76Z"/><path d="M742.38,353.15a2.74,2.74,0,0,1-1.32.53,2.76,2.76,0,0,1-1.33-.21,2.67,2.67,0,0,1-1.08-.91l-1.71-2.35a2.59,2.59,0,0,1-.52-1.31,2.51,2.51,0,0,1,.21-1.33,2.61,2.61,0,0,1,.9-1.09,2.74,2.74,0,0,1,1.32-.53,2.55,2.55,0,0,1,1.33.21,2.67,2.67,0,0,1,1.08.91l1.71,2.35a2.7,2.7,0,0,1,.53,1.31,2.53,2.53,0,0,1-.21,1.33A2.71,2.71,0,0,1,742.38,353.15Zm-.55-.76a1.68,1.68,0,0,0,.37-2.34l-1.78-2.44a1.55,1.55,0,0,0-.67-.55,1.68,1.68,0,0,0-.85-.14,1.65,1.65,0,0,0-.82.31,1.71,1.71,0,0,0-.55.68,1.66,1.66,0,0,0-.13.85,1.56,1.56,0,0,0,.31.82l1.77,2.44a1.71,1.71,0,0,0,.68.55,1.78,1.78,0,0,0,.85.14A1.67,1.67,0,0,0,741.83,352.39Z"/><path d="M746.22,350.15l-.51-.72,1-4.62a2.09,2.09,0,0,0,0-.95,1.83,1.83,0,0,0-.31-.68,1.61,1.61,0,0,0-1.45-.68,1.51,1.51,0,0,0-.79.3,1.56,1.56,0,0,0-.55.68,1.66,1.66,0,0,0-.12.82,1.56,1.56,0,0,0,.3.77l-.81.59a2.57,2.57,0,0,1-.49-1.27,2.31,2.31,0,0,1,.23-1.29,2.67,2.67,0,0,1,.9-1.06,2.63,2.63,0,0,1,1.27-.51,2.59,2.59,0,0,1,1.29.21,2.53,2.53,0,0,1,1,.86,2.48,2.48,0,0,1,.42.8,2.15,2.15,0,0,1,.09.8,5.2,5.2,0,0,1-.14.95l-.82,3.84-.3-.19,3.44-2.5.55.76Z"/><path d="M752.08,345.89l-.51-.71,1-4.63a2.09,2.09,0,0,0,0-.95,2,2,0,0,0-.3-.68,1.64,1.64,0,0,0-1.46-.68,1.61,1.61,0,0,0-.79.3,1.7,1.7,0,0,0-.55.68,1.66,1.66,0,0,0-.12.82,1.56,1.56,0,0,0,.3.77l-.81.59a2.54,2.54,0,0,1-.49-1.27,2.31,2.31,0,0,1,.23-1.29,2.74,2.74,0,0,1,.9-1.06,2.52,2.52,0,0,1,1.27-.5,2.48,2.48,0,0,1,1.29.2,2.53,2.53,0,0,1,1,.86,2.48,2.48,0,0,1,.42.8,2.2,2.2,0,0,1,.09.81,5.1,5.1,0,0,1-.14.94l-.82,3.84-.3-.19,3.44-2.5.55.76Z"/><path d="M760.38,340.07a2.7,2.7,0,0,1-1.31.53,2.75,2.75,0,0,1-1.33-.21,2.63,2.63,0,0,1-1.09-.91l-1.71-2.35a2.59,2.59,0,0,1-.52-1.31,2.51,2.51,0,0,1,.21-1.33,2.68,2.68,0,0,1,.9-1.09,2.78,2.78,0,0,1,1.32-.53,2.53,2.53,0,0,1,1.33.21,2.76,2.76,0,0,1,1.09.91l1.7,2.35a2.61,2.61,0,0,1,.53,1.31,2.53,2.53,0,0,1-.21,1.33A2.63,2.63,0,0,1,760.38,340.07Zm-.55-.76a1.57,1.57,0,0,0,.55-.68,1.64,1.64,0,0,0,.13-.85,1.56,1.56,0,0,0-.31-.81l-1.77-2.44a1.57,1.57,0,0,0-.68-.55,1.66,1.66,0,0,0-.85-.14,1.69,1.69,0,0,0-.82.31,1.71,1.71,0,0,0-.55.68,1.71,1.71,0,0,0,.18,1.67l1.78,2.44a1.59,1.59,0,0,0,.68.55,1.74,1.74,0,0,0,.84.14A1.67,1.67,0,0,0,759.83,339.31Z"/><path d="M764.74,336.7,763,329.38,760,331.49l-.56-.76,3.76-2.73.56.76,1.8,7.32Z"/><path d="M779.21,359.48l-.51-.72,1-4.62a2.25,2.25,0,0,0,0-.95,1.76,1.76,0,0,0-.31-.68,1.63,1.63,0,0,0-.65-.55,1.58,1.58,0,0,0-.8-.13,1.51,1.51,0,0,0-.79.3,1.56,1.56,0,0,0-.55.68,1.65,1.65,0,0,0-.12.82,1.56,1.56,0,0,0,.3.77L776,355a2.57,2.57,0,0,1-.49-1.27,2.31,2.31,0,0,1,.23-1.29,2.67,2.67,0,0,1,.9-1.06,2.63,2.63,0,0,1,1.27-.51,2.59,2.59,0,0,1,1.29.21,2.53,2.53,0,0,1,1,.86,2.7,2.7,0,0,1,.42.8,2.12,2.12,0,0,1,.09.8,5.2,5.2,0,0,1-.14,1l-.82,3.84-.3-.19,3.44-2.5.55.76Z"/><path d="M787.51,353.66a2.59,2.59,0,0,1-1.31.52,2.51,2.51,0,0,1-1.33-.21,2.61,2.61,0,0,1-1.09-.9l-1.71-2.35a2.63,2.63,0,0,1-.52-1.32,2.55,2.55,0,0,1,.21-1.33,2.72,2.72,0,0,1,.9-1.08,2.68,2.68,0,0,1,1.32-.53,2.53,2.53,0,0,1,1.33.21,2.76,2.76,0,0,1,1.09.91l1.7,2.35a2.61,2.61,0,0,1,.53,1.31,2.55,2.55,0,0,1-.21,1.33A2.7,2.7,0,0,1,787.51,353.66Zm-.55-.76a1.66,1.66,0,0,0,.68-1.53,1.53,1.53,0,0,0-.31-.81l-1.78-2.45a1.62,1.62,0,0,0-.67-.55,1.66,1.66,0,0,0-.85-.13,1.59,1.59,0,0,0-.82.31,1.66,1.66,0,0,0-.68,1.53,1.53,1.53,0,0,0,.31.81l1.78,2.45a1.62,1.62,0,0,0,.67.55,1.67,1.67,0,0,0,.85.13A1.65,1.65,0,0,0,787,352.9Z"/><path d="M791.35,350.66l-.51-.72,1-4.62a2.27,2.27,0,0,0,0-1,2.08,2.08,0,0,0-.3-.68,1.72,1.72,0,0,0-.66-.54,1.56,1.56,0,0,0-.8-.13,1.51,1.51,0,0,0-.79.3,1.57,1.57,0,0,0-.55.68,1.65,1.65,0,0,0-.12.82,1.42,1.42,0,0,0,.31.76l-.82.59a2.5,2.5,0,0,1-.49-1.27,2.38,2.38,0,0,1,.23-1.28,2.8,2.8,0,0,1,.91-1.07A2.58,2.58,0,0,1,790,342a2.48,2.48,0,0,1,1.29.21,2.45,2.45,0,0,1,1,.86,2.75,2.75,0,0,1,.43.8,2.62,2.62,0,0,1,.09.8,6.36,6.36,0,0,1-.15,1l-.82,3.84-.3-.19,3.44-2.5.55.75Z"/><path d="M797.21,346.4l-.51-.72,1-4.62a2.22,2.22,0,0,0,0-.95,1.82,1.82,0,0,0-.3-.68,1.66,1.66,0,0,0-.66-.55,1.56,1.56,0,0,0-.8-.13,1.51,1.51,0,0,0-.79.3,1.61,1.61,0,0,0-.67,1.5,1.56,1.56,0,0,0,.3.77l-.8.59a2.5,2.5,0,0,1-.5-1.27,2.4,2.4,0,0,1,.23-1.29,2.7,2.7,0,0,1,.91-1.06,2.47,2.47,0,0,1,2.55-.3,2.53,2.53,0,0,1,1,.86,2.75,2.75,0,0,1,.43.8,2.62,2.62,0,0,1,.09.8,6.36,6.36,0,0,1-.15.95l-.82,3.84-.3-.19,3.44-2.5.55.76Z"/><path d="M805.51,340.58a2.59,2.59,0,0,1-1.31.52,2.53,2.53,0,0,1-1.33-.21,2.67,2.67,0,0,1-1.09-.9l-1.71-2.35a2.72,2.72,0,0,1-.52-1.32,2.49,2.49,0,0,1,.21-1.32,2.92,2.92,0,0,1,2.22-1.62,2.51,2.51,0,0,1,1.33.21,2.7,2.7,0,0,1,1.09.91l1.71,2.35a2.69,2.69,0,0,1,.52,1.31,2.55,2.55,0,0,1-.21,1.33A2.7,2.7,0,0,1,805.51,340.58Zm-.55-.76a1.57,1.57,0,0,0,.55-.68,1.76,1.76,0,0,0,.14-.85,1.67,1.67,0,0,0-.32-.81L803.56,335a1.65,1.65,0,0,0-.68-.55,1.75,1.75,0,0,0-.85-.13,1.63,1.63,0,0,0-.82.31,1.65,1.65,0,0,0-.55.68,1.77,1.77,0,0,0-.13.85,1.62,1.62,0,0,0,.31.81l1.78,2.45a1.68,1.68,0,0,0,2.34.37Z"/><path d="M811.64,336.13a2.77,2.77,0,0,1-1.27.54,2.2,2.2,0,0,1-1.24-.15,2.35,2.35,0,0,1-1-.83,2.45,2.45,0,0,1-.48-1.24,2.19,2.19,0,0,1,.31-1.31l.2.3a2,2,0,0,1-1.14-.11,2.18,2.18,0,0,1-.89-.71,2.15,2.15,0,0,1-.42-1.12,2,2,0,0,1,.24-1.1,3.1,3.1,0,0,1,2-1.46,2,2,0,0,1,2.06.86,2.25,2.25,0,0,1,.41,1.05,1.89,1.89,0,0,1-.25,1.13l-.22-.28a2.17,2.17,0,0,1,1.34.11,2.57,2.57,0,0,1,1.51,2.06,2.28,2.28,0,0,1-.25,1.22A2.76,2.76,0,0,1,811.64,336.13Zm-2.86-3.93a1.48,1.48,0,0,0,.61-.82,1.1,1.1,0,0,0-.23-1,1.13,1.13,0,0,0-.85-.53,1.6,1.6,0,0,0-1,.33,1.58,1.58,0,0,0-.61.82,1.13,1.13,0,0,0,.24,1,1.12,1.12,0,0,0,.84.52A1.58,1.58,0,0,0,808.78,332.2Zm2.31,3.18a1.66,1.66,0,0,0,.68-1,1.4,1.4,0,0,0-.3-1.15,1.44,1.44,0,0,0-1-.65,1.66,1.66,0,0,0-1.14.36,1.64,1.64,0,0,0-.68,1,1.67,1.67,0,0,0,1.31,1.8A1.68,1.68,0,0,0,811.09,335.38Z"/><path d="M825.06,359.67l-.51-.71,1-4.63a2.22,2.22,0,0,0,0-.95,1.82,1.82,0,0,0-.3-.68,1.59,1.59,0,0,0-.65-.54,1.65,1.65,0,0,0-2.15.84,1.55,1.55,0,0,0-.11.82,1.44,1.44,0,0,0,.3.77l-.81.59a2.52,2.52,0,0,1-.5-1.27,2.4,2.4,0,0,1,.23-1.29,2.86,2.86,0,0,1,.91-1.06,2.53,2.53,0,0,1,2.55-.3,2.53,2.53,0,0,1,1,.86,2.75,2.75,0,0,1,.43.8,2.2,2.2,0,0,1,.09.81,6.57,6.57,0,0,1-.15.95l-.82,3.83-.3-.19,3.44-2.5.55.76Z"/><path d="M833.37,353.85a2.68,2.68,0,0,1-1.32.53,2.53,2.53,0,0,1-1.33-.21,2.7,2.7,0,0,1-1.09-.91l-1.71-2.35a2.69,2.69,0,0,1-.52-1.31,2.53,2.53,0,0,1,.21-1.33,2.63,2.63,0,0,1,.91-1.09,2.7,2.7,0,0,1,1.31-.53,2.51,2.51,0,0,1,1.33.21,2.63,2.63,0,0,1,1.09.91l1.71,2.35a2.72,2.72,0,0,1,.52,1.31,2.53,2.53,0,0,1-.21,1.33A2.68,2.68,0,0,1,833.37,353.85Zm-.56-.76a1.67,1.67,0,0,0,.56-.68,1.73,1.73,0,0,0,.13-.84,1.58,1.58,0,0,0-.32-.82l-1.77-2.44a1.57,1.57,0,0,0-.68-.55,1.65,1.65,0,0,0-1.67.18,1.7,1.7,0,0,0-.55.67,1.79,1.79,0,0,0-.13.85,1.65,1.65,0,0,0,.31.82l1.78,2.44a1.65,1.65,0,0,0,.68.55,1.76,1.76,0,0,0,.85.14A1.67,1.67,0,0,0,832.81,353.09Z"/><path d="M837.21,350.85l-.52-.71,1-4.63a2.42,2.42,0,0,0,0-.95,1.83,1.83,0,0,0-.31-.68,1.59,1.59,0,0,0-.65-.54,1.62,1.62,0,0,0-.81-.14,1.45,1.45,0,0,0-.78.3,1.56,1.56,0,0,0-.55.68,1.66,1.66,0,0,0-.12.82,1.56,1.56,0,0,0,.3.77l-.81.59a2.56,2.56,0,0,1-.5-1.27,2.5,2.5,0,0,1,.23-1.29,2.86,2.86,0,0,1,.91-1.06,2.63,2.63,0,0,1,1.27-.51,2.57,2.57,0,0,1,1.28.21,2.62,2.62,0,0,1,1.05.86,3,3,0,0,1,.42.8,2.15,2.15,0,0,1,.09.8,6.17,6.17,0,0,1-.15,1l-.82,3.84-.29-.19,3.44-2.5.54.76Z"/><path d="M843.07,346.59l-.52-.71,1-4.63a2.42,2.42,0,0,0,0-.95,1.83,1.83,0,0,0-.31-.68,1.59,1.59,0,0,0-.65-.54,1.62,1.62,0,0,0-.81-.14,1.59,1.59,0,0,0-.78.31,1.53,1.53,0,0,0-.55.67,1.66,1.66,0,0,0-.12.82,1.52,1.52,0,0,0,.3.77l-.81.59a2.46,2.46,0,0,1-.27-2.56,2.86,2.86,0,0,1,.91-1.06,2.52,2.52,0,0,1,1.27-.5,2.46,2.46,0,0,1,1.28.2,2.62,2.62,0,0,1,1.05.86,3,3,0,0,1,.42.8,2.2,2.2,0,0,1,.09.81,6.57,6.57,0,0,1-.15,1l-.82,3.84-.29-.2,3.44-2.5.55.76Z"/><path d="M851.37,340.77a2.68,2.68,0,0,1-1.32.53,2.55,2.55,0,0,1-1.33-.21,2.76,2.76,0,0,1-1.09-.91l-1.7-2.35a2.61,2.61,0,0,1-.53-1.31,2.75,2.75,0,0,1,.21-1.33,2.63,2.63,0,0,1,.91-1.09,2.7,2.7,0,0,1,1.32-.53,2.76,2.76,0,0,1,1.33.21,2.67,2.67,0,0,1,1.08.91L852,337a2.74,2.74,0,0,1,.53,1.31,2.63,2.63,0,0,1-.21,1.33A2.71,2.71,0,0,1,851.37,340.77Zm-.55-.76a1.65,1.65,0,0,0,.55-.68,1.73,1.73,0,0,0,.13-.84,1.65,1.65,0,0,0-.31-.82l-1.78-2.44a1.57,1.57,0,0,0-.68-.55,1.63,1.63,0,0,0-.84-.14,1.58,1.58,0,0,0-.82.32,1.55,1.55,0,0,0-.55.67,1.8,1.8,0,0,0-.14.85,1.67,1.67,0,0,0,.32.82l1.77,2.44a1.65,1.65,0,0,0,.68.55,1.66,1.66,0,0,0,.85.14A1.7,1.7,0,0,0,850.82,340Z"/><path d="M852.74,329.59a2.51,2.51,0,0,1,1.32-.51,2.6,2.6,0,0,1,1.37.23,2.79,2.79,0,0,1,1.12.94l1.55,2.13a2.94,2.94,0,0,1,.58,1.4,2.67,2.67,0,0,1-.22,1.39,3,3,0,0,1-2.09,1.64,2.81,2.81,0,0,1-1.22-.06l.21-1a1.79,1.79,0,0,0,.83.08,1.76,1.76,0,0,0,.78-.31,1.75,1.75,0,0,0,.72-1.66,1.69,1.69,0,0,0-.33-.85l-.93-1.28.31.07a2.56,2.56,0,0,1-.24,1.15,2.34,2.34,0,0,1-.76.92,2.52,2.52,0,0,1-1.28.5,2.59,2.59,0,0,1-1.29-.21,2.63,2.63,0,0,1-1.06-.88,2.54,2.54,0,0,1-.49-1.3,2.84,2.84,0,0,1,.24-1.35A2.62,2.62,0,0,1,852.74,329.59Zm.55.76a1.77,1.77,0,0,0-.56.69,1.86,1.86,0,0,0-.14.87,1.74,1.74,0,0,0,.32.83,1.77,1.77,0,0,0,.69.56,1.72,1.72,0,0,0,.86.14,1.67,1.67,0,0,0,.84-.32,1.77,1.77,0,0,0,.56-.69,1.73,1.73,0,0,0,.13-.87,1.56,1.56,0,0,0-.32-.83,1.67,1.67,0,0,0-.68-.56,1.82,1.82,0,0,0-.86-.14A1.77,1.77,0,0,0,853.29,330.35Z"/><path d="M3.64,103v-1.45H0v-.93l2.61-5.54H3.72L1.11,100.6H3.64V98.37h1v2.23h.83v.93H4.63V103Z"/><path d="M10.33,103.15A2.71,2.71,0,0,1,9,102.8a2.57,2.57,0,0,1-1-1,2.72,2.72,0,0,1-.34-1.38v-2.9A2.7,2.7,0,0,1,8,96.2a2.57,2.57,0,0,1,1-1,2.61,2.61,0,0,1,1.37-.35,2.61,2.61,0,0,1,1.37.35,2.57,2.57,0,0,1,1,1A2.7,2.7,0,0,1,13,97.57v2.9a2.72,2.72,0,0,1-.34,1.38,2.57,2.57,0,0,1-1,1A2.71,2.71,0,0,1,10.33,103.15Zm0-.94a1.66,1.66,0,0,0,1.45-.84,1.6,1.6,0,0,0,.23-.84v-3a1.6,1.6,0,0,0-.23-.84,1.67,1.67,0,0,0-2.9,0,1.6,1.6,0,0,0-.23.84v3a1.6,1.6,0,0,0,.23.84,1.66,1.66,0,0,0,1.45.84Z"/><path d="M15.31,104.21l.06-.45a.46.46,0,0,0,.35-.09.62.62,0,0,0,.15-.29,1.74,1.74,0,0,0,0-.4h-.57v-1.24h1.08v1.41a1.26,1.26,0,0,1-.28.87A.83.83,0,0,1,15.31,104.21Z"/><path d="M22,103.15a2.71,2.71,0,0,1-1.37-.35,2.55,2.55,0,0,1-.95-1,2.72,2.72,0,0,1-.35-1.38v-2.9a2.71,2.71,0,0,1,.35-1.37,2.55,2.55,0,0,1,.95-1A2.61,2.61,0,0,1,22,94.9a2.67,2.67,0,0,1,1.38.35,2.55,2.55,0,0,1,.95,1,2.71,2.71,0,0,1,.35,1.37v2.9a2.72,2.72,0,0,1-.35,1.38,2.55,2.55,0,0,1-.95,1A2.77,2.77,0,0,1,22,103.15Zm0-.94a1.64,1.64,0,0,0,.85-.23,1.67,1.67,0,0,0,.6-.61,1.6,1.6,0,0,0,.23-.84v-3a1.6,1.6,0,0,0-.23-.84,1.67,1.67,0,0,0-.6-.61,1.64,1.64,0,0,0-.85-.23,1.6,1.6,0,0,0-.84.23,1.62,1.62,0,0,0-.61.61,1.6,1.6,0,0,0-.23.84v3a1.6,1.6,0,0,0,.23.84,1.62,1.62,0,0,0,.61.61A1.6,1.6,0,0,0,22,102.21Z"/><path d="M29.8,103.15a2.75,2.75,0,0,1-1.38-.35,2.62,2.62,0,0,1-1-1,2.72,2.72,0,0,1-.35-1.38v-2.9a2.71,2.71,0,0,1,.35-1.37,2.62,2.62,0,0,1,1-1,2.65,2.65,0,0,1,1.38-.35,2.61,2.61,0,0,1,1.37.35,2.48,2.48,0,0,1,.95,1,2.61,2.61,0,0,1,.35,1.37v2.9a2.62,2.62,0,0,1-.35,1.38,2.48,2.48,0,0,1-.95,1A2.71,2.71,0,0,1,29.8,103.15Zm0-.94a1.6,1.6,0,0,0,.84-.23,1.62,1.62,0,0,0,.61-.61,1.6,1.6,0,0,0,.22-.84v-3a1.6,1.6,0,0,0-.22-.84,1.62,1.62,0,0,0-.61-.61,1.6,1.6,0,0,0-.84-.23,1.66,1.66,0,0,0-1.45.84,1.6,1.6,0,0,0-.23.84v3a1.6,1.6,0,0,0,.23.84,1.66,1.66,0,0,0,1.45.84Z"/><path d="M37.56,103.15a2.71,2.71,0,0,1-1.37-.35,2.55,2.55,0,0,1-.95-1,2.72,2.72,0,0,1-.35-1.38v-2.9a2.71,2.71,0,0,1,.35-1.37,2.55,2.55,0,0,1,.95-1,2.88,2.88,0,0,1,2.75,0,2.55,2.55,0,0,1,1,1,2.71,2.71,0,0,1,.35,1.37v2.9a2.72,2.72,0,0,1-.35,1.38,2.55,2.55,0,0,1-1,1A2.72,2.72,0,0,1,37.56,103.15Zm0-.94a1.61,1.61,0,0,0,.85-.23,1.7,1.7,0,0,0,.61-.61,1.6,1.6,0,0,0,.22-.84v-3a1.6,1.6,0,0,0-.22-.84,1.7,1.7,0,0,0-.61-.61,1.61,1.61,0,0,0-.85-.23,1.69,1.69,0,0,0-1.45.84,1.6,1.6,0,0,0-.22.84v3a1.6,1.6,0,0,0,.22.84,1.69,1.69,0,0,0,1.45.84Z"/><path d="M2.76,157.68a2.79,2.79,0,0,1-1.09-.21,2.47,2.47,0,0,1-.87-.62,2.29,2.29,0,0,1-.54-.95l.94-.27a1.55,1.55,0,0,0,.6.84,1.69,1.69,0,0,0,1,.28,1.68,1.68,0,0,0,.83-.22,1.64,1.64,0,0,0,.56-.58,1.82,1.82,0,0,0,.19-.86,1.68,1.68,0,0,0-.44-1.19,1.51,1.51,0,0,0-1.15-.46,1.52,1.52,0,0,0-.42.06,1.38,1.38,0,0,0-.4.15l-.48-.78,2.94-2.66.13.34H.57v-.94H5.24v.94L2.74,153v-.35a2.63,2.63,0,0,1,1.37.26,2.22,2.22,0,0,1,.92.9,2.65,2.65,0,0,1,.33,1.33A2.71,2.71,0,0,1,5,156.44a2.54,2.54,0,0,1-.93.91A2.64,2.64,0,0,1,2.76,157.68Z"/><path d="M10.33,157.69A2.7,2.7,0,0,1,9,157.35,2.64,2.64,0,0,1,7.66,155v-2.9A2.64,2.64,0,0,1,9,149.79a2.71,2.71,0,0,1,1.37-.35,2.77,2.77,0,0,1,1.38.35,2.65,2.65,0,0,1,.95,1,2.68,2.68,0,0,1,.34,1.37V155a2.68,2.68,0,0,1-.34,1.37,2.65,2.65,0,0,1-.95,1A2.77,2.77,0,0,1,10.33,157.69Zm0-.94a1.62,1.62,0,0,0,1.45-.83,1.63,1.63,0,0,0,.23-.84v-3a1.67,1.67,0,0,0-.23-.85,1.72,1.72,0,0,0-.6-.6,1.67,1.67,0,0,0-.85-.23,1.6,1.6,0,0,0-.84.23,1.66,1.66,0,0,0-.84,1.45v3a1.69,1.69,0,0,0,.84,1.45A1.6,1.6,0,0,0,10.33,156.75Z"/><path d="M15.31,158.76l.06-.45a.46.46,0,0,0,.35-.09.48.48,0,0,0,.15-.29,1.74,1.74,0,0,0,0-.4h-.57v-1.24h1.08v1.4a1.18,1.18,0,0,1-.28.87A.84.84,0,0,1,15.31,158.76Z"/><path d="M22,157.69a2.7,2.7,0,0,1-1.37-.34,2.57,2.57,0,0,1-.95-1,2.68,2.68,0,0,1-.35-1.37v-2.9a2.68,2.68,0,0,1,.35-1.37,2.57,2.57,0,0,1,.95-1,2.71,2.71,0,0,1,1.37-.35,2.75,2.75,0,0,1,1.38.35,2.57,2.57,0,0,1,.95,1,2.68,2.68,0,0,1,.35,1.37V155a2.68,2.68,0,0,1-.35,1.37,2.57,2.57,0,0,1-.95,1A2.74,2.74,0,0,1,22,157.69Zm0-.94a1.63,1.63,0,0,0,.85-.22,1.67,1.67,0,0,0,.6-.61,1.63,1.63,0,0,0,.23-.84v-3a1.67,1.67,0,0,0-.23-.85,1.72,1.72,0,0,0-.6-.6,1.64,1.64,0,0,0-.85-.23,1.6,1.6,0,0,0-.84.23,1.62,1.62,0,0,0-.83,1.45v3a1.65,1.65,0,0,0,.83,1.45A1.6,1.6,0,0,0,22,156.75Z"/><path d="M29.8,157.69a2.7,2.7,0,0,1-1.37-.34,2.6,2.6,0,0,1-1-1,2.68,2.68,0,0,1-.35-1.37v-2.9a2.68,2.68,0,0,1,.35-1.37,2.6,2.6,0,0,1,1-1,2.86,2.86,0,0,1,2.74,0,2.5,2.5,0,0,1,.95,1,2.59,2.59,0,0,1,.35,1.37V155a2.59,2.59,0,0,1-.35,1.37,2.5,2.5,0,0,1-.95,1A2.7,2.7,0,0,1,29.8,157.69Zm0-.94a1.62,1.62,0,0,0,1.45-.83,1.63,1.63,0,0,0,.23-.84v-3a1.67,1.67,0,0,0-.23-.85,1.72,1.72,0,0,0-.6-.6,1.69,1.69,0,0,0-1.7,0,1.72,1.72,0,0,0-.6.6,1.67,1.67,0,0,0-.23.85v3a1.63,1.63,0,0,0,.23.84,1.62,1.62,0,0,0,1.45.83Z"/><path d="M37.57,157.69a2.72,2.72,0,0,1-1.38-.34,2.57,2.57,0,0,1-.95-1,2.68,2.68,0,0,1-.35-1.37v-2.9a2.68,2.68,0,0,1,.35-1.37,2.57,2.57,0,0,1,.95-1,2.88,2.88,0,0,1,2.75,0,2.57,2.57,0,0,1,1,1,2.68,2.68,0,0,1,.35,1.37V155a2.68,2.68,0,0,1-.35,1.37,2.57,2.57,0,0,1-1,1A2.7,2.7,0,0,1,37.57,157.69Zm0-.94a1.6,1.6,0,0,0,.84-.22,1.65,1.65,0,0,0,.83-1.45v-3a1.62,1.62,0,0,0-.83-1.45,1.6,1.6,0,0,0-.84-.23,1.67,1.67,0,0,0-.85.23,1.75,1.75,0,0,0-.61.6,1.66,1.66,0,0,0-.22.85v3a1.62,1.62,0,0,0,.22.84,1.7,1.7,0,0,0,.61.61A1.66,1.66,0,0,0,37.57,156.75Z"/><path d="M.19,212.07v-.88L3.71,208a2.28,2.28,0,0,0,.59-.75,1.88,1.88,0,0,0,.16-.73,1.63,1.63,0,0,0-.78-1.41,1.61,1.61,0,0,0-.82-.21,1.55,1.55,0,0,0-.84.22,1.59,1.59,0,0,0-.58.6,1.56,1.56,0,0,0-.21.79h-1a2.55,2.55,0,0,1,.35-1.32,2.4,2.4,0,0,1,.94-.9A2.77,2.77,0,0,1,2.88,204a2.55,2.55,0,0,1,1.32.34,2.62,2.62,0,0,1,.92.92,2.64,2.64,0,0,1,.34,1.31,3,3,0,0,1-.13.9,2.35,2.35,0,0,1-.4.7,6.21,6.21,0,0,1-.68.68l-2.92,2.63-.13-.33H5.46v.93Z"/><path d="M10.33,212.24A2.61,2.61,0,0,1,9,211.89a2.57,2.57,0,0,1-1-.95,2.7,2.7,0,0,1-.34-1.37v-2.9A2.72,2.72,0,0,1,8,205.29a2.57,2.57,0,0,1,1-.95,2.86,2.86,0,0,1,2.74,0,2.57,2.57,0,0,1,1,.95,2.72,2.72,0,0,1,.34,1.38v2.9a2.7,2.7,0,0,1-.34,1.37,2.57,2.57,0,0,1-1,.95A2.61,2.61,0,0,1,10.33,212.24Zm0-.94a1.66,1.66,0,0,0,.85-.22,1.75,1.75,0,0,0,.6-.61,1.67,1.67,0,0,0,.23-.85v-3a1.63,1.63,0,0,0-.23-.84,1.67,1.67,0,0,0-2.9,0,1.63,1.63,0,0,0-.23.84v3a1.67,1.67,0,0,0,.23.85,1.75,1.75,0,0,0,.6.61A1.66,1.66,0,0,0,10.33,211.3Z"/><path d="M15.31,213.31l.06-.46a.46.46,0,0,0,.35-.09.58.58,0,0,0,.15-.28,1.75,1.75,0,0,0,0-.4h-.57v-1.25h1.08v1.41a1.23,1.23,0,0,1-.28.87A.84.84,0,0,1,15.31,213.31Z"/><path d="M22,212.24a2.61,2.61,0,0,1-1.37-.35,2.55,2.55,0,0,1-.95-.95,2.71,2.71,0,0,1-.35-1.37v-2.9a2.72,2.72,0,0,1,.35-1.38,2.55,2.55,0,0,1,.95-.95A2.71,2.71,0,0,1,22,204a2.77,2.77,0,0,1,1.38.35,2.55,2.55,0,0,1,.95.95,2.72,2.72,0,0,1,.35,1.38v2.9a2.71,2.71,0,0,1-.35,1.37,2.55,2.55,0,0,1-.95.95A2.67,2.67,0,0,1,22,212.24Zm0-.94a1.63,1.63,0,0,0,.85-.22,1.75,1.75,0,0,0,.6-.61,1.67,1.67,0,0,0,.23-.85v-3a1.63,1.63,0,0,0-.23-.84,1.67,1.67,0,0,0-.6-.61,1.63,1.63,0,0,0-.85-.22,1.6,1.6,0,0,0-.84.22,1.69,1.69,0,0,0-.84,1.45v3a1.67,1.67,0,0,0,.23.85,1.7,1.7,0,0,0,.61.61A1.6,1.6,0,0,0,22,211.3Z"/><path d="M29.8,212.24a2.65,2.65,0,0,1-1.38-.35,2.62,2.62,0,0,1-1-.95,2.71,2.71,0,0,1-.35-1.37v-2.9a2.72,2.72,0,0,1,.35-1.38,2.62,2.62,0,0,1,1-.95A2.75,2.75,0,0,1,29.8,204a2.71,2.71,0,0,1,1.37.35,2.48,2.48,0,0,1,.95.95,2.62,2.62,0,0,1,.35,1.38v2.9a2.61,2.61,0,0,1-.35,1.37,2.48,2.48,0,0,1-.95.95A2.61,2.61,0,0,1,29.8,212.24Zm0-.94a1.6,1.6,0,0,0,.84-.22,1.7,1.7,0,0,0,.61-.61,1.66,1.66,0,0,0,.22-.85v-3a1.65,1.65,0,0,0-.83-1.45,1.6,1.6,0,0,0-.84-.22,1.62,1.62,0,0,0-1.45.83,1.63,1.63,0,0,0-.23.84v3a1.67,1.67,0,0,0,.23.85,1.75,1.75,0,0,0,.6.61A1.66,1.66,0,0,0,29.8,211.3Z"/><path d="M37.56,212.24a2.61,2.61,0,0,1-1.37-.35,2.55,2.55,0,0,1-.95-.95,2.71,2.71,0,0,1-.35-1.37v-2.9a2.72,2.72,0,0,1,.35-1.38,2.55,2.55,0,0,1,.95-.95,2.88,2.88,0,0,1,2.75,0,2.55,2.55,0,0,1,1,.95,2.72,2.72,0,0,1,.35,1.38v2.9a2.71,2.71,0,0,1-.35,1.37,2.55,2.55,0,0,1-1,.95A2.62,2.62,0,0,1,37.56,212.24Zm0-.94a1.61,1.61,0,0,0,.85-.22,1.78,1.78,0,0,0,.61-.61,1.66,1.66,0,0,0,.22-.85v-3a1.62,1.62,0,0,0-.22-.84,1.7,1.7,0,0,0-.61-.61,1.67,1.67,0,0,0-2.52,1.45v3a1.66,1.66,0,0,0,.22.85,1.7,1.7,0,0,0,.61.61A1.62,1.62,0,0,0,37.56,211.3Z"/><path d="M3.69,266.62v-6.83l-1.49.9V259.6l1.49-.9h1v7.92Z"/><path d="M10.33,266.79A2.71,2.71,0,0,1,9,266.44a2.57,2.57,0,0,1-1-.95,2.7,2.7,0,0,1-.34-1.37v-2.91A2.7,2.7,0,0,1,8,259.84a2.57,2.57,0,0,1,1-.95,2.86,2.86,0,0,1,2.74,0,2.57,2.57,0,0,1,1,.95,2.7,2.7,0,0,1,.34,1.37v2.91a2.7,2.7,0,0,1-.34,1.37,2.57,2.57,0,0,1-1,.95A2.71,2.71,0,0,1,10.33,266.79Zm0-.94a1.67,1.67,0,0,0,.85-.23,1.72,1.72,0,0,0,.6-.6,1.67,1.67,0,0,0,.23-.85v-3a1.6,1.6,0,0,0-.23-.84,1.67,1.67,0,0,0-2.9,0,1.6,1.6,0,0,0-.23.84v3a1.67,1.67,0,0,0,.23.85,1.72,1.72,0,0,0,.6.6A1.67,1.67,0,0,0,10.33,265.85Z"/><path d="M15.31,267.86l.06-.46a.46.46,0,0,0,.35-.09.58.58,0,0,0,.15-.28,1.84,1.84,0,0,0,0-.41h-.57v-1.24h1.08v1.41a1.26,1.26,0,0,1-.28.87A.86.86,0,0,1,15.31,267.86Z"/><path d="M22,266.79a2.71,2.71,0,0,1-1.37-.35,2.55,2.55,0,0,1-.95-.95,2.71,2.71,0,0,1-.35-1.37v-2.91a2.71,2.71,0,0,1,.35-1.37,2.55,2.55,0,0,1,.95-.95,2.71,2.71,0,0,1,1.37-.35,2.77,2.77,0,0,1,1.38.35,2.55,2.55,0,0,1,.95.95,2.71,2.71,0,0,1,.35,1.37v2.91a2.71,2.71,0,0,1-.35,1.37,2.55,2.55,0,0,1-.95.95A2.77,2.77,0,0,1,22,266.79Zm0-.94a1.64,1.64,0,0,0,.85-.23,1.72,1.72,0,0,0,.6-.6,1.67,1.67,0,0,0,.23-.85v-3a1.6,1.6,0,0,0-.23-.84,1.67,1.67,0,0,0-.6-.61,1.64,1.64,0,0,0-.85-.23,1.6,1.6,0,0,0-.84.23,1.62,1.62,0,0,0-.61.61,1.6,1.6,0,0,0-.23.84v3a1.66,1.66,0,0,0,.84,1.45A1.6,1.6,0,0,0,22,265.85Z"/><path d="M29.8,266.79a2.75,2.75,0,0,1-1.38-.35,2.62,2.62,0,0,1-1-.95,2.71,2.71,0,0,1-.35-1.37v-2.91a2.71,2.71,0,0,1,.35-1.37,2.62,2.62,0,0,1,1-.95,2.75,2.75,0,0,1,1.38-.35,2.71,2.71,0,0,1,1.37.35,2.48,2.48,0,0,1,.95.95,2.61,2.61,0,0,1,.35,1.37v2.91a2.61,2.61,0,0,1-.35,1.37,2.48,2.48,0,0,1-.95.95A2.71,2.71,0,0,1,29.8,266.79Zm0-.94a1.6,1.6,0,0,0,.84-.23,1.62,1.62,0,0,0,.83-1.45v-3a1.6,1.6,0,0,0-.22-.84,1.62,1.62,0,0,0-.61-.61,1.6,1.6,0,0,0-.84-.23,1.66,1.66,0,0,0-1.45.84,1.6,1.6,0,0,0-.23.84v3a1.67,1.67,0,0,0,.23.85,1.72,1.72,0,0,0,.6.6A1.67,1.67,0,0,0,29.8,265.85Z"/><path d="M37.56,266.79a2.71,2.71,0,0,1-1.37-.35,2.55,2.55,0,0,1-.95-.95,2.71,2.71,0,0,1-.35-1.37v-2.91a2.71,2.71,0,0,1,.35-1.37,2.55,2.55,0,0,1,.95-.95,2.88,2.88,0,0,1,2.75,0,2.55,2.55,0,0,1,1,.95,2.71,2.71,0,0,1,.35,1.37v2.91a2.71,2.71,0,0,1-.35,1.37,2.55,2.55,0,0,1-1,.95A2.72,2.72,0,0,1,37.56,266.79Zm0-.94a1.61,1.61,0,0,0,.85-.23A1.75,1.75,0,0,0,39,265a1.66,1.66,0,0,0,.22-.85v-3a1.6,1.6,0,0,0-.22-.84,1.7,1.7,0,0,0-.61-.61,1.61,1.61,0,0,0-.85-.23,1.69,1.69,0,0,0-1.45.84,1.6,1.6,0,0,0-.22.84v3a1.62,1.62,0,0,0,.83,1.45A1.63,1.63,0,0,0,37.56,265.85Z"/><path d="M37.57,321.34a2.75,2.75,0,0,1-1.38-.35,2.7,2.7,0,0,1-.95-.95,2.75,2.75,0,0,1-.35-1.38v-2.9a2.71,2.71,0,0,1,.35-1.37,2.62,2.62,0,0,1,.95-.95,2.65,2.65,0,0,1,1.38-.35,2.61,2.61,0,0,1,1.37.35,2.48,2.48,0,0,1,1,.95,2.71,2.71,0,0,1,.35,1.37v2.9a2.75,2.75,0,0,1-.35,1.38,2.55,2.55,0,0,1-1,.95A2.71,2.71,0,0,1,37.57,321.34Zm0-.94a1.6,1.6,0,0,0,.84-.23,1.62,1.62,0,0,0,.61-.61,1.6,1.6,0,0,0,.22-.84v-3a1.62,1.62,0,0,0-.83-1.45,1.6,1.6,0,0,0-.84-.23,1.67,1.67,0,0,0-.85.23,1.72,1.72,0,0,0-.6.6,1.57,1.57,0,0,0-.23.85v3a1.52,1.52,0,0,0,.23.84,1.66,1.66,0,0,0,1.45.84Z"/><path d="M611.92,9.36a10.76,10.76,0,0,1-2.67,1.71,6.38,6.38,0,0,0-.77-.67A8.7,8.7,0,0,0,611,9Zm5.59-.18a7.08,7.08,0,0,0-.6-.54c-1,0-2,.07-3,.09v2.41h-1V8.75c-1.58.05-3,.07-4.16.09l0-.85h2.16l.69-.35a14,14,0,0,0-2.06-1.26l.73-.55.72.37A11.41,11.41,0,0,0,612,5.32h-2.63V1.4h8.1V5.32h-4.16l0,0a17.65,17.65,0,0,1-1.72,1.27,7.54,7.54,0,0,1,.78.52A22.8,22.8,0,0,0,615,5.44l.88.5a31.44,31.44,0,0,1-3.38,2l3.44,0c-.34-.23-.7-.44-1-.63l.75-.48a13.64,13.64,0,0,1,2.68,1.84ZM610.35,3h2.53V2.21h-2.53Zm0,1.55h2.53v-.8h-2.53Zm6.13-2.32h-2.61V3h2.61Zm0,1.52h-2.61v.8h2.61Zm-1,5.21a18.94,18.94,0,0,1,2.65,1.53l-.78.59a16,16,0,0,0-2.62-1.59Z"/><path d="M624.53,3.68h-4.39V2.87h4.39Zm-.45,6.87h-2.54V11h-.9V7.31h3.44Zm-3.42-6.19h3.46v.8h-3.46Zm0,1.47h3.46v.8h-3.46Zm3.47-3.61h-3.4v-.8h3.4Zm-2.59,5.92V9.72h1.63V8.14Zm8.82-2.38H628v5.38h-1V5.76H624.5v-1H627V1.09h1V4.75h2.37Z"/><path d="M633.79,5.19a13.16,13.16,0,0,1-1.12,6,5.72,5.72,0,0,0-.87-.58,11.47,11.47,0,0,0,1-5.37V2.39h4V1.05h1.06V2.39h4.09v1h-8.09Zm-.09,4.55a8.21,8.21,0,0,0,.89-3.32l.94.21a9.45,9.45,0,0,1-.92,3.52Zm5.07.28c.4,0,.45-.28.51-1.83a3.22,3.22,0,0,0,.9.42c-.1,1.83-.36,2.33-1.33,2.33h-1.43c-1,0-1.3-.33-1.3-1.37v-4h1v4c0,.38.08.45.45.45Zm0-4.06a13.47,13.47,0,0,0-2.54-1.7l.7-.67a13.74,13.74,0,0,1,2.58,1.61Zm1.77.2a11.7,11.7,0,0,1,1.56,3.57l-1,.42a12.1,12.1,0,0,0-1.45-3.63Z"/><path d="M651.75,7.54a7.32,7.32,0,0,0,2.46,1.14,4,4,0,0,0-.66.8,6.61,6.61,0,0,1-1.46-.67c-.11,1.22-.24,1.76-.48,2a1.09,1.09,0,0,1-.73.28c-.26,0-.76,0-1.3,0a2.22,2.22,0,0,0-.25-.83c.47,0,.94.06,1.13.06a.54.54,0,0,0,.35-.09,2.06,2.06,0,0,0,.27-1.05h-2.19c-.48,1-1.39,1.63-3.32,2a2.76,2.76,0,0,0-.5-.8,4,4,0,0,0,2.71-1.23h-2V8.8a10.39,10.39,0,0,1-1.29.57,2.78,2.78,0,0,0-.59-.73,7.44,7.44,0,0,0,2.26-1.1h-2v-.8H647a3.46,3.46,0,0,0,.35-.53h-2v-3h7.28v3h-4.23a5.64,5.64,0,0,1-.31.53h5.73v.8Zm-5-5h-2.38V1.72h2.38V1.05h1v.67h2.64V1.05h1v.67h2.4v.82h-2.4V3h-1V2.54h-2.64V3h-1Zm-.3,1.86h5.28V3.81H646.4Zm0,1.19h5.28V5H646.4Zm5.12,2.83a5.17,5.17,0,0,1-1-.88h-3.06a6.28,6.28,0,0,1-1.07.88h1.71a5,5,0,0,0,.15-.69h1c0,.24-.08.47-.13.69Z"/><path d="M661.06,9.93h4.16v.89H656V9.93h4V7.43h-3.51V6.55H660V5.24h-2.16V4.67a14.59,14.59,0,0,1-1.72,1.08,4,4,0,0,0-.63-.83A11.73,11.73,0,0,0,660,1h1a12,12,0,0,0,4.71,3.76,5.76,5.76,0,0,0-.66.92,14,14,0,0,1-1.76-1.09v.62h-2.24V6.55h3.59v.88h-3.59ZM658.12,7.6a6.92,6.92,0,0,1,1,1.89l-.89.4a7,7,0,0,0-1-2Zm4.8-3.26A12.22,12.22,0,0,1,660.54,2a11.75,11.75,0,0,1-2.28,2.31Zm-1.13,5.21a11.78,11.78,0,0,0,1.11-2l1,.36a20.24,20.24,0,0,1-1.33,1.94Z"/><path d="M671.73,10.41a5.84,5.84,0,0,0,2-1.24l.84.52a7.36,7.36,0,0,1-2.29,1.44,8.46,8.46,0,0,0-.67-.67h-2.38V11h-.87V8l-.4.17a3.4,3.4,0,0,0-.53-.73,6.74,6.74,0,0,0,2.19-1.34c-.31-.23-.61-.45-.9-.64a7.17,7.17,0,0,1-.61.51,4.82,4.82,0,0,0-.66-.6,5.5,5.5,0,0,0,2-2.38l.84.22a3.92,3.92,0,0,1-.29.58h1.24l.15,0L672,4a6.64,6.64,0,0,1-1.08,2,19.05,19.05,0,0,1,1.56,1.23l-.59.71-.16-.14ZM668.6,3.66h-.84V2h1.82V1.07h.95V2h1.83V3.66h-.87V2.82H668.6Zm2.86,3.88c-.32-.27-.72-.58-1.13-.9a7.05,7.05,0,0,1-1.14.9Zm-.62.8h-1.6V9.67h1.6Zm-1.29-3.81c-.08.12-.17.23-.26.34l.94.63a5,5,0,0,0,.62-1Zm4.69-1.21c.07-.29.13-.62.19-.91h-2V1.53h5.08v.88h-2l-.31.91h2.06V9h-4.45V3.32Zm2.06.78h-2.55V5h2.55Zm0,1.62h-2.55v.9h2.55Zm0,1.63h-2.55v.91h2.55Zm-.25,1.88a13.51,13.51,0,0,1,1.82,1.39l-.79.54A15.33,15.33,0,0,0,675.3,9.7Z"/><path d="M686.52,6.1A7.32,7.32,0,0,1,688.7.84l.83.4a6.86,6.86,0,0,0,0,9.72l-.83.4A7.29,7.29,0,0,1,686.52,6.1Z"/><path d="M696.92,2.63c-.14.49-.26,1-.39,1.46h3.62v7.07h-1.09v-.69h-5.21v.69h-1V4.09h2.65a13.06,13.06,0,0,0,.25-1.46h-4.08v-1h9.54v1Zm2.14,2.42h-5.21V6.8h5.21Zm0,4.47V7.73h-5.21V9.52Z"/><path d="M707.31,2.85c0,.67,0,1.35-.11,2h4.88s0,.33,0,.47c-.18,3.46-.37,4.78-.8,5.25a1.33,1.33,0,0,1-1,.45,12.31,12.31,0,0,1-1.92,0,2.31,2.31,0,0,0-.35-1c.78.07,1.56.07,1.86.07a.62.62,0,0,0,.52-.14c.32-.27.48-1.43.62-4.1h-3.9a6.76,6.76,0,0,1-3.23,5.29,3.12,3.12,0,0,0-.73-.82c2.93-1.59,3.06-4.75,3.14-7.49h-2.78v-1H713v1Z"/><path d="M718.13,6.1A7.32,7.32,0,0,1,716,11.36l-.84-.4a6.86,6.86,0,0,0,0-9.72l.84-.4A7.36,7.36,0,0,1,718.13,6.1Z"/><rect class="cls-3" x="588.01" width="11" height="11"/><path d="M788.26,9.36a10.76,10.76,0,0,1-2.67,1.71,7.26,7.26,0,0,0-.77-.67A8.83,8.83,0,0,0,787.33,9Zm5.59-.18a7.08,7.08,0,0,0-.6-.54l-3,.09v2.41h-1V8.75c-1.59.05-3,.07-4.16.09L785,8h2.15l.7-.35a14,14,0,0,0-2.06-1.26l.73-.55.72.37a12.84,12.84,0,0,0,1.08-.87h-2.63V1.4h8.1V5.32h-4.16l0,0A17.55,17.55,0,0,1,788,6.61a8.79,8.79,0,0,1,.78.52,23.78,23.78,0,0,0,2.54-1.69l.88.5a31.44,31.44,0,0,1-3.38,2l3.43,0c-.34-.23-.69-.44-1-.63L792,6.8a13.55,13.55,0,0,1,2.67,1.84ZM786.69,3h2.53V2.21h-2.53Zm0,1.55h2.53v-.8h-2.53Zm6.13-2.32h-2.61V3h2.61Zm0,1.52h-2.61v.8h2.61Zm-1,5.21a19.54,19.54,0,0,1,2.65,1.53l-.78.59a16.42,16.42,0,0,0-2.62-1.59Z"/><path d="M800.87,3.68h-4.39V2.87h4.39Zm-.45,6.87h-2.54V11H797V7.31h3.44ZM797,4.36h3.45v.8H797Zm0,1.47h3.45v.8H797Zm3.46-3.61h-3.4v-.8h3.4Zm-2.58,5.92V9.72h1.63V8.14Zm8.82-2.38h-2.37v5.38h-1V5.76h-2.45v-1h2.45V1.09h1V4.75h2.37Z"/><path d="M812,3.68h-3.56V2.87H812Zm6.23,6.25c0,.54-.11.86-.44,1a4.09,4.09,0,0,1-1.67.19,5,5,0,0,0-.29-1c.54,0,1.08,0,1.23,0s.22,0,.22-.21V2.36h-3.86v3.1c0,1.71-.12,4.16-1,5.75a3.82,3.82,0,0,0-.8-.56l.06-.12h-2V11h-.81V7.31h2.84v3.17a12,12,0,0,0,.79-5v-4h5.73Zm-6.51-4.77h-2.83v-.8h2.83Zm-2.83.67h2.83v.8h-2.83Zm2.8-3.61h-2.74v-.8h2.74Zm-.81,5.92h-1.2V9.72h1.2Zm4-3.08V4.14h-1V3.37h1V2.53h.81v.84h1v.77h-1v.92h1.17v.77h-3.07V5.06Zm-.21,4.33V9.8h-.75V6.54h2.76V9.39Zm0-2.1V8.63h1.25V7.29Z"/><path d="M822.79,8.84A2.93,2.93,0,0,0,825.35,10c1.24.05,3.8,0,5.19-.08a4.69,4.69,0,0,0-.33,1c-1.26.06-3.59.08-4.87,0a3.64,3.64,0,0,1-3-1.26c-.46.45-1,.89-1.49,1.36l-.5-1a14.88,14.88,0,0,0,1.44-1.12V6.27h-1.32V5.32h2.3Zm-.53-5.1a8.13,8.13,0,0,0-1.69-1.84l.78-.57a8,8,0,0,1,1.73,1.76ZM825,4h-1.74V3.24h3v-.7H824V1.8h2.29V1.05h1V1.8h2.37v.74h-2.37v.7h3.1V4h-1.78l.4.1c-.2.36-.38.7-.55,1h1.79v.75h-3v.62h2.54v.74h-2.54v.67h3v.77h-3v.9h-1v-.9h-2.89V7.85h2.89V7.18h-2.38V6.44h2.38V5.82h-2.81V5.07H825a4.52,4.52,0,0,0-.42-1Zm2.55,1c.14-.29.31-.68.42-1h-2.42A3.19,3.19,0,0,1,826,5l-.39.09h2.28Z"/><path d="M837.94,9.93h4.16v.89h-9.28V9.93h4V7.43h-3.51V6.55h3.51V5.24h-2.15V4.67A15.46,15.46,0,0,1,833,5.75a4,4,0,0,0-.64-.83A11.84,11.84,0,0,0,836.84,1h1a12.08,12.08,0,0,0,4.71,3.76,6.46,6.46,0,0,0-.66.92,14.77,14.77,0,0,1-1.76-1.09v.62h-2.23V6.55h3.59v.88h-3.59ZM835,7.6a6.92,6.92,0,0,1,1,1.89l-.89.4a7.21,7.21,0,0,0-1-2Zm4.81-3.26A12,12,0,0,1,837.41,2a11.75,11.75,0,0,1-2.28,2.31Zm-1.13,5.21a13.4,13.4,0,0,0,1.11-2l1,.36a20.21,20.21,0,0,1-1.34,1.94Z"/><path d="M848.61,10.41a5.79,5.79,0,0,0,2-1.24l.85.52a7.48,7.48,0,0,1-2.29,1.44c-.17-.19-.46-.48-.67-.67h-2.39V11h-.87V8l-.39.17a3.78,3.78,0,0,0-.53-.73,6.74,6.74,0,0,0,2.19-1.34c-.31-.23-.62-.45-.91-.64A5.78,5.78,0,0,1,845,6a4.82,4.82,0,0,0-.66-.6,5.48,5.48,0,0,0,2-2.38l.85.22a5.28,5.28,0,0,1-.3.58h1.24l.16,0,.58.26a6.21,6.21,0,0,1-1.08,2c.62.45,1.19.89,1.57,1.23l-.6.71-.15-.14Zm-3.14-6.75h-.83V2h1.81V1.07h1V2h1.83V3.66h-.87V2.82h-2.9Zm2.86,3.88c-.32-.27-.71-.58-1.13-.9a7,7,0,0,1-1.13.9Zm-.61.8h-1.61V9.67h1.61Zm-1.29-3.81-.26.34.93.63a5.56,5.56,0,0,0,.63-1Zm4.69-1.21c.06-.29.13-.62.18-.91h-2V1.53h5.09v.88h-2l-.31.91h2.06V9H849.7V3.32Zm2,.78h-2.55V5h2.55Zm0,1.62h-2.55v.9h2.55Zm0,1.63h-2.55v.91h2.55Zm-.25,1.88a13,13,0,0,1,1.83,1.39l-.79.54a15.5,15.5,0,0,0-1.79-1.46Z"/><path d="M863.39,6.1A7.37,7.37,0,0,1,865.57.84l.84.4a6.83,6.83,0,0,0,0,9.72l-.84.4A7.33,7.33,0,0,1,863.39,6.1Z"/><path d="M873.8,2.63c-.14.49-.27,1-.4,1.46H877v7.07h-1.09v-.69h-5.2v.69h-1V4.09h2.66c.1-.44.19-1,.25-1.46h-4.08v-1h9.54v1Zm2.13,2.42h-5.2V6.8h5.2Zm0,4.47V7.73h-5.2V9.52Z"/><path d="M884.18,2.85c0,.67,0,1.35-.1,2H889s0,.33,0,.47c-.19,3.46-.38,4.78-.8,5.25a1.36,1.36,0,0,1-1,.45,12.19,12.19,0,0,1-1.91,0,2.47,2.47,0,0,0-.36-1c.79.07,1.57.07,1.86.07s.39,0,.52-.14c.32-.27.49-1.43.63-4.1h-3.91a6.77,6.77,0,0,1-3.22,5.29,3,3,0,0,0-.74-.82c2.94-1.59,3.06-4.75,3.15-7.49h-2.78v-1h9.56v1Z"/><path d="M895,6.1a7.33,7.33,0,0,1-2.18,5.26L892,11a6.83,6.83,0,0,0,0-9.72l.84-.4A7.37,7.37,0,0,1,895,6.1Z"/><rect class="cls-4" x="764.35" width="11" height="11"/></symbol></defs><g id="Layer_2" data-name="Layer 2"><g id="design"><use width="898.77" height="359.67" xlink:href="#New_Symbol"/></g></g></svg>