<?xml version="1.0" encoding="UTF-8"?>
<svg id="Layer_2" data-name="Layer 2" xmlns="http://www.w3.org/2000/svg" viewBox="0 0 297.11 218.44">
  <defs>
    <style>
      .cls-1 {
        fill: #323230;
      }

      .cls-2 {
        fill: #aaaaa3;
      }

      .cls-3 {
        stroke: #323230;
      }

      .cls-3, .cls-4 {
        fill: none;
        stroke-miterlimit: 10;
        stroke-width: .75px;
      }

      .cls-4 {
        stroke: #cececa;
      }
    </style>
  </defs>
  <g id="design">
    <line class="cls-4" x1="44.32" y1="145.6" x2="297.11" y2="145.6"/>
    <line class="cls-4" x1="44.32" y1="120.23" x2="297.11" y2="120.23"/>
    <line class="cls-4" x1="44.32" y1="94.85" x2="297.11" y2="94.85"/>
    <line class="cls-4" x1="44.32" y1="69.47" x2="297.11" y2="69.47"/>
    <line class="cls-4" x1="44.32" y1="44.09" x2="297.11" y2="44.09"/>
    <rect class="cls-2" x="239.66" y="77.3" width="9.17" height="93.46"/>
    <rect class="cls-2" x="213.62" y="100.79" width="9.17" height="69.96"/>
    <rect class="cls-2" x="187.58" y="124.96" width="9.17" height="45.79"/>
    <rect class="cls-2" x="161.55" y="138.53" width="9.17" height="32.23"/>
    <rect class="cls-2" x="135.51" y="146.07" width="9.17" height="24.69"/>
    <rect class="cls-2" x="109.47" y="154.07" width="9.17" height="16.68"/>
    <rect class="cls-2" x="83.46" y="164.6" width="9.17" height="6.15"/>
    <g>
      <rect class="cls-2" x="265.69" y="45.42" width="9.17" height="125.33"/>
      <rect class="cls-1" x="274.86" y="118.09" width="9.17" height="52.66"/>
    </g>
    <rect class="cls-1" x="248.83" y="135.89" width="9.17" height="34.87"/>
    <rect class="cls-1" x="222.79" y="140.42" width="9.17" height="30.33"/>
    <rect class="cls-1" x="196.75" y="153.43" width="9.17" height="17.32"/>
    <rect class="cls-1" x="170.72" y="157.88" width="9.17" height="12.88"/>
    <rect class="cls-1" x="144.68" y="162.21" width="9.17" height="8.54"/>
    <rect class="cls-1" x="118.64" y="165.49" width="9.17" height="5.26"/>
    <rect class="cls-1" x="92.63" y="168.23" width="9.17" height="2.52"/>
    <g>
      <rect class="cls-2" x="57.4" y="169.44" width="9.17" height="1.31"/>
      <rect class="cls-1" x="66.57" y="169.72" width="9.17" height="1.03"/>
    </g>
    <g>
      <path d="M2.49,46.35c-.37,0-.71-.08-1.03-.23-.32-.15-.59-.36-.81-.63-.23-.27-.39-.58-.48-.93l.85-.23c.06,.24,.17,.44,.32,.61,.15,.17,.33,.31,.54,.4s.42,.14,.64,.14c.29,0,.55-.07,.79-.21s.42-.33,.56-.56c.14-.24,.21-.49,.21-.77s-.07-.55-.22-.79c-.14-.23-.33-.42-.57-.56s-.49-.21-.77-.21c-.32,0-.59,.07-.81,.2-.23,.13-.4,.29-.53,.48l-.79-.3,.22-3.77h3.87v.84H1.03l.4-.37-.19,3.01-.2-.25c.2-.21,.44-.38,.72-.5s.56-.17,.85-.17c.45,0,.85,.1,1.2,.31,.35,.21,.63,.49,.84,.85,.21,.36,.31,.76,.31,1.21s-.11,.85-.34,1.21-.53,.66-.9,.88c-.38,.22-.79,.33-1.23,.33Z"/>
      <path d="M9.39,46.35c-.47,0-.88-.11-1.25-.32-.36-.21-.65-.5-.86-.86-.21-.37-.32-.78-.32-1.25v-2.64c0-.47,.11-.88,.32-1.25,.21-.36,.5-.65,.86-.86,.37-.21,.78-.32,1.25-.32s.88,.11,1.25,.32,.66,.5,.87,.86c.21,.37,.31,.78,.31,1.25v2.64c0,.47-.1,.88-.31,1.25-.21,.36-.5,.65-.87,.86-.37,.21-.78,.32-1.25,.32Zm0-.86c.28,0,.54-.07,.77-.21s.41-.32,.55-.55c.14-.23,.2-.49,.2-.77v-2.74c0-.28-.07-.54-.2-.77-.14-.23-.32-.42-.55-.55s-.49-.21-.77-.21-.54,.07-.77,.21c-.23,.14-.42,.32-.55,.55-.14,.23-.21,.49-.21,.77v2.74c0,.28,.07,.54,.21,.77,.14,.23,.32,.42,.55,.55,.23,.14,.49,.21,.77,.21Z"/>
      <path d="M13.92,47.32l.05-.42c.14,0,.25-.02,.32-.08,.07-.06,.11-.15,.13-.26,.02-.11,.02-.23,.01-.37h-.52v-1.13h.98v1.28c0,.35-.09,.61-.26,.79-.17,.18-.41,.24-.72,.18Z"/>
      <path d="M20.03,46.35c-.47,0-.88-.11-1.25-.32-.36-.21-.65-.5-.86-.86-.21-.37-.32-.78-.32-1.25v-2.64c0-.47,.11-.88,.32-1.25,.21-.36,.5-.65,.86-.86,.37-.21,.78-.32,1.25-.32s.88,.11,1.25,.32,.66,.5,.87,.86c.21,.37,.31,.78,.31,1.25v2.64c0,.47-.1,.88-.31,1.25-.21,.36-.5,.65-.87,.86-.37,.21-.78,.32-1.25,.32Zm0-.86c.28,0,.54-.07,.77-.21s.41-.32,.55-.55c.14-.23,.2-.49,.2-.77v-2.74c0-.28-.07-.54-.2-.77-.14-.23-.32-.42-.55-.55s-.49-.21-.77-.21-.54,.07-.77,.21c-.23,.14-.42,.32-.55,.55-.14,.23-.21,.49-.21,.77v2.74c0,.28,.07,.54,.21,.77,.14,.23,.32,.42,.55,.55,.23,.14,.49,.21,.77,.21Z"/>
      <path d="M27.09,46.35c-.47,0-.88-.11-1.25-.32-.36-.21-.65-.5-.86-.86-.21-.37-.32-.78-.32-1.25v-2.64c0-.47,.11-.88,.32-1.25,.21-.36,.5-.65,.86-.86,.37-.21,.78-.32,1.25-.32s.88,.11,1.25,.32,.66,.5,.87,.86c.21,.37,.31,.78,.31,1.25v2.64c0,.47-.1,.88-.31,1.25-.21,.36-.5,.65-.87,.86-.37,.21-.78,.32-1.25,.32Zm0-.86c.28,0,.54-.07,.77-.21s.41-.32,.55-.55c.14-.23,.2-.49,.2-.77v-2.74c0-.28-.07-.54-.2-.77-.14-.23-.32-.42-.55-.55s-.49-.21-.77-.21-.54,.07-.77,.21c-.23,.14-.42,.32-.55,.55-.14,.23-.21,.49-.21,.77v2.74c0,.28,.07,.54,.21,.77,.14,.23,.32,.42,.55,.55,.23,.14,.49,.21,.77,.21Z"/>
      <path d="M34.15,46.35c-.47,0-.88-.11-1.25-.32-.36-.21-.65-.5-.86-.86-.21-.37-.32-.78-.32-1.25v-2.64c0-.47,.11-.88,.32-1.25,.21-.36,.5-.65,.86-.86,.37-.21,.78-.32,1.25-.32s.88,.11,1.25,.32,.66,.5,.87,.86c.21,.37,.31,.78,.31,1.25v2.64c0,.47-.1,.88-.31,1.25-.21,.36-.5,.65-.87,.86-.37,.21-.78,.32-1.25,.32Zm0-.86c.28,0,.54-.07,.77-.21s.41-.32,.55-.55c.14-.23,.2-.49,.2-.77v-2.74c0-.28-.07-.54-.2-.77-.14-.23-.32-.42-.55-.55s-.49-.21-.77-.21-.54,.07-.77,.21c-.23,.14-.42,.32-.55,.55-.14,.23-.21,.49-.21,.77v2.74c0,.28,.07,.54,.21,.77,.14,.23,.32,.42,.55,.55,.23,.14,.49,.21,.77,.21Z"/>
    </g>
    <g>
      <path d="M3.31,71.58v-1.33H0v-.84l2.38-5.03h1.01l-2.38,5.03H3.31v-2.03h.9v2.03h.75v.84h-.75v1.33h-.9Z"/>
      <path d="M9.39,71.73c-.47,0-.88-.11-1.25-.32-.36-.21-.65-.5-.86-.86-.21-.37-.32-.78-.32-1.25v-2.64c0-.47,.11-.88,.32-1.25,.21-.36,.5-.65,.86-.86,.37-.21,.78-.32,1.25-.32s.88,.11,1.25,.32,.66,.5,.87,.86c.21,.37,.31,.78,.31,1.25v2.64c0,.47-.1,.88-.31,1.25-.21,.36-.5,.65-.87,.86-.37,.21-.78,.32-1.25,.32Zm0-.86c.28,0,.54-.07,.77-.21s.41-.32,.55-.55c.14-.23,.2-.49,.2-.77v-2.74c0-.28-.07-.54-.2-.77-.14-.23-.32-.42-.55-.55s-.49-.21-.77-.21-.54,.07-.77,.21c-.23,.14-.42,.32-.55,.55-.14,.23-.21,.49-.21,.77v2.74c0,.28,.07,.54,.21,.77,.14,.23,.32,.42,.55,.55,.23,.14,.49,.21,.77,.21Z"/>
      <path d="M13.92,72.7l.05-.42c.14,0,.25-.02,.32-.08,.07-.06,.11-.15,.13-.26,.02-.11,.02-.23,.01-.37h-.52v-1.13h.98v1.28c0,.35-.09,.61-.26,.79-.17,.18-.41,.24-.72,.18Z"/>
      <path d="M20.03,71.73c-.47,0-.88-.11-1.25-.32-.36-.21-.65-.5-.86-.86-.21-.37-.32-.78-.32-1.25v-2.64c0-.47,.11-.88,.32-1.25,.21-.36,.5-.65,.86-.86,.37-.21,.78-.32,1.25-.32s.88,.11,1.25,.32,.66,.5,.87,.86c.21,.37,.31,.78,.31,1.25v2.64c0,.47-.1,.88-.31,1.25-.21,.36-.5,.65-.87,.86-.37,.21-.78,.32-1.25,.32Zm0-.86c.28,0,.54-.07,.77-.21s.41-.32,.55-.55c.14-.23,.2-.49,.2-.77v-2.74c0-.28-.07-.54-.2-.77-.14-.23-.32-.42-.55-.55s-.49-.21-.77-.21-.54,.07-.77,.21c-.23,.14-.42,.32-.55,.55-.14,.23-.21,.49-.21,.77v2.74c0,.28,.07,.54,.21,.77,.14,.23,.32,.42,.55,.55,.23,.14,.49,.21,.77,.21Z"/>
      <path d="M27.09,71.73c-.47,0-.88-.11-1.25-.32-.36-.21-.65-.5-.86-.86-.21-.37-.32-.78-.32-1.25v-2.64c0-.47,.11-.88,.32-1.25,.21-.36,.5-.65,.86-.86,.37-.21,.78-.32,1.25-.32s.88,.11,1.25,.32,.66,.5,.87,.86c.21,.37,.31,.78,.31,1.25v2.64c0,.47-.1,.88-.31,1.25-.21,.36-.5,.65-.87,.86-.37,.21-.78,.32-1.25,.32Zm0-.86c.28,0,.54-.07,.77-.21s.41-.32,.55-.55c.14-.23,.2-.49,.2-.77v-2.74c0-.28-.07-.54-.2-.77-.14-.23-.32-.42-.55-.55s-.49-.21-.77-.21-.54,.07-.77,.21c-.23,.14-.42,.32-.55,.55-.14,.23-.21,.49-.21,.77v2.74c0,.28,.07,.54,.21,.77,.14,.23,.32,.42,.55,.55,.23,.14,.49,.21,.77,.21Z"/>
      <path d="M34.15,71.73c-.47,0-.88-.11-1.25-.32-.36-.21-.65-.5-.86-.86-.21-.37-.32-.78-.32-1.25v-2.64c0-.47,.11-.88,.32-1.25,.21-.36,.5-.65,.86-.86,.37-.21,.78-.32,1.25-.32s.88,.11,1.25,.32,.66,.5,.87,.86c.21,.37,.31,.78,.31,1.25v2.64c0,.47-.1,.88-.31,1.25-.21,.36-.5,.65-.87,.86-.37,.21-.78,.32-1.25,.32Zm0-.86c.28,0,.54-.07,.77-.21s.41-.32,.55-.55c.14-.23,.2-.49,.2-.77v-2.74c0-.28-.07-.54-.2-.77-.14-.23-.32-.42-.55-.55s-.49-.21-.77-.21-.54,.07-.77,.21c-.23,.14-.42,.32-.55,.55-.14,.23-.21,.49-.21,.77v2.74c0,.28,.07,.54,.21,.77,.14,.23,.32,.42,.55,.55,.23,.14,.49,.21,.77,.21Z"/>
    </g>
    <g>
      <path d="M2.51,97.1c-.36,0-.69-.07-.99-.2-.31-.13-.57-.32-.79-.56-.22-.24-.38-.53-.49-.86l.85-.24c.11,.33,.29,.59,.55,.76,.26,.17,.54,.26,.86,.25,.29,0,.55-.07,.76-.2,.21-.13,.38-.3,.5-.53,.12-.22,.18-.48,.18-.77,0-.44-.13-.8-.4-1.08s-.62-.42-1.05-.42c-.12,0-.25,.02-.38,.05-.13,.04-.25,.08-.37,.14l-.43-.71,2.67-2.42,.12,.3H.52v-.85H4.77v.86l-2.28,2.18v-.32c.47-.03,.88,.05,1.24,.24,.36,.19,.63,.46,.83,.81s.3,.76,.3,1.21-.1,.87-.31,1.22c-.21,.35-.49,.63-.84,.83-.35,.2-.75,.3-1.2,.3Z"/>
      <path d="M9.39,97.11c-.47,0-.88-.11-1.25-.32-.36-.21-.65-.5-.86-.86-.21-.37-.32-.78-.32-1.25v-2.64c0-.47,.11-.88,.32-1.25,.21-.36,.5-.65,.86-.86,.37-.21,.78-.32,1.25-.32s.88,.11,1.25,.32,.66,.5,.87,.86c.21,.37,.31,.78,.31,1.25v2.64c0,.47-.1,.88-.31,1.25-.21,.36-.5,.65-.87,.86-.37,.21-.78,.32-1.25,.32Zm0-.86c.28,0,.54-.07,.77-.21s.41-.32,.55-.55c.14-.23,.2-.49,.2-.77v-2.74c0-.28-.07-.54-.2-.77-.14-.23-.32-.42-.55-.55s-.49-.21-.77-.21-.54,.07-.77,.21c-.23,.14-.42,.32-.55,.55-.14,.23-.21,.49-.21,.77v2.74c0,.28,.07,.54,.21,.77,.14,.23,.32,.42,.55,.55,.23,.14,.49,.21,.77,.21Z"/>
      <path d="M13.92,98.08l.05-.42c.14,0,.25-.02,.32-.08,.07-.06,.11-.15,.13-.26,.02-.11,.02-.23,.01-.37h-.52v-1.13h.98v1.28c0,.35-.09,.61-.26,.79-.17,.18-.41,.24-.72,.18Z"/>
      <path d="M20.03,97.11c-.47,0-.88-.11-1.25-.32-.36-.21-.65-.5-.86-.86-.21-.37-.32-.78-.32-1.25v-2.64c0-.47,.11-.88,.32-1.25,.21-.36,.5-.65,.86-.86,.37-.21,.78-.32,1.25-.32s.88,.11,1.25,.32,.66,.5,.87,.86c.21,.37,.31,.78,.31,1.25v2.64c0,.47-.1,.88-.31,1.25-.21,.36-.5,.65-.87,.86-.37,.21-.78,.32-1.25,.32Zm0-.86c.28,0,.54-.07,.77-.21s.41-.32,.55-.55c.14-.23,.2-.49,.2-.77v-2.74c0-.28-.07-.54-.2-.77-.14-.23-.32-.42-.55-.55s-.49-.21-.77-.21-.54,.07-.77,.21c-.23,.14-.42,.32-.55,.55-.14,.23-.21,.49-.21,.77v2.74c0,.28,.07,.54,.21,.77,.14,.23,.32,.42,.55,.55,.23,.14,.49,.21,.77,.21Z"/>
      <path d="M27.09,97.11c-.47,0-.88-.11-1.25-.32-.36-.21-.65-.5-.86-.86-.21-.37-.32-.78-.32-1.25v-2.64c0-.47,.11-.88,.32-1.25,.21-.36,.5-.65,.86-.86,.37-.21,.78-.32,1.25-.32s.88,.11,1.25,.32,.66,.5,.87,.86c.21,.37,.31,.78,.31,1.25v2.64c0,.47-.1,.88-.31,1.25-.21,.36-.5,.65-.87,.86-.37,.21-.78,.32-1.25,.32Zm0-.86c.28,0,.54-.07,.77-.21s.41-.32,.55-.55c.14-.23,.2-.49,.2-.77v-2.74c0-.28-.07-.54-.2-.77-.14-.23-.32-.42-.55-.55s-.49-.21-.77-.21-.54,.07-.77,.21c-.23,.14-.42,.32-.55,.55-.14,.23-.21,.49-.21,.77v2.74c0,.28,.07,.54,.21,.77,.14,.23,.32,.42,.55,.55,.23,.14,.49,.21,.77,.21Z"/>
      <path d="M34.15,97.11c-.47,0-.88-.11-1.25-.32-.36-.21-.65-.5-.86-.86-.21-.37-.32-.78-.32-1.25v-2.64c0-.47,.11-.88,.32-1.25,.21-.36,.5-.65,.86-.86,.37-.21,.78-.32,1.25-.32s.88,.11,1.25,.32,.66,.5,.87,.86c.21,.37,.31,.78,.31,1.25v2.64c0,.47-.1,.88-.31,1.25-.21,.36-.5,.65-.87,.86-.37,.21-.78,.32-1.25,.32Zm0-.86c.28,0,.54-.07,.77-.21s.41-.32,.55-.55c.14-.23,.2-.49,.2-.77v-2.74c0-.28-.07-.54-.2-.77-.14-.23-.32-.42-.55-.55s-.49-.21-.77-.21-.54,.07-.77,.21c-.23,.14-.42,.32-.55,.55-.14,.23-.21,.49-.21,.77v2.74c0,.28,.07,.54,.21,.77,.14,.23,.32,.42,.55,.55,.23,.14,.49,.21,.77,.21Z"/>
    </g>
    <g>
      <path d="M.18,122.33v-.8s3.2-2.88,3.2-2.88c.27-.24,.45-.47,.54-.68,.09-.21,.14-.44,.14-.66,0-.28-.06-.53-.19-.75-.13-.22-.3-.4-.52-.53s-.47-.2-.74-.2-.54,.07-.76,.21c-.22,.14-.4,.32-.53,.54s-.19,.46-.19,.72H.21c0-.45,.1-.85,.31-1.2,.21-.35,.49-.62,.86-.82s.77-.3,1.23-.3,.85,.1,1.2,.31c.35,.21,.63,.48,.84,.84s.31,.75,.31,1.19c0,.32-.04,.59-.12,.82s-.2,.44-.36,.64c-.16,.2-.37,.4-.62,.62l-2.65,2.39-.12-.3h3.87v.85H.18Z"/>
      <path d="M9.39,122.48c-.47,0-.88-.11-1.25-.32-.36-.21-.65-.5-.86-.86-.21-.37-.32-.78-.32-1.25v-2.64c0-.47,.11-.88,.32-1.25,.21-.36,.5-.65,.86-.86,.37-.21,.78-.32,1.25-.32s.88,.11,1.25,.32,.66,.5,.87,.86c.21,.37,.31,.78,.31,1.25v2.64c0,.47-.1,.88-.31,1.25-.21,.36-.5,.65-.87,.86-.37,.21-.78,.32-1.25,.32Zm0-.86c.28,0,.54-.07,.77-.21s.41-.32,.55-.55c.14-.23,.2-.49,.2-.77v-2.74c0-.28-.07-.54-.2-.77-.14-.23-.32-.42-.55-.55s-.49-.21-.77-.21-.54,.07-.77,.21c-.23,.14-.42,.32-.55,.55-.14,.23-.21,.49-.21,.77v2.74c0,.28,.07,.54,.21,.77,.14,.23,.32,.42,.55,.55,.23,.14,.49,.21,.77,.21Z"/>
      <path d="M13.92,123.45l.05-.42c.14,0,.25-.02,.32-.08,.07-.06,.11-.15,.13-.26,.02-.11,.02-.23,.01-.37h-.52v-1.13h.98v1.28c0,.35-.09,.61-.26,.79-.17,.18-.41,.24-.72,.18Z"/>
      <path d="M20.03,122.48c-.47,0-.88-.11-1.25-.32-.36-.21-.65-.5-.86-.86-.21-.37-.32-.78-.32-1.25v-2.64c0-.47,.11-.88,.32-1.25,.21-.36,.5-.65,.86-.86,.37-.21,.78-.32,1.25-.32s.88,.11,1.25,.32,.66,.5,.87,.86c.21,.37,.31,.78,.31,1.25v2.64c0,.47-.1,.88-.31,1.25-.21,.36-.5,.65-.87,.86-.37,.21-.78,.32-1.25,.32Zm0-.86c.28,0,.54-.07,.77-.21s.41-.32,.55-.55c.14-.23,.2-.49,.2-.77v-2.74c0-.28-.07-.54-.2-.77-.14-.23-.32-.42-.55-.55s-.49-.21-.77-.21-.54,.07-.77,.21c-.23,.14-.42,.32-.55,.55-.14,.23-.21,.49-.21,.77v2.74c0,.28,.07,.54,.21,.77,.14,.23,.32,.42,.55,.55,.23,.14,.49,.21,.77,.21Z"/>
      <path d="M27.09,122.48c-.47,0-.88-.11-1.25-.32-.36-.21-.65-.5-.86-.86-.21-.37-.32-.78-.32-1.25v-2.64c0-.47,.11-.88,.32-1.25,.21-.36,.5-.65,.86-.86,.37-.21,.78-.32,1.25-.32s.88,.11,1.25,.32,.66,.5,.87,.86c.21,.37,.31,.78,.31,1.25v2.64c0,.47-.1,.88-.31,1.25-.21,.36-.5,.65-.87,.86-.37,.21-.78,.32-1.25,.32Zm0-.86c.28,0,.54-.07,.77-.21s.41-.32,.55-.55c.14-.23,.2-.49,.2-.77v-2.74c0-.28-.07-.54-.2-.77-.14-.23-.32-.42-.55-.55s-.49-.21-.77-.21-.54,.07-.77,.21c-.23,.14-.42,.32-.55,.55-.14,.23-.21,.49-.21,.77v2.74c0,.28,.07,.54,.21,.77,.14,.23,.32,.42,.55,.55,.23,.14,.49,.21,.77,.21Z"/>
      <path d="M34.15,122.48c-.47,0-.88-.11-1.25-.32-.36-.21-.65-.5-.86-.86-.21-.37-.32-.78-.32-1.25v-2.64c0-.47,.11-.88,.32-1.25,.21-.36,.5-.65,.86-.86,.37-.21,.78-.32,1.25-.32s.88,.11,1.25,.32,.66,.5,.87,.86c.21,.37,.31,.78,.31,1.25v2.64c0,.47-.1,.88-.31,1.25-.21,.36-.5,.65-.87,.86-.37,.21-.78,.32-1.25,.32Zm0-.86c.28,0,.54-.07,.77-.21s.41-.32,.55-.55c.14-.23,.2-.49,.2-.77v-2.74c0-.28-.07-.54-.2-.77-.14-.23-.32-.42-.55-.55s-.49-.21-.77-.21-.54,.07-.77,.21c-.23,.14-.42,.32-.55,.55-.14,.23-.21,.49-.21,.77v2.74c0,.28,.07,.54,.21,.77,.14,.23,.32,.42,.55,.55,.23,.14,.49,.21,.77,.21Z"/>
    </g>
    <g>
      <path d="M3.36,147.71v-6.21l-1.35,.82v-1l1.35-.81h.9v7.2h-.9Z"/>
      <path d="M9.39,147.86c-.47,0-.88-.11-1.25-.32-.36-.21-.65-.5-.86-.86-.21-.37-.32-.78-.32-1.25v-2.64c0-.47,.11-.88,.32-1.25,.21-.36,.5-.65,.86-.86,.37-.21,.78-.32,1.25-.32s.88,.11,1.25,.32,.66,.5,.87,.86c.21,.37,.31,.78,.31,1.25v2.64c0,.47-.1,.88-.31,1.25-.21,.36-.5,.65-.87,.86-.37,.21-.78,.32-1.25,.32Zm0-.86c.28,0,.54-.07,.77-.21s.41-.32,.55-.55c.14-.23,.2-.49,.2-.77v-2.74c0-.28-.07-.54-.2-.77-.14-.23-.32-.42-.55-.55s-.49-.21-.77-.21-.54,.07-.77,.21c-.23,.14-.42,.32-.55,.55-.14,.23-.21,.49-.21,.77v2.74c0,.28,.07,.54,.21,.77,.14,.23,.32,.42,.55,.55,.23,.14,.49,.21,.77,.21Z"/>
      <path d="M13.92,148.83l.05-.42c.14,0,.25-.02,.32-.08,.07-.06,.11-.15,.13-.26,.02-.11,.02-.23,.01-.37h-.52v-1.13h.98v1.28c0,.35-.09,.61-.26,.79-.17,.18-.41,.24-.72,.18Z"/>
      <path d="M20.03,147.86c-.47,0-.88-.11-1.25-.32-.36-.21-.65-.5-.86-.86-.21-.37-.32-.78-.32-1.25v-2.64c0-.47,.11-.88,.32-1.25,.21-.36,.5-.65,.86-.86,.37-.21,.78-.32,1.25-.32s.88,.11,1.25,.32,.66,.5,.87,.86c.21,.37,.31,.78,.31,1.25v2.64c0,.47-.1,.88-.31,1.25-.21,.36-.5,.65-.87,.86-.37,.21-.78,.32-1.25,.32Zm0-.86c.28,0,.54-.07,.77-.21s.41-.32,.55-.55c.14-.23,.2-.49,.2-.77v-2.74c0-.28-.07-.54-.2-.77-.14-.23-.32-.42-.55-.55s-.49-.21-.77-.21-.54,.07-.77,.21c-.23,.14-.42,.32-.55,.55-.14,.23-.21,.49-.21,.77v2.74c0,.28,.07,.54,.21,.77,.14,.23,.32,.42,.55,.55,.23,.14,.49,.21,.77,.21Z"/>
      <path d="M27.09,147.86c-.47,0-.88-.11-1.25-.32-.36-.21-.65-.5-.86-.86-.21-.37-.32-.78-.32-1.25v-2.64c0-.47,.11-.88,.32-1.25,.21-.36,.5-.65,.86-.86,.37-.21,.78-.32,1.25-.32s.88,.11,1.25,.32,.66,.5,.87,.86c.21,.37,.31,.78,.31,1.25v2.64c0,.47-.1,.88-.31,1.25-.21,.36-.5,.65-.87,.86-.37,.21-.78,.32-1.25,.32Zm0-.86c.28,0,.54-.07,.77-.21s.41-.32,.55-.55c.14-.23,.2-.49,.2-.77v-2.74c0-.28-.07-.54-.2-.77-.14-.23-.32-.42-.55-.55s-.49-.21-.77-.21-.54,.07-.77,.21c-.23,.14-.42,.32-.55,.55-.14,.23-.21,.49-.21,.77v2.74c0,.28,.07,.54,.21,.77,.14,.23,.32,.42,.55,.55,.23,.14,.49,.21,.77,.21Z"/>
      <path d="M34.15,147.86c-.47,0-.88-.11-1.25-.32-.36-.21-.65-.5-.86-.86-.21-.37-.32-.78-.32-1.25v-2.64c0-.47,.11-.88,.32-1.25,.21-.36,.5-.65,.86-.86,.37-.21,.78-.32,1.25-.32s.88,.11,1.25,.32,.66,.5,.87,.86c.21,.37,.31,.78,.31,1.25v2.64c0,.47-.1,.88-.31,1.25-.21,.36-.5,.65-.87,.86-.37,.21-.78,.32-1.25,.32Zm0-.86c.28,0,.54-.07,.77-.21s.41-.32,.55-.55c.14-.23,.2-.49,.2-.77v-2.74c0-.28-.07-.54-.2-.77-.14-.23-.32-.42-.55-.55s-.49-.21-.77-.21-.54,.07-.77,.21c-.23,.14-.42,.32-.55,.55-.14,.23-.21,.49-.21,.77v2.74c0,.28,.07,.54,.21,.77,.14,.23,.32,.42,.55,.55,.23,.14,.49,.21,.77,.21Z"/>
    </g>
    <g>
      <path d="M63.55,179.56h.8s2.88,3.2,2.88,3.2c.24,.27,.47,.45,.68,.54,.22,.09,.44,.14,.66,.14,.28,0,.53-.06,.75-.19,.22-.13,.4-.3,.53-.52,.13-.22,.2-.47,.2-.74s-.07-.54-.21-.76c-.14-.22-.32-.4-.54-.53-.22-.13-.46-.19-.73-.19v-.91c.45,0,.85,.1,1.2,.31,.35,.21,.62,.49,.82,.86,.2,.36,.3,.78,.3,1.24s-.1,.85-.31,1.2c-.21,.35-.48,.63-.84,.84-.35,.21-.75,.31-1.19,.31-.32,0-.59-.04-.82-.12-.23-.08-.44-.2-.64-.36-.2-.16-.4-.37-.62-.61l-2.38-2.66,.3-.12v3.87h-.85v-4.79Z"/>
      <path d="M63.39,188.77c0-.47,.11-.88,.32-1.25,.21-.37,.5-.65,.87-.87,.36-.21,.78-.32,1.25-.32h2.64c.47,0,.88,.11,1.25,.32,.37,.21,.65,.5,.87,.87,.21,.36,.32,.78,.32,1.25s-.11,.88-.32,1.25c-.21,.37-.5,.66-.87,.87-.36,.21-.78,.31-1.25,.31h-2.64c-.47,0-.88-.1-1.25-.31-.37-.21-.65-.5-.87-.87-.21-.37-.32-.78-.32-1.25Zm.85,0c0,.28,.07,.54,.21,.77,.14,.23,.32,.41,.55,.55,.23,.14,.49,.21,.77,.21h2.75c.28,0,.54-.07,.77-.21,.23-.14,.42-.32,.55-.55,.14-.23,.21-.49,.21-.77s-.07-.54-.21-.77-.32-.42-.55-.55c-.23-.14-.49-.2-.77-.2h-2.75c-.28,0-.54,.07-.77,.2-.23,.14-.42,.32-.55,.55s-.21,.49-.21,.77Z"/>
      <path d="M63.55,193.2h.8s2.88,3.2,2.88,3.2c.24,.27,.47,.45,.68,.54,.22,.09,.44,.14,.66,.14,.28,0,.53-.06,.75-.19,.22-.13,.4-.3,.53-.52,.13-.22,.2-.47,.2-.74s-.07-.54-.21-.76c-.14-.22-.32-.4-.54-.53-.22-.13-.46-.19-.73-.19v-.91c.45,0,.85,.1,1.2,.31,.35,.21,.62,.49,.82,.86,.2,.36,.3,.78,.3,1.24s-.1,.85-.31,1.2c-.21,.35-.48,.63-.84,.84-.35,.21-.75,.31-1.19,.31-.32,0-.59-.04-.82-.12-.23-.08-.44-.2-.64-.36-.2-.16-.4-.37-.62-.61l-2.38-2.66,.3-.12v3.87h-.85v-4.79Z"/>
      <path d="M63.54,201.24h6.21l-.82-1.36h1l.81,1.36v.91h-7.2v-.91Z"/>
      <path d="M63.39,207.27c0-.47,.11-.88,.32-1.25,.21-.37,.5-.65,.87-.87,.36-.21,.78-.32,1.25-.32h2.64c.47,0,.88,.11,1.25,.32,.37,.21,.65,.5,.87,.87,.21,.36,.32,.78,.32,1.25s-.11,.88-.32,1.25c-.21,.37-.5,.66-.87,.87-.36,.21-.78,.31-1.25,.31h-2.64c-.47,0-.88-.1-1.25-.31-.37-.21-.65-.5-.87-.87-.21-.37-.32-.78-.32-1.25Zm.85,0c0,.28,.07,.54,.21,.77,.14,.23,.32,.41,.55,.55,.23,.14,.49,.21,.77,.21h2.75c.28,0,.54-.07,.77-.21,.23-.14,.42-.32,.55-.55,.14-.23,.21-.49,.21-.77s-.07-.54-.21-.77-.32-.42-.55-.55c-.23-.14-.49-.2-.77-.2h-2.75c-.28,0-.54,.07-.77,.2-.23,.14-.42,.32-.55,.55s-.21,.49-.21,.77Z"/>
      <path d="M63.4,213.88c0-.36,.07-.69,.2-1,.13-.31,.32-.57,.56-.79s.53-.38,.86-.49l.25,.85c-.33,.11-.59,.29-.76,.55s-.26,.54-.25,.87c0,.29,.07,.55,.2,.76s.3,.38,.53,.5,.48,.18,.77,.18c.44,0,.81-.13,1.08-.4,.28-.27,.42-.62,.42-1.05,0-.12-.02-.25-.05-.38s-.08-.25-.14-.37l.71-.43,2.42,2.67-.3,.11v-3.58h.85v4.25h-.85l-2.18-2.27h.31c.03,.47-.05,.88-.24,1.24-.19,.36-.46,.63-.81,.83-.35,.2-.76,.3-1.22,.3s-.87-.1-1.22-.31c-.35-.21-.63-.49-.83-.84s-.3-.75-.3-1.2Z"/>
    </g>
    <g>
      <path d="M89.59,179.56h.8s2.88,3.2,2.88,3.2c.24,.27,.47,.45,.68,.54,.22,.09,.44,.14,.66,.14,.28,0,.53-.06,.75-.19,.22-.13,.4-.3,.53-.52,.13-.22,.2-.47,.2-.74s-.07-.54-.21-.76c-.14-.22-.32-.4-.54-.53-.22-.13-.46-.19-.73-.19v-.91c.45,0,.85,.1,1.2,.31,.35,.21,.62,.49,.82,.86,.2,.36,.3,.78,.3,1.24s-.1,.85-.31,1.2c-.21,.35-.48,.63-.84,.84-.35,.21-.75,.31-1.19,.31-.32,0-.59-.04-.82-.12-.23-.08-.44-.2-.64-.36-.2-.16-.4-.37-.62-.61l-2.38-2.66,.3-.12v3.87h-.85v-4.79Z"/>
      <path d="M89.43,188.77c0-.47,.11-.88,.32-1.25,.21-.37,.5-.65,.87-.87,.36-.21,.78-.32,1.25-.32h2.64c.47,0,.88,.11,1.25,.32,.37,.21,.65,.5,.87,.87,.21,.36,.32,.78,.32,1.25s-.11,.88-.32,1.25c-.21,.37-.5,.66-.87,.87-.36,.21-.78,.31-1.25,.31h-2.64c-.47,0-.88-.1-1.25-.31-.37-.21-.65-.5-.87-.87-.21-.37-.32-.78-.32-1.25Zm.85,0c0,.28,.07,.54,.21,.77,.14,.23,.32,.41,.55,.55,.23,.14,.49,.21,.77,.21h2.75c.28,0,.54-.07,.77-.21,.23-.14,.42-.32,.55-.55,.14-.23,.21-.49,.21-.77s-.07-.54-.21-.77-.32-.42-.55-.55c-.23-.14-.49-.2-.77-.2h-2.75c-.28,0-.54,.07-.77,.2-.23,.14-.42,.32-.55,.55s-.21,.49-.21,.77Z"/>
      <path d="M89.59,193.2h.8s2.88,3.2,2.88,3.2c.24,.27,.47,.45,.68,.54,.22,.09,.44,.14,.66,.14,.28,0,.53-.06,.75-.19,.22-.13,.4-.3,.53-.52,.13-.22,.2-.47,.2-.74s-.07-.54-.21-.76c-.14-.22-.32-.4-.54-.53-.22-.13-.46-.19-.73-.19v-.91c.45,0,.85,.1,1.2,.31,.35,.21,.62,.49,.82,.86,.2,.36,.3,.78,.3,1.24s-.1,.85-.31,1.2c-.21,.35-.48,.63-.84,.84-.35,.21-.75,.31-1.19,.31-.32,0-.59-.04-.82-.12-.23-.08-.44-.2-.64-.36-.2-.16-.4-.37-.62-.61l-2.38-2.66,.3-.12v3.87h-.85v-4.79Z"/>
      <path d="M89.58,201.24h6.21l-.82-1.36h1l.81,1.36v.91h-7.2v-.91Z"/>
      <path d="M89.43,207.27c0-.47,.11-.88,.32-1.25,.21-.37,.5-.65,.87-.87,.36-.21,.78-.32,1.25-.32h2.64c.47,0,.88,.11,1.25,.32,.37,.21,.65,.5,.87,.87,.21,.36,.32,.78,.32,1.25s-.11,.88-.32,1.25c-.21,.37-.5,.66-.87,.87-.36,.21-.78,.31-1.25,.31h-2.64c-.47,0-.88-.1-1.25-.31-.37-.21-.65-.5-.87-.87-.21-.37-.32-.78-.32-1.25Zm.85,0c0,.28,.07,.54,.21,.77,.14,.23,.32,.41,.55,.55,.23,.14,.49,.21,.77,.21h2.75c.28,0,.54-.07,.77-.21,.23-.14,.42-.32,.55-.55,.14-.23,.21-.49,.21-.77s-.07-.54-.21-.77-.32-.42-.55-.55c-.23-.14-.49-.2-.77-.2h-2.75c-.28,0-.54,.07-.77,.2-.23,.14-.42,.32-.55,.55s-.21,.49-.21,.77Z"/>
      <path d="M89.58,212.28l6.35,2.59v-3.27h.85v4.22h-.85l-6.35-2.58v-.96Z"/>
    </g>
    <g>
      <path d="M115.62,179.56h.8s2.88,3.2,2.88,3.2c.24,.27,.47,.45,.68,.54,.22,.09,.44,.14,.66,.14,.28,0,.53-.06,.75-.19,.22-.13,.4-.3,.53-.52,.13-.22,.2-.47,.2-.74s-.07-.54-.21-.76c-.14-.22-.32-.4-.54-.53-.22-.13-.46-.19-.73-.19v-.91c.45,0,.85,.1,1.2,.31,.35,.21,.62,.49,.82,.86,.2,.36,.3,.78,.3,1.24s-.1,.85-.31,1.2c-.21,.35-.48,.63-.84,.84-.35,.21-.75,.31-1.19,.31-.32,0-.59-.04-.82-.12-.23-.08-.44-.2-.64-.36-.2-.16-.4-.37-.62-.61l-2.38-2.66,.3-.12v3.87h-.85v-4.79Z"/>
      <path d="M115.47,188.77c0-.47,.11-.88,.32-1.25,.21-.37,.5-.65,.87-.87,.36-.21,.78-.32,1.25-.32h2.64c.47,0,.88,.11,1.25,.32,.37,.21,.65,.5,.87,.87,.21,.36,.32,.78,.32,1.25s-.11,.88-.32,1.25c-.21,.37-.5,.66-.87,.87-.36,.21-.78,.31-1.25,.31h-2.64c-.47,0-.88-.1-1.25-.31-.37-.21-.65-.5-.87-.87-.21-.37-.32-.78-.32-1.25Zm.85,0c0,.28,.07,.54,.21,.77,.14,.23,.32,.41,.55,.55,.23,.14,.49,.21,.77,.21h2.75c.28,0,.54-.07,.77-.21,.23-.14,.42-.32,.55-.55,.14-.23,.21-.49,.21-.77s-.07-.54-.21-.77-.32-.42-.55-.55c-.23-.14-.49-.2-.77-.2h-2.75c-.28,0-.54,.07-.77,.2-.23,.14-.42,.32-.55,.55s-.21,.49-.21,.77Z"/>
      <path d="M115.62,193.2h.8s2.88,3.2,2.88,3.2c.24,.27,.47,.45,.68,.54,.22,.09,.44,.14,.66,.14,.28,0,.53-.06,.75-.19,.22-.13,.4-.3,.53-.52,.13-.22,.2-.47,.2-.74s-.07-.54-.21-.76c-.14-.22-.32-.4-.54-.53-.22-.13-.46-.19-.73-.19v-.91c.45,0,.85,.1,1.2,.31,.35,.21,.62,.49,.82,.86,.2,.36,.3,.78,.3,1.24s-.1,.85-.31,1.2c-.21,.35-.48,.63-.84,.84-.35,.21-.75,.31-1.19,.31-.32,0-.59-.04-.82-.12-.23-.08-.44-.2-.64-.36-.2-.16-.4-.37-.62-.61l-2.38-2.66,.3-.12v3.87h-.85v-4.79Z"/>
      <path d="M115.62,201.24h6.21l-.82-1.36h1l.81,1.36v.91h-7.2v-.91Z"/>
      <path d="M115.47,207.27c0-.47,.11-.88,.32-1.25,.21-.37,.5-.65,.87-.87,.36-.21,.78-.32,1.25-.32h2.64c.47,0,.88,.11,1.25,.32,.37,.21,.65,.5,.87,.87,.21,.36,.32,.78,.32,1.25s-.11,.88-.32,1.25c-.21,.37-.5,.66-.87,.87-.36,.21-.78,.31-1.25,.31h-2.64c-.47,0-.88-.1-1.25-.31-.37-.21-.65-.5-.87-.87-.21-.37-.32-.78-.32-1.25Zm.85,0c0,.28,.07,.54,.21,.77,.14,.23,.32,.41,.55,.55,.23,.14,.49,.21,.77,.21h2.75c.28,0,.54-.07,.77-.21,.23-.14,.42-.32,.55-.55,.14-.23,.21-.49,.21-.77s-.07-.54-.21-.77-.32-.42-.55-.55c-.23-.14-.49-.2-.77-.2h-2.75c-.28,0-.54,.07-.77,.2-.23,.14-.42,.32-.55,.55s-.21,.49-.21,.77Z"/>
      <path d="M122.96,214.26c0,.46-.11,.87-.33,1.24-.22,.37-.52,.67-.9,.88-.38,.22-.81,.33-1.29,.33h-2.4c-.5,0-.95-.11-1.33-.33-.39-.22-.69-.52-.91-.9-.22-.38-.33-.82-.33-1.31,0-.4,.08-.76,.24-1.1s.39-.63,.7-.87l.59,.67c-.21,.15-.37,.33-.5,.57-.12,.23-.19,.48-.19,.74,0,.32,.08,.6,.23,.84s.35,.44,.6,.58c.25,.14,.51,.21,.8,.21h1.44l-.22,.19c-.3-.21-.54-.47-.72-.8-.18-.33-.27-.68-.27-1.05,0-.45,.1-.85,.31-1.2,.21-.35,.49-.63,.85-.84s.76-.31,1.21-.31,.85,.11,1.21,.33c.36,.22,.65,.52,.87,.89,.22,.37,.33,.78,.33,1.23Zm-.86,0c0-.29-.07-.55-.21-.78-.14-.24-.32-.42-.56-.56-.23-.14-.5-.21-.78-.21s-.55,.07-.78,.21c-.23,.14-.42,.33-.56,.56-.14,.24-.21,.5-.21,.78s.07,.55,.21,.78c.14,.24,.33,.42,.56,.56,.24,.14,.5,.21,.78,.21s.54-.07,.78-.21,.42-.33,.56-.56c.14-.24,.21-.5,.21-.78Z"/>
    </g>
    <g>
      <path d="M141.66,179.56h.8s2.88,3.2,2.88,3.2c.24,.27,.47,.45,.68,.54,.22,.09,.44,.14,.66,.14,.28,0,.53-.06,.75-.19,.22-.13,.4-.3,.53-.52,.13-.22,.2-.47,.2-.74s-.07-.54-.21-.76c-.14-.22-.32-.4-.54-.53-.22-.13-.46-.19-.73-.19v-.91c.45,0,.85,.1,1.2,.31,.35,.21,.62,.49,.82,.86,.2,.36,.3,.78,.3,1.24s-.1,.85-.31,1.2c-.21,.35-.48,.63-.84,.84-.35,.21-.75,.31-1.19,.31-.32,0-.59-.04-.82-.12-.23-.08-.44-.2-.64-.36-.2-.16-.4-.37-.62-.61l-2.38-2.66,.3-.12v3.87h-.85v-4.79Z"/>
      <path d="M141.5,188.77c0-.47,.11-.88,.32-1.25,.21-.37,.5-.65,.87-.87,.36-.21,.78-.32,1.25-.32h2.64c.47,0,.88,.11,1.25,.32,.37,.21,.65,.5,.87,.87,.21,.36,.32,.78,.32,1.25s-.11,.88-.32,1.25c-.21,.37-.5,.66-.87,.87-.36,.21-.78,.31-1.25,.31h-2.64c-.47,0-.88-.1-1.25-.31-.37-.21-.65-.5-.87-.87-.21-.37-.32-.78-.32-1.25Zm.85,0c0,.28,.07,.54,.21,.77,.14,.23,.32,.41,.55,.55,.23,.14,.49,.21,.77,.21h2.75c.28,0,.54-.07,.77-.21,.23-.14,.42-.32,.55-.55,.14-.23,.21-.49,.21-.77s-.07-.54-.21-.77-.32-.42-.55-.55c-.23-.14-.49-.2-.77-.2h-2.75c-.28,0-.54,.07-.77,.2-.23,.14-.42,.32-.55,.55s-.21,.49-.21,.77Z"/>
      <path d="M141.66,193.2h.8s2.88,3.2,2.88,3.2c.24,.27,.47,.45,.68,.54,.22,.09,.44,.14,.66,.14,.28,0,.53-.06,.75-.19,.22-.13,.4-.3,.53-.52,.13-.22,.2-.47,.2-.74s-.07-.54-.21-.76c-.14-.22-.32-.4-.54-.53-.22-.13-.46-.19-.73-.19v-.91c.45,0,.85,.1,1.2,.31,.35,.21,.62,.49,.82,.86,.2,.36,.3,.78,.3,1.24s-.1,.85-.31,1.2c-.21,.35-.48,.63-.84,.84-.35,.21-.75,.31-1.19,.31-.32,0-.59-.04-.82-.12-.23-.08-.44-.2-.64-.36-.2-.16-.4-.37-.62-.61l-2.38-2.66,.3-.12v3.87h-.85v-4.79Z"/>
      <path d="M141.65,201.24h6.21l-.82-1.36h1l.81,1.36v.91h-7.2v-.91Z"/>
      <path d="M141.65,206.1h6.21l-.82-1.36h1l.81,1.36v.91h-7.2v-.91Z"/>
      <path d="M141.65,210.96h6.21l-.82-1.36h1l.81,1.36v.91h-7.2v-.91Z"/>
    </g>
    <g>
      <path d="M167.7,179.56h.8s2.88,3.2,2.88,3.2c.24,.27,.47,.45,.68,.54,.22,.09,.44,.14,.66,.14,.28,0,.53-.06,.75-.19,.22-.13,.4-.3,.53-.52,.13-.22,.2-.47,.2-.74s-.07-.54-.21-.76c-.14-.22-.32-.4-.54-.53-.22-.13-.46-.19-.72-.19v-.91c.45,0,.85,.1,1.2,.31,.35,.21,.62,.49,.82,.86,.2,.36,.3,.78,.3,1.24s-.1,.85-.31,1.2c-.21,.35-.48,.63-.84,.84-.35,.21-.75,.31-1.19,.31-.32,0-.59-.04-.82-.12-.23-.08-.44-.2-.64-.36-.2-.16-.4-.37-.62-.61l-2.38-2.66,.3-.12v3.87h-.85v-4.79Z"/>
      <path d="M167.54,188.77c0-.47,.11-.88,.32-1.25,.21-.37,.5-.65,.87-.87,.36-.21,.78-.32,1.25-.32h2.64c.47,0,.88,.11,1.25,.32,.37,.21,.65,.5,.87,.87,.21,.36,.32,.78,.32,1.25s-.11,.88-.32,1.25c-.21,.37-.5,.66-.87,.87-.36,.21-.78,.31-1.25,.31h-2.64c-.47,0-.88-.1-1.25-.31-.37-.21-.65-.5-.87-.87-.21-.37-.32-.78-.32-1.25Zm.86,0c0,.28,.07,.54,.21,.77,.14,.23,.32,.41,.55,.55s.49,.21,.77,.21h2.75c.28,0,.54-.07,.77-.21,.23-.14,.42-.32,.55-.55,.14-.23,.21-.49,.21-.77s-.07-.54-.21-.77-.32-.42-.55-.55c-.23-.14-.49-.2-.77-.2h-2.75c-.28,0-.54,.07-.77,.2s-.42,.32-.55,.55-.21,.49-.21,.77Z"/>
      <path d="M167.7,193.2h.8s2.88,3.2,2.88,3.2c.24,.27,.47,.45,.68,.54,.22,.09,.44,.14,.66,.14,.28,0,.53-.06,.75-.19,.22-.13,.4-.3,.53-.52,.13-.22,.2-.47,.2-.74s-.07-.54-.21-.76c-.14-.22-.32-.4-.54-.53-.22-.13-.46-.19-.72-.19v-.91c.45,0,.85,.1,1.2,.31,.35,.21,.62,.49,.82,.86,.2,.36,.3,.78,.3,1.24s-.1,.85-.31,1.2c-.21,.35-.48,.63-.84,.84-.35,.21-.75,.31-1.19,.31-.32,0-.59-.04-.82-.12-.23-.08-.44-.2-.64-.36-.2-.16-.4-.37-.62-.61l-2.38-2.66,.3-.12v3.87h-.85v-4.79Z"/>
      <path d="M167.7,199.79h.8s2.88,3.2,2.88,3.2c.24,.27,.47,.45,.68,.54,.22,.09,.44,.14,.66,.14,.28,0,.53-.06,.75-.19,.22-.13,.4-.3,.53-.52,.13-.22,.2-.47,.2-.74s-.07-.54-.21-.76c-.14-.22-.32-.4-.54-.53-.22-.13-.46-.19-.72-.19v-.91c.45,0,.85,.1,1.2,.31,.35,.21,.62,.49,.82,.86,.2,.36,.3,.78,.3,1.24s-.1,.85-.31,1.2c-.21,.35-.48,.63-.84,.84-.35,.21-.75,.31-1.19,.31-.32,0-.59-.04-.82-.12-.23-.08-.44-.2-.64-.36-.2-.16-.4-.37-.62-.61l-2.38-2.66,.3-.12v3.87h-.85v-4.79Z"/>
      <path d="M167.54,209c0-.47,.11-.88,.32-1.25,.21-.37,.5-.65,.87-.87,.36-.21,.78-.32,1.25-.32h2.64c.47,0,.88,.11,1.25,.32,.37,.21,.65,.5,.87,.87,.21,.36,.32,.78,.32,1.25s-.11,.88-.32,1.25c-.21,.37-.5,.66-.87,.87-.36,.21-.78,.31-1.25,.31h-2.64c-.47,0-.88-.1-1.25-.31-.37-.21-.65-.5-.87-.87-.21-.37-.32-.78-.32-1.25Zm.86,0c0,.28,.07,.54,.21,.77,.14,.23,.32,.41,.55,.55s.49,.21,.77,.21h2.75c.28,0,.54-.07,.77-.21,.23-.14,.42-.32,.55-.55,.14-.23,.21-.49,.21-.77s-.07-.54-.21-.77-.32-.42-.55-.55c-.23-.14-.49-.2-.77-.2h-2.75c-.28,0-.54,.07-.77,.2s-.42,.32-.55,.55-.21,.49-.21,.77Z"/>
      <path d="M167.69,214.89h6.21l-.82-1.36h1l.81,1.36v.91h-7.2v-.91Z"/>
    </g>
    <g>
      <path d="M193.73,179.56h.8s2.88,3.2,2.88,3.2c.24,.27,.47,.45,.68,.54,.22,.09,.44,.14,.66,.14,.28,0,.53-.06,.75-.19,.22-.13,.4-.3,.53-.52,.13-.22,.2-.47,.2-.74s-.07-.54-.21-.76c-.14-.22-.32-.4-.54-.53-.22-.13-.46-.19-.72-.19v-.91c.45,0,.85,.1,1.2,.31,.35,.21,.62,.49,.82,.86,.2,.36,.3,.78,.3,1.24s-.1,.85-.31,1.2c-.21,.35-.48,.63-.84,.84-.35,.21-.75,.31-1.19,.31-.32,0-.59-.04-.82-.12-.23-.08-.44-.2-.64-.36-.2-.16-.4-.37-.62-.61l-2.38-2.66,.3-.12v3.87h-.85v-4.79Z"/>
      <path d="M193.58,188.77c0-.47,.11-.88,.32-1.25,.21-.37,.5-.65,.87-.87,.36-.21,.78-.32,1.25-.32h2.64c.47,0,.88,.11,1.25,.32,.37,.21,.65,.5,.87,.87,.21,.36,.32,.78,.32,1.25s-.11,.88-.32,1.25c-.21,.37-.5,.66-.87,.87-.36,.21-.78,.31-1.25,.31h-2.64c-.47,0-.88-.1-1.25-.31-.37-.21-.65-.5-.87-.87-.21-.37-.32-.78-.32-1.25Zm.86,0c0,.28,.07,.54,.21,.77,.14,.23,.32,.41,.55,.55s.49,.21,.77,.21h2.75c.28,0,.54-.07,.77-.21,.23-.14,.42-.32,.55-.55,.14-.23,.21-.49,.21-.77s-.07-.54-.21-.77-.32-.42-.55-.55c-.23-.14-.49-.2-.77-.2h-2.75c-.28,0-.54,.07-.77,.2s-.42,.32-.55,.55-.21,.49-.21,.77Z"/>
      <path d="M193.73,193.2h.8s2.88,3.2,2.88,3.2c.24,.27,.47,.45,.68,.54,.22,.09,.44,.14,.66,.14,.28,0,.53-.06,.75-.19,.22-.13,.4-.3,.53-.52,.13-.22,.2-.47,.2-.74s-.07-.54-.21-.76c-.14-.22-.32-.4-.54-.53-.22-.13-.46-.19-.72-.19v-.91c.45,0,.85,.1,1.2,.31,.35,.21,.62,.49,.82,.86,.2,.36,.3,.78,.3,1.24s-.1,.85-.31,1.2c-.21,.35-.48,.63-.84,.84-.35,.21-.75,.31-1.19,.31-.32,0-.59-.04-.82-.12-.23-.08-.44-.2-.64-.36-.2-.16-.4-.37-.62-.61l-2.38-2.66,.3-.12v3.87h-.85v-4.79Z"/>
      <path d="M193.73,199.79h.8s2.88,3.2,2.88,3.2c.24,.27,.47,.45,.68,.54,.22,.09,.44,.14,.66,.14,.28,0,.53-.06,.75-.19,.22-.13,.4-.3,.53-.52,.13-.22,.2-.47,.2-.74s-.07-.54-.21-.76c-.14-.22-.32-.4-.54-.53-.22-.13-.46-.19-.72-.19v-.91c.45,0,.85,.1,1.2,.31,.35,.21,.62,.49,.82,.86,.2,.36,.3,.78,.3,1.24s-.1,.85-.31,1.2c-.21,.35-.48,.63-.84,.84-.35,.21-.75,.31-1.19,.31-.32,0-.59-.04-.82-.12-.23-.08-.44-.2-.64-.36-.2-.16-.4-.37-.62-.61l-2.38-2.66,.3-.12v3.87h-.85v-4.79Z"/>
      <path d="M193.58,209c0-.47,.11-.88,.32-1.25,.21-.37,.5-.65,.87-.87,.36-.21,.78-.32,1.25-.32h2.64c.47,0,.88,.11,1.25,.32,.37,.21,.65,.5,.87,.87,.21,.36,.32,.78,.32,1.25s-.11,.88-.32,1.25c-.21,.37-.5,.66-.87,.87-.36,.21-.78,.31-1.25,.31h-2.64c-.47,0-.88-.1-1.25-.31-.37-.21-.65-.5-.87-.87-.21-.37-.32-.78-.32-1.25Zm.86,0c0,.28,.07,.54,.21,.77,.14,.23,.32,.41,.55,.55s.49,.21,.77,.21h2.75c.28,0,.54-.07,.77-.21,.23-.14,.42-.32,.55-.55,.14-.23,.21-.49,.21-.77s-.07-.54-.21-.77-.32-.42-.55-.55c-.23-.14-.49-.2-.77-.2h-2.75c-.28,0-.54,.07-.77,.2s-.42,.32-.55,.55-.21,.49-.21,.77Z"/>
      <path d="M193.59,215.6c0-.36,.07-.69,.2-1,.13-.31,.32-.57,.56-.79s.53-.38,.86-.49l.25,.85c-.33,.11-.59,.29-.76,.55-.17,.26-.26,.54-.26,.87,0,.29,.07,.55,.2,.76s.3,.38,.53,.5,.48,.18,.78,.18c.44,0,.8-.13,1.08-.4,.28-.27,.42-.62,.42-1.05,0-.12-.02-.25-.05-.38s-.08-.25-.14-.37l.71-.43,2.42,2.67-.3,.11v-3.58h.85v4.25h-.85l-2.18-2.27h.32c.03,.47-.05,.88-.24,1.24-.19,.36-.46,.63-.81,.83s-.76,.3-1.21,.3-.87-.1-1.22-.31-.63-.49-.83-.84-.3-.75-.3-1.2Z"/>
    </g>
    <g>
      <path d="M219.77,179.56h.8s2.88,3.2,2.88,3.2c.24,.27,.47,.45,.68,.54s.44,.14,.66,.14c.28,0,.53-.06,.75-.19,.22-.13,.4-.3,.53-.52,.13-.22,.2-.47,.2-.74s-.07-.54-.21-.76c-.14-.22-.32-.4-.54-.53-.22-.13-.46-.19-.73-.19v-.91c.45,0,.85,.1,1.2,.31,.35,.21,.62,.49,.82,.86,.2,.36,.3,.78,.3,1.24s-.1,.85-.31,1.2c-.21,.35-.48,.63-.84,.84s-.75,.31-1.19,.31c-.32,0-.59-.04-.82-.12-.23-.08-.44-.2-.64-.36-.2-.16-.4-.37-.62-.61l-2.38-2.66,.3-.12v3.87h-.85v-4.79Z"/>
      <path d="M219.61,188.77c0-.47,.11-.88,.32-1.25,.21-.37,.5-.65,.87-.87s.78-.32,1.25-.32h2.64c.47,0,.88,.11,1.25,.32s.65,.5,.87,.87c.21,.36,.32,.78,.32,1.25s-.11,.88-.32,1.25c-.21,.37-.5,.66-.87,.87s-.78,.31-1.25,.31h-2.64c-.47,0-.88-.1-1.25-.31s-.65-.5-.87-.87c-.21-.37-.32-.78-.32-1.25Zm.85,0c0,.28,.07,.54,.21,.77,.14,.23,.32,.41,.55,.55,.23,.14,.49,.21,.77,.21h2.75c.28,0,.54-.07,.77-.21s.42-.32,.55-.55c.14-.23,.21-.49,.21-.77s-.07-.54-.21-.77-.32-.42-.55-.55-.49-.2-.77-.2h-2.75c-.28,0-.54,.07-.77,.2-.23,.14-.42,.32-.55,.55s-.21,.49-.21,.77Z"/>
      <path d="M219.77,193.2h.8s2.88,3.2,2.88,3.2c.24,.27,.47,.45,.68,.54s.44,.14,.66,.14c.28,0,.53-.06,.75-.19,.22-.13,.4-.3,.53-.52,.13-.22,.2-.47,.2-.74s-.07-.54-.21-.76c-.14-.22-.32-.4-.54-.53-.22-.13-.46-.19-.73-.19v-.91c.45,0,.85,.1,1.2,.31,.35,.21,.62,.49,.82,.86,.2,.36,.3,.78,.3,1.24s-.1,.85-.31,1.2c-.21,.35-.48,.63-.84,.84s-.75,.31-1.19,.31c-.32,0-.59-.04-.82-.12-.23-.08-.44-.2-.64-.36-.2-.16-.4-.37-.62-.61l-2.38-2.66,.3-.12v3.87h-.85v-4.79Z"/>
      <path d="M219.77,199.79h.8s2.88,3.2,2.88,3.2c.24,.27,.47,.45,.68,.54s.44,.14,.66,.14c.28,0,.53-.06,.75-.19,.22-.13,.4-.3,.53-.52,.13-.22,.2-.47,.2-.74s-.07-.54-.21-.76c-.14-.22-.32-.4-.54-.53-.22-.13-.46-.19-.73-.19v-.91c.45,0,.85,.1,1.2,.31,.35,.21,.62,.49,.82,.86,.2,.36,.3,.78,.3,1.24s-.1,.85-.31,1.2c-.21,.35-.48,.63-.84,.84s-.75,.31-1.19,.31c-.32,0-.59-.04-.82-.12-.23-.08-.44-.2-.64-.36-.2-.16-.4-.37-.62-.61l-2.38-2.66,.3-.12v3.87h-.85v-4.79Z"/>
      <path d="M219.61,209c0-.47,.11-.88,.32-1.25,.21-.37,.5-.65,.87-.87s.78-.32,1.25-.32h2.64c.47,0,.88,.11,1.25,.32s.65,.5,.87,.87c.21,.36,.32,.78,.32,1.25s-.11,.88-.32,1.25c-.21,.37-.5,.66-.87,.87s-.78,.31-1.25,.31h-2.64c-.47,0-.88-.1-1.25-.31s-.65-.5-.87-.87c-.21-.37-.32-.78-.32-1.25Zm.85,0c0,.28,.07,.54,.21,.77,.14,.23,.32,.41,.55,.55,.23,.14,.49,.21,.77,.21h2.75c.28,0,.54-.07,.77-.21s.42-.32,.55-.55c.14-.23,.21-.49,.21-.77s-.07-.54-.21-.77-.32-.42-.55-.55-.49-.2-.77-.2h-2.75c-.28,0-.54,.07-.77,.2-.23,.14-.42,.32-.55,.55s-.21,.49-.21,.77Z"/>
      <path d="M219.61,215.76c0-.37,.08-.71,.23-1.03,.15-.32,.36-.59,.63-.82,.27-.22,.58-.39,.93-.48l.23,.86c-.24,.06-.44,.17-.61,.32s-.3,.33-.4,.54c-.09,.21-.14,.42-.14,.64,0,.29,.07,.55,.21,.79,.14,.24,.33,.42,.57,.56,.24,.14,.49,.21,.77,.21s.55-.07,.79-.21c.23-.14,.42-.33,.56-.57,.14-.24,.21-.49,.21-.77,0-.32-.07-.59-.2-.81-.13-.23-.29-.4-.48-.53l.3-.79,3.77,.22v3.86h-.85v-3.43l.37,.39-3.01-.18,.25-.2c.21,.2,.38,.44,.5,.72,.12,.28,.17,.56,.17,.85,0,.45-.1,.85-.31,1.2-.21,.35-.49,.63-.85,.84-.36,.21-.76,.31-1.21,.31s-.85-.11-1.21-.34-.66-.53-.88-.9-.33-.79-.33-1.23Z"/>
    </g>
    <g>
      <path d="M245.8,179.56h.8s2.88,3.2,2.88,3.2c.24,.27,.47,.45,.68,.54,.22,.09,.44,.14,.66,.14,.28,0,.53-.06,.75-.19,.22-.13,.4-.3,.53-.52,.13-.22,.2-.47,.2-.74s-.07-.54-.21-.76c-.14-.22-.32-.4-.54-.53-.22-.13-.46-.19-.72-.19v-.91c.45,0,.85,.1,1.2,.31,.35,.21,.62,.49,.82,.86,.2,.36,.3,.78,.3,1.24s-.1,.85-.31,1.2c-.21,.35-.48,.63-.84,.84-.35,.21-.75,.31-1.19,.31-.32,0-.59-.04-.82-.12-.23-.08-.44-.2-.64-.36-.2-.16-.4-.37-.62-.61l-2.38-2.66,.3-.12v3.87h-.85v-4.79Z"/>
      <path d="M245.65,188.77c0-.47,.11-.88,.32-1.25,.21-.37,.5-.65,.87-.87,.36-.21,.78-.32,1.25-.32h2.64c.47,0,.88,.11,1.25,.32,.37,.21,.65,.5,.87,.87,.21,.36,.32,.78,.32,1.25s-.11,.88-.32,1.25c-.21,.37-.5,.66-.87,.87-.36,.21-.78,.31-1.25,.31h-2.64c-.47,0-.88-.1-1.25-.31-.37-.21-.65-.5-.87-.87-.21-.37-.32-.78-.32-1.25Zm.86,0c0,.28,.07,.54,.21,.77,.14,.23,.32,.41,.55,.55s.49,.21,.77,.21h2.75c.28,0,.54-.07,.77-.21,.23-.14,.42-.32,.55-.55,.14-.23,.21-.49,.21-.77s-.07-.54-.21-.77-.32-.42-.55-.55c-.23-.14-.49-.2-.77-.2h-2.75c-.28,0-.54,.07-.77,.2s-.42,.32-.55,.55-.21,.49-.21,.77Z"/>
      <path d="M245.8,193.2h.8s2.88,3.2,2.88,3.2c.24,.27,.47,.45,.68,.54,.22,.09,.44,.14,.66,.14,.28,0,.53-.06,.75-.19,.22-.13,.4-.3,.53-.52,.13-.22,.2-.47,.2-.74s-.07-.54-.21-.76c-.14-.22-.32-.4-.54-.53-.22-.13-.46-.19-.72-.19v-.91c.45,0,.85,.1,1.2,.31,.35,.21,.62,.49,.82,.86,.2,.36,.3,.78,.3,1.24s-.1,.85-.31,1.2c-.21,.35-.48,.63-.84,.84-.35,.21-.75,.31-1.19,.31-.32,0-.59-.04-.82-.12-.23-.08-.44-.2-.64-.36-.2-.16-.4-.37-.62-.61l-2.38-2.66,.3-.12v3.87h-.85v-4.79Z"/>
      <path d="M245.8,199.79h.8s2.88,3.2,2.88,3.2c.24,.27,.47,.45,.68,.54,.22,.09,.44,.14,.66,.14,.28,0,.53-.06,.75-.19,.22-.13,.4-.3,.53-.52,.13-.22,.2-.47,.2-.74s-.07-.54-.21-.76c-.14-.22-.32-.4-.54-.53-.22-.13-.46-.19-.72-.19v-.91c.45,0,.85,.1,1.2,.31,.35,.21,.62,.49,.82,.86,.2,.36,.3,.78,.3,1.24s-.1,.85-.31,1.2c-.21,.35-.48,.63-.84,.84-.35,.21-.75,.31-1.19,.31-.32,0-.59-.04-.82-.12-.23-.08-.44-.2-.64-.36-.2-.16-.4-.37-.62-.61l-2.38-2.66,.3-.12v3.87h-.85v-4.79Z"/>
      <path d="M245.65,209c0-.47,.11-.88,.32-1.25,.21-.37,.5-.65,.87-.87,.36-.21,.78-.32,1.25-.32h2.64c.47,0,.88,.11,1.25,.32,.37,.21,.65,.5,.87,.87,.21,.36,.32,.78,.32,1.25s-.11,.88-.32,1.25c-.21,.37-.5,.66-.87,.87-.36,.21-.78,.31-1.25,.31h-2.64c-.47,0-.88-.1-1.25-.31-.37-.21-.65-.5-.87-.87-.21-.37-.32-.78-.32-1.25Zm.86,0c0,.28,.07,.54,.21,.77,.14,.23,.32,.41,.55,.55s.49,.21,.77,.21h2.75c.28,0,.54-.07,.77-.21,.23-.14,.42-.32,.55-.55,.14-.23,.21-.49,.21-.77s-.07-.54-.21-.77-.32-.42-.55-.55c-.23-.14-.49-.2-.77-.2h-2.75c-.28,0-.54,.07-.77,.2s-.42,.32-.55,.55-.21,.49-.21,.77Z"/>
      <path d="M245.8,214.01l6.34,2.59v-3.27h.85v4.22h-.85l-6.34-2.58v-.96Z"/>
    </g>
    <g>
      <path d="M271.84,179.56h.8s2.88,3.2,2.88,3.2c.24,.27,.47,.45,.68,.54,.22,.09,.44,.14,.66,.14,.28,0,.53-.06,.75-.19,.22-.13,.4-.3,.53-.52,.13-.22,.2-.47,.2-.74s-.07-.54-.21-.76c-.14-.22-.32-.4-.54-.53-.22-.13-.46-.19-.72-.19v-.91c.45,0,.85,.1,1.2,.31,.35,.21,.62,.49,.82,.86,.2,.36,.3,.78,.3,1.24s-.1,.85-.31,1.2c-.21,.35-.48,.63-.84,.84-.35,.21-.75,.31-1.19,.31-.32,0-.59-.04-.82-.12-.23-.08-.44-.2-.64-.36-.2-.16-.4-.37-.62-.61l-2.38-2.66,.3-.12v3.87h-.85v-4.79Z"/>
      <path d="M271.69,188.77c0-.47,.11-.88,.32-1.25,.21-.37,.5-.65,.87-.87,.36-.21,.78-.32,1.25-.32h2.64c.47,0,.88,.11,1.25,.32,.37,.21,.65,.5,.87,.87,.21,.36,.32,.78,.32,1.25s-.11,.88-.32,1.25c-.21,.37-.5,.66-.87,.87-.36,.21-.78,.31-1.25,.31h-2.64c-.47,0-.88-.1-1.25-.31-.37-.21-.65-.5-.87-.87-.21-.37-.32-.78-.32-1.25Zm.86,0c0,.28,.07,.54,.21,.77,.14,.23,.32,.41,.55,.55s.49,.21,.77,.21h2.75c.28,0,.54-.07,.77-.21,.23-.14,.42-.32,.55-.55,.14-.23,.21-.49,.21-.77s-.07-.54-.21-.77-.32-.42-.55-.55c-.23-.14-.49-.2-.77-.2h-2.75c-.28,0-.54,.07-.77,.2s-.42,.32-.55,.55-.21,.49-.21,.77Z"/>
      <path d="M271.84,193.2h.8s2.88,3.2,2.88,3.2c.24,.27,.47,.45,.68,.54,.22,.09,.44,.14,.66,.14,.28,0,.53-.06,.75-.19,.22-.13,.4-.3,.53-.52,.13-.22,.2-.47,.2-.74s-.07-.54-.21-.76c-.14-.22-.32-.4-.54-.53-.22-.13-.46-.19-.72-.19v-.91c.45,0,.85,.1,1.2,.31,.35,.21,.62,.49,.82,.86,.2,.36,.3,.78,.3,1.24s-.1,.85-.31,1.2c-.21,.35-.48,.63-.84,.84-.35,.21-.75,.31-1.19,.31-.32,0-.59-.04-.82-.12-.23-.08-.44-.2-.64-.36-.2-.16-.4-.37-.62-.61l-2.38-2.66,.3-.12v3.87h-.85v-4.79Z"/>
      <path d="M271.84,199.79h.8s2.88,3.2,2.88,3.2c.24,.27,.47,.45,.68,.54,.22,.09,.44,.14,.66,.14,.28,0,.53-.06,.75-.19,.22-.13,.4-.3,.53-.52,.13-.22,.2-.47,.2-.74s-.07-.54-.21-.76c-.14-.22-.32-.4-.54-.53-.22-.13-.46-.19-.72-.19v-.91c.45,0,.85,.1,1.2,.31,.35,.21,.62,.49,.82,.86,.2,.36,.3,.78,.3,1.24s-.1,.85-.31,1.2c-.21,.35-.48,.63-.84,.84-.35,.21-.75,.31-1.19,.31-.32,0-.59-.04-.82-.12-.23-.08-.44-.2-.64-.36-.2-.16-.4-.37-.62-.61l-2.38-2.66,.3-.12v3.87h-.85v-4.79Z"/>
      <path d="M271.69,209c0-.47,.11-.88,.32-1.25,.21-.37,.5-.65,.87-.87,.36-.21,.78-.32,1.25-.32h2.64c.47,0,.88,.11,1.25,.32,.37,.21,.65,.5,.87,.87,.21,.36,.32,.78,.32,1.25s-.11,.88-.32,1.25c-.21,.37-.5,.66-.87,.87-.36,.21-.78,.31-1.25,.31h-2.64c-.47,0-.88-.1-1.25-.31-.37-.21-.65-.5-.87-.87-.21-.37-.32-.78-.32-1.25Zm.86,0c0,.28,.07,.54,.21,.77,.14,.23,.32,.41,.55,.55s.49,.21,.77,.21h2.75c.28,0,.54-.07,.77-.21,.23-.14,.42-.32,.55-.55,.14-.23,.21-.49,.21-.77s-.07-.54-.21-.77-.32-.42-.55-.55c-.23-.14-.49-.2-.77-.2h-2.75c-.28,0-.54,.07-.77,.2s-.42,.32-.55,.55-.21,.49-.21,.77Z"/>
      <path d="M279.18,215.98c0,.46-.11,.87-.33,1.24-.22,.37-.52,.67-.9,.88-.38,.22-.81,.33-1.29,.33h-2.4c-.5,0-.95-.11-1.33-.33-.39-.22-.69-.52-.91-.9-.22-.38-.33-.82-.33-1.31,0-.4,.08-.76,.24-1.1s.39-.63,.7-.87l.59,.67c-.21,.15-.37,.33-.5,.57-.12,.23-.19,.48-.19,.74,0,.32,.08,.6,.23,.84,.15,.25,.35,.44,.6,.58,.25,.14,.51,.21,.8,.21h1.45l-.22,.19c-.3-.21-.54-.47-.72-.8-.18-.33-.27-.68-.27-1.05,0-.45,.1-.85,.32-1.2,.21-.35,.49-.63,.85-.84,.36-.21,.76-.31,1.21-.31s.85,.11,1.21,.33c.36,.22,.65,.52,.87,.89,.22,.37,.33,.78,.33,1.23Zm-.86,0c0-.29-.07-.55-.21-.78s-.33-.42-.56-.56c-.23-.14-.5-.21-.78-.21s-.55,.07-.78,.21c-.24,.14-.42,.33-.56,.56-.14,.24-.21,.5-.21,.78s.07,.55,.21,.78c.14,.24,.33,.42,.56,.56,.23,.14,.5,.21,.78,.21s.54-.07,.78-.21,.42-.33,.56-.56c.14-.24,.21-.5,.21-.78Z"/>
    </g>
    <path d="M34.15,173.24c-.47,0-.88-.11-1.25-.32-.36-.21-.65-.5-.86-.86-.21-.37-.32-.78-.32-1.25v-2.64c0-.47,.11-.88,.32-1.25,.21-.36,.5-.65,.86-.86,.37-.21,.78-.32,1.25-.32s.88,.11,1.25,.32,.66,.5,.87,.86c.21,.37,.31,.78,.31,1.25v2.64c0,.47-.1,.88-.31,1.25-.21,.36-.5,.65-.87,.86-.37,.21-.78,.32-1.25,.32Zm0-.86c.28,0,.54-.07,.77-.21s.41-.32,.55-.55c.14-.23,.2-.49,.2-.77v-2.74c0-.28-.07-.54-.2-.77-.14-.23-.32-.42-.55-.55s-.49-.21-.77-.21-.54,.07-.77,.21c-.23,.14-.42,.32-.55,.55-.14,.23-.21,.49-.21,.77v2.74c0,.28,.07,.54,.21,.77,.14,.23,.32,.42,.55,.55,.23,.14,.49,.21,.77,.21Z"/>
    <g>
      <g>
        <path d="M39.53,9.14c-.64,.59-1.62,1.19-2.43,1.56-.16-.16-.49-.48-.7-.61,.83-.32,1.75-.79,2.28-1.28l.85,.33Zm5.08-.16c-.14-.15-.33-.31-.55-.49-.91,.03-1.84,.06-2.74,.08v2.19h-.92v-2.17c-1.44,.04-2.76,.06-3.78,.08l-.03-.77c.56,0,1.23,0,1.96,0,.2-.1,.41-.21,.63-.32-.51-.39-1.25-.84-1.87-1.15l.66-.5c.21,.1,.43,.22,.66,.34,.33-.24,.68-.52,.98-.79h-2.39V1.92h7.36v3.56h-3.78l.04,.02c-.49,.41-1.06,.83-1.56,1.15,.26,.16,.51,.32,.71,.47,.86-.5,1.71-1.06,2.31-1.53l.8,.45c-.89,.62-2.03,1.3-3.07,1.84,.99,0,2.06-.03,3.12-.05-.31-.21-.63-.4-.93-.57l.68-.44c.84,.45,1.9,1.16,2.43,1.68l-.72,.49Zm-6.51-5.64h2.3v-.7h-2.3v.7Zm0,1.41h2.3v-.73h-2.3v.73Zm5.57-2.11h-2.37v.7h2.37v-.7Zm0,1.38h-2.37v.73h2.37v-.73Zm-.87,4.74c.79,.38,1.85,.97,2.41,1.39l-.71,.54c-.51-.42-1.55-1.04-2.38-1.45l.68-.48Z"/>
        <path d="M51.04,3.99h-3.99v-.74h3.99v.74Zm-.41,6.24h-2.31v.42h-.82v-3.36h3.13v2.94Zm-3.11-5.62h3.14v.72h-3.14v-.72Zm0,1.33h3.14v.73h-3.14v-.73Zm3.15-3.28h-3.09v-.73h3.09v.73Zm-2.35,5.38v1.44h1.48v-1.44h-1.48Zm8.02-2.16h-2.16v4.89h-.94V5.87h-2.23v-.92h2.23V1.63h.94v3.33h2.16v.92Z"/>
        <path d="M59.51,5.35c0,1.56-.15,3.88-1.02,5.41-.17-.15-.58-.43-.79-.53,.81-1.42,.88-3.45,.88-4.88V2.82h3.6V1.6h.97v1.22h3.71v.9h-7.35v1.64Zm-.08,4.14c.47-.77,.71-1.95,.81-3.02l.85,.19c-.12,1.09-.35,2.41-.83,3.2l-.83-.37Zm4.61,.25c.36,0,.41-.25,.46-1.66,.19,.15,.58,.31,.82,.38-.09,1.66-.33,2.12-1.21,2.12h-1.3c-.94,0-1.18-.3-1.18-1.25v-3.67h.91v3.67c0,.35,.07,.41,.41,.41h1.09Zm.01-3.69c-.48-.45-1.5-1.12-2.31-1.54l.63-.61c.79,.38,1.82,1,2.35,1.46l-.67,.69Zm1.61,.18c.64,1.02,1.25,2.35,1.41,3.25l-.91,.38c-.14-.88-.7-2.25-1.32-3.3l.82-.33Z"/>
        <path d="M75.87,7.49c.6,.45,1.44,.82,2.24,1.03-.2,.16-.46,.51-.6,.73-.45-.14-.91-.35-1.33-.61-.1,1.11-.22,1.6-.43,1.82-.19,.17-.38,.23-.67,.25-.23,.02-.69,.02-1.18,0-.02-.23-.11-.54-.23-.75,.43,.04,.86,.05,1.03,.05,.16,0,.24-.02,.32-.08,.1-.1,.18-.37,.24-.95h-1.99c-.43,.89-1.26,1.48-3.01,1.84-.08-.22-.3-.55-.46-.72,1.35-.23,2.06-.59,2.46-1.12h-1.81v-.35c-.35,.19-.75,.36-1.18,.52-.1-.21-.36-.52-.53-.66,.84-.27,1.53-.61,2.05-1h-1.8v-.73h2.59c.13-.16,.23-.31,.32-.48h-1.78V3.53h6.62v2.76h-3.85c-.09,.17-.17,.32-.28,.48h5.21v.73h-1.95Zm-4.59-4.55h-2.16v-.74h2.16v-.61h.9v.61h2.4v-.61h.92v.61h2.18v.74h-2.18v.44h-.92v-.44h-2.4v.44h-.9v-.44Zm-.27,1.69h4.8v-.53h-4.8v.53Zm0,1.08h4.8v-.54h-4.8v.54Zm4.65,2.58c-.34-.24-.63-.52-.88-.8h-2.78c-.28,.28-.6,.56-.97,.8h1.55c.06-.2,.11-.41,.14-.63h.9c-.03,.22-.07,.43-.12,.63h2.16Z"/>
        <path d="M84.39,9.66h3.78v.81h-8.42v-.81h3.67v-2.27h-3.19v-.8h3.19v-1.19h-1.96v-.52c-.5,.36-1.02,.69-1.56,.98-.11-.21-.38-.56-.58-.75,1.7-.84,3.33-2.31,4.08-3.54h.95c1.06,1.46,2.73,2.75,4.28,3.42-.22,.24-.44,.56-.6,.83-.53-.27-1.07-.61-1.6-.99v.57h-2.03v1.19h3.26v.8h-3.26v2.27Zm-2.68-2.12c.39,.53,.79,1.24,.93,1.72l-.81,.36c-.12-.48-.5-1.23-.88-1.78l.76-.3Zm4.37-2.96c-.87-.66-1.65-1.4-2.17-2.1-.48,.68-1.21,1.42-2.07,2.1h4.24Zm-1.03,4.73c.34-.47,.77-1.23,1.01-1.78l.89,.33c-.39,.63-.84,1.31-1.21,1.76l-.69-.31Z"/>
        <path d="M94.14,10.1c.69-.26,1.45-.73,1.82-1.13l.77,.47c-.52,.51-1.36,1.03-2.08,1.31-.15-.17-.42-.44-.61-.61h-2.17v.45h-.79v-2.67c-.12,.05-.24,.11-.36,.16-.1-.2-.32-.5-.48-.67,.71-.26,1.41-.68,1.99-1.21-.28-.21-.56-.41-.82-.59-.18,.17-.36,.33-.55,.47-.12-.15-.43-.42-.6-.55,.77-.5,1.45-1.29,1.82-2.16l.77,.2c-.08,.18-.17,.36-.27,.53h1.13l.14-.04,.53,.24c-.23,.67-.57,1.27-.98,1.78,.56,.41,1.08,.81,1.42,1.12l-.54,.64-.14-.13v2.39Zm-2.85-6.14h-.76v-1.51h1.65v-.84h.87v.84h1.66v1.51h-.79v-.76h-2.63v.76Zm2.6,3.53c-.29-.25-.65-.53-1.03-.82-.31,.31-.66,.58-1.03,.82h2.06Zm-.56,.72h-1.46v1.21h1.46v-1.21Zm-1.17-3.46c-.08,.11-.16,.21-.24,.31,.27,.18,.56,.37,.85,.57,.22-.27,.42-.57,.57-.88h-1.18Zm4.26-1.1c.06-.26,.12-.56,.17-.83h-1.8v-.8h4.62v.8h-1.83c-.09,.28-.19,.57-.28,.83h1.87v5.19h-4.04V3.66h1.29Zm1.87,.71h-2.32v.81h2.32v-.81Zm0,1.47h-2.32v.82h2.32v-.82Zm0,1.48h-2.32v.83h2.32v-.83Zm-.23,1.71c.56,.36,1.29,.9,1.66,1.27l-.72,.49c-.35-.36-1.06-.94-1.62-1.33l.68-.43Z"/>
        <path d="M107.58,6.18c0-2.03,.84-3.63,1.98-4.78l.76,.36c-1.09,1.14-1.84,2.58-1.84,4.42s.75,3.28,1.84,4.42l-.76,.36c-1.14-1.15-1.98-2.75-1.98-4.78Z"/>
        <path d="M117.04,3.03c-.13,.45-.24,.93-.36,1.33h3.29v6.43h-.99v-.63h-4.73v.63h-.94V4.36h2.41c.09-.4,.18-.89,.23-1.33h-3.71v-.91h8.67v.91h-3.87Zm1.94,2.2h-4.73v1.59h4.73v-1.59Zm0,4.07v-1.63h-4.73v1.63h4.73Z"/>
        <path d="M126.53,3.23c-.02,.61-.04,1.23-.1,1.85h4.44s0,.3,0,.43c-.17,3.14-.34,4.34-.73,4.77-.25,.29-.52,.37-.94,.41-.38,.04-1.06,.03-1.74-.01-.02-.27-.15-.65-.32-.91,.71,.06,1.42,.06,1.69,.06,.23,.01,.35,0,.47-.12,.29-.25,.44-1.3,.57-3.73h-3.55c-.29,1.92-1.01,3.71-2.93,4.81-.13-.25-.43-.56-.67-.75,2.67-1.44,2.78-4.32,2.86-6.81h-2.53v-.91h8.69v.91h-5.2Z"/>
        <path d="M136.37,6.18c0,2.03-.84,3.63-1.98,4.78l-.76-.36c1.09-1.14,1.84-2.58,1.84-4.42s-.75-3.28-1.84-4.42l.76-.36c1.14,1.15,1.98,2.75,1.98,4.78Z"/>
      </g>
      <rect class="cls-2" x="16.08" width="11" height="11"/>
      <g>
        <g>
          <path d="M182.2,9.14c-.64,.59-1.62,1.19-2.43,1.56-.16-.16-.49-.48-.7-.61,.83-.32,1.75-.79,2.28-1.28l.85,.33Zm5.08-.16c-.14-.15-.33-.31-.55-.49-.91,.03-1.84,.06-2.74,.08v2.19h-.92v-2.17c-1.44,.04-2.76,.06-3.78,.08l-.03-.77c.56,0,1.23,0,1.96,0,.2-.1,.41-.21,.63-.32-.51-.39-1.25-.84-1.87-1.15l.66-.5c.21,.1,.43,.22,.66,.34,.33-.24,.68-.52,.98-.79h-2.39V1.92h7.36v3.56h-3.78l.04,.02c-.49,.41-1.06,.83-1.56,1.15,.26,.16,.51,.32,.71,.47,.86-.5,1.71-1.06,2.31-1.53l.8,.45c-.89,.62-2.03,1.3-3.07,1.84,.99,0,2.06-.03,3.12-.05-.31-.21-.63-.4-.93-.57l.68-.44c.84,.45,1.9,1.16,2.43,1.68l-.72,.49Zm-6.51-5.64h2.3v-.7h-2.3v.7Zm0,1.41h2.3v-.73h-2.3v.73Zm5.57-2.11h-2.37v.7h2.37v-.7Zm0,1.38h-2.37v.73h2.37v-.73Zm-.87,4.74c.79,.38,1.85,.97,2.41,1.39l-.71,.54c-.51-.42-1.55-1.04-2.38-1.45l.68-.48Z"/>
          <path d="M193.71,3.99h-3.99v-.74h3.99v.74Zm-.41,6.24h-2.31v.42h-.82v-3.36h3.13v2.94Zm-3.11-5.62h3.14v.72h-3.14v-.72Zm0,1.33h3.14v.73h-3.14v-.73Zm3.15-3.28h-3.09v-.73h3.09v.73Zm-2.35,5.38v1.44h1.48v-1.44h-1.48Zm8.02-2.16h-2.16v4.89h-.94V5.87h-2.23v-.92h2.23V1.63h.94v3.33h2.16v.92Z"/>
          <path d="M203.86,3.99h-3.24v-.74h3.24v.74Zm5.66,5.68c0,.49-.1,.78-.4,.93-.29,.15-.79,.17-1.52,.17-.03-.24-.15-.67-.26-.92,.49,.03,.98,.02,1.12,.01,.15,0,.2-.04,.2-.19V2.79h-3.51v2.82c0,1.55-.11,3.78-.91,5.22-.15-.15-.53-.41-.73-.51l.06-.11h-1.82v.44h-.74v-3.36h2.58v2.88c.66-1.33,.72-3.16,.72-4.56V1.99h5.21v7.68Zm-5.92-4.34h-2.57v-.72h2.57v.72Zm-2.57,.61h2.57v.73h-2.57v-.73Zm2.55-3.28h-2.49v-.73h2.49v.73Zm-.74,5.38h-1.09v1.44h1.09v-1.44Zm3.66-2.8v-.83h-.91v-.7h.91v-.77h.74v.77h.95v.7h-.95v.83h1.06v.7h-2.79v-.7h.99Zm-.19,3.94v.37h-.68v-2.96h2.51v2.59h-1.83Zm0-1.91v1.22h1.14v-1.22h-1.14Z"/>
          <path d="M213.73,8.67c.43,.69,1.22,1,2.33,1.05,1.13,.05,3.45,.02,4.72-.07-.11,.21-.25,.64-.3,.91-1.15,.05-3.27,.07-4.43,.03-1.24-.05-2.1-.38-2.71-1.15-.42,.41-.86,.81-1.35,1.24l-.46-.92c.4-.27,.89-.65,1.31-1.02v-2.41h-1.2v-.86h2.09v3.2Zm-.48-4.64c-.28-.5-.95-1.19-1.54-1.67l.71-.52c.58,.45,1.28,1.11,1.58,1.6l-.75,.59Zm2.47,.24h-1.58v-.69h2.75v-.64h-2.09v-.67h2.09v-.68h.91v.68h2.16v.67h-2.16v.64h2.82v.69h-1.62l.37,.09c-.18,.33-.35,.64-.5,.88h1.62v.68h-2.69v.57h2.31v.67h-2.31v.61h2.73v.7h-2.73v.82h-.91v-.82h-2.63v-.7h2.63v-.61h-2.17v-.67h2.17v-.57h-2.56v-.68h1.41c-.07-.26-.22-.61-.38-.89l.36-.08Zm2.32,.89c.13-.26,.28-.62,.38-.89h-2.2c.18,.28,.34,.63,.39,.89l-.35,.08h2.07l-.29-.08Z"/>
          <path d="M227.54,9.66h3.78v.81h-8.42v-.81h3.67v-2.27h-3.19v-.8h3.19v-1.19h-1.96v-.52c-.5,.36-1.02,.69-1.56,.98-.11-.21-.38-.56-.58-.75,1.7-.84,3.33-2.31,4.08-3.54h.95c1.06,1.46,2.73,2.75,4.28,3.42-.22,.24-.44,.56-.6,.83-.53-.27-1.07-.61-1.6-.99v.57h-2.03v1.19h3.26v.8h-3.26v2.27Zm-2.68-2.12c.39,.53,.79,1.24,.93,1.72l-.81,.36c-.12-.48-.5-1.23-.88-1.78l.76-.3Zm4.37-2.96c-.87-.66-1.65-1.4-2.17-2.1-.48,.68-1.21,1.42-2.07,2.1h4.24Zm-1.03,4.73c.34-.47,.77-1.23,1.01-1.78l.89,.33c-.39,.63-.84,1.31-1.21,1.76l-.69-.31Z"/>
          <path d="M237.29,10.1c.69-.26,1.45-.73,1.82-1.13l.77,.47c-.52,.51-1.36,1.03-2.08,1.31-.15-.17-.42-.44-.61-.61h-2.17v.45h-.79v-2.67c-.12,.05-.24,.11-.36,.16-.1-.2-.32-.5-.48-.67,.71-.26,1.41-.68,1.99-1.21-.28-.21-.56-.41-.82-.59-.18,.17-.36,.33-.55,.47-.12-.15-.43-.42-.6-.55,.77-.5,1.45-1.29,1.82-2.16l.77,.2c-.08,.18-.17,.36-.27,.53h1.13l.14-.04,.53,.24c-.23,.67-.57,1.27-.98,1.78,.56,.41,1.08,.81,1.42,1.12l-.54,.64-.14-.13v2.39Zm-2.85-6.14h-.76v-1.51h1.65v-.84h.87v.84h1.66v1.51h-.79v-.76h-2.63v.76Zm2.6,3.53c-.29-.25-.65-.53-1.03-.82-.31,.31-.66,.58-1.03,.82h2.06Zm-.56,.72h-1.46v1.21h1.46v-1.21Zm-1.17-3.46c-.08,.11-.16,.21-.24,.31,.27,.18,.56,.37,.85,.57,.22-.27,.42-.57,.57-.88h-1.18Zm4.26-1.1c.06-.26,.12-.56,.17-.83h-1.8v-.8h4.62v.8h-1.83c-.09,.28-.19,.57-.28,.83h1.87v5.19h-4.04V3.66h1.29Zm1.87,.71h-2.32v.81h2.32v-.81Zm0,1.47h-2.32v.82h2.32v-.82Zm0,1.48h-2.32v.83h2.32v-.83Zm-.23,1.71c.56,.36,1.29,.9,1.66,1.27l-.72,.49c-.35-.36-1.06-.94-1.62-1.33l.68-.43Z"/>
          <path d="M250.73,6.18c0-2.03,.84-3.63,1.98-4.78l.76,.36c-1.09,1.14-1.84,2.58-1.84,4.42s.75,3.28,1.84,4.42l-.76,.36c-1.14-1.15-1.98-2.75-1.98-4.78Z"/>
          <path d="M260.19,3.03c-.13,.45-.24,.93-.36,1.33h3.29v6.43h-.99v-.63h-4.73v.63h-.94V4.36h2.41c.09-.4,.18-.89,.23-1.33h-3.71v-.91h8.66v.91h-3.87Zm1.94,2.2h-4.73v1.59h4.73v-1.59Zm0,4.07v-1.63h-4.73v1.63h4.73Z"/>
          <path d="M269.68,3.23c-.02,.61-.04,1.23-.1,1.85h4.44s0,.3,0,.43c-.17,3.14-.34,4.34-.73,4.77-.25,.29-.52,.37-.94,.41-.38,.04-1.06,.03-1.74-.01-.02-.27-.15-.65-.32-.91,.71,.06,1.42,.06,1.69,.06,.23,.01,.35,0,.47-.12,.29-.25,.44-1.3,.57-3.73h-3.55c-.29,1.92-1.01,3.71-2.93,4.81-.13-.25-.43-.56-.67-.75,2.67-1.44,2.78-4.32,2.86-6.81h-2.53v-.91h8.69v.91h-5.2Z"/>
          <path d="M279.52,6.18c0,2.03-.84,3.63-1.98,4.78l-.76-.36c1.09-1.14,1.84-2.58,1.84-4.42s-.75-3.28-1.84-4.42l.76-.36c1.14,1.15,1.98,2.75,1.98,4.78Z"/>
        </g>
        <rect class="cls-1" x="158.75" width="11" height="11"/>
      </g>
    </g>
    <line class="cls-3" x1="44.32" y1="170.98" x2="297.11" y2="170.98"/>
  </g>
</svg>