<svg xmlns="http://www.w3.org/2000/svg" xmlns:xlink="http://www.w3.org/1999/xlink" viewBox="0 0 869.3 141.8"><defs><style>.cls-1{fill:#fff;}.cls-2{fill:#f1f1ee;}.cls-3{fill:#cececa;}.cls-4,.cls-5,.cls-7,.cls-8{fill:none;}.cls-4,.cls-5,.cls-7{stroke:#323230;}.cls-4,.cls-5{stroke-linejoin:round;}.cls-4{stroke-width:2px;}.cls-6{fill:#323230;}.cls-7,.cls-8{stroke-miterlimit:10;stroke-width:0.5px;}.cls-8{stroke:#fff;}</style><symbol id="New_Symbol_2" data-name="New Symbol 2" viewBox="0 0 869.3 141.8"><path d="M822.67,137.38l-1.28.4v3.94h-.95v-3.64l-1.73.53-.26-1,2-.54v-2.31h-.88a11.43,11.43,0,0,1-.45,1.53,6.8,6.8,0,0,0-.75-.46,12.64,12.64,0,0,0,.69-3.59l.87.14q-.07.72-.18,1.41h.7v-2.18h.95v2.18h1v1h-1v2l1.15-.33Zm5.83-4s0,.36,0,.49c-.24,4.94-.45,6.68-.88,7.21a1.06,1.06,0,0,1-.8.49,7,7,0,0,1-1.24,0,2.34,2.34,0,0,0-.29-1c.46,0,.87,0,1.08,0a.4.4,0,0,0,.39-.19c.33-.37.56-1.93.75-6.11h-.3c-.57,2.84-1.74,5.73-3.53,7.16a4.2,4.2,0,0,0-.84-.6c1.77-1.27,2.92-3.9,3.47-6.56h-.73a10.63,10.63,0,0,1-2.61,4.9,4.07,4.07,0,0,0-.79-.59,9,9,0,0,0,2.54-4.31h-.78a8.29,8.29,0,0,1-1.19,2,7.35,7.35,0,0,0-.79-.58,9.31,9.31,0,0,0,1.88-4.16l.92.18a14.75,14.75,0,0,1-.45,1.59Z"/><path d="M833.92,132a18.12,18.12,0,0,1-1.08,2.38v7.37h-1v-5.83A12.16,12.16,0,0,1,831,137a6.2,6.2,0,0,0-.56-1,12.31,12.31,0,0,0,2.51-4.23Zm6.67,6h-2.91v3.73h-1V138h-3v-1h3v-2.18h-1.56a7.47,7.47,0,0,1-.74,1.55,6.11,6.11,0,0,0-.88-.49,9.68,9.68,0,0,0,1.31-3.67l1,.2c-.1.48-.22.95-.35,1.41h1.23v-2.05h1v2.05h2.42v1h-2.42V137h2.91Z"/><polygon class="cls-1" points="869.3 13.89 814.02 13.89 792.94 20.94 848.22 20.94 869.3 13.89"/><rect class="cls-2" x="792.94" y="20.94" width="55.28" height="96.74"/><polygon class="cls-3" points="869.3 13.89 869.3 110.62 848.22 117.67 848.22 20.94 869.3 13.89"/><rect class="cls-3" x="798.66" y="30.47" width="49.56" height="2.09"/><rect class="cls-3" x="798.66" y="38.87" width="49.56" height="2.09"/><rect class="cls-3" x="798.66" y="47.26" width="49.56" height="2.09"/><rect class="cls-3" x="798.66" y="55.66" width="49.56" height="2.09"/><rect class="cls-3" x="798.66" y="64.06" width="49.56" height="2.09"/><rect class="cls-3" x="798.66" y="72.46" width="49.56" height="2.09"/><rect class="cls-3" x="798.66" y="80.86" width="49.56" height="2.09"/><rect class="cls-3" x="798.66" y="89.25" width="49.56" height="2.09"/><rect class="cls-3" x="798.66" y="97.65" width="49.56" height="2.09"/><rect class="cls-3" x="798.66" y="106.05" width="49.56" height="2.09"/><path d="M654.42,44.44a7.2,7.2,0,0,1-1.24,2.39,5.84,5.84,0,0,0-.77-.53,4.91,4.91,0,0,0,1.11-2.08Zm1.76-.39H653V37.12h3.2ZM655.26,38h-1.39v1.22h1.39Zm0,2h-1.39V41.2h1.39Zm0,2h-1.39v1.26h1.39Zm.36,2.24a10.84,10.84,0,0,1,.92,1.72l-.81.39a9.13,9.13,0,0,0-.88-1.78Zm7,.82H662v.79c0,.46-.09.7-.41.84a4.71,4.71,0,0,1-1.6.14,2.92,2.92,0,0,0-.27-.82c.5,0,1,0,1.15,0s.19,0,.19-.18V45h-3.18v1.8H657V45h-.65v-.75H657V41.5h2V41h-2.63v-.76h1.49v-.58h-1V38.9h1v-.53h-1.27v-.76h1.27v-.89h.9v.89h1.41v-.89h.91v.89h1.26v.76h-1.26v.53h1.09v.73h-1.09v.58h1.5V41H659.9v.53H662v2.78h.59Zm-4.71-2.77v.65H659v-.65Zm0,2H659v-.7h-1.11Zm.87-5.38h1.41v-.53h-1.41Zm0,1.31h1.41v-.58h-1.41Zm1.14,2v.65h1.17v-.65Zm1.17,2v-.7H659.9v.7Z"/><path d="M670.07,37.35a9.25,9.25,0,0,0,4.44,8.55,5.21,5.21,0,0,0-.82.87A9.34,9.34,0,0,1,669.47,41a9.68,9.68,0,0,1-4.22,5.8,7,7,0,0,0-1-.82c2.37-1.22,3.7-3.39,4.34-6.37l.56.1a11.29,11.29,0,0,1-.14-1.31h-2.62v-1Z"/><path d="M686.18,36.62l.34.34-9.95,9.95-.34-.34Z"/><path d="M690.5,44.5a3,3,0,0,0,2.57,1.16c1.24.05,3.79,0,5.19-.08a4.35,4.35,0,0,0-.33,1c-1.27.06-3.6.08-4.87,0a3.7,3.7,0,0,1-3-1.27c-.46.45-.94.89-1.48,1.37l-.51-1a13.45,13.45,0,0,0,1.44-1.12V41.93H688.2V41h2.3ZM690,39.4a8,8,0,0,0-1.7-1.84l.78-.57a8.23,8.23,0,0,1,1.74,1.76Zm4,5.08h-3v-.77h3v-.54h-2.3V40H694v-.55h-2.6v-.74H694v-.68h1v.68h2.64v.74H695V40h2.38v3.14H695v.54h3.1v.77H695v.9h-1Zm-2-5.95h-.9V37.08h6.79v1.45H697v-.69H692Zm.53,2.75H694v-.59h-1.42ZM694,42.51V41.9h-1.42v.61Zm1-1.82v.59h1.46v-.59Zm1.46,1.21H695v.61h1.46Z"/><path d="M709.53,45.53c0,.59-.14.9-.54,1a5.83,5.83,0,0,1-2,.18,4,4,0,0,0-.35-1c.71,0,1.43,0,1.64,0s.28-.06.28-.27v-2h-2.66v3.14h-1V43.55h-2.53a6.27,6.27,0,0,1-1.37,3.33,3.29,3.29,0,0,0-.81-.67c1.2-1.33,1.31-3.28,1.31-4.83V37.46h8.11Zm-4.71-3V41h-2.38v.44c0,.37,0,.78-.05,1.19Zm-2.38-4.14V40h2.38V38.44Zm6.07,0h-2.66V40h2.66Zm0,4.14V41h-2.66v1.63Z"/><path d="M673.71,105.21h2v1h-2v.73c.54.39,1.69,1.38,2,1.65l-.58.86c-.31-.35-.89-1-1.41-1.45V112h-1v-4.36a11.41,11.41,0,0,1-1.9,2.93,7.94,7.94,0,0,0-.54-1,11,11,0,0,0,2.23-3.45h-2v-1h2.2v-1.64c-.67.14-1.35.25-2,.32a3.33,3.33,0,0,0-.31-.79,20.7,20.7,0,0,0,4.48-1.09l.73.78a13.18,13.18,0,0,1-1.91.57Zm3.63,4.11h-1v-6h1Zm2.66-7.15v8.59c0,.64-.15.93-.54,1.11a6.71,6.71,0,0,1-2.06.19A4.62,4.62,0,0,0,677,111c.75,0,1.44,0,1.66,0s.29-.06.29-.26v-8.59Z"/><path d="M689.37,105.14a8.17,8.17,0,0,0,3.16,2.83,4.54,4.54,0,0,0-.7.82,8.73,8.73,0,0,1-.94-.6v2.62h1.46v.91h-9.94v-.91h1.49v-2.56a11.3,11.3,0,0,1-.92.67,5.31,5.31,0,0,0-.79-.78,8.46,8.46,0,0,0,3.06-3h-2.61v-.91h2.69a12.11,12.11,0,0,0-1.14-1.82l.87-.39a9.91,9.91,0,0,1,1.26,1.94l-.54.27H689l-.61-.22a13.21,13.21,0,0,0,1.26-2.06l1.08.31a18.65,18.65,0,0,1-1.38,2h2.77v.91Zm1,2.65a9.79,9.79,0,0,1-2.14-2.65h-1.82a10.21,10.21,0,0,1-2,2.65Zm-4.51.88h-1.07v2.14h1.07Zm2,0h-1.09v2.14h1.09Zm2,2.14v-2.14h-1.09v2.14Z"/><path d="M272.87,91.46V96h-1.05v-.65h-6.5V96h-1V91.46h1v2.9H268V90.8H264.7V87h1v2.85H268V86h1v3.8h2.36V87h1.08V90.8H269v3.56h2.81v-2.9Z"/><path d="M278.44,89c-.95.32-2,.62-2.79.87l-.41-.9c.81-.16,2-.47,3.11-.77Zm1,5.74a14.67,14.67,0,0,1-3.37,1.36,6.93,6.93,0,0,0-.77-.76,12,12,0,0,0,3.2-1Zm-1.4-7a15.8,15.8,0,0,0-2.3-.9l.45-.69a13.33,13.33,0,0,1,2.3.81Zm2.08-.29a5.09,5.09,0,0,1-.94.91,2.69,2.69,0,0,0-.77-.5,4.49,4.49,0,0,0,1.63-1.92l.93.14a6.47,6.47,0,0,1-.34.63h3.53l.15,0,.68.17a7.06,7.06,0,0,1-1.06,1.6l-.81-.26a4.45,4.45,0,0,0,.55-.74h-1.52c.25.79.86,1.49,3.1,1.79a2.89,2.89,0,0,0-.52.83c-.31,0-.59-.12-.85-.18v4.37h-7.17V89.82h2.21a2.91,2.91,0,0,0-.45-.67c1.77-.28,2.4-.81,2.65-1.71Zm2.74,3h-5.16v.62h5.16Zm0,1.23h-5.16v.63h5.16Zm0,1.26h-5.16v.64h5.16Zm.85-3.14a3.28,3.28,0,0,1-2-1.44,3.6,3.6,0,0,1-2.45,1.44Zm-1.86,4.47c1.17.4,2.49.9,3.29,1.28l-1.18.48a22.07,22.07,0,0,0-3-1.24Z"/><path d="M256.51,120.47c0,.23,0,.5,0,.81V125c0,.28,0,.67,0,.89h-1.29c0-.19.06-.58.06-.89v-3.69a7.81,7.81,0,0,0-.05-.81Zm5.08-.09c0,.28,0,.61,0,1v2c0,2.52-.4,3.45-1.21,4.38a6.16,6.16,0,0,1-2.63,1.6l-.91-1a5.21,5.21,0,0,0,2.66-1.44c.77-.87.91-1.73.91-3.66v-1.89a9.14,9.14,0,0,0-.06-1Z"/><path d="M273.61,121.76a4.82,4.82,0,0,0-.31.69,12.07,12.07,0,0,1-1.56,3.15c.4.27.78.51,1.05.71l-.77,1c-.26-.22-.63-.48-1-.77a10.54,10.54,0,0,1-4.2,2.85l-1-.88a9.31,9.31,0,0,0,4.24-2.61c-.81-.53-1.66-1-2.26-1.37l.73-.83c.62.32,1.46.8,2.27,1.29a9,9,0,0,0,1.29-2.67h-3.49a12.32,12.32,0,0,1-2.9,2.86l-.94-.72a10,10,0,0,0,3.52-3.75,3.73,3.73,0,0,0,.41-1l1.26.4c-.21.33-.45.74-.56,1l-.13.25h2.67a2.43,2.43,0,0,0,.82-.13Z"/><path d="M276,123.9c.35,0,1,.06,1.62.06h6c.54,0,1,0,1.23-.06v1.35c-.24,0-.74,0-1.22,0h-6c-.61,0-1.26,0-1.62,0Z"/><path d="M290.62,126.43a10.45,10.45,0,0,0,3.81-4.15l.67,1.2a11.22,11.22,0,0,1-3.86,4A12,12,0,0,1,287,129.1l-.74-1.13A11.54,11.54,0,0,0,290.62,126.43Zm-.38-3.52-.87.89a24.48,24.48,0,0,0-2.75-2.33l.81-.86A22,22,0,0,1,290.24,122.91Z"/><polyline class="cls-4" points="199.52 44.06 352.38 44.06 342.34 35.32"/><polyline class="cls-5" points="199.52 100.73 352.38 100.73 345.74 95.39"/><polyline class="cls-5" points="352.38 111.93 199.52 111.93 206.16 117.27"/><polyline class="cls-5" points="606.53 54.72 759.39 54.72 752.75 49.38"/><polyline class="cls-5" points="759.39 91.31 606.53 91.31 613.17 96.65"/><polyline class="cls-4" points="352.38 55.26 199.52 55.26 209.56 64"/><path d="M272.87,34.79v4.54h-1.05v-.65h-6.5v.68h-1V34.79h1v2.89H268V34.13H264.7V30.29h1v2.85H268V29.33h1v3.81h2.36V30.28h1.08v3.85H269v3.55h2.81V34.79Z"/><path d="M278.44,32.29c-.95.32-2,.62-2.79.87l-.41-.9c.81-.17,2-.47,3.11-.77Zm1,5.73a14.68,14.68,0,0,1-3.37,1.37,6.93,6.93,0,0,0-.77-.76,12.41,12.41,0,0,0,3.2-1Zm-1.4-7a15.8,15.8,0,0,0-2.3-.9l.45-.69a13.33,13.33,0,0,1,2.3.81Zm2.08-.3a5.14,5.14,0,0,1-.94.92,2.69,2.69,0,0,0-.77-.5,4.54,4.54,0,0,0,1.63-1.92l.93.14a6.47,6.47,0,0,1-.34.63h3.53l.15,0,.68.18A6.77,6.77,0,0,1,284,31.76l-.81-.25a4.55,4.55,0,0,0,.55-.75h-1.52c.25.8.86,1.5,3.1,1.8a2.76,2.76,0,0,0-.52.83c-.31,0-.59-.12-.85-.18v4.36h-7.17V33.15h2.21a2.71,2.71,0,0,0-.45-.67c1.77-.29,2.4-.81,2.65-1.72Zm2.74,3h-5.16v.62h5.16Zm0,1.23h-5.16v.63h5.16Zm0,1.26h-5.16v.63h5.16Zm.85-3.14a3.28,3.28,0,0,1-2-1.44,3.6,3.6,0,0,1-2.45,1.44Zm-1.86,4.47c1.17.39,2.49.9,3.29,1.27l-1.18.49a23.32,23.32,0,0,0-3-1.25Z"/><path d="M256.51,63.79c0,.23,0,.51,0,.82v3.68c0,.29,0,.67,0,.89h-1.29c0-.18.06-.57.06-.89V64.61a8,8,0,0,0-.05-.82Zm5.08-.08c0,.28,0,.61,0,1v2c0,2.52-.4,3.45-1.21,4.38a6.16,6.16,0,0,1-2.63,1.6l-.91-1a5.07,5.07,0,0,0,2.66-1.44c.77-.87.91-1.72.91-3.65V64.72a9.14,9.14,0,0,0-.06-1Z"/><path d="M273.61,65.09a4.69,4.69,0,0,0-.31.68,12.12,12.12,0,0,1-1.56,3.16c.4.27.78.51,1.05.71l-.77,1c-.26-.22-.63-.49-1-.77a10.54,10.54,0,0,1-4.2,2.85l-1-.88A9.48,9.48,0,0,0,270,69.24c-.81-.53-1.66-1-2.26-1.38l.73-.82c.62.32,1.46.8,2.27,1.29a9.06,9.06,0,0,0,1.29-2.68h-3.49a12.14,12.14,0,0,1-2.9,2.86l-.94-.71a10,10,0,0,0,3.52-3.75,3.73,3.73,0,0,0,.41-1l1.26.39c-.21.33-.45.75-.56,1l-.13.24h2.67a2.45,2.45,0,0,0,.82-.12Z"/><path d="M276,67.23c.35,0,1,.06,1.62.06h6c.54,0,1,0,1.23-.06v1.35c-.24,0-.74,0-1.22,0h-6c-.61,0-1.26,0-1.62,0Z"/><path d="M290.62,69.76a10.45,10.45,0,0,0,3.81-4.15l.67,1.2a11.3,11.3,0,0,1-3.86,4A12.22,12.22,0,0,1,287,72.43l-.74-1.13A11.54,11.54,0,0,0,290.62,69.76Zm-.38-3.52-.87.89a24.52,24.52,0,0,0-2.75-2.34l.81-.85A21.14,21.14,0,0,1,290.24,66.24Z"/><rect class="cls-6" x="385.93" y="17.41" width="187.05" height="69.47"/><rect class="cls-3" x="385.93" y="86.88" width="187.05" height="34.71"/><path class="cls-1" d="M456.74,68.84v1.63H444V68.84h3V66.15h-2.52V64.54H447V62h1.74v2.59H452V62h1.74v2.59h2.62v1.61h-2.62v2.69Zm-7.37,2.85A17.72,17.72,0,0,1,445.44,75a11.32,11.32,0,0,0-1.38-1.16A12.49,12.49,0,0,0,447.61,71Zm-.64-2.85H452V66.15h-3.22Zm4.1,2.12a40.87,40.87,0,0,1,3.81,3L455,75a34,34,0,0,0-3.68-3.16Z"/><path class="cls-1" d="M474.47,73c0,.87-.18,1.34-.71,1.61a5.71,5.71,0,0,1-2.48.32,5.68,5.68,0,0,0-.57-1.65c.74,0,1.55,0,1.79,0s.33-.1.33-.33V64.09h-8.61V74.94H462.6V62.51h11.87ZM472,66.48h-7v-1.4h7Zm-4.79,5.75v.93h-1.54V67.55h5.7v4.68Zm0-3.3v1.93h2.62V68.93Z"/><path class="cls-1" d="M483.72,69.77v3.36c0,.83-.15,1.23-.6,1.48a4.66,4.66,0,0,1-2.13.3,7.18,7.18,0,0,0-.46-1.53c.53,0,1.12,0,1.3,0s.25-.07.25-.27V70.29l-1.52.46L480.11,69c.54-.1,1.22-.25,2-.43V66h-1.76V64.45h1.76V61.87h1.64v2.58h1.39V66h-1.39v2.18l1.16-.28.17,1.44Zm8.81-1.57a8.91,8.91,0,0,1-2.28,4,10.57,10.57,0,0,0,3.25,1.16,7.34,7.34,0,0,0-1.09,1.51,9.82,9.82,0,0,1-3.53-1.55A12.45,12.45,0,0,1,485.12,75a6.56,6.56,0,0,0-.85-1.53,10,10,0,0,0,3.29-1.2,9.76,9.76,0,0,1-1.68-2.54l1.17-.36h-1.52v-1.5h.28a6,6,0,0,0-1.09-1.2,2.91,2.91,0,0,0,1.55-2.82V62.37h5v3c0,.38,0,.42.21.42h.39c.21,0,.25-.19.28-1.41a4.28,4.28,0,0,0,1.36.59c-.14,1.72-.49,2.19-1.46,2.19h-.88c-1.15,0-1.5-.4-1.5-1.77V63.91h-1.79a4.44,4.44,0,0,1-2,3.91h5.28l.31,0Zm-5.11,1.12a6.52,6.52,0,0,0,1.46,1.93,6.28,6.28,0,0,0,1.45-1.93Z"/><path class="cls-1" d="M507.51,72.58c1.43.51,3,1.18,4,1.64l-1.93.74a28,28,0,0,0-3.64-1.65l1.26-.73H503.1l1.28.56A17.26,17.26,0,0,1,500,75a15.75,15.75,0,0,0-1.23-1.22,16,16,0,0,0,3.85-1.18h-2.05V66.9h2.92a3.93,3.93,0,0,0-.66-1l0,.06-3.56,1-.62-1.46c1-.19,2.54-.54,4-.89l.14,1.26c2.23-.37,3-1,3.28-2h-1A7.41,7.41,0,0,1,504,65.08a4.5,4.5,0,0,0-1.24-.79,6.07,6.07,0,0,0,2.06-2.44l1.47.24c-.12.24-.23.46-.37.69H510l.26,0,1.1.28a10,10,0,0,1-1.33,2.11l-1.29-.4a7.76,7.76,0,0,0,.55-.77h-1.56c.31.91,1.1,1.66,3.93,2a4.52,4.52,0,0,0-.83,1.36c-.34-.06-.64-.12-.92-.19v5.45Zm-5.29-8.25a18.17,18.17,0,0,0-2.93-1.13l.73-1.14a19.53,19.53,0,0,1,3,1Zm0,4.16h6.06v-.6h-6.06Zm0,1.54h6.06v-.6h-6.06Zm0,1.56h6.06V71h-6.06Zm7-4.69A4.2,4.2,0,0,1,507,65.38a4.58,4.58,0,0,1-2.55,1.52Z"/><rect class="cls-6" x="20.16" y="17.41" width="145.81" height="63.78"/><rect class="cls-3" x="20.16" y="92.57" width="145.81" height="29.02"/><circle class="cls-7" cx="93.06" cy="107.08" r="8.65"/><polygon class="cls-6" points="96.39 102.91 95.19 102.91 93.06 106.6 90.93 102.91 89.73 102.91 92.32 107.39 90.81 107.39 90.81 108.24 92.54 108.24 92.54 109.14 90.81 109.14 90.81 110 92.54 110 92.54 111.25 93.59 111.25 93.59 110 95.33 110 95.33 109.14 93.59 109.14 93.59 108.24 95.33 108.24 95.33 107.39 93.81 107.39 96.39 102.91"/><circle class="cls-8" cx="64.95" cy="37.3" r="8.65"/><polygon class="cls-1" points="68.28 33.13 67.08 33.13 64.95 36.82 62.82 33.13 61.62 33.13 64.21 37.61 62.69 37.61 62.69 38.47 64.43 38.47 64.43 39.37 62.69 39.37 62.69 40.22 64.43 40.22 64.43 41.47 65.47 41.47 65.47 40.22 67.21 40.22 67.21 39.37 65.47 39.37 65.47 38.47 67.21 38.47 67.21 37.61 65.7 37.61 68.28 33.13"/><circle class="cls-8" cx="93.06" cy="37.3" r="8.65"/><polygon class="cls-1" points="96.39 33.13 95.19 33.13 93.06 36.82 90.93 33.13 89.73 33.13 92.32 37.61 90.81 37.61 90.81 38.47 92.54 38.47 92.54 39.37 90.81 39.37 90.81 40.22 92.54 40.22 92.54 41.47 93.59 41.47 93.59 40.22 95.33 40.22 95.33 39.37 93.59 39.37 93.59 38.47 95.33 38.47 95.33 37.61 93.81 37.61 96.39 33.13"/><circle class="cls-8" cx="121.18" cy="37.3" r="8.65"/><polygon class="cls-1" points="124.5 33.13 123.31 33.13 121.18 36.82 119.05 33.13 117.85 33.13 120.43 37.61 118.92 37.61 118.92 38.47 120.66 38.47 120.66 39.37 118.92 39.37 118.92 40.22 120.66 40.22 120.66 41.47 121.7 41.47 121.7 40.22 123.44 40.22 123.44 39.37 121.7 39.37 121.7 38.47 123.44 38.47 123.44 37.61 121.92 37.61 124.5 33.13"/><circle class="cls-8" cx="64.95" cy="61.3" r="8.65"/><polygon class="cls-1" points="68.28 57.13 67.08 57.13 64.95 60.82 62.82 57.13 61.62 57.13 64.21 61.61 62.69 61.61 62.69 62.47 64.43 62.47 64.43 63.37 62.69 63.37 62.69 64.22 64.43 64.22 64.43 65.47 65.47 65.47 65.47 64.22 67.21 64.22 67.21 63.37 65.47 63.37 65.47 62.47 67.21 62.47 67.21 61.61 65.7 61.61 68.28 57.13"/><circle class="cls-8" cx="93.06" cy="61.3" r="8.65"/><polygon class="cls-1" points="96.39 57.13 95.19 57.13 93.06 60.82 90.93 57.13 89.73 57.13 92.32 61.61 90.81 61.61 90.81 62.47 92.54 62.47 92.54 63.37 90.81 63.37 90.81 64.22 92.54 64.22 92.54 65.47 93.59 65.47 93.59 64.22 95.33 64.22 95.33 63.37 93.59 63.37 93.59 62.47 95.33 62.47 95.33 61.61 93.81 61.61 96.39 57.13"/><circle class="cls-8" cx="121.18" cy="61.3" r="8.65"/><polygon class="cls-1" points="124.5 57.13 123.31 57.13 121.18 60.82 119.05 57.13 117.85 57.13 120.43 61.61 118.92 61.61 118.92 62.47 120.66 62.47 120.66 63.37 118.92 63.37 118.92 64.22 120.66 64.22 120.66 65.47 121.7 65.47 121.7 64.22 123.44 64.22 123.44 63.37 121.7 63.37 121.7 62.47 123.44 62.47 123.44 61.61 121.92 61.61 124.5 57.13"/><path d="M68.86,133.43c-.23.37-.46.75-.72,1.13v7.16H67v-5.78a13.79,13.79,0,0,1-3.76,3,5.31,5.31,0,0,0-.7-.92,12.13,12.13,0,0,0,4.95-4.57H62.88v-1.05H72.3v1.05ZM69,135.1A26.34,26.34,0,0,1,72.66,138l-.86.8a24.48,24.48,0,0,0-3.62-3.05Z"/><path d="M84.36,134.14s0,.35,0,.47c-.12,4.55-.22,6.11-.58,6.58a1,1,0,0,1-.78.48,8.43,8.43,0,0,1-1.35,0,2.52,2.52,0,0,0-.29-1c.51,0,1,0,1.16,0a.42.42,0,0,0,.4-.17c.24-.31.35-1.71.44-5.49h-1.3c-.14,2.92-.64,5.26-2.53,6.71a3.55,3.55,0,0,0-.74-.76l.2-.16c-1.59.19-3.17.36-4.35.47l-.13-.87,2.3-.19v-.84h-2v-.74h2v-.56h-2v-3.32h2v-.57H74.53v-.76H76.8v-.61c-.67.05-1.34.08-2,.11a2.91,2.91,0,0,0-.24-.74,35.09,35.09,0,0,0,4.72-.54l.48.77c-.58.12-1.31.23-2.06.31v.7H80v.64h1.15c0-.75,0-1.53,0-2.35h1c0,.81,0,1.6,0,2.35Zm-8.69,2H76.8v-.68H75.67Zm1.13,1.29v-.67H75.67v.67Zm.94,2.73,2.07-.21a8.81,8.81,0,0,0,1.27-4.9H79.91v-.83H77.74v.57h2v3.32h-2v.56H79.8v.74H77.74Zm1.17-4v-.68H77.74v.68Zm-1.17.62v.67h1.17v-.67Z"/><path d="M96.3,134.79v.89H88.23v.85a9.92,9.92,0,0,1-1.18,5.18,4.34,4.34,0,0,0-.78-.65,8.58,8.58,0,0,0,1-4.53v-1.74h2.06a6.25,6.25,0,0,0-.5-1.28l.4-.1H87.12v-.89H90.9v-.9h1v.9h3.83v.89H94.19l.14,0c-.27.47-.55,1-.78,1.34Zm-3.5,5.85h3.45v.87H88.5v-.87h3.3v-1.21H89.41v-.79H91.8v-1H89.92a5.91,5.91,0,0,1-.75,1,5,5,0,0,0-.81-.5,5.48,5.48,0,0,0,1.4-2.21l.91.21c-.09.24-.19.48-.3.71H91.8v-.9h1v.9h2.82v.82H92.8v1h2.52v.79H92.8Zm-3-7.23a5,5,0,0,1,.51,1.27l-.4.11h3l-.27-.09a12.85,12.85,0,0,0,.5-1.29Z"/><path d="M100.88,135.12A13.86,13.86,0,0,1,99,136.26a3.69,3.69,0,0,0-.6-.83,11.13,11.13,0,0,0,4.5-3.79h1a11.09,11.09,0,0,0,4.71,3.63,5.53,5.53,0,0,0-.65.93,13.52,13.52,0,0,1-1.94-1.15v.86h-5.15ZM99,137.06h9V138h-5c-.36.74-.77,1.57-1.17,2.27l3.93-.15a14.49,14.49,0,0,0-1.28-1.31l.88-.48a14.42,14.42,0,0,1,2.56,2.83l-.94.58a8.13,8.13,0,0,0-.48-.71c-2.62.13-5.42.25-7.29.33l-.13-1,1.63-.06a18.25,18.25,0,0,0,1-2.3H99Zm6.93-2.09a11,11,0,0,1-2.48-2.34,10.77,10.77,0,0,1-2.34,2.34Z"/><path d="M114.44,138.65c-.26-.32-.75-.85-1.2-1.3v4.38h-1v-4.06a9,9,0,0,1-1.54,1.23,5.24,5.24,0,0,0-.5-.94,9.13,9.13,0,0,0,3.27-3.37h-2.89v-.93h1.66v-2h1v2H114l.17,0,.57.39a10.12,10.12,0,0,1-1.36,2.36c.52.42,1.43,1.21,1.68,1.44Zm6.13,1.76v1h-6.16v-1h2.67V136.1h-2.23v-1h2.23v-3.39h1v3.39h2.22v1h-2.22v4.31Z"/><path d="M3.21,38.83A19.81,19.81,0,0,1,2.35,41v7.62h-1V42.78A12.23,12.23,0,0,1,.51,44,8.13,8.13,0,0,0,0,42.91a13,13,0,0,0,2.27-4.35ZM9.4,46A4.81,4.81,0,0,1,7.76,47.4a14.94,14.94,0,0,0,2.68.41,4,4,0,0,0-.56.84,12.08,12.08,0,0,1-3.27-.75,16.19,16.19,0,0,1-3.27.74,3.21,3.21,0,0,0-.5-.74,17.93,17.93,0,0,0,2.75-.5,6.53,6.53,0,0,1-1-.74,10.9,10.9,0,0,1-1.18.54,2.18,2.18,0,0,0-.58-.63,6.83,6.83,0,0,0,2.59-1.4c-.28-.11-.37-.32-.37-.72v-.64h.84v.64c0,.22.07.24.4.24H7.49c.24,0,.3-.06.33-.44a2.29,2.29,0,0,0,.67.22c-.06.64-.27.79-.88.79H6.5a4.42,4.42,0,0,1-.44.42H8.59l.18,0ZM3.92,44.44a4.47,4.47,0,0,0,.5-.61l.66.36a4.29,4.29,0,0,1-1.17,1.24l-.63-.51a2.23,2.23,0,0,0,.61-.46H3V43h1V40.22H5.94c0-.15.08-.32.1-.48H3.37V39H10.1v.76h-3c-.07.16-.13.33-.2.48H9.33V43h1v1.5H9.58a4.46,4.46,0,0,1,.49.59l-.67.38a6,6,0,0,0-1.18-1.29l.62-.35c.18.14.38.32.56.48v-.7H7a3,3,0,0,1,.57.53L7,44.49a4.53,4.53,0,0,0-1-.9l0,0h-2ZM5,40.77v.41H8.37v-.41Zm3.37.87H5v.42H8.37ZM5,43H8.37v-.42H5Zm.4,3.33A4.74,4.74,0,0,0,6.68,47,5.24,5.24,0,0,0,8,46.29Z"/><path d="M8.82,59.36c.37,0,.43-.22.48-1.58a3.19,3.19,0,0,0,.92.42c-.1,1.68-.37,2.13-1.31,2.13H7.48C6.39,60.33,6.13,60,6.13,59V56H4.28C4,58,3.44,59.65,1,60.56a3.45,3.45,0,0,0-.64-.9A3.68,3.68,0,0,0,3.2,56H.47V55H4.76V53H2.66a7.94,7.94,0,0,1-.9,1.61,5.29,5.29,0,0,0-.9-.49,9.27,9.27,0,0,0,1.52-3.48l1,.2c-.11.37-.23.78-.37,1.18H4.76V50.4h1V52H9.29v1H5.8v2h4.3v1H7.16v3c0,.34.07.39.44.39Z"/><path d="M9.67,102.2s0,.29,0,.43c-.18,2.06-.37,3-.72,3.29a1.2,1.2,0,0,1-.9.36c-.34,0-1,0-1.66,0a2.28,2.28,0,0,0-.33-1,15.42,15.42,0,0,0,1.55.08.63.63,0,0,0,.46-.12c.21-.18.35-.79.49-2.13H5.82c-.49,1.65-1.66,2.73-4.64,3.31a3.2,3.2,0,0,0-.52-.89c2.56-.44,3.63-1.21,4.1-2.42H1.84v-.91H5c.05-.34.1-.69.13-1.09a18.82,18.82,0,0,1-4.28,1.2,4.26,4.26,0,0,0-.56-.93c3-.4,5.76-1.28,7-3l1,.37a7.37,7.37,0,0,1-2.78,2.21h.61c0,.45-.08.88-.14,1.27Zm-6-5a8,8,0,0,1-2.33,2.64,8.67,8.67,0,0,0-.89-.61,6.24,6.24,0,0,0,2.2-2.31ZM5.75,99c0,.48-.09.73-.47.87a5.47,5.47,0,0,1-1.72.14,3.31,3.31,0,0,0-.31-.88c.55,0,1.14,0,1.28,0s.22,0,.22-.18V96.29h1Zm3.63.81a12.74,12.74,0,0,0-2.32-2.46l.83-.51a12.89,12.89,0,0,1,2.4,2.38Z"/><path d="M3.52,110.77a13.38,13.38,0,0,1-.89,1.38v6.14h-1v-5a8.52,8.52,0,0,1-1.08,1,6.2,6.2,0,0,0-.56-.93,9.77,9.77,0,0,0,2.59-2.93Zm-.22-2.24a11.43,11.43,0,0,1-2.61,2.63,4.89,4.89,0,0,0-.55-.74,8.55,8.55,0,0,0,2.24-2.25Zm6.05,5.55a5.86,5.86,0,0,1-1.78,2.37,9.55,9.55,0,0,0,2.89,1,4.07,4.07,0,0,0-.61.88A9.29,9.29,0,0,1,6.74,117a11,11,0,0,1-3.26,1.28,3,3,0,0,0-.5-.87,9.61,9.61,0,0,0,3-1,6.53,6.53,0,0,1-1.1-1.19,7.65,7.65,0,0,1-1.17.84,4,4,0,0,0-.68-.76,7.38,7.38,0,0,0,2.61-2.22l-2.38.07-.08-.93,1.69,0c.2-.16.42-.35.63-.54a12.62,12.62,0,0,0-2-1.64l.62-.66.64.42A11.61,11.61,0,0,0,6,108.15l.9.46c-.49.58-1,1.2-1.52,1.68a7.8,7.8,0,0,1,.83.71,20.89,20.89,0,0,0,1.87-2l.92.5a36.92,36.92,0,0,1-2.86,2.71l2.5,0c-.23-.31-.47-.6-.7-.86l.8-.43a11.16,11.16,0,0,1,1.74,2.37l-.85.5a7.21,7.21,0,0,0-.43-.77l-2.44.09a7.78,7.78,0,0,1-.54.78H8.55l.17,0Zm-3.86.56a5.56,5.56,0,0,0,1.24,1.28A5.08,5.08,0,0,0,8,114.61H5.51Z"/><path d="M26.27,5.41c0-2.64,1.61-4.22,3.66-4.22a3.13,3.13,0,0,1,2.3,1l-.7.82A2.15,2.15,0,0,0,30,2.3c-1.4,0-2.37,1.17-2.37,3.07s.9,3.1,2.34,3.1a2.37,2.37,0,0,0,1.79-.86l.68.81a3.21,3.21,0,0,1-2.52,1.16C27.83,9.58,26.27,8.06,26.27,5.41Z"/><path d="M34,5.36c0-2.61,1.44-4.17,3.52-4.17s3.53,1.56,3.53,4.17-1.45,4.22-3.53,4.22S34,8,34,5.36Zm5.75,0c0-1.91-.88-3.06-2.23-3.06s-2.21,1.15-2.21,3.06.87,3.11,2.21,3.11S39.78,7.26,39.78,5.36Z"/><path d="M42.74,8.67,46.8,2.41H43.11V1.34h5.26V2.1l-4,6.26h4.1V9.44H42.74Z"/><path d="M50.69,6V1.34H52V6.05c0,1.83.73,2.42,1.74,2.42s1.77-.59,1.77-2.42V1.34h1.23V6c0,2.64-1.21,3.62-3,3.62S50.69,8.6,50.69,6Z"/><path d="M59.21,5.41c0-2.64,1.61-4.22,3.66-4.22a3.13,3.13,0,0,1,2.3,1l-.7.82a2.15,2.15,0,0,0-1.58-.73c-1.4,0-2.37,1.17-2.37,3.07s.9,3.1,2.33,3.1a2.37,2.37,0,0,0,1.8-.86l.68.81a3.21,3.21,0,0,1-2.52,1.16C60.78,9.58,59.21,8.06,59.21,5.41Z"/><path d="M67.6,1.34h1.28v3.3h3.46V1.34h1.28v8.1H72.34V5.75H68.88V9.44H67.6Z"/><path d="M76.57,1.34h1.28v8.1H76.57Z"/><path d="M87.28,5.26A7.36,7.36,0,0,1,89.45,0l.84.4a6.86,6.86,0,0,0,0,9.72l-.84.4A7.36,7.36,0,0,1,87.28,5.26Z"/><path d="M102.19,4.59V5.71h-10V4.59Z"/><path d="M108.49,5.53v3.8c0,.43-.08.68-.36.82a3,3,0,0,1-1.29.16,2.82,2.82,0,0,0-.27-.82,6.36,6.36,0,0,0,.9,0c.13,0,.18,0,.18-.16V5.63l-1.8.2a8.94,8.94,0,0,1-.9,4.47,2.66,2.66,0,0,0-.7-.46A7.85,7.85,0,0,0,105,5.92l-.68.08-.1-.84.78-.08V1.71h1A13.66,13.66,0,0,0,106.37.2l1.1.21L107,1.71h1.54v3l.49,0v.79Zm-.84-.71V2.52h-1.8V5Zm-.9-1.95a4.67,4.67,0,0,1,.6,1.41l-.67.29a4.92,4.92,0,0,0-.55-1.45ZM107,8.56h-.62V6H107Zm6.93-3.47a7.33,7.33,0,0,1-1.66,3.28,5.87,5.87,0,0,0,2.29,1.09,3.73,3.73,0,0,0-.62.84A6.53,6.53,0,0,1,111.58,9a7.7,7.7,0,0,1-2.35,1.3,3.74,3.74,0,0,0-.56-.86,6.69,6.69,0,0,0,2.22-1.14A7.77,7.77,0,0,1,109.6,6l.73-.16h-1.1V4.91h3.91l.17,0Zm-3.29-3a3.28,3.28,0,0,1-1.07,2.68,3.92,3.92,0,0,0-.74-.59,2.43,2.43,0,0,0,.9-2.11V.63H113V3.1c0,.19,0,.31,0,.34a.18.18,0,0,0,.15.05h.25a.3.3,0,0,0,.18,0s.09-.09.11-.24,0-.47,0-.89a2.15,2.15,0,0,0,.73.4,5.44,5.44,0,0,1-.12,1.06.64.64,0,0,1-.35.4,1.25,1.25,0,0,1-.53.1H113a1,1,0,0,1-.65-.22c-.16-.15-.23-.35-.23-1V1.52h-1.45Zm-.21,3.75a5.87,5.87,0,0,0,1.12,1.88,6,6,0,0,0,1.15-1.88Z"/><path d="M120.16,5.84,119,6.23V9.15c0,.53-.11.81-.44,1a3.9,3.9,0,0,1-1.54.17,3.9,3.9,0,0,0-.29-.94c.46,0,.91,0,1.06,0s.19,0,.19-.21V6.57c-.47.15-.93.31-1.34.43l-.29-1.06c.44-.1,1-.25,1.63-.43V3.25h-1.49v-1H118V.21h1V2.3h1.15v1H119v2l1-.29Zm5.76-.71A7.11,7.11,0,0,1,124,8.31a7.76,7.76,0,0,0,2.71,1.06,4.67,4.67,0,0,0-.67.93A8.16,8.16,0,0,1,123.15,9a9.65,9.65,0,0,1-3,1.33,4.4,4.4,0,0,0-.54-.94,8,8,0,0,0,2.77-1.09,7.32,7.32,0,0,1-1.47-2.24l.71-.22h-1V4.9h4.48l.18-.05Zm-3.76-3.38a3.38,3.38,0,0,1-1.52,3A3.62,3.62,0,0,0,120,4a2.48,2.48,0,0,0,1.25-2.31V.63h3.71V3.15c0,.26,0,.29.19.29h.47c.19,0,.24-.15.26-1.21a2.47,2.47,0,0,0,.84.38c-.07,1.33-.31,1.68-1,1.68H125c-.8,0-1-.24-1-1.13V1.57h-1.77Zm-.31,4.08a5.81,5.81,0,0,0,1.34,1.85,5.41,5.41,0,0,0,1.38-1.85Z"/><path d="M131.84,3.25c-1,.31-2,.61-2.79.86l-.41-.9c.81-.16,2-.47,3.11-.77Zm1,5.73a14.67,14.67,0,0,1-3.37,1.36,7.91,7.91,0,0,0-.77-.76,12,12,0,0,0,3.2-1Zm-1.4-7a15.8,15.8,0,0,0-2.3-.9l.45-.69a13.33,13.33,0,0,1,2.3.81Zm2.08-.29a5.43,5.43,0,0,1-.94.91,2.69,2.69,0,0,0-.77-.5A4.49,4.49,0,0,0,133.46.21l.93.14A5,5,0,0,1,134,1h3.54l.15,0,.68.17a7.06,7.06,0,0,1-1.06,1.6l-.81-.26a4.45,4.45,0,0,0,.55-.74h-1.52c.25.79.86,1.49,3.1,1.79a2.81,2.81,0,0,0-.52.84l-.85-.19V8.53h-7.17V4.1h2.21a2.91,2.91,0,0,0-.45-.67c1.77-.28,2.4-.81,2.65-1.71Zm2.74,3h-5.16v.62h5.16Zm0,1.23h-5.16v.63h5.16Zm0,1.26h-5.16v.64h5.16Zm.85-3.14a3.24,3.24,0,0,1-2-1.44,3.57,3.57,0,0,1-2.45,1.44Zm-1.86,4.47c1.17.4,2.49.9,3.29,1.28l-1.18.48a22.07,22.07,0,0,0-2.95-1.24Z"/><path d="M150,4.8a17.83,17.83,0,0,1-2.15,1.43,5.66,5.66,0,0,0,2.65,2.36,3.81,3.81,0,0,0-.71.89c-2-1-3.21-3-3.87-5.61h0a6.37,6.37,0,0,1-1,.71c2.08,1.81,2,4.57,1,5.34a1.7,1.7,0,0,1-1.23.41l-.95,0a2.52,2.52,0,0,0-.28-1c.39,0,.76,0,1,0a.94.94,0,0,0,.73-.22,1.8,1.8,0,0,0,.36-1.68,15.77,15.77,0,0,1-4.38,2.33,4.78,4.78,0,0,0-.54-.84,12.28,12.28,0,0,0,4.64-2.37,5,5,0,0,0-.29-.56,17,17,0,0,1-3.45,1.75A3.68,3.68,0,0,0,141,7a11.79,11.79,0,0,0,3.48-1.58,3.64,3.64,0,0,0-.4-.38,18.48,18.48,0,0,1-2.65,1,5.62,5.62,0,0,0-.54-.8,13,13,0,0,0,3.61-1.34h-2V3h6v.88h-1.62a10.36,10.36,0,0,0,.58,1.59,15,15,0,0,0,1.78-1.35Zm-8-1.38h-1V1.13h4V.21H146v.92h4.08V3.42h-1V2.07H142Z"/><path d="M155.38,5.26a7.37,7.37,0,0,1-2.18,5.26l-.84-.4a6.83,6.83,0,0,0,0-9.72l.84-.4A7.37,7.37,0,0,1,155.38,5.26Z"/></symbol></defs><g id="Layer_2" data-name="Layer 2"><g id="design"><use width="869.3" height="141.8" xlink:href="#New_Symbol_2"/></g></g></svg>