<?xml version="1.0" encoding="UTF-8"?>
<svg id="Layer_2" data-name="Layer 2" xmlns="http://www.w3.org/2000/svg" viewBox="0 0 296 497.12">
  <defs>
    <style>
      .cls-1 {
        stroke-linejoin: round;
      }

      .cls-1, .cls-2 {
        fill: none;
        stroke: #323230;
      }

      .cls-3 {
        fill: #fff;
      }

      .cls-4 {
        fill: #f1f1ee;
      }

      .cls-5 {
        fill: #e5e5df;
      }

      .cls-6 {
        fill: #323230;
      }

      .cls-7 {
        fill: #cececa;
      }

      .cls-2 {
        stroke-miterlimit: 10;
        stroke-width: .42px;
      }
    </style>
  </defs>
  <g id="design">
    <rect class="cls-3" y="0" width="296" height="497.12"/>
    <rect class="cls-4" x="19.67" y="29.31" width="256.65" height="134.84"/>
    <rect class="cls-5" x="80.14" y="114.07" width="176.81" height="29.62"/>
    <g>
      <g>
        <circle class="cls-2" cx="108.83" cy="128.88" r="7.35"/>
        <polygon class="cls-6" points="111.66 125.34 110.64 125.34 108.83 128.47 107.02 125.34 106 125.34 108.2 129.15 106.91 129.15 106.91 129.87 108.39 129.87 108.39 130.64 106.91 130.64 106.91 131.36 108.39 131.36 108.39 132.43 109.28 132.43 109.28 131.36 110.75 131.36 110.75 130.64 109.28 130.64 109.28 129.87 110.75 129.87 110.75 129.15 109.47 129.15 111.66 125.34"/>
      </g>
      <g>
        <circle class="cls-2" cx="132.72" cy="128.88" r="7.35"/>
        <polygon class="cls-6" points="135.55 125.34 134.53 125.34 132.72 128.47 130.91 125.34 129.89 125.34 132.09 129.15 130.8 129.15 130.8 129.87 132.28 129.87 132.28 130.64 130.8 130.64 130.8 131.36 132.28 131.36 132.28 132.43 133.17 132.43 133.17 131.36 134.64 131.36 134.64 130.64 133.17 130.64 133.17 129.87 134.64 129.87 134.64 129.15 133.36 129.15 135.55 125.34"/>
      </g>
      <g>
        <circle class="cls-2" cx="156.61" cy="128.88" r="7.35"/>
        <polygon class="cls-6" points="159.44 125.34 158.42 125.34 156.61 128.47 154.8 125.34 153.78 125.34 155.98 129.15 154.69 129.15 154.69 129.87 156.17 129.87 156.17 130.64 154.69 130.64 154.69 131.36 156.17 131.36 156.17 132.43 157.05 132.43 157.05 131.36 158.53 131.36 158.53 130.64 157.05 130.64 157.05 129.87 158.53 129.87 158.53 129.15 157.24 129.15 159.44 125.34"/>
      </g>
      <g>
        <circle class="cls-2" cx="180.5" cy="128.88" r="7.35"/>
        <polygon class="cls-6" points="183.32 125.34 182.31 125.34 180.5 128.47 178.69 125.34 177.67 125.34 179.87 129.15 178.58 129.15 178.58 129.87 180.06 129.87 180.06 130.64 178.58 130.64 178.58 131.36 180.06 131.36 180.06 132.43 180.94 132.43 180.94 131.36 182.42 131.36 182.42 130.64 180.94 130.64 180.94 129.87 182.42 129.87 182.42 129.15 181.13 129.15 183.32 125.34"/>
      </g>
      <g>
        <circle class="cls-2" cx="204.38" cy="128.88" r="7.35"/>
        <polygon class="cls-6" points="207.21 125.34 206.19 125.34 204.39 128.47 202.57 125.34 201.56 125.34 203.75 129.15 202.47 129.15 202.47 129.87 203.94 129.87 203.94 130.64 202.47 130.64 202.47 131.36 203.94 131.36 203.94 132.43 204.83 132.43 204.83 131.36 206.31 131.36 206.31 130.64 204.83 130.64 204.83 129.87 206.31 129.87 206.31 129.15 205.02 129.15 207.21 125.34"/>
      </g>
      <g>
        <circle class="cls-2" cx="228.27" cy="128.88" r="7.35"/>
        <polygon class="cls-6" points="231.1 125.34 230.08 125.34 228.27 128.47 226.46 125.34 225.44 125.34 227.64 129.15 226.35 129.15 226.35 129.87 227.83 129.87 227.83 130.64 226.35 130.64 226.35 131.36 227.83 131.36 227.83 132.43 228.72 132.43 228.72 131.36 230.2 131.36 230.2 130.64 228.72 130.64 228.72 129.87 230.2 129.87 230.2 129.15 228.91 129.15 231.1 125.34"/>
      </g>
    </g>
    <g>
      <path d="M138.11,97.01v4.13h-.96v-.59h-5.91v.61h-.94v-4.15h.94v2.63h2.41v-3.23h-2.97v-3.49h.93v2.59h2.04v-3.46h.95v3.46h2.14v-2.6h.98v3.5h-3.12v3.23h2.55v-2.63h.96Z"/>
      <path d="M143.23,94.74c-.87,.29-1.8,.56-2.54,.79l-.37-.82c.73-.15,1.79-.43,2.82-.7l.09,.73Zm.92,5.21c-.81,.49-2.06,.97-3.06,1.24-.16-.18-.49-.53-.7-.69,1.03-.2,2.22-.55,2.91-.94l.85,.39Zm-1.27-6.33c-.47-.25-1.39-.61-2.09-.82l.41-.63c.68,.17,1.61,.5,2.09,.74l-.41,.71Zm1.89-.27c-.24,.3-.52,.58-.85,.83-.17-.16-.48-.36-.7-.45,.74-.5,1.23-1.17,1.48-1.75l.84,.13c-.09,.19-.19,.38-.31,.57h3.21l.14-.03,.62,.16c-.26,.52-.63,1.1-.97,1.45l-.73-.23c.17-.18,.34-.43,.5-.68h-1.38c.22,.72,.78,1.36,2.81,1.63-.17,.18-.39,.53-.47,.76-.28-.05-.54-.11-.77-.17v3.97h-6.52v-4.02h2.01c-.09-.2-.27-.47-.41-.61,1.61-.26,2.18-.74,2.41-1.56h-.91Zm2.49,2.76h-4.69v.56h4.69v-.56Zm0,1.12h-4.69v.57h4.69v-.57Zm0,1.14h-4.69v.58h4.69v-.58Zm.77-2.85c-1-.31-1.52-.78-1.83-1.31-.38,.61-1.04,1.03-2.23,1.31h4.06Zm-1.69,4.06c1.07,.36,2.27,.82,2.99,1.16l-1.07,.44c-.59-.32-1.64-.77-2.68-1.13l.76-.47Z"/>
    </g>
    <g>
      <path d="M47.2,123.01v4.13h-.96v-.59h-5.91v.61h-.94v-4.15h.94v2.63h2.41v-3.23h-2.97v-3.49h.93v2.59h2.04v-3.46h.95v3.46h2.14v-2.6h.98v3.5h-3.12v3.23h2.55v-2.63h.96Z"/>
      <path d="M52.32,120.74c-.87,.29-1.8,.56-2.54,.79l-.37-.82c.73-.15,1.79-.43,2.82-.7l.09,.73Zm.92,5.21c-.81,.49-2.06,.97-3.06,1.24-.16-.18-.49-.53-.7-.69,1.03-.2,2.22-.55,2.91-.94l.85,.39Zm-1.27-6.33c-.47-.25-1.39-.61-2.09-.82l.41-.63c.68,.17,1.61,.5,2.09,.74l-.41,.71Zm1.89-.27c-.24,.3-.52,.58-.85,.83-.17-.16-.48-.36-.7-.45,.74-.5,1.23-1.17,1.48-1.75l.84,.13c-.09,.19-.19,.38-.31,.57h3.21l.14-.03,.62,.16c-.26,.52-.63,1.1-.97,1.45l-.73-.23c.17-.18,.34-.43,.5-.68h-1.38c.22,.72,.78,1.36,2.81,1.63-.17,.18-.39,.53-.47,.76-.28-.05-.54-.11-.77-.17v3.97h-6.52v-4.02h2.01c-.09-.2-.27-.47-.41-.61,1.61-.26,2.18-.74,2.41-1.56h-.91Zm2.49,2.76h-4.69v.56h4.69v-.56Zm0,1.12h-4.69v.57h4.69v-.57Zm0,1.14h-4.69v.58h4.69v-.58Zm.77-2.85c-1-.31-1.52-.78-1.83-1.31-.38,.61-1.04,1.03-2.23,1.31h4.06Zm-1.69,4.06c1.07,.36,2.27,.82,2.99,1.16l-1.07,.44c-.59-.32-1.64-.77-2.68-1.13l.76-.47Z"/>
      <path d="M65.67,121.91c-.45,.34-.92,.64-1.4,.94h3.88v4.27h-.96v-.27h-3.77v.31h-.92v-3.36c-.56,.26-1.13,.5-1.7,.72-.11-.21-.4-.58-.57-.77,1.38-.46,2.71-1.08,3.91-1.84h-3.66v-.83h3.31v-1.12h-2.44v-.81h2.44v-1.17h.92v1.17h2.33v.44c.4-.41,.77-.84,1.09-1.29l.8,.42c-.63,.86-1.38,1.64-2.21,2.36h2.62v.83h-3.67Zm1.52,1.71h-3.77v.83h3.77v-.83Zm0,2.44v-.88h-3.77v.88h3.77Zm-1.83-4.98c.47-.35,.9-.73,1.31-1.12h-1.96v1.12h.65Z"/>
      <path d="M34.41,135.49c0-2.03,.84-3.63,1.98-4.78l.76,.36c-1.09,1.14-1.84,2.58-1.84,4.42s.75,3.28,1.84,4.42l-.76,.36c-1.14-1.15-1.98-2.75-1.98-4.78Z"/>
      <path d="M40.06,136.76c-.13,.94-.36,1.91-.67,2.55-.15-.11-.52-.28-.71-.35,.3-.6,.49-1.48,.59-2.34l.79,.14Zm1.18-.79v4.12h-.83v-4.07c-.57,.03-1.1,.06-1.56,.09l-.08-.82,.7-.02c.19-.24,.38-.5,.58-.78-.31-.44-.82-.98-1.26-1.4l.45-.62c.09,.08,.18,.16,.27,.24,.31-.55,.64-1.27,.82-1.81l.84,.3c-.36,.68-.78,1.47-1.14,2.01,.19,.2,.36,.4,.49,.58,.39-.6,.75-1.22,1.01-1.74l.79,.34c-.57,.91-1.32,2.01-1.99,2.84l1.33-.05c-.13-.28-.27-.55-.42-.8l.67-.29c.41,.65,.82,1.5,.96,2.05l-.71,.34c-.04-.16-.1-.35-.18-.56l-.74,.05Zm.92,.6c.27,.6,.54,1.38,.65,1.89l-.74,.26c-.09-.52-.36-1.31-.61-1.92l.7-.23Zm5.89,2.39v.84h-5.81v-.84h.99v-7.53h4.1v7.53h.72Zm-3.91-6.69v1.64h2.25v-1.64h-2.25Zm2.25,2.48h-2.25v1.65h2.25v-1.65Zm-2.25,4.21h2.25v-1.72h-2.25v1.72Z"/>
      <path d="M54.57,130.92c1.07,1.49,2.76,2.81,4.33,3.49-.23,.23-.45,.55-.61,.83-.53-.28-1.09-.62-1.62-1.01v.71h-4.98v-.68c-.51,.38-1.06,.72-1.61,1.02-.11-.22-.38-.55-.57-.74,1.71-.87,3.35-2.37,4.11-3.62h.95Zm-3.45,5.15h6.16v4.02h-.95v-.39h-4.3v.39h-.91v-4.02Zm5.38-1.96c-.94-.7-1.8-1.51-2.36-2.28-.51,.74-1.31,1.56-2.25,2.28h4.61Zm-4.47,2.8v1.96h4.3v-1.96h-4.3Z"/>
      <path d="M66.46,138.39c1,.29,2.2,.72,2.95,1.04l-.82,.65c-.75-.34-2.1-.85-3.15-1.15l.73-.54h-2.89l.7,.47c-.8,.48-2.08,.96-3.1,1.21-.17-.19-.47-.5-.7-.67,.95-.22,2.12-.63,2.78-1.01h-1.73v-4.33h7.14v4.33h-1.91Zm1.52-4.81h-6.32v-2.34h6.32v2.34Zm-5.83,1.72h5.25v-.57h-5.25v.57Zm0,1.21h5.25v-.58h-5.25v.58Zm0,1.21h5.25v-.59h-5.25v.59Zm4.85-5.74h-4.41v.86h4.41v-.86Z"/>
      <path d="M73.77,135.49c0,2.03-.84,3.63-1.98,4.78l-.76-.36c1.09-1.14,1.84-2.58,1.84-4.42s-.75-3.28-1.84-4.42l.76-.36c1.14,1.15,1.98,2.75,1.98,4.78Z"/>
    </g>
    <rect class="cls-6" x="80.14" y="49.78" width="176.81" height="29.62"/>
    <g>
      <path d="M37.31,60.04c-.28,.7-.63,1.41-1.02,2.08v6.78h-.92v-5.41c-.33,.43-.68,.83-1.02,1.16-.09-.22-.38-.72-.56-.95,1.04-.95,2.02-2.44,2.61-3.94l.91,.28Zm3.14,4.78v2.83h2.53v.89h-5.92v-.89h2.45v-2.83h-2.83v-.9h2.83v-2.44c-.76,.13-1.53,.23-2.25,.31-.04-.22-.17-.57-.28-.79,1.82-.23,3.89-.62,5.12-1.07l.68,.79c-.66,.22-1.48,.42-2.33,.59v2.61h2.67v.9h-2.67Z"/>
      <path d="M44.94,68.2c.66-.39,1.12-1.04,1.37-1.71l.77,.29c-.27,.73-.7,1.47-1.41,1.92l-.73-.5Zm8.88-5.47h-8.54v-.75h2.26c-.07-.27-.21-.61-.34-.86l.23-.05h-1.69v-.74h3.31v-.6h.93v.6h3.32v.74h-1.58l.25,.05c-.18,.33-.34,.62-.49,.86h2.34v.75Zm-1.04,3.35h-3.48c.49,.23,1.02,.54,1.32,.78l-.57,.59c-.34-.31-1.05-.73-1.63-.99l.38-.38h-2.44v-2.92h6.42v2.92Zm-.92-2.23h-4.61v.45h4.61v-.45Zm0,1.08h-4.61v.46h4.61v-.46Zm-1.31,3.12c.39,0,.46-.11,.5-.92,.19,.13,.56,.25,.8,.3-.11,1.11-.36,1.38-1.22,1.38h-1.76c-1.11,0-1.39-.22-1.39-1.03v-1.19h.9v1.18c0,.24,.09,.28,.58,.28h1.59Zm-2.43-6.98c.15,.28,.29,.63,.34,.86l-.2,.05h2.46l-.16-.04c.14-.25,.29-.59,.4-.87h-2.84Zm4.3,5.32c.65,.51,1.38,1.24,1.72,1.78l-.77,.46c-.3-.53-1.02-1.3-1.66-1.81l.71-.43Z"/>
      <path d="M57.22,65.59c-.13,.94-.36,1.91-.67,2.55-.15-.11-.52-.28-.71-.35,.3-.6,.49-1.48,.59-2.34l.79,.14Zm1.18-.79v4.12h-.83v-4.07c-.57,.03-1.1,.06-1.56,.09l-.08-.82,.7-.02c.19-.24,.38-.5,.58-.78-.31-.44-.82-.98-1.26-1.4l.45-.62c.09,.08,.18,.16,.27,.24,.31-.55,.64-1.27,.82-1.81l.84,.3c-.36,.68-.78,1.47-1.14,2.01,.19,.2,.36,.4,.49,.58,.39-.6,.75-1.22,1.01-1.74l.79,.34c-.57,.91-1.32,2.01-1.99,2.84l1.33-.05c-.13-.28-.27-.55-.42-.8l.67-.29c.41,.65,.82,1.5,.96,2.05l-.71,.34c-.04-.16-.1-.35-.18-.56l-.74,.05Zm.92,.6c.27,.6,.54,1.38,.65,1.89l-.74,.26c-.09-.52-.36-1.31-.61-1.92l.7-.23Zm5.89,2.39v.84h-5.81v-.84h.99v-7.53h4.1v7.53h.72Zm-3.91-6.69v1.64h2.25v-1.64h-2.25Zm2.25,2.48h-2.25v1.65h2.25v-1.65Zm-2.25,4.21h2.25v-1.72h-2.25v1.72Z"/>
      <path d="M71.73,59.75c1.07,1.49,2.76,2.81,4.33,3.49-.23,.23-.45,.55-.61,.83-.53-.28-1.09-.62-1.62-1.01v.71h-4.98v-.68c-.51,.38-1.06,.72-1.61,1.02-.11-.22-.38-.55-.57-.74,1.71-.87,3.35-2.37,4.11-3.62h.95Zm-3.45,5.15h6.16v4.02h-.95v-.39h-4.3v.39h-.91v-4.02Zm5.38-1.96c-.94-.7-1.8-1.51-2.36-2.28-.51,.74-1.31,1.56-2.25,2.28h4.61Zm-4.47,2.8v1.96h4.3v-1.96h-4.3Z"/>
    </g>
    <g>
      <path class="cls-3" d="M116.26,66.11h-1.04v1.75h-.94v-.43h-2.13v.52c0,.51-.13,.72-.47,.85-.34,.12-.86,.13-1.7,.13-.05-.21-.19-.55-.32-.75,.55,.02,1.15,.02,1.31,.01,.18-.01,.24-.06,.24-.23v-.53h-3.12v-.7h3.12v-.62h-4v-.73h4v-.57h-3.03v-.66h3.03v-.59h-2.77v-1.84h2.77v-.51h-3.79v-.75h3.79v-.73h.94v.73h3.9v.75h-3.9v.51h2.91v1.84h-2.91v.59h3.07v1.23h1.04v.73Zm-5.05-3.17v-.6h-1.88v.6h1.88Zm.94-.6v.6h1.97v-.6h-1.97Zm0,3.04h2.13v-.57h-2.13v.57Zm2.13,.73h-2.13v.62h2.13v-.62Z"/>
      <path class="cls-3" d="M123.89,66.59c.88,.62,2.17,1.13,3.39,1.36-.21,.2-.48,.58-.62,.83-1.3-.35-2.64-1.02-3.58-1.88v2.01h-.91v-1.94c-.95,.8-2.3,1.45-3.55,1.8-.14-.24-.4-.59-.61-.79,1.19-.25,2.49-.77,3.37-1.39h-3.09v-.78h3.88v-.61h-2.95v-.7h2.95v-.6h-3.44v-.74h2.05c-.09-.28-.26-.64-.42-.91l.24-.04h-2.27v-.78h1.48c-.15-.39-.45-.94-.73-1.35l.81-.27c.31,.43,.66,1.04,.8,1.43l-.51,.19h1.1v-1.71h.87v1.71h.99v-1.71h.88v1.71h1.08l-.38-.12c.24-.4,.55-1.03,.7-1.48l.96,.24c-.27,.49-.57,.99-.83,1.36h1.44v.78h-1.93c-.19,.34-.39,.67-.56,.95h2.12v.74h-3.54v.6h3.07v.7h-3.07v.61h3.94v.78h-3.13Zm-2.57-4.38c.18,.29,.36,.65,.43,.89l-.29,.06h2.11c.15-.27,.31-.63,.44-.95h-2.69Z"/>
      <path class="cls-3" d="M134.33,63.66c-.45,.34-.92,.64-1.4,.94h3.88v4.27h-.96v-.27h-3.77v.31h-.92v-3.36c-.56,.26-1.13,.5-1.7,.72-.11-.21-.4-.58-.57-.77,1.38-.46,2.71-1.08,3.91-1.84h-3.66v-.83h3.31v-1.12h-2.44v-.81h2.44v-1.17h.92v1.17h2.33v.44c.4-.41,.77-.84,1.09-1.29l.8,.42c-.63,.86-1.38,1.64-2.21,2.36h2.62v.83h-3.67Zm1.52,1.71h-3.77v.83h3.77v-.83Zm0,2.44v-.88h-3.77v.88h3.77Zm-1.83-4.98c.47-.35,.9-.73,1.31-1.12h-1.96v1.12h.65Z"/>
      <path class="cls-3" d="M146.18,64.32c0-2.03,.84-3.63,1.98-4.78l.76,.36c-1.09,1.14-1.84,2.58-1.84,4.42s.75,3.28,1.84,4.42l-.76,.36c-1.14-1.15-1.98-2.75-1.98-4.78Z"/>
      <path class="cls-3" d="M156.42,66.59c.88,.62,2.17,1.13,3.39,1.36-.21,.2-.48,.58-.62,.83-1.3-.35-2.64-1.02-3.58-1.88v2.01h-.91v-1.94c-.95,.8-2.3,1.45-3.55,1.8-.14-.24-.4-.59-.61-.79,1.19-.25,2.49-.77,3.37-1.39h-3.09v-.78h3.88v-.61h-2.95v-.7h2.95v-.6h-3.44v-.74h2.05c-.09-.28-.26-.64-.42-.91l.24-.04h-2.27v-.78h1.48c-.15-.39-.45-.94-.73-1.35l.81-.27c.31,.43,.66,1.04,.8,1.43l-.51,.19h1.1v-1.71h.87v1.71h.99v-1.71h.88v1.71h1.08l-.38-.12c.24-.4,.55-1.03,.7-1.48l.96,.24c-.27,.49-.57,.99-.83,1.36h1.44v.78h-1.93c-.19,.34-.39,.67-.56,.95h2.12v.74h-3.54v.6h3.07v.7h-3.07v.61h3.94v.78h-3.13Zm-2.57-4.38c.18,.29,.36,.65,.43,.89l-.29,.06h2.11c.15-.27,.31-.63,.44-.95h-2.69Z"/>
      <path class="cls-3" d="M169.93,61.53c-.27,.63-.65,1.16-1.11,1.6,.59,.34,1.28,.59,2.02,.75-.19,.18-.46,.54-.58,.78-.8-.21-1.53-.53-2.17-.96-.61,.4-1.33,.7-2.11,.94-.05-.11-.15-.26-.26-.41-.17,.59-.36,1.18-.55,1.61l-.64-.32c.16-.39,.31-.95,.44-1.5h-.77v3.84c0,.45-.07,.7-.37,.86-.29,.13-.7,.15-1.32,.15-.03-.25-.15-.63-.27-.88,.4,.02,.8,.02,.92,.01,.12-.01,.16-.03,.16-.15v-2.71c-.37,.86-.84,1.67-1.35,2.17-.09-.27-.31-.65-.47-.89,.6-.53,1.17-1.48,1.53-2.4h-1.39v-.81h2.55c-.55-.4-1.42-.87-2.14-1.18l.58-.6c.28,.11,.6,.25,.9,.4,.31-.24,.61-.54,.86-.84h-2.63v-.79h3.29l.15-.03,.6,.37c-.37,.59-.97,1.21-1.56,1.67,.32,.18,.59,.37,.8,.53l-.43,.47h.62l.14-.05,.56,.2c-.03,.13-.06,.26-.09,.4,.57-.16,1.08-.37,1.53-.63-.34-.32-.64-.67-.89-1.05-.2,.22-.4,.41-.6,.58-.18-.15-.54-.41-.77-.53,.79-.57,1.5-1.47,1.9-2.41l.87,.24c-.12,.27-.26,.53-.41,.79h3.15v.78h-.69Zm.51,3.75s0,.24-.03,.37c-.17,1.79-.35,2.56-.63,2.86-.2,.2-.4,.26-.67,.3-.25,.02-.66,.02-1.11,0-.02-.26-.12-.62-.25-.86,.39,.04,.76,.05,.93,.05,.15,0,.23-.02,.32-.11,.17-.15,.31-.66,.44-1.83h-1.45c-.34,1.23-1.04,2.23-2.62,2.85-.11-.22-.36-.56-.55-.72,1.3-.47,1.91-1.22,2.22-2.13h-1.4v-.78h1.6c.05-.31,.09-.62,.12-.95h.92c-.03,.33-.07,.64-.12,.95h2.28Zm-3.38-3.75c.26,.41,.6,.77,1.01,1.1,.35-.31,.63-.68,.84-1.1h-1.85Z"/>
      <path class="cls-3" d="M180.73,61.65c-.06,3.19-.1,6.18,.37,6.32,.06,.02,.11-.77,.13-1.63,.15,.22,.41,.52,.54,.63-.06,1.74-.45,2.12-1.01,1.9-.96-.35-.94-3.05-.92-6.35h-.97v.23c0,.67-.03,1.4-.14,2.13,.46,.36,.88,.72,1.14,1.04l-.54,.75c-.2-.25-.48-.53-.81-.82-.32,1.13-.91,2.21-2,3.07-.16-.16-.5-.45-.72-.58,1.14-.86,1.7-1.98,1.97-3.11-.34-.26-.69-.51-1.02-.72v.79h-1.63v.89h1.48v.79h-1.48v1.9h-.87v-1.9h-1.56v-.79h1.56v-.89h-1.66v-.8h.88c-.06-.37-.21-.89-.4-1.29l.49-.13h-1.14v-.79h1.83v-.82h-1.44v-.78h1.44v-.97h.87v.97h1.38v.78h-1.38v.82h1.61v-.64h1.28v-1.91h.86v1.91h1.86Zm-6.92,1.43c.2,.43,.38,.98,.43,1.33l-.29,.09h1.48l-.3-.09c.16-.36,.34-.92,.45-1.33h-1.77Zm4.2-.56h-1.11v.56h-.98l.47,.12c-.18,.46-.36,.94-.54,1.3h.89l-.14-.09,.49-.65c.27,.16,.55,.34,.84,.54,.06-.54,.08-1.07,.08-1.56v-.22Z"/>
      <path class="cls-3" d="M186.6,62.19c-.31,.51-.68,1.03-1.09,1.53v5.21h-.93v-4.18c-.33,.33-.67,.64-.99,.9-.12-.2-.45-.61-.64-.79,1.02-.73,2.1-1.87,2.77-3l.88,.33Zm-.38-2.1c-.68,.89-1.72,1.88-2.64,2.53-.11-.21-.36-.57-.53-.75,.83-.54,1.79-1.43,2.28-2.15l.89,.37Zm6,3.84h-1.44v3.85c0,.53-.12,.8-.5,.95-.37,.14-.96,.15-1.89,.15-.04-.27-.17-.66-.3-.93,.64,.02,1.31,.02,1.49,.01,.19,0,.25-.05,.25-.19v-3.84h-3.16v-.89h5.55v.89Zm-.28-2.73h-4.85v-.89h4.85v.89Z"/>
      <path class="cls-3" d="M195.35,65.59c-.13,.94-.36,1.91-.67,2.55-.15-.11-.52-.28-.71-.35,.3-.6,.49-1.48,.59-2.34l.79,.14Zm1.18-.79v4.12h-.83v-4.07c-.57,.03-1.1,.06-1.56,.09l-.08-.82,.7-.02c.19-.24,.38-.5,.58-.78-.31-.44-.82-.98-1.26-1.4l.45-.62c.09,.08,.18,.16,.27,.24,.31-.55,.64-1.27,.82-1.81l.84,.3c-.36,.68-.78,1.47-1.14,2.01,.19,.2,.36,.4,.49,.58,.39-.6,.75-1.22,1.01-1.74l.79,.34c-.57,.91-1.32,2.01-1.99,2.84l1.33-.05c-.13-.28-.27-.55-.42-.8l.67-.29c.41,.65,.82,1.5,.96,2.05l-.71,.34c-.04-.16-.1-.35-.18-.56l-.74,.05Zm.92,.6c.27,.6,.54,1.38,.65,1.89l-.74,.26c-.09-.52-.36-1.31-.61-1.92l.7-.23Zm5.89,2.39v.84h-5.81v-.84h.99v-7.53h4.1v7.53h.72Zm-3.91-6.69v1.64h2.25v-1.64h-2.25Zm2.25,2.48h-2.25v1.65h2.25v-1.65Zm-2.25,4.21h2.25v-1.72h-2.25v1.72Z"/>
      <path class="cls-3" d="M209.86,59.75c1.07,1.49,2.76,2.81,4.33,3.49-.23,.23-.45,.55-.61,.83-.53-.28-1.09-.62-1.62-1.01v.71h-4.98v-.68c-.51,.38-1.06,.72-1.61,1.02-.11-.22-.38-.55-.57-.74,1.71-.87,3.35-2.37,4.11-3.62h.95Zm-3.45,5.15h6.16v4.02h-.95v-.39h-4.3v.39h-.91v-4.02Zm5.38-1.96c-.94-.7-1.8-1.51-2.36-2.28-.51,.74-1.31,1.56-2.25,2.28h4.61Zm-4.47,2.8v1.96h4.3v-1.96h-4.3Z"/>
      <path class="cls-3" d="M221.75,67.23c1,.29,2.2,.72,2.95,1.04l-.82,.65c-.75-.34-2.1-.85-3.15-1.15l.73-.54h-2.89l.7,.47c-.8,.48-2.08,.96-3.1,1.21-.17-.19-.47-.5-.7-.67,.95-.22,2.12-.63,2.78-1.01h-1.73v-4.33h7.14v4.33h-1.91Zm1.52-4.81h-6.32v-2.34h6.32v2.34Zm-5.83,1.72h5.25v-.57h-5.25v.57Zm0,1.21h5.25v-.58h-5.25v.58Zm0,1.21h5.25v-.59h-5.25v.59Zm4.85-5.74h-4.41v.86h4.41v-.86Z"/>
      <path class="cls-3" d="M229.06,64.32c0,2.03-.84,3.63-1.98,4.78l-.76-.36c1.09-1.14,1.84-2.58,1.84-4.42s-.75-3.28-1.84-4.42l.76-.36c1.14,1.15,1.98,2.75,1.98,4.78Z"/>
    </g>
    <g>
      <path d="M190,97.05v.91h-8.99v-.91h2.23v-2.16h-1.85v-.9h1.85v-1.93h.96v1.93h2.58v-1.93h.97v1.93h1.92v.9h-1.92v2.16h2.25Zm-5.33,1.78c-.72,.85-1.82,1.77-2.81,2.33-.19-.19-.53-.49-.75-.65,.96-.51,2.04-1.35,2.58-2.06l.98,.38Zm-.47-1.78h2.58v-2.16h-2.58v2.16Zm2.9,1.37c.9,.65,2.12,1.58,2.76,2.19l-.9,.54c-.57-.58-1.77-1.56-2.68-2.25l.82-.48Z"/>
      <path d="M195.56,94.1c-.16,.34-.34,.68-.52,1h4.71v4.98c0,.5-.1,.78-.46,.92-.35,.15-.91,.15-1.74,.15-.03-.25-.17-.65-.29-.9,.59,.03,1.19,.03,1.36,.02,.17,0,.22-.05,.22-.2v-.86h-3.91v1.95h-.92v-4.58c-.44,.52-.94,.99-1.5,1.38-.14-.2-.42-.55-.61-.72,1.13-.76,2-1.91,2.63-3.14h-2.36v-.87h2.74c.17-.42,.31-.84,.42-1.25l.95,.22c-.11,.34-.22,.69-.35,1.03h4.97v.87h-5.34Zm3.28,1.81h-3.91v.87h3.91v-.87Zm0,2.52v-.87h-3.91v.87h3.91Z"/>
      <path d="M205.98,97.1l-1.01,.32v2.67c0,.47-.1,.71-.36,.86-.27,.14-.67,.18-1.3,.17-.03-.22-.14-.62-.25-.86,.39,.01,.77,.01,.88,.01,.12,0,.17-.04,.17-.18v-2.41l-1.14,.36-.21-.9c.37-.1,.84-.23,1.35-.38v-1.97h-1.21v-.86h1.21v-1.93h.86v1.93h.96v.86h-.96v1.73l.89-.27,.12,.85Zm4.82-1.12v.97h1.18v.85h-1.18v2.32c0,.5-.1,.75-.42,.89-.33,.14-.83,.15-1.55,.15-.04-.26-.16-.64-.28-.89,.51,.03,1.03,.03,1.18,.02,.15-.01,.19-.05,.19-.19v-2.3h-3.73v-.85h3.73v-.97h-3.84v-.85h2.55v-1.08h-2.08v-.85h2.08v-1.18h.89v1.18h2.05v.85h-2.05v1.08h2.52v.85h-1.24Zm-3.24,2c.43,.51,.92,1.22,1.13,1.7l-.79,.47c-.18-.48-.64-1.22-1.07-1.76l.73-.41Z"/>
      <path d="M220.35,92.13c.64,1.3,1.9,2.77,2.98,3.57-.24,.2-.6,.57-.78,.83-.27-.23-.56-.51-.84-.82,0,.09,0,.3,0,.39-.13,3.03-.27,4.19-.61,4.58-.23,.29-.46,.36-.82,.41-.34,.04-.95,.03-1.55,0,0-.28-.14-.67-.31-.94,.61,.06,1.18,.07,1.41,.07,.2,0,.32-.03,.43-.14,.23-.24,.36-1.18,.46-3.5h-2.31c-.25,1.94-.89,3.69-3.46,4.63-.1-.24-.38-.64-.59-.83,2.3-.76,2.83-2.22,3.04-3.8h-1.87v-.77c-.29,.3-.6,.57-.91,.81-.17-.2-.57-.57-.79-.74,1.24-.84,2.34-2.21,2.96-3.73l.99,.29c-.52,1.21-1.27,2.33-2.12,3.23h6.02c-.83-.91-1.65-2.07-2.22-3.18l.9-.36Z"/>
      <path d="M229.39,95.41c.64,0,1.16,.52,1.16,1.16s-.52,1.16-1.16,1.16-1.16-.52-1.16-1.16,.52-1.16,1.16-1.16Z"/>
      <path d="M241.96,92.13c.64,1.3,1.9,2.77,2.98,3.57-.24,.2-.6,.57-.78,.83-.27-.23-.56-.51-.84-.82,0,.09,0,.3,0,.39-.13,3.03-.27,4.19-.61,4.58-.23,.29-.46,.36-.82,.41-.34,.04-.95,.03-1.55,0-.01-.28-.14-.67-.31-.94,.61,.06,1.18,.07,1.41,.07,.2,0,.32-.03,.43-.14,.23-.24,.36-1.18,.46-3.5h-2.31c-.25,1.94-.89,3.69-3.46,4.63-.1-.24-.38-.64-.59-.83,2.3-.76,2.83-2.22,3.04-3.8h-1.87v-.77c-.29,.3-.6,.57-.91,.81-.17-.2-.57-.57-.79-.74,1.24-.84,2.34-2.21,2.96-3.73l.99,.29c-.52,1.21-1.27,2.33-2.12,3.23h6.02c-.83-.91-1.65-2.07-2.22-3.18l.9-.36Z"/>
      <path d="M246.69,92.36h4.48v.82h-1.3v1h1.09v6.8h-.75v-.52h-2.57v.66h-.73v-6.94h1.17v-1h-1.39v-.82Zm.95,5.81h2.57v-.82s-.07,0-.11,0h-.41c-.41,0-.53-.12-.53-.64v-1.76h-.47v.79c0,.59-.12,1.36-.68,1.9-.08-.1-.27-.26-.37-.33,.5-.47,.58-1.08,.58-1.58v-.78h-.58v3.21Zm2.57,1.55v-.88h-2.57v.88h2.57Zm-.99-6.54h-.5v1h.5v-1Zm.99,1.78h-.58v1.75c0,.13,0,.15,.11,.15h.28c.1,0,.13-.01,.14-.03,.02,.01,.03,.02,.05,.04v-1.91Zm4.2,5.22c.41,0,.48-.25,.54-1.64,.21,.17,.59,.33,.84,.39-.1,1.64-.35,2.11-1.31,2.11h-1.55c-.99,0-1.3-.27-1.3-1.32v-4.22h2.89v-2.17h-2.92v-.89h3.82v4.6h-.9v-.66h-1.97v3.34c0,.39,.08,.46,.5,.46h1.36Z"/>
    </g>
    <g>
      <g>
        <path d="M52.17,431.85c-.39,.13-.78,.25-1.17,.37v3.58h-.86v-3.31l-1.57,.48-.24-.89c.5-.13,1.13-.3,1.81-.49v-2.1h-.8c-.12,.53-.26,1.01-.41,1.39-.15-.12-.49-.32-.68-.42,.35-.81,.53-2.07,.63-3.26l.79,.13c-.05,.43-.1,.86-.17,1.28h.64v-1.98h.86v1.98h.93v.88h-.93v1.84l1.05-.3,.12,.82Zm5.3-3.61s0,.32,0,.44c-.22,4.49-.41,6.07-.8,6.56-.21,.3-.41,.39-.73,.44-.27,.05-.69,.04-1.13,.02,0-.27-.11-.65-.26-.91,.42,.04,.79,.04,.98,.04,.16,0,.26-.04,.36-.18,.29-.33,.5-1.75,.68-5.55h-.28c-.51,2.58-1.58,5.21-3.2,6.51-.18-.17-.51-.41-.77-.55,1.61-1.15,2.66-3.54,3.16-5.96h-.67c-.44,1.68-1.31,3.51-2.37,4.45-.17-.17-.47-.4-.72-.53,1.03-.8,1.85-2.38,2.31-3.92h-.71c-.31,.72-.67,1.35-1.08,1.84-.15-.13-.52-.41-.72-.53,.81-.88,1.38-2.3,1.71-3.78l.84,.16c-.11,.5-.26,.99-.41,1.45h3.82Z"/>
        <path d="M62.43,426.94c-.26,.73-.6,1.46-.98,2.16v6.7h-.88v-5.3c-.25,.35-.52,.69-.78,.97-.09-.22-.35-.72-.51-.94,.91-.94,1.76-2.39,2.28-3.85l.87,.26Zm6.07,5.48h-2.65v3.39h-.93v-3.39h-2.77v-.91h2.77v-1.98h-1.42c-.2,.54-.42,1.03-.67,1.41-.18-.13-.58-.35-.8-.45,.56-.8,.97-2.08,1.19-3.33l.9,.18c-.09,.43-.2,.86-.32,1.28h1.12v-1.86h.93v1.86h2.2v.91h-2.2v1.98h2.65v.91Z"/>
        <path d="M71.93,433.65c-.25,.82-.68,1.64-1.13,2.17-.16-.14-.51-.37-.7-.48,.45-.47,.82-1.17,1.01-1.89l.82,.2Zm1.6-.35h-2.91v-6.3h2.91v6.3Zm-.84-5.54h-1.26v1.11h1.26v-1.11Zm0,1.82h-1.26v1.13h1.26v-1.13Zm0,1.83h-1.26v1.14h1.26v-1.14Zm.33,2.03c.32,.49,.67,1.14,.83,1.57l-.73,.35c-.13-.43-.49-1.12-.8-1.62l.7-.3Zm6.34,.75h-.53v.72c0,.41-.09,.63-.38,.76-.3,.13-.76,.13-1.45,.13-.03-.21-.14-.54-.25-.75,.46,.02,.92,.02,1.05,.01,.14,0,.17-.04,.17-.16v-.71h-2.89v1.63h-.83v-1.63h-.59v-.68h.59v-2.53h1.84v-.48h-2.39v-.69h1.35v-.53h-.9v-.66h.9v-.49h-1.15v-.69h1.15v-.81h.82v.81h1.28v-.81h.83v.81h1.15v.69h-1.15v.49h.99v.66h-.99v.53h1.36v.69h-2.43v.48h1.92v2.53h.53v.68Zm-4.28-2.52v.59h1.01v-.59h-1.01Zm0,1.84h1.01v-.64h-1.01v.64Zm.79-4.89h1.28v-.49h-1.28v.49Zm0,1.19h1.28v-.53h-1.28v.53Zm1.04,1.86v.59h1.06v-.59h-1.06Zm1.06,1.84v-.64h-1.06v.64h1.06Z"/>
        <path d="M86.2,427.22c0,1.81,.23,5.52,4.04,7.77-.21,.16-.59,.56-.75,.79-2.27-1.37-3.34-3.41-3.83-5.25-.74,2.41-1.99,4.16-3.84,5.27-.18-.19-.61-.58-.86-.75,2.15-1.11,3.36-3.08,3.94-5.79l.51,.09c-.07-.42-.11-.83-.13-1.19h-2.38v-.94h3.3Z"/>
        <path d="M64.26,442.13c0,1.81,.23,5.52,4.04,7.77-.21,.16-.59,.56-.75,.79-2.27-1.37-3.34-3.41-3.83-5.25-.74,2.41-1.99,4.16-3.84,5.27-.18-.19-.61-.58-.86-.75,2.15-1.11,3.36-3.08,3.94-5.79l.51,.09c-.07-.42-.11-.83-.13-1.19h-2.38v-.94h3.3Z"/>
        <path d="M75.98,446.45v1.01h2.43v3.25h-.92v-.31h-3.83v.32h-.89v-3.26h2.28v-1.01h-2.79v-.84h2.79v-.98h-2.97v.32c0,1.71-.15,4.18-1.22,5.8-.18-.16-.59-.4-.82-.49,1.02-1.53,1.1-3.72,1.1-5.31v-2.89h7.39v2.57h-2.55v.98h3.13v.84h-3.13Zm-3.9-2.65h5.51v-.92h-5.51v.92Zm5.41,4.48h-3.83v1.31h3.83v-1.31Z"/>
        <path d="M86.35,445.48c-.45,.34-.92,.64-1.4,.94h3.88v4.27h-.96v-.27h-3.77v.31h-.92v-3.36c-.56,.26-1.13,.5-1.7,.72-.11-.21-.4-.58-.57-.77,1.38-.46,2.71-1.08,3.91-1.84h-3.66v-.83h3.31v-1.12h-2.44v-.81h2.44v-1.17h.92v1.17h2.33v.44c.4-.41,.77-.84,1.09-1.29l.8,.42c-.63,.86-1.38,1.64-2.21,2.36h2.62v.83h-3.67Zm1.52,1.71h-3.77v.83h3.77v-.83Zm0,2.44v-.88h-3.77v.88h3.77Zm-1.83-4.98c.47-.35,.9-.73,1.31-1.12h-1.96v1.12h.65Z"/>
      </g>
      <g>
        <g>
          <path class="cls-7" d="M126.21,455.5v-21.85c0-2.38-1.93-4.31-4.31-4.31h-14.85c-2.38,0-4.31,1.93-4.31,4.31v21.85h23.48Z"/>
          <circle class="cls-7" cx="114.47" cy="419.09" r="5.78"/>
        </g>
        <g>
          <path class="cls-7" d="M159.74,455.5v-21.85c0-2.38-1.93-4.31-4.31-4.31h-14.85c-2.38,0-4.31,1.93-4.31,4.31v21.85h23.48Z"/>
          <circle class="cls-7" cx="148" cy="419.09" r="5.78"/>
        </g>
        <g>
          <path class="cls-7" d="M193.27,455.5v-21.85c0-2.38-1.93-4.31-4.31-4.31h-14.85c-2.38,0-4.31,1.93-4.31,4.31v21.85h23.48Z"/>
          <circle class="cls-7" cx="181.53" cy="419.09" r="5.78"/>
        </g>
      </g>
    </g>
    <g>
      <path d="M91.03,199.65c.43,.69,1.22,1,2.33,1.05,1.13,.05,3.45,.02,4.72-.07-.11,.21-.25,.64-.3,.91-1.15,.05-3.27,.07-4.43,.03-1.24-.05-2.1-.38-2.71-1.15-.42,.41-.86,.81-1.35,1.24l-.46-.92c.4-.27,.89-.65,1.31-1.02v-2.41h-1.2v-.86h2.09v3.2Zm-.48-4.64c-.28-.5-.95-1.19-1.54-1.67l.71-.52c.58,.45,1.28,1.11,1.58,1.6l-.75,.59Zm3.64,4.62h-2.73v-.7h2.73v-.49h-2.09v-2.86h2.09v-.5h-2.36v-.67h2.36v-.62h.91v.62h2.4v.67h-2.4v.5h2.16v2.86h-2.16v.49h2.82v.7h-2.82v.82h-.91v-.82Zm-1.77-5.41h-.82v-1.32h6.17v1.32h-.86v-.63h-4.49v.63Zm.48,2.5h1.29v-.54h-1.29v.54Zm1.29,1.12v-.56h-1.29v.56h1.29Zm.91-1.66v.54h1.33v-.54h-1.33Zm1.33,1.1h-1.33v.56h1.33v-.56Z"/>
      <path d="M108.37,200.58c0,.54-.13,.82-.49,.96-.37,.15-.95,.17-1.87,.16-.04-.25-.19-.66-.31-.9,.64,.03,1.3,.02,1.49,.02,.18,0,.25-.06,.25-.25v-1.79h-2.42v2.86h-.93v-2.86h-2.3c-.16,1.1-.52,2.22-1.25,3.03-.14-.18-.52-.5-.73-.61,1.09-1.21,1.19-2.98,1.19-4.39v-3.56h7.37v7.33Zm-4.28-2.68v-1.48h-2.17v.4c0,.34,0,.71-.04,1.08h2.21Zm-2.17-3.76v1.41h2.17v-1.41h-2.17Zm5.52,0h-2.42v1.41h2.42v-1.41Zm0,3.76v-1.48h-2.42v1.48h2.42Z"/>
      <path d="M113.68,195.53h1.81v.86h-1.81v.66c.49,.36,1.54,1.26,1.81,1.5l-.53,.79c-.28-.32-.81-.87-1.28-1.32v3.71h-.91v-3.97c-.49,1.03-1.11,2.04-1.73,2.67-.1-.27-.34-.66-.49-.9,.76-.72,1.56-1.99,2.03-3.14h-1.81v-.86h2v-1.49c-.61,.12-1.23,.22-1.81,.29-.04-.21-.17-.53-.28-.72,1.45-.22,3.12-.57,4.07-.99l.67,.71c-.5,.2-1.1,.37-1.74,.52v1.68Zm3.3,3.73h-.9v-5.5h.9v5.5Zm2.42-6.5v7.81c0,.58-.14,.85-.49,1.01-.37,.14-.97,.17-1.88,.17-.05-.26-.19-.69-.33-.96,.68,.03,1.31,.03,1.51,.02,.19,0,.26-.06,.26-.24v-7.81h.93Z"/>
      <path d="M127.95,195.46c.7,1.07,1.78,2.06,2.88,2.58-.2,.17-.5,.52-.64,.74-.29-.15-.57-.34-.85-.54v2.38h1.32v.82h-9.02v-.82h1.35v-2.33c-.27,.22-.55,.43-.83,.61-.15-.19-.5-.55-.72-.71,1.11-.63,2.12-1.6,2.78-2.73h-2.37v-.82h2.44c-.24-.5-.65-1.16-1.03-1.66l.79-.35c.45,.55,.92,1.27,1.14,1.76l-.49,.25h2.93l-.56-.2c.39-.51,.88-1.3,1.15-1.88l.98,.29c-.39,.63-.86,1.31-1.25,1.79h2.51v.82h-2.5Zm.94,2.41c-.77-.67-1.45-1.51-1.94-2.41h-1.66c-.48,.91-1.12,1.73-1.84,2.41h5.44Zm-4.1,.8h-.97v1.95h.97v-1.95Zm1.84,0h-.99v1.95h.99v-1.95Zm1.84,1.95v-1.95h-.99v1.95h.99Z"/>
      <path d="M56.4,210.07c0-2.03,.84-3.63,1.98-4.78l.76,.36c-1.09,1.14-1.84,2.58-1.84,4.42s.75,3.28,1.84,4.42l-.76,.36c-1.14-1.15-1.98-2.75-1.98-4.78Z"/>
      <path d="M69.5,209.65c-.58,.46-1.32,.95-1.95,1.3,.59,.97,1.39,1.73,2.41,2.15-.22,.19-.51,.55-.65,.81-1.84-.89-2.92-2.76-3.52-5.1h-.02c-.27,.23-.59,.45-.92,.64,1.89,1.65,1.85,4.16,.88,4.86-.35,.28-.64,.37-1.12,.37-.25,0-.55-.01-.86-.03-.02-.25-.1-.62-.26-.89,.36,.04,.69,.05,.93,.05,.26,0,.47-.02,.66-.2,.3-.22,.45-.82,.33-1.53-1.09,.85-2.66,1.68-3.98,2.12-.12-.22-.31-.57-.49-.77,1.47-.38,3.23-1.26,4.22-2.15-.08-.17-.17-.34-.27-.51-.85,.59-2.13,1.23-3.13,1.59-.1-.22-.3-.53-.47-.72,1.03-.27,2.41-.87,3.17-1.43-.11-.12-.23-.24-.37-.35-.77,.37-1.62,.67-2.41,.89-.09-.17-.34-.56-.49-.72,1.14-.26,2.37-.68,3.28-1.22h-1.84v-.8h5.47v.8h-1.47c.14,.5,.32,.99,.53,1.44,.57-.37,1.2-.84,1.61-1.22l.73,.62Zm-7.32-1.25h-.92v-2.08h3.64v-.84h.96v.84h3.7v2.08h-.94v-1.23h-6.44v1.23Z"/>
      <path d="M73.24,207.5c-.33,.25-.67,.47-.99,.65-.14-.18-.48-.51-.68-.68,.98-.45,2-1.21,2.6-1.98l.86,.31c-.26,.33-.57,.66-.91,.97v2.31h-.88v-1.58Zm2.36,6.06c-.81,.46-2.07,.89-3.07,1.14-.15-.18-.47-.53-.68-.68,1.03-.18,2.23-.49,2.92-.84l.83,.38Zm-2.47-4.15h6.52v3.76h-6.52v-3.76Zm.91,1.08h4.67v-.51h-4.67v.51Zm0,1.06h4.67v-.52h-4.67v.52Zm0,1.06h4.67v-.52h-4.67v.52Zm3.09-6.11c-.61,.03-1.23,.06-1.81,.07-.03-.17-.11-.44-.19-.6,1.56-.05,3.42-.19,4.47-.39l.51,.58c-.59,.11-1.32,.2-2.09,.27v.6h2.69v.67h-2.69v.6h2.29v.67h-5.28v-.67h2.1v-.6h-2.49v-.67h2.49v-.53Zm.67,6.7c1.06,.32,2.26,.73,2.97,1.02l-1.1,.45c-.58-.29-1.62-.69-2.66-1.01l.79-.46Z"/>
      <path d="M84.58,212.51c-.26,.82-.71,1.64-1.19,2.17-.17-.14-.52-.39-.73-.51,.48-.46,.86-1.16,1.06-1.87l.86,.21Zm1.72-.36h-3.09v-6.29h3.09v6.29Zm-.87-5.53h-1.38v1.1h1.38v-1.1Zm0,1.82h-1.38v1.12h1.38v-1.12Zm0,1.82h-1.38v1.14h1.38v-1.14Zm6.13-1.67c-.22,1.68-.68,3-1.34,4.01,.49,.57,1.09,1.03,1.8,1.34-.19,.16-.47,.51-.6,.74-.69-.34-1.26-.81-1.75-1.37-.5,.56-1.09,1-1.75,1.33-.12-.22-.35-.59-.54-.75,.66-.29,1.25-.73,1.75-1.32-.54-.84-.93-1.84-1.21-2.98v.05c0,1.54-.13,3.68-1.08,5.05-.17-.16-.54-.4-.74-.5,.14-.2,.25-.41,.36-.63l-.77,.38c-.13-.37-.45-.92-.73-1.34l.73-.31c.3,.4,.62,.92,.77,1.27,.55-1.21,.6-2.71,.6-3.92v-3.66h4.62v.85h-3.76v1.65h2.94l.15-.02,.55,.13Zm-2.91,.71c.23,.94,.56,1.8,1.01,2.52,.42-.7,.73-1.54,.92-2.52h-1.93Z"/>
      <path d="M97.6,210.82c-.16,2.02-.64,3.23-3.23,3.86-.08-.24-.32-.62-.51-.8,2.32-.48,2.65-1.41,2.78-3.06h.96Zm.31-3.59h-3.81v-.86h3.81v-.88h.96v.88h3.91v.86h-3.91v.85h3.01v.82h-6.85v-.82h2.88v-.85Zm3.72,4.33v-1.16h-6.42v1.16h-.91v-1.99h8.27v1.99h-.94Zm0,2.09c.35,0,.42-.15,.45-1.23,.19,.15,.58,.29,.84,.35-.1,1.38-.35,1.73-1.2,1.73h-1.38c-1.01,0-1.26-.27-1.26-1.17v-2.51h.93v2.5c0,.29,.07,.33,.45,.33h1.17Z"/>
      <path d="M107.88,208.45h1.81v.86h-1.81v.66c.49,.36,1.54,1.26,1.81,1.5l-.53,.79c-.28-.32-.81-.87-1.28-1.32v3.71h-.91v-3.97c-.49,1.03-1.11,2.04-1.73,2.67-.1-.27-.34-.66-.49-.9,.76-.72,1.56-1.99,2.03-3.14h-1.81v-.86h2v-1.49c-.61,.12-1.23,.22-1.81,.29-.04-.21-.17-.53-.28-.72,1.45-.22,3.12-.57,4.07-.99l.67,.71c-.5,.2-1.1,.37-1.74,.52v1.68Zm3.3,3.73h-.9v-5.5h.9v5.5Zm2.42-6.5v7.81c0,.58-.14,.85-.49,1.01-.37,.14-.97,.17-1.88,.17-.05-.26-.19-.69-.33-.96,.68,.03,1.31,.03,1.51,.02,.19,0,.26-.06,.26-.24v-7.81h.93Z"/>
      <path d="M122.15,208.38c.7,1.07,1.78,2.06,2.88,2.58-.2,.17-.5,.52-.64,.74-.29-.15-.57-.34-.85-.54v2.38h1.32v.82h-9.02v-.82h1.35v-2.33c-.27,.22-.55,.43-.83,.61-.15-.19-.5-.55-.72-.71,1.11-.63,2.12-1.6,2.78-2.73h-2.37v-.82h2.44c-.24-.5-.65-1.16-1.03-1.66l.79-.35c.45,.55,.92,1.27,1.14,1.76l-.49,.25h2.93l-.56-.2c.39-.51,.88-1.3,1.15-1.88l.98,.29c-.39,.63-.86,1.31-1.25,1.79h2.51v.82h-2.5Zm.94,2.41c-.77-.67-1.45-1.51-1.94-2.41h-1.66c-.48,.91-1.12,1.73-1.84,2.41h5.44Zm-4.1,.8h-.97v1.95h.97v-1.95Zm1.84,0h-.99v1.95h.99v-1.95Zm1.84,1.95v-1.95h-.99v1.95h.99Z"/>
      <path d="M129.34,210.07c0,2.03-.84,3.63-1.98,4.78l-.76-.36c1.09-1.14,1.84-2.58,1.84-4.42s-.75-3.28-1.84-4.42l.76-.36c1.14,1.15,1.98,2.75,1.98,4.78Z"/>
    </g>
    <g>
      <path d="M87.76,377.04c-.25,.82-.68,1.64-1.13,2.17-.16-.14-.51-.37-.7-.48,.45-.47,.82-1.17,1.01-1.89l.82,.2Zm1.6-.35h-2.91v-6.3h2.91v6.3Zm-.84-5.54h-1.26v1.11h1.26v-1.11Zm0,1.82h-1.26v1.13h1.26v-1.13Zm0,1.83h-1.26v1.14h1.26v-1.14Zm.33,2.03c.32,.49,.67,1.14,.83,1.57l-.73,.35c-.13-.43-.49-1.12-.8-1.62l.7-.3Zm6.34,.75h-.53v.72c0,.41-.09,.63-.38,.76-.3,.13-.76,.13-1.45,.13-.03-.21-.14-.54-.25-.75,.46,.02,.92,.02,1.05,.01,.14,0,.17-.04,.17-.16v-.71h-2.89v1.63h-.83v-1.63h-.59v-.68h.59v-2.53h1.84v-.48h-2.39v-.69h1.35v-.53h-.9v-.66h.9v-.49h-1.15v-.69h1.15v-.81h.82v.81h1.28v-.81h.83v.81h1.15v.69h-1.15v.49h.99v.66h-.99v.53h1.36v.69h-2.43v.48h1.92v2.53h.53v.68Zm-4.28-2.52v.59h1.01v-.59h-1.01Zm0,1.84h1.01v-.64h-1.01v.64Zm.79-4.89h1.28v-.49h-1.28v.49Zm0,1.19h1.28v-.53h-1.28v.53Zm1.04,1.86v.59h1.06v-.59h-1.06Zm1.06,1.84v-.64h-1.06v.64h1.06Z"/>
      <path d="M102.03,370.6c0,1.81,.23,5.52,4.04,7.77-.21,.16-.59,.56-.75,.79-2.27-1.37-3.34-3.41-3.83-5.25-.74,2.41-1.99,4.16-3.84,5.27-.18-.19-.61-.58-.86-.75,2.15-1.11,3.36-3.08,3.94-5.79l.51,.09c-.07-.42-.11-.83-.13-1.19h-2.38v-.94h3.3Z"/>
      <path d="M112.22,373.45c.64,0,1.16,.52,1.16,1.16s-.52,1.16-1.16,1.16-1.16-.52-1.16-1.16,.52-1.16,1.16-1.16Z"/>
      <path d="M123.63,370.6c0,1.81,.23,5.52,4.04,7.77-.21,.16-.59,.56-.75,.79-2.27-1.37-3.34-3.41-3.83-5.25-.74,2.41-1.99,4.16-3.84,5.27-.18-.19-.61-.58-.86-.75,2.15-1.11,3.36-3.08,3.94-5.79l.51,.09c-.07-.42-.11-.83-.13-1.19h-2.38v-.94h3.3Z"/>
      <path d="M135.35,374.92v1.01h2.43v3.25h-.92v-.31h-3.83v.32h-.89v-3.26h2.28v-1.01h-2.79v-.84h2.79v-.98h-2.97v.32c0,1.71-.15,4.18-1.22,5.8-.18-.16-.59-.4-.82-.49,1.02-1.53,1.1-3.72,1.1-5.31v-2.89h7.39v2.57h-2.55v.98h3.13v.84h-3.13Zm-3.9-2.65h5.51v-.92h-5.51v.92Zm5.41,4.48h-3.83v1.31h3.83v-1.31Z"/>
    </g>
    <g>
      <path d="M167.63,204.79c-.39,.13-.78,.25-1.17,.37v3.58h-.86v-3.31l-1.57,.48-.24-.89c.5-.13,1.13-.3,1.81-.49v-2.1h-.8c-.12,.53-.26,1.01-.41,1.39-.15-.12-.49-.32-.68-.42,.35-.81,.53-2.07,.63-3.26l.79,.13c-.05,.43-.1,.86-.17,1.28h.64v-1.98h.86v1.98h.93v.88h-.93v1.84l1.05-.3,.12,.82Zm5.3-3.61s0,.32,0,.44c-.22,4.49-.41,6.07-.8,6.56-.21,.3-.41,.39-.73,.44-.27,.05-.69,.04-1.13,.02,0-.27-.11-.65-.26-.91,.42,.04,.79,.04,.98,.04,.16,0,.26-.04,.36-.18,.29-.33,.5-1.75,.68-5.55h-.28c-.51,2.58-1.58,5.21-3.2,6.51-.18-.17-.51-.41-.77-.55,1.61-1.15,2.66-3.54,3.16-5.96h-.67c-.44,1.68-1.31,3.51-2.37,4.45-.17-.17-.47-.4-.72-.53,1.03-.8,1.85-2.38,2.31-3.92h-.71c-.31,.72-.67,1.35-1.08,1.84-.15-.13-.52-.41-.72-.53,.81-.88,1.38-2.3,1.71-3.78l.84,.16c-.11,.5-.26,.99-.41,1.45h3.82Z"/>
      <path d="M177.89,199.87c-.26,.73-.6,1.46-.98,2.16v6.7h-.88v-5.3c-.25,.35-.52,.69-.78,.97-.09-.22-.35-.72-.51-.94,.91-.94,1.76-2.39,2.28-3.85l.87,.26Zm6.07,5.48h-2.65v3.39h-.93v-3.39h-2.77v-.91h2.77v-1.98h-1.42c-.2,.54-.42,1.03-.67,1.41-.18-.13-.58-.35-.8-.45,.56-.8,.97-2.08,1.19-3.33l.9,.18c-.09,.43-.2,.86-.32,1.28h1.12v-1.86h.93v1.86h2.2v.91h-2.2v1.98h2.65v.91Z"/>
      <path d="M194.38,201.02c-.23,2.15-.76,3.83-1.53,5.12,.52,.74,1.16,1.34,1.94,1.75-.21,.18-.51,.53-.64,.76-.74-.43-1.36-.99-1.88-1.68-.54,.69-1.19,1.23-1.91,1.66-.13-.22-.38-.54-.58-.72v.82h-.9v-1.71c-1.21,.2-2.44,.4-3.37,.55l-.17-.93c.28-.03,.59-.08,.94-.12v-5.49h-.73v-.86h4.9v.72h3.17l.16-.03,.6,.16Zm-7.21,.01v1.16h1.71v-1.16h-1.71Zm0,3.21h1.71v-1.22h-1.71v1.22Zm1.71,1.92v-1.08h-1.71v1.32l1.71-.24Zm.9,1.7c.74-.39,1.39-.98,1.94-1.74-.65-1.15-1.1-2.54-1.42-4.11l.9-.18c.23,1.24,.58,2.39,1.08,3.38,.5-.95,.87-2.1,1.08-3.41h-3.17v-.77h-.41v6.83Z"/>
      <path d="M199.47,202.1c-.23,.41-.53,.83-.84,1.24v5.4h-.9v-4.37c-.34,.37-.71,.69-1.05,.97-.08-.21-.32-.71-.47-.94,.89-.63,1.85-1.63,2.44-2.63l.82,.33Zm-.14-2.15c-.62,.88-1.6,1.82-2.5,2.41-.1-.21-.33-.58-.48-.77,.78-.5,1.66-1.31,2.08-1.99l.9,.35Zm6.14,6.14h-1.43v1.69c0,.46-.09,.69-.42,.82-.33,.14-.81,.15-1.52,.15-.05-.25-.18-.6-.3-.84,.5,.02,.98,.02,1.12,.01,.15-.01,.19-.04,.19-.16v-1.67h-3.85v-.8h3.85v-.73h-3.61v-.77h5.78v.77h-1.24v.73h1.43v.8Zm-4.78,.06c.44,.4,.98,.97,1.23,1.35l-.7,.5c-.23-.38-.75-.98-1.19-1.41l.66-.44Zm4.19-2.93h-4.82v-3.35h4.82v3.35Zm-.94-2.67h-2.98v.67h2.98v-.67Zm0,1.31h-2.98v.67h2.98v-.67Z"/>
    </g>
    <g>
      <polyline class="cls-1" points="141.78 227.39 141.78 179.95 136.44 186.58"/>
      <polyline class="cls-1" points="154.46 179.95 154.46 227.39 159.8 220.76"/>
    </g>
    <g>
      <polyline class="cls-1" points="159.64 107.03 159.64 86.44 154.3 93.07"/>
      <polyline class="cls-1" points="169.13 86.44 169.13 107.03 174.46 100.39"/>
    </g>
    <polyline class="cls-1" points="148 396.84 148 349.39 142.66 356.03"/>
    <g>
      <g>
        <path d="M88.69,289.79c-.39,.13-.78,.25-1.17,.37v3.58h-.86v-3.31l-1.57,.48-.24-.89c.5-.13,1.13-.3,1.81-.49v-2.1h-.8c-.12,.53-.26,1.01-.41,1.39-.15-.12-.49-.32-.68-.42,.35-.81,.53-2.07,.63-3.26l.79,.13c-.05,.43-.1,.86-.17,1.28h.64v-1.98h.86v1.98h.93v.88h-.93v1.84l1.05-.3,.12,.82Zm5.3-3.61s0,.32,0,.44c-.22,4.49-.41,6.07-.8,6.56-.21,.3-.41,.39-.73,.44-.27,.05-.69,.04-1.13,.02,0-.27-.11-.65-.26-.91,.42,.04,.79,.04,.98,.04,.16,0,.26-.04,.36-.18,.29-.33,.5-1.75,.68-5.55h-.28c-.51,2.58-1.58,5.21-3.2,6.51-.18-.17-.51-.41-.77-.55,1.61-1.15,2.66-3.54,3.16-5.96h-.67c-.44,1.68-1.31,3.51-2.37,4.45-.17-.17-.47-.4-.72-.53,1.03-.8,1.85-2.38,2.31-3.92h-.71c-.31,.72-.67,1.35-1.08,1.84-.15-.13-.52-.41-.72-.53,.81-.88,1.38-2.3,1.71-3.78l.84,.16c-.11,.5-.26,.99-.41,1.45h3.82Z"/>
        <path d="M98.95,284.87c-.26,.73-.6,1.46-.98,2.16v6.7h-.88v-5.3c-.25,.35-.52,.69-.78,.97-.09-.22-.35-.72-.51-.94,.91-.94,1.76-2.39,2.28-3.85l.87,.26Zm6.07,5.48h-2.65v3.39h-.93v-3.39h-2.77v-.91h2.77v-1.98h-1.42c-.2,.54-.42,1.03-.67,1.41-.18-.13-.58-.35-.8-.45,.56-.8,.97-2.08,1.19-3.33l.9,.18c-.09,.43-.2,.86-.32,1.28h1.12v-1.86h.93v1.86h2.2v.91h-2.2v1.98h2.65v.91Z"/>
      </g>
      <g>
        <polygon class="cls-4" points="180.44 243.18 133.47 243.18 115.56 249.17 162.53 249.17 180.44 243.18"/>
        <rect class="cls-5" x="115.56" y="249.17" width="46.97" height="82.2"/>
        <polygon class="cls-7" points="180.44 243.18 180.44 325.38 162.53 331.38 162.53 249.17 180.44 243.18"/>
        <g>
          <rect class="cls-7" x="120.42" y="257.27" width="42.11" height="1.78"/>
          <rect class="cls-7" x="120.42" y="264.41" width="42.11" height="1.78"/>
          <rect class="cls-7" x="120.42" y="271.55" width="42.11" height="1.78"/>
          <rect class="cls-7" x="120.42" y="278.68" width="42.11" height="1.78"/>
          <rect class="cls-7" x="120.42" y="285.82" width="42.11" height="1.78"/>
          <rect class="cls-7" x="120.42" y="292.95" width="42.11" height="1.78"/>
          <rect class="cls-7" x="120.42" y="300.09" width="42.11" height="1.78"/>
          <rect class="cls-7" x="120.42" y="307.23" width="42.11" height="1.78"/>
          <rect class="cls-7" x="120.42" y="314.36" width="42.11" height="1.78"/>
          <rect class="cls-7" x="120.42" y="321.5" width="42.11" height="1.78"/>
        </g>
      </g>
    </g>
  </g>
</svg>