<?xml version="1.0" encoding="UTF-8"?>
<svg id="Layer_2" data-name="Layer 2" xmlns="http://www.w3.org/2000/svg" viewBox="0 0 894.13 152.88">
  <defs>
    <style>
      .cls-1 {
        stroke-linejoin: round;
      }

      .cls-1, .cls-2, .cls-3 {
        fill: none;
        stroke: #323230;
      }

      .cls-4 {
        fill: #fff;
      }

      .cls-5 {
        fill: #f1f1ee;
      }

      .cls-6 {
        fill: #323230;
      }

      .cls-7 {
        fill: #cececa;
      }

      .cls-2, .cls-3 {
        stroke-miterlimit: 10;
      }

      .cls-3 {
        stroke-width: .5px;
      }
    </style>
  </defs>
  <g id="design">
    <g>
      <path d="M388.55,45.78c-.43,.14-.86,.27-1.29,.41v3.94h-.95v-3.64l-1.73,.53-.26-.98c.55-.14,1.24-.33,1.99-.54v-2.31h-.88c-.13,.58-.29,1.11-.45,1.53-.17-.13-.54-.35-.75-.46,.39-.89,.58-2.28,.69-3.59l.87,.14c-.05,.47-.11,.95-.19,1.41h.7v-2.18h.95v2.18h1.02v.97h-1.02v2.02l1.16-.33,.13,.9Zm5.83-3.97s0,.35-.01,.48c-.24,4.94-.45,6.68-.88,7.22-.23,.33-.45,.43-.8,.48-.3,.06-.76,.04-1.24,.02-.01-.3-.12-.71-.29-1,.46,.04,.87,.04,1.08,.04,.18,0,.29-.04,.4-.2,.32-.36,.55-1.93,.75-6.11h-.31c-.56,2.84-1.74,5.73-3.52,7.16-.2-.19-.56-.45-.85-.61,1.77-1.27,2.93-3.89,3.48-6.56h-.74c-.48,1.85-1.44,3.86-2.61,4.9-.19-.19-.52-.44-.79-.58,1.13-.88,2.04-2.62,2.54-4.31h-.78c-.34,.79-.74,1.48-1.19,2.02-.16-.14-.57-.45-.79-.58,.89-.97,1.52-2.53,1.88-4.16l.92,.18c-.12,.55-.29,1.09-.45,1.6h4.2Z"/>
      <path d="M399.79,40.37c-.29,.8-.66,1.61-1.08,2.38v7.37h-.97v-5.83c-.28,.38-.57,.76-.86,1.07-.1-.24-.38-.79-.56-1.03,1-1.03,1.94-2.63,2.51-4.24l.96,.29Zm6.68,6.03h-2.92v3.73h-1.02v-3.73h-3.05v-1h3.05v-2.18h-1.56c-.22,.59-.46,1.13-.74,1.55-.2-.14-.64-.39-.88-.5,.62-.88,1.07-2.29,1.31-3.66l.99,.2c-.1,.47-.22,.95-.35,1.41h1.23v-2.05h1.02v2.05h2.42v1h-2.42v2.18h2.92v1Z"/>
      <path d="M417.88,41.63c-.25,2.37-.84,4.21-1.68,5.63,.57,.81,1.28,1.47,2.13,1.93-.23,.2-.56,.58-.71,.84-.81-.47-1.5-1.09-2.07-1.85-.59,.76-1.31,1.35-2.1,1.83-.14-.24-.42-.59-.64-.79v.9h-.99v-1.88c-1.33,.22-2.69,.44-3.71,.61l-.19-1.02c.31-.03,.65-.09,1.03-.13v-6.04h-.8v-.95h5.39v.79h3.49l.18-.03,.66,.18Zm-7.93,.01v1.28h1.88v-1.28h-1.88Zm0,3.53h1.88v-1.34h-1.88v1.34Zm1.88,2.11v-1.19h-1.88v1.45l1.88-.26Zm.99,1.87c.81-.43,1.53-1.08,2.13-1.91-.72-1.27-1.21-2.79-1.56-4.52l.99-.2c.25,1.36,.64,2.63,1.19,3.72,.55-1.04,.96-2.31,1.19-3.75h-3.49v-.85h-.45v7.51Z"/>
      <path d="M423.42,42.82c-.25,.45-.58,.91-.92,1.36v5.94h-.99v-4.81c-.38,.41-.78,.76-1.16,1.07-.09-.23-.35-.78-.52-1.03,.98-.69,2.04-1.79,2.68-2.89l.9,.36Zm-.15-2.37c-.68,.97-1.76,2-2.75,2.65-.11-.23-.36-.64-.53-.85,.86-.55,1.83-1.44,2.29-2.19l.99,.39Zm6.75,6.75h-1.57v1.86c0,.51-.1,.76-.46,.9-.36,.15-.89,.17-1.67,.17-.05-.27-.2-.66-.33-.92,.55,.02,1.08,.02,1.23,.01,.17-.01,.21-.04,.21-.18v-1.84h-4.24v-.88h4.24v-.8h-3.97v-.85h6.36v.85h-1.36v.8h1.57v.88Zm-5.26,.07c.48,.44,1.08,1.07,1.35,1.49l-.77,.55c-.25-.42-.83-1.08-1.31-1.55l.73-.48Zm4.61-3.22h-5.3v-3.69h5.3v3.69Zm-1.03-2.94h-3.28v.74h3.28v-.74Zm0,1.44h-3.28v.74h3.28v-.74Z"/>
    </g>
    <g>
      <path d="M341.49,113.07c.47,.76,1.34,1.1,2.56,1.16,1.24,.06,3.8,.02,5.19-.08-.12,.23-.28,.7-.33,1-1.27,.05-3.6,.08-4.87,.03-1.36-.05-2.31-.42-2.98-1.27-.46,.45-.95,.89-1.49,1.36l-.51-1.01c.44-.3,.98-.71,1.44-1.12v-2.65h-1.32v-.95h2.3v3.52Zm-.53-5.1c-.31-.55-1.05-1.31-1.69-1.84l.78-.57c.64,.5,1.41,1.22,1.74,1.76l-.82,.65Zm4,5.08h-3v-.77h3v-.54h-2.3v-3.15h2.3v-.55h-2.6v-.74h2.6v-.68h1v.68h2.64v.74h-2.64v.55h2.38v3.15h-2.38v.54h3.1v.77h-3.1v.9h-1v-.9Zm-1.95-5.95h-.9v-1.45h6.79v1.45h-.95v-.69h-4.94v.69Zm.53,2.75h1.42v-.59h-1.42v.59Zm1.42,1.23v-.62h-1.42v.62h1.42Zm1-1.83v.59h1.46v-.59h-1.46Zm1.46,1.21h-1.46v.62h1.46v-.62Z"/>
      <path d="M360.52,114.09c0,.59-.14,.9-.54,1.06-.41,.17-1.04,.19-2.06,.18-.04-.27-.21-.73-.34-.99,.7,.03,1.43,.02,1.64,.02,.2,0,.27-.07,.27-.27v-1.97h-2.66v3.15h-1.02v-3.15h-2.53c-.18,1.21-.57,2.44-1.38,3.33-.15-.2-.57-.55-.8-.67,1.2-1.33,1.31-3.28,1.31-4.83v-3.92h8.11v8.06Zm-4.71-2.95v-1.63h-2.39v.44c0,.37-.01,.78-.04,1.19h2.43Zm-2.39-4.14v1.55h2.39v-1.55h-2.39Zm6.07,0h-2.66v1.55h2.66v-1.55Zm0,4.14v-1.63h-2.66v1.63h2.66Z"/>
      <path d="M366.3,108.53h1.99v.95h-1.99v.73c.54,.4,1.69,1.39,1.99,1.65l-.58,.87c-.31-.35-.89-.96-1.41-1.45v4.08h-1v-4.37c-.54,1.13-1.22,2.24-1.9,2.94-.11-.3-.37-.73-.54-.99,.84-.79,1.72-2.19,2.23-3.45h-1.99v-.95h2.2v-1.64c-.67,.13-1.35,.24-1.99,.32-.04-.23-.19-.58-.31-.79,1.6-.24,3.43-.63,4.48-1.09l.74,.78c-.55,.22-1.21,.41-1.91,.57v1.85Zm3.63,4.1h-.99v-6.05h.99v6.05Zm2.66-7.15v8.59c0,.64-.15,.94-.54,1.11-.41,.15-1.07,.19-2.07,.19-.05-.29-.21-.76-.36-1.06,.75,.03,1.44,.03,1.66,.02,.21,0,.29-.07,.29-.26v-8.59h1.02Z"/>
      <path d="M381.96,108.46c.77,1.18,1.96,2.27,3.17,2.84-.22,.19-.55,.57-.7,.81-.32-.17-.63-.37-.93-.59v2.62h1.45v.9h-9.93v-.9h1.49v-2.56c-.3,.24-.61,.47-.91,.67-.17-.21-.55-.6-.79-.78,1.22-.69,2.33-1.76,3.06-3h-2.61v-.9h2.68c-.26-.55-.71-1.28-1.13-1.83l.87-.39c.5,.6,1.01,1.4,1.25,1.94l-.54,.27h3.22l-.62-.22c.43-.56,.97-1.43,1.27-2.07l1.08,.32c-.43,.69-.95,1.44-1.38,1.97h2.76v.9h-2.75Zm1.03,2.65c-.85-.74-1.6-1.66-2.13-2.65h-1.83c-.53,1-1.23,1.9-2.02,2.65h5.99Zm-4.51,.88h-1.07v2.15h1.07v-2.15Zm2.02,0h-1.09v2.15h1.09v-2.15Zm2.02,2.15v-2.15h-1.09v2.15h1.09Z"/>
      <path d="M393.84,110.33c0-2.23,.92-3.99,2.18-5.26l.84,.4c-1.2,1.25-2.02,2.84-2.02,4.86s.83,3.61,2.02,4.86l-.84,.4c-1.25-1.27-2.18-3.03-2.18-5.26Z"/>
      <path d="M408.25,109.87c-.64,.51-1.45,1.04-2.15,1.43,.65,1.07,1.53,1.9,2.65,2.37-.24,.21-.56,.6-.71,.89-2.02-.98-3.21-3.04-3.87-5.61h-.02c-.3,.25-.65,.5-1.01,.7,2.08,1.82,2.04,4.58,.97,5.35-.38,.31-.7,.41-1.23,.41-.28,0-.61-.01-.95-.03-.02-.27-.11-.68-.29-.98,.4,.04,.76,.06,1.02,.06,.29,0,.52-.02,.73-.22,.33-.24,.5-.9,.36-1.68-1.2,.94-2.93,1.85-4.38,2.33-.13-.24-.34-.63-.54-.85,1.62-.42,3.55-1.39,4.64-2.37-.09-.19-.19-.37-.3-.56-.94,.65-2.34,1.35-3.44,1.75-.11-.24-.33-.58-.52-.79,1.13-.3,2.65-.96,3.49-1.57-.12-.13-.25-.26-.41-.38-.85,.41-1.78,.74-2.65,.98-.1-.19-.37-.62-.54-.79,1.25-.29,2.61-.75,3.61-1.34h-2.02v-.88h6.02v.88h-1.62c.15,.55,.35,1.09,.58,1.58,.63-.41,1.32-.92,1.77-1.34l.8,.68Zm-8.05-1.38h-1.01v-2.29h4v-.92h1.06v.92h4.07v2.29h-1.03v-1.35h-7.08v1.35Z"/>
      <path d="M412.31,107.49c-.36,.27-.74,.52-1.09,.71-.15-.2-.53-.56-.75-.75,1.08-.5,2.2-1.33,2.86-2.18l.95,.34c-.29,.36-.63,.73-1,1.07v2.54h-.97v-1.74Zm2.6,6.67c-.89,.51-2.28,.98-3.38,1.25-.17-.2-.52-.58-.75-.75,1.13-.2,2.45-.54,3.21-.92l.91,.42Zm-2.72-4.57h7.17v4.14h-7.17v-4.14Zm1,1.19h5.14v-.56h-5.14v.56Zm0,1.17h5.14v-.57h-5.14v.57Zm0,1.17h5.14v-.57h-5.14v.57Zm3.4-6.72c-.67,.03-1.35,.07-1.99,.08-.03-.19-.12-.48-.21-.66,1.72-.06,3.76-.21,4.92-.43l.56,.64c-.65,.12-1.45,.22-2.3,.3v.66h2.96v.74h-2.96v.66h2.52v.74h-5.81v-.74h2.31v-.66h-2.74v-.74h2.74v-.58Zm.74,7.37c1.17,.35,2.49,.8,3.27,1.12l-1.21,.5c-.64-.32-1.78-.76-2.93-1.11l.87-.51Z"/>
      <path d="M424.74,113.01c-.29,.9-.78,1.8-1.31,2.39-.19-.15-.57-.43-.8-.56,.53-.51,.95-1.28,1.17-2.06l.95,.23Zm1.89-.4h-3.4v-6.92h3.4v6.92Zm-.96-6.08h-1.52v1.21h1.52v-1.21Zm0,2h-1.52v1.23h1.52v-1.23Zm0,2h-1.52v1.25h1.52v-1.25Zm6.74-1.84c-.24,1.85-.75,3.3-1.47,4.41,.54,.63,1.2,1.13,1.98,1.47-.21,.18-.52,.56-.66,.81-.76-.37-1.39-.89-1.92-1.51-.55,.62-1.2,1.1-1.93,1.46-.13-.24-.38-.65-.59-.83,.73-.32,1.38-.8,1.92-1.45-.59-.92-1.02-2.02-1.33-3.28v.06c0,1.69-.14,4.05-1.19,5.56-.19-.18-.59-.44-.81-.55,.15-.22,.28-.45,.4-.69l-.85,.42c-.14-.41-.5-1.01-.8-1.47l.8-.34c.33,.44,.68,1.01,.85,1.4,.61-1.33,.66-2.98,.66-4.31v-4.03h5.08v.94h-4.14v1.81h3.23l.17-.02,.61,.14Zm-3.2,.78c.25,1.03,.62,1.98,1.11,2.77,.46-.77,.8-1.69,1.01-2.77h-2.12Z"/>
      <path d="M439.01,111.15c-.18,2.22-.7,3.55-3.55,4.25-.09-.26-.35-.68-.56-.88,2.55-.53,2.92-1.55,3.06-3.37h1.06Zm.34-3.95h-4.19v-.95h4.19v-.97h1.06v.97h4.3v.95h-4.3v.94h3.31v.9h-7.54v-.9h3.17v-.94Zm4.09,4.76v-1.28h-7.06v1.28h-1v-2.19h9.1v2.19h-1.03Zm0,2.3c.38,0,.46-.17,.5-1.35,.21,.17,.64,.32,.92,.38-.11,1.52-.38,1.9-1.32,1.9h-1.52c-1.11,0-1.39-.3-1.39-1.29v-2.76h1.02v2.75c0,.32,.08,.36,.5,.36h1.29Z"/>
      <path d="M450.27,108.53h1.99v.95h-1.99v.73c.54,.4,1.69,1.39,1.99,1.65l-.58,.87c-.31-.35-.89-.96-1.41-1.45v4.08h-1v-4.37c-.54,1.13-1.22,2.24-1.9,2.94-.11-.3-.37-.73-.54-.99,.84-.79,1.72-2.19,2.23-3.45h-1.99v-.95h2.2v-1.64c-.67,.13-1.35,.24-1.99,.32-.04-.23-.19-.58-.31-.79,1.6-.24,3.43-.63,4.48-1.09l.74,.78c-.55,.22-1.21,.41-1.91,.57v1.85Zm3.63,4.1h-.99v-6.05h.99v6.05Zm2.66-7.15v8.59c0,.64-.15,.94-.54,1.11-.41,.15-1.07,.19-2.07,.19-.05-.29-.21-.76-.36-1.06,.75,.03,1.44,.03,1.66,.02,.21,0,.29-.07,.29-.26v-8.59h1.02Z"/>
      <path d="M465.92,108.46c.77,1.18,1.96,2.27,3.17,2.84-.22,.19-.55,.57-.7,.81-.32-.17-.63-.37-.93-.59v2.62h1.45v.9h-9.93v-.9h1.49v-2.56c-.3,.24-.61,.47-.91,.67-.17-.21-.55-.6-.79-.78,1.22-.69,2.33-1.76,3.06-3h-2.61v-.9h2.68c-.26-.55-.71-1.28-1.13-1.83l.87-.39c.5,.6,1.01,1.4,1.25,1.94l-.54,.27h3.22l-.62-.22c.43-.56,.97-1.43,1.27-2.07l1.08,.32c-.43,.69-.95,1.44-1.38,1.97h2.76v.9h-2.75Zm1.03,2.65c-.85-.74-1.6-1.66-2.13-2.65h-1.83c-.53,1-1.23,1.9-2.02,2.65h5.99Zm-4.51,.88h-1.07v2.15h1.07v-2.15Zm2.02,0h-1.09v2.15h1.09v-2.15Zm2.02,2.15v-2.15h-1.09v2.15h1.09Z"/>
      <path d="M473.82,110.33c0,2.23-.92,3.99-2.18,5.26l-.84-.4c1.2-1.25,2.02-2.84,2.02-4.86s-.83-3.61-2.02-4.86l.84-.4c1.25,1.27,2.18,3.03,2.18,5.26Z"/>
    </g>
    <g>
      <rect class="cls-4" width="302.04" height="152.88"/>
      <g>
        <g>
          <line class="cls-2" x1="185.19" y1="88.27" x2="185.19" y2="63.68"/>
          <polygon class="cls-6" points="188.67 85.46 188.05 84.88 185.19 87.95 182.34 84.88 181.72 85.46 185.19 89.2 188.67 85.46"/>
        </g>
        <g>
          <line class="cls-2" x1="166.05" y1="64.6" x2="166.05" y2="89.2"/>
          <polygon class="cls-6" points="162.58 67.42 163.2 68 166.05 64.93 168.91 68 169.53 67.42 166.05 63.68 162.58 67.42"/>
        </g>
      </g>
      <rect class="cls-5" x="71.17" y="96.84" width="208.08" height="34.86"/>
      <rect class="cls-6" x="71.17" y="21.18" width="208.08" height="34.86"/>
      <g>
        <g>
          <circle class="cls-3" cx="104.92" cy="114.27" r="8.65"/>
          <polygon class="cls-6" points="108.25 110.1 107.05 110.1 104.93 113.79 102.8 110.1 101.6 110.1 104.18 114.58 102.67 114.58 102.67 115.44 104.41 115.44 104.41 116.34 102.67 116.34 102.67 117.19 104.41 117.19 104.41 118.44 105.45 118.44 105.45 117.19 107.19 117.19 107.19 116.34 105.45 116.34 105.45 115.44 107.19 115.44 107.19 114.58 105.67 114.58 108.25 110.1"/>
        </g>
        <g>
          <circle class="cls-3" cx="133.04" cy="114.27" r="8.65"/>
          <polygon class="cls-6" points="136.37 110.1 135.17 110.1 133.04 113.79 130.91 110.1 129.71 110.1 132.3 114.58 130.78 114.58 130.78 115.44 132.52 115.44 132.52 116.34 130.78 116.34 130.78 117.19 132.52 117.19 132.52 118.44 133.56 118.44 133.56 117.19 135.3 117.19 135.3 116.34 133.56 116.34 133.56 115.44 135.3 115.44 135.3 114.58 133.79 114.58 136.37 110.1"/>
        </g>
        <g>
          <circle class="cls-3" cx="161.15" cy="114.27" r="8.65"/>
          <polygon class="cls-6" points="164.48 110.1 163.28 110.1 161.15 113.79 159.02 110.1 157.82 110.1 160.41 114.58 158.89 114.58 158.89 115.44 160.63 115.44 160.63 116.34 158.89 116.34 158.89 117.19 160.63 117.19 160.63 118.44 161.67 118.44 161.67 117.19 163.41 117.19 163.41 116.34 161.67 116.34 161.67 115.44 163.41 115.44 163.41 114.58 161.9 114.58 164.48 110.1"/>
        </g>
        <g>
          <circle class="cls-3" cx="189.26" cy="114.27" r="8.65"/>
          <polygon class="cls-6" points="192.59 110.1 191.39 110.1 189.27 113.79 187.13 110.1 185.93 110.1 188.52 114.58 187.01 114.58 187.01 115.44 188.74 115.44 188.74 116.34 187.01 116.34 187.01 117.19 188.74 117.19 188.74 118.44 189.79 118.44 189.79 117.19 191.53 117.19 191.53 116.34 189.79 116.34 189.79 115.44 191.53 115.44 191.53 114.58 190.01 114.58 192.59 110.1"/>
        </g>
        <g>
          <circle class="cls-3" cx="217.38" cy="114.27" r="8.65"/>
          <polygon class="cls-6" points="220.7 110.1 219.5 110.1 217.38 113.79 215.25 110.1 214.05 110.1 216.63 114.58 215.12 114.58 215.12 115.44 216.86 115.44 216.86 116.34 215.12 116.34 215.12 117.19 216.86 117.19 216.86 118.44 217.9 118.44 217.9 117.19 219.64 117.19 219.64 116.34 217.9 116.34 217.9 115.44 219.64 115.44 219.64 114.58 218.12 114.58 220.7 110.1"/>
        </g>
        <g>
          <circle class="cls-3" cx="245.49" cy="114.27" r="8.65"/>
          <polygon class="cls-6" points="248.82 110.1 247.62 110.1 245.49 113.79 243.36 110.1 242.16 110.1 244.75 114.58 243.23 114.58 243.23 115.44 244.97 115.44 244.97 116.34 243.23 116.34 243.23 117.19 244.97 117.19 244.97 118.44 246.01 118.44 246.01 117.19 247.75 117.19 247.75 116.34 246.01 116.34 246.01 115.44 247.75 115.44 247.75 114.58 246.24 114.58 248.82 110.1"/>
        </g>
      </g>
      <g>
        <path d="M141.68,77.02v4.54h-1.06v-.65h-6.5v.67h-1.03v-4.57h1.03v2.89h2.65v-3.55h-3.27v-3.84h1.02v2.85h2.24v-3.81h1.04v3.81h2.35v-2.86h1.08v3.85h-3.43v3.55h2.8v-2.89h1.06Z"/>
        <path d="M147.25,74.52c-.96,.32-1.98,.62-2.79,.87l-.41-.9c.8-.17,1.97-.47,3.1-.77l.1,.8Zm1.01,5.73c-.89,.54-2.27,1.07-3.37,1.36-.18-.2-.54-.58-.77-.76,1.13-.22,2.44-.6,3.2-1.03l.93,.43Zm-1.4-6.96c-.52-.28-1.53-.67-2.3-.9l.45-.69c.75,.19,1.77,.55,2.3,.81l-.45,.78Zm2.08-.3c-.26,.33-.57,.64-.94,.91-.19-.18-.53-.4-.77-.49,.81-.55,1.35-1.29,1.63-1.93l.92,.14c-.1,.21-.21,.42-.34,.63h3.53l.15-.03,.68,.18c-.29,.57-.69,1.21-1.07,1.6l-.8-.25c.19-.2,.37-.47,.55-.75h-1.52c.24,.79,.86,1.5,3.09,1.79-.19,.2-.43,.58-.52,.84-.31-.05-.59-.12-.85-.19v4.37h-7.17v-4.42h2.21c-.1-.22-.3-.52-.45-.67,1.77-.29,2.4-.81,2.65-1.72h-1Zm2.74,3.04h-5.16v.62h5.16v-.62Zm0,1.23h-5.16v.63h5.16v-.63Zm0,1.25h-5.16v.64h5.16v-.64Zm.85-3.14c-1.1-.34-1.67-.86-2.01-1.44-.42,.67-1.14,1.13-2.45,1.44h4.47Zm-1.86,4.47c1.18,.4,2.5,.9,3.29,1.28l-1.18,.48c-.65-.35-1.8-.85-2.95-1.24l.84-.52Z"/>
      </g>
      <g>
        <path d="M32.98,107.62v4.54h-1.06v-.65h-6.5v.67h-1.03v-4.57h1.03v2.89h2.65v-3.55h-3.27v-3.84h1.02v2.85h2.24v-3.81h1.05v3.81h2.35v-2.86h1.08v3.85h-3.43v3.55h2.81v-2.89h1.06Z"/>
        <path d="M38.56,105.12c-.96,.32-1.98,.62-2.79,.87l-.41-.9c.8-.17,1.97-.47,3.1-.77l.1,.8Zm1.01,5.73c-.89,.54-2.27,1.07-3.37,1.36-.18-.2-.54-.58-.77-.76,1.13-.22,2.44-.61,3.2-1.03l.94,.43Zm-1.4-6.96c-.52-.28-1.53-.67-2.3-.9l.45-.69c.75,.19,1.77,.55,2.3,.81l-.45,.78Zm2.08-.3c-.26,.33-.57,.64-.93,.91-.19-.18-.53-.4-.77-.49,.81-.55,1.35-1.29,1.63-1.93l.92,.14c-.1,.21-.21,.42-.34,.63h3.53l.15-.03,.68,.18c-.29,.57-.69,1.21-1.07,1.6l-.8-.25c.19-.2,.37-.47,.55-.75h-1.52c.24,.79,.86,1.5,3.09,1.79-.19,.2-.43,.58-.52,.84-.31-.05-.59-.12-.85-.19v4.37h-7.17v-4.42h2.21c-.1-.22-.3-.52-.45-.67,1.77-.29,2.4-.81,2.65-1.72h-1Zm2.74,3.04h-5.16v.62h5.16v-.62Zm0,1.23h-5.16v.63h5.16v-.63Zm0,1.25h-5.16v.64h5.16v-.64Zm.85-3.14c-1.1-.34-1.67-.86-2.01-1.44-.42,.67-1.14,1.13-2.45,1.44h4.47Zm-1.86,4.47c1.18,.4,2.5,.9,3.29,1.28l-1.18,.48c-.65-.35-1.8-.85-2.95-1.24l.84-.52Z"/>
        <path d="M53.2,106.41c-.49,.37-1.01,.7-1.54,1.03h4.27v4.7h-1.06v-.3h-4.15v.34h-1.01v-3.7c-.62,.29-1.24,.55-1.87,.79-.12-.23-.44-.64-.63-.85,1.52-.51,2.98-1.19,4.3-2.02h-4.03v-.91h3.64v-1.23h-2.68v-.89h2.68v-1.29h1.01v1.29h2.56v.48c.44-.45,.85-.92,1.2-1.42l.88,.46c-.69,.95-1.52,1.8-2.43,2.6h2.88v.91h-4.04Zm1.67,1.88h-4.15v.91h4.15v-.91Zm0,2.68v-.97h-4.15v.97h4.15Zm-2.01-5.48c.52-.39,.99-.8,1.44-1.23h-2.16v1.23h.72Z"/>
        <path d="M18.92,122.33c0-2.23,.92-3.99,2.18-5.26l.84,.4c-1.2,1.25-2.02,2.84-2.02,4.86s.83,3.61,2.02,4.86l-.84,.4c-1.25-1.27-2.18-3.03-2.18-5.26Z"/>
        <path d="M25.12,123.73c-.14,1.03-.4,2.1-.74,2.81-.17-.12-.57-.31-.78-.39,.33-.66,.54-1.63,.65-2.57l.87,.15Zm1.3-.87v4.53h-.91v-4.48c-.63,.03-1.21,.07-1.72,.1l-.09-.9,.77-.02c.21-.26,.42-.55,.64-.86-.34-.48-.9-1.08-1.39-1.54l.49-.68c.1,.09,.2,.18,.3,.26,.34-.61,.71-1.4,.9-1.99l.92,.33c-.4,.75-.86,1.62-1.25,2.21,.21,.22,.4,.44,.54,.64,.43-.66,.83-1.34,1.11-1.91l.87,.37c-.63,1-1.45,2.21-2.19,3.12l1.46-.06c-.14-.31-.3-.6-.46-.88l.74-.32c.45,.72,.9,1.65,1.06,2.26l-.78,.37c-.04-.18-.11-.39-.2-.62l-.81,.05Zm1.01,.66c.3,.66,.59,1.52,.71,2.08l-.81,.29c-.1-.57-.4-1.44-.67-2.11l.77-.25Zm6.48,2.63v.92h-6.39v-.92h1.09v-8.28h4.51v8.28h.79Zm-4.3-7.36v1.8h2.48v-1.8h-2.48Zm2.48,2.73h-2.48v1.82h2.48v-1.82Zm-2.48,4.63h2.48v-1.89h-2.48v1.89Z"/>
        <path d="M41.03,117.31c1.18,1.64,3.04,3.09,4.76,3.84-.25,.25-.5,.6-.67,.91-.58-.31-1.2-.68-1.78-1.11v.78h-5.48v-.75c-.56,.42-1.17,.79-1.77,1.12-.12-.24-.42-.6-.63-.81,1.88-.96,3.69-2.61,4.52-3.98h1.04Zm-3.79,5.67h6.78v4.42h-1.05v-.43h-4.73v.43h-1v-4.42Zm5.92-2.16c-1.03-.77-1.98-1.66-2.6-2.51-.56,.81-1.44,1.72-2.48,2.51h5.07Zm-4.92,3.08v2.16h4.73v-2.16h-4.73Z"/>
        <path d="M54.06,125.53c1.1,.32,2.42,.79,3.25,1.14l-.9,.72c-.83-.37-2.31-.94-3.47-1.27l.8-.59h-3.18l.77,.52c-.88,.53-2.29,1.06-3.41,1.33-.19-.21-.52-.55-.77-.74,1.05-.24,2.33-.69,3.06-1.11h-1.9v-4.76h7.86v4.76h-2.1Zm1.67-5.29h-6.95v-2.57h6.95v2.57Zm-6.41,1.89h5.78v-.63h-5.78v.63Zm0,1.33h5.78v-.64h-5.78v.64Zm0,1.33h5.78v-.65h-5.78v.65Zm5.34-6.31h-4.85v.95h4.85v-.95Z"/>
        <path d="M62.1,122.33c0,2.23-.92,3.99-2.18,5.26l-.84-.4c1.2-1.25,2.02-2.84,2.02-4.86s-.83-3.61-2.02-4.86l.84-.4c1.25,1.27,2.18,3.03,2.18,5.26Z"/>
      </g>
      <g>
        <path d="M22.19,33.85c-.31,.77-.69,1.55-1.12,2.29v7.46h-1.01v-5.95c-.36,.47-.75,.91-1.12,1.28-.1-.24-.42-.79-.62-1.05,1.14-1.05,2.22-2.68,2.87-4.33l1,.31Zm3.45,5.26v3.11h2.78v.98h-6.51v-.98h2.7v-3.11h-3.11v-.99h3.11v-2.68c-.84,.14-1.68,.25-2.48,.34-.04-.24-.19-.63-.31-.87,2-.25,4.28-.68,5.63-1.18l.75,.87c-.73,.24-1.63,.46-2.56,.65v2.87h2.94v.99h-2.94Z"/>
        <path d="M30.53,42.83c.73-.43,1.23-1.14,1.51-1.88l.85,.32c-.3,.8-.77,1.62-1.55,2.11l-.8-.55Zm9.77-6.02h-9.4v-.82h2.49c-.08-.3-.23-.67-.37-.95l.25-.05h-1.86v-.81h3.64v-.66h1.02v.66h3.65v.81h-1.74l.27,.05c-.2,.36-.37,.68-.54,.95h2.58v.82Zm-1.14,3.69h-3.83c.54,.25,1.12,.59,1.45,.86l-.63,.65c-.37-.34-1.16-.8-1.79-1.09l.42-.42h-2.68v-3.21h7.06v3.21Zm-1.01-2.45h-5.07v.5h5.07v-.5Zm0,1.19h-5.07v.51h5.07v-.51Zm-1.44,3.43c.43,0,.51-.12,.55-1.01,.21,.14,.62,.27,.88,.33-.12,1.22-.4,1.52-1.34,1.52h-1.94c-1.22,0-1.53-.24-1.53-1.13v-1.31h.99v1.3c0,.26,.1,.31,.64,.31h1.75Zm-2.67-7.68c.17,.31,.32,.69,.37,.95l-.22,.06h2.71l-.18-.04c.15-.27,.32-.65,.44-.96h-3.12Zm4.73,5.85c.71,.56,1.52,1.36,1.89,1.96l-.85,.51c-.33-.58-1.12-1.43-1.83-1.99l.78-.47Z"/>
        <path d="M43.99,39.95c-.14,1.03-.4,2.1-.74,2.81-.17-.12-.57-.31-.78-.39,.33-.66,.54-1.63,.65-2.57l.87,.15Zm1.3-.87v4.53h-.91v-4.48c-.63,.03-1.21,.07-1.72,.1l-.09-.9,.77-.02c.21-.26,.42-.55,.64-.86-.34-.48-.9-1.08-1.39-1.54l.5-.68c.1,.09,.2,.18,.3,.26,.34-.61,.7-1.4,.9-1.99l.92,.33c-.4,.75-.86,1.62-1.25,2.21,.21,.22,.4,.44,.54,.64,.43-.66,.83-1.34,1.11-1.91l.87,.37c-.63,1-1.45,2.21-2.19,3.12l1.46-.06c-.14-.31-.3-.6-.46-.88l.74-.32c.45,.72,.9,1.65,1.06,2.26l-.78,.37c-.04-.18-.11-.39-.2-.62l-.81,.05Zm1.01,.66c.3,.66,.59,1.52,.71,2.08l-.81,.29c-.1-.57-.4-1.44-.67-2.11l.77-.25Zm6.48,2.63v.92h-6.39v-.92h1.09v-8.28h4.51v8.28h.79Zm-4.3-7.36v1.8h2.48v-1.8h-2.48Zm2.48,2.73h-2.48v1.82h2.48v-1.82Zm-2.48,4.63h2.48v-1.89h-2.48v1.89Z"/>
        <path d="M59.91,33.53c1.18,1.64,3.04,3.09,4.76,3.84-.25,.25-.5,.61-.67,.91-.58-.31-1.2-.68-1.78-1.11v.78h-5.48v-.75c-.56,.42-1.17,.79-1.77,1.12-.12-.24-.42-.61-.63-.81,1.88-.96,3.69-2.61,4.52-3.98h1.04Zm-3.79,5.67h6.78v4.42h-1.05v-.43h-4.73v.43h-1v-4.42Zm5.92-2.16c-1.03-.77-1.98-1.66-2.6-2.51-.56,.81-1.44,1.72-2.48,2.51h5.07Zm-4.92,3.08v2.16h4.73v-2.16h-4.73Z"/>
      </g>
      <g>
        <path class="cls-4" d="M117.93,40.53h-1.14v1.93h-1.03v-.47h-2.34v.57c0,.56-.14,.79-.52,.94-.38,.13-.95,.14-1.87,.14-.05-.23-.21-.6-.35-.83,.61,.02,1.27,.02,1.44,.01,.2-.01,.26-.07,.26-.25v-.58h-3.43v-.77h3.43v-.68h-4.4v-.8h4.4v-.63h-3.33v-.73h3.33v-.65h-3.05v-2.02h3.05v-.56h-4.17v-.83h4.17v-.8h1.03v.8h4.29v.83h-4.29v.56h3.2v2.02h-3.2v.65h3.38v1.35h1.14v.8Zm-5.56-3.49v-.66h-2.07v.66h2.07Zm1.03-.66v.66h2.17v-.66h-2.17Zm0,3.34h2.34v-.63h-2.34v.63Zm2.34,.8h-2.34v.68h2.34v-.68Z"/>
        <path class="cls-4" d="M126.26,41.05c.97,.68,2.39,1.24,3.73,1.5-.23,.22-.53,.64-.68,.91-1.43-.39-2.9-1.12-3.94-2.07v2.21h-1v-2.13c-1.04,.88-2.53,1.6-3.91,1.98-.15-.26-.44-.65-.67-.87,1.31-.27,2.74-.85,3.71-1.53h-3.4v-.86h4.27v-.67h-3.25v-.77h3.25v-.66h-3.79v-.81h2.26c-.1-.31-.29-.7-.46-1l.26-.04h-2.5v-.86h1.63c-.17-.43-.5-1.03-.8-1.49l.89-.3c.34,.47,.73,1.14,.88,1.57l-.56,.21h1.21v-1.88h.96v1.88h1.09v-1.88h.97v1.88h1.19l-.42-.13c.26-.44,.61-1.13,.77-1.63l1.06,.26c-.3,.54-.63,1.09-.91,1.5h1.58v.86h-2.12c-.21,.37-.43,.74-.62,1.05h2.33v.81h-3.89v.66h3.38v.77h-3.38v.67h4.33v.86h-3.44Zm-2.83-4.82c.2,.32,.4,.72,.47,.98l-.32,.07h2.32c.17-.3,.34-.69,.48-1.05h-2.96Z"/>
        <path class="cls-4" d="M137.7,37.83c-.5,.37-1.01,.7-1.54,1.03h4.27v4.7h-1.06v-.3h-4.15v.34h-1.01v-3.7c-.62,.29-1.24,.55-1.87,.79-.12-.23-.44-.64-.63-.85,1.52-.51,2.98-1.19,4.3-2.02h-4.03v-.91h3.64v-1.23h-2.68v-.89h2.68v-1.29h1.01v1.29h2.56v.48c.44-.45,.85-.92,1.2-1.42l.88,.46c-.69,.95-1.52,1.8-2.43,2.6h2.88v.91h-4.04Zm1.67,1.88h-4.15v.91h4.15v-.91Zm0,2.68v-.97h-4.15v.97h4.15Zm-2.01-5.48c.52-.39,.99-.8,1.44-1.23h-2.16v1.23h.72Z"/>
        <path class="cls-4" d="M150.74,38.56c0-2.23,.92-3.99,2.18-5.26l.84,.4c-1.2,1.25-2.02,2.84-2.02,4.86s.82,3.61,2.02,4.86l-.84,.4c-1.25-1.27-2.18-3.03-2.18-5.26Z"/>
        <path class="cls-4" d="M162,41.05c.97,.68,2.39,1.24,3.73,1.5-.23,.22-.53,.64-.68,.91-1.43-.39-2.9-1.12-3.94-2.07v2.21h-1v-2.13c-1.04,.88-2.53,1.6-3.91,1.98-.15-.26-.44-.65-.67-.87,1.31-.27,2.74-.85,3.71-1.53h-3.4v-.86h4.27v-.67h-3.25v-.77h3.25v-.66h-3.78v-.81h2.25c-.1-.31-.29-.7-.46-1l.26-.04h-2.5v-.86h1.63c-.17-.43-.5-1.03-.8-1.49l.89-.3c.34,.47,.73,1.14,.88,1.57l-.56,.21h1.21v-1.88h.96v1.88h1.09v-1.88h.97v1.88h1.19l-.42-.13c.26-.44,.6-1.13,.77-1.63l1.06,.26c-.3,.54-.63,1.09-.91,1.5h1.58v.86h-2.12c-.21,.37-.43,.74-.62,1.05h2.33v.81h-3.89v.66h3.38v.77h-3.38v.67h4.33v.86h-3.44Zm-2.83-4.82c.2,.32,.4,.72,.47,.98l-.32,.07h2.32c.16-.3,.34-.69,.48-1.05h-2.96Z"/>
        <path class="cls-4" d="M176.81,35.49c-.3,.69-.71,1.28-1.22,1.76,.65,.37,1.41,.65,2.22,.82-.21,.2-.51,.59-.64,.86-.88-.23-1.68-.58-2.39-1.06-.67,.44-1.46,.77-2.32,1.03-.05-.12-.16-.29-.29-.45-.19,.65-.4,1.3-.61,1.77l-.7-.35c.18-.43,.34-1.05,.48-1.65h-.85v4.22c0,.5-.08,.77-.41,.95-.32,.14-.77,.17-1.45,.17-.03-.28-.17-.69-.3-.97,.44,.02,.88,.02,1.01,.01,.13-.01,.18-.03,.18-.17v-2.98c-.41,.95-.92,1.84-1.49,2.39-.1-.3-.34-.72-.52-.98,.66-.58,1.29-1.63,1.68-2.64h-1.53v-.89h2.81c-.61-.44-1.56-.96-2.35-1.3l.64-.66c.31,.12,.66,.28,.99,.44,.34-.26,.67-.59,.95-.92h-2.89v-.87h3.62l.17-.03,.66,.41c-.41,.65-1.07,1.33-1.72,1.84,.35,.2,.65,.41,.88,.58l-.47,.52h.68l.15-.05,.62,.22c-.03,.14-.07,.29-.1,.44,.63-.18,1.19-.41,1.68-.69-.37-.35-.7-.74-.98-1.16-.22,.24-.44,.45-.66,.64-.2-.17-.59-.45-.85-.58,.87-.63,1.65-1.62,2.09-2.65l.96,.26c-.13,.3-.29,.58-.45,.87h3.47v.86h-.76Zm.56,4.13s-.01,.26-.03,.41c-.19,1.97-.39,2.82-.69,3.15-.22,.22-.44,.29-.74,.33-.27,.02-.73,.02-1.22,0-.02-.29-.13-.68-.28-.95,.43,.04,.84,.05,1.02,.05,.17,0,.25-.02,.35-.12,.19-.17,.34-.73,.48-2.01h-1.6c-.37,1.35-1.14,2.45-2.88,3.14-.12-.24-.4-.62-.6-.79,1.43-.52,2.1-1.34,2.44-2.34h-1.54v-.86h1.76c.05-.34,.1-.68,.13-1.05h1.01c-.03,.36-.08,.7-.13,1.05h2.51Zm-3.72-4.13c.29,.45,.66,.85,1.11,1.21,.38-.34,.69-.75,.92-1.21h-2.04Z"/>
        <path class="cls-4" d="M188.64,35.62c-.07,3.51-.11,6.8,.41,6.95,.07,.02,.12-.85,.14-1.79,.17,.24,.45,.57,.59,.69-.07,1.91-.5,2.33-1.11,2.09-1.06-.39-1.03-3.36-1.01-6.99h-1.07v.25c0,.74-.03,1.54-.15,2.34,.51,.4,.97,.79,1.25,1.14l-.59,.83c-.22-.28-.53-.58-.89-.9-.35,1.24-1,2.43-2.2,3.38-.18-.18-.55-.5-.79-.64,1.25-.95,1.87-2.18,2.17-3.42-.37-.29-.76-.56-1.12-.79v.87h-1.79v.98h1.63v.87h-1.63v2.09h-.96v-2.09h-1.72v-.87h1.72v-.98h-1.83v-.88h.97c-.07-.41-.23-.98-.44-1.42l.54-.14h-1.25v-.87h2.01v-.9h-1.58v-.86h1.58v-1.07h.96v1.07h1.52v.86h-1.52v.9h1.77v-.7h1.41v-2.1h.95v2.1h2.05Zm-7.61,1.57c.22,.47,.42,1.08,.47,1.46l-.32,.1h1.63l-.33-.1c.18-.4,.38-1.01,.5-1.46h-1.95Zm4.62-.62h-1.22v.62h-1.08l.52,.13c-.2,.51-.4,1.03-.59,1.43h.98l-.15-.1,.54-.72c.3,.18,.61,.37,.92,.59,.07-.59,.09-1.18,.09-1.72v-.24Z"/>
        <path class="cls-4" d="M195.03,36.21c-.34,.56-.75,1.13-1.2,1.68v5.73h-1.02v-4.6c-.36,.36-.74,.7-1.09,.99-.13-.22-.5-.67-.7-.87,1.12-.8,2.31-2.06,3.05-3.3l.97,.36Zm-.42-2.31c-.75,.98-1.89,2.07-2.91,2.78-.12-.23-.4-.63-.58-.83,.91-.59,1.97-1.57,2.51-2.37l.98,.41Zm6.6,4.22h-1.58v4.24c0,.58-.13,.88-.55,1.05-.41,.15-1.06,.17-2.08,.17-.04-.3-.19-.73-.33-1.02,.7,.02,1.44,.02,1.64,.01,.21,0,.28-.05,.28-.21v-4.22h-3.48v-.98h6.11v.98Zm-.31-3h-5.33v-.98h5.33v.98Z"/>
        <path class="cls-4" d="M204.6,39.95c-.14,1.03-.4,2.1-.74,2.81-.17-.12-.57-.31-.78-.39,.33-.66,.54-1.63,.65-2.57l.87,.15Zm1.3-.87v4.53h-.91v-4.48c-.63,.03-1.21,.07-1.72,.1l-.09-.9,.77-.02c.21-.26,.42-.55,.64-.86-.34-.48-.9-1.08-1.39-1.54l.5-.68c.1,.09,.2,.18,.3,.26,.34-.61,.7-1.4,.9-1.99l.92,.33c-.4,.75-.86,1.62-1.25,2.21,.21,.22,.4,.44,.54,.64,.43-.66,.83-1.34,1.11-1.91l.87,.37c-.63,1-1.45,2.21-2.19,3.12l1.46-.06c-.14-.31-.3-.6-.46-.88l.74-.32c.45,.72,.9,1.65,1.06,2.26l-.78,.37c-.04-.18-.11-.39-.2-.62l-.81,.05Zm1.01,.66c.3,.66,.59,1.52,.71,2.08l-.81,.29c-.1-.57-.4-1.44-.67-2.11l.77-.25Zm6.48,2.63v.92h-6.39v-.92h1.09v-8.28h4.51v8.28h.79Zm-4.3-7.36v1.8h2.48v-1.8h-2.48Zm2.48,2.73h-2.48v1.82h2.48v-1.82Zm-2.48,4.63h2.48v-1.89h-2.48v1.89Z"/>
        <path class="cls-4" d="M220.51,33.53c1.18,1.64,3.04,3.09,4.76,3.84-.25,.25-.5,.61-.67,.91-.58-.31-1.2-.68-1.78-1.11v.78h-5.48v-.75c-.56,.42-1.17,.79-1.77,1.12-.12-.24-.42-.61-.63-.81,1.88-.96,3.69-2.61,4.52-3.98h1.05Zm-3.8,5.67h6.78v4.42h-1.04v-.43h-4.73v.43h-1v-4.42Zm5.92-2.16c-1.04-.77-1.98-1.66-2.6-2.51-.56,.81-1.44,1.72-2.48,2.51h5.07Zm-4.92,3.08v2.16h4.73v-2.16h-4.73Z"/>
        <path class="cls-4" d="M233.54,41.76c1.1,.32,2.42,.79,3.25,1.14l-.9,.72c-.83-.37-2.31-.94-3.47-1.27l.8-.59h-3.18l.77,.52c-.88,.53-2.29,1.06-3.41,1.33-.19-.21-.52-.55-.77-.74,1.05-.24,2.33-.69,3.06-1.11h-1.9v-4.76h7.85v4.76h-2.1Zm1.67-5.29h-6.95v-2.57h6.95v2.57Zm-6.41,1.89h5.78v-.63h-5.78v.63Zm0,1.33h5.78v-.64h-5.78v.64Zm0,1.33h5.78v-.65h-5.78v.65Zm5.34-6.31h-4.85v.95h4.85v-.95Z"/>
        <path class="cls-4" d="M241.58,38.56c0,2.23-.92,3.99-2.18,5.26l-.84-.4c1.2-1.25,2.03-2.84,2.03-4.86s-.83-3.61-2.03-4.86l.84-.4c1.25,1.27,2.18,3.03,2.18,5.26Z"/>
      </g>
      <g>
        <path d="M206.3,77.06v1h-9.89v-1h2.45v-2.38h-2.04v-.99h2.04v-2.12h1.06v2.12h2.84v-2.12h1.07v2.12h2.11v.99h-2.11v2.38h2.47Zm-5.86,1.96c-.79,.94-2,1.95-3.09,2.56-.21-.21-.58-.54-.83-.72,1.06-.56,2.24-1.49,2.84-2.27l1.08,.42Zm-.52-1.96h2.84v-2.38h-2.84v2.38Zm3.19,1.51c.99,.72,2.33,1.74,3.04,2.41l-.99,.59c-.63-.64-1.95-1.72-2.95-2.48l.9-.53Z"/>
        <path d="M212.36,73.82c-.18,.37-.37,.75-.57,1.1h5.18v5.48c0,.55-.11,.86-.51,1.01-.38,.17-1,.17-1.91,.17-.03-.28-.19-.72-.32-.99,.65,.03,1.31,.03,1.5,.02,.19,0,.24-.05,.24-.22v-.95h-4.3v2.15h-1.01v-5.04c-.48,.57-1.03,1.09-1.65,1.52-.15-.22-.46-.61-.67-.79,1.24-.84,2.2-2.1,2.89-3.45h-2.6v-.96h3.01c.19-.46,.34-.92,.46-1.38l1.05,.24c-.12,.37-.24,.76-.39,1.13h5.47v.96h-5.88Zm3.61,1.99h-4.3v.96h4.3v-.96Zm0,2.77v-.96h-4.3v.96h4.3Z"/>
        <path d="M223.77,77.12l-1.11,.35v2.94c0,.52-.11,.78-.4,.95-.3,.15-.74,.2-1.43,.19-.03-.24-.15-.68-.28-.95,.43,.01,.85,.01,.97,.01,.13,0,.19-.04,.19-.2v-2.65l-1.25,.4-.23-.99c.41-.11,.92-.25,1.49-.42v-2.17h-1.33v-.95h1.33v-2.12h.95v2.12h1.06v.95h-1.06v1.9l.98-.3,.13,.94Zm5.3-1.23v1.07h1.3v.94h-1.3v2.55c0,.55-.11,.83-.46,.98-.36,.15-.91,.17-1.71,.17-.04-.29-.18-.7-.31-.98,.56,.03,1.13,.03,1.3,.02,.17-.01,.21-.05,.21-.21v-2.53h-4.1v-.94h4.1v-1.07h-4.22v-.94h2.81v-1.19h-2.29v-.94h2.29v-1.3h.98v1.3h2.26v.94h-2.26v1.19h2.77v.94h-1.36Zm-3.56,2.2c.47,.56,1.01,1.34,1.24,1.87l-.87,.52c-.2-.53-.71-1.34-1.18-1.94l.8-.45Z"/>
        <path d="M239.54,71.65c.7,1.43,2.09,3.05,3.28,3.93-.26,.22-.66,.63-.86,.91-.3-.25-.62-.56-.92-.9,0,.1,0,.33-.01,.43-.14,3.33-.3,4.61-.67,5.04-.25,.32-.51,.4-.9,.45-.37,.04-1.04,.03-1.71,0,0-.31-.15-.74-.34-1.03,.67,.07,1.3,.08,1.55,.08,.22,0,.35-.03,.47-.15,.25-.26,.4-1.3,.51-3.85h-2.54c-.28,2.13-.98,4.06-3.81,5.09-.11-.26-.42-.7-.65-.91,2.53-.84,3.11-2.44,3.34-4.18h-2.06v-.85c-.32,.33-.66,.63-1,.89-.19-.22-.63-.63-.87-.81,1.37-.92,2.57-2.43,3.26-4.1l1.09,.32c-.57,1.33-1.4,2.56-2.33,3.55h6.62c-.91-1-1.82-2.28-2.44-3.5l.99-.4Z"/>
        <path d="M249.47,75.26c.7,0,1.28,.57,1.28,1.28s-.57,1.28-1.28,1.28-1.28-.57-1.28-1.28,.57-1.28,1.28-1.28Z"/>
        <path d="M263.3,71.65c.7,1.43,2.09,3.05,3.28,3.93-.26,.22-.66,.63-.86,.91-.3-.25-.62-.56-.92-.9,0,.1,0,.33-.01,.43-.14,3.33-.3,4.61-.67,5.04-.25,.32-.51,.4-.9,.45-.37,.04-1.04,.03-1.71,0,0-.31-.15-.74-.34-1.03,.67,.07,1.3,.08,1.55,.08,.22,0,.35-.03,.47-.15,.25-.26,.4-1.3,.51-3.85h-2.54c-.28,2.13-.98,4.06-3.81,5.09-.11-.26-.42-.7-.65-.91,2.53-.84,3.11-2.44,3.34-4.18h-2.06v-.85c-.32,.33-.66,.63-1,.89-.19-.22-.63-.63-.87-.81,1.37-.92,2.57-2.43,3.26-4.1l1.09,.32c-.57,1.33-1.4,2.56-2.33,3.55h6.62c-.91-1-1.82-2.28-2.44-3.5l.99-.4Z"/>
        <path d="M268.46,71.9h4.93v.9h-1.43v1.1h1.2v7.48h-.83v-.57h-2.83v.73h-.8v-7.64h1.29v-1.1h-1.53v-.9Zm1.05,6.39h2.83v-.9s-.08,.01-.12,.01h-.45c-.45,0-.58-.13-.58-.7v-1.94h-.52v.87c0,.65-.13,1.5-.75,2.09-.09-.11-.3-.29-.41-.36,.55-.52,.64-1.19,.64-1.74v-.86h-.64v3.53Zm2.83,1.71v-.97h-2.83v.97h2.83Zm-1.09-7.2h-.55v1.1h.55v-1.1Zm1.09,1.96h-.64v1.93c0,.14,.01,.17,.12,.17h.31c.11,0,.14-.01,.15-.03,.02,.01,.03,.02,.05,.04v-2.1Zm4.62,5.74c.45,0,.53-.28,.59-1.8,.23,.19,.65,.36,.92,.43-.11,1.8-.38,2.32-1.44,2.32h-1.71c-1.09,0-1.43-.3-1.43-1.45v-4.64h3.18v-2.39h-3.21v-.98h4.2v5.06h-.99v-.73h-2.17v3.67c0,.43,.09,.51,.55,.51h1.5Z"/>
      </g>
    </g>
    <g>
      <g>
        <path d="M798.51,111.43c-.43,.14-.86,.28-1.29,.41v3.94h-.95v-3.64l-1.73,.53-.26-.98c.55-.14,1.24-.33,1.99-.54v-2.31h-.88c-.13,.58-.29,1.11-.45,1.53-.17-.13-.54-.35-.75-.46,.39-.89,.58-2.28,.69-3.59l.87,.14c-.05,.47-.11,.95-.19,1.41h.7v-2.18h.95v2.18h1.02v.97h-1.02v2.02l1.16-.33,.13,.9Zm5.83-3.97s0,.35-.01,.48c-.24,4.94-.45,6.68-.88,7.22-.23,.33-.45,.43-.8,.48-.3,.05-.76,.04-1.24,.02-.01-.3-.12-.72-.29-1,.46,.04,.87,.04,1.08,.04,.18,0,.29-.04,.4-.2,.32-.36,.55-1.93,.75-6.11h-.31c-.56,2.84-1.74,5.73-3.52,7.16-.2-.19-.56-.45-.85-.6,1.77-1.27,2.93-3.89,3.48-6.56h-.74c-.48,1.85-1.44,3.86-2.61,4.9-.19-.19-.52-.44-.79-.58,1.13-.88,2.04-2.62,2.54-4.31h-.78c-.34,.79-.74,1.49-1.19,2.02-.16-.14-.57-.45-.79-.58,.89-.97,1.52-2.53,1.88-4.16l.92,.18c-.12,.55-.29,1.09-.45,1.6h4.2Z"/>
        <path d="M809.75,106.02c-.29,.8-.66,1.61-1.08,2.38v7.37h-.97v-5.83c-.28,.39-.57,.76-.86,1.07-.1-.24-.39-.79-.56-1.03,1-1.03,1.94-2.63,2.51-4.24l.96,.29Zm6.68,6.03h-2.92v3.73h-1.02v-3.73h-3.05v-1h3.05v-2.18h-1.56c-.22,.59-.46,1.13-.74,1.55-.2-.14-.64-.38-.88-.49,.62-.88,1.07-2.29,1.31-3.66l.99,.2c-.1,.47-.22,.95-.35,1.41h1.23v-2.05h1.02v2.05h2.42v1h-2.42v2.18h2.92v1Z"/>
        <path d="M820.15,113.41c-.28,.9-.75,1.8-1.24,2.39-.18-.15-.56-.41-.77-.53,.5-.52,.9-1.29,1.11-2.08l.9,.22Zm1.76-.39h-3.2v-6.93h3.2v6.93Zm-.92-6.09h-1.39v1.22h1.39v-1.22Zm0,2h-1.39v1.24h1.39v-1.24Zm0,2.01h-1.39v1.25h1.39v-1.25Zm.36,2.23c.35,.54,.74,1.25,.91,1.73l-.8,.39c-.14-.47-.54-1.23-.88-1.78l.77-.33Zm6.97,.83h-.58v.79c0,.45-.1,.69-.42,.84-.33,.14-.84,.14-1.6,.14-.03-.23-.15-.59-.28-.83,.51,.02,1.01,.02,1.16,.01,.15,0,.19-.04,.19-.18v-.78h-3.18v1.79h-.91v-1.79h-.65v-.75h.65v-2.78h2.02v-.53h-2.63v-.76h1.49v-.58h-.99v-.73h.99v-.54h-1.26v-.76h1.26v-.89h.9v.89h1.41v-.89h.91v.89h1.27v.76h-1.27v.54h1.09v.73h-1.09v.58h1.5v.76h-2.67v.53h2.11v2.78h.58v.75Zm-4.71-2.77v.65h1.11v-.65h-1.11Zm0,2.02h1.11v-.7h-1.11v.7Zm.87-5.38h1.41v-.54h-1.41v.54Zm0,1.31h1.41v-.58h-1.41v.58Zm1.14,2.05v.65h1.17v-.65h-1.17Zm1.17,2.02v-.7h-1.17v.7h1.17Z"/>
        <path d="M835.8,106.33c0,1.99,.25,6.07,4.45,8.55-.23,.18-.65,.62-.83,.87-2.5-1.51-3.67-3.75-4.21-5.78-.81,2.65-2.19,4.58-4.22,5.8-.2-.21-.67-.64-.95-.83,2.37-1.22,3.7-3.39,4.33-6.37l.56,.1c-.08-.46-.12-.91-.14-1.31h-2.62v-1.03h3.63Z"/>
        <path d="M847,109.46c.71,0,1.28,.57,1.28,1.28s-.57,1.28-1.28,1.28-1.28-.57-1.28-1.28,.57-1.28,1.28-1.28Z"/>
        <path d="M859.56,106.33c0,1.99,.25,6.07,4.45,8.55-.23,.18-.65,.62-.83,.87-2.5-1.51-3.67-3.75-4.21-5.78-.81,2.65-2.19,4.58-4.22,5.8-.2-.21-.67-.64-.95-.83,2.37-1.22,3.7-3.39,4.33-6.37l.56,.1c-.08-.46-.12-.91-.14-1.31h-2.62v-1.03h3.63Z"/>
        <path d="M872.4,111.08v1.11h2.67v3.58h-1.01v-.34h-4.21v.35h-.98v-3.59h2.51v-1.11h-3.07v-.92h3.07v-1.08h-3.27v.35c0,1.88-.17,4.6-1.34,6.38-.2-.18-.65-.44-.9-.54,1.12-1.68,1.21-4.09,1.21-5.84v-3.18h8.13v2.83h-2.81v1.08h3.44v.92h-3.44Zm-4.29-2.92h6.06v-1.01h-6.06v1.01Zm5.95,4.93h-4.21v1.44h4.21v-1.44Z"/>
        <path d="M883.75,110.01c-.49,.37-1.01,.7-1.54,1.03h4.27v4.7h-1.06v-.3h-4.15v.34h-1.01v-3.7c-.62,.29-1.24,.55-1.87,.79-.12-.23-.44-.64-.63-.85,1.52-.51,2.98-1.19,4.3-2.02h-4.03v-.91h3.64v-1.23h-2.68v-.89h2.68v-1.29h1.01v1.29h2.56v.48c.44-.45,.85-.92,1.2-1.42l.88,.46c-.69,.95-1.52,1.8-2.43,2.6h2.88v.91h-4.04Zm1.67,1.88h-4.15v.91h4.15v-.91Zm0,2.68v-.97h-4.15v.97h4.15Zm-2.01-5.48c.52-.39,.99-.8,1.44-1.23h-2.16v1.23h.72Z"/>
      </g>
      <g>
        <g>
          <path class="cls-4" d="M815.2,91.82v-25.71c0-2.8-2.27-5.08-5.08-5.08h-17.48c-2.8,0-5.08,2.27-5.08,5.08v25.71h27.63Z"/>
          <circle class="cls-4" cx="801.39" cy="48.97" r="6.8"/>
        </g>
        <g>
          <path class="cls-4" d="M854.67,91.82v-25.71c0-2.8-2.27-5.08-5.08-5.08h-17.48c-2.8,0-5.08,2.27-5.08,5.08v25.71h27.63Z"/>
          <circle class="cls-4" cx="840.85" cy="48.97" r="6.8"/>
        </g>
        <g>
          <path class="cls-4" d="M894.13,91.82v-25.71c0-2.8-2.27-5.08-5.08-5.08h-17.48c-2.8,0-5.08,2.27-5.08,5.08v25.71h27.63Z"/>
          <circle class="cls-4" cx="880.31" cy="48.97" r="6.8"/>
        </g>
      </g>
    </g>
    <g>
      <path d="M658.17,66.22c-.27,.9-.75,1.8-1.24,2.39-.18-.15-.56-.41-.77-.53,.49-.52,.9-1.29,1.11-2.08l.9,.22Zm1.76-.38h-3.2v-6.93h3.2v6.93Zm-.92-6.09h-1.39v1.22h1.39v-1.22Zm0,2h-1.39v1.24h1.39v-1.24Zm0,2.01h-1.39v1.25h1.39v-1.25Zm.36,2.23c.35,.54,.74,1.25,.91,1.73l-.8,.38c-.14-.47-.54-1.23-.88-1.78l.77-.33Zm6.98,.83h-.58v.79c0,.45-.1,.69-.42,.84-.33,.14-.84,.14-1.59,.14-.03-.23-.15-.59-.28-.83,.51,.02,1.01,.02,1.16,.01,.15,0,.19-.04,.19-.18v-.78h-3.18v1.79h-.91v-1.79h-.65v-.75h.65v-2.78h2.03v-.53h-2.63v-.76h1.49v-.58h-.99v-.73h.99v-.54h-1.27v-.76h1.27v-.89h.9v.89h1.41v-.89h.91v.89h1.26v.76h-1.26v.54h1.09v.73h-1.09v.58h1.5v.76h-2.67v.53h2.11v2.78h.58v.75Zm-4.71-2.77v.65h1.11v-.65h-1.11Zm0,2.02h1.11v-.7h-1.11v.7Zm.87-5.38h1.41v-.54h-1.41v.54Zm0,1.31h1.41v-.58h-1.41v.58Zm1.14,2.05v.65h1.17v-.65h-1.17Zm1.17,2.02v-.7h-1.17v.7h1.17Z"/>
      <path d="M673.81,59.14c0,1.99,.25,6.07,4.44,8.55-.23,.18-.65,.62-.83,.87-2.5-1.51-3.67-3.75-4.21-5.78-.81,2.65-2.19,4.58-4.22,5.8-.2-.21-.67-.64-.95-.83,2.37-1.22,3.7-3.39,4.33-6.37l.56,.1c-.08-.46-.12-.91-.14-1.31h-2.62v-1.03h3.63Z"/>
      <path d="M685.02,62.27c.7,0,1.28,.57,1.28,1.28s-.57,1.28-1.28,1.28-1.28-.57-1.28-1.28,.57-1.28,1.28-1.28Z"/>
      <path d="M697.57,59.14c0,1.99,.25,6.07,4.44,8.55-.23,.18-.65,.62-.83,.87-2.5-1.51-3.67-3.75-4.21-5.78-.81,2.65-2.19,4.58-4.22,5.8-.2-.21-.67-.64-.95-.83,2.37-1.22,3.7-3.39,4.33-6.37l.56,.1c-.08-.46-.12-.91-.14-1.31h-2.62v-1.03h3.63Z"/>
      <path d="M710.42,63.89v1.11h2.67v3.58h-1.01v-.34h-4.21v.35h-.98v-3.59h2.51v-1.11h-3.07v-.92h3.07v-1.08h-3.27v.35c0,1.88-.17,4.6-1.34,6.38-.2-.18-.65-.44-.9-.54,1.12-1.68,1.21-4.09,1.21-5.84v-3.18h8.13v2.83h-2.8v1.08h3.44v.92h-3.44Zm-4.29-2.92h6.06v-1.01h-6.06v1.01Zm5.95,4.93h-4.21v1.44h4.21v-1.44Z"/>
    </g>
    <polyline class="cls-1" points="330.52 58.12 483.37 58.12 476.74 52.79"/>
    <polyline class="cls-1" points="483.37 94.75 330.52 94.75 337.15 100.09"/>
    <polyline class="cls-1" points="761.29 76.42 608.43 76.42 615.07 71.08"/>
    <g>
      <g>
        <path d="M539.31,140.7c-.43,.14-.86,.28-1.29,.41v3.94h-.95v-3.64l-1.73,.53-.26-.98c.55-.14,1.24-.33,1.99-.54v-2.31h-.88c-.13,.58-.29,1.11-.45,1.53-.17-.13-.54-.35-.75-.46,.38-.89,.58-2.28,.69-3.59l.87,.14c-.05,.47-.11,.95-.19,1.41h.7v-2.18h.95v2.18h1.02v.97h-1.02v2.02l1.15-.33,.13,.9Zm5.83-3.97s0,.35-.01,.48c-.24,4.94-.45,6.68-.88,7.22-.23,.33-.45,.43-.8,.48-.3,.05-.76,.04-1.24,.02-.01-.3-.12-.72-.29-1,.46,.04,.87,.04,1.08,.04,.18,0,.29-.04,.4-.2,.32-.36,.55-1.93,.75-6.11h-.31c-.56,2.84-1.74,5.73-3.52,7.16-.2-.19-.56-.45-.85-.61,1.77-1.27,2.93-3.89,3.48-6.56h-.74c-.48,1.85-1.44,3.86-2.61,4.9-.19-.19-.52-.44-.79-.58,1.13-.88,2.04-2.62,2.54-4.31h-.78c-.34,.79-.74,1.49-1.19,2.02-.17-.14-.57-.45-.79-.58,.89-.97,1.52-2.53,1.88-4.16l.92,.18c-.12,.55-.29,1.09-.45,1.6h4.2Z"/>
        <path d="M550.55,135.28c-.29,.8-.66,1.61-1.08,2.38v7.37h-.97v-5.83c-.28,.39-.57,.76-.86,1.07-.1-.24-.38-.79-.56-1.03,1-1.03,1.94-2.63,2.51-4.24l.96,.29Zm6.68,6.03h-2.92v3.73h-1.02v-3.73h-3.05v-1h3.05v-2.18h-1.56c-.22,.59-.46,1.13-.74,1.55-.2-.14-.64-.39-.88-.49,.62-.88,1.07-2.29,1.31-3.66l.99,.2c-.1,.47-.22,.95-.35,1.41h1.23v-2.05h1.02v2.05h2.42v1h-2.42v2.18h2.92v1Z"/>
      </g>
      <g>
        <polygon class="cls-4" points="584.08 17.29 528.81 17.29 507.72 24.34 563 24.34 584.08 17.29"/>
        <rect class="cls-5" x="507.72" y="24.34" width="55.28" height="96.74"/>
        <polygon class="cls-7" points="584.08 17.29 584.08 114.03 563 121.08 563 24.34 584.08 17.29"/>
        <g>
          <rect class="cls-7" x="513.44" y="33.87" width="49.56" height="2.09"/>
          <rect class="cls-7" x="513.44" y="42.27" width="49.56" height="2.09"/>
          <rect class="cls-7" x="513.44" y="50.67" width="49.56" height="2.09"/>
          <rect class="cls-7" x="513.44" y="59.07" width="49.56" height="2.09"/>
          <rect class="cls-7" x="513.44" y="67.47" width="49.56" height="2.09"/>
          <rect class="cls-7" x="513.44" y="75.86" width="49.56" height="2.09"/>
          <rect class="cls-7" x="513.44" y="84.26" width="49.56" height="2.09"/>
          <rect class="cls-7" x="513.44" y="92.66" width="49.56" height="2.09"/>
          <rect class="cls-7" x="513.44" y="101.06" width="49.56" height="2.09"/>
          <rect class="cls-7" x="513.44" y="109.46" width="49.56" height="2.09"/>
        </g>
      </g>
    </g>
  </g>
</svg>