<?xml version="1.0" encoding="UTF-8"?>
<svg id="Layer_2" data-name="Layer 2" xmlns="http://www.w3.org/2000/svg" viewBox="0 0 329.94 207.29">
  <defs>
    <style>
      .cls-1 {
        fill: #fff;
      }

      .cls-2 {
        fill: #323230;
      }

      .cls-3 {
        fill: #cececa;
        stroke-width: .53px;
      }

      .cls-3, .cls-4 {
        stroke: #cececa;
      }

      .cls-3, .cls-4, .cls-5, .cls-6 {
        stroke-miterlimit: 10;
      }

      .cls-4 {
        fill: #e5e5df;
      }

      .cls-5 {
        stroke-dasharray: 0 0 2 2;
      }

      .cls-5, .cls-6 {
        fill: none;
        stroke: #323230;
      }
    </style>
  </defs>
  <g id="design">
    <ellipse class="cls-5" cx="223.65" cy="79.14" rx="75.43" ry="42.93" transform="translate(-13.16 64.79) rotate(-16.02)"/>
    <path class="cls-6" d="M116.57,67.96c-18.65,3.76-35.54,11.34-48.25,20.79"/>
    <path class="cls-6" d="M93.58,161.06c8.17,.2,17-.57,26.19-2.42,14.31-2.89,27.58-8.02,38.72-14.51"/>
    <g>
      <path d="M195.99,71.34l.63,.41c-.09,.19-.16,.48-.22,.69-.23,.98-.66,2.53-1.5,3.64-.9,1.2-2.23,2.19-4.02,2.76l-1.09-1.19c1.99-.47,3.11-1.33,3.92-2.35,.66-.83,1.04-1.96,1.18-2.82h-4.66c-.46,0-.93,.02-1.19,.04v-1.41c.29,.04,.86,.08,1.19,.08h4.63c.12,0,.29,0,.47-.02-.17-.33-.37-.68-.56-.97l.82-.34c.26,.38,.59,.96,.77,1.32l-.37,.16Zm1-1.73c.25,.36,.61,.97,.8,1.32l-.83,.36c-.22-.41-.53-.98-.8-1.34l.83-.34Z"/>
      <path d="M206.37,77.06c0,.39,.02,1.35,.02,1.39h-1.38v-.55s-4.81,0-4.81,0v.55s-1.37,0-1.37,0c.01-.05,.03-.92,.03-1.4v-4.89c0-.28,0-.69-.02-.97,.41,0,.79,.02,1.06,.02h5.5c.25,0,.63,0,.99-.02-.02,.3-.02,.67-.02,.97v4.9Zm-6.17-4.58v4.15h4.83v-4.15h-4.83Z"/>
      <path d="M210.43,75.14l-1.22,.46c-.17-.54-.67-1.87-.91-2.31l1.2-.43c.25,.51,.73,1.72,.93,2.28Zm5.08-2.08c-.12,.32-.18,.53-.24,.73-.26,1.01-.68,2.05-1.36,2.93-.93,1.2-2.18,2.04-3.35,2.48l-1.05-1.07c1.1-.29,2.49-1.05,3.32-2.09,.68-.85,1.16-2.18,1.27-3.43l1.41,.45Zm-2.87,1.46l-1.2,.42c-.12-.49-.56-1.7-.81-2.22l1.19-.39c.19,.43,.68,1.73,.82,2.19Z"/>
      <path d="M225.17,72.06c-.11,.19-.25,.47-.33,.72-.27,.89-.84,2.22-1.74,3.34-.95,1.16-2.16,2.07-4.04,2.82l-1.18-1.06c2.05-.61,3.16-1.48,4.03-2.47,.68-.78,1.26-1.98,1.42-2.73h-2.81c-.67,.87-1.54,1.75-2.52,2.42l-1.12-.83c1.75-1.07,2.62-2.36,3.12-3.22,.15-.25,.36-.71,.45-1.05l1.46,.48c-.24,.35-.49,.8-.61,1.02l-.03,.05h2.01c.31,0,.64-.05,.87-.12l1.02,.63Z"/>
      <path d="M233.93,73.55c.21,0,.69-.04,.91-.06v1.29c-.27-.02-.61-.04-.88-.04h-2.59c-.15,1.68-.87,3.1-2.56,4.11l-1.27-.86c1.52-.7,2.32-1.77,2.51-3.25h-2.75c-.31,0-.68,.02-.94,.04v-1.29c.27,.03,.61,.06,.92,.06h2.82v-1.42c-.96,.08-2.01,.11-2.68,.13l-.31-1.16c.76,.02,2.31,0,3.41-.16,1-.14,2.02-.37,2.52-.6l.82,1.1c-.34,.08-.6,.15-.77,.19-.49,.13-1.08,.24-1.68,.33v1.59h2.52Z"/>
      <path d="M242.58,77.3c.28,0,.56-.04,.76-.06v1.31c-.21-.04-.58-.05-.76-.05h-5.52c-.24,0-.55,0-.82,.05v-1.31c.26,.03,.57,.06,.82,.06h2.04v-3.22h-1.56c-.21,0-.57,.02-.79,.04v-1.26c.22,.04,.57,.05,.79,.05h4.58c.24,0,.54-.02,.78-.05v1.26c-.25-.02-.56-.04-.78-.04h-1.71v3.22h2.17Z"/>
      <path d="M244.98,73.65c.36,.03,1.09,.06,1.61,.06h5.37c.46,0,.91-.04,1.17-.06v1.57c-.24,0-.75-.05-1.17-.05h-5.37c-.57,0-1.24,.02-1.61,.05v-1.57Z"/>
      <path d="M257.55,76.03c1.7-1.01,3.01-2.54,3.64-3.89l.78,1.41c-.76,1.35-2.09,2.73-3.7,3.7-1.01,.61-2.3,1.17-3.71,1.41l-.84-1.32c1.56-.22,2.86-.73,3.83-1.31Zm0-3.24l-1.02,1.05c-.52-.56-1.77-1.65-2.5-2.16l.94-1c.7,.47,2,1.51,2.58,2.11Z"/>
    </g>
    <g>
      <path d="M105.29,175.4v4.13h-.96v-.59h-5.91v.61h-.94v-4.15h.94v2.63h2.41v-3.23h-2.97v-3.49h.93v2.59h2.04v-3.46h.95v3.46h2.14v-2.6h.98v3.5h-3.12v3.23h2.55v-2.63h.96Z"/>
      <path d="M109.5,173.13c-.87,.29-1.8,.56-2.54,.79l-.37-.82c.73-.15,1.79-.43,2.82-.7l.09,.73Zm.92,5.21c-.81,.49-2.06,.97-3.06,1.24-.16-.18-.49-.53-.7-.69,1.03-.2,2.22-.55,2.91-.94l.85,.39Zm-1.27-6.33c-.47-.25-1.39-.61-2.09-.82l.41-.63c.68,.17,1.61,.5,2.09,.74l-.41,.71Zm1.89-.27c-.24,.3-.52,.58-.85,.83-.17-.16-.48-.36-.7-.45,.74-.5,1.23-1.17,1.48-1.75l.84,.13c-.09,.19-.19,.38-.31,.57h3.21l.14-.03,.62,.16c-.26,.52-.63,1.1-.97,1.45l-.73-.23c.17-.18,.34-.43,.5-.68h-1.38c.22,.72,.78,1.36,2.81,1.63-.17,.18-.39,.53-.47,.76-.28-.05-.54-.11-.77-.17v3.97h-6.52v-4.02h2.01c-.09-.2-.27-.47-.41-.61,1.61-.26,2.18-.74,2.41-1.56h-.91Zm2.49,2.76h-4.69v.56h4.69v-.56Zm0,1.12h-4.69v.57h4.69v-.57Zm0,1.14h-4.69v.58h4.69v-.58Zm.77-2.85c-1-.31-1.52-.78-1.83-1.31-.38,.61-1.04,1.03-2.23,1.31h4.06Zm-1.69,4.06c1.07,.36,2.27,.82,2.99,1.16l-1.07,.44c-.59-.32-1.64-.77-2.68-1.13l.76-.47Z"/>
      <path d="M119.52,172.9c-.23,.4-.51,.82-.81,1.22v5.43h-.89v-4.39c-.34,.37-.71,.7-1.05,.97-.07-.2-.31-.7-.46-.93,.88-.63,1.83-1.63,2.4-2.63l.81,.33Zm-.13-2.15c-.62,.88-1.59,1.82-2.48,2.42-.1-.22-.32-.59-.47-.78,.77-.5,1.64-1.31,2.06-2l.89,.36Zm4.89,3.62v.97h1.26v.85h-1.26v2.32c0,.5-.1,.75-.45,.88-.34,.15-.87,.16-1.63,.16-.04-.26-.17-.64-.29-.89,.54,.03,1.09,.03,1.25,.02,.15,0,.2-.05,.2-.19v-2.3h-3.95v-.85h3.95v-.97h-4.06v-.85h2.69v-1.08h-2.11v-.85h2.11v-1.18h.92v1.18h2.21v.85h-2.21v1.08h2.7v.85h-1.33Zm-3.45,2.01c.46,.51,.97,1.22,1.2,1.7l-.81,.46c-.2-.48-.69-1.22-1.14-1.76l.75-.4Z"/>
      <path d="M133.5,172.74c-1.09,.19-2.68,.36-3.97,.42-.16,.73-.36,1.54-.55,2.07,.84-.54,1.62-.76,2.64-.76,1.59,0,2.57,.83,2.57,2.04,0,2.13-2.12,2.92-5.21,2.59l-.28-1.01c2.24,.33,4.45,0,4.45-1.56,0-.67-.57-1.2-1.64-1.2-1.17,0-2.22,.4-2.85,1.17-.11,.14-.2,.28-.29,.45l-.93-.33c.49-.96,.89-2.33,1.14-3.44-.65,0-1.27-.04-1.81-.09v-.98c.57,.1,1.34,.17,1.95,.17h.04c.04-.21,.07-.39,.09-.54,.04-.36,.06-.6,.04-.89l1.12,.05c-.09,.3-.15,.62-.2,.91l-.09,.44c1.16-.05,2.57-.2,3.77-.46v.95Z"/>
      <path d="M141.58,170.52c.64,1.3,1.9,2.77,2.98,3.57-.24,.2-.6,.57-.78,.83-.27-.23-.56-.51-.84-.82,0,.09,0,.3,0,.39-.13,3.03-.27,4.19-.61,4.58-.23,.29-.46,.36-.82,.41-.34,.04-.95,.03-1.55,0-.01-.28-.14-.67-.31-.94,.61,.06,1.18,.07,1.41,.07,.2,0,.32-.03,.43-.14,.23-.24,.36-1.18,.46-3.5h-2.31c-.25,1.94-.89,3.69-3.46,4.63-.1-.24-.38-.64-.59-.83,2.3-.76,2.83-2.22,3.04-3.8h-1.87v-.77c-.29,.3-.6,.57-.91,.81-.17-.2-.57-.57-.79-.74,1.24-.84,2.34-2.21,2.96-3.73l.99,.29c-.52,1.21-1.27,2.33-2.12,3.23h6.02c-.83-.91-1.65-2.07-2.22-3.18l.9-.36Z"/>
      <path d="M95.93,187.87c.21-.67,.37-1.78,.43-2.57l.67,.09c-.03,.79-.19,1.96-.4,2.71l-.7-.23Zm2.59-1.38c-.1-.35-.31-.94-.51-1.4v7.45h-.85v-9.17h.85v1.64l.58-.23c.21,.45,.47,1.04,.56,1.41l-.63,.3Zm6.69,.06v.69h-6.49v-.69h2.74v-.58h-2.19v-.65h2.19v-.52h-2.43v-.69h2.43v-.74h.92v.74h2.53v.69h-2.53v.52h2.27v.65h-2.27v.58h2.83Zm-.74,5.04c0,.42-.09,.66-.39,.79-.31,.13-.78,.14-1.47,.14-.04-.23-.16-.58-.27-.8,.46,.03,.94,.02,1.07,.02,.14-.01,.18-.05,.18-.17v-.54h-3.31v1.51h-.86v-4.81h5.05v3.86Zm-4.19-3.16v.62h3.31v-.62h-3.31Zm3.31,1.93v-.62h-3.31v.62h3.31Z"/>
      <path d="M108.9,185.98h1.75v.79h-.93l.43,.11c-.17,.42-.35,.86-.51,1.18h.89v.8h-1.63v.94h1.5v.79h-1.5v1.93h-.87v-1.93h-1.57v-.79h1.57v-.94h-1.66v-.8h.87c-.05-.34-.2-.81-.38-1.18l.41-.11h-1.07v-.79h1.83v-.87h-1.47v-.78h1.47v-.94h.87v.94h1.38v.78h-1.38v.87Zm.02,1.99c.14-.34,.32-.84,.42-1.2h-1.73c.18,.39,.35,.88,.39,1.2l-.33,.09h1.59l-.34-.09Zm6.21-.61c-.2,1.19-.58,2.31-1.13,3.26,.43,.5,.93,.91,1.49,1.19-.2,.17-.48,.51-.62,.74-.51-.3-.97-.7-1.38-1.18-.35,.46-.76,.86-1.22,1.19-.12-.17-.32-.39-.51-.54v.53h-.84v-8.74h3.98v1.89c0,.43-.09,.67-.44,.8-.33,.13-.84,.13-1.59,.13-.04-.24-.16-.58-.28-.8,.57,.02,1.1,.02,1.25,0s.19-.04,.19-.15v-1.06h-2.27v2.56h2.65l.15-.04,.57,.21Zm-3.37,4.49c.46-.32,.85-.73,1.19-1.2-.51-.79-.9-1.71-1.19-2.7v3.9Zm.78-3.9c.22,.68,.52,1.33,.89,1.92,.32-.6,.55-1.25,.71-1.92h-1.6Z"/>
      <path d="M120.35,191.15c.35-.03,.64-.08,.88-.14,1.27-.29,2.4-1.21,2.4-2.81,0-1.44-.86-2.57-2.38-2.76-.14,.89-.32,1.85-.59,2.78-.6,2.02-1.42,3.15-2.41,3.15s-1.88-1.11-1.88-2.76c0-2.2,1.95-4.11,4.43-4.11s3.89,1.66,3.89,3.74-1.33,3.51-3.75,3.85l-.59-.94Zm-.7-3.14c.25-.78,.44-1.68,.54-2.55-1.78,.29-2.82,1.84-2.82,3.06,0,1.14,.51,1.66,.91,1.66,.43,0,.91-.64,1.37-2.17Z"/>
      <path d="M128.03,190.45c.43,.69,1.22,1,2.33,1.05,1.13,.05,3.45,.02,4.72-.07-.11,.21-.25,.64-.3,.91-1.15,.05-3.27,.07-4.43,.03-1.24-.05-2.1-.38-2.71-1.15-.42,.41-.86,.81-1.35,1.24l-.46-.92c.4-.27,.89-.65,1.31-1.02v-2.41h-1.2v-.86h2.09v3.2Zm-.48-4.64c-.28-.5-.95-1.19-1.54-1.67l.71-.52c.58,.45,1.28,1.11,1.58,1.6l-.75,.59Zm3.59,4.34h-2.74v-.76h2.74v-.59h-2.17v-3.28h2.17v-.57h-2.6v-.77h2.6v-.81h.9v.81h2.72v.77h-2.72v.57h2.24v3.28h-2.24v.59h2.86v.76h-2.86v1.05h-.9v-1.05Zm-1.31-3.32h1.31v-.65h-1.31v.65Zm1.31,1.3v-.66h-1.31v.66h1.31Zm.9-1.95v.65h1.35v-.65h-1.35Zm1.35,1.29h-1.35v.66h1.35v-.66Z"/>
      <path d="M139.08,188.37c-.36,.12-.73,.24-1.09,.35v2.8c0,.46-.09,.71-.36,.86-.27,.14-.66,.17-1.3,.17-.02-.22-.13-.62-.25-.86,.4,.01,.77,.01,.88,0,.13,0,.18-.03,.18-.17v-2.53l-1.09,.34-.21-.9c.36-.09,.81-.22,1.3-.36v-1.9h-1.16v-.86h1.16v-1.93h.85v1.93h1v.16c.55-.56,1-1.31,1.26-2.11l.8,.2c-.1,.29-.22,.58-.35,.86h1.3c.16-.34,.33-.73,.42-1.03l.9,.21c-.14,.28-.29,.56-.44,.82h1.95v.66h-2.09v.52h1.82v.57h-1.82v.53h1.82v.57h-1.82v.56h2.19v.67h-5.19v-2.6c-.15,.18-.32,.35-.48,.5-.06-.08-.16-.19-.27-.3v.07h-1v1.65c.32-.1,.64-.2,.96-.3l.13,.85Zm5.95,1.45s-.02,.22-.04,.34c-.13,1.28-.27,1.86-.51,2.11-.19,.17-.39,.24-.69,.25-.25,.02-.72,.03-1.22,0,0-.24-.12-.56-.26-.77,.47,.04,.95,.05,1.14,.05,.16,0,.26,0,.34-.08,.13-.13,.23-.47,.33-1.22h-1.06c-.04,.16-.08,.32-.12,.45l-.79-.12c.08-.31,.18-.7,.27-1.09h-1.06c-.22,1.45-.89,2.3-2.14,2.84-.1-.17-.41-.53-.6-.67,1.09-.4,1.65-1.06,1.83-2.17h-1.29v-.75h4.24c-.06,.27-.12,.55-.18,.83h1.81Zm-3.12-4.74h-1.37v.52h1.37v-.52Zm0,1.09h-1.37v.53h1.37v-.53Zm0,1.1h-1.37v.56h1.37v-.56Z"/>
    </g>
    <g>
      <path d="M226.73,5.12c.71-.65,1.41-1.67,1.7-2.23-.23,.05-1.85,.37-3.47,.7v2.83c0,.66,.22,.88,1.37,.88s2.14-.11,3.14-.31l-.04,1.08c-.87,.12-1.95,.21-3.13,.21-2.04,0-2.38-.52-2.38-1.59V3.8c-.95,.2-1.8,.37-2.21,.46l-.19-1.04c.46-.06,1.37-.22,2.4-.41V1.22c0-.32-.02-.72-.07-1.02h1.18c-.04,.3-.07,.71-.07,1.02v1.39c1.59-.31,3.19-.63,3.62-.73,.25-.06,.46-.12,.61-.2l.75,.58c-.08,.12-.2,.31-.28,.46-.45,.83-1.29,2.14-2.06,2.91l-.87-.51Z"/>
      <path d="M239.57,4.94c-.23,.02-.59,.09-.97,.15-.52,.08-1.4,.22-2.33,.37,.18,.9,.32,1.65,.38,1.92,.07,.29,.16,.64,.26,.94l-1.15,.2c-.05-.35-.08-.67-.14-.97-.04-.25-.19-1-.36-1.93-1.09,.18-2.1,.35-2.57,.44-.41,.07-.71,.13-.93,.19l-.23-1.07c.25,0,.67-.06,.95-.1,.49-.07,1.51-.23,2.59-.4l-.35-1.84c-.92,.15-1.75,.29-2.1,.35-.34,.06-.6,.12-.86,.18l-.21-1.1c.28-.02,.56-.04,.87-.07,.37-.04,1.2-.16,2.11-.3-.1-.5-.17-.86-.2-1-.06-.27-.12-.5-.2-.72l1.12-.18c.03,.19,.06,.5,.11,.72,.02,.12,.09,.5,.19,1.02,.91-.15,1.76-.29,2.15-.37,.31-.06,.62-.13,.82-.19l.19,1.05c-.18,.02-.52,.07-.8,.11-.44,.07-1.28,.2-2.18,.34l.35,1.83c.97-.16,1.86-.31,2.34-.4,.38-.08,.71-.15,.94-.22l.21,1.05Z"/>
      <path d="M247.1,7.04c.23,0,.64-.02,.87-.04v1.02c-.19,0-.61-.02-.85-.02h-5.39c-.33,0-.56,0-.9,.02v-1.03c.26,.03,.58,.05,.9,.05h3.46c.14-.85,.4-2.57,.43-3.13h-2.97c-.3,0-.62,.02-.89,.03v-1.04c.25,.03,.63,.05,.88,.05h2.84c.18,0,.5-.03,.6-.08l.76,.37c-.03,.11-.06,.26-.08,.36-.08,.64-.36,2.51-.5,3.44h.84Z"/>
      <path d="M251.04,.42c-.02,.21-.04,.46-.04,.74v3.35c0,.26,.02,.61,.04,.81h-1.17c0-.17,.05-.52,.05-.81V1.16c0-.18-.02-.53-.04-.74h1.16Zm4.62-.08c-.02,.26-.04,.56-.04,.92v1.78c0,2.29-.36,3.14-1.1,3.98-.65,.76-1.66,1.21-2.39,1.46l-.83-.87c.95-.24,1.81-.62,2.42-1.31,.7-.79,.83-1.57,.83-3.32V1.26c0-.36-.03-.66-.06-.92h1.17Z"/>
      <path d="M265.2,3.07c.21,0,.59-.02,.84-.05v1.03c-.23-.02-.58-.03-.84-.03h-2.57c-.04,1.06-.24,1.94-.62,2.67-.36,.67-1.12,1.42-1.99,1.86l-.92-.68c.74-.3,1.45-.87,1.85-1.49,.43-.67,.56-1.46,.6-2.36h-2.89c-.3,0-.63,0-.91,.03v-1.03c.28,.03,.6,.05,.91,.05h6.54Zm-5.29-1.59c-.33,0-.7,0-.98,.03V.48c.3,.04,.65,.07,.98,.07h4.03c.31,0,.68-.02,1-.07V1.51c-.32-.02-.69-.03-1-.03h-4.03Z"/>
      <path d="M273.95,2.6c-.47,.52-1.36,1.23-2.26,1.81v3.45c0,.32,0,.79,.05,.96h-1.16c.02-.17,.05-.64,.05-.96v-2.84c-.86,.44-2.03,.93-3.01,1.19l-.53-.92c1.28-.27,2.68-.88,3.5-1.36,1-.58,2.07-1.42,2.57-2.06l.79,.73Z"/>
      <path d="M227.51,18.55c-1.06-.57-2.68-1.2-3.78-1.56v3.09c0,.31,.03,.92,.08,1.28h-1.23c.05-.35,.08-.89,.08-1.28v-5.78c0-.32-.03-.78-.09-1.12h1.23c-.03,.33-.07,.77-.07,1.12v1.56c1.32,.4,3.23,1.11,4.23,1.6l-.45,1.09Z"/>
      <path d="M229.79,16.54c.32,.03,.94,.06,1.48,.06h5.43c.49,0,.88-.04,1.12-.06v1.23c-.22,0-.67-.04-1.11-.04h-5.44c-.56,0-1.15,.02-1.48,.04v-1.23Z"/>
      <path d="M247.3,14.76c-.1,.16-.21,.41-.28,.61-.27,.96-.86,2.3-1.76,3.4-.92,1.13-2.13,2.05-4,2.77l-.93-.83c1.93-.58,3.12-1.47,4.01-2.5,.74-.85,1.34-2.11,1.52-2.95h-3.12c-.64,.86-1.49,1.74-2.54,2.44l-.88-.65c1.74-1.04,2.67-2.43,3.14-3.31,.12-.2,.29-.61,.37-.9l1.16,.38c-.2,.3-.41,.69-.52,.89-.04,.08-.09,.17-.14,.25h2.4c.28,0,.56-.03,.75-.1l.82,.5Z"/>
      <path d="M252.8,18.84c1.61-.99,2.86-2.49,3.47-3.77l.61,1.09c-.72,1.29-1.95,2.66-3.51,3.62-1.01,.62-2.28,1.21-3.83,1.49l-.67-1.03c1.67-.25,2.97-.81,3.93-1.4Zm-.34-3.2l-.79,.81c-.52-.53-1.76-1.61-2.5-2.12l.73-.78c.71,.47,2,1.51,2.56,2.09Z"/>
      <path d="M261.03,15h-3.24v-.74h3.24v.74Zm-.27,6.22h-1.84v.44h-.74v-3.36h2.58v2.92Zm-2.56-5.6h2.57v.72h-2.57v-.72Zm0,1.33h2.57v.73h-2.57v-.73Zm2.55-3.28h-2.49v-.73h2.49v.73Zm-1.83,5.38v1.44h1.09v-1.44h-1.09Zm7.9,.48c-.34,.25-.77,.49-1.16,.69,.41,.39,.9,.7,1.47,.89-.18,.14-.42,.46-.54,.67-1.28-.49-2.15-1.52-2.62-2.89h-.08c-.22,.22-.47,.44-.75,.63v1.21c.49-.08,1.01-.16,1.53-.25l.06,.68c-1.08,.2-2.21,.41-3.08,.55l-.23-.72c.27-.04,.59-.09,.93-.14v-.86c-.34,.18-.68,.33-1.02,.46-.11-.16-.35-.47-.5-.62,.71-.22,1.46-.54,2.02-.94h-1.79v-.65h1.49v-.47h-.94v-.61h.94v-.46h-1.16v-.63h1.16v-.69h.83v.69h1.24v-.69h.85v.69h1.27v.63h-1.27v.46h1.08v.61h-1.08v.47h1.52v.65h-2.23c.13,.3,.3,.58,.49,.84,.37-.21,.79-.49,1.06-.69l.51,.49Zm-3.25-5.07c-.47,.55-1.29,1.06-2.01,1.37-.13-.15-.43-.45-.61-.58,.7-.25,1.43-.62,1.83-1.03l.79,.24Zm3.29-.29h-5.63v-.7h2.28v-.87h.94v.87h2.41v.7Zm-3.48,2.99h1.24v-.46h-1.24v.46Zm0,1.08h1.24v-.47h-1.24v.47Zm1.68-4.06c.67,.29,1.49,.76,1.94,1.11l-.62,.48c-.43-.37-1.26-.87-1.93-1.16l.61-.43Z"/>
      <path d="M269.65,17.06c-.35-.33-1.09-.77-1.7-1.03l.52-.7c.59,.23,1.35,.63,1.72,.95l-.54,.78Zm.71,1.39c-.42,1.06-.96,2.25-1.44,3.21l-.85-.53c.45-.78,1.07-2.07,1.53-3.22l.76,.54Zm-.2-4c-.34-.34-1.07-.79-1.65-1.07l.52-.68c.58,.24,1.32,.65,1.68,.99l-.55,.76Zm1.64,1.79c0,1.6-.16,3.96-1.16,5.51-.17-.14-.56-.36-.78-.45,.97-1.47,1.05-3.56,1.05-5.07v-2.68h2.71v-.94h.94v.94h2.51v.78h-5.27v.96h.98v-.73h.82v.73h1.6v-.73h.85v.73h1.07v.74h-1.07v1.51h-3.27v-1.51h-.98v.21Zm4.92,1.99c-.35,.89-.9,1.58-1.6,2.12,.62,.31,1.34,.53,2.14,.65-.19,.18-.44,.54-.56,.78-.91-.19-1.7-.49-2.37-.9-.73,.4-1.55,.69-2.42,.88-.08-.22-.29-.57-.45-.75,.76-.13,1.49-.35,2.14-.67-.44-.4-.81-.86-1.1-1.4l.6-.18h-1.1v-.74h3.99l.16-.04,.57,.25Zm-3.39,.53c.25,.43,.6,.81,1.04,1.13,.45-.31,.84-.69,1.13-1.13h-2.17Zm.27-2.73v.78h1.6v-.78h-1.6Z"/>
    </g>
    <g>
      <path d="M88.16,63.76v4.13h-.96v-.59h-5.91v.61h-.94v-4.15h.94v2.63h2.41v-3.23h-2.97v-3.49h.93v2.59h2.04v-3.46h.95v3.46h2.14v-2.6h.98v3.5h-3.12v3.23h2.55v-2.63h.96Z"/>
      <path d="M92.38,61.5c-.87,.29-1.8,.56-2.54,.79l-.37-.82c.73-.15,1.79-.43,2.82-.7l.09,.73Zm.92,5.21c-.81,.49-2.06,.97-3.06,1.24-.16-.18-.49-.53-.7-.69,1.03-.2,2.22-.55,2.91-.94l.85,.39Zm-1.27-6.33c-.47-.25-1.39-.61-2.09-.82l.41-.63c.68,.17,1.61,.5,2.09,.74l-.41,.71Zm1.89-.27c-.24,.3-.52,.58-.85,.83-.17-.16-.48-.36-.7-.45,.74-.5,1.23-1.17,1.48-1.75l.84,.13c-.09,.19-.19,.38-.31,.57h3.21l.14-.03,.62,.16c-.26,.52-.63,1.1-.97,1.45l-.73-.23c.17-.18,.34-.43,.5-.68h-1.38c.22,.72,.78,1.36,2.81,1.63-.17,.18-.39,.53-.47,.76-.28-.05-.54-.11-.77-.17v3.97h-6.52v-4.02h2.01c-.09-.2-.27-.47-.41-.61,1.61-.26,2.18-.74,2.41-1.56h-.91Zm2.49,2.76h-4.69v.56h4.69v-.56Zm0,1.12h-4.69v.57h4.69v-.57Zm0,1.14h-4.69v.58h4.69v-.58Zm.77-2.85c-1-.31-1.52-.78-1.83-1.31-.38,.61-1.04,1.03-2.23,1.31h4.06Zm-1.69,4.06c1.07,.36,2.27,.82,2.99,1.16l-1.07,.44c-.59-.32-1.64-.77-2.68-1.13l.76-.47Z"/>
    </g>
    <g>
      <path d="M173.31,189.81c0-2.4,1.46-3.84,3.32-3.84,.92,0,1.64,.44,2.09,.93l-.63,.74c-.38-.39-.84-.66-1.44-.66-1.27,0-2.15,1.06-2.15,2.79s.82,2.82,2.12,2.82c.67,0,1.19-.3,1.63-.78l.62,.73c-.59,.68-1.34,1.06-2.29,1.06-1.85,0-3.27-1.38-3.27-3.79Z"/>
      <path d="M179.51,189.76c0-2.37,1.31-3.79,3.2-3.79s3.21,1.42,3.21,3.79-1.32,3.84-3.21,3.84-3.2-1.47-3.2-3.84Zm5.22,0c0-1.73-.8-2.78-2.02-2.78s-2.01,1.05-2.01,2.78,.79,2.83,2.01,2.83,2.02-1.1,2.02-2.83Z"/>
      <path d="M186.58,192.77l3.69-5.69h-3.35v-.97h4.78v.69l-3.68,5.69h3.72v.98h-5.16v-.7Z"/>
      <path d="M192.96,190.31v-4.2h1.16v4.28c0,1.66,.66,2.2,1.58,2.2s1.61-.54,1.61-2.2v-4.28h1.12v4.2c0,2.4-1.1,3.29-2.73,3.29s-2.74-.89-2.74-3.29Z"/>
      <path d="M199.86,189.81c0-2.4,1.46-3.84,3.32-3.84,.92,0,1.64,.44,2.09,.93l-.63,.74c-.38-.39-.84-.66-1.44-.66-1.27,0-2.15,1.06-2.15,2.79s.82,2.82,2.12,2.82c.67,0,1.19-.3,1.63-.78l.62,.73c-.59,.68-1.34,1.06-2.29,1.06-1.85,0-3.27-1.38-3.27-3.79Z"/>
      <path d="M206.63,186.11h1.16v3h3.15v-3h1.16v7.36h-1.16v-3.35h-3.15v3.35h-1.16v-7.36Z"/>
      <path d="M213.93,186.11h1.16v7.36h-1.16v-7.36Z"/>
      <path d="M218.55,192.52l.68-.8c.53,.53,1.25,.87,1.96,.87,.89,0,1.39-.42,1.39-1.04,0-.67-.5-.88-1.18-1.18l-1.02-.44c-.71-.3-1.5-.86-1.5-1.93,0-1.16,1.02-2.03,2.42-2.03,.86,0,1.67,.36,2.23,.93l-.61,.74c-.46-.41-.97-.66-1.62-.66-.75,0-1.24,.36-1.24,.95,0,.63,.59,.87,1.19,1.11l1.01,.43c.87,.37,1.5,.91,1.5,1.99,0,1.18-.98,2.14-2.59,2.14-1.01,0-1.95-.4-2.62-1.08Z"/>
      <path d="M226.72,187.08h-2.16v-.97h5.49v.97h-2.17v6.39h-1.16v-6.39Z"/>
      <path d="M175.34,205.16c.43,.69,1.22,1,2.33,1.05,1.13,.05,3.45,.02,4.72-.07-.11,.21-.25,.64-.3,.91-1.15,.05-3.27,.07-4.43,.03-1.24-.05-2.1-.38-2.71-1.15-.42,.41-.86,.81-1.35,1.24l-.46-.92c.4-.27,.89-.65,1.31-1.02v-2.41h-1.2v-.86h2.09v3.2Zm-.48-4.64c-.28-.5-.95-1.19-1.54-1.67l.71-.52c.58,.45,1.28,1.11,1.58,1.6l-.75,.59Zm3.59,4.34h-2.74v-.76h2.74v-.59h-2.17v-3.28h2.17v-.57h-2.6v-.77h2.6v-.81h.9v.81h2.72v.77h-2.72v.57h2.24v3.28h-2.24v.59h2.86v.76h-2.86v1.05h-.9v-1.05Zm-1.31-3.32h1.31v-.65h-1.31v.65Zm1.31,1.3v-.66h-1.31v.66h1.31Zm.9-1.95v.65h1.35v-.65h-1.35Zm1.35,1.29h-1.35v.66h1.35v-.66Z"/>
      <path d="M186.39,203.08c-.36,.12-.73,.24-1.09,.35v2.8c0,.46-.09,.71-.36,.86-.27,.14-.66,.17-1.3,.17-.02-.22-.13-.62-.25-.86,.4,.01,.77,.01,.88,0,.13,0,.18-.03,.18-.17v-2.53l-1.09,.34-.21-.9c.36-.09,.81-.22,1.3-.36v-1.9h-1.16v-.86h1.16v-1.93h.85v1.93h1v.16c.55-.56,1-1.31,1.26-2.11l.8,.2c-.1,.29-.22,.58-.35,.86h1.3c.16-.34,.33-.73,.42-1.03l.9,.21c-.14,.28-.29,.56-.44,.82h1.95v.66h-2.09v.52h1.82v.57h-1.82v.53h1.82v.57h-1.82v.56h2.19v.67h-5.19v-2.6c-.15,.18-.32,.35-.48,.5-.06-.08-.16-.19-.27-.3v.07h-1v1.65c.32-.1,.64-.2,.96-.3l.13,.85Zm5.95,1.45s-.02,.22-.04,.34c-.13,1.28-.27,1.86-.51,2.11-.19,.17-.39,.24-.69,.25-.25,.02-.72,.03-1.22,0,0-.24-.12-.56-.26-.77,.47,.04,.95,.05,1.14,.05,.16,0,.26,0,.34-.08,.13-.13,.23-.47,.33-1.22h-1.06c-.04,.16-.08,.32-.12,.45l-.79-.12c.08-.31,.18-.7,.27-1.09h-1.06c-.22,1.45-.89,2.3-2.14,2.84-.1-.17-.41-.53-.6-.67,1.09-.4,1.65-1.06,1.83-2.17h-1.29v-.75h4.24c-.06,.27-.12,.55-.18,.83h1.81Zm-3.12-4.74h-1.37v.52h1.37v-.52Zm0,1.09h-1.37v.53h1.37v-.53Zm0,1.1h-1.37v.56h1.37v-.56Z"/>
      <path d="M200.79,199.74c-.07,.1-.22,.35-.29,.52-.35,.82-.94,1.95-1.64,2.85,1.03,.88,2.24,2.17,2.86,2.93l-.89,.78c-.65-.9-1.65-2-2.64-2.92-1.07,1.14-2.41,2.21-3.85,2.87l-.81-.84c1.62-.62,3.12-1.82,4.11-2.93,.68-.76,1.35-1.86,1.59-2.64h-3.67c-.39,0-.93,.05-1.09,.06v-1.13c.2,.03,.78,.07,1.09,.07h3.71c.37,0,.7-.04,.87-.1l.65,.48Z"/>
      <path d="M210.69,203.41c-.23,.02-.59,.09-.97,.15-.52,.08-1.4,.22-2.33,.37,.18,.9,.32,1.65,.38,1.92,.07,.29,.16,.64,.26,.94l-1.15,.2c-.05-.35-.08-.67-.14-.97-.04-.25-.19-1-.36-1.93-1.09,.18-2.1,.35-2.57,.44-.41,.07-.71,.13-.93,.19l-.23-1.07c.25,0,.67-.06,.95-.1,.49-.07,1.51-.23,2.59-.4l-.35-1.84c-.92,.15-1.75,.29-2.1,.35-.34,.06-.6,.12-.86,.18l-.21-1.1c.28-.02,.56-.04,.87-.07,.37-.04,1.2-.16,2.11-.3-.1-.5-.17-.86-.2-1-.06-.27-.12-.5-.2-.72l1.12-.18c.03,.19,.06,.5,.11,.72,.02,.12,.09,.5,.19,1.02,.91-.15,1.76-.29,2.15-.37,.31-.06,.62-.13,.82-.19l.19,1.05c-.18,.02-.52,.07-.8,.11-.44,.07-1.28,.2-2.18,.34l.35,1.83c.97-.16,1.86-.31,2.34-.4,.38-.08,.71-.15,.94-.22l.21,1.05Z"/>
      <path d="M212.34,202.01c.32,.03,.94,.06,1.48,.06h5.43c.49,0,.88-.04,1.12-.06v1.23c-.22,0-.67-.04-1.11-.04h-5.44c-.56,0-1.15,.02-1.48,.04v-1.23Z"/>
      <path d="M228.68,206.86c-.13-.35-.31-.79-.52-1.25-1.59,.19-4.79,.54-6.09,.66-.25,.03-.58,.08-.88,.12l-.18-1.16c.31,0,.7,0,1-.02,.12,0,.26,0,.41-.02,.56-1.43,1.51-4.41,1.79-5.43,.14-.48,.18-.75,.22-1.04l1.25,.26c-.11,.27-.24,.57-.38,1.01-.3,.95-1.21,3.78-1.71,5.1,1.36-.12,3.05-.31,4.12-.45-.38-.76-.79-1.49-1.14-1.95l.97-.42c.7,1.05,1.77,3.04,2.2,4.11l-1.06,.48Z"/>
    </g>
    <ellipse class="cls-4" cx="205.58" cy="129.77" rx="42.87" ry="24.4" transform="translate(-27.83 61.77) rotate(-16.02)"/>
    <ellipse class="cls-3" cx="298.76" cy="51.14" rx="31.75" ry="18.07" transform="translate(-2.51 84.43) rotate(-16.02)"/>
    <g>
      <path d="M283.54,50.67c-.34,.12-.69,.24-1.03,.35v2.66c0,.48-.1,.73-.4,.88-.28,.13-.71,.16-1.4,.15-.03-.23-.14-.61-.26-.85,.42,.02,.83,.02,.96,0,.13,0,.18-.04,.18-.19v-2.35c-.43,.14-.85,.28-1.22,.39l-.27-.96c.4-.09,.92-.23,1.49-.39v-2.06h-1.36v-.86h1.36v-1.9h.92v1.9h1.05v.86h-1.05v1.81l.93-.26,.1,.81Zm5.23-.65c-.36,1.21-.96,2.15-1.74,2.89,.69,.45,1.51,.78,2.46,.97-.2,.21-.48,.59-.61,.84-1.02-.25-1.89-.65-2.62-1.19-.8,.55-1.73,.95-2.74,1.21-.1-.25-.32-.64-.49-.85,.92-.19,1.78-.52,2.52-.99-.55-.57-1-1.25-1.34-2.04l.65-.2h-.94v-.85h4.07l.17-.04,.61,.25Zm-3.41-3.07c0,.91-.26,2.03-1.38,2.75-.11-.19-.45-.54-.62-.67,.98-.61,1.13-1.42,1.13-2.1v-1h3.38v2.29c0,.24,.02,.27,.17,.27h.43c.17,0,.21-.14,.23-1.1,.18,.15,.53,.28,.77,.34-.07,1.21-.29,1.53-.9,1.53h-.68c-.72,0-.92-.22-.92-1.03v-1.44h-1.61v.16Zm-.28,3.71c.29,.64,.7,1.2,1.21,1.68,.53-.46,.96-1.02,1.26-1.68h-2.47Z"/>
      <path d="M293.3,48.31c-.87,.29-1.8,.56-2.54,.79l-.37-.82c.73-.15,1.79-.43,2.82-.7l.09,.73Zm.92,5.21c-.81,.49-2.06,.97-3.06,1.24-.16-.18-.49-.53-.7-.69,1.03-.2,2.22-.55,2.91-.94l.85,.39Zm-1.27-6.33c-.47-.25-1.39-.61-2.09-.82l.41-.63c.68,.17,1.61,.5,2.09,.74l-.41,.71Zm1.89-.27c-.24,.3-.52,.58-.85,.83-.17-.16-.48-.36-.7-.45,.74-.5,1.23-1.17,1.48-1.75l.84,.13c-.09,.19-.19,.38-.31,.57h3.21l.14-.03,.62,.16c-.26,.52-.63,1.1-.97,1.45l-.73-.23c.17-.18,.34-.43,.5-.68h-1.38c.22,.72,.78,1.36,2.81,1.63-.17,.18-.39,.53-.47,.76-.28-.05-.54-.11-.77-.17v3.97h-6.52v-4.02h2.01c-.09-.2-.27-.47-.41-.61,1.61-.26,2.18-.74,2.41-1.56h-.91Zm2.49,2.76h-4.69v.56h4.69v-.56Zm0,1.12h-4.69v.57h4.69v-.57Zm0,1.14h-4.69v.58h4.69v-.58Zm.77-2.85c-1-.31-1.52-.78-1.83-1.31-.38,.61-1.04,1.03-2.23,1.31h4.06Zm-1.69,4.06c1.07,.36,2.27,.82,2.99,1.16l-1.07,.44c-.59-.32-1.64-.77-2.68-1.13l.76-.47Z"/>
      <path d="M308.96,49.72c-.58,.46-1.32,.95-1.95,1.3,.59,.97,1.39,1.73,2.41,2.15-.22,.19-.51,.55-.65,.81-1.84-.89-2.92-2.76-3.52-5.1h-.02c-.27,.23-.59,.45-.92,.64,1.89,1.65,1.85,4.16,.88,4.86-.35,.28-.64,.37-1.12,.37-.25,0-.55,0-.86-.03-.02-.25-.1-.62-.26-.89,.36,.04,.69,.05,.93,.05,.26,0,.47-.02,.66-.2,.3-.22,.45-.82,.33-1.53-1.09,.85-2.66,1.68-3.98,2.12-.12-.22-.31-.57-.49-.77,1.47-.38,3.23-1.26,4.22-2.15-.08-.17-.17-.34-.27-.51-.85,.59-2.13,1.23-3.13,1.59-.1-.22-.3-.53-.47-.72,1.03-.27,2.41-.87,3.17-1.43-.11-.12-.23-.24-.37-.35-.77,.37-1.62,.67-2.41,.89-.09-.17-.34-.56-.49-.72,1.14-.26,2.37-.68,3.28-1.22h-1.84v-.8h5.47v.8h-1.47c.14,.5,.32,.99,.53,1.44,.57-.37,1.2-.84,1.61-1.22l.73,.62Zm-7.32-1.25h-.92v-2.08h3.64v-.84h.96v.84h3.7v2.08h-.94v-1.23h-6.44v1.23Z"/>
      <path d="M313.2,46.58h2.28c1.51,0,2.6,.48,2.6,1.81,0,.7-.39,1.37-1.05,1.59v.05c.84,.18,1.45,.75,1.45,1.75,0,1.46-1.19,2.16-2.82,2.16h-2.46v-7.36Zm2.15,3.07c1.12,0,1.59-.42,1.59-1.11,0-.77-.52-1.06-1.56-1.06h-1.02v2.17h.99Zm.18,3.38c1.15,0,1.81-.41,1.81-1.31,0-.83-.64-1.19-1.81-1.19h-1.17v2.5h1.17Z"/>
    </g>
    <ellipse class="cls-3" cx="153.77" cy="59.11" rx="31.75" ry="18.07" transform="translate(-10.34 44.73) rotate(-16.02)"/>
    <g>
      <path d="M138.15,59.41c-.34,.12-.69,.24-1.03,.35v2.66c0,.48-.1,.73-.4,.88-.28,.13-.71,.16-1.4,.15-.03-.23-.14-.61-.26-.85,.42,.02,.83,.02,.96,0,.13,0,.18-.04,.18-.19v-2.35c-.43,.14-.85,.28-1.22,.39l-.27-.96c.4-.09,.92-.23,1.49-.39v-2.06h-1.36v-.86h1.36v-1.9h.92v1.9h1.05v.86h-1.05v1.81l.93-.26,.1,.81Zm5.23-.65c-.36,1.21-.96,2.15-1.74,2.89,.69,.45,1.51,.78,2.46,.97-.2,.21-.48,.59-.61,.84-1.02-.25-1.89-.65-2.62-1.19-.8,.55-1.73,.95-2.74,1.21-.1-.25-.32-.64-.49-.85,.92-.19,1.78-.52,2.52-.99-.55-.57-1-1.25-1.34-2.04l.65-.2h-.94v-.85h4.07l.17-.04,.61,.25Zm-3.41-3.07c0,.91-.26,2.03-1.38,2.75-.11-.19-.45-.54-.62-.67,.98-.61,1.13-1.42,1.13-2.1v-1h3.38v2.29c0,.24,.02,.27,.17,.27h.43c.17,0,.21-.14,.23-1.1,.18,.15,.53,.28,.77,.34-.07,1.21-.29,1.53-.9,1.53h-.68c-.72,0-.92-.22-.92-1.03v-1.44h-1.61v.16Zm-.28,3.71c.29,.64,.7,1.2,1.21,1.68,.53-.46,.96-1.02,1.26-1.68h-2.47Z"/>
      <path d="M147.91,57.05c-.87,.29-1.8,.56-2.54,.79l-.37-.82c.73-.15,1.79-.43,2.82-.7l.09,.73Zm.92,5.21c-.81,.49-2.06,.97-3.06,1.24-.16-.18-.49-.53-.7-.69,1.03-.2,2.22-.55,2.91-.94l.85,.39Zm-1.27-6.33c-.47-.25-1.39-.61-2.09-.82l.41-.63c.68,.17,1.61,.5,2.09,.74l-.41,.71Zm1.89-.27c-.24,.3-.52,.58-.85,.83-.17-.16-.48-.36-.7-.45,.74-.5,1.23-1.17,1.48-1.75l.84,.13c-.09,.19-.19,.38-.31,.57h3.21l.14-.03,.62,.16c-.26,.52-.63,1.1-.97,1.45l-.73-.23c.17-.18,.34-.43,.5-.68h-1.38c.22,.72,.78,1.36,2.81,1.63-.17,.18-.39,.53-.47,.76-.28-.05-.54-.11-.77-.17v3.97h-6.52v-4.02h2.01c-.09-.2-.27-.47-.41-.61,1.61-.26,2.18-.74,2.41-1.56h-.91Zm2.49,2.76h-4.69v.56h4.69v-.56Zm0,1.12h-4.69v.57h4.69v-.57Zm0,1.14h-4.69v.58h4.69v-.58Zm.77-2.85c-1-.31-1.52-.78-1.83-1.31-.38,.61-1.04,1.03-2.23,1.31h4.06Zm-1.69,4.06c1.07,.36,2.27,.82,2.99,1.16l-1.07,.44c-.59-.32-1.64-.77-2.68-1.13l.76-.47Z"/>
      <path d="M163.57,58.46c-.58,.46-1.32,.95-1.95,1.3,.59,.97,1.39,1.73,2.41,2.15-.22,.19-.51,.55-.65,.81-1.84-.89-2.92-2.76-3.52-5.1h-.02c-.27,.23-.59,.45-.92,.64,1.89,1.65,1.85,4.16,.88,4.86-.35,.28-.64,.37-1.12,.37-.25,0-.55,0-.86-.03-.02-.25-.1-.62-.26-.89,.36,.04,.69,.05,.93,.05,.26,0,.47-.02,.66-.2,.3-.22,.45-.82,.33-1.53-1.09,.85-2.66,1.68-3.98,2.12-.12-.22-.31-.57-.49-.77,1.47-.38,3.23-1.26,4.22-2.15-.08-.17-.17-.34-.27-.51-.85,.59-2.13,1.23-3.13,1.59-.1-.22-.3-.53-.47-.72,1.03-.27,2.41-.87,3.17-1.43-.11-.12-.23-.24-.37-.35-.77,.37-1.62,.67-2.41,.89-.09-.17-.34-.56-.49-.72,1.14-.26,2.37-.68,3.28-1.22h-1.84v-.8h5.47v.8h-1.47c.14,.5,.32,.99,.53,1.44,.57-.37,1.2-.84,1.61-1.22l.73,.62Zm-7.32-1.25h-.92v-2.08h3.64v-.84h.96v.84h3.7v2.08h-.94v-1.23h-6.44v1.23Z"/>
      <path d="M171.58,60.58h-2.56l-.63,2.1h-1.18l2.44-7.36h1.34l2.44,7.36h-1.23l-.62-2.1Zm-.28-.91l-.29-.99c-.25-.8-.47-1.62-.7-2.45h-.04c-.21,.84-.44,1.65-.68,2.45l-.3,.99h2.01Z"/>
    </g>
    <g>
      <path d="M199.14,123.53l.68-.8c.53,.53,1.25,.87,1.96,.87,.89,0,1.39-.42,1.39-1.04,0-.67-.5-.88-1.18-1.18l-1.02-.44c-.71-.3-1.5-.86-1.5-1.93,0-1.16,1.02-2.03,2.42-2.03,.86,0,1.67,.36,2.23,.93l-.61,.74c-.46-.41-.97-.66-1.62-.66-.75,0-1.24,.36-1.24,.95,0,.63,.59,.87,1.19,1.11l1.01,.43c.87,.37,1.5,.91,1.5,1.99,0,1.18-.98,2.14-2.59,2.14-1.01,0-1.95-.4-2.62-1.08Z"/>
      <path d="M207.31,118.1h-2.16v-.97h5.49v.97h-2.17v6.39h-1.16v-6.39Z"/>
      <path d="M183.31,133.42v1.32h2.26v.86h-2.26v1.37c0,.34,.05,.39,.37,.39h.97c.29,0,.34-.2,.38-1.19,.21,.15,.58,.31,.83,.36-.08,1.29-.34,1.66-1.12,1.66h-1.22c-.94,0-1.17-.27-1.17-1.22v-1.37h-1.59c-.19,1.06-.82,2.06-2.71,2.71-.11-.21-.4-.57-.59-.73,1.54-.51,2.13-1.23,2.34-1.98h-2.12v-.86h2.23v-1.32h-.97v-.36c-.45,.33-.93,.62-1.42,.84-.11-.21-.38-.54-.56-.7,.65-.27,1.29-.68,1.86-1.18-.28-.3-.74-.68-1.1-.96l.58-.49c.36,.24,.81,.59,1.1,.87,.31-.35,.58-.74,.8-1.14h-2.28v-.81h2.73l.17-.03,.61,.29c-.39,1.12-1.06,2.05-1.86,2.79h4.19c-.87-.86-1.56-1.96-2.03-3.19l.82-.24c.16,.41,.35,.8,.58,1.18,.39-.34,.81-.75,1.07-1.07l.7,.49c-.43,.41-.94,.85-1.37,1.17,.17,.23,.36,.45,.55,.66,.46-.36,.97-.83,1.29-1.19l.69,.48c-.44,.42-.99,.86-1.46,1.2,.52,.44,1.1,.8,1.73,1.05-.21,.18-.5,.55-.64,.8-.48-.22-.93-.49-1.34-.82v.36h-1.04Zm-.96,0h-1.52v1.32h1.52v-1.32Z"/>
      <path d="M190.55,131.56c-.31,.51-.68,1.03-1.09,1.53v5.21h-.93v-4.18c-.33,.33-.67,.64-.99,.9-.12-.2-.45-.61-.64-.79,1.02-.73,2.1-1.87,2.77-3l.88,.33Zm-.38-2.1c-.68,.89-1.72,1.88-2.64,2.53-.11-.21-.36-.57-.53-.75,.83-.54,1.79-1.43,2.28-2.15l.89,.37Zm6,3.84h-1.44v3.85c0,.53-.12,.8-.5,.95-.37,.14-.96,.15-1.89,.15-.04-.27-.17-.66-.3-.93,.64,.02,1.31,.02,1.49,0,.19,0,.25-.05,.25-.19v-3.84h-3.16v-.89h5.55v.89Zm-.28-2.73h-4.85v-.89h4.85v.89Z"/>
      <path d="M200.26,133.33l-.58,.89c-.53-.38-1.59-1.06-2.23-1.4l.57-.86c.63,.34,1.77,1.04,2.24,1.37Zm1.01,2.35c1.67-.95,3.02-2.29,3.83-3.71l.6,1.06c-.89,1.36-2.28,2.64-3.9,3.58-1.01,.59-2.41,1.07-3.32,1.24l-.59-1.03c1.11-.19,2.33-.56,3.38-1.14Zm.49-4.56l-.59,.86c-.51-.37-1.58-1.08-2.2-1.43l.57-.86c.62,.35,1.75,1.09,2.22,1.43Z"/>
      <path d="M213.47,130.76c-.07,.1-.22,.35-.29,.52-.35,.82-.94,1.95-1.64,2.85,1.03,.88,2.24,2.17,2.86,2.93l-.89,.78c-.65-.9-1.65-2-2.64-2.92-1.07,1.14-2.41,2.21-3.85,2.87l-.81-.84c1.62-.62,3.12-1.82,4.11-2.93,.68-.76,1.35-1.86,1.59-2.64h-3.67c-.39,0-.93,.05-1.09,.06v-1.13c.2,.03,.78,.07,1.09,.07h3.71c.37,0,.7-.04,.87-.1l.65,.48Z"/>
      <path d="M222.62,132.55c.21,0,.59-.02,.84-.05v1.03c-.23-.02-.58-.03-.84-.03h-2.57c-.04,1.06-.24,1.94-.62,2.67-.36,.67-1.12,1.42-1.99,1.86l-.92-.68c.74-.3,1.45-.87,1.85-1.49,.43-.67,.56-1.46,.6-2.36h-2.89c-.3,0-.63,0-.91,.03v-1.03c.28,.03,.6,.05,.91,.05h6.54Zm-5.29-1.59c-.33,0-.7,0-.98,.03v-1.03c.3,.04,.65,.07,.98,.07h4.03c.31,0,.68-.02,1-.07v1.03c-.32-.02-.69-.03-1-.03h-4.03Z"/>
      <path d="M231.34,137.87c-.13-.35-.31-.79-.52-1.25-1.59,.19-4.79,.54-6.09,.66-.25,.03-.58,.08-.88,.12l-.18-1.16c.31,0,.7,0,1-.02,.12,0,.26,0,.41-.02,.56-1.43,1.51-4.41,1.79-5.43,.14-.48,.18-.75,.22-1.04l1.25,.26c-.11,.27-.24,.57-.38,1.01-.3,.95-1.21,3.78-1.71,5.1,1.36-.12,3.05-.31,4.12-.45-.38-.76-.79-1.49-1.14-1.95l.97-.42c.7,1.05,1.77,3.04,2.2,4.11l-1.06,.48Z"/>
    </g>
    <ellipse class="cls-2" cx="58.35" cy="131.67" rx="59.91" ry="34.09" transform="translate(-34.07 21.21) rotate(-16.02)"/>
    <g id="_レイヤー_2" data-name="レイヤー 2">
      <g id="_レイヤー_3" data-name="レイヤー 3">
        <path class="cls-1" d="M86.8,121.64v-8.26s.03-.07,.07-.07h1.33s.07,.03,.07,.07h0v8.26s-.03,.07-.07,.07h-1.33s-.07-.03-.07-.07"/>
        <path class="cls-1" d="M82.53,121.64v-3.32s-.03-.07-.07-.07h-3.67s-.07,.03-.07,.07v3.32s-.03,.07-.07,.07h-1.33s-.07-.03-.07-.07v-8.26s.03-.07,.07-.07h1.33s.07,.03,.07,.07v3.31s.03,.07,.07,.07h3.69s.07-.03,.07-.07v-3.31s0-.06,.03-.07h1.34s.07,.03,.07,.07v8.26s-.03,.07-.07,.07h-1.34s-.06-.03-.06-.06c0,0,0,0,0,0"/>
        <path class="cls-1" d="M35.79,118.93c-.27,1.7-1.95,2.97-3.95,2.97-2.38-.05-4.27-2.02-4.22-4.4-.04-2.38,1.84-4.35,4.22-4.4,1.1-.03,2.17,.4,2.95,1.18,.49,.49,.84,1.11,.99,1.79,0,.06-.02,.09-.06,.09h-1.45c-.06,0-.06-.03-.07-.07-.11-.32-.29-.61-.52-.86-.49-.49-1.16-.75-1.85-.72-.74,0-1.45,.31-1.94,.87-.5,.59-.77,1.35-.76,2.12-.02,.78,.25,1.53,.76,2.12,.49,.55,1.2,.87,1.94,.87h.03c.54,0,1.07-.15,1.52-.45,.4-.27,.71-.67,.86-1.14,0-.04,.04-.07,.08-.07h1.36s.11,0,.1,.08"/>
        <path class="cls-1" d="M70.83,121.91c-2.38-.05-4.27-2.02-4.22-4.4-.05-2.38,1.84-4.35,4.22-4.4,1.11-.03,2.18,.4,2.96,1.18,.52,.51,.87,1.18,1,1.9h-1.57c-.1-.35-.28-.67-.53-.93-.48-.5-1.16-.77-1.85-.74-.74,0-1.45,.31-1.94,.87-.5,.59-.77,1.35-.76,2.12-.02,.78,.25,1.53,.76,2.12,.49,.55,1.2,.87,1.94,.87h.03c.54,0,1.07-.15,1.52-.45,.42-.28,.74-.71,.88-1.2h1.52c-.23,1.74-1.93,3.06-3.96,3.06"/>
        <path class="cls-1" d="M42.27,121.91c-2.43,0-4.4-1.97-4.4-4.4,0-1.17,.46-2.28,1.29-3.11,1.72-1.72,4.5-1.72,6.22,0,1.72,1.72,1.72,4.5,0,6.22h0c-.82,.83-1.94,1.29-3.11,1.29m0-7.38c-1.65,0-2.99,1.34-2.98,2.99,0,1.65,1.34,2.99,2.99,2.98,1.65,0,2.98-1.34,2.98-2.99,0-1.65-1.34-2.99-2.99-2.99"/>
        <path class="cls-1" d="M61.05,121.91c-.93,.01-1.83-.36-2.47-1.04-.65-.74-1-1.69-.98-2.68v-4.81s.03-.06,.06-.06c0,0,0,0,0,0h1.34s.07,.03,.07,.06c0,0,0,0,0,0v4.78c-.03,.61,.16,1.22,.52,1.71,.27,.33,.65,.56,1.07,.63,.67,.09,1.35-.15,1.82-.64,.38-.49,.57-1.09,.55-1.71v-4.76s.03-.06,.06-.06h1.34s.06,.03,.06,.06v4.83c0,2.08-1.52,3.7-3.45,3.7"/>
        <path class="cls-1" d="M50.24,120.31l3.47-4.17s.02-.07-.01-.1c-.01,0-.03-.01-.04-.01h-1.58s-.04,.01-.05,.03l-3.72,4.41s-.03,.06-.03,.09v1.08s.03,.07,.07,.07h6.75s.06-.03,.06-.07v-1.14s-.03-.06-.06-.06h-4.8s-.07-.03-.07-.06c0-.02,0-.04,.02-.05"/>
        <rect class="cls-1" x="48.28" y="113.31" width="6.88" height="1.27" rx=".07" ry=".07"/>
      </g>
    </g>
    <g>
      <path class="cls-1" d="M27.67,129.82c-.21,.34-.42,.69-.66,1.03v6.51h-1.01v-5.25c-.96,1.07-2.12,2.02-3.41,2.7-.15-.25-.44-.63-.64-.83,1.9-.93,3.54-2.53,4.5-4.16h-4.22v-.95h8.56v.95h-3.12Zm.08,1.52c1.12,.75,2.64,1.88,3.37,2.65l-.78,.72c-.67-.77-2.15-1.96-3.29-2.77l.7-.6Z"/>
      <path class="cls-1" d="M41.8,130.47s-.01,.32-.01,.43c-.11,4.13-.2,5.55-.52,5.98-.19,.3-.4,.38-.71,.43-.3,.04-.76,.04-1.23,0-.02-.25-.12-.63-.26-.88,.46,.04,.87,.04,1.05,.04,.17,0,.26-.03,.36-.16,.22-.28,.32-1.55,.4-4.99h-1.18c-.13,2.66-.58,4.78-2.3,6.1-.14-.21-.45-.54-.67-.69,.06-.04,.12-.09,.18-.14-1.44,.17-2.88,.32-3.95,.42l-.12-.79c.58-.04,1.3-.1,2.09-.17v-.76h-1.82v-.68h1.82v-.51h-1.79v-3.01h1.79v-.52h-2.06v-.69h2.06v-.56c-.61,.05-1.22,.08-1.78,.1-.03-.19-.13-.49-.22-.67,1.48-.08,3.25-.26,4.29-.49l.44,.7c-.53,.11-1.19,.21-1.88,.28v.64h2.02v.58h1.05c.01-.68,.01-1.39,.01-2.14h.89c0,.74-.01,1.46-.02,2.14h2.07Zm-7.9,1.85h1.03v-.61h-1.03v.61Zm1.03,1.18v-.61h-1.03v.61h1.03Zm.85,2.48c.62-.06,1.26-.12,1.89-.19,.82-1.13,1.07-2.64,1.15-4.46h-1.06v-.75h-1.98v.52h1.86v3.01h-1.86v.51h1.88v.68h-1.88v.68Zm1.07-3.66v-.61h-1.07v.61h1.07Zm-1.07,.57v.61h1.07v-.61h-1.07Z"/>
      <path class="cls-1" d="M52.71,131.06v.81h-7.34v.77c0,1.34-.17,3.37-1.07,4.71-.15-.16-.53-.49-.71-.59,.8-1.23,.89-2.94,.89-4.12v-1.58h1.87c-.08-.34-.26-.8-.45-1.16l.36-.09h-1.9v-.81h3.44v-.82h.93v.82h3.48v.81h-1.42l.13,.03c-.25,.43-.5,.88-.71,1.22h2.5Zm-3.18,5.32h3.13v.79h-7.04v-.79h3v-1.1h-2.18v-.72h2.18v-.92h-1.71c-.21,.34-.45,.64-.68,.88-.17-.13-.53-.35-.74-.45,.55-.49,1.01-1.25,1.27-2.01l.83,.19c-.08,.22-.17,.44-.27,.65h1.3v-.82h.91v.82h2.56v.74h-2.56v.92h2.29v.72h-2.29v1.1Zm-2.72-6.57c.21,.37,.4,.83,.46,1.15l-.36,.1h2.69l-.25-.08c.15-.33,.34-.79,.46-1.17h-3Z"/>
      <path class="cls-1" d="M62.58,130.34c-.1,.16-.21,.41-.28,.61-.27,.96-.86,2.3-1.76,3.4-.92,1.13-2.13,2.05-4,2.77l-.93-.83c1.93-.58,3.12-1.47,4.01-2.5,.74-.85,1.34-2.11,1.52-2.95h-3.12c-.64,.86-1.49,1.74-2.54,2.44l-.88-.65c1.74-1.04,2.67-2.43,3.14-3.31,.12-.2,.29-.61,.37-.9l1.16,.38c-.2,.3-.41,.69-.52,.89-.04,.08-.09,.17-.14,.25h2.4c.28,0,.56-.03,.75-.1l.82,.5Z"/>
      <path class="cls-1" d="M72.68,131.79c-.05,.11-.13,.26-.15,.34-.29,.98-.73,1.99-1.47,2.81-1.03,1.14-2.3,1.77-3.58,2.13l-.78-.9c1.45-.3,2.68-.95,3.5-1.8,.57-.59,.93-1.34,1.11-2h-5.09c-.24,0-.68,.01-1.06,.04v-1.04c.39,.04,.77,.07,1.06,.07h5.12c.27,0,.51-.04,.64-.09l.7,.44Zm-6.61-2.75c.27,.03,.63,.05,.95,.05h3.9c.32,0,.73-.02,.98-.05v1.03c-.25-.02-.65-.03-.99-.03h-3.89c-.31,0-.67,0-.95,.03v-1.03Z"/>
      <path class="cls-1" d="M83.01,130.52c-.07,.17-.14,.49-.17,.68-.15,.87-.43,2-.96,2.93-.77,1.39-2.21,2.42-4.01,2.91l-.82-.95c.38-.06,.84-.19,1.2-.33,.92-.31,1.92-.99,2.52-1.88,.52-.8,.81-1.89,.92-2.76h-5.32v1.64c0,.2,0,.49,.04,.66h-1.09c.02-.21,.04-.5,.04-.72v-1.75c0-.22,0-.58-.04-.81,.31,.03,.6,.05,.97,.05h2.18v-.86c0-.24,0-.47-.07-.83h1.21c-.04,.36-.06,.59-.06,.83v.86h2.02c.4,0,.6-.05,.75-.1l.69,.43Z"/>
      <path class="cls-1" d="M87.59,131.58c1.32,.39,3.24,1.11,4.23,1.6l-.44,1.08c-1.06-.56-2.69-1.19-3.79-1.55v3.09c.01,.31,.04,.91,.08,1.28h-1.22c.05-.35,.08-.9,.08-1.28v-5.78c0-.32-.03-.79-.09-1.12h1.23c-.03,.33-.08,.76-.08,1.12v1.56Zm2.86-.48c-.26-.57-.54-1.05-.88-1.53l.67-.29c.27,.39,.69,1.04,.91,1.51l-.7,.31Zm1.3-.53c-.29-.57-.57-1.03-.92-1.5l.67-.31c.27,.37,.7,1.02,.93,1.48l-.68,.33Z"/>
      <path class="cls-1" d="M31.48,142.93c-.08,.16-.13,.38-.18,.58-.22,1.02-.68,2.61-1.49,3.67-.91,1.18-2.16,2.14-3.98,2.71l-.85-.94c1.95-.48,3.08-1.33,3.9-2.38,.69-.87,1.12-2.15,1.25-3.07h-4.91c-.43,0-.83,.02-1.08,.04v-1.12c.28,.04,.75,.08,1.08,.08h4.85c.17,0,.42,0,.64-.07l.77,.5Z"/>
      <path class="cls-1" d="M41.38,144.54c-.08,.09-.19,.24-.25,.33-.31,.51-1.19,1.76-2.01,2.35l-.81-.55c.65-.42,1.34-1.22,1.6-1.68h-4.58c-.32-.01-.65,0-.99,.04v-1.03c.3,.04,.67,.08,.99,.08h4.81c.18,0,.52-.03,.66-.06l.58,.52Zm-3.39,1.04c-.04,2.02-.15,3.64-2.37,4.86l-.86-.69c.24-.09,.48-.2,.75-.38,1.25-.84,1.45-1.85,1.45-3.14,0-.22-.03-.44-.07-.65h1.1Z"/>
      <path class="cls-1" d="M47.13,147.41c1.61-.99,2.86-2.49,3.47-3.77l.61,1.09c-.72,1.29-1.95,2.66-3.51,3.62-1.01,.62-2.28,1.21-3.83,1.49l-.67-1.03c1.67-.25,2.97-.81,3.93-1.4Zm-.34-3.2l-.79,.81c-.52-.53-1.76-1.61-2.5-2.12l.73-.78c.71,.47,2,1.51,2.56,2.09Z"/>
      <path class="cls-1" d="M60.88,144.75c.21,0,.59,0,.84-.05v1.03c-.23,0-.58-.02-.84-.02h-2.57c-.04,1.06-.24,1.94-.62,2.66-.36,.68-1.12,1.42-1.98,1.87l-.93-.68c.74-.3,1.46-.88,1.85-1.49,.43-.67,.57-1.47,.6-2.36h-2.89c-.3,0-.63,.01-.91,.03v-1.04c.29,.03,.6,.05,.91,.05h6.54Zm-5.29-1.59c-.34,0-.71,.02-.98,.04v-1.03c.3,.04,.65,.06,.97,.06h3.38c.31,0,.69-.02,1-.06v1.03c-.32-.02-.68-.04-1-.04h-3.37Zm5.07-.1c-.2-.4-.52-1-.79-1.38l.64-.27c.25,.36,.61,.98,.81,1.37l-.66,.28Zm.98-2.07c.27,.37,.65,.99,.83,1.36l-.65,.28c-.21-.43-.54-1-.82-1.37l.64-.27Z"/>
      <path class="cls-1" d="M70.64,144.17c-.47,.52-1.36,1.23-2.26,1.81v3.45c0,.32,0,.79,.05,.96h-1.16c.02-.17,.05-.64,.05-.96v-2.84c-.86,.44-2.03,.93-3.01,1.19l-.53-.92c1.28-.27,2.68-.88,3.5-1.36,1-.58,2.07-1.42,2.57-2.06l.79,.73Z"/>
      <path class="cls-1" d="M76.98,147.41c1.61-.99,2.86-2.49,3.47-3.77l.61,1.09c-.72,1.29-1.95,2.66-3.51,3.62-1.01,.62-2.28,1.21-3.83,1.49l-.67-1.03c1.67-.25,2.97-.81,3.93-1.4Zm-.34-3.2l-.79,.81c-.52-.53-1.76-1.61-2.5-2.12l.73-.78c.71,.47,2,1.51,2.56,2.09Z"/>
      <path class="cls-1" d="M89.23,143.18c.28,0,.56-.03,.75-.1l.82,.5c-.1,.16-.21,.41-.28,.61-.27,.96-.86,2.3-1.76,3.4-.92,1.13-2.13,2.05-4,2.76l-.93-.83c1.93-.57,3.12-1.46,4.01-2.49,.74-.86,1.34-2.11,1.52-2.95h-3.13c-.63,.86-1.49,1.74-2.53,2.44l-.88-.65c1.74-1.05,2.67-2.43,3.14-3.31,.12-.21,.29-.61,.37-.9l1.16,.38c-.2,.3-.41,.68-.52,.88-.05,.09-.09,.17-.15,.26h2.41Zm.8-1.68c.25,.36,.61,.98,.81,1.37l-.66,.28c-.2-.4-.52-1-.79-1.38l.64-.27Zm1.13-.43c.27,.37,.65,1,.83,1.36l-.65,.29c-.21-.43-.54-1-.82-1.38l.64-.27Z"/>
    </g>
    <polyline class="cls-6" points="247.34 29.4 251.12 33.23 247.28 37.02"/>
    <polyline class="cls-6" points="149 105.71 151.42 100.89 156.24 103.31"/>
    <polyline class="cls-6" points="73.69 89.2 68.31 88.75 68.76 83.38"/>
    <polyline class="cls-6" points="153.27 142.75 158.48 144.12 157.12 149.34"/>
  </g>
</svg>