<?xml version="1.0" encoding="UTF-8"?>
<svg id="Layer_2" data-name="Layer 2" xmlns="http://www.w3.org/2000/svg" viewBox="0 0 878.68 402.78">
  <defs>
    <style>
      .cls-1 {
        fill: #fff;
      }

      .cls-2 {
        fill: #323230;
      }

      .cls-3 {
        stroke-dasharray: 0 0 2.34 2.34;
      }

      .cls-3, .cls-4, .cls-5, .cls-6 {
        stroke-miterlimit: 10;
      }

      .cls-3, .cls-6 {
        fill: none;
        stroke: #323230;
      }

      .cls-4 {
        fill: #e5e5df;
      }

      .cls-4, .cls-5 {
        stroke: #cececa;
      }

      .cls-5 {
        fill: #cececa;
      }
    </style>
  </defs>
  <g id="design">
    <circle class="cls-1" cx="541.68" cy="201.39" r="201.39"/>
    <g>
      <path d="M562.38,130.95l.76,.49c-.11,.23-.19,.58-.26,.83-.28,1.18-.79,3.03-1.8,4.37-1.08,1.44-2.68,2.63-4.82,3.31l-1.31-1.43c2.39-.56,3.73-1.6,4.7-2.82,.79-1,1.25-2.35,1.42-3.38h-5.59c-.55,0-1.12,.02-1.43,.05v-1.69c.35,.05,1.03,.1,1.43,.1h5.55c.14,0,.35,0,.56-.02-.21-.4-.44-.82-.67-1.16l.98-.41c.31,.46,.71,1.15,.92,1.58l-.44,.19Zm1.2-2.07c.3,.43,.73,1.16,.96,1.58l-.99,.43c-.26-.49-.64-1.18-.96-1.61l1-.41Z"/>
      <path d="M575.79,137.82c0,.47,.02,1.62,.02,1.67h-1.65v-.66s-5.77,0-5.77,0v.66s-1.64,0-1.64,0c.01-.06,.04-1.1,.04-1.68v-5.86c0-.34,0-.83-.02-1.16,.49,.01,.95,.02,1.27,.02h6.6c.3,0,.76,0,1.19-.02-.02,.36-.02,.8-.02,1.16v5.88Zm-7.4-5.49v4.98h5.79v-4.98h-5.79Z"/>
      <path d="M581.6,135.52l-1.46,.55c-.21-.65-.8-2.24-1.09-2.77l1.44-.52c.3,.61,.88,2.06,1.12,2.73Zm6.09-2.49c-.14,.38-.21,.64-.29,.88-.31,1.21-.82,2.46-1.63,3.51-1.12,1.44-2.62,2.45-4.02,2.97l-1.26-1.28c1.32-.35,2.99-1.26,3.98-2.51,.82-1.02,1.39-2.61,1.52-4.11l1.69,.54Zm-3.44,1.75l-1.44,.5c-.14-.59-.67-2.04-.97-2.66l1.43-.47c.23,.52,.82,2.07,.98,2.63Z"/>
      <path d="M600.23,131.82c-.13,.23-.3,.56-.39,.86-.32,1.07-1.01,2.66-2.09,4.01-1.14,1.39-2.59,2.48-4.85,3.38l-1.41-1.27c2.46-.73,3.79-1.78,4.83-2.96,.82-.94,1.51-2.37,1.7-3.27h-3.37c-.8,1.04-1.85,2.1-3.02,2.9l-1.34-1c2.1-1.28,3.14-2.83,3.74-3.86,.18-.3,.43-.85,.54-1.26l1.75,.58c-.29,.42-.59,.96-.73,1.22l-.04,.06h2.41c.37,0,.77-.06,1.04-.14l1.22,.76Z"/>
      <path d="M611.69,133.61c.25,0,.83-.05,1.09-.07v1.55c-.32-.02-.73-.05-1.05-.05h-3.11c-.18,2.01-1.04,3.72-3.07,4.93l-1.52-1.03c1.82-.84,2.78-2.12,3.01-3.9h-3.3c-.37,0-.82,.02-1.13,.05v-1.55c.32,.04,.73,.07,1.1,.07h3.38v-1.7c-1.15,.1-2.41,.13-3.21,.16l-.37-1.39c.91,.02,2.77,0,4.09-.19,1.2-.17,2.42-.44,3.02-.72l.98,1.32c-.41,.1-.72,.18-.92,.23-.59,.16-1.29,.29-2.01,.4v1.91h3.02Z"/>
      <path d="M623.01,138.11c.34,0,.67-.05,.91-.07v1.57c-.25-.05-.7-.06-.91-.06h-6.62c-.29,0-.66,.01-.98,.06v-1.57c.31,.04,.68,.07,.98,.07h2.45v-3.86h-1.87c-.25,0-.68,.02-.95,.05v-1.51c.27,.05,.68,.06,.95,.06h5.49c.29,0,.65-.02,.94-.06v1.51c-.3-.02-.67-.05-.94-.05h-2.05v3.86h2.6Z"/>
      <path d="M626.82,133.73c.43,.04,1.31,.07,1.93,.07h6.44c.55,0,1.09-.05,1.4-.07v1.88c-.29-.01-.9-.06-1.4-.06h-6.44c-.68,0-1.49,.02-1.93,.06v-1.88Z"/>
      <path d="M642.81,136.58c2.04-1.21,3.61-3.05,4.37-4.67l.94,1.69c-.91,1.62-2.51,3.27-4.44,4.44-1.21,.73-2.76,1.4-4.45,1.69l-1.01-1.58c1.87-.26,3.43-.88,4.59-1.57Zm0-3.89l-1.22,1.26c-.62-.67-2.12-1.98-3-2.59l1.13-1.2c.84,.56,2.4,1.81,3.09,2.53Z"/>
    </g>
    <g>
      <path d="M230.06,391.78v4.54h-1.06v-.65h-6.5v.67h-1.03v-4.57h1.03v2.89h2.65v-3.55h-3.27v-3.84h1.02v2.85h2.24v-3.81h1.04v3.81h2.35v-2.86h1.08v3.85h-3.43v3.55h2.81v-2.89h1.06Z"/>
      <path d="M235.63,389.28c-.96,.32-1.98,.62-2.79,.87l-.41-.9c.8-.17,1.97-.47,3.1-.77l.1,.8Zm1.01,5.73c-.89,.54-2.27,1.07-3.37,1.36-.18-.2-.54-.58-.77-.76,1.13-.22,2.44-.6,3.2-1.03l.94,.43Zm-1.4-6.96c-.52-.27-1.53-.67-2.3-.9l.45-.69c.75,.19,1.77,.55,2.3,.81l-.45,.78Zm2.08-.3c-.26,.33-.57,.64-.93,.91-.19-.18-.53-.4-.77-.5,.81-.55,1.35-1.29,1.63-1.93l.92,.14c-.1,.21-.21,.42-.34,.63h3.53l.15-.03,.68,.18c-.29,.57-.69,1.21-1.07,1.6l-.8-.25c.19-.2,.37-.47,.55-.75h-1.52c.24,.79,.86,1.5,3.09,1.79-.19,.2-.43,.58-.52,.84-.31-.06-.59-.12-.85-.19v4.37h-7.17v-4.42h2.21c-.1-.22-.3-.52-.45-.67,1.77-.29,2.4-.81,2.65-1.72h-1Zm2.74,3.04h-5.16v.62h5.16v-.62Zm0,1.23h-5.16v.63h5.16v-.63Zm0,1.25h-5.16v.64h5.16v-.64Zm.85-3.14c-1.1-.34-1.67-.86-2.01-1.44-.42,.67-1.14,1.13-2.45,1.44h4.47Zm-1.86,4.47c1.18,.4,2.5,.9,3.29,1.28l-1.18,.48c-.65-.35-1.8-.85-2.95-1.24l.84-.52Z"/>
      <path d="M247.58,389.03c-.25,.44-.56,.9-.89,1.34v5.97h-.98v-4.83c-.37,.41-.78,.77-1.16,1.07-.08-.22-.34-.77-.51-1.02,.97-.69,2.01-1.79,2.64-2.89l.89,.36Zm-.14-2.37c-.68,.97-1.75,2-2.73,2.66-.11-.24-.35-.65-.52-.86,.85-.55,1.8-1.44,2.27-2.2l.98,.4Zm5.38,3.98v1.07h1.39v.94h-1.39v2.55c0,.55-.11,.83-.5,.97-.37,.17-.96,.18-1.79,.18-.04-.29-.19-.7-.32-.98,.59,.03,1.2,.03,1.38,.02,.17-.01,.22-.06,.22-.21v-2.53h-4.35v-.94h4.35v-1.07h-4.47v-.94h2.96v-1.19h-2.32v-.94h2.32v-1.3h1.01v1.3h2.43v.94h-2.43v1.19h2.97v.94h-1.46Zm-3.8,2.21c.51,.56,1.07,1.34,1.32,1.87l-.89,.51c-.22-.53-.76-1.34-1.25-1.94l.83-.44Z"/>
      <path d="M263.9,388.86c-1.2,.21-2.95,.4-4.37,.46-.18,.8-.4,1.69-.6,2.28,.92-.59,1.78-.84,2.9-.84,1.75,0,2.83,.91,2.83,2.24,0,2.34-2.33,3.21-5.73,2.85l-.31-1.11c2.46,.36,4.9,0,4.9-1.72,0-.74-.63-1.32-1.8-1.32-1.29,0-2.44,.44-3.14,1.29-.12,.15-.22,.31-.32,.5l-1.02-.36c.54-1.06,.98-2.56,1.25-3.78-.71-.01-1.4-.04-1.99-.1v-1.08c.63,.11,1.47,.19,2.15,.19h.04c.04-.23,.08-.43,.1-.59,.04-.4,.07-.66,.04-.98l1.23,.05c-.1,.33-.17,.68-.22,1l-.1,.48c1.28-.05,2.83-.22,4.15-.51v1.04Z"/>
      <path d="M273.7,386.41c.7,1.43,2.09,3.05,3.28,3.93-.26,.22-.66,.63-.86,.91-.3-.25-.62-.56-.92-.9,0,.1,0,.33-.01,.43-.14,3.33-.3,4.61-.67,5.04-.25,.32-.51,.4-.9,.45-.37,.04-1.05,.03-1.71,0-.01-.31-.15-.74-.34-1.03,.67,.07,1.3,.08,1.55,.08,.22,0,.35-.03,.47-.15,.25-.26,.4-1.3,.51-3.85h-2.54c-.28,2.13-.98,4.06-3.81,5.09-.11-.26-.42-.7-.65-.91,2.53-.84,3.11-2.44,3.34-4.18h-2.06v-.85c-.32,.33-.66,.63-1,.89-.19-.22-.63-.63-.87-.81,1.36-.92,2.58-2.43,3.26-4.1l1.09,.32c-.57,1.33-1.4,2.56-2.33,3.55h6.62c-.91-1-1.82-2.28-2.44-3.5l.99-.4Z"/>
      <path d="M278.75,391.2c.23-.74,.41-1.96,.47-2.83l.74,.1c-.03,.87-.21,2.16-.44,2.98l-.77-.25Zm2.85-1.52c-.11-.39-.34-1.03-.56-1.54v8.2h-.94v-10.09h.94v1.8l.64-.25c.23,.5,.52,1.14,.62,1.55l-.69,.33Zm7.36,.07v.76h-7.14v-.76h3.01v-.64h-2.41v-.71h2.41v-.57h-2.67v-.76h2.67v-.81h1.01v.81h2.78v.76h-2.78v.57h2.5v.71h-2.5v.64h3.11Zm-.81,5.55c0,.46-.1,.73-.43,.87-.34,.14-.86,.15-1.62,.15-.04-.25-.18-.64-.3-.88,.51,.03,1.03,.02,1.18,.02,.15-.01,.2-.06,.2-.19v-.59h-3.64v1.66h-.95v-5.29h5.56v4.25Zm-4.61-3.48v.68h3.64v-.68h-3.64Zm3.64,2.12v-.68h-3.64v.68h3.64Z"/>
      <path d="M293.96,389.12h1.92v.87h-1.02l.47,.12c-.19,.46-.38,.95-.56,1.3h.98v.88h-1.79v1.03h1.65v.87h-1.65v2.12h-.96v-2.12h-1.73v-.87h1.73v-1.03h-1.83v-.88h.96c-.06-.37-.22-.89-.42-1.3l.45-.12h-1.18v-.87h2.01v-.96h-1.62v-.86h1.62v-1.03h.96v1.03h1.52v.86h-1.52v.96Zm.02,2.19c.15-.37,.35-.92,.46-1.32h-1.9c.2,.43,.38,.97,.43,1.32l-.36,.1h1.75l-.37-.1Zm6.83-.67c-.22,1.31-.64,2.54-1.24,3.59,.47,.55,1.02,1,1.64,1.31-.22,.19-.53,.56-.68,.81-.56-.33-1.07-.77-1.52-1.3-.38,.51-.84,.95-1.34,1.31-.13-.19-.35-.43-.56-.59v.58h-.92v-9.62h4.38v2.08c0,.47-.1,.74-.48,.88-.36,.14-.92,.14-1.75,.14-.04-.26-.18-.64-.31-.88,.63,.02,1.21,.02,1.38,.01,.17-.01,.21-.04,.21-.17v-1.17h-2.5v2.82h2.92l.17-.04,.63,.23Zm-3.71,4.94c.51-.35,.93-.8,1.31-1.32-.56-.87-.99-1.88-1.31-2.97v4.29Zm.86-4.29c.24,.75,.57,1.46,.98,2.11,.35-.66,.61-1.38,.78-2.11h-1.76Z"/>
      <path d="M307.48,394.81c.39-.03,.7-.09,.97-.15,1.4-.32,2.64-1.33,2.64-3.09,0-1.58-.95-2.83-2.62-3.04-.15,.98-.35,2.04-.65,3.06-.66,2.22-1.56,3.47-2.65,3.47s-2.07-1.22-2.07-3.04c0-2.42,2.14-4.52,4.87-4.52s4.28,1.83,4.28,4.11-1.46,3.86-4.13,4.24l-.65-1.03Zm-.77-3.45c.27-.86,.48-1.85,.59-2.81-1.96,.32-3.1,2.02-3.1,3.37,0,1.25,.56,1.83,1,1.83,.47,0,1-.7,1.51-2.39Z"/>
      <path d="M316.86,394.04c.47,.76,1.34,1.1,2.56,1.16,1.24,.06,3.8,.02,5.19-.08-.12,.23-.28,.7-.33,1-1.27,.05-3.6,.08-4.87,.03-1.36-.05-2.31-.42-2.98-1.27-.46,.45-.95,.89-1.49,1.36l-.51-1.01c.44-.3,.98-.71,1.44-1.12v-2.65h-1.32v-.95h2.3v3.52Zm-.53-5.1c-.31-.55-1.05-1.31-1.69-1.84l.78-.57c.64,.49,1.41,1.22,1.74,1.76l-.82,.65Zm3.95,4.77h-3.01v-.84h3.01v-.65h-2.39v-3.61h2.39v-.63h-2.86v-.85h2.86v-.89h.99v.89h2.99v.85h-2.99v.63h2.46v3.61h-2.46v.65h3.15v.84h-3.15v1.16h-.99v-1.16Zm-1.44-3.65h1.44v-.71h-1.44v.71Zm1.44,1.43v-.73h-1.44v.73h1.44Zm.99-2.15v.71h1.49v-.71h-1.49Zm1.49,1.42h-1.49v.73h1.49v-.73Z"/>
      <path d="M329.96,391.75c-.4,.13-.8,.26-1.2,.38v3.08c0,.51-.1,.78-.4,.95-.3,.15-.73,.19-1.43,.19-.02-.24-.14-.68-.27-.95,.44,.01,.85,.01,.97,0,.14,0,.2-.03,.2-.19v-2.78l-1.2,.37-.23-.99c.4-.1,.89-.24,1.43-.4v-2.09h-1.28v-.95h1.28v-2.12h.93v2.12h1.1v.18c.61-.62,1.1-1.44,1.39-2.32l.88,.22c-.11,.32-.24,.64-.39,.95h1.43c.18-.37,.36-.8,.46-1.13l.99,.23c-.15,.31-.32,.62-.48,.9h2.15v.73h-2.3v.57h2v.63h-2v.58h2v.63h-2v.62h2.41v.74h-5.71v-2.86c-.17,.2-.35,.38-.53,.55-.07-.09-.18-.21-.3-.33v.08h-1.1v1.82c.35-.11,.7-.22,1.06-.33l.14,.94Zm6.55,1.6s-.02,.24-.04,.37c-.14,1.41-.3,2.05-.56,2.32-.21,.19-.43,.26-.76,.27-.27,.02-.79,.03-1.34,0-.01-.26-.13-.62-.29-.85,.52,.04,1.04,.06,1.25,.06,.18,0,.29-.01,.37-.09,.14-.14,.25-.52,.36-1.34h-1.17c-.04,.18-.09,.35-.13,.5l-.87-.13c.09-.34,.2-.77,.3-1.2h-1.17c-.24,1.6-.98,2.53-2.35,3.12-.11-.19-.45-.58-.66-.74,1.2-.44,1.82-1.17,2.01-2.39h-1.42v-.83h4.67c-.07,.3-.13,.6-.2,.91h1.99Zm-3.43-5.22h-1.51v.57h1.51v-.57Zm0,1.2h-1.51v.58h1.51v-.58Zm0,1.21h-1.51v.62h1.51v-.62Z"/>
    </g>
    <g>
      <path d="M594.79,37.39c.78-.72,1.55-1.84,1.87-2.45-.25,.05-2.04,.41-3.82,.77v3.11c0,.73,.24,.97,1.51,.97s2.35-.12,3.46-.34l-.04,1.19c-.96,.13-2.15,.23-3.44,.23-2.25,0-2.62-.57-2.62-1.75v-3.18c-1.04,.22-1.98,.41-2.43,.51l-.21-1.14c.51-.07,1.51-.24,2.64-.45v-1.75c0-.35-.02-.79-.08-1.12h1.3c-.04,.33-.08,.78-.08,1.12v1.53c1.75-.34,3.51-.69,3.98-.8,.28-.07,.51-.13,.67-.22l.83,.64c-.09,.13-.22,.34-.31,.51-.5,.91-1.42,2.35-2.27,3.2l-.96-.56Z"/>
      <path d="M609.84,37.19c-.25,.02-.65,.1-1.07,.17-.57,.09-1.54,.24-2.56,.41,.2,.99,.35,1.82,.42,2.11,.08,.32,.18,.7,.29,1.03l-1.26,.22c-.05-.39-.09-.74-.15-1.07-.04-.27-.21-1.1-.4-2.12-1.2,.2-2.31,.39-2.83,.48-.45,.08-.78,.14-1.02,.21l-.25-1.18c.27-.01,.74-.07,1.04-.11,.54-.08,1.66-.25,2.85-.44l-.39-2.02c-1.01,.17-1.92,.32-2.31,.39-.38,.07-.66,.13-.95,.2l-.23-1.21c.31-.02,.62-.04,.96-.08,.41-.04,1.32-.18,2.32-.33-.11-.55-.19-.95-.22-1.1-.07-.3-.13-.55-.22-.79l1.23-.2c.03,.21,.07,.55,.12,.79,.02,.13,.1,.55,.21,1.12,1-.17,1.94-.32,2.37-.41,.34-.07,.68-.14,.9-.21l.21,1.16c-.2,.02-.57,.08-.88,.12-.48,.08-1.41,.22-2.4,.37l.38,2.01c1.07-.18,2.05-.34,2.58-.44,.42-.09,.78-.17,1.03-.24l.23,1.16Z"/>
      <path d="M619.04,39.5c.25,0,.7-.02,.96-.04v1.12c-.21-.01-.67-.02-.93-.02h-5.93c-.36,0-.62,.01-.99,.02v-1.13c.29,.03,.64,.05,.99,.05h3.81c.15-.94,.44-2.83,.47-3.44h-3.27c-.33,0-.68,.02-.98,.03v-1.14c.28,.03,.69,.05,.97,.05h3.12c.2,0,.55-.03,.66-.09l.84,.41c-.03,.12-.07,.29-.09,.4-.09,.7-.4,2.76-.55,3.78h.92Z"/>
      <path d="M624.28,32.22c-.02,.23-.04,.51-.04,.81v3.69c0,.29,.02,.67,.04,.89h-1.29c.01-.19,.05-.57,.05-.89v-3.69c0-.2-.02-.58-.04-.81h1.28Zm5.08-.09c-.02,.29-.04,.62-.04,1.01v1.96c0,2.52-.4,3.45-1.21,4.38-.71,.84-1.83,1.33-2.63,1.61l-.91-.96c1.04-.26,1.99-.68,2.66-1.44,.77-.87,.91-1.73,.91-3.65v-1.89c0-.4-.03-.73-.07-1.01h1.29Z"/>
      <path d="M640.78,35.13c.23,0,.65-.02,.92-.05v1.13c-.25-.02-.64-.03-.92-.03h-2.83c-.04,1.17-.26,2.13-.68,2.94-.4,.74-1.23,1.56-2.19,2.05l-1.01-.75c.81-.33,1.6-.96,2.04-1.64,.47-.74,.62-1.61,.66-2.6h-3.18c-.33,0-.69,.01-1,.03v-1.13c.31,.03,.66,.05,1,.05h7.2Zm-5.82-1.75c-.36,0-.77,.01-1.08,.03v-1.13c.33,.04,.71,.08,1.08,.08h4.43c.34,0,.75-.02,1.1-.08v1.13c-.35-.02-.76-.03-1.1-.03h-4.43Z"/>
      <path d="M651.33,34.61c-.52,.57-1.5,1.35-2.49,1.99v3.8c0,.35,.01,.87,.05,1.06h-1.28c.02-.19,.06-.7,.06-1.06v-3.12c-.95,.48-2.23,1.02-3.31,1.31l-.58-1.01c1.41-.3,2.95-.97,3.85-1.5,1.1-.64,2.28-1.56,2.83-2.27l.87,.8Z"/>
      <path d="M661.17,37.86c-1.17-.63-2.95-1.32-4.16-1.72v3.4c0,.34,.03,1.01,.09,1.41h-1.35c.05-.39,.09-.98,.09-1.41v-6.36c0-.35-.03-.86-.1-1.23h1.35c-.03,.36-.08,.85-.08,1.23v1.72c1.45,.44,3.55,1.22,4.65,1.76l-.5,1.2Z"/>
      <path d="M664.6,35.65c.35,.03,1.03,.07,1.63,.07h5.97c.54,0,.97-.04,1.23-.07v1.35c-.24-.01-.74-.04-1.22-.04h-5.99c-.62,0-1.26,.02-1.63,.04v-1.35Z"/>
      <path d="M684.8,33.69c-.11,.18-.23,.45-.31,.67-.3,1.06-.95,2.53-1.94,3.74-1.01,1.24-2.34,2.26-4.4,3.05l-1.02-.91c2.12-.64,3.43-1.62,4.41-2.75,.81-.94,1.47-2.32,1.67-3.25h-3.43c-.7,.95-1.64,1.91-2.79,2.68l-.97-.72c1.91-1.14,2.94-2.67,3.45-3.64,.13-.22,.32-.67,.41-.99l1.28,.42c-.22,.33-.45,.76-.57,.98-.04,.09-.1,.19-.15,.28h2.64c.31,0,.62-.03,.83-.11l.9,.55Z"/>
      <path d="M691.76,38.18c1.77-1.09,3.15-2.74,3.82-4.15l.67,1.2c-.79,1.42-2.14,2.93-3.86,3.98-1.11,.68-2.51,1.33-4.21,1.64l-.74-1.13c1.84-.27,3.27-.89,4.32-1.54Zm-.37-3.52l-.87,.89c-.57-.58-1.94-1.77-2.75-2.33l.8-.86c.78,.52,2.2,1.66,2.82,2.3Z"/>
      <path d="M701.75,33.95h-3.56v-.81h3.56v.81Zm-.3,6.84h-2.02v.48h-.81v-3.7h2.84v3.21Zm-2.82-6.16h2.83v.79h-2.83v-.79Zm0,1.46h2.83v.8h-2.83v-.8Zm2.8-3.61h-2.74v-.8h2.74v.8Zm-2.01,5.92v1.58h1.2v-1.58h-1.2Zm8.69,.53c-.37,.27-.85,.54-1.28,.76,.45,.43,.99,.77,1.62,.98-.2,.15-.46,.51-.59,.74-1.41-.54-2.37-1.67-2.88-3.18h-.09c-.24,.24-.52,.48-.83,.69v1.33c.54-.09,1.11-.18,1.68-.27l.07,.75c-1.19,.22-2.43,.45-3.39,.6l-.25-.79c.3-.04,.65-.1,1.02-.15v-.95c-.37,.2-.75,.36-1.12,.51-.12-.18-.39-.52-.55-.68,.78-.24,1.61-.59,2.22-1.03h-1.97v-.72h1.64v-.52h-1.03v-.67h1.03v-.51h-1.28v-.69h1.28v-.76h.91v.76h1.36v-.76h.94v.76h1.4v.69h-1.4v.51h1.19v.67h-1.19v.52h1.67v.72h-2.45c.14,.33,.33,.64,.54,.92,.41-.23,.87-.54,1.17-.76l.56,.54Zm-3.58-5.58c-.52,.61-1.42,1.17-2.21,1.51-.14-.17-.47-.5-.67-.64,.77-.27,1.57-.68,2.01-1.13l.87,.26Zm3.62-.32h-6.19v-.77h2.51v-.96h1.03v.96h2.65v.77Zm-3.83,3.29h1.36v-.51h-1.36v.51Zm0,1.19h1.36v-.52h-1.36v.52Zm1.85-4.47c.74,.32,1.64,.84,2.13,1.22l-.68,.53c-.47-.41-1.39-.96-2.12-1.28l.67-.47Z"/>
      <path d="M712.18,36.22c-.38-.36-1.2-.85-1.87-1.13l.57-.77c.65,.25,1.49,.69,1.89,1.05l-.59,.86Zm.78,1.53c-.46,1.17-1.06,2.48-1.58,3.53l-.94-.58c.5-.86,1.18-2.28,1.68-3.54l.84,.59Zm-.22-4.4c-.37-.37-1.18-.87-1.82-1.18l.57-.75c.64,.26,1.45,.72,1.85,1.09l-.6,.84Zm1.8,1.97c0,1.76-.18,4.36-1.28,6.06-.19-.15-.62-.4-.86-.5,1.07-1.62,1.16-3.92,1.16-5.58v-2.95h2.98v-1.03h1.03v1.03h2.76v.86h-5.8v1.06h1.08v-.8h.9v.8h1.76v-.8h.93v.8h1.18v.81h-1.18v1.66h-3.6v-1.66h-1.08v.23Zm5.41,2.19c-.38,.98-.99,1.74-1.76,2.33,.68,.34,1.47,.58,2.35,.72-.21,.2-.48,.59-.62,.86-1-.21-1.87-.54-2.61-.99-.8,.44-1.71,.76-2.66,.97-.09-.24-.32-.63-.5-.83,.84-.14,1.64-.39,2.35-.74-.48-.44-.89-.95-1.21-1.54l.66-.2h-1.21v-.81h4.39l.18-.04,.63,.28Zm-3.73,.58c.28,.47,.66,.89,1.14,1.24,.5-.34,.92-.76,1.24-1.24h-2.39Zm.3-3v.86h1.76v-.86h-1.76Z"/>
    </g>
    <g>
      <path d="M399.24,187.81c.78-.72,1.55-1.84,1.87-2.45-.25,.05-2.04,.41-3.82,.77v3.11c0,.73,.24,.97,1.51,.97s2.35-.12,3.46-.34l-.04,1.19c-.96,.13-2.15,.23-3.44,.23-2.25,0-2.62-.57-2.62-1.75v-3.18c-1.04,.22-1.98,.41-2.43,.51l-.21-1.14c.51-.07,1.51-.24,2.64-.45v-1.75c0-.35-.02-.79-.08-1.12h1.3c-.04,.33-.08,.78-.08,1.12v1.53c1.75-.34,3.51-.69,3.98-.8,.28-.07,.51-.13,.67-.22l.83,.64c-.09,.13-.22,.34-.31,.51-.5,.91-1.42,2.35-2.27,3.2l-.96-.56Z"/>
      <path d="M414.29,187.61c-.25,.02-.65,.1-1.07,.17-.57,.09-1.54,.24-2.56,.41,.2,.99,.35,1.82,.42,2.11,.08,.32,.18,.7,.29,1.03l-1.26,.22c-.05-.39-.09-.74-.15-1.07-.04-.27-.21-1.1-.4-2.12-1.2,.2-2.31,.38-2.83,.48-.45,.08-.78,.14-1.02,.21l-.25-1.18c.27-.01,.74-.07,1.04-.11,.54-.08,1.66-.25,2.85-.44l-.39-2.02c-1.01,.17-1.92,.32-2.31,.38-.38,.07-.66,.13-.95,.2l-.23-1.21c.31-.02,.62-.04,.96-.08,.41-.04,1.32-.18,2.32-.33-.11-.55-.19-.95-.22-1.1-.07-.3-.13-.55-.22-.79l1.23-.2c.03,.21,.07,.55,.12,.79,.02,.13,.1,.55,.21,1.12,1-.17,1.94-.32,2.37-.41,.34-.07,.68-.14,.9-.21l.21,1.15c-.2,.02-.57,.08-.88,.12-.48,.08-1.41,.22-2.4,.37l.38,2.01c1.07-.18,2.05-.34,2.58-.44,.42-.09,.78-.17,1.03-.24l.23,1.15Z"/>
      <path d="M423.49,189.92c.25,0,.7-.02,.96-.04v1.12c-.21-.01-.67-.02-.93-.02h-5.93c-.36,0-.62,.01-.99,.02v-1.13c.29,.03,.64,.06,.99,.06h3.81c.15-.94,.44-2.83,.47-3.44h-3.27c-.33,0-.68,.02-.98,.03v-1.14c.28,.03,.69,.06,.97,.06h3.12c.2,0,.55-.03,.66-.09l.84,.41c-.03,.12-.07,.29-.09,.4-.09,.7-.4,2.76-.55,3.78h.92Z"/>
      <path d="M428.73,182.63c-.02,.23-.04,.51-.04,.81v3.69c0,.29,.02,.67,.04,.89h-1.29c.01-.19,.05-.57,.05-.89v-3.69c0-.2-.02-.58-.04-.81h1.28Zm5.08-.09c-.02,.29-.04,.62-.04,1.01v1.96c0,2.52-.4,3.45-1.21,4.38-.71,.84-1.83,1.33-2.63,1.61l-.91-.96c1.05-.26,1.99-.68,2.66-1.44,.77-.87,.91-1.73,.91-3.65v-1.89c0-.4-.03-.73-.07-1.01h1.29Z"/>
      <path d="M445.23,185.55c.23,0,.65-.02,.92-.06v1.13c-.25-.02-.64-.03-.92-.03h-2.83c-.04,1.17-.26,2.13-.68,2.94-.4,.74-1.23,1.56-2.19,2.05l-1.01-.75c.81-.33,1.6-.96,2.04-1.64,.47-.74,.62-1.61,.66-2.6h-3.18c-.33,0-.69,.01-1,.03v-1.13c.31,.03,.66,.06,1,.06h7.2Zm-5.82-1.75c-.36,0-.77,.01-1.08,.03v-1.13c.33,.04,.71,.08,1.08,.08h4.43c.34,0,.75-.02,1.1-.08v1.13c-.35-.02-.76-.03-1.1-.03h-4.43Z"/>
      <path d="M455.78,185.03c-.52,.57-1.5,1.35-2.49,1.99v3.8c0,.35,.01,.87,.05,1.06h-1.28c.02-.19,.06-.7,.06-1.06v-3.12c-.95,.48-2.23,1.02-3.31,1.31l-.58-1.01c1.41-.3,2.95-.97,3.85-1.5,1.1-.64,2.28-1.56,2.83-2.27l.87,.8Z"/>
      <path d="M401.84,205.81c-1.17-.63-2.95-1.32-4.16-1.72v3.4c0,.34,.03,1.01,.09,1.41h-1.35c.05-.38,.09-.98,.09-1.41v-6.36c0-.35-.03-.86-.1-1.23h1.35c-.03,.36-.08,.85-.08,1.23v1.72c1.45,.44,3.55,1.22,4.65,1.76l-.5,1.2Z"/>
      <path d="M405.27,203.6c.35,.03,1.03,.07,1.63,.07h5.97c.54,0,.97-.04,1.23-.07v1.35c-.24-.01-.74-.04-1.22-.04h-5.99c-.62,0-1.26,.02-1.63,.04v-1.35Z"/>
      <path d="M425.47,201.64c-.11,.18-.23,.45-.31,.67-.3,1.06-.95,2.53-1.94,3.74-1.01,1.24-2.34,2.25-4.4,3.05l-1.02-.91c2.12-.64,3.43-1.62,4.41-2.75,.81-.94,1.47-2.32,1.67-3.25h-3.43c-.7,.95-1.64,1.91-2.79,2.68l-.97-.72c1.91-1.14,2.94-2.67,3.45-3.64,.13-.22,.32-.67,.41-.99l1.28,.42c-.22,.33-.45,.76-.57,.98-.04,.09-.1,.19-.15,.27h2.64c.31,0,.62-.03,.83-.11l.9,.55Z"/>
      <path d="M432.43,206.13c1.77-1.09,3.15-2.74,3.82-4.15l.67,1.2c-.79,1.42-2.14,2.93-3.86,3.98-1.11,.68-2.51,1.33-4.21,1.64l-.74-1.13c1.84-.28,3.27-.89,4.32-1.54Zm-.37-3.52l-.87,.89c-.57-.58-1.94-1.77-2.75-2.33l.8-.86c.78,.52,2.2,1.66,2.82,2.3Z"/>
      <path d="M442.42,201.91h-3.56v-.81h3.56v.81Zm-.3,6.84h-2.02v.48h-.81v-3.7h2.84v3.21Zm-2.82-6.16h2.83v.79h-2.83v-.79Zm0,1.46h2.83v.8h-2.83v-.8Zm2.8-3.61h-2.74v-.8h2.74v.8Zm-2.01,5.92v1.58h1.2v-1.58h-1.2Zm8.69,.53c-.37,.27-.85,.54-1.28,.76,.45,.43,.99,.77,1.62,.98-.2,.15-.46,.51-.59,.74-1.41-.54-2.37-1.67-2.88-3.18h-.09c-.24,.24-.52,.48-.83,.69v1.33c.54-.09,1.11-.18,1.68-.28l.07,.75c-1.19,.22-2.43,.45-3.39,.61l-.25-.79c.3-.04,.65-.1,1.02-.15v-.95c-.37,.2-.75,.36-1.12,.51-.12-.18-.39-.52-.55-.68,.78-.24,1.61-.59,2.22-1.03h-1.97v-.72h1.64v-.52h-1.03v-.67h1.03v-.51h-1.28v-.69h1.28v-.76h.91v.76h1.36v-.76h.94v.76h1.4v.69h-1.4v.51h1.19v.67h-1.19v.52h1.67v.72h-2.45c.14,.33,.33,.64,.54,.92,.41-.23,.87-.54,1.17-.76l.56,.54Zm-3.58-5.58c-.52,.6-1.42,1.17-2.21,1.51-.14-.17-.47-.5-.67-.64,.77-.28,1.57-.68,2.01-1.13l.87,.26Zm3.62-.32h-6.19v-.77h2.51v-.96h1.03v.96h2.65v.77Zm-3.83,3.29h1.36v-.51h-1.36v.51Zm0,1.19h1.36v-.52h-1.36v.52Zm1.85-4.47c.74,.32,1.64,.84,2.13,1.22l-.68,.53c-.47-.41-1.39-.96-2.12-1.28l.67-.47Z"/>
      <path d="M452.85,204.17c-.38-.36-1.2-.85-1.87-1.13l.57-.77c.65,.25,1.49,.69,1.89,1.04l-.59,.86Zm.78,1.53c-.46,1.17-1.06,2.48-1.58,3.53l-.94-.58c.5-.86,1.18-2.28,1.68-3.54l.84,.59Zm-.22-4.4c-.37-.37-1.18-.87-1.82-1.18l.57-.75c.64,.26,1.45,.72,1.85,1.09l-.6,.84Zm1.8,1.97c0,1.76-.18,4.36-1.28,6.06-.19-.15-.62-.4-.86-.5,1.07-1.62,1.16-3.92,1.16-5.58v-2.95h2.98v-1.03h1.03v1.03h2.76v.86h-5.8v1.06h1.08v-.8h.9v.8h1.76v-.8h.93v.8h1.18v.81h-1.18v1.66h-3.6v-1.66h-1.08v.23Zm5.41,2.19c-.38,.98-.99,1.74-1.76,2.33,.68,.34,1.47,.58,2.35,.72-.21,.2-.48,.59-.62,.86-1-.21-1.87-.54-2.61-.99-.8,.44-1.71,.76-2.66,.97-.09-.24-.32-.63-.5-.82,.84-.14,1.64-.39,2.35-.74-.48-.44-.89-.95-1.21-1.54l.66-.2h-1.21v-.81h4.39l.18-.04,.63,.27Zm-3.73,.58c.28,.47,.66,.89,1.14,1.24,.5-.34,.92-.76,1.24-1.24h-2.39Zm.3-3v.86h1.76v-.86h-1.76Z"/>
    </g>
    <g>
      <path d="M196.8,139.69v4.54h-1.06v-.65h-6.5v.67h-1.03v-4.57h1.03v2.89h2.65v-3.55h-3.27v-3.84h1.02v2.85h2.24v-3.81h1.04v3.81h2.35v-2.86h1.08v3.85h-3.43v3.55h2.81v-2.89h1.06Z"/>
      <path d="M202.37,137.19c-.96,.32-1.98,.62-2.79,.87l-.41-.9c.8-.17,1.97-.47,3.1-.77l.1,.8Zm1.01,5.73c-.89,.54-2.27,1.07-3.37,1.36-.18-.2-.54-.58-.77-.76,1.13-.22,2.44-.61,3.2-1.03l.94,.43Zm-1.4-6.96c-.52-.28-1.53-.67-2.3-.9l.45-.69c.75,.19,1.77,.55,2.3,.81l-.45,.78Zm2.08-.3c-.26,.33-.57,.64-.93,.91-.19-.18-.53-.4-.77-.49,.81-.55,1.35-1.29,1.63-1.93l.92,.14c-.1,.21-.21,.42-.34,.63h3.53l.15-.03,.68,.18c-.29,.57-.69,1.21-1.07,1.6l-.8-.25c.19-.2,.37-.47,.55-.75h-1.52c.24,.79,.86,1.5,3.09,1.79-.19,.2-.43,.58-.52,.84-.31-.05-.59-.12-.85-.19v4.37h-7.17v-4.42h2.21c-.1-.22-.3-.52-.45-.67,1.77-.29,2.4-.81,2.65-1.72h-1Zm2.74,3.04h-5.16v.62h5.16v-.62Zm0,1.23h-5.16v.63h5.16v-.63Zm0,1.25h-5.16v.64h5.16v-.64Zm.85-3.14c-1.1-.34-1.67-.86-2.01-1.44-.42,.67-1.14,1.13-2.45,1.44h4.47Zm-1.86,4.47c1.18,.4,2.5,.9,3.29,1.28l-1.18,.48c-.65-.35-1.8-.85-2.95-1.24l.84-.52Z"/>
    </g>
    <g>
      <path d="M505.6,358.65c0-2.64,1.61-4.22,3.65-4.22,1.01,0,1.8,.48,2.3,1.02l-.69,.81c-.42-.43-.92-.73-1.58-.73-1.4,0-2.37,1.17-2.37,3.07s.9,3.1,2.33,3.1c.74,0,1.31-.33,1.79-.86l.68,.8c-.65,.75-1.47,1.17-2.52,1.17-2.04,0-3.6-1.52-3.6-4.17Z"/>
      <path d="M513.36,358.59c0-2.61,1.44-4.17,3.52-4.17s3.53,1.56,3.53,4.17-1.45,4.22-3.53,4.22-3.52-1.62-3.52-4.22Zm5.74,0c0-1.9-.88-3.06-2.22-3.06s-2.21,1.16-2.21,3.06,.87,3.11,2.21,3.11,2.22-1.21,2.22-3.11Z"/>
      <path d="M522.06,361.9l4.06-6.26h-3.68v-1.07h5.26v.76l-4.05,6.26h4.09v1.08h-5.68v-.77Z"/>
      <path d="M530.02,359.2v-4.62h1.28v4.71c0,1.83,.73,2.42,1.74,2.42s1.77-.59,1.77-2.42v-4.71h1.23v4.62c0,2.64-1.21,3.62-3,3.62s-3.01-.98-3.01-3.62Z"/>
      <path d="M538.54,358.65c0-2.64,1.61-4.22,3.65-4.22,1.01,0,1.8,.48,2.3,1.02l-.69,.81c-.42-.43-.92-.73-1.58-.73-1.4,0-2.37,1.17-2.37,3.07s.9,3.1,2.33,3.1c.74,0,1.31-.33,1.79-.86l.68,.8c-.65,.75-1.47,1.17-2.52,1.17-2.04,0-3.6-1.52-3.6-4.17Z"/>
      <path d="M546.93,354.58h1.28v3.3h3.46v-3.3h1.28v8.1h-1.28v-3.69h-3.46v3.69h-1.28v-8.1Z"/>
      <path d="M555.9,354.58h1.28v8.1h-1.28v-8.1Z"/>
      <path d="M562.96,361.63l.75-.88c.58,.58,1.38,.96,2.16,.96,.98,0,1.53-.46,1.53-1.14,0-.74-.55-.97-1.3-1.3l-1.12-.48c-.78-.33-1.65-.95-1.65-2.12,0-1.28,1.12-2.23,2.66-2.23,.95,0,1.84,.4,2.45,1.02l-.67,.81c-.51-.45-1.07-.73-1.78-.73-.83,0-1.36,.4-1.36,1.05,0,.69,.65,.96,1.31,1.22l1.11,.47c.96,.41,1.65,1,1.65,2.19,0,1.3-1.08,2.35-2.85,2.35-1.11,0-2.15-.44-2.88-1.19Z"/>
      <path d="M572.89,355.64h-2.38v-1.07h6.04v1.07h-2.39v7.03h-1.28v-7.03Z"/>
      <path d="M509.78,378.77c.47,.76,1.34,1.1,2.56,1.16,1.24,.06,3.8,.02,5.19-.08-.12,.23-.28,.7-.33,1-1.27,.05-3.6,.08-4.87,.03-1.36-.05-2.31-.42-2.98-1.27-.46,.45-.95,.89-1.49,1.36l-.51-1.01c.44-.3,.98-.71,1.44-1.12v-2.65h-1.32v-.95h2.3v3.52Zm-.53-5.1c-.31-.55-1.05-1.31-1.69-1.84l.78-.57c.64,.49,1.41,1.22,1.74,1.76l-.82,.65Zm3.95,4.77h-3.01v-.84h3.01v-.65h-2.39v-3.61h2.39v-.63h-2.86v-.85h2.86v-.89h.99v.89h2.99v.85h-2.99v.63h2.46v3.61h-2.46v.65h3.15v.84h-3.15v1.16h-.99v-1.16Zm-1.44-3.65h1.44v-.71h-1.44v.71Zm1.44,1.43v-.73h-1.44v.73h1.44Zm.99-2.15v.71h1.49v-.71h-1.49Zm1.49,1.42h-1.49v.73h1.49v-.73Z"/>
      <path d="M522.87,376.48c-.4,.13-.8,.26-1.2,.38v3.08c0,.51-.1,.78-.4,.95-.3,.15-.73,.19-1.43,.19-.02-.24-.14-.68-.27-.95,.44,.01,.85,.01,.97,0,.14,0,.2-.03,.2-.19v-2.78l-1.2,.37-.23-.99c.4-.1,.89-.24,1.43-.4v-2.09h-1.28v-.95h1.28v-2.12h.93v2.12h1.1v.18c.61-.62,1.1-1.44,1.39-2.32l.88,.22c-.11,.32-.24,.64-.39,.95h1.43c.18-.37,.36-.8,.46-1.13l.99,.23c-.15,.31-.32,.62-.48,.9h2.15v.73h-2.3v.57h2v.63h-2v.58h2v.63h-2v.62h2.41v.74h-5.71v-2.86c-.17,.2-.35,.38-.53,.55-.07-.09-.18-.21-.3-.33v.08h-1.1v1.82c.35-.11,.7-.22,1.06-.33l.14,.94Zm6.55,1.6s-.02,.24-.04,.37c-.14,1.41-.3,2.05-.56,2.32-.21,.19-.43,.26-.76,.27-.27,.02-.79,.03-1.34,0-.01-.26-.13-.62-.29-.85,.52,.04,1.04,.06,1.25,.06,.18,0,.29-.01,.37-.09,.14-.14,.25-.52,.36-1.34h-1.17c-.04,.18-.09,.35-.13,.5l-.87-.13c.09-.34,.2-.77,.3-1.2h-1.17c-.24,1.6-.98,2.53-2.35,3.12-.11-.19-.45-.58-.66-.74,1.2-.44,1.82-1.17,2.01-2.39h-1.42v-.83h4.67c-.07,.3-.13,.6-.2,.91h1.99Zm-3.43-5.21h-1.51v.57h1.51v-.57Zm0,1.2h-1.51v.58h1.51v-.58Zm0,1.21h-1.51v.62h1.51v-.62Z"/>
      <path d="M539.65,372.8c-.08,.11-.24,.39-.32,.57-.39,.9-1.03,2.15-1.8,3.14,1.13,.97,2.46,2.39,3.15,3.22l-.98,.86c-.72-.99-1.82-2.2-2.91-3.21-1.18,1.25-2.65,2.43-4.24,3.16l-.89-.92c1.78-.68,3.43-2,4.52-3.22,.75-.84,1.49-2.05,1.75-2.9h-4.04c-.43,0-1.02,.06-1.2,.07v-1.24c.22,.03,.86,.08,1.2,.08h4.08c.41,0,.77-.04,.96-.11l.71,.53Z"/>
      <path d="M551.46,376.84c-.25,.02-.65,.1-1.07,.17-.57,.09-1.54,.24-2.56,.41,.2,.99,.35,1.82,.42,2.11,.08,.32,.18,.7,.29,1.03l-1.26,.22c-.05-.39-.09-.74-.15-1.07-.04-.27-.21-1.1-.4-2.12-1.2,.2-2.31,.38-2.83,.48-.45,.08-.78,.14-1.02,.21l-.25-1.18c.27-.01,.74-.07,1.04-.11,.54-.08,1.66-.25,2.85-.44l-.39-2.02c-1.01,.17-1.92,.32-2.31,.38-.38,.07-.66,.13-.95,.2l-.23-1.21c.31-.02,.62-.04,.96-.08,.41-.04,1.32-.18,2.32-.33-.11-.55-.19-.95-.22-1.1-.07-.3-.13-.55-.22-.79l1.23-.2c.03,.21,.07,.55,.12,.79,.02,.13,.1,.55,.21,1.12,1-.17,1.94-.32,2.37-.41,.34-.07,.68-.14,.9-.21l.21,1.15c-.2,.02-.57,.08-.88,.12-.48,.08-1.41,.22-2.4,.37l.38,2.01c1.07-.18,2.05-.34,2.58-.44,.42-.09,.78-.17,1.03-.24l.23,1.15Z"/>
      <path d="M554.21,375.3c.35,.03,1.03,.07,1.63,.07h5.97c.54,0,.97-.04,1.23-.07v1.35c-.24-.01-.74-.04-1.22-.04h-5.99c-.62,0-1.26,.02-1.63,.04v-1.35Z"/>
      <path d="M573.1,380.64c-.14-.39-.34-.87-.57-1.38-1.75,.21-5.27,.59-6.7,.73-.27,.03-.64,.09-.97,.13l-.2-1.28c.34,0,.77,0,1.1-.02,.13-.01,.29-.01,.45-.02,.62-1.57,1.66-4.85,1.97-5.97,.15-.53,.2-.83,.24-1.14l1.38,.29c-.12,.3-.26,.63-.42,1.11-.33,1.04-1.33,4.16-1.88,5.61,1.5-.13,3.36-.34,4.53-.5-.42-.84-.87-1.64-1.25-2.15l1.07-.46c.77,1.16,1.95,3.34,2.42,4.52l-1.17,.53Z"/>
    </g>
    <ellipse class="cls-3" cx="595.66" cy="143.19" rx="225.9" ry="119.81" transform="translate(-16.96 146.82) rotate(-13.86)"/>
    <path class="cls-6" d="M174,360.32c39.43,11.14,90.29,12.85,145.42,2.6,49.44-9.19,94.75-26.6,130.99-48.51"/>
    <path class="cls-6" d="M304.92,120.87c-83.95,16.68-155.35,56.94-189.62,102.33"/>
    <ellipse class="cls-4" cx="537.14" cy="262.62" rx="95.36" ry="50.58" transform="translate(-47.27 136.28) rotate(-13.86)"/>
    <ellipse class="cls-5" cx="817.63" cy="84.51" rx="61.84" ry="32.8" transform="translate(3.56 198.28) rotate(-13.86)"/>
    <ellipse class="cls-5" cx="380.69" cy="107.66" rx="61.84" ry="32.8" transform="translate(-14.7 94.31) rotate(-13.86)"/>
    <g>
      <path d="M361.44,109.42c-.37,.13-.76,.26-1.13,.39v2.93c0,.53-.11,.8-.44,.97-.31,.14-.78,.18-1.54,.17-.03-.25-.15-.67-.29-.94,.46,.02,.91,.02,1.06,.01,.14,0,.2-.04,.2-.21v-2.59c-.47,.15-.94,.31-1.34,.43l-.3-1.06c.44-.1,1.01-.25,1.64-.43v-2.27h-1.5v-.95h1.5v-2.09h1.01v2.09h1.16v.95h-1.16v1.99l1.02-.29,.11,.89Zm5.75-.72c-.4,1.33-1.06,2.37-1.91,3.18,.76,.49,1.66,.86,2.71,1.07-.22,.23-.53,.65-.67,.92-1.12-.28-2.08-.72-2.88-1.31-.88,.61-1.9,1.05-3.01,1.33-.11-.28-.35-.7-.54-.94,1.01-.21,1.96-.57,2.77-1.09-.61-.63-1.1-1.38-1.47-2.24l.71-.22h-1.03v-.94h4.48l.19-.04,.67,.28Zm-3.75-3.38c0,1-.29,2.23-1.52,3.03-.12-.21-.5-.59-.68-.74,1.08-.67,1.24-1.56,1.24-2.31v-1.1h3.72v2.52c0,.26,.02,.3,.19,.3h.47c.19,0,.23-.15,.25-1.21,.2,.17,.58,.31,.85,.37-.08,1.33-.32,1.68-.99,1.68h-.75c-.79,0-1.01-.24-1.01-1.13v-1.58h-1.77v.18Zm-.31,4.08c.32,.7,.77,1.32,1.33,1.85,.58-.51,1.06-1.12,1.39-1.85h-2.72Z"/>
      <path d="M373.12,106.82c-.96,.32-1.98,.62-2.79,.87l-.41-.9c.8-.17,1.97-.47,3.1-.77l.1,.8Zm1.01,5.73c-.89,.54-2.27,1.07-3.37,1.36-.18-.2-.54-.58-.77-.76,1.13-.22,2.44-.61,3.2-1.03l.94,.43Zm-1.4-6.96c-.52-.28-1.53-.67-2.3-.9l.45-.69c.75,.19,1.77,.55,2.3,.81l-.45,.78Zm2.08-.3c-.26,.33-.57,.64-.93,.91-.19-.18-.53-.4-.77-.5,.81-.55,1.35-1.29,1.63-1.93l.92,.14c-.1,.21-.21,.42-.34,.63h3.53l.15-.03,.68,.18c-.29,.57-.69,1.21-1.07,1.6l-.8-.25c.19-.2,.37-.47,.55-.75h-1.52c.24,.79,.86,1.5,3.09,1.79-.19,.2-.43,.58-.52,.84-.31-.05-.59-.12-.85-.19v4.37h-7.17v-4.42h2.21c-.1-.22-.3-.52-.45-.67,1.77-.29,2.4-.81,2.65-1.72h-1Zm2.74,3.04h-5.16v.62h5.16v-.62Zm0,1.23h-5.16v.63h5.16v-.63Zm0,1.25h-5.16v.64h5.16v-.64Zm.85-3.14c-1.1-.34-1.67-.86-2.01-1.44-.42,.67-1.14,1.13-2.45,1.44h4.47Zm-1.86,4.47c1.18,.4,2.5,.9,3.29,1.28l-1.18,.48c-.65-.35-1.8-.85-2.95-1.24l.84-.52Z"/>
      <path d="M391.28,108.37c-.64,.51-1.45,1.05-2.15,1.43,.65,1.07,1.53,1.9,2.65,2.37-.24,.21-.56,.61-.71,.89-2.02-.98-3.21-3.04-3.87-5.61h-.02c-.3,.25-.65,.5-1.01,.7,2.08,1.82,2.04,4.58,.97,5.35-.38,.31-.7,.41-1.23,.41-.28,0-.61-.01-.95-.03-.02-.28-.11-.68-.29-.98,.4,.04,.76,.06,1.02,.06,.29,0,.52-.02,.73-.22,.33-.24,.5-.9,.36-1.68-1.2,.94-2.93,1.85-4.38,2.33-.13-.24-.34-.63-.54-.85,1.62-.42,3.55-1.39,4.64-2.37-.09-.19-.19-.37-.3-.56-.94,.65-2.34,1.35-3.44,1.75-.11-.24-.33-.58-.52-.79,1.13-.3,2.65-.96,3.49-1.57-.12-.13-.25-.26-.41-.39-.85,.41-1.78,.74-2.65,.98-.1-.19-.37-.62-.54-.79,1.25-.29,2.61-.75,3.61-1.34h-2.02v-.88h6.02v.88h-1.62c.15,.55,.35,1.09,.58,1.58,.63-.41,1.32-.92,1.77-1.34l.8,.68Zm-8.05-1.38h-1.01v-2.29h4v-.92h1.06v.92h4.07v2.29h-1.03v-1.35h-7.08v1.35Z"/>
      <path d="M401.04,110.7h-2.82l-.69,2.31h-1.3l2.68-8.1h1.47l2.68,8.1h-1.35l-.68-2.31Zm-.31-1l-.32-1.09c-.28-.88-.52-1.78-.77-2.7h-.04c-.23,.92-.48,1.82-.75,2.7l-.33,1.09h2.21Z"/>
    </g>
    <g>
      <path d="M798.34,85.07c-.37,.13-.76,.26-1.13,.39v2.93c0,.53-.11,.8-.44,.97-.31,.14-.78,.18-1.54,.17-.03-.25-.15-.67-.29-.94,.46,.02,.91,.02,1.06,.01,.14,0,.2-.04,.2-.21v-2.59c-.47,.15-.94,.31-1.34,.43l-.3-1.06c.44-.1,1.01-.25,1.64-.43v-2.27h-1.5v-.95h1.5v-2.09h1.01v2.09h1.16v.95h-1.16v1.99l1.02-.29,.11,.89Zm5.75-.72c-.4,1.33-1.06,2.37-1.91,3.18,.76,.49,1.66,.86,2.71,1.07-.22,.23-.53,.65-.67,.92-1.12-.28-2.08-.72-2.88-1.31-.88,.61-1.9,1.05-3.01,1.33-.11-.28-.35-.7-.54-.94,1.01-.21,1.96-.57,2.77-1.09-.61-.63-1.1-1.38-1.47-2.24l.71-.22h-1.03v-.94h4.48l.19-.04,.67,.27Zm-3.75-3.38c0,1-.29,2.23-1.52,3.03-.12-.21-.5-.59-.68-.74,1.08-.67,1.24-1.56,1.24-2.31v-1.1h3.72v2.52c0,.26,.02,.3,.19,.3h.47c.19,0,.23-.15,.25-1.21,.2,.17,.58,.31,.85,.37-.08,1.33-.32,1.68-.99,1.68h-.75c-.79,0-1.01-.24-1.01-1.13v-1.58h-1.77v.18Zm-.31,4.08c.32,.7,.77,1.32,1.33,1.85,.58-.51,1.06-1.12,1.39-1.85h-2.72Z"/>
      <path d="M810.02,82.47c-.96,.32-1.98,.62-2.79,.87l-.41-.9c.8-.17,1.97-.47,3.1-.77l.1,.8Zm1.01,5.73c-.89,.54-2.27,1.07-3.37,1.36-.18-.2-.54-.58-.77-.76,1.13-.22,2.44-.61,3.2-1.03l.94,.43Zm-1.4-6.96c-.52-.28-1.53-.67-2.3-.9l.45-.69c.75,.19,1.77,.55,2.3,.81l-.45,.78Zm2.08-.3c-.26,.33-.57,.64-.93,.91-.19-.18-.53-.4-.77-.49,.81-.55,1.35-1.29,1.63-1.93l.92,.14c-.1,.21-.21,.42-.34,.63h3.53l.15-.03,.68,.18c-.29,.57-.69,1.21-1.07,1.6l-.8-.25c.19-.2,.37-.47,.55-.75h-1.52c.24,.79,.86,1.5,3.09,1.79-.19,.2-.43,.58-.52,.84-.31-.05-.59-.12-.85-.19v4.37h-7.17v-4.42h2.21c-.1-.22-.3-.52-.45-.67,1.77-.29,2.4-.81,2.65-1.72h-1Zm2.74,3.04h-5.16v.62h5.16v-.62Zm0,1.23h-5.16v.63h5.16v-.63Zm0,1.25h-5.16v.64h5.16v-.64Zm.85-3.14c-1.1-.34-1.67-.86-2.01-1.44-.42,.67-1.14,1.13-2.45,1.44h4.47Zm-1.86,4.47c1.18,.4,2.5,.9,3.29,1.28l-1.18,.48c-.65-.35-1.8-.85-2.95-1.24l.84-.52Z"/>
      <path d="M828.19,84.02c-.64,.51-1.45,1.05-2.15,1.43,.65,1.07,1.53,1.9,2.65,2.37-.24,.21-.56,.61-.71,.89-2.02-.98-3.21-3.04-3.87-5.61h-.02c-.3,.25-.65,.5-1.01,.7,2.08,1.82,2.04,4.58,.97,5.35-.38,.31-.7,.41-1.23,.41-.28,0-.61-.01-.95-.03-.02-.28-.11-.68-.29-.98,.4,.04,.76,.06,1.02,.06,.29,0,.52-.02,.73-.22,.33-.24,.5-.9,.36-1.68-1.2,.94-2.93,1.85-4.38,2.33-.13-.24-.34-.63-.54-.85,1.62-.42,3.55-1.39,4.64-2.37-.09-.19-.19-.37-.3-.56-.94,.65-2.34,1.35-3.44,1.75-.11-.24-.33-.58-.52-.79,1.13-.3,2.65-.96,3.49-1.57-.12-.13-.25-.26-.41-.39-.85,.41-1.78,.74-2.65,.98-.1-.19-.37-.62-.54-.79,1.25-.29,2.61-.75,3.61-1.34h-2.02v-.88h6.02v.88h-1.62c.15,.55,.35,1.09,.58,1.58,.63-.41,1.32-.92,1.77-1.34l.8,.68Zm-8.05-1.38h-1.01v-2.29h4v-.92h1.06v.92h4.07v2.29h-1.03v-1.35h-7.08v1.35Z"/>
      <path d="M833.78,80.57h2.51c1.66,0,2.86,.53,2.86,1.99,0,.77-.43,1.51-1.15,1.75v.06c.92,.2,1.59,.82,1.59,1.93,0,1.61-1.31,2.38-3.1,2.38h-2.71v-8.1Zm2.37,3.38c1.23,0,1.75-.46,1.75-1.22,0-.85-.57-1.17-1.72-1.17h-1.12v2.39h1.09Zm.2,3.72c1.26,0,1.99-.45,1.99-1.44,0-.91-.7-1.31-1.99-1.31h-1.29v2.75h1.29Z"/>
    </g>
    <g>
      <path d="M494.91,267.18l.75-.88c.58,.58,1.38,.96,2.16,.96,.98,0,1.53-.46,1.53-1.14,0-.74-.55-.97-1.3-1.3l-1.12-.48c-.78-.33-1.65-.95-1.65-2.12,0-1.28,1.12-2.23,2.66-2.23,.95,0,1.84,.4,2.45,1.02l-.67,.81c-.51-.45-1.07-.73-1.78-.73-.83,0-1.36,.4-1.36,1.05,0,.69,.65,.96,1.31,1.22l1.11,.47c.96,.41,1.65,1,1.65,2.19,0,1.3-1.08,2.35-2.85,2.35-1.11,0-2.15-.44-2.88-1.19Z"/>
      <path d="M504.84,261.2h-2.38v-1.07h6.04v1.07h-2.39v7.03h-1.28v-7.03Z"/>
      <path d="M519.71,263.76v1.45h2.49v.95h-2.49v1.51c0,.37,.05,.43,.41,.43h1.07c.32,0,.37-.22,.42-1.31,.23,.17,.64,.34,.91,.4-.09,1.42-.37,1.83-1.23,1.83h-1.34c-1.03,0-1.29-.3-1.29-1.34v-1.51h-1.75c-.21,1.17-.9,2.27-2.98,2.98-.12-.23-.44-.63-.65-.8,1.69-.56,2.34-1.35,2.57-2.18h-2.33v-.95h2.45v-1.45h-1.07v-.4c-.5,.36-1.02,.68-1.56,.92-.12-.23-.42-.59-.62-.77,.72-.3,1.42-.75,2.05-1.3-.31-.33-.81-.75-1.21-1.06l.64-.54c.4,.26,.89,.65,1.21,.96,.34-.38,.64-.81,.88-1.25h-2.51v-.89h3l.19-.03,.67,.32c-.43,1.23-1.17,2.26-2.05,3.07h4.61c-.96-.95-1.72-2.16-2.23-3.51l.9-.26c.18,.45,.38,.88,.64,1.3,.43-.37,.89-.83,1.18-1.18l.77,.54c-.47,.45-1.03,.94-1.51,1.29,.19,.25,.4,.5,.61,.73,.51-.4,1.07-.91,1.42-1.31l.76,.53c-.48,.46-1.09,.95-1.61,1.32,.57,.48,1.21,.88,1.9,1.16-.23,.2-.55,.6-.7,.88-.53-.24-1.02-.54-1.47-.9v.4h-1.14Zm-1.06,0h-1.67v1.45h1.67v-1.45Z"/>
      <path d="M528.62,261.7c-.34,.56-.75,1.13-1.2,1.68v5.73h-1.02v-4.6c-.36,.36-.74,.7-1.09,.99-.13-.22-.5-.67-.7-.87,1.12-.8,2.31-2.06,3.05-3.3l.97,.36Zm-.42-2.31c-.75,.98-1.89,2.07-2.9,2.78-.12-.23-.4-.63-.58-.83,.91-.59,1.97-1.57,2.51-2.37l.98,.41Zm6.6,4.22h-1.58v4.24c0,.58-.13,.88-.55,1.04-.41,.15-1.06,.17-2.08,.17-.04-.3-.19-.73-.33-1.02,.7,.02,1.44,.02,1.64,.01,.21,0,.28-.06,.28-.21v-4.22h-3.48v-.98h6.11v.98Zm-.31-3h-5.34v-.98h5.34v.98Z"/>
      <path d="M540.24,263.66l-.64,.98c-.58-.42-1.75-1.17-2.45-1.54l.63-.95c.69,.37,1.95,1.14,2.46,1.51Zm1.11,2.58c1.84-1.04,3.32-2.52,4.21-4.08l.66,1.17c-.98,1.5-2.51,2.9-4.29,3.94-1.11,.65-2.65,1.18-3.65,1.36l-.65-1.13c1.22-.21,2.56-.62,3.72-1.25Zm.54-5.02l-.65,.95c-.56-.41-1.74-1.19-2.42-1.57l.63-.95c.68,.39,1.92,1.2,2.44,1.57Z"/>
      <path d="M555.69,260.82c-.08,.11-.24,.39-.32,.57-.39,.9-1.03,2.15-1.8,3.14,1.13,.97,2.46,2.39,3.15,3.22l-.98,.86c-.72-.99-1.82-2.2-2.91-3.21-1.18,1.25-2.65,2.43-4.24,3.16l-.89-.92c1.78-.68,3.43-2,4.52-3.22,.75-.84,1.49-2.05,1.75-2.9h-4.04c-.43,0-1.02,.06-1.2,.07v-1.24c.22,.03,.86,.08,1.2,.08h4.08c.41,0,.77-.04,.96-.11l.71,.53Z"/>
      <path d="M566.67,262.8c.23,0,.65-.02,.92-.06v1.13c-.25-.02-.64-.03-.92-.03h-2.83c-.04,1.17-.26,2.13-.68,2.94-.4,.74-1.23,1.56-2.19,2.05l-1.01-.75c.81-.33,1.6-.96,2.04-1.64,.47-.74,.62-1.61,.66-2.6h-3.18c-.33,0-.69,.01-1,.03v-1.13c.31,.03,.66,.06,1,.06h7.2Zm-5.82-1.75c-.36,0-.77,.01-1.08,.03v-1.13c.33,.04,.71,.08,1.08,.08h4.43c.34,0,.75-.02,1.1-.08v1.13c-.35-.02-.76-.03-1.1-.03h-4.43Z"/>
      <path d="M577.18,268.65c-.14-.39-.34-.87-.57-1.38-1.75,.21-5.27,.59-6.7,.73-.27,.03-.64,.09-.97,.13l-.2-1.28c.34,0,.77,0,1.1-.02,.13-.01,.29-.01,.45-.02,.62-1.57,1.66-4.85,1.97-5.97,.15-.53,.2-.83,.24-1.14l1.38,.29c-.12,.3-.26,.63-.42,1.11-.33,1.04-1.33,4.16-1.88,5.61,1.5-.13,3.36-.34,4.53-.5-.42-.84-.87-1.64-1.25-2.15l1.07-.46c.77,1.16,1.95,3.34,2.42,4.52l-1.17,.53Z"/>
    </g>
    <ellipse class="cls-2" cx="121.16" cy="299.61" rx="123.73" ry="65.62" transform="translate(-68.23 37.74) rotate(-13.86)"/>
    <g id="_レイヤー_2" data-name="レイヤー 2">
      <g id="_レイヤー_3" data-name="レイヤー 3">
        <path class="cls-1" d="M166.55,292.42v-13c0-.06,.05-.11,.11-.11h2.1c.06,0,.11,.05,.11,.11h0v13c0,.06-.05,.11-.11,.11h-2.1c-.06,0-.11-.05-.11-.11"/>
        <path class="cls-1" d="M159.83,292.42v-5.22c0-.06-.05-.11-.11-.11h-5.77c-.06,0-.11,.05-.11,.11v5.22c0,.06-.05,.11-.11,.11h-2.1c-.06,0-.11-.05-.11-.11v-13c0-.06,.05-.11,.11-.11h2.1c.06,0,.11,.05,.11,.11v5.21c0,.06,.05,.11,.11,.11h5.8c.06,0,.11-.05,.11-.11v-5.21s.01-.09,.05-.11h2.1c.06,0,.11,.05,.11,.11v13c0,.06-.05,.11-.11,.11h-2.1c-.06,0-.1-.05-.1-.1,0,0,0,0,0,0"/>
        <path class="cls-1" d="M86.3,288.16c-.42,2.67-3.06,4.67-6.21,4.67-3.74-.08-6.71-3.17-6.64-6.92-.07-3.74,2.9-6.84,6.64-6.92,1.74-.05,3.42,.62,4.65,1.85,.78,.77,1.32,1.75,1.56,2.81,0,.1-.03,.14-.1,.14h-2.28c-.1,0-.09-.05-.11-.11-.17-.5-.45-.96-.82-1.35-.77-.77-1.83-1.18-2.92-1.13-1.16,0-2.28,.49-3.05,1.37-.79,.93-1.22,2.12-1.19,3.34-.03,1.22,.4,2.41,1.19,3.33,.78,.87,1.88,1.37,3.05,1.37h.05c.85,.01,1.68-.24,2.39-.71,.64-.43,1.11-1.06,1.35-1.79,0-.07,.06-.12,.13-.11h2.14c.08,0,.17,0,.16,.13"/>
        <path class="cls-1" d="M141.43,292.84c-3.74-.08-6.71-3.18-6.64-6.92-.07-3.74,2.9-6.84,6.64-6.92,1.74-.05,3.42,.62,4.65,1.85,.82,.81,1.37,1.85,1.58,2.98h-2.47c-.16-.55-.45-1.05-.84-1.46-.76-.78-1.82-1.21-2.92-1.16-1.17,0-2.28,.49-3.05,1.37-.79,.93-1.22,2.12-1.19,3.34-.03,1.22,.4,2.41,1.19,3.33,.78,.87,1.88,1.37,3.05,1.37h.05c.85,.01,1.68-.24,2.39-.71,.67-.45,1.16-1.11,1.38-1.88h2.39c-.36,2.74-3.04,4.81-6.23,4.81"/>
        <path class="cls-1" d="M96.5,292.84c-3.82,0-6.92-3.1-6.91-6.92,0-1.83,.73-3.59,2.02-4.89,2.7-2.7,7.08-2.7,9.78,0,2.7,2.7,2.7,7.08,0,9.78h0c-1.3,1.3-3.06,2.03-4.9,2.03m0-11.62c-2.6,0-4.7,2.11-4.69,4.7,0,2.6,2.11,4.7,4.7,4.69,2.59,0,4.69-2.11,4.69-4.7,0-2.6-2.11-4.7-4.7-4.7"/>
        <path class="cls-1" d="M126.05,292.84c-1.47,.02-2.88-.57-3.88-1.64-1.03-1.16-1.58-2.66-1.54-4.21v-7.57c0-.06,.05-.1,.1-.1,0,0,0,0,0,0h2.1c.06,0,.1,.04,.11,.1,0,0,0,0,0,0v7.51c-.04,.97,.24,1.92,.82,2.7,.42,.52,1.02,.88,1.69,.98,1.06,.14,2.12-.23,2.86-1.01,.59-.77,.9-1.72,.86-2.69v-7.5c0-.06,.05-.1,.1-.1h2.11c.06,0,.1,.05,.1,.1v7.6c0,3.27-2.39,5.83-5.43,5.83"/>
        <path class="cls-1" d="M109.05,290.33l5.46-6.56s.03-.11-.02-.15c-.02-.01-.04-.02-.06-.02h-2.49s-.06,.02-.08,.04l-5.85,6.93s-.05,.09-.05,.14v1.71c0,.06,.05,.11,.11,.11h10.61c.06,0,.1-.05,.1-.11v-1.79c0-.05-.05-.1-.1-.1h-7.56c-.06,0-.1-.04-.11-.1,0-.03,0-.06,.03-.08"/>
        <rect class="cls-1" x="105.96" y="279.31" width="10.83" height="2" rx=".11" ry=".11"/>
      </g>
    </g>
    <g>
      <path class="cls-1" d="M49.9,307.25c-.23,.37-.46,.76-.73,1.13v7.16h-1.11v-5.78c-1.06,1.18-2.33,2.22-3.75,2.97-.17-.27-.48-.69-.7-.91,2.09-1.02,3.89-2.78,4.95-4.58h-4.64v-1.05h9.42v1.05h-3.43Zm.09,1.67c1.23,.82,2.9,2.07,3.71,2.92l-.86,.79c-.74-.85-2.37-2.16-3.62-3.05l.77-.66Z"/>
      <path class="cls-1" d="M65.4,307.96s-.01,.35-.01,.47c-.12,4.54-.22,6.11-.57,6.58-.21,.33-.44,.42-.78,.47-.33,.04-.84,.04-1.35,.01-.02-.27-.13-.69-.29-.97,.51,.04,.96,.04,1.16,.04,.19,0,.29-.03,.4-.18,.24-.31,.35-1.71,.44-5.49h-1.3c-.14,2.93-.64,5.26-2.53,6.71-.15-.23-.5-.59-.74-.76,.07-.04,.13-.1,.2-.15-1.58,.19-3.17,.35-4.35,.46l-.13-.87c.64-.04,1.43-.11,2.3-.19v-.84h-2v-.75h2v-.56h-1.97v-3.31h1.97v-.57h-2.27v-.76h2.27v-.62c-.67,.06-1.34,.09-1.96,.11-.03-.21-.14-.54-.24-.74,1.63-.09,3.58-.29,4.72-.54l.48,.77c-.58,.12-1.31,.23-2.07,.31v.7h2.22v.64h1.16c.01-.75,.01-1.53,.01-2.35h.98c0,.81-.01,1.61-.02,2.35h2.28Zm-8.69,2.04h1.13v-.67h-1.13v.67Zm1.13,1.3v-.67h-1.13v.67h1.13Zm.93,2.73c.68-.07,1.39-.13,2.08-.21,.9-1.24,1.18-2.9,1.27-4.91h-1.17v-.83h-2.18v.57h2.05v3.31h-2.05v.56h2.07v.75h-2.07v.75Zm1.18-4.03v-.67h-1.18v.67h1.18Zm-1.18,.63v.67h1.18v-.67h-1.18Z"/>
      <path class="cls-1" d="M77.34,308.61v.89h-8.08v.85c0,1.47-.19,3.71-1.18,5.18-.17-.18-.58-.54-.78-.65,.88-1.35,.98-3.23,.98-4.53v-1.74h2.06c-.09-.37-.29-.88-.5-1.28l.4-.1h-2.09v-.89h3.79v-.9h1.02v.9h3.83v.89h-1.56l.14,.03c-.28,.47-.55,.97-.78,1.34h2.75Zm-3.5,5.85h3.44v.87h-7.75v-.87h3.3v-1.21h-2.4v-.79h2.4v-1.01h-1.88c-.23,.37-.5,.7-.75,.97-.19-.14-.58-.39-.81-.5,.61-.54,1.11-1.38,1.4-2.21l.91,.21c-.09,.24-.19,.48-.3,.71h1.43v-.9h1v.9h2.82v.81h-2.82v1.01h2.52v.79h-2.52v1.21Zm-2.99-7.23c.23,.41,.44,.91,.51,1.27l-.4,.11h2.96l-.28-.09c.17-.36,.37-.87,.51-1.29h-3.3Z"/>
      <path class="cls-1" d="M88.14,307.82c-.11,.18-.23,.45-.31,.67-.3,1.06-.95,2.53-1.94,3.74-1.01,1.24-2.34,2.25-4.4,3.05l-1.02-.91c2.12-.64,3.43-1.62,4.41-2.75,.81-.94,1.47-2.32,1.67-3.25h-3.43c-.7,.95-1.64,1.91-2.79,2.68l-.97-.72c1.91-1.14,2.94-2.67,3.45-3.64,.13-.22,.32-.67,.41-.99l1.28,.42c-.22,.33-.45,.76-.57,.98-.04,.09-.1,.19-.15,.27h2.64c.31,0,.62-.03,.83-.11l.9,.55Z"/>
      <path class="cls-1" d="M99.18,309.42c-.05,.12-.14,.29-.17,.37-.32,1.08-.8,2.19-1.62,3.09-1.13,1.25-2.53,1.95-3.94,2.34l-.86-.99c1.6-.33,2.95-1.04,3.85-1.98,.63-.65,1.02-1.47,1.22-2.2h-5.6c-.26,0-.75,.01-1.17,.04v-1.14c.43,.04,.85,.08,1.17,.08h5.63c.3,0,.56-.04,.7-.1l.77,.48Zm-7.27-3.03c.3,.03,.69,.06,1.04,.06h4.29c.35,0,.8-.02,1.08-.06v1.13c-.27-.02-.71-.03-1.09-.03h-4.28c-.34,0-.74,.01-1.04,.03v-1.13Z"/>
      <path class="cls-1" d="M110.49,308.02c-.08,.19-.15,.54-.19,.75-.17,.96-.47,2.2-1.06,3.22-.85,1.53-2.43,2.66-4.41,3.2l-.9-1.04c.42-.07,.92-.21,1.32-.36,1.01-.34,2.11-1.09,2.77-2.07,.57-.88,.89-2.08,1.01-3.04h-5.85v1.8c0,.22,.01,.54,.04,.73h-1.2c.02-.23,.04-.55,.04-.79v-1.93c0-.24-.01-.64-.04-.89,.34,.03,.66,.06,1.07,.06h2.4v-.95c0-.26-.01-.52-.08-.91h1.33c-.04,.4-.07,.65-.07,.91v.95h2.22c.44,0,.66-.06,.83-.11l.76,.47Z"/>
      <path class="cls-1" d="M115.44,309.19c1.45,.43,3.56,1.22,4.65,1.76l-.48,1.19c-1.17-.62-2.96-1.31-4.17-1.71v3.4c.01,.34,.04,1,.09,1.41h-1.34c.06-.39,.09-.99,.09-1.41v-6.36c0-.35-.03-.87-.1-1.23h1.35c-.03,.36-.09,.84-.09,1.23v1.72Zm3.15-.53c-.29-.63-.59-1.16-.97-1.68l.74-.32c.3,.43,.76,1.14,1,1.66l-.77,.34Zm1.43-.58c-.32-.63-.63-1.13-1.01-1.65l.74-.34c.3,.41,.77,1.12,1.02,1.63l-.75,.36Z"/>
      <path class="cls-1" d="M131.81,307.37c-.09,.18-.14,.42-.2,.64-.24,1.12-.75,2.87-1.64,4.04-1,1.3-2.38,2.35-4.38,2.98l-.94-1.03c2.15-.53,3.39-1.46,4.29-2.62,.76-.96,1.23-2.37,1.38-3.38h-5.4c-.47,0-.91,.02-1.19,.04v-1.23c.31,.04,.83,.09,1.19,.09h5.33c.19,0,.46-.01,.7-.08l.85,.55Z"/>
      <path class="cls-1" d="M142.62,309.15c-.09,.1-.21,.26-.28,.36-.34,.56-1.31,1.94-2.21,2.59l-.89-.6c.71-.46,1.47-1.34,1.76-1.85h-5.04c-.35-.01-.71,.01-1.09,.04v-1.13c.33,.04,.74,.09,1.09,.09h5.29c.2,0,.57-.03,.73-.07l.64,.57Zm-3.73,1.14c-.04,2.22-.17,4-2.61,5.35l-.95-.76c.26-.1,.53-.22,.83-.42,1.38-.92,1.59-2.04,1.59-3.45,0-.24-.03-.48-.08-.72h1.21Z"/>
      <path class="cls-1" d="M148.86,312.31c1.77-1.09,3.15-2.74,3.82-4.15l.67,1.2c-.79,1.42-2.14,2.93-3.86,3.98-1.11,.68-2.51,1.33-4.21,1.64l-.74-1.13c1.84-.28,3.27-.89,4.32-1.54Zm-.37-3.52l-.87,.89c-.57-.58-1.94-1.77-2.75-2.33l.8-.86c.78,.52,2.2,1.66,2.82,2.3Z"/>
      <path class="cls-1" d="M163.93,309.37c.23,0,.65-.01,.92-.05v1.13c-.25-.01-.64-.02-.92-.02h-2.83c-.04,1.17-.26,2.13-.68,2.93-.4,.75-1.23,1.56-2.18,2.06l-1.02-.75c.81-.33,1.61-.97,2.04-1.64,.47-.74,.63-1.62,.66-2.6h-3.18c-.33,0-.69,.01-1,.03v-1.14c.32,.03,.66,.05,1,.05h7.2Zm-5.82-1.75c-.37,0-.78,.02-1.08,.04v-1.13c.33,.04,.72,.07,1.07,.07h3.72c.34,0,.76-.02,1.1-.07v1.13c-.35-.02-.75-.04-1.1-.04h-3.71Zm5.58-.11c-.22-.44-.57-1.1-.87-1.52l.7-.3c.28,.4,.67,1.08,.89,1.51l-.73,.31Zm1.08-2.28c.3,.41,.71,1.09,.91,1.5l-.71,.31c-.23-.47-.59-1.1-.9-1.51l.7-.3Z"/>
      <path class="cls-1" d="M174.6,308.75c-.52,.57-1.5,1.35-2.49,1.99v3.8c0,.35,.01,.87,.05,1.06h-1.28c.02-.19,.06-.7,.06-1.06v-3.12c-.95,.48-2.23,1.02-3.31,1.31l-.58-1.01c1.41-.3,2.95-.97,3.85-1.5,1.1-.64,2.28-1.56,2.83-2.27l.87,.8Z"/>
      <path class="cls-1" d="M181.49,312.31c1.77-1.09,3.15-2.74,3.82-4.15l.67,1.2c-.79,1.42-2.14,2.93-3.86,3.98-1.11,.68-2.51,1.33-4.21,1.64l-.74-1.13c1.84-.28,3.27-.89,4.32-1.54Zm-.37-3.52l-.87,.89c-.57-.58-1.94-1.77-2.75-2.33l.8-.86c.78,.52,2.2,1.66,2.82,2.3Z"/>
      <path class="cls-1" d="M194.91,307.65c.31,0,.62-.03,.82-.11l.9,.55c-.11,.18-.23,.45-.31,.67-.3,1.06-.95,2.53-1.94,3.74-1.01,1.24-2.34,2.26-4.4,3.04l-1.02-.91c2.12-.63,3.43-1.61,4.41-2.74,.81-.95,1.47-2.32,1.67-3.25h-3.44c-.69,.95-1.64,1.91-2.78,2.68l-.97-.71c1.91-1.16,2.94-2.67,3.46-3.64,.13-.23,.32-.67,.41-.99l1.28,.42c-.22,.33-.45,.75-.57,.97-.06,.1-.1,.19-.17,.29h2.65Zm.88-1.85c.27,.4,.67,1.08,.89,1.51l-.73,.31c-.22-.44-.57-1.1-.87-1.52l.7-.3Zm1.24-.47c.3,.41,.71,1.1,.91,1.5l-.71,.32c-.23-.47-.59-1.1-.9-1.52l.7-.3Z"/>
    </g>
    <polyline class="cls-6" points="648.97 11.26 653.25 14.98 649.53 19.25"/>
    <polyline class="cls-6" points="378.71 214.88 380.69 209.58 386 211.56"/>
    <polyline class="cls-6" points="444.89 313.22 450.43 314.41 449.23 319.95"/>
    <polyline class="cls-6" points="120.92 222.46 115.31 223.2 114.56 217.58"/>
  </g>
</svg>