<?xml version="1.0" encoding="utf-8"?>
<!-- Generator: Adobe Illustrator 28.1.0, SVG Export Plug-In . SVG Version: 6.00 Build 0)  -->
<svg version="1.1" id="レイヤー_1" xmlns="http://www.w3.org/2000/svg" xmlns:xlink="http://www.w3.org/1999/xlink" x="0px"
	 y="0px" viewBox="0 0 906.6 358.8" style="enable-background:new 0 0 906.6 358.8;" xml:space="preserve">
<style type="text/css">
	.st0{fill:none;stroke:#323230;stroke-miterlimit:10;}
	.st1{fill:none;stroke:#CECECA;stroke-miterlimit:10;}
	.st2{fill:#ABABA4;}
	.st3{fill:#323230;}
	.st4{clip-path:url(#SVGID_00000137111846783320119030000016130992365921874333_);}
	.st5{fill:#FFFFFF;stroke:#CECECA;stroke-miterlimit:10;}
</style>
<g id="design">
	<line class="st0" x1="60.9" y1="316.6" x2="906.6" y2="316.6"/>
	<line class="st1" x1="60.9" y1="262.1" x2="906.6" y2="262.1"/>
	<line class="st1" x1="60.9" y1="207.5" x2="906.6" y2="207.5"/>
	<line class="st1" x1="60.9" y1="153" x2="906.6" y2="153"/>
	<line class="st1" x1="60.9" y1="98.4" x2="906.6" y2="98.4"/>
	<line class="st1" x1="60.9" y1="43.9" x2="906.6" y2="43.9"/>
	<g>
		<path d="M63.3,353.5l-0.5-0.7l1-4.6c0.1-0.4,0.1-0.7,0-1c-0.1-0.2-0.2-0.5-0.3-0.7c-0.2-0.2-0.4-0.4-0.7-0.5
			c-0.3-0.1-0.5-0.2-0.8-0.1c-0.3,0-0.5,0.1-0.8,0.3c-0.3,0.2-0.4,0.4-0.6,0.7c-0.1,0.3-0.2,0.5-0.1,0.8c0,0.3,0.1,0.5,0.3,0.8
			l-0.8,0.6c-0.3-0.4-0.5-0.8-0.5-1.3c0-0.4,0-0.9,0.2-1.3c0.2-0.4,0.5-0.8,0.9-1.1c0.4-0.3,0.8-0.5,1.3-0.5c0.4,0,0.9,0,1.3,0.2
			c0.4,0.2,0.8,0.5,1,0.9c0.2,0.3,0.3,0.5,0.4,0.8c0.1,0.3,0.1,0.5,0.1,0.8c0,0.3-0.1,0.6-0.1,1l-0.8,3.8l-0.3-0.2l3.4-2.5l0.5,0.8
			C67.5,350.5,63.3,353.5,63.3,353.5z"/>
		<path d="M71.6,347.7c-0.4,0.3-0.9,0.5-1.3,0.5c-0.5,0-0.9,0-1.3-0.2s-0.8-0.5-1.1-0.9l-1.7-2.3c-0.3-0.4-0.5-0.9-0.5-1.3
			c0-0.5,0-0.9,0.2-1.3c0.2-0.4,0.5-0.8,0.9-1.1c0.4-0.3,0.9-0.5,1.3-0.5c0.5-0.1,0.9,0,1.3,0.2s0.8,0.5,1.1,0.9l1.7,2.3
			c0.3,0.4,0.5,0.9,0.5,1.3c0,0.5,0,0.9-0.2,1.3C72.3,347.1,72,347.4,71.6,347.7z M71,347c0.3-0.2,0.4-0.4,0.6-0.7
			c0.1-0.3,0.2-0.6,0.1-0.8c0-0.3-0.1-0.6-0.3-0.8l-1.8-2.4c-0.2-0.3-0.4-0.4-0.7-0.6s-0.6-0.2-0.8-0.1s-0.6,0.1-0.8,0.3
			c-0.2,0.2-0.4,0.4-0.6,0.7c-0.1,0.3-0.2,0.6-0.1,0.8c0,0.3,0.1,0.6,0.3,0.8l1.8,2.4c0.2,0.2,0.4,0.4,0.7,0.6
			c0.3,0.1,0.6,0.2,0.8,0.1C70.5,347.3,70.8,347.2,71,347z"/>
		<path d="M76.7,343.8l-4-5.5l-0.7,1.6l-0.6-0.9l0.7-1.6l0.8-0.6l4.7,6.4C77.5,343.2,76.7,343.8,76.7,343.8z"/>
		<path d="M77.3,333.4c0.4-0.3,0.8-0.5,1.3-0.5c0.5,0,0.9,0,1.4,0.2c0.4,0.2,0.8,0.5,1.1,0.9l1.5,2.1c0.3,0.4,0.5,0.9,0.6,1.4
			c0.1,0.5,0,0.9-0.2,1.4c-0.2,0.4-0.5,0.8-1,1.1c-0.4,0.3-0.7,0.4-1.1,0.5c-0.4,0.1-0.8,0.1-1.2-0.1l0.2-1c0.3,0.1,0.5,0.1,0.8,0.1
			c0.3,0,0.5-0.1,0.8-0.3c0.3-0.2,0.5-0.5,0.6-0.8c0.1-0.3,0.2-0.6,0.1-0.9c0-0.3-0.1-0.6-0.3-0.8l-0.9-1.3l0.3,0.1
			c0,0.4-0.1,0.8-0.2,1.2c-0.2,0.4-0.4,0.7-0.8,0.9c-0.4,0.3-0.8,0.5-1.3,0.5c-0.5,0-0.9,0-1.3-0.2c-0.4-0.2-0.8-0.5-1.1-0.9
			c-0.3-0.4-0.5-0.8-0.5-1.3c0-0.5,0-0.9,0.2-1.4C76.6,334.1,76.9,333.7,77.3,333.4L77.3,333.4z M77.8,334.2
			c-0.3,0.2-0.4,0.4-0.6,0.7c-0.1,0.3-0.2,0.6-0.1,0.9c0,0.3,0.1,0.6,0.3,0.8c0.2,0.3,0.4,0.4,0.7,0.6c0.3,0.1,0.6,0.2,0.9,0.1
			c0.3,0,0.6-0.1,0.8-0.3c0.3-0.2,0.4-0.4,0.6-0.7c0.1-0.3,0.2-0.6,0.1-0.9c0-0.3-0.1-0.6-0.3-0.8c-0.2-0.3-0.4-0.4-0.7-0.6
			c-0.3-0.1-0.6-0.2-0.9-0.1S78.1,334,77.8,334.2z"/>
		<path d="M88.4,335.5c-0.4,0.3-0.9,0.5-1.3,0.5c-0.5,0-0.9,0-1.3-0.2c-0.4-0.2-0.8-0.5-1.1-0.9l-1.7-2.3c-0.3-0.4-0.5-0.9-0.5-1.3
			c0-0.5,0-0.9,0.2-1.3c0.2-0.4,0.5-0.8,0.9-1.1s0.9-0.5,1.3-0.5c0.5,0,0.9,0,1.3,0.2c0.4,0.2,0.8,0.5,1.1,0.9l1.7,2.3
			c0.3,0.4,0.5,0.9,0.5,1.3c0,0.5,0,0.9-0.2,1.3C89.1,334.8,88.8,335.2,88.4,335.5z M87.9,334.7c0.3-0.2,0.4-0.4,0.6-0.7
			c0.1-0.3,0.2-0.6,0.1-0.8c0-0.3-0.1-0.6-0.3-0.8l-1.8-2.4c-0.2-0.3-0.4-0.4-0.7-0.6c-0.3-0.1-0.6-0.2-0.8-0.1s-0.6,0.1-0.8,0.3
			c-0.2,0.2-0.4,0.4-0.6,0.7s-0.2,0.6-0.1,0.8c0,0.3,0.1,0.6,0.3,0.8l1.8,2.4c0.2,0.2,0.4,0.4,0.7,0.6c0.3,0.1,0.6,0.2,0.8,0.1
			C87.4,335,87.6,334.9,87.9,334.7L87.9,334.7z"/>
		<path d="M89.8,324.3c0.4-0.3,0.8-0.5,1.3-0.5c0.5,0,0.9,0,1.4,0.2c0.4,0.2,0.8,0.5,1.1,0.9l1.5,2.1c0.3,0.4,0.5,0.9,0.6,1.4
			c0.1,0.5,0,0.9-0.2,1.4c-0.2,0.4-0.5,0.8-1,1.1c-0.3,0.3-0.7,0.4-1.1,0.5c-0.4,0.1-0.8,0.1-1.2-0.1l0.2-1c0.3,0.1,0.5,0.1,0.8,0.1
			c0.3,0,0.5-0.1,0.8-0.3c0.3-0.2,0.5-0.5,0.6-0.8c0.1-0.3,0.2-0.6,0.1-0.9c0-0.3-0.1-0.6-0.3-0.8l-0.9-1.3l0.3,0.1
			c0,0.4-0.1,0.8-0.2,1.2s-0.4,0.7-0.8,0.9c-0.4,0.3-0.8,0.5-1.3,0.5c-0.5,0-0.9,0-1.3-0.2c-0.4-0.2-0.8-0.5-1.1-0.9
			c-0.3-0.4-0.5-0.8-0.5-1.3c0-0.5,0-0.9,0.2-1.4C89.1,325,89.4,324.6,89.8,324.3L89.8,324.3z M90.4,325.1c-0.3,0.2-0.4,0.4-0.6,0.7
			c-0.1,0.3-0.2,0.6-0.1,0.9c0,0.3,0.1,0.6,0.3,0.8c0.2,0.3,0.4,0.4,0.7,0.6c0.3,0.1,0.6,0.2,0.9,0.1c0.3,0,0.6-0.1,0.8-0.3
			c0.3-0.2,0.4-0.4,0.6-0.7s0.2-0.6,0.1-0.9c0-0.3-0.1-0.6-0.3-0.8c-0.2-0.3-0.4-0.4-0.7-0.6c-0.3-0.1-0.6-0.2-0.9-0.1
			C90.9,324.8,90.6,324.9,90.4,325.1z"/>
	</g>
	<path d="M45.4,321.3c-0.5,0-1-0.1-1.4-0.3c-0.4-0.2-0.7-0.6-1-1c-0.2-0.4-0.3-0.9-0.3-1.4v-2.9c0-0.5,0.1-1,0.3-1.4
		c0.2-0.4,0.5-0.7,1-1c0.4-0.2,0.9-0.3,1.4-0.3c0.5,0,1,0.1,1.4,0.3c0.4,0.2,0.7,0.5,1,1s0.3,0.9,0.3,1.4v2.9c0,0.5-0.1,1-0.3,1.4
		s-0.5,0.7-1,1C46.4,321.2,45.9,321.3,45.4,321.3z M45.4,320.4c0.3,0,0.6-0.1,0.8-0.2s0.5-0.4,0.6-0.6s0.2-0.5,0.2-0.8v-3
		c0-0.3-0.1-0.6-0.2-0.8s-0.4-0.5-0.6-0.6s-0.5-0.2-0.8-0.2c-0.3,0-0.6,0.1-0.8,0.2s-0.5,0.4-0.6,0.6s-0.2,0.5-0.2,0.8v3
		c0,0.3,0.1,0.6,0.2,0.8s0.4,0.5,0.6,0.6S45.1,320.4,45.4,320.4z"/>
	<g>
		<g>
			<path d="M619.7,9.4c-0.7,0.6-1.8,1.3-2.7,1.7c-0.2-0.2-0.5-0.5-0.8-0.7c0.9-0.4,1.9-0.9,2.5-1.4L619.7,9.4z M625.3,9.2
				c-0.2-0.2-0.4-0.3-0.6-0.5c-1,0-2,0.1-3,0.1v2.4h-1V8.8c-1.6,0-3,0.1-4.2,0.1l0-0.8c0.6,0,1.4,0,2.2,0c0.2-0.1,0.5-0.2,0.7-0.4
				c-0.6-0.4-1.4-0.9-2.1-1.3l0.7-0.6c0.2,0.1,0.5,0.2,0.7,0.4c0.4-0.3,0.7-0.6,1.1-0.9h-2.6V1.4h8.1v3.9h-4.2l0,0
				c-0.5,0.5-1.2,0.9-1.7,1.3c0.3,0.2,0.6,0.4,0.8,0.5c0.9-0.6,1.9-1.2,2.5-1.7l0.9,0.5c-1,0.7-2.2,1.4-3.4,2c1.1,0,2.3,0,3.4-0.1
				c-0.3-0.2-0.7-0.4-1-0.6l0.7-0.5c0.9,0.5,2.1,1.3,2.7,1.8L625.3,9.2L625.3,9.2z M618.2,3h2.5V2.2h-2.5V3z M618.2,4.5h2.5V3.7
				h-2.5V4.5z M624.3,2.2h-2.6V3h2.6V2.2z M624.3,3.7h-2.6v0.8h2.6V3.7z M623.3,8.9c0.9,0.4,2,1.1,2.7,1.5l-0.8,0.6
				c-0.6-0.5-1.7-1.1-2.6-1.6C622.6,9.5,623.3,8.9,623.3,8.9z"/>
			<path d="M632.4,3.7H628V2.9h4.4V3.7z M631.9,10.5h-2.5V11h-0.9V7.3h3.4V10.5z M628.5,4.4h3.5v0.8h-3.5V4.4z M628.5,5.8h3.5v0.8
				h-3.5V5.8z M632,2.2h-3.4V1.4h3.4V2.2z M629.4,8.1v1.6h1.6V8.1H629.4z M638.2,5.8h-2.4v5.4h-1V5.8h-2.5v-1h2.5V1.1h1v3.7h2.4V5.8
				z"/>
			<path d="M641.6,5.2c0,1.7-0.2,4.3-1.1,6c-0.2-0.2-0.6-0.5-0.9-0.6c0.9-1.6,1-3.8,1-5.4V2.4h4V1.1h1.1v1.3h4.1v1h-8.1
				C641.6,3.4,641.6,5.2,641.6,5.2z M641.5,9.7c0.5-0.8,0.8-2.1,0.9-3.3l0.9,0.2c-0.1,1.2-0.4,2.7-0.9,3.5L641.5,9.7L641.5,9.7z
				 M646.6,10c0.4,0,0.5-0.3,0.5-1.8c0.2,0.2,0.6,0.3,0.9,0.4c-0.1,1.8-0.4,2.3-1.3,2.3h-1.4c-1,0-1.3-0.3-1.3-1.4v-4h1v4
				c0,0.4,0.1,0.5,0.5,0.5H646.6z M646.6,6c-0.5-0.5-1.6-1.2-2.5-1.7l0.7-0.7c0.9,0.4,2,1.1,2.6,1.6L646.6,6z M648.4,6.2
				c0.7,1.1,1.4,2.6,1.6,3.6l-1,0.4c-0.2-1-0.8-2.5-1.5-3.6C647.5,6.5,648.4,6.2,648.4,6.2z"/>
			<path d="M659.6,7.5c0.7,0.5,1.6,0.9,2.5,1.1c-0.2,0.2-0.5,0.6-0.7,0.8c-0.5-0.2-1-0.4-1.5-0.7c-0.1,1.2-0.2,1.8-0.5,2
				c-0.2,0.2-0.4,0.3-0.7,0.3c-0.3,0-0.8,0-1.3,0c0-0.3-0.1-0.6-0.3-0.8c0.5,0,0.9,0.1,1.1,0.1c0.2,0,0.3,0,0.4-0.1
				c0.1-0.1,0.2-0.4,0.3-1h-2.2c-0.5,1-1.4,1.6-3.3,2c-0.1-0.2-0.3-0.6-0.5-0.8c1.5-0.3,2.3-0.6,2.7-1.2h-2V8.8
				c-0.4,0.2-0.8,0.4-1.3,0.6c-0.1-0.2-0.4-0.6-0.6-0.7c0.9-0.3,1.7-0.7,2.3-1.1h-2V6.7h2.8c0.1-0.2,0.3-0.3,0.4-0.5h-2v-3h7.3v3
				h-4.2c-0.1,0.2-0.2,0.4-0.3,0.5h5.7v0.8C661.7,7.5,659.6,7.5,659.6,7.5z M654.5,2.5h-2.4V1.7h2.4V1.1h1v0.7h2.6V1.1h1v0.7h2.4
				v0.8h-2.4V3h-1V2.5h-2.6V3h-1V2.5z M654.2,4.4h5.3V3.8h-5.3V4.4z M654.2,5.6h5.3V5h-5.3V5.6z M659.3,8.4c-0.4-0.3-0.7-0.6-1-0.9
				h-3.1c-0.3,0.3-0.7,0.6-1.1,0.9h1.7c0.1-0.2,0.1-0.5,0.2-0.7h1c0,0.2-0.1,0.5-0.1,0.7H659.3z"/>
			<path d="M668.9,9.9h4.2v0.9h-9.3V9.9h4V7.4h-3.5V6.6h3.5V5.2h-2.2V4.7c-0.5,0.4-1.1,0.8-1.7,1.1c-0.1-0.2-0.4-0.6-0.6-0.8
				c1.9-0.9,3.7-2.5,4.5-3.9h1c1.2,1.6,3,3,4.7,3.8c-0.2,0.3-0.5,0.6-0.7,0.9c-0.6-0.3-1.2-0.7-1.8-1.1v0.6h-2.2v1.3h3.6v0.9h-3.6
				V9.9L668.9,9.9z M665.9,7.6c0.4,0.6,0.9,1.4,1,1.9l-0.9,0.4c-0.1-0.5-0.5-1.4-1-2C665.1,7.9,665.9,7.6,665.9,7.6z M670.7,4.3
				c-1-0.7-1.8-1.5-2.4-2.3c-0.5,0.7-1.3,1.6-2.3,2.3H670.7z M669.6,9.5c0.4-0.5,0.8-1.4,1.1-2l1,0.4c-0.4,0.7-0.9,1.4-1.3,1.9
				C670.4,9.9,669.6,9.5,669.6,9.5z"/>
			<path d="M679.6,10.4c0.8-0.3,1.6-0.8,2-1.2l0.8,0.5c-0.6,0.6-1.5,1.1-2.3,1.4c-0.2-0.2-0.5-0.5-0.7-0.7h-2.4V11h-0.9V8
				c-0.1,0.1-0.3,0.1-0.4,0.2c-0.1-0.2-0.4-0.6-0.5-0.7c0.8-0.3,1.6-0.7,2.2-1.3c-0.3-0.2-0.6-0.5-0.9-0.6c-0.2,0.2-0.4,0.4-0.6,0.5
				c-0.1-0.2-0.5-0.5-0.7-0.6c0.8-0.6,1.6-1.4,2-2.4l0.8,0.2c-0.1,0.2-0.2,0.4-0.3,0.6h1.2l0.2,0l0.6,0.3c-0.3,0.7-0.6,1.4-1.1,2
				c0.6,0.5,1.2,0.9,1.6,1.2l-0.6,0.7l-0.2-0.1V10.4L679.6,10.4z M676.4,3.7h-0.8V2h1.8V1.1h1V2h1.8v1.7h-0.9V2.8h-2.9
				C676.4,2.8,676.4,3.7,676.4,3.7z M679.3,7.5c-0.3-0.3-0.7-0.6-1.1-0.9c-0.3,0.3-0.7,0.6-1.1,0.9H679.3z M678.7,8.3h-1.6v1.3h1.6
				V8.3z M677.4,4.5c-0.1,0.1-0.2,0.2-0.3,0.3c0.3,0.2,0.6,0.4,0.9,0.6c0.2-0.3,0.5-0.6,0.6-1H677.4z M682.1,3.3
				c0.1-0.3,0.1-0.6,0.2-0.9h-2V1.5h5.1v0.9h-2c-0.1,0.3-0.2,0.6-0.3,0.9h2.1V9h-4.4V3.3H682.1z M684.1,4.1h-2.6V5h2.6V4.1z
				 M684.1,5.7h-2.6v0.9h2.6C684.1,6.6,684.1,5.7,684.1,5.7z M684.1,7.3h-2.6v0.9h2.6V7.3z M683.9,9.2c0.6,0.4,1.4,1,1.8,1.4
				l-0.8,0.5c-0.4-0.4-1.2-1-1.8-1.5L683.9,9.2z"/>
			<path d="M696.5,0.8l0.8,0.4c-1.2,1.3-2,2.8-2,4.9s0.8,3.6,2,4.9l-0.8,0.4c-1.3-1.3-2.2-3-2.2-5.3S695.3,2.1,696.5,0.8z"/>
			<path d="M704.7,2.6c-0.1,0.5-0.3,1-0.4,1.5h3.6v7.1h-1.1v-0.7h-5.2v0.7h-1V4.1h2.7c0.1-0.4,0.2-1,0.3-1.5h-4.1v-1h9.5v1H704.7z
				 M706.9,5h-5.2v1.7h5.2V5z M706.9,9.5V7.7h-5.2v1.8H706.9z"/>
			<path d="M715.1,2.8c0,0.7,0,1.4-0.1,2h4.9c0,0,0,0.3,0,0.5c-0.2,3.5-0.4,4.8-0.8,5.2c-0.3,0.3-0.6,0.4-1,0.5c-0.4,0-1.2,0-1.9,0
				c0-0.3-0.2-0.7-0.4-1c0.8,0.1,1.6,0.1,1.9,0.1c0.3,0,0.4,0,0.5-0.1c0.3-0.3,0.5-1.4,0.6-4.1h-3.9c-0.3,2.1-1.1,4.1-3.2,5.3
				c-0.1-0.3-0.5-0.6-0.7-0.8c2.9-1.6,3.1-4.8,3.1-7.5h-2.8v-1h9.6v1C720.9,2.8,715.1,2.8,715.1,2.8z"/>
			<path d="M723.8,11.4l-0.8-0.4c1.2-1.3,2-2.8,2-4.9s-0.8-3.6-2-4.9l0.8-0.4c1.3,1.3,2.2,3,2.2,5.3S725,10.1,723.8,11.4z"/>
		</g>
		<rect x="595.8" y="0" class="st2" width="11" height="11"/>
		<g>
			<path d="M796.1,9.4c-0.7,0.6-1.8,1.3-2.7,1.7c-0.2-0.2-0.5-0.5-0.8-0.7c0.9-0.4,1.9-0.9,2.5-1.4L796.1,9.4z M801.7,9.2
				c-0.2-0.2-0.4-0.3-0.6-0.5c-1,0-2,0.1-3,0.1v2.4h-1V8.8c-1.6,0-3,0.1-4.2,0.1l0-0.8c0.6,0,1.4,0,2.2,0c0.2-0.1,0.5-0.2,0.7-0.4
				c-0.6-0.4-1.4-0.9-2.1-1.3l0.7-0.6c0.2,0.1,0.5,0.2,0.7,0.4c0.4-0.3,0.7-0.6,1.1-0.9h-2.6V1.4h8.1v3.9h-4.2l0,0
				c-0.5,0.5-1.2,0.9-1.7,1.3c0.3,0.2,0.6,0.4,0.8,0.5c0.9-0.6,1.9-1.2,2.5-1.7l0.9,0.5c-1,0.7-2.2,1.4-3.4,2c1.1,0,2.3,0,3.4-0.1
				c-0.3-0.2-0.7-0.4-1-0.6l0.7-0.5c0.9,0.5,2.1,1.3,2.7,1.8L801.7,9.2L801.7,9.2z M794.5,3h2.5V2.2h-2.5V3z M794.5,4.5h2.5V3.7
				h-2.5V4.5z M800.6,2.2H798V3h2.6V2.2z M800.6,3.7H798v0.8h2.6V3.7z M799.7,8.9c0.9,0.4,2,1.1,2.7,1.5l-0.8,0.6
				c-0.6-0.5-1.7-1.1-2.6-1.6C798.9,9.5,799.7,8.9,799.7,8.9z"/>
			<path d="M808.7,3.7h-4.4V2.9h4.4V3.7z M808.2,10.5h-2.5V11h-0.9V7.3h3.4V10.5z M804.8,4.4h3.5v0.8h-3.5V4.4z M804.8,5.8h3.5v0.8
				h-3.5V5.8z M808.3,2.2h-3.4V1.4h3.4V2.2z M805.7,8.1v1.6h1.6V8.1H805.7z M814.5,5.8h-2.4v5.4h-1V5.8h-2.5v-1h2.5V1.1h1v3.7h2.4
				V5.8z"/>
			<path d="M819.8,3.7h-3.6V2.9h3.6V3.7z M826,9.9c0,0.5-0.1,0.9-0.4,1c-0.3,0.2-0.9,0.2-1.7,0.2c0-0.3-0.2-0.7-0.3-1
				c0.5,0,1.1,0,1.2,0c0.2,0,0.2,0,0.2-0.2V2.4h-3.9v3.1c0,1.7-0.1,4.2-1,5.7c-0.2-0.2-0.6-0.5-0.8-0.6l0.1-0.1h-2V11h-0.8V7.3h2.8
				v3.2c0.7-1.5,0.8-3.5,0.8-5v-4h5.7C826,1.5,826,9.9,826,9.9z M819.5,5.2h-2.8V4.4h2.8V5.2z M816.7,5.8h2.8v0.8h-2.8V5.8z
				 M819.5,2.2h-2.7V1.4h2.7V2.2z M818.7,8.1h-1.2v1.6h1.2V8.1z M822.7,5.1V4.1h-1V3.4h1V2.5h0.8v0.8h1v0.8h-1v0.9h1.2v0.8h-3.1V5.1
				C821.6,5.1,822.7,5.1,822.7,5.1z M822.5,9.4v0.4h-0.7V6.5h2.8v2.8C824.5,9.4,822.5,9.4,822.5,9.4z M822.5,7.3v1.3h1.3V7.3
				C823.8,7.3,822.5,7.3,822.5,7.3z"/>
			<path d="M830.6,8.8c0.5,0.8,1.3,1.1,2.6,1.2c1.2,0.1,3.8,0,5.2-0.1c-0.1,0.2-0.3,0.7-0.3,1c-1.3,0.1-3.6,0.1-4.9,0
				c-1.4-0.1-2.3-0.4-3-1.3c-0.5,0.5-0.9,0.9-1.5,1.4l-0.5-1c0.4-0.3,1-0.7,1.4-1.1V6.3h-1.3V5.3h2.3V8.8L830.6,8.8z M830.1,3.7
				c-0.3-0.6-1-1.3-1.7-1.8l0.8-0.6c0.6,0.5,1.4,1.2,1.7,1.8C830.9,3.1,830.1,3.7,830.1,3.7z M832.8,4h-1.7V3.2h3V2.5h-2.3V1.8h2.3
				V1.1h1v0.7h2.4v0.7h-2.4v0.7h3.1V4h-1.8l0.4,0.1c-0.2,0.4-0.4,0.7-0.5,1h1.8v0.7h-3v0.6h2.5v0.7h-2.5v0.7h3v0.8h-3v0.9h-1V8.6
				h-2.9V7.9h2.9V7.2h-2.4V6.4h2.4V5.8h-2.8V5.1h1.6c-0.1-0.3-0.2-0.7-0.4-1C832.4,4.1,832.8,4,832.8,4z M835.4,5
				c0.1-0.3,0.3-0.7,0.4-1h-2.4c0.2,0.3,0.4,0.7,0.4,1l-0.4,0.1h2.3L835.4,5z"/>
			<path d="M845.8,9.9h4.2v0.9h-9.3V9.9h4V7.4h-3.5V6.6h3.5V5.2h-2.2V4.7c-0.5,0.4-1.1,0.8-1.7,1.1c-0.1-0.2-0.4-0.6-0.6-0.8
				c1.9-0.9,3.7-2.5,4.5-3.9h1c1.2,1.6,3,3,4.7,3.8c-0.2,0.3-0.5,0.6-0.7,0.9c-0.6-0.3-1.2-0.7-1.8-1.1v0.6h-2.2v1.3h3.6v0.9h-3.6
				V9.9L845.8,9.9z M842.8,7.6c0.4,0.6,0.9,1.4,1,1.9l-0.9,0.4c-0.1-0.5-0.6-1.4-1-2C842,7.9,842.8,7.6,842.8,7.6z M847.6,4.3
				c-1-0.7-1.8-1.5-2.4-2.3c-0.5,0.7-1.3,1.6-2.3,2.3H847.6z M846.5,9.5c0.4-0.5,0.8-1.4,1.1-2l1,0.4c-0.4,0.7-0.9,1.4-1.3,1.9
				C847.2,9.9,846.5,9.5,846.5,9.5z"/>
			<path d="M856.4,10.4c0.8-0.3,1.6-0.8,2-1.2l0.8,0.5c-0.6,0.6-1.5,1.1-2.3,1.4c-0.2-0.2-0.5-0.5-0.7-0.7h-2.4V11h-0.9V8
				c-0.1,0.1-0.3,0.1-0.4,0.2c-0.1-0.2-0.4-0.6-0.5-0.7c0.8-0.3,1.6-0.7,2.2-1.3c-0.3-0.2-0.6-0.5-0.9-0.6c-0.2,0.2-0.4,0.4-0.6,0.5
				c-0.1-0.2-0.5-0.5-0.7-0.6c0.8-0.6,1.6-1.4,2-2.4l0.8,0.2c-0.1,0.2-0.2,0.4-0.3,0.6h1.2l0.2,0l0.6,0.3c-0.3,0.7-0.6,1.4-1.1,2
				c0.6,0.5,1.2,0.9,1.6,1.2l-0.6,0.7l-0.2-0.1V10.4L856.4,10.4z M853.3,3.7h-0.8V2h1.8V1.1h1V2h1.8v1.7h-0.9V2.8h-2.9
				C853.3,2.8,853.3,3.7,853.3,3.7z M856.2,7.5c-0.3-0.3-0.7-0.6-1.1-0.9c-0.3,0.3-0.7,0.6-1.1,0.9H856.2z M855.5,8.3h-1.6v1.3h1.6
				V8.3z M854.3,4.5c-0.1,0.1-0.2,0.2-0.3,0.3c0.3,0.2,0.6,0.4,0.9,0.6c0.2-0.3,0.5-0.6,0.6-1H854.3z M858.9,3.3
				c0.1-0.3,0.1-0.6,0.2-0.9h-2V1.5h5.1v0.9h-2c-0.1,0.3-0.2,0.6-0.3,0.9h2.1V9h-4.4V3.3H858.9z M861,4.1h-2.6V5h2.6V4.1z M861,5.7
				h-2.6v0.9h2.6C861,6.6,861,5.7,861,5.7z M861,7.3h-2.6v0.9h2.6V7.3z M860.7,9.2c0.6,0.4,1.4,1,1.8,1.4l-0.8,0.5
				c-0.4-0.4-1.2-1-1.8-1.5L860.7,9.2z"/>
			<path d="M873.4,0.8l0.8,0.4c-1.2,1.3-2,2.8-2,4.9s0.8,3.6,2,4.9l-0.8,0.4c-1.3-1.3-2.2-3-2.2-5.3S872.1,2.1,873.4,0.8z"/>
			<path d="M881.6,2.6c-0.1,0.5-0.3,1-0.4,1.5h3.6v7.1h-1.1v-0.7h-5.2v0.7h-1V4.1h2.7c0.1-0.4,0.2-1,0.3-1.5h-4.1v-1h9.5v1H881.6z
				 M883.8,5h-5.2v1.7h5.2V5z M883.8,9.5V7.7h-5.2v1.8H883.8z"/>
			<path d="M892,2.8c0,0.7,0,1.4-0.1,2h4.9c0,0,0,0.3,0,0.5c-0.2,3.5-0.4,4.8-0.8,5.2c-0.3,0.3-0.6,0.4-1,0.5c-0.4,0-1.2,0-1.9,0
				c0-0.3-0.2-0.7-0.4-1c0.8,0.1,1.6,0.1,1.9,0.1c0.3,0,0.4,0,0.5-0.1c0.3-0.3,0.5-1.4,0.6-4.1h-3.9c-0.3,2.1-1.1,4.1-3.2,5.3
				c-0.1-0.3-0.5-0.6-0.7-0.8c2.9-1.6,3.1-4.8,3.1-7.5h-2.8v-1h9.6v1C897.7,2.8,892,2.8,892,2.8z"/>
			<path d="M900.7,11.4l-0.8-0.4c1.2-1.3,2-2.8,2-4.9s-0.8-3.6-2-4.9l0.8-0.4c1.3,1.3,2.2,3,2.2,5.3S901.9,10.1,900.7,11.4z"/>
		</g>
		<rect x="772.2" y="0" class="st3" width="11" height="11"/>
	</g>
	<g>
		<defs>
			<rect id="SVGID_1_" x="100" y="29.4" width="74.2" height="308"/>
		</defs>
		<clipPath id="SVGID_00000054252561711742685740000000284325240388399498_">
			<use xlink:href="#SVGID_1_"  style="overflow:visible;"/>
		</clipPath>
		<g style="clip-path:url(#SVGID_00000054252561711742685740000000284325240388399498_);">
			<path class="st5" d="M119.6,351.5h-6c0-12.7,5.7-19.3,10.7-25.1c4.8-5.5,9.3-10.8,9.3-21.3s-4.5-15.8-9.3-21.3
				c-5-5.8-10.7-12.4-10.7-25.1s5.7-19.3,10.7-25.1c4.8-5.5,9.3-10.8,9.3-21.3s-4.5-15.8-9.3-21.3c-5-5.8-10.7-12.4-10.7-25.1
				s5.7-19.3,10.7-25.1c4.8-5.5,9.3-10.8,9.3-21.3c0-10.5-4.5-15.8-9.3-21.3c-5-5.8-10.7-12.4-10.7-25.1s5.7-19.3,10.7-25.1
				c4.8-5.5,9.3-10.8,9.3-21.3h6c0,12.7-5.7,19.3-10.7,25.1c-4.8,5.5-9.3,10.8-9.3,21.3s4.5,15.8,9.3,21.3
				c5,5.8,10.7,12.4,10.7,25.1c0,12.7-5.7,19.3-10.7,25.1c-4.8,5.5-9.3,10.8-9.3,21.3s4.5,15.8,9.3,21.3c5,5.8,10.7,12.4,10.7,25.1
				s-5.7,19.3-10.7,25.1c-4.8,5.5-9.3,10.8-9.3,21.3c0,10.5,4.5,15.8,9.3,21.3c5,5.8,10.7,12.4,10.7,25.1c0,12.7-5.7,19.3-10.7,25.1
				C124.2,335.7,119.6,341,119.6,351.5z"/>
		</g>
	</g>
	<g>
		<path d="M181.1,353.3l-0.5-0.7l1-4.6c0.1-0.4,0.1-0.7,0-1c-0.1-0.2-0.2-0.5-0.3-0.7c-0.2-0.2-0.4-0.4-0.7-0.5
			c-0.3-0.1-0.5-0.2-0.8-0.1c-0.3,0-0.5,0.1-0.8,0.3c-0.3,0.2-0.4,0.4-0.5,0.7c-0.1,0.3-0.2,0.5-0.1,0.8c0,0.3,0.1,0.5,0.3,0.8
			l-0.8,0.6c-0.3-0.4-0.5-0.8-0.5-1.3c0-0.4,0-0.9,0.2-1.3c0.2-0.4,0.5-0.8,0.9-1.1c0.4-0.3,0.8-0.5,1.3-0.5c0.4,0,0.9,0,1.3,0.2
			c0.4,0.2,0.8,0.5,1,0.9c0.2,0.3,0.3,0.5,0.4,0.8s0.1,0.5,0.1,0.8c0,0.3-0.1,0.6-0.1,1l-0.8,3.8l-0.3-0.2l3.4-2.5l0.5,0.8
			L181.1,353.3z"/>
		<path d="M189.4,347.5c-0.4,0.3-0.9,0.5-1.3,0.5c-0.5,0-0.9,0-1.3-0.2c-0.4-0.2-0.8-0.5-1.1-0.9l-1.7-2.3c-0.3-0.4-0.5-0.9-0.5-1.3
			c0-0.5,0-0.9,0.2-1.3c0.2-0.4,0.5-0.8,0.9-1.1c0.4-0.3,0.9-0.5,1.3-0.5c0.5-0.1,0.9,0,1.3,0.2s0.8,0.5,1.1,0.9l1.7,2.3
			c0.3,0.4,0.5,0.9,0.5,1.3c0,0.5,0,0.9-0.2,1.3C190.1,346.8,189.8,347.2,189.4,347.5z M188.8,346.7c0.3-0.2,0.4-0.4,0.6-0.7
			s0.2-0.6,0.1-0.8c0-0.3-0.1-0.6-0.3-0.8l-1.8-2.4c-0.2-0.3-0.4-0.4-0.7-0.6s-0.6-0.2-0.8-0.1s-0.6,0.1-0.8,0.3
			c-0.2,0.2-0.4,0.4-0.6,0.7c-0.1,0.3-0.2,0.6-0.1,0.8c0,0.3,0.1,0.6,0.3,0.8l1.8,2.4c0.2,0.2,0.4,0.4,0.7,0.6
			c0.3,0.1,0.6,0.2,0.8,0.1C188.3,347,188.6,346.9,188.8,346.7z"/>
		<path d="M193.2,344.5l-0.5-0.7l1-4.6c0.1-0.4,0.1-0.7,0-1c-0.1-0.2-0.2-0.5-0.3-0.7c-0.2-0.2-0.4-0.4-0.7-0.5
			c-0.3-0.1-0.5-0.2-0.8-0.1c-0.3,0-0.5,0.1-0.8,0.3c-0.3,0.2-0.4,0.4-0.5,0.7c-0.1,0.3-0.2,0.5-0.1,0.8s0.1,0.5,0.3,0.8L190,340
			c-0.3-0.4-0.5-0.8-0.5-1.3c0-0.4,0-0.9,0.2-1.3c0.2-0.4,0.5-0.8,0.9-1.1c0.4-0.3,0.8-0.5,1.3-0.5c0.4,0,0.9,0,1.3,0.2
			c0.4,0.2,0.8,0.5,1,0.9c0.2,0.3,0.3,0.5,0.4,0.8c0.1,0.3,0.1,0.5,0.1,0.8c0,0.3-0.1,0.6-0.1,1l-0.8,3.8l-0.3-0.2l3.4-2.5l0.5,0.8
			L193.2,344.5z"/>
		<path d="M200.4,339.3l-4-5.5l-0.7,1.6l-0.6-0.9l0.7-1.6l0.8-0.6l4.7,6.4L200.4,339.3z"/>
		<path d="M205.8,335.5c-0.4,0.3-0.9,0.5-1.3,0.5c-0.5,0-0.9,0-1.3-0.2s-0.8-0.5-1.1-0.9l-1.7-2.3c-0.3-0.4-0.5-0.9-0.5-1.3
			c0-0.5,0-0.9,0.2-1.3c0.2-0.4,0.5-0.8,0.9-1.1s0.9-0.5,1.3-0.5c0.5-0.1,0.9,0,1.3,0.2c0.4,0.2,0.8,0.5,1.1,0.9l1.7,2.3
			c0.3,0.4,0.5,0.9,0.5,1.3c0,0.5,0,0.9-0.2,1.3C206.6,334.9,206.3,335.2,205.8,335.5z M205.3,334.8c0.3-0.2,0.4-0.4,0.6-0.7
			s0.2-0.6,0.1-0.8c0-0.3-0.1-0.6-0.3-0.8l-1.8-2.4c-0.2-0.3-0.4-0.4-0.7-0.6c-0.3-0.1-0.6-0.2-0.8-0.1s-0.6,0.1-0.8,0.3
			c-0.2,0.2-0.4,0.4-0.6,0.7s-0.2,0.6-0.1,0.8c0,0.3,0.1,0.6,0.3,0.8l1.8,2.4c0.2,0.2,0.4,0.4,0.7,0.6s0.6,0.2,0.8,0.1
			C204.8,335.1,205,335,205.3,334.8z"/>
		<path d="M207.2,324.3c0.4-0.3,0.8-0.5,1.3-0.5c0.5,0,0.9,0,1.4,0.2c0.4,0.2,0.8,0.5,1.1,0.9l1.5,2.1c0.3,0.4,0.5,0.9,0.6,1.4
			c0.1,0.5,0,0.9-0.2,1.4c-0.2,0.4-0.5,0.8-1,1.1c-0.3,0.3-0.7,0.4-1.1,0.5c-0.4,0.1-0.8,0.1-1.2-0.1l0.2-1c0.3,0.1,0.5,0.1,0.8,0.1
			c0.3,0,0.5-0.1,0.8-0.3c0.3-0.2,0.5-0.5,0.6-0.8c0.1-0.3,0.2-0.6,0.1-0.9c0-0.3-0.1-0.6-0.3-0.8l-0.9-1.3l0.3,0.1
			c0,0.4-0.1,0.8-0.2,1.2s-0.4,0.7-0.8,0.9c-0.4,0.3-0.8,0.5-1.3,0.5c-0.5,0-0.9,0-1.3-0.2c-0.4-0.2-0.8-0.5-1.1-0.9
			c-0.3-0.4-0.5-0.8-0.5-1.3c0-0.5,0-0.9,0.2-1.4C206.5,325,206.8,324.6,207.2,324.3z M207.8,325.1c-0.3,0.2-0.4,0.4-0.6,0.7
			c-0.1,0.3-0.2,0.6-0.1,0.9c0,0.3,0.1,0.6,0.3,0.8c0.2,0.3,0.4,0.4,0.7,0.6c0.3,0.1,0.6,0.2,0.9,0.1c0.3,0,0.6-0.1,0.8-0.3
			c0.3-0.2,0.4-0.4,0.6-0.7c0.1-0.3,0.2-0.6,0.1-0.9c0-0.3-0.1-0.6-0.3-0.8c-0.2-0.3-0.4-0.4-0.7-0.6c-0.3-0.1-0.6-0.2-0.9-0.1
			C208.3,324.8,208,324.9,207.8,325.1z"/>
	</g>
	<g>
		<path d="M324.9,354.1l-0.5-0.7l1-4.6c0.1-0.4,0.1-0.7,0-1c-0.1-0.2-0.2-0.5-0.3-0.7c-0.2-0.2-0.4-0.4-0.7-0.5
			c-0.3-0.1-0.5-0.2-0.8-0.1c-0.3,0-0.5,0.1-0.8,0.3c-0.3,0.2-0.4,0.4-0.5,0.7c-0.1,0.3-0.2,0.5-0.1,0.8c0,0.3,0.1,0.5,0.3,0.8
			l-0.8,0.6c-0.3-0.4-0.5-0.8-0.5-1.3c0-0.4,0-0.9,0.2-1.3c0.2-0.4,0.5-0.8,0.9-1.1c0.4-0.3,0.8-0.5,1.3-0.5c0.4,0,0.9,0,1.3,0.2
			c0.4,0.2,0.8,0.5,1,0.9c0.2,0.3,0.3,0.5,0.4,0.8s0.1,0.5,0.1,0.8c0,0.3-0.1,0.6-0.1,1l-0.8,3.8l-0.3-0.2l3.4-2.5l0.5,0.8
			L324.9,354.1z"/>
		<path d="M333.2,348.2c-0.4,0.3-0.9,0.5-1.3,0.5c-0.5,0-0.9,0-1.3-0.2s-0.8-0.5-1.1-0.9l-1.7-2.3c-0.3-0.4-0.5-0.9-0.5-1.3
			s0-0.9,0.2-1.3c0.2-0.4,0.5-0.8,0.9-1.1c0.4-0.3,0.9-0.5,1.3-0.5c0.5-0.1,0.9,0,1.3,0.2s0.8,0.5,1.1,0.9l1.7,2.3
			c0.3,0.4,0.5,0.9,0.5,1.3c0,0.5,0,0.9-0.2,1.3C333.9,347.6,333.6,347.9,333.2,348.2z M332.6,347.5c0.3-0.2,0.4-0.4,0.6-0.7
			s0.2-0.6,0.1-0.8c0-0.3-0.1-0.6-0.3-0.8l-1.8-2.4c-0.2-0.3-0.4-0.4-0.7-0.6c-0.3-0.1-0.6-0.2-0.8-0.1c-0.3,0-0.6,0.1-0.8,0.3
			c-0.2,0.2-0.4,0.4-0.6,0.7s-0.2,0.6-0.1,0.8s0.1,0.6,0.3,0.8l1.8,2.4c0.2,0.2,0.4,0.4,0.7,0.6s0.6,0.2,0.8,0.1
			C332.1,347.8,332.4,347.7,332.6,347.5z"/>
		<path d="M337,345.2l-0.5-0.7l1-4.6c0.1-0.4,0.1-0.7,0-1c-0.1-0.2-0.2-0.5-0.3-0.7c-0.2-0.2-0.4-0.4-0.7-0.5
			c-0.3-0.1-0.5-0.2-0.8-0.1s-0.5,0.1-0.8,0.3c-0.3,0.2-0.4,0.4-0.5,0.7c-0.1,0.3-0.2,0.5-0.1,0.8c0,0.3,0.1,0.5,0.3,0.8l-0.8,0.6
			c-0.3-0.4-0.5-0.8-0.5-1.3c0-0.4,0-0.9,0.2-1.3c0.2-0.4,0.5-0.8,0.9-1.1c0.4-0.3,0.8-0.5,1.3-0.5c0.4,0,0.9,0,1.3,0.2
			c0.4,0.2,0.8,0.5,1,0.9c0.2,0.3,0.3,0.5,0.4,0.8c0.1,0.3,0.1,0.5,0.1,0.8c0,0.3-0.1,0.6-0.1,1l-0.8,3.8l-0.3-0.2l3.4-2.5l0.5,0.8
			L337,345.2z"/>
		<path d="M342.9,341l-0.5-0.7l1-4.6c0.1-0.4,0.1-0.7,0-1c-0.1-0.3-0.2-0.5-0.3-0.7c-0.2-0.2-0.4-0.4-0.7-0.5
			c-0.3-0.1-0.5-0.2-0.8-0.1c-0.3,0-0.5,0.1-0.8,0.3c-0.3,0.2-0.4,0.4-0.5,0.7c-0.1,0.3-0.2,0.5-0.1,0.8s0.1,0.5,0.3,0.8l-0.8,0.6
			c-0.3-0.4-0.5-0.8-0.5-1.3c0-0.4,0-0.9,0.2-1.3c0.2-0.4,0.5-0.8,0.9-1.1c0.4-0.3,0.8-0.5,1.3-0.5c0.4,0,0.9,0,1.3,0.2
			s0.8,0.5,1,0.9c0.2,0.3,0.3,0.5,0.4,0.8c0.1,0.3,0.1,0.5,0.1,0.8c0,0.3-0.1,0.6-0.1,1l-0.8,3.8l-0.3-0.2l3.4-2.5l0.5,0.8
			L342.9,341z"/>
		<path d="M351.2,335.2c-0.4,0.3-0.9,0.5-1.3,0.5c-0.5,0-0.9,0-1.3-0.2c-0.4-0.2-0.8-0.5-1.1-0.9l-1.7-2.3c-0.3-0.4-0.5-0.9-0.5-1.3
			c0-0.5,0-0.9,0.2-1.3c0.2-0.4,0.5-0.8,0.9-1.1c0.4-0.3,0.9-0.5,1.3-0.5c0.5-0.1,0.9,0,1.3,0.2s0.8,0.5,1.1,0.9l1.7,2.3
			c0.3,0.4,0.5,0.9,0.5,1.3s0,0.9-0.2,1.3C351.9,334.5,351.6,334.9,351.2,335.2z M350.6,334.4c0.3-0.2,0.4-0.4,0.6-0.7
			s0.2-0.6,0.1-0.8c0-0.3-0.1-0.6-0.3-0.8l-1.8-2.4c-0.2-0.3-0.4-0.4-0.7-0.6s-0.6-0.2-0.8-0.1c-0.3,0-0.6,0.1-0.8,0.3
			c-0.2,0.2-0.4,0.4-0.6,0.7c-0.1,0.3-0.2,0.6-0.1,0.8c0,0.3,0.1,0.6,0.3,0.8l1.8,2.4c0.2,0.2,0.4,0.4,0.7,0.6s0.6,0.2,0.8,0.1
			C350.1,334.7,350.4,334.6,350.6,334.4z"/>
		<path d="M357.1,330.9c-0.3,0.2-0.7,0.4-1,0.5c-0.4,0.1-0.7,0.1-1.1,0c-0.4-0.1-0.7-0.2-1-0.5l0.6-0.8c0.3,0.2,0.6,0.3,1,0.3
			s0.7-0.1,0.9-0.3c0.3-0.2,0.4-0.4,0.5-0.7c0.1-0.3,0.1-0.5,0.1-0.8c0-0.3-0.2-0.5-0.3-0.8c-0.3-0.4-0.6-0.6-1.1-0.7
			c-0.4-0.1-0.8,0-1.2,0.3c-0.1,0.1-0.2,0.2-0.3,0.3c-0.1,0.1-0.2,0.2-0.2,0.4l-0.8-0.3l0.8-3.9l0.3,0.2l-3.2,2.3l-0.5-0.8l3.8-2.7
			l0.6,0.8l-0.6,3.4l-0.2-0.3c0.4-0.3,0.8-0.5,1.3-0.6c0.4-0.1,0.9,0,1.3,0.2c0.4,0.2,0.8,0.5,1.1,0.9c0.3,0.4,0.5,0.8,0.5,1.3
			c0,0.4,0,0.9-0.2,1.3C357.7,330.2,357.5,330.6,357.1,330.9z"/>
	</g>
	<g>
		<path d="M254.4,351.6l-0.5-0.7l1-4.6c0.1-0.4,0.1-0.7,0-1s-0.2-0.5-0.3-0.7c-0.2-0.2-0.4-0.4-0.7-0.5c-0.3-0.1-0.5-0.2-0.8-0.1
			c-0.3,0-0.5,0.1-0.8,0.3c-0.3,0.2-0.4,0.4-0.5,0.7c-0.1,0.3-0.2,0.5-0.1,0.8c0,0.3,0.1,0.5,0.3,0.8l-0.8,0.6
			c-0.3-0.4-0.5-0.8-0.5-1.3c0-0.4,0-0.9,0.2-1.3c0.2-0.4,0.5-0.8,0.9-1.1c0.4-0.3,0.8-0.5,1.3-0.5c0.4,0,0.9,0,1.3,0.2
			c0.4,0.2,0.8,0.5,1,0.9c0.2,0.3,0.3,0.5,0.4,0.8c0.1,0.3,0.1,0.5,0.1,0.8c0,0.3-0.1,0.6-0.1,1l-0.8,3.8l-0.3-0.2l3.4-2.5l0.6,0.8
			L254.4,351.6z"/>
		<path d="M262.7,345.8c-0.4,0.3-0.9,0.5-1.3,0.5c-0.5,0-0.9,0-1.3-0.2c-0.4-0.2-0.8-0.5-1.1-0.9l-1.7-2.3c-0.3-0.4-0.5-0.9-0.5-1.3
			c0-0.5,0-0.9,0.2-1.3c0.2-0.4,0.5-0.8,0.9-1.1c0.4-0.3,0.9-0.5,1.3-0.5c0.5,0,0.9,0,1.3,0.2s0.8,0.5,1.1,0.9l1.7,2.3
			c0.3,0.4,0.5,0.9,0.5,1.3c0,0.5,0,0.9-0.2,1.3C263.4,345.1,263.1,345.5,262.7,345.8z M262.1,345c0.3-0.2,0.4-0.4,0.6-0.7
			c0.1-0.3,0.2-0.6,0.1-0.8c0-0.3-0.1-0.6-0.3-0.8l-1.8-2.4c-0.2-0.3-0.4-0.4-0.7-0.6c-0.3-0.1-0.6-0.2-0.8-0.1s-0.6,0.1-0.8,0.3
			c-0.2,0.2-0.4,0.4-0.6,0.7s-0.2,0.6-0.1,0.8c0,0.3,0.1,0.6,0.3,0.8l1.8,2.4c0.2,0.2,0.4,0.4,0.7,0.6c0.3,0.1,0.6,0.2,0.8,0.1
			S261.9,345.2,262.1,345z"/>
		<path d="M266.5,342.8l-0.5-0.7l1-4.6c0.1-0.4,0.1-0.7,0-1s-0.2-0.5-0.3-0.7c-0.2-0.2-0.4-0.4-0.7-0.5c-0.3-0.1-0.5-0.2-0.8-0.1
			c-0.3,0-0.5,0.1-0.8,0.3c-0.3,0.2-0.4,0.4-0.5,0.7c-0.1,0.3-0.2,0.5-0.1,0.8c0,0.3,0.1,0.5,0.3,0.8l-0.8,0.6
			c-0.3-0.4-0.5-0.8-0.5-1.3c0-0.4,0-0.9,0.2-1.3c0.2-0.4,0.5-0.8,0.9-1.1c0.4-0.3,0.8-0.5,1.3-0.5c0.4,0,0.9,0,1.3,0.2
			c0.4,0.2,0.8,0.5,1,0.9c0.2,0.3,0.3,0.5,0.4,0.8c0.1,0.3,0.1,0.5,0.1,0.8c0,0.3-0.1,0.6-0.1,1l-0.8,3.8l-0.3-0.2l3.4-2.5l0.6,0.8
			L266.5,342.8z"/>
		<path d="M273.7,337.6l-4-5.5l-0.7,1.6l-0.6-0.9l0.7-1.6l0.8-0.6l4.7,6.4L273.7,337.6z"/>
		<path d="M278,334.5l-4-5.5l-0.7,1.6l-0.6-0.9l0.7-1.6l0.8-0.6l4.7,6.4L278,334.5z"/>
		<path d="M281.1,332.3l-0.5-0.7l1-4.6c0.1-0.4,0.1-0.7,0-1s-0.2-0.5-0.3-0.7c-0.2-0.2-0.4-0.4-0.7-0.5c-0.3-0.1-0.5-0.2-0.8-0.1
			c-0.3,0-0.5,0.1-0.8,0.3c-0.3,0.2-0.4,0.4-0.5,0.7c-0.1,0.3-0.2,0.5-0.1,0.8c0,0.3,0.1,0.5,0.3,0.8l-0.8,0.6
			c-0.3-0.4-0.5-0.8-0.5-1.3c0-0.4,0-0.9,0.2-1.3c0.2-0.4,0.5-0.8,0.9-1.1c0.4-0.3,0.8-0.5,1.3-0.5c0.4,0,0.9,0,1.3,0.2
			c0.4,0.2,0.8,0.5,1,0.9c0.2,0.3,0.3,0.5,0.4,0.8c0.1,0.3,0.1,0.5,0.1,0.8c0,0.3-0.1,0.6-0.1,1l-0.8,3.8l-0.3-0.2l3.4-2.5l0.5,0.8
			L281.1,332.3z"/>
	</g>
	<g>
		<path d="M396.8,354.4l-0.5-0.7l1-4.6c0.1-0.4,0.1-0.7,0-1c-0.1-0.3-0.2-0.5-0.3-0.7c-0.2-0.2-0.4-0.4-0.7-0.5
			c-0.3-0.1-0.5-0.2-0.8-0.1c-0.3,0-0.5,0.1-0.8,0.3c-0.3,0.2-0.4,0.4-0.6,0.7s-0.2,0.5-0.1,0.8c0,0.3,0.1,0.5,0.3,0.8l-0.8,0.6
			c-0.3-0.4-0.5-0.8-0.5-1.3c0-0.4,0-0.9,0.2-1.3c0.2-0.4,0.5-0.8,0.9-1.1c0.4-0.3,0.8-0.5,1.3-0.5c0.4,0,0.9,0,1.3,0.2
			c0.4,0.2,0.8,0.5,1,0.9c0.2,0.3,0.3,0.5,0.4,0.8s0.1,0.5,0.1,0.8c0,0.3-0.1,0.6-0.1,1l-0.8,3.8l-0.3-0.2l3.4-2.5l0.5,0.8
			L396.8,354.4z"/>
		<path d="M405.1,348.6c-0.4,0.3-0.9,0.5-1.3,0.5c-0.5,0-0.9,0-1.3-0.2c-0.4-0.2-0.8-0.5-1.1-0.9l-1.7-2.3c-0.3-0.4-0.5-0.9-0.5-1.3
			s0-0.9,0.2-1.3c0.2-0.4,0.5-0.8,0.9-1.1c0.4-0.3,0.9-0.5,1.3-0.5c0.5-0.1,0.9,0,1.3,0.2s0.8,0.5,1.1,0.9l1.7,2.3
			c0.3,0.4,0.5,0.9,0.5,1.3s0,0.9-0.2,1.3C405.8,347.9,405.5,348.3,405.1,348.6z M404.5,347.9c0.3-0.2,0.4-0.4,0.6-0.7
			c0.1-0.3,0.2-0.6,0.1-0.8c0-0.3-0.1-0.6-0.3-0.8l-1.8-2.4c-0.2-0.3-0.4-0.4-0.7-0.6c-0.3-0.1-0.6-0.2-0.8-0.1s-0.6,0.1-0.8,0.3
			c-0.2,0.2-0.4,0.4-0.6,0.7c-0.1,0.3-0.2,0.6-0.1,0.8c0,0.3,0.1,0.6,0.3,0.8l1.8,2.4c0.2,0.2,0.4,0.4,0.7,0.6
			c0.3,0.1,0.6,0.2,0.8,0.1C404,348.1,404.3,348,404.5,347.9z"/>
		<path d="M408.9,345.6l-0.5-0.7l1-4.6c0.1-0.4,0.1-0.7,0-1c-0.1-0.3-0.2-0.5-0.3-0.7c-0.2-0.2-0.4-0.4-0.7-0.5
			c-0.3-0.1-0.5-0.2-0.8-0.1c-0.3,0-0.5,0.1-0.8,0.3c-0.3,0.2-0.4,0.4-0.6,0.7s-0.2,0.5-0.1,0.8c0,0.3,0.1,0.5,0.3,0.8l-0.8,0.6
			c-0.3-0.4-0.5-0.8-0.5-1.3c0-0.4,0-0.9,0.2-1.3c0.2-0.4,0.5-0.8,0.9-1.1c0.4-0.3,0.8-0.5,1.3-0.5c0.4,0,0.9,0,1.3,0.2
			c0.4,0.2,0.8,0.5,1,0.9c0.2,0.3,0.3,0.5,0.4,0.8s0.1,0.5,0.1,0.8c0,0.3-0.1,0.6-0.1,1l-0.8,3.8l-0.3-0.2l3.4-2.5l0.5,0.8
			L408.9,345.6z"/>
		<path d="M414.8,341.4l-0.5-0.7l1-4.6c0.1-0.4,0.1-0.7,0-1c-0.1-0.2-0.2-0.5-0.3-0.7c-0.2-0.2-0.4-0.4-0.7-0.5
			c-0.3-0.1-0.5-0.2-0.8-0.1c-0.3,0-0.5,0.1-0.8,0.3c-0.3,0.2-0.4,0.4-0.5,0.7s-0.2,0.5-0.1,0.8c0,0.3,0.1,0.5,0.3,0.8l-0.8,0.6
			c-0.3-0.4-0.5-0.8-0.5-1.3c0-0.4,0-0.9,0.2-1.3c0.2-0.4,0.5-0.8,0.9-1.1c0.4-0.3,0.8-0.5,1.3-0.5s0.9,0,1.3,0.2
			c0.4,0.2,0.8,0.5,1,0.9c0.2,0.3,0.3,0.5,0.4,0.8c0.1,0.3,0.1,0.5,0.1,0.8c0,0.3-0.1,0.6-0.1,1l-0.8,3.8l-0.3-0.2l3.4-2.5l0.5,0.8
			L414.8,341.4z"/>
		<path d="M423.1,335.5c-0.4,0.3-0.9,0.5-1.3,0.5c-0.5,0-0.9,0-1.3-0.2c-0.4-0.2-0.8-0.5-1.1-0.9l-1.7-2.3c-0.3-0.4-0.5-0.9-0.5-1.3
			s0-0.9,0.2-1.3c0.2-0.4,0.5-0.8,0.9-1.1c0.4-0.3,0.9-0.5,1.3-0.5c0.5-0.1,0.9,0,1.3,0.2s0.8,0.5,1.1,0.9l1.7,2.3
			c0.3,0.4,0.5,0.9,0.5,1.3c0,0.5,0,0.9-0.2,1.3C423.8,334.9,423.5,335.2,423.1,335.5z M422.5,334.8c0.3-0.2,0.4-0.4,0.6-0.7
			c0.1-0.3,0.2-0.6,0.1-0.8c0-0.3-0.1-0.6-0.3-0.8l-1.8-2.4c-0.2-0.3-0.4-0.4-0.7-0.6c-0.3-0.1-0.6-0.2-0.8-0.1s-0.6,0.1-0.8,0.3
			c-0.2,0.2-0.4,0.4-0.6,0.7c-0.1,0.3-0.2,0.6-0.1,0.8s0.1,0.6,0.3,0.8l1.8,2.4c0.2,0.2,0.4,0.4,0.7,0.6c0.3,0.1,0.6,0.2,0.8,0.1
			C422,335.1,422.3,335,422.5,334.8z"/>
		<path d="M429.4,331c-0.4,0.3-0.8,0.5-1.3,0.5c-0.5,0-0.9,0-1.4-0.2c-0.4-0.2-0.8-0.5-1.1-0.9l-1.5-2.1c-0.3-0.4-0.5-0.9-0.6-1.4
			c-0.1-0.5,0-1,0.2-1.4c0.2-0.4,0.5-0.8,1-1.1c0.4-0.3,0.7-0.4,1.1-0.5c0.4-0.1,0.8-0.1,1.2,0.1l-0.2,1c-0.3-0.1-0.5-0.1-0.8-0.1
			c-0.3,0-0.5,0.1-0.8,0.3c-0.3,0.2-0.5,0.5-0.6,0.7c-0.1,0.3-0.2,0.6-0.1,0.9c0,0.3,0.1,0.6,0.3,0.9l0.9,1.3l-0.3-0.1
			c0-0.4,0.1-0.8,0.2-1.2c0.2-0.4,0.4-0.7,0.8-0.9c0.4-0.3,0.8-0.5,1.3-0.5c0.5,0,0.9,0,1.3,0.2c0.4,0.2,0.8,0.5,1.1,0.9
			c0.3,0.4,0.5,0.8,0.5,1.3c0,0.5,0,0.9-0.2,1.4C430.1,330.3,429.8,330.7,429.4,331z M428.8,330.2c0.3-0.2,0.4-0.4,0.6-0.7
			c0.1-0.3,0.2-0.6,0.1-0.9c0-0.3-0.1-0.6-0.3-0.8c-0.2-0.3-0.4-0.4-0.7-0.6c-0.3-0.1-0.6-0.2-0.9-0.1c-0.3,0-0.6,0.1-0.8,0.3
			s-0.4,0.4-0.6,0.7c-0.1,0.3-0.2,0.6-0.1,0.9c0,0.3,0.1,0.6,0.3,0.8c0.2,0.3,0.4,0.4,0.7,0.6c0.3,0.1,0.6,0.2,0.9,0.1
			C428.3,330.5,428.6,330.4,428.8,330.2z"/>
	</g>
	<g>
		<path d="M468.9,354.4l-0.5-0.7l1-4.6c0.1-0.4,0.1-0.7,0-1c-0.1-0.2-0.2-0.5-0.3-0.7c-0.2-0.2-0.4-0.4-0.7-0.5
			c-0.3-0.1-0.5-0.2-0.8-0.1c-0.3,0-0.5,0.1-0.8,0.3c-0.3,0.2-0.4,0.4-0.6,0.7c-0.1,0.3-0.2,0.5-0.1,0.8c0,0.3,0.1,0.5,0.3,0.8
			l-0.8,0.6c-0.3-0.4-0.5-0.8-0.5-1.3c0-0.4,0-0.9,0.2-1.3c0.2-0.4,0.5-0.8,0.9-1.1c0.4-0.3,0.8-0.5,1.3-0.5c0.4,0,0.9,0,1.3,0.2
			c0.4,0.2,0.8,0.5,1,0.9c0.2,0.3,0.3,0.5,0.4,0.8c0.1,0.3,0.1,0.5,0.1,0.8c0,0.3-0.1,0.6-0.1,1l-0.8,3.8l-0.3-0.2l3.4-2.5l0.5,0.8
			L468.9,354.4z"/>
		<path d="M477.2,348.6c-0.4,0.3-0.9,0.5-1.3,0.5c-0.5,0-0.9,0-1.3-0.2c-0.4-0.2-0.8-0.5-1.1-0.9l-1.7-2.3c-0.3-0.4-0.5-0.9-0.5-1.3
			c0-0.5,0-0.9,0.2-1.3c0.2-0.4,0.5-0.8,0.9-1.1c0.4-0.3,0.9-0.5,1.3-0.5c0.5-0.1,0.9,0,1.3,0.2c0.4,0.2,0.8,0.5,1.1,0.9l1.7,2.3
			c0.3,0.4,0.5,0.9,0.5,1.3c0,0.5,0,0.9-0.2,1.3C478,347.9,477.7,348.3,477.2,348.6z M476.7,347.9c0.3-0.2,0.4-0.4,0.6-0.7
			s0.2-0.6,0.1-0.8c0-0.3-0.1-0.6-0.3-0.8l-1.8-2.4c-0.2-0.3-0.4-0.4-0.7-0.6s-0.6-0.2-0.8-0.1s-0.6,0.1-0.8,0.3
			c-0.2,0.2-0.4,0.4-0.5,0.7s-0.2,0.6-0.1,0.8c0,0.3,0.1,0.6,0.3,0.8l1.8,2.4c0.2,0.2,0.4,0.4,0.7,0.6c0.3,0.1,0.6,0.2,0.8,0.1
			C476.2,348.1,476.4,348,476.7,347.9z"/>
		<path d="M481.1,345.6l-0.5-0.7l1-4.6c0.1-0.4,0.1-0.7,0-1c-0.1-0.3-0.2-0.5-0.3-0.7c-0.2-0.2-0.4-0.4-0.7-0.5
			c-0.3-0.1-0.5-0.2-0.8-0.1c-0.3,0-0.5,0.1-0.8,0.3c-0.3,0.2-0.4,0.4-0.5,0.7c-0.1,0.3-0.2,0.5-0.1,0.8c0,0.3,0.1,0.5,0.3,0.8
			l-0.8,0.6c-0.3-0.4-0.5-0.8-0.5-1.3c0-0.4,0-0.9,0.2-1.3c0.2-0.4,0.5-0.8,0.9-1.1c0.4-0.3,0.8-0.5,1.3-0.5c0.4,0,0.9,0,1.3,0.2
			c0.4,0.2,0.8,0.5,1,0.9c0.2,0.3,0.3,0.5,0.4,0.8c0.1,0.3,0.1,0.5,0.1,0.8c0,0.3-0.1,0.6-0.1,1l-0.8,3.8l-0.3-0.2l3.4-2.5l0.5,0.8
			L481.1,345.6z"/>
		<path d="M486.9,341.4l-0.5-0.7l1-4.6c0.1-0.4,0.1-0.7,0-1c-0.1-0.3-0.2-0.5-0.3-0.7c-0.2-0.2-0.4-0.4-0.7-0.5
			c-0.3-0.1-0.5-0.2-0.8-0.1c-0.3,0-0.5,0.1-0.8,0.3c-0.3,0.2-0.4,0.4-0.5,0.7c-0.1,0.3-0.2,0.5-0.1,0.8c0,0.3,0.1,0.5,0.3,0.8
			l-0.8,0.6c-0.3-0.4-0.5-0.8-0.5-1.3c0-0.4,0-0.9,0.2-1.3s0.5-0.8,0.9-1.1c0.4-0.3,0.8-0.5,1.3-0.5c0.4,0,0.9,0,1.3,0.2
			c0.4,0.2,0.8,0.5,1,0.9c0.2,0.3,0.3,0.5,0.4,0.8c0.1,0.3,0.1,0.5,0.1,0.8c0,0.3-0.1,0.6-0.1,1l-0.8,3.8l-0.3-0.2l3.4-2.5l0.5,0.8
			L486.9,341.4z"/>
		<path d="M495.2,335.5c-0.4,0.3-0.9,0.5-1.3,0.5c-0.5,0-0.9,0-1.3-0.2c-0.4-0.2-0.8-0.5-1.1-0.9l-1.7-2.3c-0.3-0.4-0.5-0.9-0.5-1.3
			s0-0.9,0.2-1.3c0.2-0.4,0.5-0.8,0.9-1.1s0.9-0.5,1.3-0.5c0.5-0.1,0.9,0,1.3,0.2c0.4,0.2,0.8,0.5,1.1,0.9l1.7,2.3
			c0.3,0.4,0.5,0.9,0.5,1.3c0,0.5,0,0.9-0.2,1.3C496,334.9,495.7,335.2,495.2,335.5z M494.7,334.8c0.3-0.2,0.4-0.4,0.6-0.7
			s0.2-0.6,0.1-0.8c0-0.3-0.1-0.6-0.3-0.8l-1.8-2.4c-0.2-0.3-0.4-0.4-0.7-0.6s-0.6-0.2-0.8-0.1s-0.6,0.1-0.8,0.3
			c-0.2,0.2-0.4,0.4-0.5,0.7c-0.1,0.3-0.2,0.6-0.1,0.8c0,0.3,0.1,0.6,0.3,0.8l1.8,2.4c0.2,0.2,0.4,0.4,0.7,0.6
			c0.3,0.1,0.6,0.2,0.8,0.1C494.2,335.1,494.4,335,494.7,334.8z"/>
		<path d="M496.6,324.3c0.4-0.3,0.9-0.5,1.3-0.5c0.5,0,0.9,0,1.4,0.2c0.4,0.2,0.8,0.5,1.1,0.9l1.5,2.1c0.3,0.4,0.5,0.9,0.6,1.4
			c0.1,0.5,0,0.9-0.2,1.4c-0.2,0.4-0.5,0.8-1,1.1c-0.3,0.3-0.7,0.4-1.1,0.5c-0.4,0.1-0.8,0.1-1.2-0.1l0.2-1c0.3,0.1,0.5,0.1,0.8,0.1
			c0.3,0,0.5-0.1,0.8-0.3c0.3-0.2,0.5-0.5,0.6-0.8c0.1-0.3,0.2-0.6,0.1-0.9c0-0.3-0.1-0.6-0.3-0.8l-0.9-1.3l0.3,0.1
			c0,0.4-0.1,0.8-0.2,1.2c-0.2,0.4-0.4,0.7-0.8,0.9c-0.4,0.3-0.8,0.5-1.3,0.5c-0.5,0-0.9,0-1.3-0.2c-0.4-0.2-0.8-0.5-1.1-0.9
			c-0.3-0.4-0.5-0.8-0.5-1.3s0-0.9,0.2-1.4C495.9,325,496.2,324.6,496.6,324.3z M497.2,325.1c-0.3,0.2-0.4,0.4-0.6,0.7
			c-0.1,0.3-0.2,0.6-0.1,0.9c0,0.3,0.1,0.6,0.3,0.8c0.2,0.3,0.4,0.4,0.7,0.6c0.3,0.1,0.6,0.2,0.9,0.1c0.3,0,0.6-0.1,0.8-0.3
			c0.3-0.2,0.4-0.4,0.6-0.7c0.1-0.3,0.2-0.6,0.1-0.9c0-0.3-0.1-0.6-0.3-0.8c-0.2-0.3-0.4-0.4-0.7-0.6c-0.3-0.1-0.6-0.2-0.9-0.1
			C497.7,324.8,497.4,324.9,497.2,325.1z"/>
	</g>
	<g>
		<path d="M542.3,352.7l-0.5-0.7l1-4.6c0.1-0.4,0.1-0.7,0-1c-0.1-0.3-0.2-0.5-0.3-0.7c-0.2-0.2-0.4-0.4-0.7-0.5
			c-0.3-0.1-0.5-0.2-0.8-0.1c-0.3,0-0.5,0.1-0.8,0.3c-0.3,0.2-0.4,0.4-0.5,0.7c-0.1,0.3-0.2,0.5-0.1,0.8c0,0.3,0.1,0.5,0.3,0.8
			l-0.8,0.6c-0.3-0.4-0.5-0.8-0.5-1.3c0-0.4,0-0.9,0.2-1.3c0.2-0.4,0.5-0.8,0.9-1.1c0.4-0.3,0.8-0.5,1.3-0.5c0.4,0,0.9,0,1.3,0.2
			s0.8,0.5,1,0.9c0.2,0.3,0.3,0.5,0.4,0.8c0.1,0.3,0.1,0.5,0.1,0.8c0,0.3-0.1,0.6-0.1,1l-0.8,3.8l-0.3-0.2l3.4-2.5l0.5,0.8
			L542.3,352.7z"/>
		<path d="M550.6,346.9c-0.4,0.3-0.9,0.5-1.3,0.5c-0.5,0-0.9,0-1.3-0.2c-0.4-0.2-0.8-0.5-1.1-0.9l-1.7-2.3c-0.3-0.4-0.5-0.9-0.5-1.3
			c0-0.5,0-0.9,0.2-1.3c0.2-0.4,0.5-0.8,0.9-1.1s0.9-0.5,1.3-0.5c0.5-0.1,0.9,0,1.3,0.2c0.4,0.2,0.8,0.5,1.1,0.9l1.7,2.3
			c0.3,0.4,0.5,0.9,0.5,1.3c0,0.5,0,0.9-0.2,1.3C551.3,346.3,551,346.6,550.6,346.9z M550,346.2c0.3-0.2,0.4-0.4,0.6-0.7
			c0.1-0.3,0.2-0.6,0.1-0.8c0-0.3-0.1-0.6-0.3-0.8l-1.8-2.4c-0.2-0.3-0.4-0.4-0.7-0.6c-0.3-0.1-0.6-0.2-0.8-0.1
			c-0.3,0-0.6,0.1-0.8,0.3c-0.2,0.2-0.4,0.4-0.5,0.7c-0.1,0.3-0.2,0.6-0.1,0.8c0,0.3,0.1,0.6,0.3,0.8l1.8,2.4
			c0.2,0.2,0.4,0.4,0.7,0.6s0.6,0.2,0.8,0.1C549.5,346.4,549.8,346.3,550,346.2z"/>
		<path d="M554.4,343.9l-0.5-0.7l1-4.6c0.1-0.4,0.1-0.7,0-1c-0.1-0.3-0.2-0.5-0.3-0.7c-0.2-0.2-0.4-0.4-0.7-0.5
			c-0.3-0.1-0.5-0.2-0.8-0.1c-0.3,0-0.5,0.1-0.8,0.3c-0.3,0.2-0.4,0.4-0.5,0.7c-0.1,0.3-0.2,0.5-0.1,0.8c0,0.3,0.1,0.5,0.3,0.8
			l-0.8,0.6c-0.3-0.4-0.5-0.8-0.5-1.3c0-0.4,0-0.9,0.2-1.3c0.2-0.4,0.5-0.8,0.9-1.1c0.4-0.3,0.8-0.5,1.3-0.5c0.4,0,0.9,0,1.3,0.2
			c0.4,0.2,0.8,0.5,1,0.9c0.2,0.3,0.3,0.5,0.4,0.8c0.1,0.3,0.1,0.5,0.1,0.8c0,0.3-0.1,0.6-0.1,1l-0.8,3.8l-0.3-0.2l3.4-2.5l0.5,0.8
			L554.4,343.9z"/>
		<path d="M560.3,339.7l-0.5-0.7l1-4.6c0.1-0.4,0.1-0.7,0-1c-0.1-0.3-0.2-0.5-0.3-0.7c-0.2-0.2-0.4-0.4-0.7-0.5
			c-0.3-0.1-0.5-0.2-0.8-0.1c-0.3,0-0.5,0.1-0.8,0.3c-0.3,0.2-0.4,0.4-0.5,0.7c-0.1,0.3-0.2,0.5-0.1,0.8c0,0.3,0.1,0.5,0.3,0.8
			l-0.8,0.6c-0.3-0.4-0.5-0.8-0.5-1.3c0-0.4,0-0.9,0.2-1.3c0.2-0.4,0.5-0.8,0.9-1.1c0.4-0.3,0.8-0.5,1.3-0.5c0.4,0,0.9,0,1.3,0.2
			c0.4,0.2,0.8,0.5,1,0.9c0.2,0.3,0.3,0.5,0.4,0.8c0.1,0.3,0.1,0.5,0.1,0.8c0,0.3-0.1,0.6-0.1,1l-0.8,3.8l-0.3-0.2l3.4-2.5l0.5,0.8
			L560.3,339.7z"/>
		<path d="M567.4,334.5l-4-5.5l-0.7,1.6l-0.6-0.9l0.7-1.6l0.8-0.6l4.7,6.4L567.4,334.5z"/>
		<path d="M570.5,332.3l-0.5-0.7l1-4.6c0.1-0.4,0.1-0.7,0-1s-0.2-0.5-0.3-0.7c-0.2-0.2-0.4-0.4-0.7-0.5c-0.3-0.1-0.5-0.2-0.8-0.1
			c-0.3,0-0.5,0.1-0.8,0.3c-0.3,0.2-0.4,0.4-0.6,0.7c-0.1,0.3-0.2,0.5-0.1,0.8c0,0.3,0.1,0.5,0.3,0.8l-0.8,0.6
			c-0.3-0.4-0.5-0.8-0.5-1.3c0-0.4,0-0.9,0.2-1.3c0.2-0.4,0.5-0.8,0.9-1.1c0.4-0.3,0.8-0.5,1.3-0.5c0.4,0,0.9,0,1.3,0.2
			c0.4,0.2,0.8,0.5,1,0.9c0.2,0.3,0.3,0.5,0.4,0.8c0.1,0.3,0.1,0.5,0.1,0.8c0,0.3-0.1,0.6-0.1,1l-0.8,3.8l-0.3-0.2l3.4-2.5l0.5,0.8
			L570.5,332.3z"/>
	</g>
	<g>
		<path d="M613.6,354l-0.5-0.7l1-4.6c0.1-0.4,0.1-0.7,0-1s-0.2-0.5-0.3-0.7c-0.2-0.2-0.4-0.4-0.7-0.5c-0.3-0.1-0.5-0.2-0.8-0.1
			c-0.3,0-0.5,0.1-0.8,0.3c-0.3,0.2-0.4,0.4-0.5,0.7c-0.1,0.3-0.2,0.5-0.1,0.8c0,0.3,0.1,0.5,0.3,0.8l-0.8,0.6
			c-0.3-0.4-0.5-0.8-0.5-1.3c0-0.4,0-0.9,0.2-1.3c0.2-0.4,0.5-0.8,0.9-1.1c0.4-0.3,0.8-0.5,1.3-0.5s0.9,0,1.3,0.2
			c0.4,0.2,0.8,0.5,1,0.9c0.2,0.3,0.3,0.5,0.4,0.8c0.1,0.3,0.1,0.5,0.1,0.8c0,0.3-0.1,0.6-0.1,1l-0.8,3.8l-0.3-0.2l3.4-2.5l0.5,0.8
			L613.6,354z"/>
		<path d="M621.9,348.1c-0.4,0.3-0.9,0.5-1.3,0.5c-0.5,0-0.9,0-1.3-0.2c-0.4-0.2-0.8-0.5-1.1-0.9l-1.7-2.3c-0.3-0.4-0.5-0.9-0.5-1.3
			s0-0.9,0.2-1.3c0.2-0.4,0.5-0.8,0.9-1.1c0.4-0.3,0.9-0.5,1.3-0.5c0.5-0.1,0.9,0,1.3,0.2s0.8,0.5,1.1,0.9l1.7,2.3
			c0.3,0.4,0.5,0.9,0.5,1.3s0,0.9-0.2,1.3C622.6,347.5,622.3,347.8,621.9,348.1z M621.3,347.4c0.3-0.2,0.4-0.4,0.6-0.7
			c0.1-0.3,0.2-0.6,0.1-0.8c0-0.3-0.1-0.6-0.3-0.8l-1.8-2.4c-0.2-0.3-0.4-0.4-0.7-0.6c-0.3-0.1-0.6-0.2-0.8-0.1s-0.6,0.1-0.8,0.3
			c-0.2,0.2-0.4,0.4-0.5,0.7c-0.1,0.3-0.2,0.6-0.1,0.8c0,0.3,0.1,0.6,0.3,0.8l1.8,2.4c0.2,0.2,0.4,0.4,0.7,0.6
			c0.3,0.1,0.6,0.2,0.8,0.1C620.8,347.7,621.1,347.6,621.3,347.4z"/>
		<path d="M625.7,345.1l-0.5-0.7l1-4.6c0.1-0.4,0.1-0.7,0-1c-0.1-0.2-0.2-0.5-0.3-0.7c-0.2-0.2-0.4-0.4-0.7-0.5
			c-0.3-0.1-0.5-0.2-0.8-0.1c-0.3,0-0.5,0.1-0.8,0.3c-0.3,0.2-0.4,0.4-0.5,0.7c-0.1,0.3-0.2,0.5-0.1,0.8c0,0.3,0.1,0.5,0.3,0.8
			l-0.8,0.6c-0.3-0.4-0.5-0.8-0.5-1.3c0-0.4,0-0.9,0.2-1.3c0.2-0.4,0.5-0.8,0.9-1.1c0.4-0.3,0.8-0.5,1.3-0.5c0.4,0,0.9,0,1.3,0.2
			c0.4,0.2,0.8,0.5,1,0.9c0.2,0.3,0.3,0.5,0.4,0.8c0.1,0.3,0.1,0.5,0.1,0.8c0,0.3-0.1,0.6-0.1,1l-0.8,3.8l-0.3-0.2l3.4-2.5l0.5,0.8
			L625.7,345.1z"/>
		<path d="M633.6,339.6c-0.3,0.2-0.7,0.4-1,0.5c-0.4,0.1-0.7,0.1-1.1,0c-0.4-0.1-0.7-0.2-1-0.5l0.6-0.8c0.3,0.2,0.6,0.3,1,0.3
			s0.7-0.1,0.9-0.3c0.3-0.2,0.4-0.4,0.5-0.7c0.1-0.3,0.1-0.5,0.1-0.8s-0.2-0.5-0.3-0.8c-0.3-0.4-0.6-0.6-1.1-0.7
			c-0.4-0.1-0.8,0-1.2,0.3c-0.1,0.1-0.2,0.2-0.3,0.3c-0.1,0.1-0.2,0.2-0.2,0.4l-0.8-0.3l0.8-3.9l0.3,0.2l-3.2,2.3l-0.5-0.8l3.8-2.7
			l0.6,0.8l-0.6,3.4l-0.2-0.3c0.4-0.3,0.8-0.5,1.3-0.6s0.9,0,1.3,0.2c0.4,0.2,0.8,0.5,1.1,0.9c0.3,0.4,0.5,0.8,0.5,1.3
			c0,0.4,0,0.9-0.2,1.3S634,339.3,633.6,339.6z"/>
		<path d="M639.8,335.2c-0.4,0.3-0.9,0.5-1.3,0.5c-0.5,0-0.9,0-1.3-0.2c-0.4-0.2-0.8-0.5-1.1-0.9l-1.7-2.3c-0.3-0.4-0.5-0.9-0.5-1.3
			c0-0.5,0-0.9,0.2-1.3c0.2-0.4,0.5-0.8,0.9-1.1c0.4-0.3,0.9-0.5,1.3-0.5c0.5-0.1,0.9,0,1.3,0.2c0.4,0.2,0.8,0.5,1.1,0.9l1.7,2.3
			c0.3,0.4,0.5,0.9,0.5,1.3c0,0.5,0,0.9-0.2,1.3C640.5,334.5,640.2,334.9,639.8,335.2z M639.2,334.4c0.3-0.2,0.4-0.4,0.6-0.7
			c0.1-0.3,0.2-0.6,0.1-0.8c0-0.3-0.1-0.6-0.3-0.8l-1.8-2.4c-0.2-0.3-0.4-0.4-0.7-0.6c-0.3-0.1-0.6-0.2-0.8-0.1
			c-0.3,0-0.6,0.1-0.8,0.3c-0.2,0.2-0.4,0.4-0.5,0.7s-0.2,0.6-0.1,0.8s0.1,0.6,0.3,0.8l1.8,2.4c0.2,0.2,0.4,0.4,0.7,0.6
			c0.3,0.1,0.6,0.2,0.8,0.1C638.7,334.7,638.9,334.6,639.2,334.4z"/>
		<path d="M645.6,330.9c-0.3,0.2-0.7,0.4-1,0.5c-0.4,0.1-0.7,0.1-1.1,0c-0.4-0.1-0.7-0.2-1-0.5l0.6-0.8c0.3,0.2,0.6,0.3,1,0.3
			c0.3,0,0.7-0.1,0.9-0.3c0.3-0.2,0.4-0.4,0.5-0.7c0.1-0.3,0.1-0.5,0.1-0.8c0-0.3-0.2-0.5-0.3-0.8c-0.3-0.4-0.6-0.6-1.1-0.7
			c-0.4-0.1-0.8,0-1.2,0.3c-0.1,0.1-0.2,0.2-0.3,0.3c-0.1,0.1-0.2,0.2-0.2,0.4l-0.8-0.3l0.8-3.9l0.3,0.2l-3.2,2.3l-0.5-0.8l3.8-2.7
			l0.6,0.8l-0.6,3.4l-0.2-0.3c0.4-0.3,0.8-0.5,1.3-0.6s0.9,0,1.3,0.2c0.4,0.2,0.8,0.5,1.1,0.9c0.3,0.4,0.5,0.8,0.5,1.3
			c0,0.4,0,0.9-0.2,1.3C646.3,330.2,646,330.6,645.6,330.9z"/>
	</g>
	<g>
		<rect x="193.9" y="307.2" class="st2" width="16.4" height="9"/>
		<rect x="210.3" y="312.7" class="st3" width="16.4" height="3.4"/>
	</g>
	<g>
		<rect x="265.6" y="298.9" class="st2" width="16.4" height="17.2"/>
		<rect x="282" y="309" class="st3" width="16.4" height="7.1"/>
	</g>
	<g>
		<rect x="337.4" y="290.9" class="st2" width="16.4" height="25.2"/>
		<rect x="353.8" y="306.3" class="st3" width="16.4" height="9.8"/>
	</g>
	<g>
		<rect x="409.2" y="276.6" class="st2" width="16.4" height="39.5"/>
		<rect x="425.6" y="297.7" class="st3" width="16.4" height="18.4"/>
	</g>
	<g>
		<rect x="480.9" y="246" class="st2" width="16.4" height="70.1"/>
		<rect x="497.4" y="288" class="st3" width="16.4" height="28.1"/>
	</g>
	<g>
		<rect x="552.7" y="216.4" class="st2" width="16.4" height="99.7"/>
		<rect x="569.1" y="284.5" class="st3" width="16.4" height="31.6"/>
	</g>
	<g>
		<rect x="624.5" y="176.9" class="st2" width="16.4" height="139.2"/>
		<rect x="640.9" y="267.9" class="st3" width="16.4" height="48.2"/>
	</g>
	<g>
		<path d="M685.5,354.3l-0.5-0.7l1-4.6c0.1-0.4,0.1-0.7,0-1c-0.1-0.2-0.2-0.5-0.3-0.7c-0.2-0.2-0.4-0.4-0.7-0.5
			c-0.3-0.1-0.5-0.2-0.8-0.1s-0.5,0.1-0.8,0.3c-0.3,0.2-0.4,0.4-0.5,0.7c-0.1,0.3-0.2,0.5-0.1,0.8c0,0.3,0.1,0.5,0.3,0.8l-0.8,0.6
			c-0.3-0.4-0.5-0.8-0.5-1.3c0-0.4,0-0.9,0.2-1.3c0.2-0.4,0.5-0.8,0.9-1.1c0.4-0.3,0.8-0.5,1.3-0.5c0.4,0,0.9,0,1.3,0.2
			c0.4,0.2,0.8,0.5,1,0.9c0.2,0.3,0.3,0.5,0.4,0.8c0.1,0.3,0.1,0.5,0.1,0.8c0,0.3-0.1,0.6-0.1,1l-0.8,3.8l-0.3-0.2l3.4-2.5l0.5,0.8
			L685.5,354.3z"/>
		<path d="M693.8,348.5c-0.4,0.3-0.9,0.5-1.3,0.5c-0.5,0-0.9,0-1.3-0.2c-0.4-0.2-0.8-0.5-1.1-0.9l-1.7-2.3c-0.3-0.4-0.5-0.9-0.5-1.3
			s0-0.9,0.2-1.3c0.2-0.4,0.5-0.8,0.9-1.1c0.4-0.3,0.9-0.5,1.3-0.5c0.5-0.1,0.9,0,1.3,0.2s0.8,0.5,1.1,0.9l1.7,2.3
			c0.3,0.4,0.5,0.9,0.5,1.3s0,0.9-0.2,1.3C694.5,347.8,694.2,348.2,693.8,348.5z M693.2,347.7c0.3-0.2,0.4-0.4,0.6-0.7
			c0.1-0.3,0.2-0.6,0.1-0.8s-0.1-0.6-0.3-0.8l-1.8-2.4c-0.2-0.3-0.4-0.4-0.7-0.6c-0.3-0.1-0.6-0.2-0.8-0.1s-0.6,0.1-0.8,0.3
			c-0.2,0.2-0.4,0.4-0.5,0.7c-0.1,0.3-0.2,0.6-0.1,0.8c0,0.3,0.1,0.6,0.3,0.8l1.8,2.4c0.2,0.2,0.4,0.4,0.7,0.6
			c0.3,0.1,0.6,0.2,0.8,0.1S693,347.9,693.2,347.7z"/>
		<path d="M697.6,345.5l-0.5-0.7l1-4.6c0.1-0.4,0.1-0.7,0-1c-0.1-0.3-0.2-0.5-0.3-0.7c-0.2-0.2-0.4-0.4-0.7-0.5
			c-0.3-0.1-0.5-0.2-0.8-0.1c-0.3,0-0.5,0.1-0.8,0.3c-0.3,0.2-0.4,0.4-0.5,0.7c-0.1,0.3-0.2,0.5-0.1,0.8c0,0.3,0.1,0.5,0.3,0.8
			l-0.8,0.6c-0.3-0.4-0.5-0.8-0.5-1.3c0-0.4,0-0.9,0.2-1.3c0.2-0.4,0.5-0.8,0.9-1.1c0.4-0.3,0.8-0.5,1.3-0.5c0.4,0,0.9,0,1.3,0.2
			c0.4,0.2,0.8,0.5,1,0.9c0.2,0.3,0.3,0.5,0.4,0.8c0.1,0.3,0.1,0.5,0.1,0.8c0,0.3-0.1,0.6-0.1,1l-0.8,3.8l-0.3-0.2l3.4-2.5l0.5,0.8
			L697.6,345.5z"/>
		<path d="M705.5,340c-0.3,0.2-0.7,0.4-1,0.5s-0.7,0.1-1.1,0c-0.4-0.1-0.7-0.2-1-0.5l0.6-0.8c0.3,0.2,0.6,0.3,1,0.3
			c0.3,0,0.7-0.1,0.9-0.3c0.3-0.2,0.4-0.4,0.5-0.7c0.1-0.3,0.1-0.5,0.1-0.8s-0.2-0.5-0.3-0.8c-0.3-0.4-0.6-0.6-1.1-0.7
			c-0.4-0.1-0.8,0-1.2,0.3c-0.1,0.1-0.2,0.2-0.3,0.3c-0.1,0.1-0.2,0.2-0.2,0.4l-0.8-0.3l0.8-3.9l0.3,0.2l-3.2,2.3l-0.5-0.8l3.8-2.7
			l0.6,0.8l-0.6,3.4l-0.2-0.3c0.4-0.3,0.8-0.5,1.3-0.6c0.4-0.1,0.9,0,1.3,0.2c0.4,0.2,0.8,0.5,1.1,0.9c0.3,0.4,0.5,0.8,0.5,1.3
			c0,0.4,0,0.9-0.2,1.3S705.9,339.7,705.5,340z"/>
		<path d="M711.6,335.5c-0.4,0.3-0.9,0.5-1.3,0.5c-0.5,0-0.9,0-1.3-0.2c-0.4-0.2-0.8-0.5-1.1-0.9l-1.7-2.3c-0.3-0.4-0.5-0.9-0.5-1.3
			c0-0.5,0-0.9,0.2-1.3c0.2-0.4,0.5-0.8,0.9-1.1s0.9-0.5,1.3-0.5c0.5-0.1,0.9,0,1.3,0.2c0.4,0.2,0.8,0.5,1.1,0.9l1.7,2.3
			c0.3,0.4,0.5,0.9,0.5,1.3c0,0.5,0,0.9-0.2,1.3C712.4,334.9,712.1,335.2,711.6,335.5z M711.1,334.8c0.3-0.2,0.4-0.4,0.6-0.7
			c0.1-0.3,0.2-0.6,0.1-0.8c0-0.3-0.1-0.6-0.3-0.8l-1.8-2.4c-0.2-0.3-0.4-0.4-0.7-0.6c-0.3-0.1-0.6-0.2-0.8-0.1s-0.6,0.1-0.8,0.3
			c-0.2,0.2-0.4,0.4-0.5,0.7c-0.1,0.3-0.2,0.6-0.1,0.8c0,0.3,0.1,0.6,0.3,0.8l1.8,2.4c0.2,0.2,0.4,0.4,0.7,0.6s0.6,0.2,0.8,0.1
			C710.6,335.1,710.8,335,711.1,334.8z"/>
		<path d="M718,331c-0.4,0.3-0.8,0.5-1.3,0.5s-0.9,0-1.4-0.2c-0.4-0.2-0.8-0.5-1.1-0.9l-1.5-2.1c-0.3-0.4-0.5-0.9-0.6-1.4
			c-0.1-0.5,0-1,0.2-1.4c0.2-0.4,0.5-0.8,1-1.1c0.4-0.3,0.7-0.4,1.1-0.5c0.4-0.1,0.8-0.1,1.2,0.1l-0.2,1c-0.3-0.1-0.5-0.1-0.8-0.1
			s-0.5,0.1-0.8,0.3c-0.3,0.2-0.5,0.5-0.6,0.7c-0.1,0.3-0.2,0.6-0.1,0.9c0,0.3,0.1,0.6,0.3,0.9l0.9,1.3l-0.3-0.1
			c0-0.4,0.1-0.8,0.2-1.2c0.2-0.4,0.4-0.7,0.8-0.9c0.4-0.3,0.8-0.5,1.3-0.5c0.5,0,0.9,0,1.3,0.2c0.4,0.2,0.8,0.5,1.1,0.9
			c0.3,0.4,0.5,0.8,0.5,1.3c0,0.5,0,0.9-0.2,1.4C718.6,330.3,718.4,330.7,718,331z M717.4,330.2c0.3-0.2,0.4-0.4,0.6-0.7
			c0.1-0.3,0.2-0.6,0.1-0.9c0-0.3-0.1-0.6-0.3-0.8c-0.2-0.3-0.4-0.4-0.7-0.6c-0.3-0.1-0.6-0.2-0.9-0.1c-0.3,0-0.6,0.1-0.8,0.3
			c-0.3,0.2-0.4,0.4-0.6,0.7c-0.1,0.3-0.2,0.6-0.1,0.9c0,0.3,0.1,0.6,0.3,0.8c0.2,0.3,0.4,0.4,0.7,0.6c0.3,0.1,0.6,0.2,0.9,0.1
			C716.9,330.5,717.1,330.4,717.4,330.2z"/>
	</g>
	<g>
		<path d="M757.6,354.3l-0.5-0.7l1-4.6c0.1-0.4,0.1-0.7,0-1c-0.1-0.2-0.2-0.5-0.3-0.7c-0.2-0.2-0.4-0.4-0.7-0.5
			c-0.3-0.1-0.5-0.2-0.8-0.1s-0.5,0.1-0.8,0.3c-0.3,0.2-0.4,0.4-0.5,0.7c-0.1,0.3-0.2,0.5-0.1,0.8c0,0.3,0.1,0.5,0.3,0.8l-0.8,0.6
			c-0.3-0.4-0.5-0.8-0.5-1.3c0-0.4,0-0.9,0.2-1.3c0.2-0.4,0.5-0.8,0.9-1.1c0.4-0.3,0.8-0.5,1.3-0.5c0.4,0,0.9,0,1.3,0.2
			c0.4,0.2,0.8,0.5,1,0.9c0.2,0.3,0.3,0.5,0.4,0.8c0.1,0.3,0.1,0.5,0.1,0.8c0,0.3-0.1,0.6-0.1,1l-0.8,3.8l-0.3-0.2l3.4-2.5l0.5,0.8
			L757.6,354.3z"/>
		<path d="M765.9,348.5c-0.4,0.3-0.9,0.5-1.3,0.5c-0.5,0-0.9,0-1.3-0.2c-0.4-0.2-0.8-0.5-1.1-0.9l-1.7-2.3c-0.3-0.4-0.5-0.9-0.5-1.3
			s0-0.9,0.2-1.3c0.2-0.4,0.5-0.8,0.9-1.1c0.4-0.3,0.9-0.5,1.3-0.5c0.5-0.1,0.9,0,1.3,0.2s0.8,0.5,1.1,0.9l1.7,2.3
			c0.3,0.4,0.5,0.9,0.5,1.3s0,0.9-0.2,1.3C766.7,347.8,766.4,348.2,765.9,348.5z M765.4,347.7c0.3-0.2,0.4-0.4,0.6-0.7
			c0.1-0.3,0.2-0.6,0.1-0.8s-0.1-0.6-0.3-0.8L764,343c-0.2-0.3-0.4-0.4-0.7-0.6c-0.3-0.1-0.6-0.2-0.8-0.1s-0.6,0.1-0.8,0.3
			c-0.2,0.2-0.4,0.4-0.5,0.7c-0.1,0.3-0.2,0.6-0.1,0.8c0,0.3,0.1,0.6,0.3,0.8l1.8,2.4c0.2,0.2,0.4,0.4,0.7,0.6
			c0.3,0.1,0.6,0.2,0.8,0.1S765.1,347.9,765.4,347.7z"/>
		<path d="M769.8,345.5l-0.5-0.7l1-4.6c0.1-0.4,0.1-0.7,0-1c-0.1-0.3-0.2-0.5-0.3-0.7c-0.2-0.2-0.4-0.4-0.7-0.5
			c-0.3-0.1-0.5-0.2-0.8-0.1c-0.3,0-0.5,0.1-0.8,0.3c-0.3,0.2-0.4,0.4-0.5,0.7c-0.1,0.3-0.2,0.5-0.1,0.8c0,0.3,0.1,0.5,0.3,0.8
			l-0.8,0.6c-0.3-0.4-0.5-0.8-0.5-1.3c0-0.4,0-0.9,0.2-1.3c0.2-0.4,0.5-0.8,0.9-1.1c0.4-0.3,0.8-0.5,1.3-0.5c0.4,0,0.9,0,1.3,0.2
			c0.4,0.2,0.8,0.5,1,0.9c0.2,0.3,0.3,0.5,0.4,0.8c0.1,0.3,0.1,0.5,0.1,0.8c0,0.3-0.1,0.6-0.1,1l-0.8,3.8l-0.3-0.2l3.4-2.5l0.5,0.8
			L769.8,345.5z"/>
		<path d="M777.7,340c-0.3,0.2-0.7,0.4-1,0.5s-0.7,0.1-1.1,0c-0.4-0.1-0.7-0.2-1-0.5l0.6-0.8c0.3,0.2,0.6,0.3,1,0.3
			c0.3,0,0.7-0.1,0.9-0.3c0.3-0.2,0.4-0.4,0.5-0.7c0.1-0.3,0.1-0.5,0.1-0.8s-0.2-0.5-0.3-0.8c-0.3-0.4-0.6-0.6-1.1-0.7
			c-0.4-0.1-0.8,0-1.2,0.3c-0.1,0.1-0.2,0.2-0.3,0.3c-0.1,0.1-0.2,0.2-0.2,0.4l-0.8-0.3l0.8-3.9l0.3,0.2l-3.2,2.3l-0.5-0.8l3.8-2.7
			l0.6,0.8l-0.6,3.4l-0.2-0.3c0.4-0.3,0.8-0.5,1.3-0.6c0.4-0.1,0.9,0,1.3,0.2c0.4,0.2,0.8,0.5,1.1,0.9c0.3,0.4,0.5,0.8,0.5,1.3
			c0,0.4,0,0.9-0.2,1.3S778.1,339.7,777.7,340z"/>
		<path d="M783.8,335.5c-0.4,0.3-0.9,0.5-1.3,0.5c-0.5,0-0.9,0-1.3-0.2c-0.4-0.2-0.8-0.5-1.1-0.9l-1.7-2.3c-0.3-0.4-0.5-0.9-0.5-1.3
			c0-0.5,0-0.9,0.2-1.3c0.2-0.4,0.5-0.8,0.9-1.1s0.9-0.5,1.3-0.5c0.5-0.1,0.9,0,1.3,0.2c0.4,0.2,0.8,0.5,1.1,0.9l1.7,2.3
			c0.3,0.4,0.5,0.9,0.5,1.3c0,0.5,0,0.9-0.2,1.3C784.5,334.9,784.2,335.2,783.8,335.5z M783.3,334.8c0.3-0.2,0.4-0.4,0.6-0.7
			c0.1-0.3,0.2-0.6,0.1-0.8c0-0.3-0.1-0.6-0.3-0.8l-1.8-2.4c-0.2-0.3-0.4-0.4-0.7-0.6c-0.3-0.1-0.6-0.2-0.8-0.1s-0.6,0.1-0.8,0.3
			c-0.2,0.2-0.4,0.4-0.5,0.7c-0.1,0.3-0.2,0.6-0.1,0.8c0,0.3,0.1,0.6,0.3,0.8l1.8,2.4c0.2,0.2,0.4,0.4,0.7,0.6s0.6,0.2,0.8,0.1
			C782.7,335.1,783,335,783.3,334.8z"/>
		<path d="M785.2,324.3c0.4-0.3,0.8-0.5,1.3-0.5c0.5,0,0.9,0,1.4,0.2c0.4,0.2,0.8,0.5,1.1,0.9l1.5,2.1c0.3,0.4,0.5,0.9,0.6,1.4
			c0.1,0.5,0,0.9-0.2,1.4s-0.5,0.8-1,1.1c-0.4,0.3-0.7,0.4-1.1,0.5c-0.4,0.1-0.8,0.1-1.2-0.1l0.2-1c0.3,0.1,0.5,0.1,0.8,0.1
			c0.3,0,0.5-0.1,0.8-0.3c0.3-0.2,0.5-0.5,0.6-0.8c0.1-0.3,0.2-0.6,0.1-0.9c0-0.3-0.1-0.6-0.3-0.8l-0.9-1.3l0.3,0.1
			c0,0.4-0.1,0.8-0.2,1.2c-0.2,0.4-0.4,0.7-0.8,0.9c-0.4,0.3-0.8,0.5-1.3,0.5c-0.5,0-0.9,0-1.3-0.2c-0.4-0.2-0.8-0.5-1.1-0.9
			c-0.3-0.4-0.5-0.8-0.5-1.3c0-0.5,0-0.9,0.2-1.4C784.5,325,784.8,324.6,785.2,324.3z M785.7,325.1c-0.3,0.2-0.4,0.4-0.6,0.7
			c-0.1,0.3-0.2,0.6-0.1,0.9c0,0.3,0.1,0.6,0.3,0.8c0.2,0.3,0.4,0.4,0.7,0.6c0.3,0.1,0.6,0.2,0.9,0.1c0.3,0,0.6-0.1,0.8-0.3
			c0.3-0.2,0.4-0.4,0.6-0.7c0.1-0.3,0.2-0.6,0.1-0.9c0-0.3-0.1-0.6-0.3-0.8c-0.2-0.3-0.4-0.4-0.7-0.6c-0.3-0.1-0.6-0.2-0.9-0.1
			C786.3,324.8,786,324.9,785.7,325.1z"/>
	</g>
	<g>
		<path d="M831,352.6l-0.5-0.7l1-4.6c0.1-0.4,0.1-0.7,0-1c-0.1-0.2-0.2-0.5-0.3-0.7c-0.2-0.2-0.4-0.4-0.7-0.5
			c-0.3-0.1-0.5-0.2-0.8-0.1s-0.5,0.1-0.8,0.3c-0.3,0.2-0.4,0.4-0.5,0.7c-0.1,0.3-0.2,0.5-0.1,0.8c0,0.3,0.1,0.5,0.3,0.8l-0.8,0.6
			c-0.3-0.4-0.5-0.8-0.5-1.3c0-0.4,0-0.9,0.2-1.3c0.2-0.4,0.5-0.8,0.9-1.1c0.4-0.3,0.8-0.5,1.3-0.5c0.4,0,0.9,0,1.3,0.2
			c0.4,0.2,0.8,0.5,1,0.9c0.2,0.3,0.3,0.5,0.4,0.8s0.1,0.5,0.1,0.8c0,0.3-0.1,0.6-0.1,1l-0.8,3.8l-0.3-0.2l3.4-2.5l0.5,0.8
			L831,352.6z"/>
		<path d="M839.3,346.8c-0.4,0.3-0.9,0.5-1.3,0.5c-0.5,0-0.9,0-1.3-0.2c-0.4-0.2-0.8-0.5-1.1-0.9l-1.7-2.3c-0.3-0.4-0.5-0.9-0.5-1.3
			c0-0.5,0-0.9,0.2-1.3c0.2-0.4,0.5-0.8,0.9-1.1c0.4-0.3,0.9-0.5,1.3-0.5c0.5-0.1,0.9,0,1.3,0.2c0.4,0.2,0.8,0.5,1.1,0.9l1.7,2.3
			c0.3,0.4,0.5,0.9,0.5,1.3c0,0.5,0,0.9-0.2,1.3C840,346.1,839.7,346.5,839.3,346.8z M838.7,346.1c0.3-0.2,0.4-0.4,0.6-0.7
			c0.1-0.3,0.2-0.6,0.1-0.8c0-0.3-0.1-0.6-0.3-0.8l-1.8-2.4c-0.2-0.3-0.4-0.4-0.7-0.6c-0.3-0.1-0.6-0.2-0.8-0.1
			c-0.3,0-0.6,0.1-0.8,0.3c-0.2,0.2-0.4,0.4-0.5,0.7s-0.2,0.6-0.1,0.8s0.1,0.6,0.3,0.8l1.8,2.4c0.2,0.2,0.4,0.4,0.7,0.6
			c0.3,0.1,0.6,0.2,0.8,0.1C838.2,346.3,838.5,346.2,838.7,346.1z"/>
		<path d="M843.1,343.8l-0.5-0.7l1-4.6c0.1-0.4,0.1-0.7,0-1c-0.1-0.3-0.2-0.5-0.3-0.7c-0.2-0.2-0.4-0.4-0.7-0.5
			c-0.3-0.1-0.5-0.2-0.8-0.1c-0.3,0-0.5,0.1-0.8,0.3c-0.3,0.2-0.4,0.4-0.5,0.7c-0.1,0.3-0.2,0.5-0.1,0.8c0,0.3,0.1,0.5,0.3,0.8
			l-0.8,0.6c-0.3-0.4-0.5-0.8-0.5-1.3c0-0.4,0-0.9,0.2-1.3c0.2-0.4,0.5-0.8,0.9-1.1c0.4-0.3,0.8-0.5,1.3-0.5c0.4,0,0.9,0,1.3,0.2
			c0.4,0.2,0.8,0.5,1,0.9c0.2,0.3,0.3,0.5,0.4,0.8c0.1,0.3,0.1,0.5,0.1,0.8c0,0.3-0.1,0.6-0.1,1l-0.8,3.8l-0.3-0.2l3.4-2.5l0.5,0.8
			L843.1,343.8z"/>
		<path d="M851,338.3c-0.3,0.2-0.7,0.4-1,0.5c-0.4,0.1-0.7,0.1-1.1,0c-0.4-0.1-0.7-0.2-1-0.5l0.6-0.8c0.3,0.2,0.6,0.3,1,0.3
			s0.7-0.1,0.9-0.3c0.3-0.2,0.4-0.4,0.5-0.7c0.1-0.3,0.1-0.5,0.1-0.8c0-0.3-0.2-0.5-0.3-0.8c-0.3-0.4-0.6-0.6-1.1-0.7
			c-0.4-0.1-0.8,0-1.2,0.3c-0.1,0.1-0.2,0.2-0.3,0.3c-0.1,0.1-0.2,0.2-0.2,0.4l-0.8-0.3l0.8-3.9l0.3,0.2l-3.2,2.3l-0.5-0.8l3.8-2.7
			l0.6,0.8l-0.6,3.4l-0.2-0.3c0.4-0.3,0.8-0.5,1.3-0.6s0.9,0,1.3,0.2c0.4,0.2,0.8,0.5,1.1,0.9c0.3,0.4,0.5,0.8,0.5,1.3
			s0,0.9-0.2,1.3S851.4,338,851,338.3z"/>
		<path d="M856,334.5l-4-5.5l-0.7,1.6l-0.6-0.9l0.7-1.6l0.8-0.6l4.7,6.4L856,334.5z"/>
		<path d="M859,332.3l-0.5-0.7l1-4.6c0.1-0.4,0.1-0.7,0-1c-0.1-0.2-0.2-0.5-0.3-0.7c-0.2-0.2-0.4-0.4-0.7-0.5
			c-0.3-0.1-0.5-0.2-0.8-0.1c-0.3,0-0.5,0.1-0.8,0.3c-0.3,0.2-0.4,0.4-0.5,0.7c-0.1,0.3-0.2,0.5-0.1,0.8c0,0.3,0.1,0.5,0.3,0.8
			l-0.8,0.6c-0.3-0.4-0.5-0.8-0.5-1.3c0-0.4,0-0.9,0.2-1.3c0.2-0.4,0.5-0.8,0.9-1.1c0.4-0.3,0.8-0.5,1.3-0.5c0.4,0,0.9,0,1.3,0.2
			c0.4,0.2,0.8,0.5,1,0.9c0.2,0.3,0.3,0.5,0.4,0.8c0.1,0.3,0.1,0.5,0.1,0.8c0,0.3-0.1,0.6-0.1,1l-0.8,3.8l-0.3-0.2l3.4-2.5l0.5,0.8
			L859,332.3z"/>
	</g>
	<g>
		<rect x="696.3" y="159" class="st2" width="16.4" height="157.1"/>
		<rect x="712.7" y="262.2" class="st3" width="16.4" height="54"/>
	</g>
	<g>
		<rect x="768" y="131.9" class="st2" width="16.4" height="184.2"/>
		<rect x="784.5" y="253.2" class="st3" width="16.4" height="62.9"/>
	</g>
	<g>
		<rect x="839.8" y="70.2" class="st2" width="16.4" height="245.9"/>
		<rect x="856.2" y="233.6" class="st3" width="16.4" height="82.5"/>
	</g>
</g>
<g id="space">
	<g>
		<path d="M4,157.1v-6.8l-1.5,0.9V150l1.5-0.9h1v7.9H4z"/>
		<path d="M7.8,157.1l0-0.9l3.5-3.2c0.3-0.3,0.5-0.5,0.6-0.8c0.1-0.2,0.2-0.5,0.2-0.7c0-0.3-0.1-0.6-0.2-0.8
			c-0.1-0.2-0.3-0.4-0.6-0.6s-0.5-0.2-0.8-0.2c-0.3,0-0.6,0.1-0.8,0.2s-0.4,0.3-0.6,0.6s-0.2,0.5-0.2,0.8h-1c0-0.5,0.1-0.9,0.3-1.3
			c0.2-0.4,0.5-0.7,0.9-0.9c0.4-0.2,0.8-0.3,1.4-0.3c0.5,0,0.9,0.1,1.3,0.3c0.4,0.2,0.7,0.5,0.9,0.9c0.2,0.4,0.3,0.8,0.3,1.3
			c0,0.3,0,0.6-0.1,0.9s-0.2,0.5-0.4,0.7c-0.2,0.2-0.4,0.4-0.7,0.7l-2.9,2.6l-0.1-0.3H13v0.9H7.8L7.8,157.1z"/>
		<path d="M17.9,157.2c-0.5,0-1-0.1-1.4-0.3c-0.4-0.2-0.7-0.6-1-1c-0.2-0.4-0.3-0.9-0.3-1.4v-2.9c0-0.5,0.1-1,0.3-1.4
			c0.2-0.4,0.6-0.7,1-1c0.4-0.2,0.9-0.3,1.4-0.3s1,0.1,1.4,0.3c0.4,0.2,0.7,0.5,1,1c0.2,0.4,0.3,0.9,0.3,1.4v2.9
			c0,0.5-0.1,1-0.3,1.4c-0.2,0.4-0.5,0.7-1,1C18.9,157.1,18.4,157.2,17.9,157.2z M17.9,156.3c0.3,0,0.6-0.1,0.8-0.2
			c0.3-0.2,0.5-0.4,0.6-0.6s0.2-0.5,0.2-0.8v-3c0-0.3-0.1-0.6-0.2-0.8s-0.4-0.5-0.6-0.6c-0.3-0.2-0.5-0.2-0.8-0.2
			c-0.3,0-0.6,0.1-0.8,0.2c-0.3,0.2-0.5,0.4-0.6,0.6s-0.2,0.5-0.2,0.8v3c0,0.3,0.1,0.6,0.2,0.8s0.4,0.5,0.6,0.6
			C17.3,156.2,17.6,156.3,17.9,156.3z"/>
		<path d="M22.9,158.3l0.1-0.5c0.2,0,0.3,0,0.3-0.1c0.1-0.1,0.1-0.2,0.1-0.3c0-0.1,0-0.3,0-0.4h-0.6v-1.2H24v1.4
			c0,0.4-0.1,0.7-0.3,0.9S23.2,158.4,22.9,158.3z"/>
		<path d="M29.6,157.2c-0.5,0-1-0.1-1.4-0.3c-0.4-0.2-0.7-0.6-1-1c-0.2-0.4-0.3-0.9-0.3-1.4v-2.9c0-0.5,0.1-1,0.3-1.4
			c0.2-0.4,0.6-0.7,1-1c0.4-0.2,0.9-0.3,1.4-0.3s1,0.1,1.4,0.3c0.4,0.2,0.7,0.5,1,1c0.2,0.4,0.3,0.9,0.3,1.4v2.9
			c0,0.5-0.1,1-0.3,1.4c-0.2,0.4-0.5,0.7-1,1C30.6,157.1,30.1,157.2,29.6,157.2z M29.6,156.3c0.3,0,0.6-0.1,0.8-0.2
			c0.3-0.2,0.5-0.4,0.6-0.6s0.2-0.5,0.2-0.8v-3c0-0.3-0.1-0.6-0.2-0.8s-0.4-0.5-0.6-0.6c-0.3-0.2-0.5-0.2-0.8-0.2
			c-0.3,0-0.6,0.1-0.8,0.2c-0.3,0.2-0.5,0.4-0.6,0.6s-0.2,0.5-0.2,0.8v3c0,0.3,0.1,0.6,0.2,0.8s0.4,0.5,0.6,0.6
			C29,156.2,29.3,156.3,29.6,156.3z"/>
		<path d="M37.4,157.2c-0.5,0-1-0.1-1.4-0.3c-0.4-0.2-0.7-0.6-1-1s-0.3-0.9-0.3-1.4v-2.9c0-0.5,0.1-1,0.3-1.4s0.5-0.7,1-1
			c0.4-0.2,0.9-0.3,1.4-0.3c0.5,0,1,0.1,1.4,0.3c0.4,0.2,0.7,0.5,1,1c0.2,0.4,0.3,0.9,0.3,1.4v2.9c0,0.5-0.1,1-0.3,1.4
			c-0.2,0.4-0.5,0.7-1,1C38.3,157.1,37.9,157.2,37.4,157.2z M37.4,156.3c0.3,0,0.6-0.1,0.8-0.2c0.3-0.2,0.5-0.4,0.6-0.6
			s0.2-0.5,0.2-0.8v-3c0-0.3-0.1-0.6-0.2-0.8s-0.4-0.5-0.6-0.6c-0.3-0.2-0.5-0.2-0.8-0.2c-0.3,0-0.6,0.1-0.8,0.2
			c-0.3,0.2-0.5,0.4-0.6,0.6s-0.2,0.5-0.2,0.8v3c0,0.3,0.1,0.6,0.2,0.8s0.4,0.5,0.6,0.6C36.8,156.2,37.1,156.3,37.4,156.3z"/>
		<path d="M45.1,157.2c-0.5,0-1-0.1-1.4-0.3c-0.4-0.2-0.7-0.6-1-1s-0.3-0.9-0.3-1.4v-2.9c0-0.5,0.1-1,0.3-1.4s0.5-0.7,1-1
			c0.4-0.2,0.9-0.3,1.4-0.3c0.5,0,1,0.1,1.4,0.3c0.4,0.2,0.7,0.5,1,1c0.2,0.4,0.3,0.9,0.3,1.4v2.9c0,0.5-0.1,1-0.3,1.4
			c-0.2,0.4-0.5,0.7-1,1C46.1,157.1,45.7,157.2,45.1,157.2z M45.1,156.3c0.3,0,0.6-0.1,0.8-0.2c0.3-0.2,0.5-0.4,0.6-0.6
			s0.2-0.5,0.2-0.8v-3c0-0.3-0.1-0.6-0.2-0.8s-0.4-0.5-0.6-0.6c-0.3-0.2-0.5-0.2-0.8-0.2c-0.3,0-0.6,0.1-0.8,0.2
			c-0.3,0.2-0.5,0.4-0.6,0.6s-0.2,0.5-0.2,0.8v3c0,0.3,0.1,0.6,0.2,0.8s0.4,0.5,0.6,0.6C44.5,156.2,44.8,156.3,45.1,156.3z"/>
	</g>
	<g>
		<path d="M10.3,211.9c-0.5,0-1-0.1-1.3-0.3s-0.7-0.5-0.9-0.9c-0.2-0.4-0.3-0.8-0.3-1.3c0-0.5,0.1-0.9,0.3-1.3
			c0.2-0.4,0.6-0.7,1-0.9l0,0.4c-0.4-0.2-0.7-0.4-0.9-0.8c-0.2-0.3-0.3-0.7-0.3-1.1c0-0.4,0.1-0.8,0.3-1.2c0.2-0.3,0.5-0.6,0.8-0.7
			c0.4-0.2,0.8-0.3,1.2-0.3c0.5,0,0.9,0.1,1.2,0.3c0.4,0.2,0.6,0.4,0.8,0.7c0.2,0.3,0.3,0.7,0.3,1.2c0,0.4-0.1,0.8-0.3,1.1
			c-0.2,0.3-0.5,0.6-0.9,0.8l0-0.4c0.5,0.2,0.8,0.5,1,0.9c0.2,0.4,0.3,0.8,0.3,1.3c0,0.5-0.1,0.9-0.3,1.3c-0.2,0.4-0.5,0.6-0.9,0.9
			S10.8,211.9,10.3,211.9z M10.3,211c0.5,0,0.8-0.1,1.1-0.4c0.3-0.3,0.4-0.6,0.4-1.1c0-0.5-0.1-0.9-0.4-1.1
			c-0.3-0.3-0.7-0.4-1.1-0.4c-0.5,0-0.8,0.1-1.1,0.4c-0.3,0.3-0.4,0.6-0.4,1.1c0,0.5,0.1,0.9,0.4,1.1C9.5,210.9,9.9,211,10.3,211z
			 M10.3,207.1c0.4,0,0.7-0.1,1-0.3c0.2-0.2,0.4-0.5,0.4-0.9c0-0.4-0.1-0.7-0.4-0.9c-0.2-0.2-0.6-0.3-1-0.3c-0.4,0-0.7,0.1-1,0.3
			c-0.3,0.2-0.4,0.5-0.4,0.9c0,0.4,0.1,0.7,0.4,0.9C9.6,207,9.9,207.1,10.3,207.1z"/>
		<path d="M17.9,211.9c-0.5,0-1-0.1-1.4-0.3c-0.4-0.2-0.7-0.6-1-1c-0.2-0.4-0.3-0.9-0.3-1.4v-2.9c0-0.5,0.1-1,0.3-1.4
			c0.2-0.4,0.6-0.7,1-1c0.4-0.2,0.9-0.3,1.4-0.3s1,0.1,1.4,0.3c0.4,0.2,0.7,0.5,1,1c0.2,0.4,0.3,0.9,0.3,1.4v2.9
			c0,0.5-0.1,1-0.3,1.4c-0.2,0.4-0.5,0.7-1,1C18.9,211.8,18.4,211.9,17.9,211.9z M17.9,211c0.3,0,0.6-0.1,0.8-0.2
			c0.3-0.2,0.5-0.4,0.6-0.6s0.2-0.5,0.2-0.8v-3c0-0.3-0.1-0.6-0.2-0.8s-0.4-0.5-0.6-0.6c-0.3-0.2-0.5-0.2-0.8-0.2
			c-0.3,0-0.6,0.1-0.8,0.2c-0.3,0.2-0.5,0.4-0.6,0.6s-0.2,0.5-0.2,0.8v3c0,0.3,0.1,0.6,0.2,0.8s0.4,0.5,0.6,0.6
			C17.3,210.9,17.6,211,17.9,211z"/>
		<path d="M22.9,213l0.1-0.5c0.2,0,0.3,0,0.3-0.1c0.1-0.1,0.1-0.2,0.1-0.3c0-0.1,0-0.3,0-0.4h-0.6v-1.2H24v1.4
			c0,0.4-0.1,0.7-0.3,0.9S23.2,213.1,22.9,213z"/>
		<path d="M29.6,211.9c-0.5,0-1-0.1-1.4-0.3c-0.4-0.2-0.7-0.6-1-1c-0.2-0.4-0.3-0.9-0.3-1.4v-2.9c0-0.5,0.1-1,0.3-1.4
			c0.2-0.4,0.6-0.7,1-1c0.4-0.2,0.9-0.3,1.4-0.3s1,0.1,1.4,0.3c0.4,0.2,0.7,0.5,1,1c0.2,0.4,0.3,0.9,0.3,1.4v2.9
			c0,0.5-0.1,1-0.3,1.4c-0.2,0.4-0.5,0.7-1,1C30.6,211.8,30.1,211.9,29.6,211.9z M29.6,211c0.3,0,0.6-0.1,0.8-0.2
			c0.3-0.2,0.5-0.4,0.6-0.6s0.2-0.5,0.2-0.8v-3c0-0.3-0.1-0.6-0.2-0.8s-0.4-0.5-0.6-0.6c-0.3-0.2-0.5-0.2-0.8-0.2
			c-0.3,0-0.6,0.1-0.8,0.2c-0.3,0.2-0.5,0.4-0.6,0.6s-0.2,0.5-0.2,0.8v3c0,0.3,0.1,0.6,0.2,0.8s0.4,0.5,0.6,0.6
			C29,210.9,29.3,211,29.6,211z"/>
		<path d="M37.4,211.9c-0.5,0-1-0.1-1.4-0.3c-0.4-0.2-0.7-0.6-1-1c-0.2-0.4-0.3-0.9-0.3-1.4v-2.9c0-0.5,0.1-1,0.3-1.4
			c0.2-0.4,0.6-0.7,1-1c0.4-0.2,0.9-0.3,1.4-0.3s1,0.1,1.4,0.3c0.4,0.2,0.7,0.5,1,1c0.2,0.4,0.3,0.9,0.3,1.4v2.9
			c0,0.5-0.1,1-0.3,1.4c-0.2,0.4-0.5,0.7-1,1C38.3,211.8,37.9,211.9,37.4,211.9z M37.4,211c0.3,0,0.6-0.1,0.8-0.2
			c0.3-0.2,0.5-0.4,0.6-0.6s0.2-0.5,0.2-0.8v-3c0-0.3-0.1-0.6-0.2-0.8s-0.4-0.5-0.6-0.6c-0.3-0.2-0.5-0.2-0.8-0.2
			c-0.3,0-0.6,0.1-0.8,0.2c-0.3,0.2-0.5,0.4-0.6,0.6s-0.2,0.5-0.2,0.8v3c0,0.3,0.1,0.6,0.2,0.8s0.4,0.5,0.6,0.6
			C36.8,210.9,37.1,211,37.4,211z"/>
		<path d="M45.1,211.9c-0.5,0-1-0.1-1.4-0.3c-0.4-0.2-0.7-0.6-1-1s-0.3-0.9-0.3-1.4v-2.9c0-0.5,0.1-1,0.3-1.4s0.5-0.7,1-1
			c0.4-0.2,0.9-0.3,1.4-0.3c0.5,0,1,0.1,1.4,0.3c0.4,0.2,0.7,0.5,1,1c0.2,0.4,0.3,0.9,0.3,1.4v2.9c0,0.5-0.1,1-0.3,1.4
			c-0.2,0.4-0.5,0.7-1,1C46.1,211.8,45.7,211.9,45.1,211.9z M45.1,211c0.3,0,0.6-0.1,0.8-0.2c0.3-0.2,0.5-0.4,0.6-0.6
			s0.2-0.5,0.2-0.8v-3c0-0.3-0.1-0.6-0.2-0.8s-0.4-0.5-0.6-0.6c-0.3-0.2-0.5-0.2-0.8-0.2c-0.3,0-0.6,0.1-0.8,0.2
			c-0.3,0.2-0.5,0.4-0.6,0.6s-0.2,0.5-0.2,0.8v3c0,0.3,0.1,0.6,0.2,0.8s0.4,0.5,0.6,0.6C44.5,210.9,44.8,211,45.1,211z"/>
	</g>
	<g>
		<path d="M3.6,102.4v-6.8l-1.5,0.9v-1.1l1.5-0.9h1v7.9H3.6z"/>
		<path d="M10.2,102.5c-0.5,0-1-0.1-1.4-0.4c-0.4-0.2-0.7-0.6-1-1c-0.2-0.4-0.4-0.9-0.4-1.4v-2.6c0-0.6,0.1-1,0.4-1.5s0.6-0.8,1-1
			s0.9-0.4,1.4-0.4c0.4,0,0.8,0.1,1.2,0.3c0.4,0.2,0.7,0.4,0.9,0.8L11.7,96c-0.2-0.2-0.4-0.4-0.6-0.5c-0.3-0.1-0.5-0.2-0.8-0.2
			c-0.3,0-0.7,0.1-0.9,0.2c-0.3,0.2-0.5,0.4-0.6,0.7c-0.2,0.3-0.2,0.6-0.2,0.9v1.6l-0.2-0.2c0.2-0.3,0.5-0.6,0.9-0.8
			c0.4-0.2,0.7-0.3,1.2-0.3c0.5,0,0.9,0.1,1.3,0.3c0.4,0.2,0.7,0.5,0.9,0.9c0.2,0.4,0.3,0.8,0.3,1.3c0,0.5-0.1,0.9-0.4,1.3
			c-0.2,0.4-0.6,0.7-1,1C11.2,102.4,10.7,102.5,10.2,102.5L10.2,102.5z M10.2,101.6c0.3,0,0.6-0.1,0.9-0.2c0.3-0.2,0.5-0.4,0.6-0.6
			c0.2-0.3,0.2-0.5,0.2-0.9s-0.1-0.6-0.2-0.9c-0.2-0.3-0.4-0.5-0.6-0.6c-0.3-0.2-0.5-0.2-0.9-0.2c-0.3,0-0.6,0.1-0.9,0.2
			c-0.3,0.2-0.5,0.4-0.6,0.6c-0.2,0.3-0.2,0.5-0.2,0.9c0,0.3,0.1,0.6,0.2,0.9c0.2,0.3,0.4,0.5,0.6,0.6
			C9.6,101.5,9.9,101.6,10.2,101.6z"/>
		<path d="M17.9,102.5c-0.5,0-1-0.1-1.4-0.3c-0.4-0.2-0.7-0.6-1-1c-0.2-0.4-0.3-0.9-0.3-1.4V97c0-0.5,0.1-1,0.3-1.4
			c0.2-0.4,0.6-0.7,1-1c0.4-0.2,0.9-0.3,1.4-0.3s1,0.1,1.4,0.3c0.4,0.2,0.7,0.5,1,1c0.2,0.4,0.3,0.9,0.3,1.4v2.9
			c0,0.5-0.1,1-0.3,1.4c-0.2,0.4-0.5,0.7-1,1C18.9,102.4,18.4,102.5,17.9,102.5z M17.9,101.6c0.3,0,0.6-0.1,0.8-0.2
			c0.3-0.2,0.5-0.4,0.6-0.6s0.2-0.5,0.2-0.8v-3c0-0.3-0.1-0.6-0.2-0.8s-0.4-0.5-0.6-0.6c-0.3-0.2-0.5-0.2-0.8-0.2
			c-0.3,0-0.6,0.1-0.8,0.2c-0.3,0.2-0.5,0.4-0.6,0.6s-0.2,0.5-0.2,0.8v3c0,0.3,0.1,0.6,0.2,0.8s0.4,0.5,0.6,0.6
			C17.3,101.5,17.6,101.6,17.9,101.6z"/>
		<path d="M22.9,103.6l0.1-0.5c0.2,0,0.3,0,0.3-0.1c0.1-0.1,0.1-0.2,0.1-0.3c0-0.1,0-0.3,0-0.4h-0.6v-1.2H24v1.4
			c0,0.4-0.1,0.7-0.3,0.9S23.2,103.7,22.9,103.6z"/>
		<path d="M29.6,102.5c-0.5,0-1-0.1-1.4-0.3c-0.4-0.2-0.7-0.6-1-1c-0.2-0.4-0.3-0.9-0.3-1.4V97c0-0.5,0.1-1,0.3-1.4
			c0.2-0.4,0.6-0.7,1-1c0.4-0.2,0.9-0.3,1.4-0.3s1,0.1,1.4,0.3c0.4,0.2,0.7,0.5,1,1c0.2,0.4,0.3,0.9,0.3,1.4v2.9
			c0,0.5-0.1,1-0.3,1.4c-0.2,0.4-0.5,0.7-1,1C30.6,102.4,30.1,102.5,29.6,102.5z M29.6,101.6c0.3,0,0.6-0.1,0.8-0.2
			c0.3-0.2,0.5-0.4,0.6-0.6s0.2-0.5,0.2-0.8v-3c0-0.3-0.1-0.6-0.2-0.8s-0.4-0.5-0.6-0.6c-0.3-0.2-0.5-0.2-0.8-0.2
			c-0.3,0-0.6,0.1-0.8,0.2c-0.3,0.2-0.5,0.4-0.6,0.6s-0.2,0.5-0.2,0.8v3c0,0.3,0.1,0.6,0.2,0.8s0.4,0.5,0.6,0.6
			C29,101.5,29.3,101.6,29.6,101.6z"/>
		<path d="M37.4,102.5c-0.5,0-1-0.1-1.4-0.3c-0.4-0.2-0.7-0.6-1-1s-0.3-0.9-0.3-1.4V97c0-0.5,0.1-1,0.3-1.4s0.5-0.7,1-1
			c0.4-0.2,0.9-0.3,1.4-0.3c0.5,0,1,0.1,1.4,0.3c0.4,0.2,0.7,0.5,1,1C39.9,96,40,96.4,40,97v2.9c0,0.5-0.1,1-0.3,1.4
			c-0.2,0.4-0.5,0.7-1,1C38.3,102.4,37.9,102.5,37.4,102.5z M37.4,101.6c0.3,0,0.6-0.1,0.8-0.2c0.3-0.2,0.5-0.4,0.6-0.6
			s0.2-0.5,0.2-0.8v-3c0-0.3-0.1-0.6-0.2-0.8s-0.4-0.5-0.6-0.6c-0.3-0.2-0.5-0.2-0.8-0.2c-0.3,0-0.6,0.1-0.8,0.2
			c-0.3,0.2-0.5,0.4-0.6,0.6s-0.2,0.5-0.2,0.8v3c0,0.3,0.1,0.6,0.2,0.8s0.4,0.5,0.6,0.6C36.8,101.5,37.1,101.6,37.4,101.6z"/>
		<path d="M45.1,102.5c-0.5,0-1-0.1-1.4-0.3c-0.4-0.2-0.7-0.6-1-1s-0.3-0.9-0.3-1.4V97c0-0.5,0.1-1,0.3-1.4s0.5-0.7,1-1
			c0.4-0.2,0.9-0.3,1.4-0.3c0.5,0,1,0.1,1.4,0.3c0.4,0.2,0.7,0.5,1,1c0.2,0.4,0.3,0.9,0.3,1.4v2.9c0,0.5-0.1,1-0.3,1.4
			c-0.2,0.4-0.5,0.7-1,1C46.1,102.4,45.7,102.5,45.1,102.5z M45.1,101.6c0.3,0,0.6-0.1,0.8-0.2c0.3-0.2,0.5-0.4,0.6-0.6
			s0.2-0.5,0.2-0.8v-3c0-0.3-0.1-0.6-0.2-0.8s-0.4-0.5-0.6-0.6c-0.3-0.2-0.5-0.2-0.8-0.2c-0.3,0-0.6,0.1-0.8,0.2
			c-0.3,0.2-0.5,0.4-0.6,0.6s-0.2,0.5-0.2,0.8v3c0,0.3,0.1,0.6,0.2,0.8s0.4,0.5,0.6,0.6C44.5,101.5,44.8,101.6,45.1,101.6z"/>
	</g>
	<g>
		<path d="M0,47.7l0-0.9l3.5-3.2c0.3-0.3,0.5-0.5,0.6-0.8c0.1-0.2,0.2-0.5,0.2-0.7c0-0.3-0.1-0.6-0.2-0.8c-0.1-0.2-0.3-0.4-0.6-0.6
			S3,40.5,2.7,40.5c-0.3,0-0.6,0.1-0.8,0.2s-0.4,0.3-0.6,0.6S1,41.8,1,42.1H0c0-0.5,0.1-0.9,0.3-1.3c0.2-0.4,0.5-0.7,0.9-0.9
			c0.4-0.2,0.8-0.3,1.4-0.3c0.5,0,0.9,0.1,1.3,0.3c0.4,0.2,0.7,0.5,0.9,0.9c0.2,0.4,0.3,0.8,0.3,1.3c0,0.3,0,0.6-0.1,0.9
			s-0.2,0.5-0.4,0.7c-0.2,0.2-0.4,0.4-0.7,0.7l-2.9,2.6L1,46.7h4.3v0.9L0,47.7L0,47.7z"/>
		<path d="M10.1,47.8c-0.5,0-1-0.1-1.4-0.3c-0.4-0.2-0.7-0.6-1-1c-0.2-0.4-0.3-0.9-0.3-1.4v-2.9c0-0.5,0.1-1,0.3-1.4
			c0.2-0.4,0.6-0.7,1-1c0.4-0.2,0.9-0.3,1.4-0.3s1,0.1,1.4,0.3c0.4,0.2,0.7,0.5,1,1c0.2,0.4,0.3,0.9,0.3,1.4v2.9
			c0,0.5-0.1,1-0.3,1.4c-0.2,0.4-0.5,0.7-1,1C11.1,47.7,10.7,47.8,10.1,47.8z M10.1,46.9c0.3,0,0.6-0.1,0.8-0.2
			c0.3-0.2,0.5-0.4,0.6-0.6s0.2-0.5,0.2-0.8v-3c0-0.3-0.1-0.6-0.2-0.8s-0.4-0.5-0.6-0.6c-0.3-0.2-0.5-0.2-0.8-0.2
			c-0.3,0-0.6,0.1-0.8,0.2c-0.3,0.2-0.5,0.4-0.6,0.6s-0.2,0.5-0.2,0.8v3c0,0.3,0.1,0.6,0.2,0.8s0.4,0.5,0.6,0.6
			C9.5,46.8,9.8,46.9,10.1,46.9z"/>
		<path d="M17.9,47.8c-0.5,0-1-0.1-1.4-0.3c-0.4-0.2-0.7-0.6-1-1c-0.2-0.4-0.3-0.9-0.3-1.4v-2.9c0-0.5,0.1-1,0.3-1.4
			c0.2-0.4,0.6-0.7,1-1c0.4-0.2,0.9-0.3,1.4-0.3s1,0.1,1.4,0.3c0.4,0.2,0.7,0.5,1,1c0.2,0.4,0.3,0.9,0.3,1.4v2.9
			c0,0.5-0.1,1-0.3,1.4c-0.2,0.4-0.5,0.7-1,1C18.9,47.7,18.4,47.8,17.9,47.8z M17.9,46.9c0.3,0,0.6-0.1,0.8-0.2
			c0.3-0.2,0.5-0.4,0.6-0.6s0.2-0.5,0.2-0.8v-3c0-0.3-0.1-0.6-0.2-0.8s-0.4-0.5-0.6-0.6c-0.3-0.2-0.5-0.2-0.8-0.2
			c-0.3,0-0.6,0.1-0.8,0.2c-0.3,0.2-0.5,0.4-0.6,0.6s-0.2,0.5-0.2,0.8v3c0,0.3,0.1,0.6,0.2,0.8s0.4,0.5,0.6,0.6
			C17.3,46.8,17.6,46.9,17.9,46.9z"/>
		<path d="M22.9,48.9l0.1-0.5c0.2,0,0.3,0,0.3-0.1c0.1-0.1,0.1-0.2,0.1-0.3c0-0.1,0-0.3,0-0.4h-0.6v-1.2H24v1.4
			c0,0.4-0.1,0.7-0.3,0.9S23.2,49,22.9,48.9z"/>
		<path d="M29.6,47.8c-0.5,0-1-0.1-1.4-0.3c-0.4-0.2-0.7-0.6-1-1c-0.2-0.4-0.3-0.9-0.3-1.4v-2.9c0-0.5,0.1-1,0.3-1.4
			c0.2-0.4,0.6-0.7,1-1c0.4-0.2,0.9-0.3,1.4-0.3s1,0.1,1.4,0.3c0.4,0.2,0.7,0.5,1,1c0.2,0.4,0.3,0.9,0.3,1.4v2.9
			c0,0.5-0.1,1-0.3,1.4c-0.2,0.4-0.5,0.7-1,1C30.6,47.7,30.1,47.8,29.6,47.8z M29.6,46.9c0.3,0,0.6-0.1,0.8-0.2
			c0.3-0.2,0.5-0.4,0.6-0.6s0.2-0.5,0.2-0.8v-3c0-0.3-0.1-0.6-0.2-0.8s-0.4-0.5-0.6-0.6c-0.3-0.2-0.5-0.2-0.8-0.2
			c-0.3,0-0.6,0.1-0.8,0.2c-0.3,0.2-0.5,0.4-0.6,0.6s-0.2,0.5-0.2,0.8v3c0,0.3,0.1,0.6,0.2,0.8s0.4,0.5,0.6,0.6
			C29,46.8,29.3,46.9,29.6,46.9z"/>
		<path d="M37.4,47.8c-0.5,0-1-0.1-1.4-0.3c-0.4-0.2-0.7-0.6-1-1s-0.3-0.9-0.3-1.4v-2.9c0-0.5,0.1-1,0.3-1.4s0.5-0.7,1-1
			c0.4-0.2,0.9-0.3,1.4-0.3c0.5,0,1,0.1,1.4,0.3c0.4,0.2,0.7,0.5,1,1c0.2,0.4,0.3,0.9,0.3,1.4v2.9c0,0.5-0.1,1-0.3,1.4
			c-0.2,0.4-0.5,0.7-1,1C38.3,47.7,37.9,47.8,37.4,47.8z M37.4,46.9c0.3,0,0.6-0.1,0.8-0.2c0.3-0.2,0.5-0.4,0.6-0.6s0.2-0.5,0.2-0.8
			v-3c0-0.3-0.1-0.6-0.2-0.8s-0.4-0.5-0.6-0.6c-0.3-0.2-0.5-0.2-0.8-0.2c-0.3,0-0.6,0.1-0.8,0.2c-0.3,0.2-0.5,0.4-0.6,0.6
			s-0.2,0.5-0.2,0.8v3c0,0.3,0.1,0.6,0.2,0.8s0.4,0.5,0.6,0.6C36.8,46.8,37.1,46.9,37.4,46.9z"/>
		<path d="M45.1,47.8c-0.5,0-1-0.1-1.4-0.3c-0.4-0.2-0.7-0.6-1-1s-0.3-0.9-0.3-1.4v-2.9c0-0.5,0.1-1,0.3-1.4s0.5-0.7,1-1
			c0.4-0.2,0.9-0.3,1.4-0.3c0.5,0,1,0.1,1.4,0.3c0.4,0.2,0.7,0.5,1,1c0.2,0.4,0.3,0.9,0.3,1.4v2.9c0,0.5-0.1,1-0.3,1.4
			c-0.2,0.4-0.5,0.7-1,1C46.1,47.7,45.7,47.8,45.1,47.8z M45.1,46.9c0.3,0,0.6-0.1,0.8-0.2c0.3-0.2,0.5-0.4,0.6-0.6s0.2-0.5,0.2-0.8
			v-3c0-0.3-0.1-0.6-0.2-0.8s-0.4-0.5-0.6-0.6c-0.3-0.2-0.5-0.2-0.8-0.2c-0.3,0-0.6,0.1-0.8,0.2c-0.3,0.2-0.5,0.4-0.6,0.6
			s-0.2,0.5-0.2,0.8v3c0,0.3,0.1,0.6,0.2,0.8s0.4,0.5,0.6,0.6C44.5,46.8,44.8,46.9,45.1,46.9z"/>
	</g>
	<g>
		<path d="M11.2,266.5V265H7.6v-0.9l2.6-5.5h1.1l-2.6,5.5h2.5v-2.2h1v2.2H13v0.9h-0.8v1.5H11.2z"/>
		<path d="M17.9,266.6c-0.5,0-1-0.1-1.4-0.3c-0.4-0.2-0.7-0.6-1-1s-0.3-0.9-0.3-1.4v-2.9c0-0.5,0.1-1,0.3-1.4s0.5-0.7,1-1
			s0.9-0.3,1.4-0.3c0.5,0,1,0.1,1.4,0.3c0.4,0.2,0.7,0.5,1,1c0.2,0.4,0.3,0.9,0.3,1.4v2.9c0,0.5-0.1,1-0.3,1.4c-0.2,0.4-0.5,0.7-1,1
			C18.9,266.5,18.4,266.6,17.9,266.6z M17.9,265.7c0.3,0,0.6-0.1,0.8-0.2c0.3-0.2,0.5-0.4,0.6-0.6s0.2-0.5,0.2-0.8v-3
			c0-0.3-0.1-0.6-0.2-0.8s-0.4-0.5-0.6-0.6c-0.3-0.2-0.5-0.2-0.8-0.2c-0.3,0-0.6,0.1-0.8,0.2c-0.3,0.2-0.5,0.4-0.6,0.6
			s-0.2,0.5-0.2,0.8v3c0,0.3,0.1,0.6,0.2,0.8s0.4,0.5,0.6,0.6C17.3,265.6,17.6,265.7,17.9,265.7z"/>
		<path d="M22.9,267.7l0.1-0.5c0.2,0,0.3,0,0.3-0.1c0.1-0.1,0.1-0.2,0.1-0.3s0-0.3,0-0.4h-0.6v-1.2H24v1.4c0,0.4-0.1,0.7-0.3,0.9
			C23.5,267.7,23.2,267.8,22.9,267.7z"/>
		<path d="M29.6,266.6c-0.5,0-1-0.1-1.4-0.3c-0.4-0.2-0.7-0.6-1-1s-0.3-0.9-0.3-1.4v-2.9c0-0.5,0.1-1,0.3-1.4s0.5-0.7,1-1
			s0.9-0.3,1.4-0.3c0.5,0,1,0.1,1.4,0.3c0.4,0.2,0.7,0.5,1,1c0.2,0.4,0.3,0.9,0.3,1.4v2.9c0,0.5-0.1,1-0.3,1.4c-0.2,0.4-0.5,0.7-1,1
			C30.6,266.5,30.1,266.6,29.6,266.6z M29.6,265.7c0.3,0,0.6-0.1,0.8-0.2c0.3-0.2,0.5-0.4,0.6-0.6s0.2-0.5,0.2-0.8v-3
			c0-0.3-0.1-0.6-0.2-0.8s-0.4-0.5-0.6-0.6c-0.3-0.2-0.5-0.2-0.8-0.2c-0.3,0-0.6,0.1-0.8,0.2c-0.3,0.2-0.5,0.4-0.6,0.6
			s-0.2,0.5-0.2,0.8v3c0,0.3,0.1,0.6,0.2,0.8s0.4,0.5,0.6,0.6C29,265.6,29.3,265.7,29.6,265.7z"/>
		<path d="M37.4,266.6c-0.5,0-1-0.1-1.4-0.3c-0.4-0.2-0.7-0.6-1-1s-0.3-0.9-0.3-1.4v-2.9c0-0.5,0.1-1,0.3-1.4s0.5-0.7,1-1
			s0.9-0.3,1.4-0.3c0.5,0,1,0.1,1.4,0.3c0.4,0.2,0.7,0.5,1,1c0.2,0.4,0.3,0.9,0.3,1.4v2.9c0,0.5-0.1,1-0.3,1.4c-0.2,0.4-0.5,0.7-1,1
			C38.3,266.5,37.9,266.6,37.4,266.6z M37.4,265.7c0.3,0,0.6-0.1,0.8-0.2c0.3-0.2,0.5-0.4,0.6-0.6s0.2-0.5,0.2-0.8v-3
			c0-0.3-0.1-0.6-0.2-0.8s-0.4-0.5-0.6-0.6c-0.3-0.2-0.5-0.2-0.8-0.2c-0.3,0-0.6,0.1-0.8,0.2c-0.3,0.2-0.5,0.4-0.6,0.6
			s-0.2,0.5-0.2,0.8v3c0,0.3,0.1,0.6,0.2,0.8s0.4,0.5,0.6,0.6C36.8,265.6,37.1,265.7,37.4,265.7z"/>
		<path d="M45.1,266.6c-0.5,0-1-0.1-1.4-0.3c-0.4-0.2-0.7-0.6-1-1c-0.2-0.4-0.3-0.9-0.3-1.4v-2.9c0-0.5,0.1-1,0.3-1.4
			c0.2-0.4,0.6-0.7,1-1c0.4-0.2,0.9-0.3,1.4-0.3s1,0.1,1.4,0.3c0.4,0.2,0.7,0.5,1,1c0.2,0.4,0.3,0.9,0.3,1.4v2.9
			c0,0.5-0.1,1-0.3,1.4c-0.2,0.4-0.5,0.7-1,1C46.1,266.5,45.7,266.6,45.1,266.6z M45.1,265.7c0.3,0,0.6-0.1,0.8-0.2
			c0.3-0.2,0.5-0.4,0.6-0.6s0.2-0.5,0.2-0.8v-3c0-0.3-0.1-0.6-0.2-0.8s-0.4-0.5-0.6-0.6c-0.3-0.2-0.5-0.2-0.8-0.2
			c-0.3,0-0.6,0.1-0.8,0.2c-0.3,0.2-0.5,0.4-0.6,0.6s-0.2,0.5-0.2,0.8v3c0,0.3,0.1,0.6,0.2,0.8s0.4,0.5,0.6,0.6
			C44.5,265.6,44.8,265.7,45.1,265.7z"/>
	</g>
</g>
</svg>
